# 
# Wavefront OBJ file
# Created with Kaydara FBX
# 
mtllib pridrzivac_zupcanika.mtl

g pridrzivac_zupcanika
v 8.996608 21.126588 20.200000
v 9.099059 21.072014 20.200000
v 9.099059 21.072014 21.500000
v 8.890672 21.174044 20.200000
v 8.996608 21.126588 21.500000
v 8.781744 21.214159 20.200000
v 8.890672 21.174044 21.500000
v 8.670332 21.246747 20.200000
v 8.781744 21.214159 21.500000
v 8.556957 21.271656 20.200000
v 8.670332 21.246747 21.500000
v 8.442146 21.288770 20.200000
v 8.556957 21.271656 21.500000
v 8.326434 21.298010 20.200000
v 8.442146 21.288770 21.500000
v 8.210362 21.299331 20.200000
v 8.326434 21.298010 21.500000
v 8.094470 21.292728 20.200000
v 8.210362 21.299331 21.500000
v 7.979299 21.278232 20.200000
v 8.094470 21.292728 21.500000
v 7.865386 21.255910 20.200000
v 7.979299 21.278232 21.500000
v 7.753261 21.225866 20.200000
v 7.865386 21.255910 21.500000
v 7.643448 21.188241 20.200000
v 7.753261 21.225866 21.500000
v 7.536459 21.143209 20.200000
v 7.643448 21.188241 21.500000
v 7.432792 21.090982 20.200000
v 7.536459 21.143209 21.500000
v 7.332932 21.031801 20.200000
v 7.432792 21.090982 21.500000
v 7.237342 20.965944 20.200000
v 7.332932 21.031801 21.500000
v 7.146470 20.893717 20.200000
v 7.237342 20.965944 21.500000
v 7.060738 20.815457 20.200000
v 7.146470 20.893717 21.500000
v 6.980547 20.731529 20.200000
v 7.060738 20.815457 21.500000
v 6.906270 20.642325 20.200000
v 6.980547 20.731529 21.500000
v 6.838254 20.548259 20.200000
v 6.906270 20.642325 21.500000
v 6.776816 20.449771 20.200000
v 6.838254 20.548259 21.500000
v 6.722242 20.347320 20.200000
v 6.776816 20.449771 21.500000
v 6.674787 20.241384 20.200000
v 6.722242 20.347320 21.500000
v 6.634672 20.132456 20.200000
v 6.674787 20.241384 21.500000
v 6.602084 20.021045 20.200000
v 6.634672 20.132456 21.500000
v 6.577174 19.907669 20.200000
v 6.602084 20.021045 21.500000
v 6.560060 19.792858 20.200000
v 6.577174 19.907669 21.500000
v 6.550821 19.677146 20.200000
v 6.560060 19.792858 21.500000
v 6.549500 19.561074 20.200000
v 6.550821 19.677146 21.500000
v 6.556103 19.445182 20.200000
v 6.549500 19.561074 21.500000
v 6.570599 19.330011 20.200000
v 6.556103 19.445182 21.500000
v 6.592921 19.216098 20.200000
v 6.570599 19.330011 21.500000
v 6.622964 19.103973 20.200000
v 6.592921 19.216098 21.500000
v 6.660590 18.994160 20.200000
v 6.622964 19.103973 21.500000
v 6.705621 18.887171 20.200000
v 6.660590 18.994160 21.500000
v 6.757849 18.783504 20.200000
v 6.705621 18.887171 21.500000
v 6.817029 18.683644 20.200000
v 6.757849 18.783504 21.500000
v 6.882886 18.588054 20.200000
v 6.817029 18.683644 21.500000
v 6.955113 18.497182 20.200000
v 6.882886 18.588054 21.500000
v 7.033373 18.411450 20.200000
v 6.955113 18.497182 21.500000
v 7.117301 18.331259 20.200000
v 7.033373 18.411450 21.500000
v 7.206506 18.256982 20.200000
v 7.117301 18.331259 21.500000
v 7.300571 18.188966 20.200000
v 7.206506 18.256982 21.500000
v 7.399059 18.127528 20.200000
v 7.300571 18.188966 21.500000
v 7.501510 18.072954 20.200000
v 7.399059 18.127528 21.500000
v 7.607447 18.025499 20.200000
v 7.501510 18.072954 21.500000
v 7.716375 17.985384 20.200000
v 7.607447 18.025499 21.500000
v 7.827786 17.952796 20.200000
v 7.716375 17.985384 21.500000
v 7.941162 17.927886 20.200000
v 7.827786 17.952796 21.500000
v 8.055973 17.910772 20.200000
v 7.941162 17.927886 21.500000
v 8.171684 17.901533 20.200000
v 8.055973 17.910772 21.500000
v 8.287757 17.900212 20.200000
v 8.171684 17.901533 21.500000
v 8.403649 17.906815 20.200000
v 8.287757 17.900212 21.500000
v 8.518820 17.921311 21.500000
v 8.518820 17.921311 20.200000
v 8.456237 17.912443 20.200000
v 8.403649 17.906815 21.500000
v 8.632733 17.943633 20.200000
v 8.744857 17.973676 20.200000
v 8.632733 17.943633 21.500000
v 8.854670 18.011302 20.200000
v 8.744857 17.973676 21.500000
v 8.961659 18.056333 20.200000
v 8.854670 18.011302 21.500000
v 9.065326 18.108561 20.200000
v 8.961659 18.056333 21.500000
v 9.165187 18.167741 20.200000
v 9.065326 18.108561 21.500000
v 9.260776 18.233598 20.200000
v 9.165187 18.167741 21.500000
v 9.351649 18.305825 20.200000
v 9.260776 18.233598 21.500000
v 9.437380 18.384085 20.200000
v 9.351649 18.305825 21.500000
v 9.517572 18.468013 20.200000
v 9.437380 18.384085 21.500000
v 9.591848 18.557218 20.200000
v 9.517572 18.468013 21.500000
v 9.659864 18.651283 20.200000
v 9.591848 18.557218 21.500000
v 9.721302 18.749771 20.200000
v 9.659864 18.651283 21.500000
v 9.775876 18.852222 20.200000
v 9.721302 18.749771 21.500000
v 9.823332 18.958159 20.200000
v 9.775876 18.852222 21.500000
v 9.863447 19.067087 20.200000
v 9.823332 18.958159 21.500000
v 9.896035 19.178498 20.200000
v 9.863447 19.067087 21.500000
v 9.920944 19.291874 20.200000
v 9.896035 19.178498 21.500000
v 9.938058 19.406685 20.200000
v 9.920944 19.291874 21.500000
v 9.947298 19.522396 20.200000
v 9.938058 19.406685 21.500000
v 9.948619 19.638469 20.200000
v 9.947298 19.522396 21.500000
v 9.942016 19.754361 20.200000
v 9.948619 19.638469 21.500000
v 9.927520 19.869532 20.200000
v 9.942016 19.754361 21.500000
v 9.905198 19.983445 20.200000
v 9.927520 19.869532 21.500000
v 9.875154 20.095569 20.200000
v 9.905198 19.983445 21.500000
v 9.837529 20.205382 20.200000
v 9.875154 20.095569 21.500000
v 9.792497 20.312371 20.200000
v 9.837529 20.205382 21.500000
v 9.740270 20.416038 20.200000
v 9.792497 20.312371 21.500000
v 9.681089 20.515899 20.200000
v 9.740270 20.416038 21.500000
v 9.615232 20.611488 20.200000
v 9.681089 20.515899 21.500000
v 9.543005 20.702361 20.200000
v 9.615232 20.611488 21.500000
v 9.464745 20.788092 20.200000
v 9.543005 20.702361 21.500000
v 9.380817 20.868284 20.200000
v 9.464745 20.788092 21.500000
v 9.291613 20.942560 20.200000
v 9.380817 20.868284 21.500000
v 9.197547 21.010576 20.200000
v 9.291613 20.942560 21.500000
v 9.197547 21.010576 21.500000
v -4.294115 14.372215 20.200000
v -4.622531 14.269976 20.200000
v -3.630683 14.553973 20.200000
v -3.963441 14.466898 20.200000
v -4.948517 14.160232 20.200000
v -5.271900 14.043043 20.200000
v -2.959615 14.705124 20.200000
v -3.296015 14.633396 20.200000
v -2.282323 14.825350 20.200000
v -2.621658 14.769120 20.200000
v -11.305932 16.231180 20.200000
v -11.284512 16.279538 20.200000
v -11.160371 17.136867 20.200000
v -0.914774 14.972080 20.200000
v -1.257834 14.947169 20.200000
v -0.227394 14.998276 20.200000
v -11.417340 16.027653 20.200000
v -6.224746 13.647437 20.200000
v -6.536035 13.501120 20.200000
v -5.910182 13.786578 20.200000
v -11.358160 16.127514 20.200000
v -11.177485 17.251678 20.200000
v -11.156414 16.789191 20.200000
v -11.149811 16.905083 20.200000
v -11.193232 16.560107 20.200000
v -11.170910 16.674020 20.200000
v 0.804122 14.978431 20.200000
v 0.460465 14.992931 20.200000
v -1.600231 14.914398 20.200000
v -0.571234 14.989119 20.200000
v -1.941788 14.873784 20.200000
v -6.843889 13.347703 20.200000
v -11.260901 16.338170 20.200000
v -11.202395 17.365054 20.200000
v 1.831833 14.887726 20.200000
v 0.116566 14.999547 20.200000
v 1.147356 14.956055 20.200000
v -11.223275 16.447982 20.200000
v -11.151132 17.021155 20.200000
v 3.187800 14.657351 20.200000
v 2.512459 14.788088 20.200000
v 1.489986 14.925815 20.200000
v -5.592512 13.918470 20.200000
v -13.561970 15.400342 20.200000
v -13.454981 15.355311 20.200000
v -20.421148 -1.096732 20.200000
v -22.340851 -1.495650 20.200000
v -22.417139 -1.583141 20.200000
v -23.656418 -0.499879 20.200000
v -21.981722 -1.203478 20.200000
v -22.078786 -1.267142 20.200000
v -23.648033 0.804059 20.200000
v -21.775711 -1.096732 20.200000
v -21.880540 -1.146586 20.200000
v -23.567830 2.105555 20.200000
v -13.665637 15.452570 20.200000
v -21.098429 -0.955991 20.200000
v -13.765498 15.511750 20.200000
v -21.214442 -0.959954 20.200000
v -23.193161 4.685431 20.200000
v 3.856438 14.495789 20.200000
v 2.850879 14.726591 20.200000
v 2.172717 14.841809 20.200000
v -7.148143 13.187268 20.200000
v -7.448639 13.019899 20.200000
v -11.483197 15.932063 20.200000
v -7.745218 12.845684 20.200000
v -8.037725 12.664714 20.200000
v -12.656284 15.254781 20.200000
v -12.541473 15.271896 20.200000
v -11.402986 9.745353 20.200000
v -20.752554 -0.991548 20.200000
v -20.866946 -0.971825 20.200000
v -20.529134 -1.054147 20.200000
v -22.487278 -1.675634 20.200000
v -23.643242 -0.934384 20.200000
v -23.661609 -0.065206 20.200000
v -22.258770 -1.413570 20.200000
v -22.171279 -1.337282 20.200000
v -23.658813 0.369489 20.200000
v -23.629271 1.238358 20.200000
v -23.602534 1.672239 20.200000
v -23.525172 2.538161 20.200000
v -21.667725 -1.054147 20.200000
v -23.474574 2.969910 20.200000
v -21.557084 -1.019031 20.200000
v -23.349628 3.830256 20.200000
v -21.329913 -0.971825 20.200000
v -21.444305 -0.991548 20.200000
v -13.951960 15.649834 20.200000
v -13.861087 15.577608 20.200000
v 3.523045 14.580403 20.200000
v -11.555424 15.841191 20.200000
v -8.326005 12.477085 20.200000
v -12.428097 15.296805 20.200000
v -11.176534 10.004254 20.200000
v -11.623443 9.481328 20.200000
v -20.639775 -1.019031 20.200000
v -13.345168 15.317686 20.200000
v -23.416052 3.400657 20.200000
v -23.275322 4.258562 20.200000
v 5.167993 14.081614 20.200000
v 4.516965 14.303742 20.200000
v 4.187803 14.403552 20.200000
v -11.633684 15.755459 20.200000
v -8.609907 12.282895 20.200000
v -9.163982 11.875244 20.200000
v -11.900882 15.532976 20.200000
v -11.806817 15.600992 20.200000
v -12.207758 15.369508 20.200000
v -12.101821 15.416963 20.200000
v -9.958607 11.217225 20.200000
v -12.316685 15.329393 20.200000
v -10.706121 10.506140 20.200000
v -11.837787 9.212318 20.200000
v -13.003959 15.250824 20.200000
v -12.888068 15.244221 20.200000
v -13.119131 15.265320 20.200000
v -20.316319 -1.146586 20.200000
v -13.233044 15.287642 20.200000
v -20.118073 -1.267142 20.200000
v -20.215137 -1.203478 20.200000
v -14.117882 15.812022 20.200000
v -21.426374 10.039247 20.200000
v -21.238328 10.431174 20.200000
v -21.780708 9.245362 20.200000
v -21.607187 9.643932 20.200000
v -14.192159 15.901227 20.200000
v -20.631448 11.585306 20.200000
v -20.415135 11.962368 20.200000
v 5.808153 13.829872 20.200000
v 5.489517 13.959413 20.200000
v -11.275098 17.585393 20.200000
v -11.322553 17.691330 20.200000
v 4.843753 14.196410 20.200000
v -11.717612 15.675268 20.200000
v -22.657689 -1.978709 20.200000
v -22.700273 -2.086695 20.200000
v -23.592959 -1.802299 20.200000
v -8.889282 12.082246 20.200000
v -10.213193 10.985932 20.200000
v -10.462407 10.748862 20.200000
v -10.944205 10.257894 20.200000
v -12.771995 15.245542 20.200000
v -20.982417 -0.959954 20.200000
v -12.045907 8.938463 20.200000
v -12.247693 8.659909 20.200000
v -20.025580 -1.337282 20.200000
v -14.139941 5.006202 20.200000
v -14.251013 4.680667 20.200000
v -13.762370 5.966337 20.200000
v -13.895556 5.649206 20.200000
v -13.474363 6.591021 20.200000
v -13.621948 6.280330 20.200000
v -19.779720 -1.583141 20.200000
v -14.815923 2.342742 20.200000
v -14.865745 2.002407 20.200000
v -19.589025 -1.873880 20.200000
v -14.997225 0.288535 20.200000
v -14.999898 -0.055417 20.200000
v -20.840799 11.204334 20.200000
v -21.043115 10.819580 20.200000
v -14.260175 15.995293 20.200000
v -19.961911 12.704254 20.200000
v -19.725155 13.068828 20.200000
v 6.436098 13.549046 20.200000
v 6.123736 13.693059 20.200000
v -11.234983 17.476465 20.200000
v -23.622087 -1.368572 20.200000
v -22.607834 -1.873880 20.200000
v -22.550942 -1.772698 20.200000
v -9.433864 11.661998 20.200000
v -11.999370 15.471537 20.200000
v -9.698786 11.442620 20.200000
v -12.443039 8.376801 20.200000
v -14.021435 5.329105 20.200000
v -19.938089 -1.413570 20.200000
v -14.539051 3.689984 20.200000
v -14.619838 3.355643 20.200000
v -14.758310 2.681845 20.200000
v -19.740749 -1.632905 20.200000
v -14.907750 1.661019 20.200000
v -19.709581 -1.675634 20.200000
v -14.941917 1.318758 20.200000
v -14.968227 0.975803 20.200000
v -19.645916 -1.772698 20.200000
v -14.986666 0.632335 20.200000
v -21.946878 8.843672 20.200000
v -20.191930 12.335393 20.200000
v -11.506581 17.986334 20.200000
v -11.580858 18.075539 20.200000
v 6.745077 13.397908 20.200000
v -13.158018 7.201844 20.200000
v -13.319692 6.898246 20.200000
v -12.814003 7.797521 20.200000
v -12.989425 7.501655 20.200000
v -12.631842 8.089288 20.200000
v -14.450620 4.022385 20.200000
v -14.354590 4.352670 20.200000
v -19.856008 -1.495650 20.200000
v -14.692937 3.019538 20.200000
v -19.539170 -1.978709 20.200000
v -14.994683 -0.399340 20.200000
v -19.496586 -2.086695 20.200000
v -14.981584 -0.743053 20.200000
v -14.960608 -1.086375 20.200000
v -23.005384 5.534281 20.200000
v -22.899833 5.955975 20.200000
v -14.037691 15.728094 20.200000
v -22.105640 8.438996 20.200000
v -14.321613 16.093781 20.200000
v -19.481740 13.428990 20.200000
v -19.231750 13.784620 20.200000
v -14.376187 16.196231 20.200000
v -18.975270 14.135597 20.200000
v -18.712385 14.481804 20.200000
v -14.423642 16.302168 20.200000
v -18.443184 14.823122 20.200000
v -18.167758 15.159438 20.200000
v -11.438565 17.892268 20.200000
v -23.103172 5.110718 20.200000
v -22.256941 8.031473 20.200000
v -22.536958 7.208432 20.200000
v -22.400730 7.621238 20.200000
v -14.463758 16.411096 20.200000
v -17.886200 15.490637 20.200000
v -17.598605 15.816607 20.200000
v -20.866946 -4.340157 20.200000
v -20.348893 -12.074705 20.200000
v -20.567282 -11.698841 20.200000
v -11.377127 17.793781 20.200000
v -19.461470 -2.197336 20.200000
v -22.786552 6.375660 20.200000
v -22.665580 6.793192 20.200000
v -14.496346 16.522507 20.200000
v -17.305071 16.137240 20.200000
v -20.123637 -12.446494 20.200000
v 9.075987 11.942632 20.200000
v 8.799764 12.147598 20.200000
v -14.521255 16.635883 20.200000
v -19.891588 -12.814082 20.200000
v -20.982417 -4.352028 20.200000
v -20.983163 -10.935395 20.200000
v -21.180514 -10.548071 20.200000
v 9.613972 11.513971 20.200000
v 9.347437 11.731386 20.200000
v -12.033103 18.434991 20.200000
v -12.136770 18.487219 20.200000
v -11.837653 18.309953 20.200000
v -11.933243 18.375811 20.200000
v -22.735389 -2.197336 20.200000
v -19.761786 -13.013370 20.200000
v -20.752554 -4.320434 20.200000
v -20.778729 -11.319028 20.200000
v 9.875452 11.290502 20.200000
v 8.518915 12.346177 20.200000
v -12.243759 18.532250 20.200000
v -11.661049 18.159467 20.200000
v -11.746781 18.237727 20.200000
v -17.005696 16.452425 20.200000
v -14.538369 16.750694 20.200000
v -16.700581 16.762058 20.200000
v -21.098429 -4.355991 20.200000
v -21.370717 -10.157187 20.200000
v -21.553706 -9.762874 20.200000
v -14.412950 18.765470 20.200000
v -13.981128 18.212293 20.200000
v -14.065056 18.132102 20.200000
v -14.065780 19.027081 20.200000
v -13.797858 18.354586 20.200000
v 10.382699 10.825874 20.200000
v 10.131740 11.061096 20.200000
v 8.233585 12.538264 20.200000
v 7.943927 12.723758 20.200000
v -12.353572 18.569875 20.200000
v -12.465697 18.599919 20.200000
v -14.547608 16.866406 20.200000
v -16.389829 17.066033 20.200000
v -21.214442 -4.352028 20.200000
v -21.729421 -9.365267 20.200000
v -21.897802 -8.964498 20.200000
v -5.871793 22.921562 20.200000
v -5.449713 23.025564 20.200000
v -3.744435 23.363544 20.200000
v -3.314595 23.428390 20.200000
v -4.600179 23.210220 20.200000
v -4.173011 23.290813 20.200000
v -2.018944 23.575408 20.200000
v -1.585503 23.608519 20.200000
v -2.883636 23.485328 20.200000
v -2.451704 23.534339 20.200000
v -14.527831 17.213541 20.200000
v -16.073545 17.364248 20.200000
v -15.751837 17.656603 20.200000
v -15.092580 18.223336 20.200000
v -14.755255 18.497525 20.200000
v -14.215543 17.955498 20.200000
v -13.891924 18.286569 20.200000
v 10.628200 10.584960 20.200000
v 11.016762 10.179929 20.200000
v 10.868111 10.338479 20.200000
v 7.650091 12.902562 20.200000
v 7.352233 13.074581 20.200000
v 7.050508 13.239726 20.200000
v -12.579610 18.622241 20.200000
v -14.548930 16.982478 20.200000
v -12.996262 19.773041 20.200000
v -12.630821 20.008457 20.200000
v -13.713862 19.282270 20.200000
v -13.357316 19.530952 20.200000
v -10.742186 21.082728 20.200000
v -10.353066 21.276513 20.200000
v -6.291890 22.809824 20.200000
v -5.025794 23.121794 20.200000
v -1.151527 23.633662 20.200000
v 1.021251 23.639649 20.200000
v 1.455359 23.616899 20.200000
v -14.475465 17.439579 20.200000
v -14.505509 17.327454 20.200000
v -14.143316 18.046370 20.200000
v -13.596919 18.470598 20.200000
v -13.699370 18.416024 20.200000
v -12.694781 18.636737 20.200000
v -21.329913 -4.340157 20.200000
v -22.058792 -8.560704 20.200000
v -22.212337 -8.154021 20.200000
v -21.444305 -4.320434 20.200000
v -22.358385 -7.744585 20.200000
v -22.496886 -7.332536 20.200000
v -12.261117 20.237119 20.200000
v -11.887275 20.458951 20.200000
v -11.127681 20.881827 20.200000
v -11.509420 20.673878 20.200000
v -7.949638 22.286301 20.200000
v -7.538878 22.428582 20.200000
v -9.165269 21.814532 20.200000
v -8.762971 21.979225 20.200000
v -6.709865 22.690388 20.200000
v -7.125574 22.563293 20.200000
v -0.282555 23.660011 20.200000
v 0.152147 23.661209 20.200000
v -0.717162 23.650828 20.200000
v 0.586798 23.654421 20.200000
v 3.615609 23.383827 20.200000
v 4.044579 23.313459 20.200000
v 4.472185 23.235222 20.200000
v 4.898281 23.149143 20.200000
v -15.424812 17.942998 20.200000
v -14.392808 17.656381 20.200000
v -13.490983 18.518053 20.200000
v -14.931765 -1.429126 20.200000
v -19.433987 -2.310116 20.200000
v -14.895070 -1.771126 20.200000
v -12.822207 -7.784023 20.200000
v -20.215137 -4.108504 20.200000
v -20.529134 -4.257834 20.200000
v -20.421148 -4.215250 20.200000
v -20.639775 -4.292950 20.200000
v -21.775711 -4.215250 20.200000
v -22.751066 -6.501152 20.200000
v -22.866658 -6.082098 20.200000
v -21.880540 -4.165396 20.200000
v -22.974533 -5.660992 20.200000
v -21.981722 -4.108504 20.200000
v -23.074653 -5.237975 20.200000
v -9.960451 21.463117 20.200000
v -9.564474 21.642477 20.200000
v -8.357715 22.136499 20.200000
v 1.888976 23.586177 20.200000
v 2.321956 23.547494 20.200000
v 2.754152 23.500864 20.200000
v 3.185418 23.446302 20.200000
v 9.842005 21.517688 20.200000
v 10.235642 21.333251 20.200000
v 12.520352 20.077768 20.200000
v 17.956341 15.409277 20.200000
v -14.542327 17.098370 20.200000
v -14.437840 17.549391 20.200000
v -14.281400 17.859908 20.200000
v -14.340581 17.760047 20.200000
v -13.270643 18.590756 20.200000
v -13.382055 18.558168 20.200000
v -12.810673 18.643340 20.200000
v -19.414263 -2.424507 20.200000
v -14.850543 -2.112194 20.200000
v -19.402393 -2.539979 20.200000
v -19.589025 -3.438101 20.200000
v -19.539170 -3.333273 20.200000
v -13.853435 -5.751725 20.200000
v -19.645916 -3.539283 20.200000
v -13.425294 -6.690402 20.200000
v -19.938089 -3.898412 20.200000
v -19.856008 -3.816331 20.200000
v -20.118073 -4.044840 20.200000
v -21.557084 -4.292950 20.200000
v -22.171279 -3.974700 20.200000
v -22.078786 -4.044840 20.200000
v -23.166985 -4.813190 20.200000
v -23.328163 -3.958890 20.200000
v -23.396954 -3.529664 20.200000
v -22.657689 -3.333273 20.200000
v 7.415148 22.469792 20.200000
v 7.826686 22.329778 20.200000
v 10.625825 21.141613 20.200000
v 11.774334 20.524157 20.200000
v 12.149393 20.304389 20.200000
v 12.887085 19.844370 20.200000
v 13.249468 19.604274 20.200000
v 13.607379 19.357562 20.200000
v 14.309304 18.844622 20.200000
v 14.991913 18.306243 20.200000
v 15.977598 17.452574 20.200000
v 16.295520 17.156107 20.200000
v 15.654283 17.743151 20.200000
v 17.511164 15.913363 20.200000
v -13.157268 18.615665 20.200000
v -12.926745 18.642019 20.200000
v -13.042457 18.632780 20.200000
v -19.496586 -3.225286 20.200000
v -14.102565 -5.110544 20.200000
v -13.717909 -6.067863 20.200000
v -13.268358 -6.996476 20.200000
v -19.779720 -3.728840 20.200000
v -20.316319 -4.165396 20.200000
v -22.340851 -3.816331 20.200000
v -22.258770 -3.898412 20.200000
v -23.251498 -4.386780 20.200000
v -22.487278 -3.636347 20.200000
v -22.700273 -3.225286 20.200000
v 5.322724 23.055251 20.200000
v 5.745370 22.953577 20.200000
v 6.166078 22.844156 20.200000
v 6.584704 22.727025 20.200000
v 7.001107 22.602223 20.200000
v 9.044899 21.864716 20.200000
v 9.445046 21.694863 20.200000
v 11.012421 20.942840 20.200000
v 13.960698 19.104316 20.200000
v 14.653081 18.578568 20.200000
v 15.325684 18.027739 20.200000
v 16.914759 16.545903 20.200000
v 17.215867 16.232372 20.200000
v 16.607942 16.853849 20.200000
v 17.800551 15.588982 20.200000
v -23.555867 -2.235418 20.200000
v -22.782596 -2.424507 20.200000
v -22.794466 -2.539979 20.200000
v -14.798208 -2.452152 20.200000
v -19.398429 -2.655991 20.200000
v -19.402393 -2.772003 20.200000
v -14.738091 -2.790820 20.200000
v -19.414263 -2.887474 20.200000
v -14.670224 -3.128021 20.200000
v -19.433987 -3.001866 20.200000
v -14.594644 -3.463577 20.200000
v -13.981676 -5.432563 20.200000
v -13.575171 -6.380810 20.200000
v -13.104445 -7.298871 20.200000
v -19.709581 -3.636347 20.200000
v -12.933642 -7.597428 20.200000
v -20.025580 -3.974700 20.200000
v -22.627795 -6.918011 20.200000
v -21.667725 -4.257834 20.200000
v -22.417139 -3.728840 20.200000
v -22.607834 -3.438101 20.200000
v -22.550942 -3.539283 20.200000
v -22.735389 -3.114645 20.200000
v 11.395301 20.736998 20.200000
v -23.510825 -2.667782 20.200000
v -22.762872 -2.310116 20.200000
v -14.511390 -3.797311 20.200000
v -19.461470 -3.114645 20.200000
v -14.420505 -4.129049 20.200000
v -14.322037 -4.458616 20.200000
v 8.235582 22.182226 20.200000
v 8.641699 22.027188 20.200000
v -14.216038 -4.785839 20.200000
v -23.457848 -3.099246 20.200000
v -22.762872 -3.001866 20.200000
v -22.782596 -2.887474 20.200000
v -22.794466 -2.772003 20.200000
v -22.798429 -2.655991 20.200000
v 17.991273 15.368477 20.200958
v 11.089439 10.100710 20.203822
v 11.053282 10.140264 20.200960
v 18.025974 15.327760 20.203822
v 11.131843 10.053958 20.209649
v 11.102308 10.086563 20.205305
v 18.055033 15.293520 20.207705
v 11.161137 10.021428 20.215268
v 18.083930 15.259340 20.212930
v 18.094867 15.246369 20.215268
v 18.128886 15.205902 20.223821
v 11.231500 9.942505 20.234280
v 11.196494 9.981909 20.223830
v 18.162679 15.165523 20.234280
v 18.196153 15.125343 20.246625
v 11.300195 9.864360 20.260761
v 11.266020 9.903372 20.246573
v 18.229077 15.085647 20.260761
v 18.261684 15.046158 20.276781
v 11.366904 9.787415 20.294575
v 11.330667 9.829343 20.275174
v 18.293743 15.007163 20.294575
v 18.325329 14.968577 20.314179
v 11.431328 9.712093 20.335552
v 11.399481 9.749453 20.314220
v 18.356374 14.930489 20.335552
v 11.493185 9.638812 20.383482
v 18.361243 14.924501 20.339101
v 18.389169 14.890079 20.360524
v 11.462614 9.675148 20.358677
v 18.416679 14.856039 20.383482
v 18.445807 14.819857 20.409916
v 11.553069 9.566954 20.438982
v 11.523049 9.603090 20.409961
v 18.474385 14.784217 20.438120
v 18.502240 14.749342 20.467934
v 11.608169 9.500021 20.499188
v 11.580954 9.533179 20.468267
v 18.529233 14.715417 20.499188
v 18.555532 14.682241 20.532067
v 11.660830 9.435308 20.566376
v 11.634943 9.467211 20.532061
v 18.580984 14.650017 20.566376
v 18.605617 14.618720 20.602143
v 11.709992 9.374225 20.639340
v 11.685900 9.404240 20.602217
v 18.629414 14.588383 20.639340
v 11.755468 9.317133 20.717709
v 18.632333 14.584654 20.644096
v 18.653666 14.557360 20.680230
v 11.733209 9.345149 20.677886
v 18.674317 14.530859 20.717709
v 18.695376 14.503754 20.758775
v 11.797094 9.264372 20.801084
v 11.769395 9.299535 20.744215
v 18.715506 14.477770 20.801084
v 18.734688 14.452939 20.844595
v 11.834719 9.216259 20.889039
v 11.816373 9.239769 20.844419
v 18.752812 14.429415 20.889039
v 11.852030 9.193987 20.934702
v 18.769969 14.407090 20.934619
v 11.868214 9.173085 20.981127
v 18.786083 14.386072 20.981127
v 18.801152 14.366373 21.028538
v 18.815185 14.347989 21.076877
v 11.897466 9.135113 21.076877
v 11.883396 9.153409 21.028635
v 18.828112 14.331022 21.125874
v 11.910470 9.118153 21.125974
v 18.840005 14.315383 21.175804
v 11.922378 9.102577 21.175804
v 18.850796 14.301170 21.226393
v 11.933167 9.088429 21.226235
v 18.860444 14.288444 21.277401
v 11.942868 9.075677 21.277401
v 18.869007 14.277134 21.329116
v 11.951415 9.064418 21.328918
v 18.876423 14.267328 21.381152
v 11.958871 9.054579 21.381152
v 18.882721 14.258991 21.433679
v 11.965181 9.046239 21.433733
v 18.887880 14.252156 21.486528
v 11.970338 9.039414 21.486528
v 18.891895 14.246834 21.539599
v 11.974358 9.034088 21.539652
v 18.894772 14.243018 21.592991
v 11.977232 9.030277 21.592991
v 11.978956 9.027991 21.646388
v 18.897073 14.239966 21.700000
v 11.979533 9.027225 21.700000
v 18.896495 14.240733 21.646334
v 11.979533 9.027225 22.500000
v 18.897073 14.239966 22.500000
v -12.794174 -7.830014 20.200958
v -12.766087 -7.875723 20.203822
v -19.702620 -13.102775 20.203822
v -19.732164 -13.058241 20.200960
v -12.732856 -7.929337 20.209645
v -12.709641 -7.966494 20.215268
v -19.652808 -13.177371 20.212935
v -19.677695 -13.140178 20.207709
v -19.643371 -13.191435 20.215268
v -12.756024 -7.892012 20.205308
v -12.681428 -8.011329 20.223820
v -12.653170 -8.055885 20.234280
v -19.584349 -13.278903 20.234280
v -19.613819 -13.235334 20.223831
v -12.624960 -8.100024 20.246624
v -12.596987 -8.143458 20.260761
v -19.525869 -13.364745 20.260761
v -19.555066 -13.321989 20.246574
v -12.571726 -8.182403 20.275174
v -12.541411 -8.228792 20.294575
v -19.468250 -13.448540 20.294575
v -19.496985 -13.406847 20.276730
v -12.513955 -8.270486 20.314178
v -12.486764 -8.311482 20.335552
v -19.411810 -13.529878 20.335552
v -19.439807 -13.489622 20.314221
v -12.459928 -8.351658 20.358628
v -12.433372 -8.391142 20.383482
v -19.356866 -13.608369 20.383482
v -19.381956 -13.572610 20.360566
v -19.407430 -13.536160 20.339073
v -12.407309 -8.429631 20.409915
v -12.381561 -8.467405 20.438120
v -19.303732 -13.683636 20.438120
v -19.330069 -13.646406 20.409963
v -12.355926 -8.504769 20.468386
v -12.331652 -8.539928 20.499188
v -19.252715 -13.755324 20.499188
v -19.277988 -13.719882 20.467812
v -12.307489 -8.574713 20.532066
v -12.283960 -8.608386 20.566376
v -19.204114 -13.823096 20.566376
v -19.228080 -13.789739 20.532057
v -12.261053 -8.640983 20.602143
v -12.238794 -8.672480 20.639340
v -19.158216 -13.886638 20.639340
v -19.180772 -13.855467 20.602218
v -12.196449 -8.731932 20.717709
v -19.155484 -13.890407 20.644015
v -19.115298 -13.945658 20.717709
v -19.135041 -13.918555 20.680301
v -12.217287 -8.702752 20.677806
v -12.183371 -8.750169 20.744215
v -19.075618 -13.999885 20.801084
v -19.095055 -13.973362 20.758759
v -12.157205 -8.786487 20.801084
v -12.138798 -8.811901 20.844595
v -12.121327 -8.835917 20.889039
v -19.039420 -14.049074 20.889039
v -19.057109 -14.025070 20.844420
v -12.104719 -8.858656 20.934619
v -12.089058 -8.880015 20.981127
v -19.022660 -14.071759 20.934700
v -19.006926 -14.093003 20.981127
v -18.992114 -14.112957 21.028637
v -12.074358 -8.899993 21.028538
v -12.060621 -8.918600 21.076877
v -18.978340 -14.131475 21.076877
v -18.965568 -14.148611 21.125976
v -12.047926 -8.935742 21.125874
v -12.036211 -8.951515 21.175804
v -18.943182 -14.178570 21.226237
v -12.025553 -8.965828 21.226393
v -12.016001 -8.978626 21.277401
v -18.953839 -14.164321 21.175804
v -18.925096 -14.202701 21.328916
v -12.007504 -8.989986 21.329116
v -12.000131 -8.999825 21.381152
v -18.933577 -14.191393 21.277401
v -18.911399 -14.220933 21.433733
v -11.993860 -9.008181 21.433679
v -11.988715 -9.015027 21.486528
v -18.917683 -14.212574 21.381152
v -18.902244 -14.233100 21.539653
v -11.984707 -9.020355 21.539599
v -11.981832 -9.024173 21.592991
v -18.906257 -14.227769 21.486528
v -11.979533 -9.027225 21.700000
v -18.897073 -14.239966 21.700000
v -18.897649 -14.239200 21.646389
v -18.899372 -14.236913 21.592991
v -11.980111 -9.026458 21.646334
v -11.979533 -9.027225 22.500000
v -18.897073 -14.239966 22.500000
v -13.104445 -7.298871 24.000000
v -12.933642 -7.597428 24.000000
v -13.268358 -6.996476 24.000000
v -13.425294 -6.690402 24.000000
v -13.575171 -6.380810 24.000000
v -13.717909 -6.067863 24.000000
v -13.853435 -5.751725 24.000000
v -13.981676 -5.432563 24.000000
v -14.102565 -5.110544 24.000000
v -14.216038 -4.785839 24.000000
v -14.322037 -4.458616 24.000000
v -14.420505 -4.129049 24.000000
v -14.511390 -3.797311 24.000000
v -14.594644 -3.463577 24.000000
v -14.670224 -3.128021 24.000000
v -14.738091 -2.790820 24.000000
v -14.798208 -2.452152 24.000000
v -14.850543 -2.112194 24.000000
v -14.895070 -1.771126 24.000000
v -14.931765 -1.429126 24.000000
v -14.960608 -1.086375 24.000000
v -14.981584 -0.743053 24.000000
v -14.994683 -0.399340 24.000000
v -14.999898 -0.055417 24.000000
v -14.997225 0.288535 24.000000
v -14.986666 0.632335 24.000000
v -14.968227 0.975803 24.000000
v -14.941917 1.318758 24.000000
v -14.907750 1.661019 24.000000
v -14.865745 2.002407 24.000000
v -14.815923 2.342742 24.000000
v -14.758310 2.681845 24.000000
v -14.692937 3.019538 24.000000
v -14.619838 3.355643 24.000000
v -14.539051 3.689984 24.000000
v -14.450620 4.022385 24.000000
v -14.354590 4.352670 24.000000
v -14.251013 4.680667 24.000000
v -14.139941 5.006202 24.000000
v -14.021435 5.329105 24.000000
v -13.895556 5.649206 24.000000
v -13.762370 5.966337 24.000000
v -13.621948 6.280330 24.000000
v -13.474363 6.591021 24.000000
v -13.319692 6.898246 24.000000
v -13.158018 7.201844 24.000000
v -12.989425 7.501655 24.000000
v -12.814003 7.797521 24.000000
v -12.631842 8.089288 24.000000
v -12.443039 8.376801 24.000000
v -12.247693 8.659909 24.000000
v -12.045907 8.938463 24.000000
v -11.837787 9.212318 24.000000
v -11.623443 9.481328 24.000000
v -11.402986 9.745353 24.000000
v -11.176534 10.004254 24.000000
v -10.944205 10.257894 24.000000
v -10.706121 10.506140 24.000000
v -10.462407 10.748862 24.000000
v -10.213193 10.985932 24.000000
v -9.958607 11.217225 24.000000
v -9.698786 11.442620 24.000000
v -9.433864 11.661998 24.000000
v -9.163982 11.875244 24.000000
v -8.889282 12.082246 24.000000
v -8.609907 12.282895 24.000000
v -8.326005 12.477085 24.000000
v -8.037725 12.664714 24.000000
v -7.745218 12.845684 24.000000
v -7.448639 13.019899 24.000000
v -7.148143 13.187268 24.000000
v -6.843889 13.347703 24.000000
v -6.536035 13.501120 24.000000
v -6.224746 13.647437 24.000000
v -5.910182 13.786578 24.000000
v -5.592512 13.918470 24.000000
v -5.271900 14.043043 24.000000
v -4.948517 14.160232 24.000000
v -4.622531 14.269976 24.000000
v -4.294115 14.372215 24.000000
v -3.963441 14.466898 24.000000
v -3.630683 14.553973 24.000000
v -3.296015 14.633396 24.000000
v -2.959615 14.705124 24.000000
v -2.621658 14.769120 24.000000
v -2.282323 14.825350 24.000000
v -1.941788 14.873784 24.000000
v -1.600231 14.914398 24.000000
v -1.257834 14.947169 24.000000
v -0.914774 14.972080 24.000000
v -0.571234 14.989119 24.000000
v -0.227394 14.998276 24.000000
v 0.116566 14.999547 24.000000
v 0.460465 14.992931 24.000000
v 0.804122 14.978431 24.000000
v 1.147356 14.956055 24.000000
v 1.489986 14.925815 24.000000
v 1.831833 14.887726 24.000000
v 2.172717 14.841809 24.000000
v 2.512459 14.788088 24.000000
v 2.850879 14.726591 24.000000
v 3.187800 14.657351 24.000000
v 3.523045 14.580403 24.000000
v 3.856438 14.495789 24.000000
v 4.187803 14.403552 24.000000
v 4.516965 14.303742 24.000000
v 4.843753 14.196410 24.000000
v 5.167993 14.081614 24.000000
v 5.489517 13.959413 24.000000
v 5.808153 13.829872 24.000000
v 6.123736 13.693059 24.000000
v 6.436098 13.549046 24.000000
v 6.745077 13.397908 24.000000
v 7.050508 13.239726 24.000000
v 7.352233 13.074581 24.000000
v 7.650091 12.902562 24.000000
v 7.943927 12.723758 24.000000
v 8.233585 12.538264 24.000000
v 8.518915 12.346177 24.000000
v 8.799764 12.147598 24.000000
v 9.075987 11.942632 24.000000
v 9.347437 11.731386 24.000000
v 9.613972 11.513971 24.000000
v 9.875452 11.290502 24.000000
v 10.131740 11.061096 24.000000
v 10.382699 10.825874 24.000000
v 10.628200 10.584960 24.000000
v 10.868111 10.338479 24.000000
v -12.183371 -8.750169 23.455785
v -12.060621 -8.918600 23.123123
v -12.047901 -8.935775 23.074026
v -12.089058 -8.880015 23.218873
v -12.074330 -8.900032 23.171365
v -12.138870 -8.811801 23.355581
v -12.121327 -8.835917 23.310961
v -12.157205 -8.786487 23.398916
v -12.104690 -8.858696 23.265298
v -11.981832 -9.024173 22.607009
v -11.980109 -9.026460 22.553612
v -11.988715 -9.015027 22.713472
v -11.984703 -9.020360 22.660348
v -12.007535 -8.989945 22.871082
v -12.000131 -8.999825 22.818848
v -12.016001 -8.978626 22.922599
v -11.993854 -9.008189 22.766267
v -12.036211 -8.951515 23.024196
v -12.025585 -8.965786 22.973765
v -12.196449 -8.731932 23.482291
v -12.238794 -8.672480 23.560660
v -12.217244 -8.702813 23.522114
v -12.307493 -8.574708 23.667939
v -12.283960 -8.608386 23.633624
v -12.261007 -8.641048 23.597783
v -12.331652 -8.539928 23.700812
v -12.356024 -8.504627 23.731733
v -12.380804 -8.468512 23.761018
v -12.486764 -8.311482 23.864448
v -12.433372 -8.391142 23.816518
v -12.407265 -8.429696 23.790039
v -12.459874 -8.351739 23.841323
v -12.571726 -8.182403 23.924826
v -12.541411 -8.228792 23.905425
v -12.513898 -8.270571 23.885780
v -12.709641 -7.966494 23.984732
v -12.596987 -8.143458 23.939239
v -12.653170 -8.055885 23.965720
v -12.625069 -8.099855 23.953427
v -12.681399 -8.011374 23.976170
v -12.732837 -7.929368 23.990351
v -12.756037 -7.891990 23.994695
v -12.822207 -7.784023 24.000000
v -12.766089 -7.875720 23.996178
v -12.794145 -7.830061 23.999040
v 11.089441 10.100707 23.996178
v 11.053245 10.140305 23.999042
v 11.102326 10.086544 23.994692
v 11.016762 10.179929 24.000000
v 11.266154 9.903221 23.953376
v 11.231500 9.942505 23.965720
v 11.300195 9.864360 23.939239
v 11.196459 9.981949 23.976180
v 11.330667 9.829343 23.924826
v 11.161137 10.021428 23.984732
v 11.131818 10.053985 23.990355
v 11.399415 9.749530 23.885822
v 11.366904 9.787415 23.905425
v 11.431328 9.712093 23.864448
v 11.493185 9.638812 23.816518
v 11.462550 9.675223 23.841372
v 11.552213 9.567987 23.761880
v 11.522999 9.603150 23.790085
v 11.608169 9.500021 23.700812
v 11.581063 9.533047 23.731614
v 11.660830 9.435308 23.633624
v 11.634947 9.467207 23.667934
v 11.709992 9.374225 23.560660
v 11.685850 9.404303 23.597857
v 11.755468 9.317133 23.482291
v 11.733163 9.345207 23.522194
v 11.769395 9.299535 23.455785
v 11.942868 9.075677 22.922599
v 11.933198 9.088387 22.973607
v 11.958871 9.054579 22.818848
v 11.951445 9.064378 22.870884
v 11.970338 9.039414 22.713472
v 11.965175 9.046247 22.766321
v 11.977232 9.030277 22.607009
v 11.974355 9.034093 22.660401
v 11.978955 9.027992 22.553666
v 11.816449 9.239672 23.355405
v 11.797094 9.264372 23.398916
v 11.834719 9.216259 23.310961
v 11.868214 9.173085 23.218873
v 11.851999 9.194026 23.265381
v 11.897466 9.135113 23.123123
v 11.883366 9.153448 23.171462
v 11.922378 9.102577 23.024196
v 11.910445 9.118186 23.074126
v -12.082246 -8.889282 21.222108
v -12.082246 -8.889282 22.977892
v 11.875244 9.163982 22.977892
v 11.875244 9.163982 21.222108
v -18.899372 -14.236913 22.607009
v -18.897651 -14.239199 22.553666
v -18.906257 -14.227769 22.713472
v -18.902248 -14.233096 22.660401
v -18.917683 -14.212574 22.818848
v -18.911405 -14.220926 22.766321
v -18.933577 -14.191393 22.922599
v -18.925065 -14.202742 22.870884
v -18.953839 -14.164321 23.024196
v -18.943151 -14.178611 22.973607
v -18.978340 -14.131475 23.123123
v -18.965593 -14.148578 23.074126
v -18.992144 -14.112918 23.171462
v -19.006926 -14.093003 23.218873
v -19.039420 -14.049074 23.310961
v -19.022688 -14.071720 23.265381
v -19.075618 -13.999885 23.398916
v -19.057037 -14.025168 23.355405
v -19.115298 -13.945658 23.482291
v -19.095048 -13.973372 23.441225
v -19.155437 -13.890472 23.555904
v -19.135080 -13.918502 23.519770
v -19.158216 -13.886638 23.560660
v -19.204114 -13.823096 23.633624
v -19.180819 -13.855402 23.597857
v -19.252715 -13.755324 23.700812
v -19.228073 -13.789749 23.667933
v -19.303732 -13.683636 23.761880
v -19.277886 -13.720025 23.732066
v -19.356866 -13.608369 23.816518
v -19.330115 -13.646342 23.790084
v -19.407395 -13.536210 23.860899
v -19.382004 -13.572542 23.839476
v -19.411810 -13.529878 23.864448
v -19.468250 -13.448540 23.905425
v -19.439865 -13.489538 23.885821
v -19.525869 -13.364745 23.939239
v -19.496898 -13.406974 23.923219
v -19.584349 -13.278903 23.965720
v -19.554952 -13.322155 23.953375
v -19.643372 -13.191434 23.984732
v -19.613850 -13.235289 23.976179
v -19.702620 -13.102775 23.996178
v -19.677717 -13.140146 23.992295
v -19.652826 -13.177345 23.987070
v -19.761786 -13.013370 24.000000
v -19.732195 -13.058195 23.999042
v 18.896496 14.240731 22.553611
v 18.894772 14.243018 22.607009
v 18.891899 14.246829 22.660347
v 18.887880 14.252156 22.713472
v 18.882727 14.258983 22.766267
v 18.876423 14.267328 22.818848
v 18.868976 14.277175 22.871084
v 18.860444 14.288444 22.922599
v 18.850764 14.301212 22.973763
v 18.840005 14.315383 23.024196
v 18.828137 14.330988 23.074024
v 18.815185 14.347989 23.123123
v 18.801182 14.366334 23.171363
v 18.786083 14.386072 23.218873
v 18.769998 14.407052 23.265300
v 18.752812 14.429415 23.310961
v 18.715506 14.477770 23.398916
v 18.734613 14.453035 23.355580
v 18.674317 14.530859 23.482291
v 18.695368 14.503764 23.441241
v 18.632283 14.584718 23.555985
v 18.629414 14.588383 23.560660
v 18.653706 14.557308 23.519699
v 18.580984 14.650017 23.633624
v 18.605667 14.618657 23.597782
v 18.529233 14.715417 23.700812
v 18.555525 14.682250 23.667943
v 18.474385 14.784217 23.761880
v 18.502131 14.749479 23.732188
v 18.416679 14.856039 23.816518
v 18.445857 14.819796 23.790037
v 18.356374 14.930490 23.864448
v 18.389222 14.890014 23.839434
v 18.361205 14.924548 23.860927
v 18.293743 15.007163 23.905425
v 18.325394 14.968498 23.885779
v 18.229077 15.085647 23.939239
v 18.261586 15.046277 23.923270
v 18.162679 15.165523 23.965720
v 18.196024 15.125498 23.953426
v 18.094868 15.246368 23.984732
v 18.128921 15.205861 23.976169
v 18.025974 15.327760 23.996178
v 18.083950 15.259316 23.987065
v 18.055058 15.293491 23.992291
v 17.956341 15.409277 24.000000
v 17.991309 15.368435 23.999040
v -13.699370 18.416024 21.500000
v -13.797858 18.354586 21.500000
v -13.891924 18.286569 21.500000
v -13.981128 18.212293 21.500000
v -14.065056 18.132102 21.500000
v -14.143316 18.046370 21.500000
v -14.215543 17.955498 21.500000
v -14.281400 17.859908 21.500000
v -14.340581 17.760047 21.500000
v -14.392808 17.656381 21.500000
v -14.437840 17.549391 21.500000
v -14.475465 17.439579 21.500000
v -14.505509 17.327454 21.500000
v -14.527831 17.213541 21.500000
v -14.542327 17.098370 21.500000
v -14.548930 16.982478 21.500000
v -14.547608 16.866406 21.500000
v -14.538369 16.750694 21.500000
v -14.521255 16.635883 21.500000
v -14.496346 16.522507 21.500000
v -14.463758 16.411096 21.500000
v -14.423642 16.302168 21.500000
v -14.376187 16.196231 21.500000
v -14.321613 16.093781 21.500000
v -14.260175 15.995293 21.500000
v -14.192159 15.901227 21.500000
v -14.117882 15.812022 21.500000
v -14.037691 15.728094 21.500000
v -13.951960 15.649834 21.500000
v -13.861087 15.577608 21.500000
v -13.765498 15.511750 21.500000
v -13.665637 15.452570 21.500000
v -13.561970 15.400342 21.500000
v -13.454981 15.355311 21.500000
v -13.345168 15.317686 21.500000
v -13.233044 15.287642 21.500000
v -13.119131 15.265320 21.500000
v -13.003959 15.250824 21.500000
v -12.888068 15.244221 21.500000
v -12.771995 15.245542 21.500000
v -12.656284 15.254781 21.500000
v -12.541473 15.271896 21.500000
v -12.428097 15.296805 21.500000
v -12.316685 15.329393 21.500000
v -12.207758 15.369508 21.500000
v -12.101821 15.416963 21.500000
v -11.999370 15.471537 21.500000
v -11.900882 15.532976 21.500000
v -11.806817 15.600992 21.500000
v -11.717612 15.675268 21.500000
v -11.633684 15.755459 21.500000
v -11.555424 15.841191 21.500000
v -11.483197 15.932063 21.500000
v -11.417340 16.027653 21.500000
v -11.358160 16.127514 21.500000
v -11.260901 16.338170 21.500000
v -11.305932 16.231180 21.500000
v -11.223275 16.447982 21.500000
v -11.193232 16.560107 21.500000
v -11.170910 16.674020 21.500000
v -11.156414 16.789191 21.500000
v -11.149811 16.905083 21.500000
v -11.151132 17.021155 21.500000
v -11.160371 17.136867 21.500000
v -11.177485 17.251678 21.500000
v -11.202395 17.365054 21.500000
v -11.234983 17.476465 21.500000
v -11.275098 17.585393 21.500000
v -11.322553 17.691330 21.500000
v -11.377127 17.793781 21.500000
v -11.438565 17.892268 21.500000
v -11.506581 17.986334 21.500000
v -11.580858 18.075539 21.500000
v -11.661049 18.159467 21.500000
v -11.746781 18.237727 21.500000
v -11.837653 18.309953 21.500000
v -11.933243 18.375811 21.500000
v -12.033103 18.434991 21.500000
v -12.136770 18.487219 21.500000
v -12.243759 18.532250 21.500000
v -12.353572 18.569875 21.500000
v -12.465697 18.599919 21.500000
v -12.579610 18.622241 21.500000
v -12.694781 18.636737 21.500000
v -12.810673 18.643340 21.500000
v -12.926745 18.642019 21.500000
v -13.042457 18.632780 21.500000
v -13.157268 18.615665 21.500000
v -13.270643 18.590756 21.500000
v -13.382055 18.558168 21.500000
v -13.490983 18.518053 21.500000
v -13.596919 18.470598 21.500000
v -22.798429 -2.655991 21.500000
v -22.794466 -2.772003 21.500000
v -22.782596 -2.887474 21.500000
v -22.762872 -3.001866 21.500000
v -22.735389 -3.114645 21.500000
v -22.700273 -3.225286 21.500000
v -22.657689 -3.333273 21.500000
v -22.607834 -3.438101 21.500000
v -22.550942 -3.539283 21.500000
v -22.487278 -3.636347 21.500000
v -22.417139 -3.728840 21.500000
v -22.340851 -3.816331 21.500000
v -22.258770 -3.898412 21.500000
v -22.171279 -3.974700 21.500000
v -22.078786 -4.044840 21.500000
v -21.981722 -4.108504 21.500000
v -21.880540 -4.165396 21.500000
v -21.775711 -4.215250 21.500000
v -21.667725 -4.257834 21.500000
v -21.557084 -4.292950 21.500000
v -21.444305 -4.320434 21.500000
v -21.329913 -4.340157 21.500000
v -21.214442 -4.352028 21.500000
v -21.098429 -4.355991 21.500000
v -20.982417 -4.352028 21.500000
v -20.866946 -4.340157 21.500000
v -20.752554 -4.320434 21.500000
v -20.639775 -4.292950 21.500000
v -20.529134 -4.257834 21.500000
v -20.421148 -4.215250 21.500000
v -20.316319 -4.165396 21.500000
v -20.215137 -4.108504 21.500000
v -20.118073 -4.044840 21.500000
v -20.025580 -3.974700 21.500000
v -19.938089 -3.898412 21.500000
v -19.856008 -3.816331 21.500000
v -19.779720 -3.728840 21.500000
v -19.709581 -3.636347 21.500000
v -19.645916 -3.539283 21.500000
v -19.589025 -3.438101 21.500000
v -19.539170 -3.333273 21.500000
v -19.496586 -3.225286 21.500000
v -19.461470 -3.114645 21.500000
v -19.433987 -3.001866 21.500000
v -19.414263 -2.887474 21.500000
v -19.402393 -2.772003 21.500000
v -19.398429 -2.655991 21.500000
v -19.402393 -2.539979 21.500000
v -19.414263 -2.424507 21.500000
v -19.433987 -2.310116 21.500000
v -19.461470 -2.197336 21.500000
v -19.496586 -2.086695 21.500000
v -19.539170 -1.978709 21.500000
v -19.589025 -1.873880 21.500000
v -19.645916 -1.772698 21.500000
v -19.779720 -1.583141 21.500000
v -19.709581 -1.675634 21.500000
v -19.856008 -1.495650 21.500000
v -19.938089 -1.413570 21.500000
v -20.025580 -1.337282 21.500000
v -20.118073 -1.267142 21.500000
v -20.215137 -1.203478 21.500000
v -20.316319 -1.146586 21.500000
v -20.421148 -1.096732 21.500000
v -20.529134 -1.054147 21.500000
v -20.639775 -1.019031 21.500000
v -20.752554 -0.991548 21.500000
v -20.866946 -0.971825 21.500000
v -20.982417 -0.959954 21.500000
v -21.098429 -0.955991 21.500000
v -21.214442 -0.959954 21.500000
v -21.329913 -0.971825 21.500000
v -21.444305 -0.991548 21.500000
v -21.557084 -1.019031 21.500000
v -21.667725 -1.054147 21.500000
v -21.775711 -1.096732 21.500000
v -21.880540 -1.146586 21.500000
v -21.981722 -1.203478 21.500000
v -22.078786 -1.267142 21.500000
v -22.171279 -1.337282 21.500000
v -22.258770 -1.413570 21.500000
v -22.340851 -1.495650 21.500000
v -22.417139 -1.583141 21.500000
v -22.487278 -1.675634 21.500000
v -22.550942 -1.772698 21.500000
v -22.607834 -1.873880 21.500000
v -22.657689 -1.978709 21.500000
v -22.700273 -2.086695 21.500000
v -22.735389 -2.197336 21.500000
v -22.762872 -2.310116 21.500000
v -22.782596 -2.424507 21.500000
v -22.794466 -2.539979 21.500000
v 17.800551 15.588982 24.000000
v 17.511164 15.913363 24.000000
v 17.215867 16.232372 24.000000
v 16.914759 16.545903 24.000000
v 16.607942 16.853849 24.000000
v 16.295520 17.156107 24.000000
v 15.977598 17.452574 24.000000
v 15.654283 17.743151 24.000000
v 15.325684 18.027739 24.000000
v 14.991913 18.306243 24.000000
v 14.653081 18.578568 24.000000
v 14.309304 18.844622 24.000000
v 13.960698 19.104316 24.000000
v 13.607379 19.357562 24.000000
v 13.249468 19.604274 24.000000
v 12.887085 19.844370 24.000000
v 12.520352 20.077768 24.000000
v 12.149393 20.304389 24.000000
v 11.774334 20.524157 24.000000
v 11.395301 20.736998 24.000000
v 11.012421 20.942840 24.000000
v 7.826686 22.329778 24.000000
v 7.415148 22.469792 24.000000
v 7.001107 22.602223 24.000000
v 6.584704 22.727025 24.000000
v 6.166078 22.844156 24.000000
v 5.745370 22.953577 24.000000
v 5.322724 23.055251 24.000000
v 4.898281 23.149143 24.000000
v 4.472185 23.235222 24.000000
v 4.044579 23.313459 24.000000
v 3.615609 23.383827 24.000000
v 3.185418 23.446302 24.000000
v 2.754152 23.500864 24.000000
v 2.321956 23.547494 24.000000
v 1.888976 23.586177 24.000000
v 1.455359 23.616899 24.000000
v 1.021251 23.639649 24.000000
v 0.586798 23.654421 24.000000
v 0.152147 23.661209 24.000000
v -0.282555 23.660011 24.000000
v -0.717162 23.650828 24.000000
v -1.151527 23.633662 24.000000
v -1.585503 23.608519 24.000000
v -2.018944 23.575408 24.000000
v -2.451704 23.534339 24.000000
v -2.883636 23.485328 24.000000
v -3.314595 23.428390 24.000000
v -3.744435 23.363544 24.000000
v -4.173011 23.290813 24.000000
v -4.600179 23.210220 24.000000
v -5.025794 23.121794 24.000000
v -5.449713 23.025564 24.000000
v -5.871793 22.921562 24.000000
v -6.291890 22.809824 24.000000
v -6.709865 22.690388 24.000000
v -7.125574 22.563293 24.000000
v -7.538878 22.428582 24.000000
v -7.949638 22.286301 24.000000
v -8.357715 22.136499 24.000000
v -8.762971 21.979225 24.000000
v -9.165269 21.814532 24.000000
v -9.564474 21.642477 24.000000
v -9.960451 21.463117 24.000000
v -10.353066 21.276513 24.000000
v -10.742186 21.082728 24.000000
v -11.127681 20.881827 24.000000
v -11.509420 20.673878 24.000000
v -11.887275 20.458951 24.000000
v -12.261117 20.237119 24.000000
v -12.630821 20.008457 24.000000
v -15.424812 17.942998 24.000000
v -15.751837 17.656603 24.000000
v -16.073545 17.364248 24.000000
v -16.389829 17.066033 24.000000
v -16.700581 16.762058 24.000000
v -17.005696 16.452425 24.000000
v -17.305071 16.137240 24.000000
v -17.598605 15.816607 24.000000
v -17.886200 15.490637 24.000000
v -18.167758 15.159438 24.000000
v -18.443184 14.823122 24.000000
v -18.712385 14.481804 24.000000
v -18.975270 14.135597 24.000000
v -19.231750 13.784620 24.000000
v -19.481740 13.428990 24.000000
v -19.725155 13.068828 24.000000
v -19.961911 12.704254 24.000000
v -20.191930 12.335393 24.000000
v -20.415135 11.962368 24.000000
v -20.631448 11.585306 24.000000
v -20.840799 11.204334 24.000000
v -21.043115 10.819580 24.000000
v -21.238328 10.431174 24.000000
v -21.426374 10.039247 24.000000
v -21.607187 9.643932 24.000000
v -21.780708 9.245362 24.000000
v -21.946878 8.843672 24.000000
v -22.105640 8.438996 24.000000
v -22.256941 8.031473 24.000000
v -22.400730 7.621238 24.000000
v -22.536958 7.208432 24.000000
v -22.665580 6.793192 24.000000
v -22.786552 6.375660 24.000000
v -22.899833 5.955975 24.000000
v -23.005384 5.534281 24.000000
v -23.103172 5.110718 24.000000
v -23.193161 4.685431 24.000000
v -23.275322 4.258562 24.000000
v -23.349628 3.830256 24.000000
v -23.416052 3.400657 24.000000
v -23.474574 2.969910 24.000000
v -23.525172 2.538161 24.000000
v -23.567830 2.105555 24.000000
v -23.602534 1.672239 24.000000
v -23.629271 1.238358 24.000000
v -23.648033 0.804059 24.000000
v -23.658813 0.369489 24.000000
v -23.661609 -0.065206 24.000000
v -23.656418 -0.499879 24.000000
v -23.643242 -0.934384 24.000000
v -23.251498 -4.386780 24.000000
v -23.166985 -4.813190 24.000000
v -23.074653 -5.237975 24.000000
v -22.974533 -5.660992 24.000000
v -22.866658 -6.082098 24.000000
v -22.751066 -6.501152 24.000000
v -22.627795 -6.918011 24.000000
v -22.496886 -7.332536 24.000000
v -22.358385 -7.744585 24.000000
v -22.212337 -8.154021 24.000000
v -22.058792 -8.560704 24.000000
v -21.897802 -8.964498 24.000000
v -21.729421 -9.365267 24.000000
v -21.553706 -9.762874 24.000000
v -21.370717 -10.157187 24.000000
v -21.180514 -10.548071 24.000000
v -20.983163 -10.935395 24.000000
v -20.778729 -11.319028 24.000000
v -20.567282 -11.698841 24.000000
v -20.348893 -12.074705 24.000000
v -20.123637 -12.446494 24.000000
v -23.278947 -4.238703 21.500000
v -23.278947 -4.238703 24.000000
v -23.396954 -3.529664 21.500000
v -23.457848 -3.099246 21.500000
v -23.510825 -2.667782 21.500000
v -23.555867 -2.235418 21.500000
v -23.592959 -1.802299 21.500000
v -23.622087 -1.368572 24.000000
v -23.603542 -1.657943 21.500000
v -15.310298 18.040808 21.500000
v -15.310298 18.040808 24.000000
v -14.755255 18.497525 21.500000
v -14.412950 18.765470 21.500000
v -14.065780 19.027081 21.500000
v -13.713862 19.282270 21.500000
v -13.357316 19.530952 21.500000
v -12.996262 19.773041 24.000000
v -13.237592 19.612296 21.500000
v 7.968649 22.279511 21.500000
v 7.968649 22.279511 24.000000
v 8.641699 22.027188 21.500000
v 9.044899 21.864716 21.500000
v 9.445046 21.694863 21.500000
v 9.842005 21.517688 21.500000
v 10.235642 21.333251 21.500000
v 10.625825 21.141613 24.000000
v 10.365950 21.270239 21.500000
v 10.365950 21.270239 24.000000
v 8.235582 22.182226 21.500000
v -13.237592 19.612296 24.000000
v -15.092580 18.223336 21.500000
v -23.603542 -1.657943 24.000000
v -23.328163 -3.958890 21.500000
v -19.891588 -12.814082 24.000000
v 18.765494 14.412918 21.172048
v 18.765470 14.412950 23.027993
v -19.027057 -14.065812 23.027952
v -19.027081 -14.065780 21.172007
v 11.331561 19.996651 21.500000
v 11.331561 19.996651 24.000000
v 10.128704 17.139531 21.500000
v 10.128704 17.139531 24.000000
v 7.052936 16.752676 21.500000
v 7.052936 16.752676 24.000000
v 6.382884 22.080061 21.500000
v 5.180027 19.222941 21.500000
v 5.180027 19.222941 24.000000
v 6.382884 22.080061 24.000000
v -11.651827 19.811745 21.500000
v -11.651827 19.811745 24.000000
v -9.778917 17.341480 21.500000
v -9.778917 17.341480 24.000000
v -10.981775 14.484360 21.500000
v -10.981775 14.484360 24.000000
v -15.930452 16.567771 21.500000
v -14.057542 14.097506 21.500000
v -14.057542 14.097506 24.000000
v -15.930452 16.567771 24.000000
v -22.983388 -0.184906 21.500000
v -22.983388 -0.184906 24.000000
v -19.907621 0.201949 21.500000
v -19.907621 0.201949 24.000000
v -18.034711 -2.268316 21.500000
v -18.034711 -2.268316 24.000000
v -19.237569 -5.125436 24.000000
v -22.313336 -5.512291 24.000000
v -22.313336 -5.512291 21.500000
v -19.237569 -5.125436 21.500000
usemtl pridrzivac_zupcanikaMaterial0
f 1 2 3
f 4 1 5
f 6 4 7
f 8 6 9
f 10 8 11
f 12 10 13
f 14 12 15
f 16 14 17
f 18 16 19
f 20 18 21
f 22 20 23
f 24 22 25
f 26 24 27
f 28 26 29
f 30 28 31
f 32 30 33
f 34 32 35
f 36 34 37
f 38 36 39
f 40 38 41
f 42 40 43
f 44 42 45
f 46 44 47
f 48 46 49
f 50 48 51
f 52 50 53
f 54 52 55
f 56 54 57
f 58 56 59
f 60 58 61
f 62 60 63
f 64 62 65
f 66 64 67
f 68 66 69
f 70 68 71
f 72 70 73
f 74 72 75
f 76 74 77
f 78 76 79
f 80 78 81
f 82 80 83
f 84 82 85
f 86 84 87
f 88 86 89
f 90 88 91
f 92 90 93
f 94 92 95
f 96 94 97
f 98 96 99
f 100 98 101
f 102 100 103
f 104 102 105
f 106 104 107
f 108 106 109
f 110 108 111
f 112 113 114
f 114 115 112
f 116 113 112
f 117 116 118
f 119 117 120
f 121 119 122
f 123 121 124
f 125 123 126
f 127 125 128
f 129 127 130
f 131 129 132
f 133 131 134
f 135 133 136
f 137 135 138
f 139 137 140
f 141 139 142
f 143 141 144
f 145 143 146
f 147 145 148
f 149 147 150
f 151 149 152
f 153 151 154
f 155 153 156
f 157 155 158
f 159 157 160
f 161 159 162
f 163 161 164
f 165 163 166
f 167 165 168
f 169 167 170
f 171 169 172
f 173 171 174
f 175 173 176
f 177 175 178
f 179 177 180
f 181 179 182
f 183 181 184
f 2 183 185
f 185 3 2
f 184 185 183
f 182 184 181
f 180 182 179
f 178 180 177
f 176 178 175
f 174 176 173
f 172 174 171
f 170 172 169
f 168 170 167
f 166 168 165
f 164 166 163
f 162 164 161
f 160 162 159
f 158 160 157
f 156 158 155
f 154 156 153
f 152 154 151
f 150 152 149
f 148 150 147
f 146 148 145
f 144 146 143
f 142 144 141
f 140 142 139
f 138 140 137
f 136 138 135
f 134 136 133
f 132 134 131
f 130 132 129
f 128 130 127
f 126 128 125
f 124 126 123
f 122 124 121
f 120 122 119
f 118 120 117
f 112 118 116
f 114 110 115
f 111 115 110
f 109 111 108
f 107 109 106
f 105 107 104
f 103 105 102
f 101 103 100
f 99 101 98
f 97 99 96
f 95 97 94
f 93 95 92
f 91 93 90
f 89 91 88
f 87 89 86
f 85 87 84
f 83 85 82
f 81 83 80
f 79 81 78
f 77 79 76
f 75 77 74
f 73 75 72
f 71 73 70
f 69 71 68
f 67 69 66
f 65 67 64
f 63 65 62
f 61 63 60
f 59 61 58
f 57 59 56
f 55 57 54
f 53 55 52
f 51 53 50
f 49 51 48
f 47 49 46
f 45 47 44
f 43 45 42
f 41 43 40
f 39 41 38
f 37 39 36
f 35 37 34
f 33 35 32
f 31 33 30
f 29 31 28
f 27 29 26
f 25 27 24
f 23 25 22
f 21 23 20
f 19 21 18
f 17 19 16
f 15 17 14
f 13 15 12
f 11 13 10
f 9 11 8
f 7 9 6
f 5 7 4
f 3 5 1
f 72 186 187
f 72 188 189
f 72 190 191
f 189 186 72
f 72 192 193
f 72 194 195
f 66 196 197
f 64 66 198
f 74 199 200
f 74 76 201
f 187 190 72
f 195 192 72
f 202 203 204
f 68 70 205
f 66 206 196
f 198 207 64
f 66 208 209
f 66 210 211
f 76 212 213
f 200 214 74
f 201 215 74
f 193 188 72
f 72 74 216
f 204 217 202
f 205 202 68
f 197 218 66
f 68 202 206
f 219 62 64
f 211 208 66
f 78 80 220
f 213 221 76
f 76 78 222
f 215 199 74
f 216 194 72
f 205 203 202
f 206 66 68
f 218 223 66
f 66 224 198
f 66 223 210
f 82 84 225
f 80 82 226
f 220 227 78
f 222 212 76
f 191 228 72
f 70 72 228
f 209 224 66
f 229 230 231
f 232 233 234
f 235 236 237
f 238 239 240
f 241 229 242
f 243 244 245
f 84 86 246
f 225 247 82
f 226 248 80
f 221 201 76
f 228 205 70
f 207 219 64
f 202 249 250
f 251 252 253
f 254 255 256
f 229 257 258
f 231 259 229
f 233 260 261
f 262 263 232
f 236 264 265
f 237 266 235
f 239 235 267
f 240 268 238
f 269 238 270
f 271 269 272
f 245 273 274
f 244 243 241
f 245 275 276
f 246 277 84
f 248 220 80
f 214 216 74
f 250 251 202
f 251 250 252
f 278 253 279
f 255 280 281
f 256 282 254
f 229 283 257
f 230 284 231
f 234 262 232
f 264 263 262
f 266 267 235
f 268 270 238
f 270 285 269
f 272 286 271
f 245 244 273
f 245 276 243
f 90 92 287
f 88 90 288
f 86 88 289
f 247 226 82
f 217 249 202
f 279 290 278
f 290 279 291
f 292 293 294
f 295 296 297
f 280 298 299
f 282 300 254
f 300 301 302
f 303 301 300
f 259 283 229
f 304 231 284
f 305 306 307
f 262 265 264
f 267 240 239
f 286 245 271
f 242 244 241
f 308 309 310
f 308 311 312
f 313 314 315
f 316 317 94
f 92 94 317
f 62 318 319
f 287 320 90
f 289 246 86
f 227 222 78
f 291 321 290
f 322 323 324
f 321 291 325
f 294 325 292
f 297 326 295
f 298 295 327
f 299 328 280
f 300 329 254
f 300 306 303
f 258 330 229
f 307 304 305
f 265 237 236
f 274 271 245
f 306 331 332
f 333 334 335
f 333 336 337
f 333 338 339
f 340 341 342
f 343 344 345
f 312 309 308
f 313 346 314
f 313 310 347
f 348 349 350
f 100 351 352
f 352 316 96
f 317 287 92
f 62 353 318
f 288 289 88
f 253 278 251
f 354 355 322
f 356 355 354
f 292 357 293
f 358 293 357
f 296 358 359
f 327 299 298
f 281 256 255
f 306 305 303
f 284 305 304
f 285 272 269
f 306 300 331
f 332 360 306
f 333 361 334
f 339 336 333
f 362 363 364
f 340 365 341
f 366 342 367
f 368 369 370
f 371 370 372
f 343 372 344
f 308 373 311
f 347 346 313
f 348 374 349
f 62 375 376
f 100 377 351
f 94 96 316
f 62 219 353
f 277 225 84
f 354 261 356
f 357 359 358
f 326 327 295
f 302 329 300
f 261 234 233
f 306 378 379
f 306 380 381
f 360 382 306
f 337 361 333
f 362 383 363
f 362 335 384
f 385 386 365
f 367 368 366
f 368 367 369
f 345 387 343
f 387 345 388
f 389 390 391
f 275 392 393
f 394 395 373
f 315 348 313
f 348 315 374
f 396 397 398
f 399 400 401
f 402 403 404
f 62 405 375
f 96 98 352
f 320 288 90
f 261 260 356
f 359 297 296
f 330 242 229
f 381 378 306
f 382 380 306
f 333 379 338
f 384 383 362
f 385 364 386
f 370 371 368
f 388 389 387
f 389 388 390
f 275 406 392
f 394 407 395
f 394 408 409
f 350 396 348
f 396 350 397
f 399 398 400
f 402 401 403
f 410 411 412
f 413 414 415
f 62 416 405
f 319 416 62
f 324 354 322
f 328 281 280
f 364 385 362
f 342 366 340
f 391 417 389
f 275 418 419
f 275 245 406
f 409 407 394
f 398 399 396
f 404 410 402
f 410 404 411
f 420 412 421
f 413 422 414
f 114 423 424
f 352 98 100
f 325 294 321
f 335 362 333
f 372 343 371
f 393 418 275
f 394 419 408
f 401 402 399
f 421 425 420
f 413 426 422
f 427 428 429
f 113 430 431
f 114 431 423
f 62 432 433
f 62 434 435
f 323 436 324
f 365 340 385
f 373 308 394
f 412 420 410
f 437 413 438
f 413 437 426
f 427 439 428
f 116 440 430
f 424 110 114
f 110 424 441
f 435 432 62
f 433 442 62
f 62 443 444
f 379 333 306
f 310 313 308
f 425 421 445
f 446 445 447
f 415 427 413
f 427 415 439
f 448 449 450
f 451 452 453
f 451 454 455
f 117 456 457
f 116 457 440
f 441 108 110
f 108 458 459
f 62 460 461
f 444 434 62
f 419 394 275
f 447 462 446
f 462 447 463
f 429 448 427
f 448 429 449
f 464 465 466
f 56 467 468
f 54 469 470
f 54 471 472
f 52 473 474
f 52 475 476
f 477 478 479
f 480 481 482
f 453 481 451
f 455 483 451
f 117 484 456
f 117 485 486
f 431 114 113
f 108 441 458
f 106 487 488
f 104 488 489
f 102 489 377
f 454 461 490
f 62 442 460
f 461 454 62
f 376 443 62
f 463 491 462
f 450 464 448
f 464 450 465
f 62 492 493
f 62 494 495
f 60 496 497
f 56 498 467
f 472 469 54
f 54 468 499
f 476 473 52
f 50 474 500
f 48 501 502
f 479 503 504
f 481 505 482
f 483 452 451
f 454 506 507
f 486 484 117
f 459 106 108
f 106 459 487
f 377 100 102
f 490 508 454
f 445 446 425
f 466 509 464
f 509 510 511
f 512 513 514
f 62 515 516
f 495 492 62
f 60 517 496
f 60 516 518
f 58 519 520
f 58 521 522
f 56 523 498
f 56 520 524
f 499 471 54
f 52 470 475
f 50 525 526
f 500 527 50
f 48 528 501
f 42 529 530
f 40 531 532
f 491 463 478
f 479 504 477
f 503 479 533
f 534 533 480
f 453 505 481
f 454 535 506
f 485 117 119
f 430 113 116
f 489 102 104
f 417 391 536
f 537 536 538
f 539 437 540
f 437 541 542
f 438 543 437
f 509 466 510
f 512 511 513
f 544 545 546
f 547 546 548
f 549 548 550
f 493 515 62
f 60 551 552
f 518 517 60
f 58 553 519
f 58 552 521
f 524 523 56
f 474 50 52
f 527 525 50
f 48 526 528
f 46 554 555
f 44 556 557
f 42 557 529
f 40 530 531
f 558 181 183
f 558 559 177
f 173 175 559
f 155 157 560
f 561 133 135
f 477 562 478
f 533 534 563
f 480 564 565
f 507 455 454
f 454 566 567
f 485 121 123
f 457 116 117
f 454 508 568
f 538 569 537
f 570 571 569
f 572 573 574
f 575 572 576
f 539 577 578
f 540 579 539
f 543 541 437
f 514 580 512
f 548 549 547
f 550 581 582
f 581 550 583
f 584 585 586
f 62 454 494
f 497 551 60
f 522 553 58
f 470 52 54
f 502 46 48
f 46 502 554
f 44 555 556
f 532 38 40
f 22 587 588
f 558 179 181
f 559 175 177
f 589 171 173
f 169 171 589
f 159 161 590
f 157 159 591
f 560 592 155
f 153 155 593
f 151 153 594
f 149 151 595
f 147 149 596
f 145 597 598
f 145 147 599
f 141 143 600
f 135 137 561
f 533 563 503
f 482 564 480
f 454 601 566
f 454 602 603
f 485 125 127
f 119 121 485
f 488 104 106
f 569 538 570
f 573 604 605
f 574 606 572
f 576 607 575
f 578 608 539
f 437 609 540
f 511 512 509
f 550 582 549
f 583 610 611
f 610 583 612
f 613 612 584
f 585 614 586
f 552 58 60
f 468 54 56
f 555 44 46
f 530 40 42
f 38 532 615
f 36 615 616
f 34 616 617
f 32 617 618
f 26 619 587
f 588 18 20
f 620 6 8
f 620 621 1
f 183 621 558
f 559 589 173
f 622 167 169
f 165 167 622
f 591 560 157
f 593 594 153
f 594 623 151
f 595 624 149
f 596 625 147
f 599 597 145
f 143 626 627
f 143 145 628
f 600 629 141
f 137 139 561
f 561 485 129
f 630 631 632
f 630 324 436
f 480 565 534
f 603 601 454
f 123 125 485
f 536 537 417
f 633 634 571
f 635 634 636
f 637 635 638
f 639 637 640
f 605 641 573
f 606 642 572
f 607 643 575
f 644 575 645
f 539 646 577
f 542 609 437
f 580 514 647
f 648 647 545
f 583 611 581
f 612 613 649
f 584 650 651
f 585 652 614
f 520 56 58
f 557 42 44
f 616 34 36
f 618 30 32
f 587 24 26
f 588 20 22
f 620 4 6
f 621 2 1
f 177 179 558
f 622 653 165
f 163 165 653
f 592 593 155
f 624 596 149
f 598 628 145
f 628 626 143
f 139 141 561
f 129 131 561
f 632 654 630
f 436 655 630
f 567 535 454
f 568 602 454
f 571 570 633
f 638 640 637
f 640 656 639
f 657 639 658
f 604 657 659
f 642 576 572
f 645 539 644
f 579 646 539
f 545 544 648
f 612 649 610
f 586 650 584
f 526 48 50
f 617 32 34
f 30 618 619
f 22 24 587
f 660 661 12
f 661 8 10
f 1 4 620
f 589 622 169
f 590 161 163
f 623 595 151
f 627 600 143
f 131 133 561
f 655 631 630
f 127 129 485
f 636 638 635
f 658 659 657
f 659 662 604
f 643 645 575
f 647 648 580
f 584 651 613
f 663 664 652
f 615 36 38
f 26 28 619
f 18 588 660
f 10 12 661
f 183 2 621
f 590 591 159
f 629 561 141
f 478 562 491
f 656 658 639
f 641 574 573
f 546 547 544
f 663 665 664
f 663 654 666
f 619 28 30
f 660 14 16
f 8 661 620
f 625 599 147
f 633 636 634
f 608 644 539
f 666 665 663
f 660 16 18
f 653 590 163
f 662 605 604
f 654 667 666
f 12 14 660
f 652 585 663
f 632 667 654
f 516 60 62
f 561 668 669
f 669 670 561
f 668 671 669
f 671 672 673
f 671 674 675
f 675 672 671
f 674 676 675
f 676 677 675
f 677 678 679
f 679 680 677
f 678 681 679
f 681 682 683
f 683 684 681
f 682 685 683
f 685 686 687
f 687 688 685
f 686 689 687
f 689 690 691
f 691 692 689
f 690 693 691
f 694 695 696
f 693 695 694
f 694 697 693
f 696 698 694
f 698 699 700
f 700 701 698
f 699 702 700
f 702 703 704
f 704 705 702
f 703 706 704
f 706 707 708
f 708 709 706
f 707 710 708
f 710 711 712
f 712 713 710
f 711 714 712
f 715 716 717
f 715 718 714
f 714 716 715
f 717 719 715
f 719 720 721
f 721 722 719
f 720 723 721
f 723 724 725
f 725 726 723
f 724 727 725
f 728 727 729
f 729 730 728
f 729 731 730
f 732 733 734
f 735 731 732
f 734 735 732
f 733 736 737
f 736 738 739
f 739 737 736
f 738 740 741
f 740 742 743
f 743 741 740
f 742 744 745
f 744 746 747
f 747 745 744
f 746 748 749
f 748 750 751
f 751 749 748
f 750 752 753
f 752 754 755
f 755 753 752
f 756 755 754
f 757 758 756
f 756 759 757
f 754 759 756
f 753 751 750
f 749 747 746
f 745 743 742
f 741 739 738
f 737 734 733
f 735 730 731
f 728 725 727
f 726 721 723
f 722 715 719
f 718 712 714
f 713 708 710
f 709 704 706
f 705 700 702
f 701 694 698
f 697 691 693
f 692 687 689
f 688 683 685
f 684 679 681
f 680 675 677
f 673 669 671
f 670 485 561
f 760 758 757
f 757 761 760
f 437 762 763
f 763 764 765
f 437 539 762
f 764 766 767
f 767 768 769
f 767 770 768
f 764 763 771
f 771 766 764
f 770 772 773
f 773 774 775
f 770 767 772
f 774 776 777
f 777 778 779
f 774 773 776
f 778 780 781
f 781 782 783
f 778 777 780
f 782 784 785
f 785 786 787
f 782 781 784
f 786 788 789
f 789 790 791
f 791 792 789
f 786 785 788
f 790 793 794
f 794 795 796
f 790 789 793
f 795 797 798
f 798 799 800
f 795 794 797
f 799 801 802
f 802 803 804
f 799 798 801
f 803 805 806
f 806 807 808
f 803 802 805
f 809 810 807
f 809 811 812
f 812 810 809
f 807 806 813
f 811 809 814
f 814 815 816
f 814 816 811
f 814 817 815
f 815 818 819
f 819 820 821
f 815 817 818
f 822 823 824
f 823 825 824
f 820 819 822
f 826 827 828
f 828 829 826
f 825 823 827
f 830 831 832
f 829 828 831
f 831 830 829
f 833 834 835
f 836 832 834
f 834 833 836
f 837 838 839
f 840 835 838
f 838 837 840
f 841 842 843
f 844 839 842
f 842 841 844
f 845 846 847
f 848 843 846
f 846 845 848
f 849 850 851
f 852 847 853
f 853 851 852
f 851 853 849
f 847 852 845
f 843 848 841
f 839 844 837
f 835 840 833
f 832 836 830
f 826 825 827
f 824 820 822
f 819 821 815
f 807 813 809
f 806 808 803
f 802 804 799
f 798 800 795
f 794 796 790
f 789 792 786
f 785 787 782
f 781 783 778
f 777 779 774
f 773 775 770
f 767 769 764
f 763 765 437
f 850 849 854
f 854 855 850
f 856 857 645
f 858 856 643
f 859 858 607
f 860 859 576
f 861 860 642
f 862 861 606
f 863 862 574
f 864 863 641
f 865 864 605
f 866 865 662
f 867 866 659
f 868 867 658
f 869 868 656
f 870 869 640
f 871 870 638
f 872 871 636
f 873 872 633
f 874 873 570
f 875 874 538
f 876 875 536
f 877 876 391
f 878 877 390
f 879 878 388
f 880 879 345
f 881 880 344
f 882 881 372
f 883 882 370
f 884 883 369
f 885 884 367
f 886 885 342
f 887 886 341
f 888 887 365
f 889 888 386
f 890 889 364
f 891 890 363
f 892 891 383
f 893 892 384
f 894 893 335
f 895 894 334
f 896 895 361
f 897 896 337
f 898 897 336
f 899 898 339
f 900 899 338
f 901 900 379
f 902 901 378
f 903 902 381
f 904 903 380
f 905 904 382
f 906 905 360
f 907 906 332
f 908 907 331
f 909 908 300
f 910 909 282
f 911 910 256
f 912 911 281
f 913 912 328
f 914 913 299
f 915 914 327
f 916 915 326
f 917 916 297
f 918 917 359
f 919 918 357
f 920 919 292
f 921 920 325
f 922 921 291
f 923 922 279
f 924 923 253
f 925 924 252
f 926 925 250
f 927 926 249
f 928 927 217
f 929 928 204
f 930 929 203
f 931 930 205
f 932 931 228
f 933 932 191
f 934 933 190
f 935 934 187
f 936 935 186
f 937 936 189
f 938 937 188
f 939 938 193
f 940 939 192
f 941 940 195
f 942 941 194
f 943 942 216
f 944 943 214
f 945 944 200
f 946 945 199
f 947 946 215
f 948 947 201
f 949 948 221
f 950 949 213
f 951 950 212
f 952 951 222
f 953 952 227
f 954 953 220
f 955 954 248
f 956 955 226
f 957 956 247
f 958 957 225
f 959 958 277
f 960 959 246
f 961 960 289
f 962 961 288
f 963 962 320
f 964 963 287
f 965 964 317
f 966 965 316
f 967 966 352
f 968 967 351
f 969 968 377
f 970 969 489
f 971 970 488
f 972 971 487
f 973 972 459
f 974 973 458
f 975 974 441
f 976 975 424
f 977 976 423
f 978 977 431
f 979 978 430
f 980 979 440
f 981 980 457
f 982 981 456
f 983 982 484
f 1074 835 834
f 1074 839 838
f 838 835 1074
f 1074 843 842
f 842 839 1074
f 1074 847 846
f 846 843 1074
f 1074 849 853
f 853 847 1074
f 1074 818 817
f 1074 819 818
f 1074 823 822
f 822 819 1074
f 1074 828 827
f 827 823 1074
f 1074 832 831
f 831 828 1074
f 817 814 1074
f 1074 1075 854
f 854 849 1074
f 1074 814 1075
f 814 984 1075
f 1075 985 986
f 1075 987 988
f 1075 989 990
f 1075 984 991
f 991 989 1075
f 990 992 1075
f 992 987 1075
f 988 985 1075
f 1075 993 994
f 1075 995 996
f 1075 997 998
f 1075 999 997
f 998 1000 1075
f 1075 1001 1002
f 1002 999 1075
f 1000 995 1075
f 996 993 1075
f 994 854 1075
f 986 1001 1075
f 1003 798 797
f 1003 802 801
f 1003 806 805
f 1003 809 813
f 813 806 1003
f 805 802 1003
f 801 798 1003
f 1003 984 814
f 814 809 1003
f 794 1004 1005
f 794 1006 1007
f 1007 1008 794
f 794 1009 1006
f 1008 1004 794
f 794 1010 1009
f 794 1011 1010
f 1005 1003 794
f 1012 784 781
f 1012 785 784
f 1013 789 788
f 1014 1011 794
f 793 1013 1014
f 794 793 1014
f 793 789 1013
f 785 1012 1015
f 1015 1013 785
f 788 785 1013
f 780 1016 1017
f 1017 1018 780
f 1018 1012 780
f 1019 776 773
f 1019 777 776
f 773 772 1019
f 777 1020 1016
f 777 1021 1022
f 777 1019 1023
f 1023 1021 777
f 1022 1020 777
f 1016 780 777
f 767 1024 1019
f 772 767 1019
f 766 1025 1024
f 767 766 1024
f 857 1026 539
f 1027 763 762
f 763 1027 1025
f 1025 771 763
f 539 1026 1028
f 1028 1027 539
f 762 539 1027
f 983 486 485
f 669 1029 1030
f 1029 669 673
f 673 1031 1029
f 1032 485 670
f 670 669 1032
f 1030 1032 669
f 675 1033 1034
f 675 1035 1033
f 1034 1036 675
f 1035 683 688
f 1035 679 684
f 1035 675 680
f 680 679 1035
f 684 683 1035
f 688 1037 1035
f 1038 672 675
f 1036 1038 675
f 1039 673 672
f 1038 1039 672
f 691 1040 1041
f 691 1042 1040
f 694 1043 1044
f 701 700 1045
f 1046 694 701
f 1045 1046 701
f 1046 1043 694
f 1042 691 697
f 697 694 1042
f 1044 1042 694
f 1037 688 687
f 687 692 1037
f 692 691 1037
f 715 1047 1048
f 715 1049 1050
f 715 1051 1052
f 715 1053 1054
f 1054 1051 715
f 1052 1049 715
f 1050 1047 715
f 715 722 1055
f 1055 1053 715
f 1045 712 718
f 1045 709 708
f 708 713 1045
f 1045 704 709
f 713 712 1045
f 1045 705 704
f 1045 700 705
f 718 715 1045
f 1076 1056 1057
f 1076 1058 1059
f 1059 1056 1076
f 1076 1060 1061
f 1061 1058 1076
f 1076 1062 1063
f 1063 1060 1076
f 1076 760 1064
f 1064 1062 1076
f 1076 1065 1066
f 1076 1067 1065
f 1076 1068 1069
f 1069 1067 1076
f 1076 1070 1071
f 1071 1068 1076
f 1076 1072 1073
f 1073 1070 1076
f 1066 1055 1076
f 1076 1077 758
f 758 760 1076
f 1076 1055 1077
f 1055 722 1077
f 1077 734 737
f 1077 730 735
f 1077 726 725
f 1077 722 721
f 721 726 1077
f 725 728 1077
f 728 730 1077
f 735 734 1077
f 1077 755 756
f 1077 751 753
f 1077 745 747
f 1077 743 745
f 747 749 1077
f 1077 739 741
f 741 743 1077
f 749 751 1077
f 753 755 1077
f 756 758 1077
f 737 739 1077
f 1057 1072 1076
f 1048 1045 715
f 1041 1037 691
f 1039 1031 673
f 485 1032 983
f 539 645 857
f 766 771 1025
f 781 780 1012
f 797 794 1003
f 834 832 1074
f 484 486 983
f 456 484 982
f 457 456 981
f 440 457 980
f 430 440 979
f 431 430 978
f 423 431 977
f 424 423 976
f 441 424 975
f 458 441 974
f 459 458 973
f 487 459 972
f 488 487 971
f 489 488 970
f 377 489 969
f 351 377 968
f 352 351 967
f 316 352 966
f 317 316 965
f 287 317 964
f 320 287 963
f 288 320 962
f 289 288 961
f 246 289 960
f 277 246 959
f 225 277 958
f 247 225 957
f 226 247 956
f 248 226 955
f 220 248 954
f 227 220 953
f 222 227 952
f 212 222 951
f 213 212 950
f 221 213 949
f 201 221 948
f 215 201 947
f 199 215 946
f 200 199 945
f 214 200 944
f 216 214 943
f 194 216 942
f 195 194 941
f 192 195 940
f 193 192 939
f 188 193 938
f 189 188 937
f 186 189 936
f 187 186 935
f 190 187 934
f 191 190 933
f 228 191 932
f 205 228 931
f 203 205 930
f 204 203 929
f 217 204 928
f 249 217 927
f 250 249 926
f 252 250 925
f 253 252 924
f 279 253 923
f 291 279 922
f 325 291 921
f 292 325 920
f 357 292 919
f 359 357 918
f 297 359 917
f 326 297 916
f 327 326 915
f 299 327 914
f 328 299 913
f 281 328 912
f 256 281 911
f 282 256 910
f 300 282 909
f 331 300 908
f 332 331 907
f 360 332 906
f 382 360 905
f 380 382 904
f 381 380 903
f 378 381 902
f 379 378 901
f 338 379 900
f 339 338 899
f 336 339 898
f 337 336 897
f 361 337 896
f 334 361 895
f 335 334 894
f 384 335 893
f 383 384 892
f 363 383 891
f 364 363 890
f 386 364 889
f 365 386 888
f 341 365 887
f 342 341 886
f 367 342 885
f 369 367 884
f 370 369 883
f 372 370 882
f 344 372 881
f 345 344 880
f 388 345 879
f 390 388 878
f 391 390 877
f 536 391 876
f 538 536 875
f 570 538 874
f 633 570 873
f 636 633 872
f 638 636 871
f 640 638 870
f 656 640 869
f 658 656 868
f 659 658 867
f 662 659 866
f 605 662 865
f 641 605 864
f 574 641 863
f 606 574 862
f 642 606 861
f 576 642 860
f 607 576 859
f 643 607 858
f 645 643 856
f 994 993 1078
f 855 854 994
f 994 1079 855
f 1080 1081 996
f 1081 1078 993
f 993 996 1081
f 1082 1083 1000
f 1083 1080 995
f 995 1000 1083
f 1084 1085 997
f 1085 1082 998
f 998 997 1085
f 1086 1087 1002
f 1087 1084 999
f 999 1002 1087
f 1088 1089 986
f 1089 1086 1001
f 1001 986 1089
f 1090 1088 985
f 988 1091 1090
f 985 988 1090
f 992 1092 1093
f 1093 987 992
f 1093 1091 987
f 1094 1095 990
f 990 989 1094
f 1095 1092 990
f 1096 1097 991
f 991 984 1096
f 1097 1094 991
f 1003 1098 1099
f 1003 1005 1100
f 1100 1098 1003
f 1099 1096 1003
f 1101 1102 1004
f 1004 1008 1101
f 1102 1100 1004
f 1103 1104 1007
f 1007 1006 1103
f 1104 1101 1007
f 1105 1106 1009
f 1009 1010 1105
f 1106 1103 1009
f 1107 1108 1011
f 1011 1014 1107
f 1108 1105 1011
f 1013 1109 1110
f 1111 1109 1013
f 1013 1015 1111
f 1110 1107 1013
f 1112 1113 1012
f 1012 1018 1112
f 1113 1111 1012
f 1114 1115 1017
f 1017 1016 1114
f 1115 1112 1017
f 1116 1117 1020
f 1020 1022 1116
f 1117 1114 1020
f 1118 1119 1021
f 1021 1023 1118
f 1119 1116 1021
f 1120 1024 1025
f 1120 1121 1019
f 1019 1024 1120
f 1121 1122 1019
f 1122 1118 1019
f 1123 1124 1027
f 1027 1028 1123
f 1124 1120 1027
f 1028 1026 1123
f 1025 1027 1120
f 1023 1019 1118
f 1022 1021 1116
f 1016 1020 1114
f 1018 1017 1112
f 1015 1012 1111
f 1014 1013 1107
f 1010 1011 1105
f 1006 1009 1103
f 1008 1007 1101
f 1005 1004 1100
f 984 1003 1096
f 989 991 1094
f 992 990 1092
f 988 987 1091
f 986 985 1088
f 1002 1001 1086
f 997 999 1084
f 1000 998 1082
f 996 995 1080
f 1078 1079 994
f 760 761 1125
f 1126 1062 1064
f 1064 1125 1126
f 1127 1063 1062
f 1128 1060 1063
f 1063 1127 1128
f 1129 1061 1060
f 1130 1058 1061
f 1061 1129 1130
f 1131 1059 1058
f 1132 1056 1059
f 1059 1131 1132
f 1133 1057 1056
f 1134 1072 1057
f 1057 1133 1134
f 1135 1073 1072
f 1136 1070 1073
f 1073 1135 1136
f 1137 1071 1070
f 1070 1136 1137
f 1138 1068 1071
f 1069 1068 1139
f 1068 1138 1139
f 1140 1067 1069
f 1141 1065 1067
f 1067 1140 1142
f 1141 1066 1065
f 1143 1053 1055
f 1055 1141 1144
f 1055 1144 1143
f 1055 1066 1141
f 1053 1145 1146
f 1053 1143 1147
f 1147 1145 1053
f 1146 1051 1054
f 1148 1052 1051
f 1051 1146 1149
f 1148 1049 1052
f 1150 1050 1049
f 1049 1148 1151
f 1150 1047 1050
f 1152 1048 1047
f 1047 1150 1153
f 1152 1045 1048
f 1154 1046 1045
f 1045 1152 1155
f 1154 1043 1046
f 1156 1044 1043
f 1043 1154 1157
f 1157 1158 1043
f 1156 1042 1044
f 1159 1040 1042
f 1042 1156 1160
f 1159 1041 1040
f 1161 1037 1041
f 1041 1159 1162
f 1161 1035 1037
f 1163 1033 1035
f 1035 1161 1164
f 1163 1034 1033
f 1165 1036 1034
f 1034 1163 1166
f 1165 1038 1036
f 1167 1039 1038
f 1038 1168 1169
f 1038 1165 1168
f 1167 1029 1031
f 1031 1039 1167
f 1170 1030 1029
f 1029 1167 1171
f 1170 1032 1030
f 1029 1171 1170
f 1038 1169 1167
f 1034 1166 1165
f 1035 1164 1163
f 1041 1162 1161
f 1042 1160 1159
f 1043 1158 1156
f 1045 1155 1154
f 1047 1153 1152
f 1049 1151 1150
f 1051 1149 1148
f 1146 1054 1053
f 1067 1142 1141
f 1139 1140 1069
f 1137 1138 1071
f 1072 1134 1135
f 1056 1132 1133
f 1058 1130 1131
f 1060 1128 1129
f 1062 1126 1127
f 1125 1064 760
f 455 507 1172
f 483 455 1173
f 452 483 1174
f 453 452 1175
f 505 453 1176
f 482 505 1177
f 564 482 1178
f 565 564 1179
f 534 565 1180
f 563 534 1181
f 503 563 1182
f 504 503 1183
f 477 504 1184
f 562 477 1185
f 491 562 1186
f 462 491 1187
f 446 462 1188
f 425 446 1189
f 420 425 1190
f 410 420 1191
f 402 410 1192
f 399 402 1193
f 396 399 1194
f 348 396 1195
f 313 348 1196
f 308 313 1197
f 394 308 1198
f 275 394 1199
f 276 275 1200
f 243 276 1201
f 241 243 1202
f 229 241 1203
f 230 229 1204
f 284 230 1205
f 305 284 1206
f 303 305 1207
f 301 303 1208
f 302 301 1209
f 329 302 1210
f 254 329 1211
f 255 254 1212
f 280 255 1213
f 298 280 1214
f 295 298 1215
f 296 295 1216
f 358 296 1217
f 293 358 1218
f 294 293 1219
f 321 294 1220
f 290 321 1221
f 278 290 1222
f 251 278 1223
f 202 251 1224
f 206 202 1225
f 196 206 1226
f 1227 218 197
f 197 1228 1227
f 223 218 1227
f 210 223 1229
f 211 210 1230
f 208 211 1231
f 209 208 1232
f 224 209 1233
f 198 224 1234
f 207 198 1235
f 219 207 1236
f 353 219 1237
f 318 353 1238
f 319 318 1239
f 416 319 1240
f 405 416 1241
f 375 405 1242
f 376 375 1243
f 443 376 1244
f 444 443 1245
f 434 444 1246
f 435 434 1247
f 432 435 1248
f 433 432 1249
f 442 433 1250
f 460 442 1251
f 461 460 1252
f 490 461 1253
f 508 490 1254
f 568 508 1255
f 602 568 1256
f 603 602 1257
f 601 603 1258
f 566 601 1259
f 567 566 1260
f 535 567 1261
f 506 535 1262
f 507 506 1263
f 1263 1172 507
f 1262 1263 506
f 1261 1262 535
f 1260 1261 567
f 1259 1260 566
f 1258 1259 601
f 1257 1258 603
f 1256 1257 602
f 1255 1256 568
f 1254 1255 508
f 1253 1254 490
f 1252 1253 461
f 1251 1252 460
f 1250 1251 442
f 1249 1250 433
f 1248 1249 432
f 1247 1248 435
f 1246 1247 434
f 1245 1246 444
f 1244 1245 443
f 1243 1244 376
f 1242 1243 375
f 1241 1242 405
f 1240 1241 416
f 1239 1240 319
f 1238 1239 318
f 1237 1238 353
f 1236 1237 219
f 1235 1236 207
f 1234 1235 198
f 1233 1234 224
f 1232 1233 209
f 1231 1232 208
f 1230 1231 211
f 1229 1230 210
f 1227 1229 223
f 197 196 1228
f 1226 1228 196
f 1225 1226 206
f 1224 1225 202
f 1223 1224 251
f 1222 1223 278
f 1221 1222 290
f 1220 1221 321
f 1219 1220 294
f 1218 1219 293
f 1217 1218 358
f 1216 1217 296
f 1215 1216 295
f 1214 1215 298
f 1213 1214 280
f 1212 1213 255
f 1211 1212 254
f 1210 1211 329
f 1209 1210 302
f 1208 1209 301
f 1207 1208 303
f 1206 1207 305
f 1205 1206 284
f 1204 1205 230
f 1203 1204 229
f 1202 1203 241
f 1201 1202 243
f 1200 1201 276
f 1199 1200 275
f 1198 1199 394
f 1197 1198 308
f 1196 1197 313
f 1195 1196 348
f 1194 1195 396
f 1193 1194 399
f 1192 1193 402
f 1191 1192 410
f 1190 1191 420
f 1189 1190 425
f 1188 1189 446
f 1187 1188 462
f 1186 1187 491
f 1185 1186 562
f 1184 1185 477
f 1183 1184 504
f 1182 1183 503
f 1181 1182 563
f 1180 1181 534
f 1179 1180 565
f 1178 1179 564
f 1177 1178 482
f 1176 1177 505
f 1175 1176 453
f 1174 1175 452
f 1173 1174 483
f 1172 1173 455
f 666 667 1264
f 665 666 1265
f 664 665 1266
f 652 664 1267
f 614 652 1268
f 586 614 1269
f 650 586 1270
f 651 650 1271
f 613 651 1272
f 649 613 1273
f 610 649 1274
f 611 610 1275
f 581 611 1276
f 582 581 1277
f 549 582 1278
f 547 549 1279
f 544 547 1280
f 648 544 1281
f 580 648 1282
f 512 580 1283
f 509 512 1284
f 464 509 1285
f 448 464 1286
f 427 448 1287
f 413 427 1288
f 438 413 1289
f 543 438 1290
f 541 543 1291
f 542 541 1292
f 609 542 1293
f 540 609 1294
f 579 540 1295
f 646 579 1296
f 577 646 1297
f 578 577 1298
f 608 578 1299
f 644 608 1300
f 575 644 1301
f 572 575 1302
f 573 572 1303
f 604 573 1304
f 657 604 1305
f 639 657 1306
f 637 639 1307
f 635 637 1308
f 634 635 1309
f 571 634 1310
f 569 571 1311
f 537 569 1312
f 417 537 1313
f 389 417 1314
f 387 389 1315
f 343 387 1316
f 371 343 1317
f 368 371 1318
f 1319 340 366
f 366 1320 1319
f 385 340 1319
f 362 385 1321
f 333 362 1322
f 306 333 1323
f 307 306 1324
f 304 307 1325
f 231 304 1326
f 259 231 1327
f 283 259 1328
f 257 283 1329
f 258 257 1330
f 330 258 1331
f 242 330 1332
f 244 242 1333
f 273 244 1334
f 274 273 1335
f 271 274 1336
f 269 271 1337
f 238 269 1338
f 239 238 1339
f 235 239 1340
f 236 235 1341
f 264 236 1342
f 263 264 1343
f 232 263 1344
f 233 232 1345
f 260 233 1346
f 356 260 1347
f 355 356 1348
f 322 355 1349
f 323 322 1350
f 436 323 1351
f 655 436 1352
f 631 655 1353
f 632 631 1354
f 667 632 1355
f 1355 1264 667
f 1354 1355 632
f 1353 1354 631
f 1352 1353 655
f 1351 1352 436
f 1350 1351 323
f 1349 1350 322
f 1348 1349 355
f 1347 1348 356
f 1346 1347 260
f 1345 1346 233
f 1344 1345 232
f 1343 1344 263
f 1342 1343 264
f 1341 1342 236
f 1340 1341 235
f 1339 1340 239
f 1338 1339 238
f 1337 1338 269
f 1336 1337 271
f 1335 1336 274
f 1334 1335 273
f 1333 1334 244
f 1332 1333 242
f 1331 1332 330
f 1330 1331 258
f 1329 1330 257
f 1328 1329 283
f 1327 1328 259
f 1326 1327 231
f 1325 1326 304
f 1324 1325 307
f 1323 1324 306
f 1322 1323 333
f 1321 1322 362
f 1319 1321 385
f 366 368 1320
f 1318 1320 368
f 1317 1318 371
f 1316 1317 343
f 1315 1316 387
f 1314 1315 389
f 1313 1314 417
f 1312 1313 537
f 1311 1312 569
f 1310 1311 571
f 1309 1310 634
f 1308 1309 635
f 1307 1308 637
f 1306 1307 639
f 1305 1306 657
f 1304 1305 604
f 1303 1304 573
f 1302 1303 572
f 1301 1302 575
f 1300 1301 644
f 1299 1300 608
f 1298 1299 578
f 1297 1298 577
f 1296 1297 646
f 1295 1296 579
f 1294 1295 540
f 1293 1294 609
f 1292 1293 542
f 1291 1292 541
f 1290 1291 543
f 1289 1290 438
f 1288 1289 413
f 1287 1288 427
f 1286 1287 448
f 1285 1286 464
f 1284 1285 509
f 1283 1284 512
f 1282 1283 580
f 1281 1282 648
f 1280 1281 544
f 1279 1280 547
f 1278 1279 549
f 1277 1278 582
f 1276 1277 581
f 1275 1276 611
f 1274 1275 610
f 1273 1274 649
f 1272 1273 613
f 1271 1272 651
f 1270 1271 650
f 1269 1270 586
f 1268 1269 614
f 1267 1268 652
f 1266 1267 664
f 1265 1266 665
f 1264 1265 666
f 1356 629 600
f 1357 600 627
f 1358 627 626
f 1359 626 628
f 1360 628 598
f 1361 598 597
f 1362 597 599
f 1363 599 625
f 1364 625 596
f 1365 596 624
f 1366 624 595
f 1367 595 623
f 1368 623 594
f 1369 594 593
f 1370 593 592
f 1371 592 560
f 1372 560 591
f 1373 591 590
f 1374 590 653
f 1375 653 622
f 1376 622 589
f 1377 588 587
f 1378 587 619
f 1379 619 618
f 1380 618 617
f 1381 617 616
f 1382 616 615
f 1383 615 532
f 1384 532 531
f 1385 531 530
f 1386 530 529
f 1387 529 557
f 1388 557 556
f 1389 556 555
f 1390 555 554
f 1391 554 502
f 1392 502 501
f 1393 501 528
f 1394 528 526
f 1395 526 525
f 1396 525 527
f 1397 527 500
f 1398 500 474
f 1399 474 473
f 1400 473 476
f 1401 476 475
f 1402 475 470
f 1403 470 469
f 1404 469 472
f 1405 472 471
f 1406 471 499
f 1407 499 468
f 1408 468 467
f 1409 467 498
f 1410 498 523
f 1411 523 524
f 1412 524 520
f 1413 520 519
f 1414 519 553
f 1415 553 522
f 1416 522 521
f 1417 521 552
f 1418 552 551
f 1419 551 497
f 1420 497 496
f 1421 496 517
f 1422 517 518
f 1423 518 516
f 1424 516 515
f 1425 515 493
f 1426 493 492
f 1427 533 479
f 1428 479 478
f 1429 478 463
f 1430 463 447
f 1431 447 445
f 1432 445 421
f 1433 421 412
f 1434 412 411
f 1435 411 404
f 1436 404 403
f 1437 403 401
f 1438 401 400
f 1439 400 398
f 1440 398 397
f 1441 397 350
f 1442 350 349
f 1443 349 374
f 1444 374 315
f 1445 315 314
f 1446 314 346
f 1447 346 347
f 1448 347 310
f 1449 310 309
f 1450 309 312
f 1451 312 311
f 1452 311 373
f 1453 373 395
f 1454 395 407
f 1455 407 409
f 1456 409 408
f 1457 408 419
f 1458 419 418
f 1459 418 393
f 1460 393 392
f 1461 392 406
f 1462 406 245
f 1463 245 286
f 1464 286 272
f 1465 272 285
f 1466 285 270
f 1467 270 268
f 1468 268 240
f 1469 240 267
f 1470 267 266
f 1471 266 237
f 1472 237 265
f 1473 265 262
f 1474 262 234
f 1475 234 261
f 1476 261 354
f 1477 612 583
f 1478 583 550
f 1479 550 548
f 1480 548 546
f 1481 546 545
f 1482 545 647
f 1483 647 514
f 1484 514 513
f 1485 513 511
f 1486 511 510
f 1487 510 466
f 1488 466 465
f 1489 465 450
f 1490 450 449
f 1491 449 429
f 1492 429 428
f 1493 428 439
f 1494 439 415
f 1495 415 414
f 1496 414 422
f 1497 422 426
f 1532 740 738
f 1532 742 740
f 1532 746 744
f 744 742 1532
f 1532 750 748
f 748 746 1532
f 1532 754 752
f 752 750 1532
f 1532 757 759
f 759 754 1532
f 1532 724 723
f 723 720 1532
f 1532 727 724
f 1532 731 729
f 729 727 1532
f 1532 733 732
f 732 731 1532
f 1532 736 733
f 720 719 1532
f 719 717 1532
f 717 716 1532
f 1533 761 757
f 757 1532 1533
f 1532 716 1533
f 716 1145 1533
f 1533 1138 1137
f 1533 1142 1140
f 1533 1141 1142
f 1140 1139 1533
f 1139 1138 1533
f 1533 1143 1144
f 1144 1141 1533
f 1137 1136 1533
f 1533 1147 1143
f 1533 1145 1147
f 1533 1126 1125
f 1533 1128 1127
f 1533 1131 1130
f 1533 1132 1131
f 1130 1129 1533
f 1533 1134 1133
f 1133 1132 1533
f 1533 1135 1134
f 1129 1128 1533
f 1127 1126 1533
f 1125 761 1533
f 1136 1135 1533
f 1146 703 702
f 1146 706 703
f 702 699 1146
f 1146 710 707
f 1146 714 711
f 711 710 1146
f 707 706 1146
f 699 698 1146
f 698 696 1146
f 714 1146 1145
f 1145 716 714
f 695 1151 1148
f 1148 1149 695
f 695 1153 1150
f 1150 1151 695
f 695 1152 1153
f 695 1154 1155
f 1155 1152 695
f 695 1157 1154
f 695 1158 1157
f 1149 1146 695
f 1156 682 681
f 1156 685 682
f 1156 689 686
f 1156 693 690
f 690 689 1156
f 686 685 1156
f 681 678 1156
f 678 677 1156
f 693 1156 1158
f 1158 695 693
f 676 1162 1159
f 1159 1160 676
f 676 1161 1162
f 676 1164 1161
f 676 1163 1164
f 676 1165 1166
f 1166 1163 676
f 676 1168 1165
f 1160 1156 676
f 1356 1170 561
f 1170 671 668
f 1170 674 671
f 674 1169 1168
f 674 1170 1171
f 1171 1167 674
f 1167 1169 674
f 1168 676 674
f 668 561 1170
f 1534 1087 1086
f 1534 1084 1087
f 1534 1082 1085
f 1085 1084 1534
f 1534 1080 1083
f 1083 1082 1534
f 1534 1078 1081
f 1081 1080 1534
f 1534 855 1079
f 1079 1078 1534
f 1534 1095 1094
f 1094 1097 1534
f 1534 1092 1095
f 1534 1091 1093
f 1093 1092 1534
f 1534 1088 1090
f 1090 1091 1534
f 1534 1089 1088
f 1097 1096 1534
f 1096 1099 1534
f 1099 1098 1534
f 1535 850 855
f 855 1534 1535
f 1534 1098 1535
f 1098 810 1535
f 1535 825 826
f 1535 821 820
f 1535 815 821
f 820 824 1535
f 824 825 1535
f 1535 811 816
f 816 815 1535
f 826 829 1535
f 1535 812 811
f 1535 810 812
f 1535 852 851
f 1535 848 845
f 1535 837 844
f 1535 840 837
f 844 841 1535
f 1535 836 833
f 833 840 1535
f 1535 830 836
f 841 848 1535
f 845 852 1535
f 851 850 1535
f 829 830 1535
f 807 1106 1105
f 807 1103 1106
f 1105 1108 807
f 807 1101 1104
f 807 1100 1102
f 1102 1101 807
f 1104 1103 807
f 1108 1107 807
f 1107 1110 807
f 1100 807 810
f 810 1098 1100
f 1109 804 803
f 803 808 1109
f 1109 800 799
f 799 804 1109
f 1109 795 800
f 1109 790 796
f 796 795 1109
f 1109 791 790
f 1109 792 791
f 808 807 1109
f 786 1117 1116
f 786 1114 1117
f 786 1112 1115
f 786 1111 1113
f 1113 1112 786
f 1115 1114 786
f 1116 1119 786
f 1119 1118 786
f 1111 786 792
f 792 1109 1111
f 1122 783 782
f 782 787 1122
f 1122 778 783
f 1122 779 778
f 1122 774 779
f 1122 770 775
f 775 774 1122
f 1122 768 770
f 787 786 1122
f 426 437 1123
f 437 1120 1124
f 437 1121 1120
f 1121 769 768
f 1121 437 765
f 765 764 1121
f 764 769 1121
f 768 1122 1121
f 1124 1123 437
f 584 612 1498
f 1477 1499 1498
f 1498 612 1477
f 1500 585 584
f 1501 663 585
f 1502 654 663
f 1503 630 654
f 1504 324 630
f 1505 354 1506
f 324 1504 1506
f 1506 354 324
f 480 533 1507
f 1427 1508 1507
f 1507 533 1427
f 1509 481 480
f 1510 451 481
f 1511 454 451
f 1512 494 454
f 1513 495 494
f 1514 492 1515
f 495 1513 1515
f 1515 492 495
f 660 588 1516
f 1377 1517 1516
f 1516 588 1377
f 1518 661 660
f 1519 620 661
f 1520 621 620
f 1521 558 621
f 1522 559 558
f 1523 589 1524
f 559 1522 1524
f 1524 589 559
f 1524 1525 1523
f 558 1521 1522
f 621 1520 1521
f 620 1519 1520
f 661 1518 1519
f 660 1526 1518
f 1516 1526 660
f 1515 1527 1514
f 494 1512 1513
f 454 1511 1512
f 451 1510 1511
f 481 1509 1510
f 480 1528 1509
f 1507 1528 480
f 1506 1529 1505
f 630 1503 1504
f 654 1502 1503
f 663 1501 1502
f 585 1500 1501
f 584 1530 1500
f 1498 1530 584
f 1123 1531 426
f 1118 1122 786
f 1110 1109 807
f 1086 1089 1534
f 561 629 1356
f 677 676 1156
f 696 695 1146
f 738 736 1532
f 426 1531 1497
f 422 1497 1496
f 414 1496 1495
f 415 1495 1494
f 439 1494 1493
f 428 1493 1492
f 429 1492 1491
f 449 1491 1490
f 450 1490 1489
f 465 1489 1488
f 466 1488 1487
f 510 1487 1486
f 511 1486 1485
f 513 1485 1484
f 514 1484 1483
f 647 1483 1482
f 545 1482 1481
f 546 1481 1480
f 548 1480 1479
f 550 1479 1478
f 583 1478 1477
f 354 1505 1476
f 261 1476 1475
f 234 1475 1474
f 262 1474 1473
f 265 1473 1472
f 237 1472 1471
f 266 1471 1470
f 267 1470 1469
f 240 1469 1468
f 268 1468 1467
f 270 1467 1466
f 285 1466 1465
f 272 1465 1464
f 286 1464 1463
f 245 1463 1462
f 406 1462 1461
f 392 1461 1460
f 393 1460 1459
f 418 1459 1458
f 419 1458 1457
f 408 1457 1456
f 409 1456 1455
f 407 1455 1454
f 395 1454 1453
f 373 1453 1452
f 311 1452 1451
f 312 1451 1450
f 309 1450 1449
f 310 1449 1448
f 347 1448 1447
f 346 1447 1446
f 314 1446 1445
f 315 1445 1444
f 374 1444 1443
f 349 1443 1442
f 350 1442 1441
f 397 1441 1440
f 398 1440 1439
f 400 1439 1438
f 401 1438 1437
f 403 1437 1436
f 404 1436 1435
f 411 1435 1434
f 412 1434 1433
f 421 1433 1432
f 445 1432 1431
f 447 1431 1430
f 463 1430 1429
f 478 1429 1428
f 479 1428 1427
f 492 1514 1426
f 493 1426 1425
f 515 1425 1424
f 516 1424 1423
f 518 1423 1422
f 517 1422 1421
f 496 1421 1420
f 497 1420 1419
f 551 1419 1418
f 552 1418 1417
f 521 1417 1416
f 522 1416 1415
f 553 1415 1414
f 519 1414 1413
f 520 1413 1412
f 524 1412 1411
f 523 1411 1410
f 498 1410 1409
f 467 1409 1408
f 468 1408 1407
f 499 1407 1406
f 471 1406 1405
f 472 1405 1404
f 469 1404 1403
f 470 1403 1402
f 475 1402 1401
f 476 1401 1400
f 473 1400 1399
f 474 1399 1398
f 500 1398 1397
f 527 1397 1396
f 525 1396 1395
f 526 1395 1394
f 528 1394 1393
f 501 1393 1392
f 502 1392 1391
f 554 1391 1390
f 555 1390 1389
f 556 1389 1388
f 557 1388 1387
f 529 1387 1386
f 530 1386 1385
f 531 1385 1384
f 532 1384 1383
f 615 1383 1382
f 616 1382 1381
f 617 1381 1380
f 618 1380 1379
f 619 1379 1378
f 587 1378 1377
f 589 1523 1376
f 622 1376 1375
f 653 1375 1374
f 590 1374 1373
f 591 1373 1372
f 560 1372 1371
f 592 1371 1370
f 593 1370 1369
f 594 1369 1368
f 623 1368 1367
f 595 1367 1366
f 624 1366 1365
f 596 1365 1364
f 625 1364 1363
f 599 1363 1362
f 597 1362 1361
f 598 1361 1360
f 628 1360 1359
f 626 1359 1358
f 627 1358 1357
f 600 1357 1356
f 1536 1537 1525
f 1525 1524 1536
f 1538 1539 1537
f 1537 1536 1538
f 1540 1541 1539
f 1539 1538 1540
f 1542 1543 53
f 1542 49 47
f 53 51 1542
f 1543 61 59
f 1540 85 83
f 1542 45 43
f 51 49 1542
f 1543 63 61
f 1543 83 81
f 1540 87 85
f 1542 41 39
f 47 45 1542
f 1543 57 55
f 1543 65 63
f 83 1543 1540
f 1540 91 89
f 1536 168 166
f 176 1524 1522
f 1521 182 180
f 1521 1520 185
f 1526 17 15
f 43 41 1542
f 59 57 1543
f 1543 73 71
f 1543 79 77
f 89 87 1540
f 1538 1536 146
f 166 164 1536
f 1536 1524 170
f 1522 178 176
f 180 1522 1521
f 185 184 1521
f 15 1518 1526
f 21 19 1526
f 55 53 1543
f 1543 69 67
f 1543 75 73
f 81 79 1543
f 1538 124 122
f 1538 140 138
f 1538 144 142
f 1536 148 146
f 1536 152 150
f 170 168 1536
f 1524 174 172
f 180 178 1522
f 1520 3 185
f 1519 1518 11
f 15 13 1518
f 1516 23 21
f 67 65 1543
f 77 75 1543
f 1538 126 124
f 1538 132 130
f 1538 136 134
f 142 140 1538
f 150 148 1536
f 172 170 1524
f 184 182 1521
f 1519 7 5
f 13 11 1518
f 1526 1516 21
f 1516 27 25
f 1516 1542 29
f 1542 33 31
f 71 69 1543
f 1540 95 93
f 1540 115 111
f 1540 1538 112
f 1538 120 118
f 1538 128 126
f 134 132 1538
f 146 144 1538
f 1536 162 160
f 176 174 1524
f 5 1520 1519
f 11 9 1519
f 25 23 1516
f 31 29 1542
f 1542 37 35
f 93 91 1540
f 112 115 1540
f 122 120 1538
f 138 136 1538
f 164 162 1536
f 9 7 1519
f 29 27 1516
f 39 37 1542
f 111 109 1540
f 130 128 1538
f 1536 156 154
f 5 3 1520
f 35 33 1542
f 1540 99 97
f 1540 103 101
f 118 112 1538
f 1536 158 156
f 19 17 1526
f 101 99 1540
f 1540 107 105
f 154 152 1536
f 97 95 1540
f 109 107 1540
f 105 103 1540
f 160 158 1536
f 1543 1544 1541
f 1541 1540 1543
f 1542 1545 1544
f 1544 1543 1542
f 1516 1517 1545
f 1545 1542 1516
f 1546 1547 1527
f 1527 1515 1546
f 1548 1549 1547
f 1547 1546 1548
f 1550 1551 1549
f 1549 1548 1550
f 1507 1552 1185
f 1552 1553 1197
f 1552 1186 1185
f 1553 1198 1197
f 1507 1184 1183
f 1552 1187 1186
f 1552 1192 1191
f 1552 1194 1193
f 1197 1196 1552
f 1510 1509 1176
f 1183 1182 1507
f 1552 1188 1187
f 1193 1192 1552
f 1196 1195 1552
f 1553 1200 1199
f 1553 1202 1201
f 1553 1204 1203
f 1548 1546 1243
f 1512 1261 1260
f 1510 1174 1173
f 1176 1175 1510
f 1528 1179 1178
f 1181 1180 1528
f 1185 1184 1507
f 1552 1190 1189
f 1195 1194 1552
f 1201 1200 1553
f 1553 1205 1204
f 1553 1207 1206
f 1550 1217 1216
f 1550 1221 1220
f 1548 1237 1236
f 1548 1241 1240
f 1546 1244 1243
f 1546 1247 1246
f 1546 1251 1250
f 1512 1262 1261
f 1512 1511 1263
f 1511 1173 1172
f 1175 1174 1510
f 1178 1509 1528
f 1528 1507 1181
f 1189 1188 1552
f 1199 1198 1553
f 1206 1205 1553
f 1553 1209 1208
f 1216 1215 1550
f 1550 1219 1218
f 1550 1222 1221
f 1548 1238 1237
f 1240 1239 1548
f 1243 1242 1548
f 1246 1245 1546
f 1250 1249 1546
f 1258 1515 1513
f 1260 1513 1512
f 1172 1263 1511
f 1509 1177 1176
f 1180 1179 1528
f 1191 1190 1552
f 1208 1207 1553
f 1550 1213 1212
f 1215 1214 1550
f 1220 1219 1550
f 1550 1225 1224
f 1550 1548 1227
f 1239 1238 1548
f 1245 1244 1546
f 1249 1248 1546
f 1546 1253 1252
f 1513 1259 1258
f 1263 1262 1512
f 1178 1177 1509
f 1203 1202 1553
f 1553 1211 1210
f 1212 1553 1550
f 1218 1217 1550
f 1224 1223 1550
f 1548 1229 1227
f 1548 1232 1231
f 1242 1241 1548
f 1252 1251 1546
f 1546 1515 1255
f 1260 1259 1513
f 1182 1181 1507
f 1212 1211 1553
f 1223 1222 1550
f 1548 1230 1229
f 1548 1233 1232
f 1548 1235 1234
f 1248 1247 1546
f 1255 1254 1546
f 1515 1257 1256
f 1173 1511 1510
f 1214 1213 1550
f 1550 1228 1226
f 1231 1230 1548
f 1236 1235 1548
f 1256 1255 1515
f 1210 1209 1553
f 1227 1228 1550
f 1254 1253 1546
f 1226 1225 1550
f 1258 1257 1515
f 1234 1233 1548
f 1553 1554 1551
f 1551 1550 1553
f 1552 1555 1554
f 1554 1553 1552
f 1507 1508 1555
f 1555 1552 1507
f 1556 1557 1529
f 1529 1506 1556
f 1558 1559 1557
f 1557 1556 1558
f 1560 1561 1559
f 1559 1558 1560
f 1554 910 911
f 1554 909 910
f 1554 908 909
f 1544 950 951
f 1549 1408 1409
f 1562 862 863
f 1554 913 914
f 1554 907 908
f 1554 905 906
f 951 952 1544
f 1549 930 931
f 1549 1411 1412
f 1409 1410 1549
f 1544 1545 1382
f 863 864 1562
f 1562 860 861
f 1554 912 913
f 906 907 1554
f 1559 880 881
f 1559 878 879
f 1559 1561 876
f 1544 957 958
f 1544 955 956
f 952 953 1544
f 1549 935 936
f 1549 933 934
f 1549 929 930
f 1549 927 928
f 1549 925 926
f 1549 922 923
f 1554 1442 1443
f 1485 1026 1562
f 1549 1413 1414
f 1410 1411 1549
f 1544 1391 1392
f 1382 1383 1544
f 1561 872 873
f 871 872 1561
f 1562 865 866
f 861 862 1562
f 1554 916 917
f 911 912 1554
f 1554 903 904
f 1554 901 902
f 1554 899 900
f 1559 896 897
f 1559 885 886
f 879 880 1559
f 876 877 1559
f 962 963 1541
f 1544 959 960
f 956 957 1544
f 953 954 1544
f 1544 946 947
f 1544 943 944
f 1544 1549 942
f 934 935 1549
f 931 932 1549
f 926 927 1549
f 923 924 1549
f 922 1549 1551
f 1443 1444 1554
f 1026 1492 1493
f 1026 1486 1487
f 1562 1484 1485
f 1549 1417 1418
f 1549 1415 1416
f 1412 1413 1549
f 1549 1406 1407
f 1544 1397 1398
f 1392 1393 1544
f 1544 1387 1388
f 1383 1384 1544
f 1561 1562 871
f 1562 869 870
f 1562 867 868
f 864 865 1562
f 1551 917 918
f 1554 915 916
f 904 905 1554
f 900 901 1554
f 1554 897 898
f 1559 895 896
f 1559 891 892
f 1559 889 890
f 1559 884 885
f 1559 882 883
f 877 878 1559
f 1561 874 875
f 1541 1544 962
f 960 961 1544
f 954 955 1544
f 1544 948 949
f 1544 945 946
f 942 943 1544
f 932 933 1549
f 924 925 1549
f 1551 920 921
f 1539 982 983
f 1539 980 981
f 1539 973 974
f 1539 970 971
f 1539 968 969
f 968 1539 1541
f 1559 1463 1464
f 1559 1459 1460
f 1559 1453 1454
f 1559 1554 1452
f 1554 1450 1451
f 1554 1445 1446
f 1554 1441 1442
f 1554 1437 1438
f 1026 1495 1496
f 1493 1494 1026
f 1485 1486 1026
f 1545 1378 1379
f 1549 1421 1422
f 1549 1419 1420
f 1416 1417 1549
f 1407 1408 1549
f 1549 1544 1402
f 1544 1400 1401
f 1544 1396 1397
f 1544 1394 1395
f 1544 1390 1391
f 1544 1386 1387
f 1384 1385 1544
f 870 871 1562
f 866 867 1562
f 1562 856 858
f 917 1551 1554
f 902 903 1554
f 897 1554 1559
f 1559 893 894
f 890 891 1559
f 1559 887 888
f 883 884 1559
f 875 876 1561
f 963 964 1541
f 958 959 1544
f 947 948 1544
f 1549 941 942
f 1549 939 940
f 1549 937 938
f 928 929 1549
f 1551 919 920
f 981 982 1539
f 1539 978 979
f 1539 975 976
f 1539 972 973
f 969 970 1539
f 1541 966 967
f 1559 1462 1463
f 1460 1461 1559
f 1452 1453 1559
f 1554 1449 1450
f 1444 1445 1554
f 1554 1439 1440
f 1554 1436 1437
f 1494 1495 1026
f 1026 1488 1489
f 1562 1483 1484
f 1379 1380 1545
f 1420 1421 1549
f 1414 1415 1549
f 1549 1404 1405
f 1402 1403 1549
f 1544 1399 1400
f 1395 1396 1544
f 1544 1389 1390
f 1385 1386 1544
f 868 869 1562
f 858 859 1562
f 914 915 1554
f 894 895 1559
f 888 889 1559
f 881 882 1559
f 961 962 1544
f 944 945 1544
f 938 939 1549
f 1551 921 922
f 979 980 1539
f 976 977 1539
f 971 972 1539
f 1541 965 966
f 1559 1471 1472
f 1559 1468 1469
f 1559 1465 1466
f 1461 1462 1559
f 1559 1455 1456
f 1451 1452 1554
f 1440 1441 1554
f 1554 1435 1436
f 1554 1433 1434
f 1554 1555 1432
f 1563 1478 1479
f 1496 1497 1026
f 1026 1490 1491
f 1487 1488 1026
f 1562 1563 1482
f 1380 1381 1545
f 1418 1419 1549
f 1403 1404 1549
f 1398 1399 1544
f 1388 1389 1544
f 859 860 1562
f 1562 1026 857
f 898 899 1554
f 886 887 1559
f 949 950 1544
f 936 937 1549
f 977 978 1539
f 1541 967 968
f 1539 1371 1372
f 1369 1370 1539
f 1032 1364 1365
f 1032 1357 1358
f 1555 1427 1428
f 1559 1470 1471
f 1559 1467 1468
f 1464 1465 1559
f 1559 1457 1458
f 1454 1455 1559
f 1554 1447 1448
f 1438 1439 1554
f 1432 1433 1554
f 1563 1480 1481
f 1563 1477 1478
f 1491 1492 1026
f 1482 1483 1562
f 1545 1377 1378
f 1405 1406 1549
f 1393 1394 1544
f 857 856 1562
f 892 893 1559
f 940 941 1549
f 974 975 1539
f 1539 1370 1371
f 1032 1368 1369
f 1032 1366 1367
f 1032 1363 1364
f 1032 1360 1361
f 1358 1359 1032
f 1555 1430 1431
f 1428 1429 1555
f 1469 1470 1559
f 1458 1459 1559
f 1448 1449 1554
f 1434 1435 1554
f 1479 1480 1563
f 1489 1490 1026
f 1545 1517 1377
f 1401 1402 1544
f 918 919 1551
f 983 1032 1539
f 1539 1032 1369
f 1365 1366 1032
f 1361 1362 1032
f 1032 1356 1357
f 1537 1374 1375
f 1429 1430 1555
f 1466 1467 1559
f 1446 1447 1554
f 1563 1499 1477
f 1497 1531 1026
f 1422 1547 1549
f 964 965 1541
f 1367 1368 1032
f 1359 1360 1032
f 1375 1376 1537
f 1537 1372 1373
f 1557 1473 1474
f 1555 1508 1427
f 1456 1457 1559
f 1531 1123 1026
f 873 874 1561
f 1362 1363 1032
f 1373 1374 1537
f 1474 1475 1557
f 1472 1557 1559
f 1381 1382 1545
f 1032 1170 1356
f 1376 1523 1537
f 1557 1472 1473
f 1547 1423 1424
f 1481 1482 1563
f 1523 1525 1537
f 1475 1476 1557
f 1547 1425 1426
f 1547 1422 1423
f 1372 1537 1539
f 1476 1505 1557
f 1424 1425 1547
f 1505 1529 1557
f 1426 1514 1547
f 1514 1527 1547
f 1431 1432 1555
f 1558 1556 1335
f 1558 1329 1328
f 1556 1336 1335
f 1564 1565 1289
f 1565 1291 1290
f 1558 1330 1329
f 1558 1332 1331
f 1558 1334 1333
f 1556 1337 1336
f 1290 1289 1565
f 1558 1326 1325
f 1331 1330 1558
f 1335 1334 1558
f 1289 1288 1564
f 1558 1327 1326
f 1333 1332 1558
f 1350 1506 1504
f 1288 1287 1564
f 1560 1318 1317
f 1328 1327 1558
f 1556 1339 1338
f 1556 1341 1340
f 1556 1343 1342
f 1556 1346 1345
f 1556 1506 1347
f 1504 1351 1350
f 1287 1286 1564
f 1317 1316 1560
f 1560 1558 1319
f 1558 1323 1322
f 1338 1337 1556
f 1342 1341 1556
f 1347 1346 1556
f 1350 1349 1506
f 1565 1292 1291
f 1565 1294 1293
f 1316 1315 1560
f 1558 1321 1319
f 1558 1324 1323
f 1340 1339 1556
f 1345 1344 1556
f 1349 1348 1506
f 1530 1271 1270
f 1498 1564 1277
f 1564 1279 1278
f 1564 1281 1280
f 1564 1285 1284
f 1293 1292 1565
f 1565 1297 1296
f 1565 1300 1299
f 1560 1320 1318
f 1322 1321 1558
f 1344 1343 1556
f 1504 1352 1351
f 1503 1502 1355
f 1270 1500 1530
f 1273 1272 1530
f 1277 1276 1498
f 1280 1279 1564
f 1286 1285 1564
f 1296 1295 1565
f 1565 1301 1300
f 1560 1314 1313
f 1319 1320 1560
f 1348 1347 1506
f 1503 1353 1352
f 1502 1264 1355
f 1270 1269 1500
f 1530 1498 1273
f 1498 1275 1274
f 1278 1277 1564
f 1295 1294 1565
f 1299 1298 1565
f 1560 1305 1304
f 1313 1312 1560
f 1325 1324 1558
f 1503 1354 1353
f 1502 1265 1264
f 1501 1500 1268
f 1272 1271 1530
f 1276 1275 1498
f 1564 1283 1282
f 1298 1297 1565
f 1565 1303 1302
f 1304 1565 1560
f 1315 1314 1560
f 1355 1354 1503
f 1501 1266 1265
f 1268 1267 1501
f 1274 1273 1498
f 1284 1283 1564
f 1304 1303 1565
f 1352 1504 1503
f 1267 1266 1501
f 1282 1281 1564
f 1560 1306 1305
f 1560 1308 1307
f 1560 1310 1309
f 1265 1502 1501
f 1302 1301 1565
f 1309 1308 1560
f 1312 1311 1560
f 1307 1306 1560
f 1269 1268 1500
f 1311 1310 1560
f 1565 1562 1561
f 1561 1560 1565
f 1564 1563 1562
f 1562 1565 1564
f 1498 1499 1563
f 1563 1564 1498
