# 
# Wavefront OBJ file
# Created with Kaydara FBX
# 
mtllib korekcija.mtl

g korekcija
v 17.958161 55.000000 0.567061
v 17.958161 0.000000 0.567061
v 17.958161 0.000000 0.056449
v 17.958161 55.000000 0.056449
v 17.958161 0.000000 29.943551
v 17.958161 55.000000 29.943551
v 17.617776 55.000000 29.870207
v 17.617776 0.000000 29.870207
v 17.279155 55.000000 29.789111
v 17.279155 0.000000 29.789111
v 16.942473 55.000000 29.700305
v 16.942473 0.000000 29.700305
v 16.607907 55.000000 29.603836
v 16.607907 0.000000 29.603836
v 16.275630 55.000000 29.499753
v 16.275630 0.000000 29.499753
v 15.945816 55.000000 29.388111
v 15.945816 0.000000 29.388111
v 15.618638 55.000000 29.268968
v 15.618638 0.000000 29.268968
v 15.294264 55.000000 29.142386
v 15.294264 0.000000 29.142386
v 14.972865 55.000000 29.008431
v 14.972865 0.000000 29.008431
v 14.654609 55.000000 28.867174
v 14.654609 0.000000 28.867174
v 14.339660 55.000000 28.718687
v 14.339660 0.000000 28.718687
v 14.028183 55.000000 28.563048
v 14.028183 0.000000 28.563048
v 13.720342 55.000000 28.400339
v 13.720342 0.000000 28.400339
v 13.416295 55.000000 28.230643
v 13.416295 0.000000 28.230643
v 13.116201 55.000000 28.054050
v 13.116201 0.000000 28.054050
v 12.820218 55.000000 27.870652
v 12.820218 0.000000 27.870652
v 12.528499 55.000000 27.680543
v 12.528499 0.000000 27.680543
v 12.241197 55.000000 27.483824
v 12.241197 0.000000 27.483824
v 11.958461 55.000000 27.280597
v 11.958461 0.000000 27.280597
v 11.680438 55.000000 27.070968
v 11.680438 0.000000 27.070968
v 11.407274 55.000000 26.855046
v 11.407274 0.000000 26.855046
v 11.139111 55.000000 26.632943
v 11.139111 0.000000 26.632943
v 10.876088 55.000000 26.404776
v 10.876088 0.000000 26.404776
v 10.618344 55.000000 26.170663
v 10.618344 0.000000 26.170663
v 10.366011 55.000000 25.930727
v 10.366011 0.000000 25.930727
v 10.119223 55.000000 25.685092
v 10.119223 0.000000 25.685092
v 9.878107 55.000000 25.433887
v 9.878107 0.000000 25.433887
v 9.642789 55.000000 25.177242
v 9.642789 0.000000 25.177242
v 9.413392 55.000000 24.915292
v 9.413392 0.000000 24.915292
v 9.190035 55.000000 24.648172
v 9.190035 0.000000 24.648172
v 8.972835 55.000000 24.376023
v 8.972835 0.000000 24.376023
v 8.761905 55.000000 24.098986
v 8.761905 0.000000 24.098986
v 8.557356 55.000000 23.817205
v 8.557356 0.000000 23.817205
v 8.359293 55.000000 23.530827
v 8.359293 0.000000 23.530827
v 8.167819 55.000000 23.240002
v 8.167819 0.000000 23.240002
v 7.983036 55.000000 22.944882
v 7.983036 0.000000 22.944882
v 7.805039 55.000000 22.645619
v 7.805039 0.000000 22.645619
v 7.633920 55.000000 22.342371
v 7.633920 0.000000 22.342371
v 7.469770 55.000000 22.035295
v 7.469770 0.000000 22.035295
v 7.312673 55.000000 21.724551
v 7.312673 0.000000 21.724551
v 7.162712 55.000000 21.410302
v 7.162712 0.000000 21.410302
v 7.019965 55.000000 21.092711
v 7.019965 0.000000 21.092711
v 6.884506 55.000000 20.771943
v 6.884506 0.000000 20.771943
v 6.756405 55.000000 20.448166
v 6.756405 0.000000 20.448166
v 6.635731 55.000000 20.121549
v 6.635731 0.000000 20.121549
v 6.522544 55.000000 19.792262
v 6.522544 0.000000 19.792262
v 6.416906 55.000000 19.460477
v 6.416906 0.000000 19.460477
v 6.318869 55.000000 19.126366
v 6.318869 0.000000 19.126366
v 6.228487 55.000000 18.790105
v 6.228487 0.000000 18.790105
v 6.145805 55.000000 18.451867
v 6.145805 0.000000 18.451867
v 6.070867 55.000000 18.111830
v 6.070867 0.000000 18.111830
v 6.003712 55.000000 17.770170
v 6.003712 0.000000 17.770170
v 5.944375 55.000000 17.427066
v 5.944375 0.000000 17.427066
v 5.892887 55.000000 17.082697
v 5.892887 0.000000 17.082697
v 5.849274 55.000000 16.737243
v 5.849274 0.000000 16.737243
v 5.813560 55.000000 16.390882
v 5.813560 0.000000 16.390882
v 5.785764 55.000000 16.043797
v 5.785764 0.000000 16.043797
v 5.765898 55.000000 15.696167
v 5.765898 0.000000 15.696167
v 5.753975 55.000000 15.348174
v 5.753975 0.000000 15.348174
v 5.750000 55.000000 15.000000
v 5.750000 0.000000 15.000000
v 5.753975 55.000000 14.651826
v 5.753975 0.000000 14.651826
v 5.765898 55.000000 14.303833
v 5.765898 0.000000 14.303833
v 5.785764 55.000000 13.956203
v 5.785764 0.000000 13.956203
v 5.813560 55.000000 13.609118
v 5.813560 0.000000 13.609118
v 5.849274 55.000000 13.262757
v 5.849274 0.000000 13.262757
v 5.892887 55.000000 12.917303
v 5.892887 0.000000 12.917303
v 5.944375 55.000000 12.572934
v 5.944375 0.000000 12.572934
v 6.003712 55.000000 12.229830
v 6.003712 0.000000 12.229830
v 6.070867 55.000000 11.888170
v 6.070867 0.000000 11.888170
v 6.145805 55.000000 11.548133
v 6.145805 0.000000 11.548133
v 6.228487 55.000000 11.209895
v 6.228487 0.000000 11.209895
v 6.318869 55.000000 10.873634
v 6.318869 0.000000 10.873634
v 6.416906 55.000000 10.539523
v 6.416906 0.000000 10.539523
v 6.522544 55.000000 10.207738
v 6.522544 0.000000 10.207738
v 6.635731 55.000000 9.878451
v 6.635731 0.000000 9.878451
v 6.756405 55.000000 9.551834
v 6.756405 0.000000 9.551834
v 6.884506 55.000000 9.228057
v 6.884506 0.000000 9.228057
v 7.019965 55.000000 8.907289
v 7.019965 0.000000 8.907289
v 7.162712 55.000000 8.589698
v 7.162712 0.000000 8.589698
v 7.312673 55.000000 8.275449
v 7.312673 0.000000 8.275449
v 7.469770 55.000000 7.964705
v 7.469770 0.000000 7.964705
v 7.633920 55.000000 7.657629
v 7.633920 0.000000 7.657629
v 7.805039 55.000000 7.354381
v 7.805039 0.000000 7.354381
v 7.983036 55.000000 7.055118
v 7.983036 0.000000 7.055118
v 8.167819 55.000000 6.759998
v 8.167819 0.000000 6.759998
v 8.359293 55.000000 6.469173
v 8.359293 0.000000 6.469173
v 8.557356 55.000000 6.182795
v 8.557356 0.000000 6.182795
v 8.761905 55.000000 5.901014
v 8.761905 0.000000 5.901014
v 8.972835 55.000000 5.623977
v 8.972835 0.000000 5.623977
v 9.190035 55.000000 5.351828
v 9.190035 0.000000 5.351828
v 9.413392 55.000000 5.084708
v 9.413392 0.000000 5.084708
v 9.642789 55.000000 4.822758
v 9.642789 0.000000 4.822758
v 9.878107 55.000000 4.566113
v 9.878107 0.000000 4.566113
v 10.119223 55.000000 4.314908
v 10.119223 0.000000 4.314908
v 10.366011 55.000000 4.069273
v 10.366011 0.000000 4.069273
v 10.618344 55.000000 3.829337
v 10.618344 0.000000 3.829337
v 10.876088 55.000000 3.595224
v 10.876088 0.000000 3.595224
v 11.139111 55.000000 3.367057
v 11.139111 0.000000 3.367057
v 11.407274 55.000000 3.144954
v 11.407274 0.000000 3.144954
v 11.680438 55.000000 2.929032
v 11.680438 0.000000 2.929032
v 11.958461 55.000000 2.719403
v 11.958461 0.000000 2.719403
v 12.241197 55.000000 2.516176
v 12.241197 0.000000 2.516176
v 12.528499 55.000000 2.319457
v 12.528499 0.000000 2.319457
v 12.820218 55.000000 2.129348
v 12.820218 0.000000 2.129348
v 13.116201 55.000000 1.945950
v 13.116201 0.000000 1.945950
v 13.416295 55.000000 1.769357
v 13.416295 0.000000 1.769357
v 13.720342 55.000000 1.599661
v 13.720342 0.000000 1.599661
v 14.028183 55.000000 1.436952
v 14.028183 0.000000 1.436952
v 14.339660 55.000000 1.281313
v 14.339660 0.000000 1.281313
v 14.654609 55.000000 1.132826
v 14.654609 0.000000 1.132826
v 14.972865 55.000000 0.991569
v 14.972865 0.000000 0.991569
v 15.294264 55.000000 0.857614
v 15.294264 0.000000 0.857614
v 15.618638 55.000000 0.731032
v 15.618638 0.000000 0.731032
v 15.945816 55.000000 0.611889
v 15.945816 0.000000 0.611889
v 16.275630 55.000000 0.500247
v 16.275630 0.000000 0.500247
v 16.607907 55.000000 0.396164
v 16.607907 0.000000 0.396164
v 16.942473 55.000000 0.299695
v 16.942473 0.000000 0.299695
v 17.279155 55.000000 0.210889
v 17.279155 0.000000 0.210889
v 17.617776 55.000000 0.129793
v 17.617776 0.000000 0.129793
v 17.958161 0.000000 29.432939
v 17.958161 55.000000 29.432939
v 17.625558 0.000000 0.641183
v 17.294755 0.000000 0.722967
v 17.625558 55.000000 0.641183
v 16.965931 0.000000 0.812372
v 17.294755 55.000000 0.722967
v 16.639259 0.000000 0.909349
v 16.965931 55.000000 0.812372
v 16.314915 0.000000 1.013847
v 16.639259 55.000000 0.909349
v 15.993071 0.000000 1.125810
v 16.314915 55.000000 1.013847
v 15.673900 0.000000 1.245177
v 15.993071 55.000000 1.125810
v 15.357571 0.000000 1.371886
v 15.673900 55.000000 1.245177
v 15.044254 0.000000 1.505868
v 15.357571 55.000000 1.371886
v 14.734116 0.000000 1.647053
v 15.044254 55.000000 1.505868
v 14.427321 0.000000 1.795365
v 14.734116 55.000000 1.647053
v 14.124035 0.000000 1.950724
v 14.427321 55.000000 1.795365
v 13.824419 0.000000 2.113048
v 14.124035 55.000000 1.950724
v 13.528633 0.000000 2.282250
v 13.824419 55.000000 2.113048
v 13.236834 0.000000 2.458240
v 13.528633 55.000000 2.282250
v 12.949179 0.000000 2.640923
v 13.236834 55.000000 2.458240
v 12.665820 0.000000 2.830203
v 12.949179 55.000000 2.640923
v 12.386910 0.000000 3.025979
v 12.665820 55.000000 2.830203
v 12.112597 0.000000 3.228145
v 12.386910 55.000000 3.025979
v 11.843027 0.000000 3.436594
v 12.112597 55.000000 3.228145
v 11.578345 0.000000 3.651215
v 11.843027 55.000000 3.436594
v 11.318691 0.000000 3.871894
v 11.578345 55.000000 3.651215
v 11.064204 0.000000 4.098511
v 11.318691 55.000000 3.871894
v 10.815021 0.000000 4.330947
v 11.064204 55.000000 4.098511
v 10.571273 0.000000 4.569077
v 10.815021 55.000000 4.330947
v 10.333091 0.000000 4.812775
v 10.571273 55.000000 4.569077
v 10.100603 0.000000 5.061909
v 10.333091 55.000000 4.812775
v 9.873932 0.000000 5.316348
v 10.100603 55.000000 5.061909
v 9.653199 0.000000 5.575956
v 9.873932 55.000000 5.316348
v 9.438522 0.000000 5.840593
v 9.653199 55.000000 5.575956
v 9.230016 0.000000 6.110119
v 9.438522 55.000000 5.840593
v 9.027792 0.000000 6.384389
v 9.230016 55.000000 6.110119
v 8.831958 0.000000 6.663258
v 9.027792 55.000000 6.384389
v 8.642619 0.000000 6.946577
v 8.831958 55.000000 6.663258
v 8.459874 0.000000 7.234194
v 8.642619 55.000000 6.946577
v 8.283823 0.000000 7.525956
v 8.459874 55.000000 7.234194
v 8.114559 0.000000 7.821706
v 8.283823 55.000000 7.525956
v 7.952172 0.000000 8.121288
v 8.114559 55.000000 7.821706
v 7.796749 0.000000 8.424542
v 7.952172 55.000000 8.121288
v 7.648372 0.000000 8.731305
v 7.796749 55.000000 8.424542
v 7.507122 0.000000 9.041413
v 7.648372 55.000000 8.731305
v 7.373074 0.000000 9.354702
v 7.507122 55.000000 9.041413
v 7.246299 0.000000 9.671004
v 7.373074 55.000000 9.354702
v 7.126864 0.000000 9.990150
v 7.246299 55.000000 9.671004
v 7.014834 0.000000 10.311970
v 7.126864 55.000000 9.990150
v 6.910268 0.000000 10.636293
v 7.014834 55.000000 10.311970
v 6.813222 0.000000 10.962944
v 6.910268 55.000000 10.636293
v 6.723748 0.000000 11.291750
v 6.813222 55.000000 10.962944
v 6.641893 0.000000 11.622535
v 6.723748 55.000000 11.291750
v 6.567702 0.000000 11.955123
v 6.641893 55.000000 11.622535
v 6.501214 0.000000 12.289336
v 6.567702 55.000000 11.955123
v 6.442464 0.000000 12.624995
v 6.501214 55.000000 12.289336
v 6.391484 0.000000 12.961922
v 6.442464 55.000000 12.624995
v 6.348301 0.000000 13.299937
v 6.391484 55.000000 12.961922
v 6.312938 0.000000 13.638860
v 6.348301 55.000000 13.299937
v 6.285414 0.000000 13.978509
v 6.312938 55.000000 13.638860
v 6.265743 0.000000 14.318703
v 6.285414 55.000000 13.978509
v 6.253936 0.000000 14.659260
v 6.265743 55.000000 14.318703
v 6.250000 0.000000 15.000000
v 6.253936 55.000000 14.659260
v 6.253936 0.000000 15.340740
v 6.250000 55.000000 15.000000
v 6.265743 0.000000 15.681297
v 6.253936 55.000000 15.340740
v 6.285414 0.000000 16.021491
v 6.265743 55.000000 15.681297
v 6.312938 0.000000 16.361140
v 6.285414 55.000000 16.021491
v 6.348301 0.000000 16.700063
v 6.312938 55.000000 16.361140
v 6.391484 0.000000 17.038078
v 6.348301 55.000000 16.700063
v 6.442464 0.000000 17.375005
v 6.391484 55.000000 17.038078
v 6.501214 0.000000 17.710664
v 6.442464 55.000000 17.375005
v 6.567702 0.000000 18.044877
v 6.501214 55.000000 17.710664
v 6.641893 0.000000 18.377465
v 6.567702 55.000000 18.044877
v 6.723748 0.000000 18.708250
v 6.641893 55.000000 18.377465
v 6.813222 0.000000 19.037056
v 6.723748 55.000000 18.708250
v 6.910268 0.000000 19.363707
v 6.813222 55.000000 19.037056
v 7.014834 0.000000 19.688030
v 6.910268 55.000000 19.363707
v 7.126864 0.000000 20.009850
v 7.014834 55.000000 19.688030
v 7.246299 0.000000 20.328996
v 7.126864 55.000000 20.009850
v 7.373074 0.000000 20.645298
v 7.246299 55.000000 20.328996
v 7.507122 0.000000 20.958587
v 7.373074 55.000000 20.645298
v 7.648372 0.000000 21.268695
v 7.507122 55.000000 20.958587
v 7.796749 0.000000 21.575458
v 7.648372 55.000000 21.268695
v 7.952172 0.000000 21.878712
v 7.796749 55.000000 21.575458
v 8.114559 0.000000 22.178294
v 7.952172 55.000000 21.878712
v 8.283823 0.000000 22.474044
v 8.114559 55.000000 22.178294
v 8.459874 0.000000 22.765806
v 8.283823 55.000000 22.474044
v 8.642619 0.000000 23.053423
v 8.459874 55.000000 22.765806
v 8.831958 0.000000 23.336742
v 8.642619 55.000000 23.053423
v 9.027792 0.000000 23.615611
v 8.831958 55.000000 23.336742
v 9.230016 0.000000 23.889881
v 9.027792 55.000000 23.615611
v 9.438522 0.000000 24.159407
v 9.230016 55.000000 23.889881
v 9.653199 0.000000 24.424044
v 9.438522 55.000000 24.159407
v 9.873932 0.000000 24.683652
v 9.653199 55.000000 24.424044
v 10.100603 0.000000 24.938091
v 9.873932 55.000000 24.683652
v 10.333091 0.000000 25.187225
v 10.100603 55.000000 24.938091
v 10.571273 0.000000 25.430923
v 10.333091 55.000000 25.187225
v 10.815021 0.000000 25.669053
v 10.571273 55.000000 25.430923
v 11.064204 0.000000 25.901489
v 10.815021 55.000000 25.669053
v 11.318691 0.000000 26.128106
v 11.064204 55.000000 25.901489
v 11.578345 0.000000 26.348785
v 11.318691 55.000000 26.128106
v 11.843027 0.000000 26.563406
v 11.578345 55.000000 26.348785
v 12.112597 0.000000 26.771855
v 11.843027 55.000000 26.563406
v 12.386910 0.000000 26.974021
v 12.112597 55.000000 26.771855
v 12.665820 0.000000 27.169797
v 12.386910 55.000000 26.974021
v 12.949179 0.000000 27.359077
v 12.665820 55.000000 27.169797
v 13.236834 0.000000 27.541760
v 12.949179 55.000000 27.359077
v 13.528633 0.000000 27.717750
v 13.236834 55.000000 27.541760
v 13.824419 0.000000 27.886952
v 13.528633 55.000000 27.717750
v 14.124035 0.000000 28.049276
v 13.824419 55.000000 27.886952
v 14.427321 0.000000 28.204635
v 14.124035 55.000000 28.049276
v 14.734116 0.000000 28.352947
v 14.427321 55.000000 28.204635
v 15.044254 0.000000 28.494132
v 14.734116 55.000000 28.352947
v 15.357571 0.000000 28.628114
v 15.044254 55.000000 28.494132
v 15.673900 0.000000 28.754823
v 15.357571 55.000000 28.628114
v 15.993071 0.000000 28.874190
v 15.673900 55.000000 28.754823
v 16.314915 0.000000 28.986153
v 15.993071 55.000000 28.874190
v 16.639259 0.000000 29.090651
v 16.314915 55.000000 28.986153
v 16.965931 0.000000 29.187628
v 16.639259 55.000000 29.090651
v 17.294755 0.000000 29.277033
v 16.965931 55.000000 29.187628
v 17.625558 0.000000 29.358817
v 17.294755 55.000000 29.277033
v 17.625558 55.000000 29.358817
usemtl korekcijaMaterial0
f 1 2 3
f 3 4 1
f 5 6 7
f 8 7 9
f 10 9 11
f 12 11 13
f 14 13 15
f 16 15 17
f 18 17 19
f 20 19 21
f 22 21 23
f 24 23 25
f 26 25 27
f 28 27 29
f 30 29 31
f 32 31 33
f 34 33 35
f 36 35 37
f 38 37 39
f 40 39 41
f 42 41 43
f 44 43 45
f 46 45 47
f 48 47 49
f 50 49 51
f 52 51 53
f 54 53 55
f 56 55 57
f 58 57 59
f 60 59 61
f 62 61 63
f 64 63 65
f 66 65 67
f 68 67 69
f 70 69 71
f 72 71 73
f 74 73 75
f 76 75 77
f 78 77 79
f 80 79 81
f 82 81 83
f 84 83 85
f 86 85 87
f 88 87 89
f 90 89 91
f 92 91 93
f 94 93 95
f 96 95 97
f 98 97 99
f 100 99 101
f 102 101 103
f 104 103 105
f 106 105 107
f 108 107 109
f 110 109 111
f 112 111 113
f 114 113 115
f 116 115 117
f 118 117 119
f 120 119 121
f 122 121 123
f 124 123 125
f 126 125 127
f 128 127 129
f 130 129 131
f 132 131 133
f 134 133 135
f 136 135 137
f 138 137 139
f 140 139 141
f 142 141 143
f 144 143 145
f 146 145 147
f 148 147 149
f 150 149 151
f 152 151 153
f 154 153 155
f 156 155 157
f 158 157 159
f 160 159 161
f 162 161 163
f 164 163 165
f 166 165 167
f 168 167 169
f 170 169 171
f 172 171 173
f 174 173 175
f 176 175 177
f 178 177 179
f 180 179 181
f 182 181 183
f 184 183 185
f 186 185 187
f 188 187 189
f 190 189 191
f 192 191 193
f 194 193 195
f 196 195 197
f 198 197 199
f 200 199 201
f 202 201 203
f 204 203 205
f 206 205 207
f 208 207 209
f 210 209 211
f 212 211 213
f 214 213 215
f 216 215 217
f 218 217 219
f 220 219 221
f 222 221 223
f 224 223 225
f 226 225 227
f 228 227 229
f 230 229 231
f 232 231 233
f 234 233 235
f 236 235 237
f 238 237 239
f 240 239 241
f 242 241 243
f 244 243 4
f 4 3 244
f 243 244 242
f 241 242 240
f 239 240 238
f 237 238 236
f 235 236 234
f 233 234 232
f 231 232 230
f 229 230 228
f 227 228 226
f 225 226 224
f 223 224 222
f 221 222 220
f 219 220 218
f 217 218 216
f 215 216 214
f 213 214 212
f 211 212 210
f 209 210 208
f 207 208 206
f 205 206 204
f 203 204 202
f 201 202 200
f 199 200 198
f 197 198 196
f 195 196 194
f 193 194 192
f 191 192 190
f 189 190 188
f 187 188 186
f 185 186 184
f 183 184 182
f 181 182 180
f 179 180 178
f 177 178 176
f 175 176 174
f 173 174 172
f 171 172 170
f 169 170 168
f 167 168 166
f 165 166 164
f 163 164 162
f 161 162 160
f 159 160 158
f 157 158 156
f 155 156 154
f 153 154 152
f 151 152 150
f 149 150 148
f 147 148 146
f 145 146 144
f 143 144 142
f 141 142 140
f 139 140 138
f 137 138 136
f 135 136 134
f 133 134 132
f 131 132 130
f 129 130 128
f 127 128 126
f 125 126 124
f 123 124 122
f 121 122 120
f 119 120 118
f 117 118 116
f 115 116 114
f 113 114 112
f 111 112 110
f 109 110 108
f 107 108 106
f 105 106 104
f 103 104 102
f 101 102 100
f 99 100 98
f 97 98 96
f 95 96 94
f 93 94 92
f 91 92 90
f 89 90 88
f 87 88 86
f 85 86 84
f 83 84 82
f 81 82 80
f 79 80 78
f 77 78 76
f 75 76 74
f 73 74 72
f 71 72 70
f 69 70 68
f 67 68 66
f 65 66 64
f 63 64 62
f 61 62 60
f 59 60 58
f 57 58 56
f 55 56 54
f 53 54 52
f 51 52 50
f 49 50 48
f 47 48 46
f 45 46 44
f 43 44 42
f 41 42 40
f 39 40 38
f 37 38 36
f 35 36 34
f 33 34 32
f 31 32 30
f 29 30 28
f 27 28 26
f 25 26 24
f 23 24 22
f 21 22 20
f 19 20 18
f 17 18 16
f 15 16 14
f 13 14 12
f 11 12 10
f 9 10 8
f 7 8 5
f 6 5 245
f 245 246 6
f 247 2 1
f 248 247 249
f 250 248 251
f 252 250 253
f 254 252 255
f 256 254 257
f 258 256 259
f 260 258 261
f 262 260 263
f 264 262 265
f 266 264 267
f 268 266 269
f 270 268 271
f 272 270 273
f 274 272 275
f 276 274 277
f 278 276 279
f 280 278 281
f 282 280 283
f 284 282 285
f 286 284 287
f 288 286 289
f 290 288 291
f 292 290 293
f 294 292 295
f 296 294 297
f 298 296 299
f 300 298 301
f 302 300 303
f 304 302 305
f 306 304 307
f 308 306 309
f 310 308 311
f 312 310 313
f 314 312 315
f 316 314 317
f 318 316 319
f 320 318 321
f 322 320 323
f 324 322 325
f 326 324 327
f 328 326 329
f 330 328 331
f 332 330 333
f 334 332 335
f 336 334 337
f 338 336 339
f 340 338 341
f 342 340 343
f 344 342 345
f 346 344 347
f 348 346 349
f 350 348 351
f 352 350 353
f 354 352 355
f 356 354 357
f 358 356 359
f 360 358 361
f 362 360 363
f 364 362 365
f 366 364 367
f 368 366 369
f 370 368 371
f 372 370 373
f 374 372 375
f 376 374 377
f 378 376 379
f 380 378 381
f 382 380 383
f 384 382 385
f 386 384 387
f 388 386 389
f 390 388 391
f 392 390 393
f 394 392 395
f 396 394 397
f 398 396 399
f 400 398 401
f 402 400 403
f 404 402 405
f 406 404 407
f 408 406 409
f 410 408 411
f 412 410 413
f 414 412 415
f 416 414 417
f 418 416 419
f 420 418 421
f 422 420 423
f 424 422 425
f 426 424 427
f 428 426 429
f 430 428 431
f 432 430 433
f 434 432 435
f 436 434 437
f 438 436 439
f 440 438 441
f 442 440 443
f 444 442 445
f 446 444 447
f 448 446 449
f 450 448 451
f 452 450 453
f 454 452 455
f 456 454 457
f 458 456 459
f 460 458 461
f 462 460 463
f 464 462 465
f 466 464 467
f 468 466 469
f 470 468 471
f 472 470 473
f 474 472 475
f 476 474 477
f 478 476 479
f 245 478 480
f 480 246 245
f 479 480 478
f 477 479 476
f 475 477 474
f 473 475 472
f 471 473 470
f 469 471 468
f 467 469 466
f 465 467 464
f 463 465 462
f 461 463 460
f 459 461 458
f 457 459 456
f 455 457 454
f 453 455 452
f 451 453 450
f 449 451 448
f 447 449 446
f 445 447 444
f 443 445 442
f 441 443 440
f 439 441 438
f 437 439 436
f 435 437 434
f 433 435 432
f 431 433 430
f 429 431 428
f 427 429 426
f 425 427 424
f 423 425 422
f 421 423 420
f 419 421 418
f 417 419 416
f 415 417 414
f 413 415 412
f 411 413 410
f 409 411 408
f 407 409 406
f 405 407 404
f 403 405 402
f 401 403 400
f 399 401 398
f 397 399 396
f 395 397 394
f 393 395 392
f 391 393 390
f 389 391 388
f 387 389 386
f 385 387 384
f 383 385 382
f 381 383 380
f 379 381 378
f 377 379 376
f 375 377 374
f 373 375 372
f 371 373 370
f 369 371 368
f 367 369 366
f 365 367 364
f 363 365 362
f 361 363 360
f 359 361 358
f 357 359 356
f 355 357 354
f 353 355 352
f 351 353 350
f 349 351 348
f 347 349 346
f 345 347 344
f 343 345 342
f 341 343 340
f 339 341 338
f 337 339 336
f 335 337 334
f 333 335 332
f 331 333 330
f 329 331 328
f 327 329 326
f 325 327 324
f 323 325 322
f 321 323 320
f 319 321 318
f 317 319 316
f 315 317 314
f 313 315 312
f 311 313 310
f 309 311 308
f 307 309 306
f 305 307 304
f 303 305 302
f 301 303 300
f 299 301 298
f 297 299 296
f 295 297 294
f 293 295 292
f 291 293 290
f 289 291 288
f 287 289 286
f 285 287 284
f 283 285 282
f 281 283 280
f 279 281 278
f 277 279 276
f 275 277 274
f 273 275 272
f 271 273 270
f 269 271 268
f 267 269 266
f 265 267 264
f 263 265 262
f 261 263 260
f 259 261 258
f 257 259 256
f 255 257 254
f 253 255 252
f 251 253 250
f 249 251 248
f 1 249 247
f 159 157 333
f 157 155 335
f 151 149 341
f 149 147 343
f 335 333 157
f 155 153 337
f 153 151 339
f 343 341 149
f 167 165 325
f 165 163 327
f 337 335 155
f 341 339 151
f 327 325 165
f 163 161 329
f 161 159 331
f 339 337 153
f 231 261 259
f 229 263 261
f 217 275 273
f 215 277 275
f 189 187 303
f 187 185 305
f 329 327 163
f 333 331 159
f 147 145 345
f 145 143 347
f 141 139 351
f 139 137 353
f 137 135 355
f 135 133 357
f 113 377 375
f 111 379 377
f 109 381 379
f 107 383 381
f 261 231 229
f 227 265 263
f 225 267 265
f 223 269 267
f 219 273 271
f 275 217 215
f 195 193 297
f 193 191 299
f 191 189 301
f 305 303 187
f 185 183 307
f 183 181 309
f 181 179 311
f 179 177 313
f 331 329 161
f 347 345 145
f 143 141 349
f 353 351 139
f 357 355 135
f 133 131 359
f 131 129 361
f 129 127 363
f 127 125 365
f 123 367 365
f 117 373 371
f 115 375 373
f 377 113 111
f 381 109 107
f 105 385 383
f 103 387 385
f 99 391 389
f 97 393 391
f 79 411 409
f 77 413 411
f 239 253 251
f 237 255 253
f 263 229 227
f 267 225 223
f 221 271 269
f 273 219 217
f 211 281 279
f 199 197 293
f 197 195 295
f 299 297 193
f 303 301 189
f 309 307 183
f 313 311 179
f 177 175 315
f 175 173 317
f 345 343 147
f 351 349 141
f 359 357 133
f 363 361 129
f 365 125 123
f 121 369 367
f 119 371 369
f 373 117 115
f 379 111 109
f 385 105 103
f 101 389 387
f 391 99 97
f 93 397 395
f 91 399 397
f 81 409 407
f 411 79 77
f 71 419 417
f 69 421 419
f 241 251 249
f 253 239 237
f 235 257 255
f 233 259 257
f 265 227 225
f 271 221 219
f 213 279 277
f 279 213 211
f 209 207 283
f 207 205 285
f 201 199 291
f 295 293 197
f 301 299 191
f 311 309 181
f 317 315 175
f 173 171 319
f 171 169 321
f 169 167 323
f 349 347 143
f 361 359 131
f 367 123 121
f 371 119 117
f 383 107 105
f 389 101 99
f 95 395 393
f 397 93 91
f 89 401 399
f 87 403 401
f 85 405 403
f 83 407 405
f 409 81 79
f 75 415 413
f 73 417 415
f 419 71 69
f 65 425 423
f 63 427 425
f 61 429 427
f 59 431 429
f 243 249 1
f 251 241 239
f 257 235 233
f 269 223 221
f 211 209 281
f 285 283 207
f 205 203 287
f 203 201 289
f 293 291 199
f 307 305 185
f 319 317 173
f 323 321 169
f 355 353 137
f 369 121 119
f 387 103 101
f 395 95 93
f 401 89 87
f 405 85 83
f 413 77 75
f 417 73 71
f 67 423 421
f 425 65 63
f 429 61 59
f 57 433 431
f 25 23 465
f 23 21 467
f 17 15 473
f 15 13 475
f 249 243 241
f 259 233 231
f 283 281 209
f 289 287 203
f 297 295 195
f 321 319 171
f 365 363 127
f 393 97 95
f 403 87 85
f 415 75 73
f 423 67 65
f 431 59 57
f 39 37 451
f 467 465 23
f 21 19 469
f 19 17 471
f 475 473 15
f 13 11 477
f 11 9 479
f 255 237 235
f 287 285 205
f 315 313 177
f 375 115 113
f 407 83 81
f 427 63 61
f 55 435 433
f 53 437 435
f 51 439 437
f 49 441 439
f 43 447 445
f 41 449 447
f 449 41 39
f 37 35 453
f 35 33 455
f 33 31 457
f 29 27 461
f 27 25 463
f 469 467 21
f 473 471 17
f 479 477 11
f 9 7 480
f 277 215 213
f 325 323 167
f 421 69 67
f 435 55 53
f 439 51 49
f 47 443 441
f 45 445 443
f 447 43 41
f 453 451 37
f 457 455 33
f 463 461 27
f 471 469 19
f 480 479 9
f 7 6 246
f 291 289 201
f 433 57 55
f 441 49 47
f 445 45 43
f 455 453 35
f 31 29 459
f 465 463 25
f 246 480 7
f 399 91 89
f 443 47 45
f 459 457 31
f 477 475 13
f 437 53 51
f 461 459 29
f 451 449 39
f 1 4 243
f 136 352 354
f 138 350 352
f 150 338 340
f 152 336 338
f 158 330 332
f 160 328 330
f 130 358 360
f 132 356 358
f 134 354 356
f 352 136 138
f 140 348 350
f 142 346 348
f 338 150 152
f 154 334 336
f 156 332 334
f 330 158 160
f 104 106 382
f 106 108 380
f 108 110 378
f 110 112 376
f 358 130 132
f 354 134 136
f 348 140 142
f 144 344 346
f 336 152 154
f 332 156 158
f 166 322 324
f 168 320 322
f 180 308 310
f 182 306 308
f 184 304 306
f 186 302 304
f 188 300 302
f 190 298 300
f 216 218 272
f 218 220 270
f 228 230 260
f 230 232 258
f 78 80 408
f 80 82 406
f 98 100 388
f 100 102 386
f 380 382 106
f 376 378 110
f 112 114 374
f 114 116 372
f 116 118 370
f 118 120 368
f 124 126 362
f 128 360 362
f 356 132 134
f 346 142 144
f 146 342 344
f 148 340 342
f 334 154 156
f 162 326 328
f 164 324 326
f 322 166 168
f 308 180 182
f 304 184 186
f 300 188 190
f 192 296 298
f 212 214 276
f 270 272 218
f 220 222 268
f 224 226 264
f 226 228 262
f 258 260 230
f 232 234 256
f 70 72 416
f 72 74 414
f 406 408 80
f 82 84 404
f 92 94 394
f 94 96 392
f 386 388 100
f 102 104 384
f 378 380 108
f 372 374 114
f 368 370 118
f 120 122 366
f 122 124 364
f 362 126 128
f 350 138 140
f 342 146 148
f 328 160 162
f 324 164 166
f 174 314 316
f 176 312 314
f 306 182 184
f 298 190 192
f 194 294 296
f 196 292 294
f 198 290 292
f 200 288 290
f 208 280 282
f 210 278 280
f 278 210 212
f 214 216 274
f 268 270 220
f 222 224 266
f 262 264 226
f 256 258 232
f 60 62 426
f 62 64 424
f 64 66 422
f 66 68 420
f 414 416 72
f 74 76 412
f 76 78 410
f 404 406 82
f 84 86 402
f 86 88 400
f 88 90 398
f 90 92 396
f 392 394 94
f 96 98 390
f 384 386 102
f 374 376 112
f 366 368 120
f 362 364 124
f 344 144 146
f 326 162 164
f 170 318 320
f 172 316 318
f 314 174 176
f 178 310 312
f 302 186 188
f 294 194 196
f 290 198 200
f 202 286 288
f 204 284 286
f 206 282 284
f 280 208 210
f 274 276 214
f 266 268 222
f 260 262 228
f 234 236 254
f 236 238 252
f 238 240 250
f 240 242 248
f 12 474 476
f 14 472 474
f 16 470 472
f 18 468 470
f 24 462 464
f 26 460 462
f 58 60 428
f 424 426 62
f 420 422 66
f 68 70 418
f 412 414 74
f 408 410 78
f 400 402 86
f 396 398 90
f 390 392 96
f 382 384 104
f 364 366 122
f 340 148 150
f 318 170 172
f 312 176 178
f 296 192 194
f 288 200 202
f 284 204 206
f 276 278 212
f 264 266 224
f 252 254 236
f 248 250 240
f 242 244 247
f 10 476 478
f 474 12 14
f 470 16 18
f 20 466 468
f 22 464 466
f 462 24 26
f 40 446 448
f 426 428 60
f 418 420 68
f 410 412 76
f 398 400 88
f 388 390 98
f 360 128 130
f 316 172 174
f 292 196 198
f 282 206 208
f 254 256 234
f 247 248 242
f 244 3 2
f 8 478 245
f 476 10 12
f 468 18 20
f 464 22 24
f 34 452 454
f 36 450 452
f 38 448 450
f 448 38 40
f 42 44 444
f 44 46 442
f 50 52 436
f 52 54 434
f 54 56 432
f 56 58 430
f 422 424 64
f 402 404 84
f 370 372 116
f 310 178 180
f 272 274 216
f 2 247 244
f 478 8 10
f 466 20 22
f 28 458 460
f 30 456 458
f 452 34 36
f 40 42 446
f 442 444 44
f 46 48 440
f 48 50 438
f 434 436 52
f 430 432 56
f 416 418 70
f 320 168 170
f 250 252 238
f 472 14 16
f 458 28 30
f 32 454 456
f 450 36 38
f 440 442 46
f 436 438 50
f 428 430 58
f 286 202 204
f 460 26 28
f 454 32 34
f 438 440 48
f 394 396 92
f 456 30 32
f 432 434 54
f 444 446 42
f 245 5 8
