# 
# Wavefront OBJ file
# Created with Kaydara FBX
# 
mtllib korekcija2.mtl

g korekcija2
v 21.000000 55.000000 29.750000
v 21.000000 0.000000 29.750000
v 21.000000 0.000000 30.250000
v 21.000000 55.000000 30.250000
v 21.343217 0.000000 29.746006
v 21.686248 0.000000 29.734027
v 21.343217 55.000000 29.746006
v 22.028908 0.000000 29.714070
v 21.686248 55.000000 29.734027
v 22.371010 0.000000 29.686144
v 22.028908 55.000000 29.714070
v 22.712370 0.000000 29.650266
v 22.371010 55.000000 29.686144
v 23.052803 0.000000 29.606454
v 22.712370 55.000000 29.650266
v 23.392124 0.000000 29.554733
v 23.052803 55.000000 29.606454
v 23.730150 0.000000 29.495130
v 23.392124 55.000000 29.554733
v 24.066697 0.000000 29.427677
v 23.730150 55.000000 29.495130
v 24.401584 0.000000 29.352412
v 24.066697 55.000000 29.427677
v 24.734629 0.000000 29.269374
v 24.401584 55.000000 29.352412
v 25.065651 0.000000 29.178610
v 24.734629 55.000000 29.269374
v 25.394472 0.000000 29.080168
v 25.065651 55.000000 29.178610
v 25.720913 0.000000 28.974100
v 25.394472 55.000000 29.080168
v 26.044797 0.000000 28.860466
v 25.720913 55.000000 28.974100
v 26.365950 0.000000 28.739326
v 26.044797 55.000000 28.860466
v 26.684197 0.000000 28.610746
v 26.365950 55.000000 28.739326
v 26.999365 0.000000 28.474796
v 26.684197 55.000000 28.610746
v 27.311286 0.000000 28.331548
v 26.999365 55.000000 28.474796
v 27.619788 0.000000 28.181081
v 27.311286 55.000000 28.331548
v 27.924706 0.000000 28.023477
v 27.619788 55.000000 28.181081
v 28.225873 0.000000 27.858820
v 27.924706 55.000000 28.023477
v 28.523128 0.000000 27.687200
v 28.225873 55.000000 27.858820
v 28.816309 0.000000 27.508709
v 28.523128 55.000000 27.687200
v 29.105257 0.000000 27.323445
v 28.816309 55.000000 27.508709
v 29.389817 0.000000 27.131508
v 29.105257 55.000000 27.323445
v 29.669832 0.000000 26.933001
v 29.389817 55.000000 27.131508
v 29.945154 0.000000 26.728032
v 29.669832 55.000000 26.933001
v 30.215631 0.000000 26.516712
v 29.945154 55.000000 26.728032
v 30.481117 0.000000 26.299156
v 30.215631 55.000000 26.516712
v 30.741470 0.000000 26.075480
v 30.481117 55.000000 26.299156
v 30.996547 0.000000 25.845808
v 30.741470 55.000000 26.075480
v 31.246211 0.000000 25.610262
v 30.996547 55.000000 25.845808
v 31.490326 0.000000 25.368971
v 31.246211 55.000000 25.610262
v 31.728761 0.000000 25.122064
v 31.490326 55.000000 25.368971
v 31.961386 0.000000 24.869676
v 31.728761 55.000000 25.122064
v 32.188075 0.000000 24.611944
v 31.961386 55.000000 24.869676
v 32.408706 0.000000 24.349007
v 32.188075 55.000000 24.611944
v 32.623159 0.000000 24.081007
v 32.408706 55.000000 24.349007
v 32.831317 0.000000 23.808089
v 32.623159 55.000000 24.081007
v 33.033069 0.000000 23.530402
v 32.831317 55.000000 23.808089
v 33.228304 0.000000 23.248095
v 33.033069 55.000000 23.530402
v 33.416918 0.000000 22.961322
v 33.228304 55.000000 23.248095
v 33.598808 0.000000 22.670238
v 33.416918 55.000000 22.961322
v 33.773875 0.000000 22.375000
v 33.598808 55.000000 22.670238
v 33.942025 0.000000 22.075768
v 33.773875 55.000000 22.375000
v 34.103166 0.000000 21.772705
v 33.942025 55.000000 22.075768
v 34.257212 0.000000 21.465974
v 34.103166 55.000000 21.772705
v 34.404079 0.000000 21.155742
v 34.257212 55.000000 21.465974
v 34.543688 0.000000 20.842177
v 34.404079 55.000000 21.155742
v 34.675962 0.000000 20.525447
v 34.543688 55.000000 20.842177
v 34.800830 0.000000 20.205726
v 34.675962 55.000000 20.525447
v 34.918225 0.000000 19.883185
v 34.800830 55.000000 20.205726
v 35.028084 0.000000 19.558001
v 34.918225 55.000000 19.883185
v 35.130345 0.000000 19.230348
v 35.028084 55.000000 19.558001
v 35.224955 0.000000 18.900404
v 35.130345 55.000000 19.230348
v 35.311862 0.000000 18.568348
v 35.224955 55.000000 18.900404
v 35.391019 0.000000 18.234360
v 35.311862 55.000000 18.568348
v 35.462382 0.000000 17.898620
v 35.391019 55.000000 18.234360
v 35.525914 0.000000 17.561311
v 35.462382 55.000000 17.898620
v 35.581580 0.000000 17.222614
v 35.525914 55.000000 17.561311
v 35.629350 0.000000 16.882714
v 35.581580 55.000000 17.222614
v 35.669198 0.000000 16.541795
v 35.629350 55.000000 16.882714
v 35.701102 0.000000 16.200040
v 35.669198 55.000000 16.541795
v 35.725045 0.000000 15.857636
v 35.701102 55.000000 16.200040
v 35.741015 0.000000 15.514768
v 35.725045 55.000000 15.857636
v 35.749002 0.000000 15.171620
v 35.741015 55.000000 15.514768
v 35.749002 0.000000 14.828380
v 35.749002 55.000000 15.171620
v 35.741015 0.000000 14.485232
v 35.749002 55.000000 14.828380
v 35.725045 0.000000 14.142364
v 35.741015 55.000000 14.485232
v 35.701102 0.000000 13.799960
v 35.725045 55.000000 14.142364
v 35.669198 0.000000 13.458205
v 35.701102 55.000000 13.799960
v 35.629350 0.000000 13.117286
v 35.669198 55.000000 13.458205
v 35.581580 0.000000 12.777386
v 35.629350 55.000000 13.117286
v 35.525914 0.000000 12.438689
v 35.581580 55.000000 12.777386
v 35.462382 0.000000 12.101380
v 35.525914 55.000000 12.438689
v 35.391019 0.000000 11.765640
v 35.462382 55.000000 12.101380
v 35.311862 0.000000 11.431652
v 35.391019 55.000000 11.765640
v 35.224955 0.000000 11.099596
v 35.311862 55.000000 11.431652
v 35.130345 0.000000 10.769652
v 35.224955 55.000000 11.099596
v 35.028084 0.000000 10.441999
v 35.130345 55.000000 10.769652
v 34.918225 0.000000 10.116815
v 35.028084 55.000000 10.441999
v 34.800830 0.000000 9.794274
v 34.918225 55.000000 10.116815
v 34.675962 0.000000 9.474553
v 34.800830 55.000000 9.794274
v 34.543688 0.000000 9.157823
v 34.675962 55.000000 9.474553
v 34.404079 0.000000 8.844258
v 34.543688 55.000000 9.157823
v 34.257212 0.000000 8.534026
v 34.404079 55.000000 8.844258
v 34.103166 0.000000 8.227295
v 34.257212 55.000000 8.534026
v 33.942025 0.000000 7.924232
v 34.103166 55.000000 8.227295
v 33.773875 0.000000 7.625000
v 33.942025 55.000000 7.924232
v 33.598808 0.000000 7.329762
v 33.773875 55.000000 7.625000
v 33.416918 0.000000 7.038678
v 33.598808 55.000000 7.329762
v 33.228304 0.000000 6.751905
v 33.416918 55.000000 7.038678
v 33.033069 0.000000 6.469598
v 33.228304 55.000000 6.751905
v 32.831317 0.000000 6.191911
v 33.033069 55.000000 6.469598
v 32.623159 0.000000 5.918993
v 32.831317 55.000000 6.191911
v 32.408706 0.000000 5.650993
v 32.623159 55.000000 5.918993
v 32.188075 0.000000 5.388056
v 32.408706 55.000000 5.650993
v 31.961386 0.000000 5.130324
v 32.188075 55.000000 5.388056
v 31.728761 0.000000 4.877936
v 31.961386 55.000000 5.130324
v 31.490326 0.000000 4.631029
v 31.728761 55.000000 4.877936
v 31.246211 0.000000 4.389738
v 31.490326 55.000000 4.631029
v 30.996547 0.000000 4.154192
v 31.246211 55.000000 4.389738
v 30.741470 0.000000 3.924520
v 30.996547 55.000000 4.154192
v 30.481117 0.000000 3.700844
v 30.741470 55.000000 3.924520
v 30.215631 0.000000 3.483288
v 30.481117 55.000000 3.700844
v 29.945154 0.000000 3.271968
v 30.215631 55.000000 3.483288
v 29.669832 0.000000 3.066999
v 29.945154 55.000000 3.271968
v 29.389817 0.000000 2.868492
v 29.669832 55.000000 3.066999
v 29.105257 0.000000 2.676555
v 29.389817 55.000000 2.868492
v 28.816309 0.000000 2.491291
v 29.105257 55.000000 2.676555
v 28.523128 0.000000 2.312800
v 28.816309 55.000000 2.491291
v 28.225873 0.000000 2.141180
v 28.523128 55.000000 2.312800
v 27.924706 0.000000 1.976523
v 28.225873 55.000000 2.141180
v 27.619788 0.000000 1.818919
v 27.924706 55.000000 1.976523
v 27.311286 0.000000 1.668452
v 27.619788 55.000000 1.818919
v 26.999365 0.000000 1.525204
v 27.311286 55.000000 1.668452
v 26.684197 0.000000 1.389254
v 26.999365 55.000000 1.525204
v 26.365950 0.000000 1.260674
v 26.684197 55.000000 1.389254
v 26.044797 0.000000 1.139534
v 26.365950 55.000000 1.260674
v 25.720913 0.000000 1.025900
v 26.044797 55.000000 1.139534
v 25.394472 0.000000 0.919832
v 25.720913 55.000000 1.025900
v 25.065651 0.000000 0.821390
v 25.394472 55.000000 0.919832
v 24.734629 0.000000 0.730626
v 25.065651 55.000000 0.821390
v 24.401584 0.000000 0.647588
v 24.734629 55.000000 0.730626
v 24.066697 0.000000 0.572323
v 24.401584 55.000000 0.647588
v 23.730150 0.000000 0.504870
v 24.066697 55.000000 0.572323
v 23.392124 0.000000 0.445267
v 23.730150 55.000000 0.504870
v 23.052803 0.000000 0.393546
v 23.392124 55.000000 0.445267
v 22.712370 0.000000 0.349734
v 23.052803 55.000000 0.393546
v 22.371010 0.000000 0.313856
v 22.712370 55.000000 0.349734
v 22.028908 0.000000 0.285930
v 22.371010 55.000000 0.313856
v 21.686248 0.000000 0.265973
v 22.028908 55.000000 0.285930
v 21.343217 0.000000 0.253994
v 21.686248 55.000000 0.265973
v 21.000000 0.000000 0.250000
v 21.343217 55.000000 0.253994
v 21.000000 55.000000 0.250000
v 21.000000 55.000000 -0.250000
v 21.000000 0.000000 -0.250000
v 21.347139 55.000000 -0.246048
v 21.347139 0.000000 -0.246048
v 21.694098 55.000000 -0.234196
v 21.694098 0.000000 -0.234196
v 22.040697 55.000000 -0.214449
v 22.040697 0.000000 -0.214449
v 22.386757 55.000000 -0.186817
v 22.386757 0.000000 -0.186817
v 22.732098 55.000000 -0.151315
v 22.732098 0.000000 -0.151315
v 23.076541 55.000000 -0.107961
v 23.076541 0.000000 -0.107961
v 23.419909 55.000000 -0.056777
v 23.419909 0.000000 -0.056777
v 23.762022 55.000000 0.002209
v 23.762022 0.000000 0.002209
v 24.102704 55.000000 0.068968
v 24.102704 0.000000 0.068968
v 24.441778 55.000000 0.143464
v 24.441778 0.000000 0.143464
v 24.779069 55.000000 0.225659
v 24.779069 0.000000 0.225659
v 25.114401 55.000000 0.315511
v 25.114401 0.000000 0.315511
v 25.447601 55.000000 0.412973
v 25.447601 0.000000 0.412973
v 25.778496 55.000000 0.517995
v 25.778496 0.000000 0.517995
v 26.106914 55.000000 0.630521
v 26.106914 0.000000 0.630521
v 26.432686 55.000000 0.750494
v 26.432686 0.000000 0.750494
v 26.755643 55.000000 0.877852
v 26.755643 0.000000 0.877852
v 27.075617 55.000000 1.012528
v 27.075617 0.000000 1.012528
v 27.392442 55.000000 1.154452
v 27.392442 0.000000 1.154452
v 27.705954 55.000000 1.303552
v 27.705954 0.000000 1.303552
v 28.015992 55.000000 1.459750
v 28.015992 0.000000 1.459750
v 28.322393 55.000000 1.622965
v 28.322393 0.000000 1.622965
v 28.625000 55.000000 1.793113
v 28.625000 0.000000 1.793113
v 28.923655 55.000000 1.970104
v 28.923655 0.000000 1.970104
v 29.218204 55.000000 2.153848
v 29.218204 0.000000 2.153848
v 29.508494 55.000000 2.344249
v 29.508494 0.000000 2.344249
v 29.794375 55.000000 2.541209
v 29.794375 0.000000 2.541209
v 30.075698 55.000000 2.744625
v 30.075698 0.000000 2.744625
v 30.352318 55.000000 2.954393
v 30.352318 0.000000 2.954393
v 30.624091 55.000000 3.170403
v 30.624091 0.000000 3.170403
v 30.890877 55.000000 3.392543
v 30.890877 0.000000 3.392543
v 31.152537 55.000000 3.620699
v 31.152537 0.000000 3.620699
v 31.408935 55.000000 3.854752
v 31.408935 0.000000 3.854752
v 31.659940 55.000000 4.094580
v 31.659940 0.000000 4.094580
v 31.905420 55.000000 4.340060
v 31.905420 0.000000 4.340060
v 32.145248 55.000000 4.591065
v 32.145248 0.000000 4.591065
v 32.379301 55.000000 4.847463
v 32.379301 0.000000 4.847463
v 32.607457 55.000000 5.109123
v 32.607457 0.000000 5.109123
v 32.829597 55.000000 5.375909
v 32.829597 0.000000 5.375909
v 33.045607 55.000000 5.647682
v 33.045607 0.000000 5.647682
v 33.255375 55.000000 5.924302
v 33.255375 0.000000 5.924302
v 33.458791 55.000000 6.205625
v 33.458791 0.000000 6.205625
v 33.655751 55.000000 6.491506
v 33.655751 0.000000 6.491506
v 33.846152 55.000000 6.781796
v 33.846152 0.000000 6.781796
v 34.029896 55.000000 7.076345
v 34.029896 0.000000 7.076345
v 34.206887 55.000000 7.375000
v 34.206887 0.000000 7.375000
v 34.377035 55.000000 7.677607
v 34.377035 0.000000 7.677607
v 34.540250 55.000000 7.984008
v 34.540250 0.000000 7.984008
v 34.696448 55.000000 8.294046
v 34.696448 0.000000 8.294046
v 34.845548 55.000000 8.607558
v 34.845548 0.000000 8.607558
v 34.987472 55.000000 8.924383
v 34.987472 0.000000 8.924383
v 35.122148 55.000000 9.244357
v 35.122148 0.000000 9.244357
v 35.249506 55.000000 9.567314
v 35.249506 0.000000 9.567314
v 35.369479 55.000000 9.893086
v 35.369479 0.000000 9.893086
v 35.482005 55.000000 10.221504
v 35.482005 0.000000 10.221504
v 35.587027 55.000000 10.552399
v 35.587027 0.000000 10.552399
v 35.684489 55.000000 10.885599
v 35.684489 0.000000 10.885599
v 35.774341 55.000000 11.220931
v 35.774341 0.000000 11.220931
v 35.856536 55.000000 11.558222
v 35.856536 0.000000 11.558222
v 35.931032 55.000000 11.897296
v 35.931032 0.000000 11.897296
v 35.997791 55.000000 12.237978
v 35.997791 0.000000 12.237978
v 36.056777 55.000000 12.580091
v 36.056777 0.000000 12.580091
v 36.107961 55.000000 12.923459
v 36.107961 0.000000 12.923459
v 36.151315 55.000000 13.267902
v 36.151315 0.000000 13.267902
v 36.186817 55.000000 13.613243
v 36.186817 0.000000 13.613243
v 36.214449 55.000000 13.959303
v 36.214449 0.000000 13.959303
v 36.234196 55.000000 14.305902
v 36.234196 0.000000 14.305902
v 36.246048 55.000000 14.652861
v 36.246048 0.000000 14.652861
v 36.250000 55.000000 15.000000
v 36.250000 0.000000 15.000000
v 36.246048 55.000000 15.347139
v 36.246048 0.000000 15.347139
v 36.234196 55.000000 15.694098
v 36.234196 0.000000 15.694098
v 36.214449 55.000000 16.040697
v 36.214449 0.000000 16.040697
v 36.186817 55.000000 16.386757
v 36.186817 0.000000 16.386757
v 36.151315 55.000000 16.732098
v 36.151315 0.000000 16.732098
v 36.107961 55.000000 17.076541
v 36.107961 0.000000 17.076541
v 36.056777 55.000000 17.419909
v 36.056777 0.000000 17.419909
v 35.997791 55.000000 17.762022
v 35.997791 0.000000 17.762022
v 35.931032 55.000000 18.102704
v 35.931032 0.000000 18.102704
v 35.856536 55.000000 18.441778
v 35.856536 0.000000 18.441778
v 35.774341 55.000000 18.779069
v 35.774341 0.000000 18.779069
v 35.684489 55.000000 19.114401
v 35.684489 0.000000 19.114401
v 35.587027 55.000000 19.447601
v 35.587027 0.000000 19.447601
v 35.482005 55.000000 19.778496
v 35.482005 0.000000 19.778496
v 35.369479 55.000000 20.106914
v 35.369479 0.000000 20.106914
v 35.249506 55.000000 20.432686
v 35.249506 0.000000 20.432686
v 35.122148 55.000000 20.755643
v 35.122148 0.000000 20.755643
v 34.987472 55.000000 21.075617
v 34.987472 0.000000 21.075617
v 34.845548 55.000000 21.392442
v 34.845548 0.000000 21.392442
v 34.696448 55.000000 21.705954
v 34.696448 0.000000 21.705954
v 34.540250 55.000000 22.015992
v 34.540250 0.000000 22.015992
v 34.377035 55.000000 22.322393
v 34.377035 0.000000 22.322393
v 34.206887 55.000000 22.625000
v 34.206887 0.000000 22.625000
v 34.029896 55.000000 22.923655
v 34.029896 0.000000 22.923655
v 33.846152 55.000000 23.218204
v 33.846152 0.000000 23.218204
v 33.655751 55.000000 23.508494
v 33.655751 0.000000 23.508494
v 33.458791 55.000000 23.794375
v 33.458791 0.000000 23.794375
v 33.255375 55.000000 24.075698
v 33.255375 0.000000 24.075698
v 33.045607 55.000000 24.352318
v 33.045607 0.000000 24.352318
v 32.829597 55.000000 24.624091
v 32.829597 0.000000 24.624091
v 32.607457 55.000000 24.890877
v 32.607457 0.000000 24.890877
v 32.379301 55.000000 25.152537
v 32.379301 0.000000 25.152537
v 32.145248 55.000000 25.408935
v 32.145248 0.000000 25.408935
v 31.905420 55.000000 25.659940
v 31.905420 0.000000 25.659940
v 31.659940 55.000000 25.905420
v 31.659940 0.000000 25.905420
v 31.408935 55.000000 26.145248
v 31.408935 0.000000 26.145248
v 31.152537 55.000000 26.379301
v 31.152537 0.000000 26.379301
v 30.890877 55.000000 26.607457
v 30.890877 0.000000 26.607457
v 30.624091 55.000000 26.829597
v 30.624091 0.000000 26.829597
v 30.352318 55.000000 27.045607
v 30.352318 0.000000 27.045607
v 30.075698 55.000000 27.255375
v 30.075698 0.000000 27.255375
v 29.794375 55.000000 27.458791
v 29.794375 0.000000 27.458791
v 29.508494 55.000000 27.655751
v 29.508494 0.000000 27.655751
v 29.218204 55.000000 27.846152
v 29.218204 0.000000 27.846152
v 28.923655 55.000000 28.029896
v 28.923655 0.000000 28.029896
v 28.625000 55.000000 28.206887
v 28.625000 0.000000 28.206887
v 28.322393 55.000000 28.377035
v 28.322393 0.000000 28.377035
v 28.015992 55.000000 28.540250
v 28.015992 0.000000 28.540250
v 27.705954 55.000000 28.696448
v 27.705954 0.000000 28.696448
v 27.392442 55.000000 28.845548
v 27.392442 0.000000 28.845548
v 27.075617 55.000000 28.987472
v 27.075617 0.000000 28.987472
v 26.755643 55.000000 29.122148
v 26.755643 0.000000 29.122148
v 26.432686 55.000000 29.249506
v 26.432686 0.000000 29.249506
v 26.106914 55.000000 29.369479
v 26.106914 0.000000 29.369479
v 25.778496 55.000000 29.482005
v 25.778496 0.000000 29.482005
v 25.447601 55.000000 29.587027
v 25.447601 0.000000 29.587027
v 25.114401 55.000000 29.684489
v 25.114401 0.000000 29.684489
v 24.779069 55.000000 29.774341
v 24.779069 0.000000 29.774341
v 24.441778 55.000000 29.856536
v 24.441778 0.000000 29.856536
v 24.102704 55.000000 29.931032
v 24.102704 0.000000 29.931032
v 23.762022 55.000000 29.997791
v 23.762022 0.000000 29.997791
v 23.419909 55.000000 30.056777
v 23.419909 0.000000 30.056777
v 23.076541 55.000000 30.107961
v 23.076541 0.000000 30.107961
v 22.732098 55.000000 30.151315
v 22.732098 0.000000 30.151315
v 22.386757 55.000000 30.186817
v 22.386757 0.000000 30.186817
v 22.040697 55.000000 30.214449
v 22.040697 0.000000 30.214449
v 21.694098 55.000000 30.234196
v 21.694098 0.000000 30.234196
v 21.347139 55.000000 30.246048
v 21.347139 0.000000 30.246048
usemtl korekcija2Material0
f 1 2 3
f 3 4 1
f 5 2 1
f 6 5 7
f 8 6 9
f 10 8 11
f 12 10 13
f 14 12 15
f 16 14 17
f 18 16 19
f 20 18 21
f 22 20 23
f 24 22 25
f 26 24 27
f 28 26 29
f 30 28 31
f 32 30 33
f 34 32 35
f 36 34 37
f 38 36 39
f 40 38 41
f 42 40 43
f 44 42 45
f 46 44 47
f 48 46 49
f 50 48 51
f 52 50 53
f 54 52 55
f 56 54 57
f 58 56 59
f 60 58 61
f 62 60 63
f 64 62 65
f 66 64 67
f 68 66 69
f 70 68 71
f 72 70 73
f 74 72 75
f 76 74 77
f 78 76 79
f 80 78 81
f 82 80 83
f 84 82 85
f 86 84 87
f 88 86 89
f 90 88 91
f 92 90 93
f 94 92 95
f 96 94 97
f 98 96 99
f 100 98 101
f 102 100 103
f 104 102 105
f 106 104 107
f 108 106 109
f 110 108 111
f 112 110 113
f 114 112 115
f 116 114 117
f 118 116 119
f 120 118 121
f 122 120 123
f 124 122 125
f 126 124 127
f 128 126 129
f 130 128 131
f 132 130 133
f 134 132 135
f 136 134 137
f 138 136 139
f 140 138 141
f 142 140 143
f 144 142 145
f 146 144 147
f 148 146 149
f 150 148 151
f 152 150 153
f 154 152 155
f 156 154 157
f 158 156 159
f 160 158 161
f 162 160 163
f 164 162 165
f 166 164 167
f 168 166 169
f 170 168 171
f 172 170 173
f 174 172 175
f 176 174 177
f 178 176 179
f 180 178 181
f 182 180 183
f 184 182 185
f 186 184 187
f 188 186 189
f 190 188 191
f 192 190 193
f 194 192 195
f 196 194 197
f 198 196 199
f 200 198 201
f 202 200 203
f 204 202 205
f 206 204 207
f 208 206 209
f 210 208 211
f 212 210 213
f 214 212 215
f 216 214 217
f 218 216 219
f 220 218 221
f 222 220 223
f 224 222 225
f 226 224 227
f 228 226 229
f 230 228 231
f 232 230 233
f 234 232 235
f 236 234 237
f 238 236 239
f 240 238 241
f 242 240 243
f 244 242 245
f 246 244 247
f 248 246 249
f 250 248 251
f 252 250 253
f 254 252 255
f 256 254 257
f 258 256 259
f 260 258 261
f 262 260 263
f 264 262 265
f 266 264 267
f 268 266 269
f 270 268 271
f 272 270 273
f 273 274 272
f 271 273 270
f 269 271 268
f 267 269 266
f 265 267 264
f 263 265 262
f 261 263 260
f 259 261 258
f 257 259 256
f 255 257 254
f 253 255 252
f 251 253 250
f 249 251 248
f 247 249 246
f 245 247 244
f 243 245 242
f 241 243 240
f 239 241 238
f 237 239 236
f 235 237 234
f 233 235 232
f 231 233 230
f 229 231 228
f 227 229 226
f 225 227 224
f 223 225 222
f 221 223 220
f 219 221 218
f 217 219 216
f 215 217 214
f 213 215 212
f 211 213 210
f 209 211 208
f 207 209 206
f 205 207 204
f 203 205 202
f 201 203 200
f 199 201 198
f 197 199 196
f 195 197 194
f 193 195 192
f 191 193 190
f 189 191 188
f 187 189 186
f 185 187 184
f 183 185 182
f 181 183 180
f 179 181 178
f 177 179 176
f 175 177 174
f 173 175 172
f 171 173 170
f 169 171 168
f 167 169 166
f 165 167 164
f 163 165 162
f 161 163 160
f 159 161 158
f 157 159 156
f 155 157 154
f 153 155 152
f 151 153 150
f 149 151 148
f 147 149 146
f 145 147 144
f 143 145 142
f 141 143 140
f 139 141 138
f 137 139 136
f 135 137 134
f 133 135 132
f 131 133 130
f 129 131 128
f 127 129 126
f 125 127 124
f 123 125 122
f 121 123 120
f 119 121 118
f 117 119 116
f 115 117 114
f 113 115 112
f 111 113 110
f 109 111 108
f 107 109 106
f 105 107 104
f 103 105 102
f 101 103 100
f 99 101 98
f 97 99 96
f 95 97 94
f 93 95 92
f 91 93 90
f 89 91 88
f 87 89 86
f 85 87 84
f 83 85 82
f 81 83 80
f 79 81 78
f 77 79 76
f 75 77 74
f 73 75 72
f 71 73 70
f 69 71 68
f 67 69 66
f 65 67 64
f 63 65 62
f 61 63 60
f 59 61 58
f 57 59 56
f 55 57 54
f 53 55 52
f 51 53 50
f 49 51 48
f 47 49 46
f 45 47 44
f 43 45 42
f 41 43 40
f 39 41 38
f 37 39 36
f 35 37 34
f 33 35 32
f 31 33 30
f 29 31 28
f 27 29 26
f 25 27 24
f 23 25 22
f 21 23 20
f 19 21 18
f 17 19 16
f 15 17 14
f 13 15 12
f 11 13 10
f 9 11 8
f 7 9 6
f 1 7 5
f 275 276 272
f 272 274 275
f 276 275 277
f 278 277 279
f 280 279 281
f 282 281 283
f 284 283 285
f 286 285 287
f 288 287 289
f 290 289 291
f 292 291 293
f 294 293 295
f 296 295 297
f 298 297 299
f 300 299 301
f 302 301 303
f 304 303 305
f 306 305 307
f 308 307 309
f 310 309 311
f 312 311 313
f 314 313 315
f 316 315 317
f 318 317 319
f 320 319 321
f 322 321 323
f 324 323 325
f 326 325 327
f 328 327 329
f 330 329 331
f 332 331 333
f 334 333 335
f 336 335 337
f 338 337 339
f 340 339 341
f 342 341 343
f 344 343 345
f 346 345 347
f 348 347 349
f 350 349 351
f 352 351 353
f 354 353 355
f 356 355 357
f 358 357 359
f 360 359 361
f 362 361 363
f 364 363 365
f 366 365 367
f 368 367 369
f 370 369 371
f 372 371 373
f 374 373 375
f 376 375 377
f 378 377 379
f 380 379 381
f 382 381 383
f 384 383 385
f 386 385 387
f 388 387 389
f 390 389 391
f 392 391 393
f 394 393 395
f 396 395 397
f 398 397 399
f 400 399 401
f 402 401 403
f 404 403 405
f 406 405 407
f 408 407 409
f 410 409 411
f 412 411 413
f 414 413 415
f 416 415 417
f 418 417 419
f 420 419 421
f 422 421 423
f 424 423 425
f 426 425 427
f 428 427 429
f 430 429 431
f 432 431 433
f 434 433 435
f 436 435 437
f 438 437 439
f 440 439 441
f 442 441 443
f 444 443 445
f 446 445 447
f 448 447 449
f 450 449 451
f 452 451 453
f 454 453 455
f 456 455 457
f 458 457 459
f 460 459 461
f 462 461 463
f 464 463 465
f 466 465 467
f 468 467 469
f 470 469 471
f 472 471 473
f 474 473 475
f 476 475 477
f 478 477 479
f 480 479 481
f 482 481 483
f 484 483 485
f 486 485 487
f 488 487 489
f 490 489 491
f 492 491 493
f 494 493 495
f 496 495 497
f 498 497 499
f 500 499 501
f 502 501 503
f 504 503 505
f 506 505 507
f 508 507 509
f 510 509 511
f 512 511 513
f 514 513 515
f 516 515 517
f 518 517 519
f 520 519 521
f 522 521 523
f 524 523 525
f 526 525 527
f 528 527 529
f 530 529 531
f 532 531 533
f 534 533 535
f 536 535 537
f 538 537 539
f 540 539 541
f 542 541 543
f 544 543 545
f 546 545 547
f 548 547 549
f 550 549 4
f 4 3 550
f 549 550 548
f 547 548 546
f 545 546 544
f 543 544 542
f 541 542 540
f 539 540 538
f 537 538 536
f 535 536 534
f 533 534 532
f 531 532 530
f 529 530 528
f 527 528 526
f 525 526 524
f 523 524 522
f 521 522 520
f 519 520 518
f 517 518 516
f 515 516 514
f 513 514 512
f 511 512 510
f 509 510 508
f 507 508 506
f 505 506 504
f 503 504 502
f 501 502 500
f 499 500 498
f 497 498 496
f 495 496 494
f 493 494 492
f 491 492 490
f 489 490 488
f 487 488 486
f 485 486 484
f 483 484 482
f 481 482 480
f 479 480 478
f 477 478 476
f 475 476 474
f 473 474 472
f 471 472 470
f 469 470 468
f 467 468 466
f 465 466 464
f 463 464 462
f 461 462 460
f 459 460 458
f 457 458 456
f 455 456 454
f 453 454 452
f 451 452 450
f 449 450 448
f 447 448 446
f 445 446 444
f 443 444 442
f 441 442 440
f 439 440 438
f 437 438 436
f 435 436 434
f 433 434 432
f 431 432 430
f 429 430 428
f 427 428 426
f 425 426 424
f 423 424 422
f 421 422 420
f 419 420 418
f 417 418 416
f 415 416 414
f 413 414 412
f 411 412 410
f 409 410 408
f 407 408 406
f 405 406 404
f 403 404 402
f 401 402 400
f 399 400 398
f 397 398 396
f 395 396 394
f 393 394 392
f 391 392 390
f 389 390 388
f 387 388 386
f 385 386 384
f 383 384 382
f 381 382 380
f 379 380 378
f 377 378 376
f 375 376 374
f 373 374 372
f 371 372 370
f 369 370 368
f 367 368 366
f 365 366 364
f 363 364 362
f 361 362 360
f 359 360 358
f 357 358 356
f 355 356 354
f 353 354 352
f 351 352 350
f 349 350 348
f 347 348 346
f 345 346 344
f 343 344 342
f 341 342 340
f 339 340 338
f 337 338 336
f 335 336 334
f 333 334 332
f 331 332 330
f 329 330 328
f 327 328 326
f 325 326 324
f 323 324 322
f 321 322 320
f 319 320 318
f 317 318 316
f 315 316 314
f 313 314 312
f 311 312 310
f 309 310 308
f 307 308 306
f 305 306 304
f 303 304 302
f 301 302 300
f 299 300 298
f 297 298 296
f 295 296 294
f 293 294 292
f 291 292 290
f 289 290 288
f 287 288 286
f 285 286 284
f 283 284 282
f 281 282 280
f 279 280 278
f 277 278 276
f 321 231 229
f 325 227 225
f 323 229 227
f 229 323 321
f 319 317 233
f 505 503 51
f 343 209 207
f 341 211 209
f 227 325 323
f 233 231 319
f 315 313 237
f 313 311 239
f 301 299 251
f 299 297 253
f 295 293 257
f 293 291 259
f 291 289 261
f 289 287 263
f 507 49 47
f 49 507 505
f 501 499 55
f 499 497 57
f 449 105 103
f 447 107 105
f 441 113 111
f 439 115 113
f 209 343 341
f 339 213 211
f 335 217 215
f 333 219 217
f 321 319 231
f 317 315 235
f 239 237 313
f 311 309 241
f 253 251 299
f 297 295 255
f 259 257 293
f 263 261 289
f 511 45 43
f 509 47 45
f 51 49 505
f 503 501 53
f 57 55 499
f 497 495 59
f 495 493 61
f 493 491 63
f 455 99 97
f 453 101 99
f 105 449 447
f 445 109 107
f 443 111 109
f 113 441 439
f 437 117 115
f 435 119 117
f 433 121 119
f 431 123 121
f 429 125 123
f 427 127 125
f 387 385 167
f 385 383 169
f 383 381 171
f 381 379 173
f 345 207 205
f 211 341 339
f 217 335 333
f 331 221 219
f 329 223 221
f 327 225 223
f 235 233 317
f 241 239 311
f 309 307 243
f 307 305 245
f 255 253 297
f 261 259 291
f 285 283 267
f 283 281 269
f 281 279 271
f 279 277 273
f 45 511 509
f 53 51 503
f 59 57 497
f 63 61 493
f 457 97 95
f 99 455 453
f 107 447 445
f 111 443 441
f 117 437 435
f 121 433 431
f 125 429 427
f 425 129 127
f 395 393 159
f 393 391 161
f 391 389 163
f 389 387 165
f 169 167 385
f 173 171 381
f 379 377 175
f 377 375 177
f 371 369 183
f 369 367 185
f 207 345 343
f 337 215 213
f 219 333 331
f 223 329 327
f 237 235 315
f 245 243 307
f 305 303 247
f 303 301 249
f 257 255 295
f 287 285 265
f 269 267 283
f 273 271 279
f 547 9 7
f 545 11 9
f 543 13 11
f 541 15 13
f 529 27 25
f 527 29 27
f 515 41 39
f 513 43 41
f 47 509 507
f 61 59 495
f 469 467 87
f 467 465 89
f 465 463 91
f 463 461 93
f 97 457 455
f 451 103 101
f 109 445 443
f 119 435 433
f 127 427 425
f 423 131 129
f 421 133 131
f 419 135 133
f 399 397 155
f 397 395 157
f 161 159 393
f 165 163 389
f 171 169 383
f 177 175 377
f 373 371 181
f 185 183 369
f 361 191 189
f 359 193 191
f 213 339 337
f 221 331 329
f 243 241 309
f 249 247 303
f 265 263 287
f 271 269 281
f 9 547 545
f 13 543 541
f 27 529 527
f 525 31 29
f 523 33 31
f 521 35 33
f 41 515 513
f 55 53 501
f 491 489 65
f 489 487 67
f 471 469 85
f 89 87 467
f 93 91 463
f 461 459 95
f 101 453 451
f 115 439 437
f 129 425 423
f 133 421 419
f 401 399 153
f 157 155 397
f 163 161 391
f 175 173 379
f 375 373 179
f 183 181 371
f 363 189 187
f 191 361 359
f 353 199 197
f 351 201 199
f 349 203 201
f 347 205 203
f 215 337 335
f 247 245 305
f 267 265 285
f 277 275 274
f 11 545 543
f 539 17 15
f 537 19 17
f 535 21 19
f 533 23 21
f 531 25 23
f 29 527 525
f 33 523 521
f 519 37 35
f 517 39 37
f 43 513 511
f 67 65 489
f 485 483 71
f 483 481 73
f 87 85 469
f 95 93 461
f 103 451 449
f 131 423 421
f 417 137 135
f 415 139 137
f 413 141 139
f 407 405 147
f 405 403 149
f 403 401 151
f 155 153 399
f 167 165 387
f 181 179 373
f 365 187 185
f 189 363 361
f 199 353 351
f 203 349 347
f 225 327 325
f 274 273 277
f 15 541 539
f 19 537 535
f 23 533 531
f 31 525 523
f 37 519 517
f 65 63 491
f 487 485 69
f 73 71 483
f 479 477 77
f 477 475 79
f 475 473 81
f 473 471 83
f 91 89 465
f 123 431 429
f 137 417 415
f 139 415 413
f 411 409 143
f 409 407 145
f 149 147 405
f 153 151 401
f 179 177 375
f 187 365 363
f 357 195 193
f 355 197 195
f 201 351 349
f 251 249 301
f 17 539 537
f 25 531 529
f 39 517 515
f 71 69 485
f 481 479 75
f 79 77 477
f 83 81 473
f 95 459 457
f 413 411 141
f 145 143 409
f 151 149 403
f 185 367 365
f 195 357 355
f 205 347 345
f 549 7 1
f 21 535 533
f 69 67 487
f 77 75 479
f 85 83 471
f 143 141 411
f 159 157 395
f 197 355 353
f 7 549 547
f 75 73 481
f 135 419 417
f 193 359 357
f 35 521 519
f 147 145 407
f 81 79 475
f 1 4 549
f 322 324 226
f 320 228 230
f 228 320 322
f 314 234 236
f 316 232 234
f 318 230 232
f 226 228 322
f 324 326 224
f 326 328 222
f 342 344 206
f 344 346 204
f 290 258 260
f 292 256 258
f 294 254 256
f 296 252 254
f 300 248 250
f 302 246 248
f 312 236 238
f 234 314 316
f 230 318 320
f 222 224 326
f 334 336 214
f 336 338 212
f 340 342 208
f 204 206 344
f 506 46 48
f 280 268 270
f 282 266 268
f 284 264 266
f 286 262 264
f 258 290 292
f 254 294 296
f 298 250 252
f 248 300 302
f 308 240 242
f 310 238 240
f 236 312 314
f 224 226 324
f 328 330 220
f 330 332 218
f 332 334 216
f 212 214 336
f 206 208 342
f 346 348 202
f 382 168 170
f 384 166 168
f 386 164 166
f 388 162 164
f 500 52 54
f 502 50 52
f 48 504 506
f 508 510 44
f 268 280 282
f 264 284 286
f 256 292 294
f 250 298 300
f 304 244 246
f 306 242 244
f 240 308 310
f 232 316 318
f 218 220 330
f 214 216 334
f 338 340 210
f 202 204 346
f 370 180 182
f 372 178 180
f 378 172 174
f 380 170 172
f 168 382 384
f 164 386 388
f 390 160 162
f 392 158 160
f 394 156 158
f 396 154 156
f 440 442 110
f 442 444 108
f 448 450 102
f 450 452 100
f 494 58 60
f 496 56 58
f 498 54 56
f 52 500 502
f 504 48 50
f 44 46 508
f 510 512 42
f 512 514 40
f 278 270 272
f 266 282 284
f 288 260 262
f 252 296 298
f 244 304 306
f 238 310 312
f 216 218 332
f 208 210 340
f 360 362 188
f 362 364 186
f 180 370 372
f 374 176 178
f 172 378 380
f 166 384 386
f 160 390 392
f 156 394 396
f 398 152 154
f 400 150 152
f 428 430 122
f 430 432 120
f 432 434 118
f 434 436 116
f 436 438 114
f 438 440 112
f 108 110 442
f 444 446 106
f 446 448 104
f 100 102 450
f 454 456 96
f 456 458 94
f 58 494 496
f 54 498 500
f 506 508 46
f 40 42 512
f 270 278 280
f 260 288 290
f 242 306 308
f 210 212 338
f 348 350 200
f 350 352 198
f 352 354 196
f 354 356 194
f 186 188 362
f 364 366 184
f 178 372 374
f 376 174 176
f 170 380 382
f 158 392 394
f 152 398 400
f 402 148 150
f 426 428 124
f 120 122 430
f 116 118 434
f 112 114 438
f 106 108 444
f 102 104 448
f 94 96 456
f 458 460 92
f 56 496 498
f 42 44 510
f 514 516 38
f 516 518 36
f 528 530 24
f 530 532 22
f 542 544 10
f 544 546 8
f 546 548 6
f 548 550 5
f 262 286 288
f 220 222 328
f 198 200 350
f 194 196 354
f 184 186 364
f 366 368 182
f 176 374 376
f 162 388 390
f 150 400 402
f 404 146 148
f 406 144 146
f 408 142 144
f 420 422 130
f 422 424 128
f 424 426 126
f 122 124 428
f 114 116 436
f 104 106 446
f 452 454 98
f 92 94 458
f 464 88 90
f 466 86 88
f 468 84 86
f 470 82 84
f 490 62 64
f 492 60 62
f 50 502 504
f 36 38 516
f 522 524 30
f 524 526 28
f 526 528 26
f 22 24 530
f 8 10 544
f 5 6 548
f 246 302 304
f 196 198 352
f 356 358 192
f 358 360 190
f 182 184 366
f 174 376 378
f 148 402 404
f 144 406 408
f 410 140 142
f 412 138 140
f 414 416 136
f 128 130 422
f 124 126 426
f 110 112 440
f 96 98 454
f 462 90 92
f 88 464 466
f 84 468 470
f 472 80 82
f 484 68 70
f 486 66 68
f 62 490 492
f 38 40 514
f 518 520 34
f 520 522 32
f 28 30 524
f 24 26 528
f 532 534 20
f 534 536 18
f 536 538 16
f 538 540 14
f 540 542 12
f 6 8 546
f 200 202 348
f 190 192 358
f 182 368 370
f 146 404 406
f 140 410 412
f 138 412 414
f 416 418 134
f 418 420 132
f 126 128 424
f 98 100 452
f 90 462 464
f 82 470 472
f 478 74 76
f 480 72 74
f 68 484 486
f 488 64 66
f 60 492 494
f 32 34 520
f 26 28 526
f 18 20 534
f 14 16 538
f 10 12 542
f 192 194 356
f 154 396 398
f 136 138 414
f 132 134 418
f 118 120 432
f 86 466 468
f 474 78 80
f 476 76 78
f 74 478 480
f 482 70 72
f 66 486 488
f 34 36 518
f 20 22 532
f 12 14 540
f 188 190 360
f 134 136 416
f 92 460 462
f 78 474 476
f 72 480 482
f 64 488 490
f 16 18 536
f 550 3 2
f 142 408 410
f 80 472 474
f 70 482 484
f 2 5 550
f 130 132 420
f 30 32 522
f 76 476 478
f 272 276 278
