# 
# Wavefront OBJ file
# Created with Kaydara FBX
# 
mtllib nosac_motora.mtl

g nosac_motora
v -17.753977 -47.660725 0.000000
v -17.750000 -47.500000 0.000000
v -17.750000 -47.500000 -15.000000
v -17.765897 -47.821056 0.000000
v -17.753977 -47.660725 -15.000000
v -17.785731 -47.980601 0.000000
v -17.765897 -47.821056 -15.000000
v -17.813432 -48.138971 0.000000
v -17.785731 -47.980601 -15.000000
v -17.848930 -48.295777 0.000000
v -17.813432 -48.138971 -15.000000
v -17.892140 -48.450635 0.000000
v -17.848930 -48.295777 -15.000000
v -17.942955 -48.603167 0.000000
v -17.892140 -48.450635 -15.000000
v -18.001252 -48.753000 0.000000
v -17.942955 -48.603167 -15.000000
v -18.066886 -48.899766 0.000000
v -18.001252 -48.753000 -15.000000
v -18.139699 -49.043106 0.000000
v -18.066886 -48.899766 -15.000000
v -18.219511 -49.182671 0.000000
v -18.139699 -49.043106 -15.000000
v -18.306128 -49.318117 0.000000
v -18.219511 -49.182671 -15.000000
v -18.399336 -49.449115 0.000000
v -18.306128 -49.318117 -15.000000
v -18.498909 -49.575342 0.000000
v -18.399336 -49.449115 -15.000000
v -18.604603 -49.696491 0.000000
v -18.498909 -49.575342 -15.000000
v -18.716159 -49.812265 0.000000
v -18.604603 -49.696491 -15.000000
v -18.833303 -49.922380 0.000000
v -18.716159 -49.812265 -15.000000
v -18.955750 -50.026567 0.000000
v -18.833303 -49.922380 -15.000000
v -19.083200 -50.124572 0.000000
v -18.955750 -50.026567 -15.000000
v -19.215340 -50.216153 0.000000
v -19.083200 -50.124572 -15.000000
v -19.351847 -50.301088 0.000000
v -19.215340 -50.216153 -15.000000
v -19.492388 -50.379168 0.000000
v -19.351847 -50.301088 -15.000000
v -19.636619 -50.450202 0.000000
v -19.492388 -50.379168 -15.000000
v -19.784185 -50.514016 0.000000
v -19.636619 -50.450202 -15.000000
v -19.934727 -50.570455 0.000000
v -19.784185 -50.514016 -15.000000
v -20.087876 -50.619380 0.000000
v -19.934727 -50.570455 -15.000000
v -20.243257 -50.660671 0.000000
v -20.087876 -50.619380 -15.000000
v -20.400490 -50.694227 0.000000
v -20.243257 -50.660671 -15.000000
v -20.559190 -50.719967 0.000000
v -20.400490 -50.694227 -15.000000
v -20.718969 -50.737827 0.000000
v -20.559190 -50.719967 -15.000000
v -20.879435 -50.747763 0.000000
v -20.718969 -50.737827 -15.000000
v -21.040197 -50.749751 -15.000000
v -21.040197 -50.749751 0.000000
v -21.000000 -50.750000 0.000000
v -20.879435 -50.747763 -15.000000
v -21.200860 -50.743787 0.000000
v -21.361031 -50.729885 0.000000
v -21.200860 -50.743787 -15.000000
v -21.520319 -50.708079 0.000000
v -21.361031 -50.729885 -15.000000
v -21.678334 -50.678421 0.000000
v -21.520319 -50.708079 -15.000000
v -21.834689 -50.640986 0.000000
v -21.678334 -50.678421 -15.000000
v -21.989001 -50.595865 0.000000
v -21.834689 -50.640986 -15.000000
v -22.140893 -50.543167 0.000000
v -21.989001 -50.595865 -15.000000
v -22.289993 -50.483022 0.000000
v -22.140893 -50.543167 -15.000000
v -22.435936 -50.415577 0.000000
v -22.289993 -50.483022 -15.000000
v -22.578365 -50.340997 0.000000
v -22.435936 -50.415577 -15.000000
v -22.716932 -50.259465 0.000000
v -22.578365 -50.340997 -15.000000
v -22.851297 -50.171180 0.000000
v -22.716932 -50.259465 -15.000000
v -22.981131 -50.076358 0.000000
v -22.851297 -50.171180 -15.000000
v -23.106118 -49.975231 0.000000
v -22.981131 -50.076358 -15.000000
v -23.225950 -49.868047 0.000000
v -23.106118 -49.975231 -15.000000
v -23.340335 -49.755068 0.000000
v -23.225950 -49.868047 -15.000000
v -23.448993 -49.636571 0.000000
v -23.340335 -49.755068 -15.000000
v -23.551658 -49.512844 0.000000
v -23.448993 -49.636571 -15.000000
v -23.648078 -49.384193 0.000000
v -23.551658 -49.512844 -15.000000
v -23.738018 -49.250930 0.000000
v -23.648078 -49.384193 -15.000000
v -23.821258 -49.113382 0.000000
v -23.738018 -49.250930 -15.000000
v -23.897594 -48.971886 0.000000
v -23.821258 -49.113382 -15.000000
v -23.966839 -48.826789 0.000000
v -23.897594 -48.971886 -15.000000
v -24.028823 -48.678444 0.000000
v -23.966839 -48.826789 -15.000000
v -24.083396 -48.527215 0.000000
v -24.028823 -48.678444 -15.000000
v -24.130422 -48.373473 0.000000
v -24.083396 -48.527215 -15.000000
v -24.169789 -48.217593 0.000000
v -24.130422 -48.373473 -15.000000
v -24.201398 -48.059958 0.000000
v -24.169789 -48.217593 -15.000000
v -24.225173 -47.900951 0.000000
v -24.201398 -48.059958 -15.000000
v -24.241055 -47.740964 0.000000
v -24.225173 -47.900951 -15.000000
v -24.249006 -47.580387 0.000000
v -24.241055 -47.740964 -15.000000
v -24.249006 -47.419613 0.000000
v -24.249006 -47.580387 -15.000000
v -24.241055 -47.259036 0.000000
v -24.249006 -47.419613 -15.000000
v -24.225173 -47.099049 0.000000
v -24.241055 -47.259036 -15.000000
v -24.201398 -46.940042 0.000000
v -24.225173 -47.099049 -15.000000
v -24.169789 -46.782407 0.000000
v -24.201398 -46.940042 -15.000000
v -24.130422 -46.626527 0.000000
v -24.169789 -46.782407 -15.000000
v -24.083396 -46.472785 0.000000
v -24.130422 -46.626527 -15.000000
v -24.028823 -46.321556 0.000000
v -24.083396 -46.472785 -15.000000
v -23.966839 -46.173211 0.000000
v -24.028823 -46.321556 -15.000000
v -23.897594 -46.028114 0.000000
v -23.966839 -46.173211 -15.000000
v -23.821258 -45.886618 0.000000
v -23.897594 -46.028114 -15.000000
v -23.738018 -45.749070 0.000000
v -23.821258 -45.886618 -15.000000
v -23.648078 -45.615807 0.000000
v -23.738018 -45.749070 -15.000000
v -23.551658 -45.487156 0.000000
v -23.648078 -45.615807 -15.000000
v -23.448993 -45.363429 0.000000
v -23.551658 -45.487156 -15.000000
v -23.340335 -45.244932 0.000000
v -23.448993 -45.363429 -15.000000
v -23.225950 -45.131953 0.000000
v -23.340335 -45.244932 -15.000000
v -23.106118 -45.024769 0.000000
v -23.225950 -45.131953 -15.000000
v -22.981131 -44.923642 0.000000
v -23.106118 -45.024769 -15.000000
v -22.851297 -44.828820 0.000000
v -22.981131 -44.923642 -15.000000
v -22.716932 -44.740535 0.000000
v -22.851297 -44.828820 -15.000000
v -22.578365 -44.659003 0.000000
v -22.716932 -44.740535 -15.000000
v -22.435936 -44.584423 0.000000
v -22.578365 -44.659003 -15.000000
v -22.289993 -44.516978 0.000000
v -22.435936 -44.584423 -15.000000
v -22.140893 -44.456833 0.000000
v -22.289993 -44.516978 -15.000000
v -21.989001 -44.404135 0.000000
v -22.140893 -44.456833 -15.000000
v -21.834689 -44.359014 0.000000
v -21.989001 -44.404135 -15.000000
v -21.678334 -44.321579 0.000000
v -21.834689 -44.359014 -15.000000
v -21.520319 -44.291921 0.000000
v -21.678334 -44.321579 -15.000000
v -21.361031 -44.270115 0.000000
v -21.520319 -44.291921 -15.000000
v -21.200860 -44.256213 0.000000
v -21.361031 -44.270115 -15.000000
v -21.040197 -44.250249 0.000000
v -21.200860 -44.256213 -15.000000
v -20.879435 -44.252237 0.000000
v -21.040197 -44.250249 -15.000000
v -20.718969 -44.262173 0.000000
v -20.879435 -44.252237 -15.000000
v -20.559190 -44.280033 0.000000
v -20.718969 -44.262173 -15.000000
v -20.400490 -44.305773 0.000000
v -20.559190 -44.280033 -15.000000
v -20.243257 -44.339329 0.000000
v -20.400490 -44.305773 -15.000000
v -20.087876 -44.380620 0.000000
v -20.243257 -44.339329 -15.000000
v -19.934727 -44.429545 0.000000
v -20.087876 -44.380620 -15.000000
v -19.784185 -44.485984 0.000000
v -19.934727 -44.429545 -15.000000
v -19.636619 -44.549798 0.000000
v -19.784185 -44.485984 -15.000000
v -19.492388 -44.620832 0.000000
v -19.636619 -44.549798 -15.000000
v -19.351847 -44.698912 0.000000
v -19.492388 -44.620832 -15.000000
v -19.215340 -44.783847 0.000000
v -19.351847 -44.698912 -15.000000
v -19.083200 -44.875428 0.000000
v -19.215340 -44.783847 -15.000000
v -18.955750 -44.973433 0.000000
v -19.083200 -44.875428 -15.000000
v -18.833303 -45.077620 0.000000
v -18.955750 -44.973433 -15.000000
v -18.716159 -45.187735 0.000000
v -18.833303 -45.077620 -15.000000
v -18.604603 -45.303509 0.000000
v -18.716159 -45.187735 -15.000000
v -18.498909 -45.424658 0.000000
v -18.604603 -45.303509 -15.000000
v -18.399336 -45.550885 0.000000
v -18.498909 -45.424658 -15.000000
v -18.306128 -45.681883 0.000000
v -18.399336 -45.550885 -15.000000
v -18.219511 -45.817329 0.000000
v -18.306128 -45.681883 -15.000000
v -18.139699 -45.956894 0.000000
v -18.219511 -45.817329 -15.000000
v -18.066886 -46.100234 0.000000
v -18.139699 -45.956894 -15.000000
v -18.001252 -46.247000 0.000000
v -18.066886 -46.100234 -15.000000
v -17.942955 -46.396833 0.000000
v -18.001252 -46.247000 -15.000000
v -17.892140 -46.549365 0.000000
v -17.942955 -46.396833 -15.000000
v -17.848930 -46.704223 0.000000
v -17.892140 -46.549365 -15.000000
v -17.813432 -46.861029 0.000000
v -17.848930 -46.704223 -15.000000
v -17.785731 -47.019399 0.000000
v -17.813432 -46.861029 -15.000000
v -17.765897 -47.178944 0.000000
v -17.785731 -47.019399 -15.000000
v -17.753977 -47.339275 0.000000
v -17.765897 -47.178944 -15.000000
v -17.753977 -47.339275 -15.000000
v 17.798602 -46.940042 -15.000000
v 17.774827 -47.099049 -15.000000
v 17.758945 -47.259036 -15.000000
v 17.971177 -46.321556 -15.000000
v 17.750994 -47.419613 -15.000000
v 17.869578 -46.626527 -15.000000
v 17.830211 -46.782407 -15.000000
v 17.750994 47.580387 -15.000000
v -17.753977 47.660725 -15.000000
v -17.765897 47.821056 -15.000000
v 17.750994 47.419613 -15.000000
v -17.753977 47.339275 -15.000000
v -17.750000 47.500000 -15.000000
v -22.851297 44.828820 -15.000000
v 18.448342 -45.487156 -15.000000
v 18.351922 -45.615807 -15.000000
v -22.435936 44.584423 -15.000000
v 22.916800 -44.875428 -15.000000
v 22.784660 -44.783847 -15.000000
v 32.500000 -60.000000 -15.000000
v 23.860301 -45.956894 -15.000000
v -17.785731 47.980601 -15.000000
v -17.813432 48.138971 -15.000000
v -17.813432 46.861029 -15.000000
v -17.785731 47.019399 -15.000000
v 17.916604 -46.472785 -15.000000
v 18.178742 -45.886618 -15.000000
v 18.102406 -46.028114 -15.000000
v 18.261982 -45.749070 -15.000000
v 19.018869 -44.923642 -15.000000
v 18.893882 -45.024769 -15.000000
v 23.044250 -44.973433 -15.000000
v 22.648153 -44.698912 -15.000000
v 23.780489 -45.817329 -15.000000
v 24.234103 -47.178944 -15.000000
v 24.214269 -47.019399 -15.000000
v 17.750994 -47.580387 -15.000000
v 17.758945 47.259036 -15.000000
v -17.765897 47.178944 -15.000000
v -32.500000 -60.000000 -15.000000
v 18.033161 -46.173211 -15.000000
v 18.774050 -45.131953 -15.000000
v 18.659665 -45.244932 -15.000000
v 23.166697 -45.077620 -15.000000
v 23.395397 -45.303509 -15.000000
v 23.283841 -45.187735 -15.000000
v 23.600664 -45.550885 -15.000000
v 23.501091 -45.424658 -15.000000
v 23.693872 -45.681883 -15.000000
v 24.151070 -46.704223 -15.000000
v 24.107860 -46.549365 -15.000000
v 24.246023 -47.339275 -15.000000
v 24.246023 -47.660725 -15.000000
v 24.250000 -47.500000 -15.000000
v 24.186568 -48.138971 -15.000000
v 24.214269 -47.980601 -15.000000
v 17.798602 48.059958 -15.000000
v 17.774827 47.900951 -15.000000
v -17.892140 48.450635 -15.000000
v 20.638969 44.270115 -15.000000
v 20.799140 44.256213 -15.000000
v 20.165311 44.359014 -15.000000
v 20.321666 44.321579 -15.000000
v 17.798602 46.940042 -15.000000
v 17.830211 46.782407 -15.000000
v 17.774827 47.099049 -15.000000
v -21.834689 44.359014 -15.000000
v -21.678334 44.321579 -15.000000
v -22.289993 44.516978 -15.000000
v -22.140893 44.456833 -15.000000
v 18.551007 -45.363429 -15.000000
v 19.564064 -44.584423 -15.000000
v 19.421635 -44.659003 -15.000000
v 21.120565 -44.252237 -15.000000
v 20.959803 -44.250249 -15.000000
v 21.440810 -44.280033 -15.000000
v 21.281031 -44.262173 -15.000000
v 22.215815 -44.485984 -15.000000
v 22.065273 -44.429545 -15.000000
v 22.507612 -44.620832 -15.000000
v 22.363381 -44.549798 -15.000000
v 23.998748 -46.247000 -15.000000
v 23.933114 -46.100234 -15.000000
v 24.057045 -46.396833 -15.000000
v 24.234103 -47.821056 -15.000000
v 17.758945 -47.740964 -15.000000
v 17.758945 47.740964 -15.000000
v -17.942955 48.603167 -15.000000
v 20.959803 44.250249 -15.000000
v 21.120565 44.252237 -15.000000
v 20.010999 44.404135 -15.000000
v 20.479681 44.291921 -15.000000
v -21.361031 44.270115 -15.000000
v -21.200860 44.256213 -15.000000
v -21.989001 44.404135 -15.000000
v -21.520319 44.291921 -15.000000
v 19.283068 -44.740535 -15.000000
v 19.148703 -44.828820 -15.000000
v 20.010999 -44.404135 -15.000000
v 19.859107 -44.456833 -15.000000
v 20.165311 -44.359014 -15.000000
v -22.716932 44.740535 -15.000000
v -22.578365 44.659003 -15.000000
v 20.479681 -44.291921 -15.000000
v 20.321666 -44.321579 -15.000000
v 20.799140 -44.256213 -15.000000
v 21.756743 -44.339329 -15.000000
v 21.599510 -44.305773 -15.000000
v 21.912124 -44.380620 -15.000000
v -32.500000 60.000000 -15.000000
v -24.201398 46.940042 -15.000000
v -24.169789 46.782407 -15.000000
v -24.249006 47.419613 -15.000000
v -24.241055 47.259036 -15.000000
v 17.798602 -48.059958 -15.000000
v 17.830211 -48.217593 -15.000000
v 17.774827 -47.900951 -15.000000
v 17.971177 48.678444 -15.000000
v -19.083200 50.124572 -15.000000
v -19.215340 50.216153 -15.000000
v -18.833303 49.922380 -15.000000
v -18.955750 50.026567 -15.000000
v -18.139699 49.043106 -15.000000
v -18.219511 49.182671 -15.000000
v -18.001252 48.753000 -15.000000
v 17.869578 48.373473 -15.000000
v 17.830211 48.217593 -15.000000
v 21.281031 44.262173 -15.000000
v 19.859107 44.456833 -15.000000
v 17.869578 46.626527 -15.000000
v 17.916604 46.472785 -15.000000
v -17.848930 48.295777 -15.000000
v -20.879435 44.252237 -15.000000
v -20.718969 44.262173 -15.000000
v -21.040197 44.250249 -15.000000
v 19.710007 -44.516978 -15.000000
v 20.638969 -44.270115 -15.000000
v 24.186568 -46.861029 -15.000000
v 23.860301 -49.043106 -15.000000
v 23.933114 -48.899766 -15.000000
v 23.600664 -49.449115 -15.000000
v 23.693872 -49.318117 -15.000000
v -24.130422 46.626527 -15.000000
v -24.225173 47.099049 -15.000000
v 20.638969 -50.729885 -15.000000
v 20.799140 -50.743787 -15.000000
v 20.321666 -50.678421 -15.000000
v 20.479681 -50.708079 -15.000000
v 20.010999 -50.595865 -15.000000
v 20.165311 -50.640986 -15.000000
v 19.710007 -50.483022 -15.000000
v 19.859107 -50.543167 -15.000000
v 19.564064 -50.415577 -15.000000
v -19.351847 50.301088 -15.000000
v -18.604603 49.696491 -15.000000
v -18.716159 49.812265 -15.000000
v -18.399336 49.449115 -15.000000
v -18.498909 49.575342 -15.000000
v -18.306128 49.318117 -15.000000
v -18.066886 48.899766 -15.000000
v 32.500000 60.000000 -15.000000
v 22.916800 50.124572 -15.000000
v 22.784660 50.216153 -15.000000
v 21.756743 44.339329 -15.000000
v 21.912124 44.380620 -15.000000
v 21.440810 44.280033 -15.000000
v 21.599510 44.305773 -15.000000
v 18.774050 45.131953 -15.000000
v 18.893882 45.024769 -15.000000
v 18.551007 45.363429 -15.000000
v 18.659665 45.244932 -15.000000
v 18.102406 46.028114 -15.000000
v 18.178742 45.886618 -15.000000
v 17.971177 46.321556 -15.000000
v 18.033161 46.173211 -15.000000
v -18.399336 45.550885 -15.000000
v -18.306128 45.681883 -15.000000
v -20.243257 44.339329 -15.000000
v -20.087876 44.380620 -15.000000
v -20.559190 44.280033 -15.000000
v -20.400490 44.305773 -15.000000
v 24.107860 -48.450635 -15.000000
v 24.151070 -48.295777 -15.000000
v 23.998748 -48.753000 -15.000000
v 23.780489 -49.182671 -15.000000
v 21.120565 -50.747763 -15.000000
v 21.281031 -50.737827 -15.000000
v 20.959803 -50.749751 -15.000000
v 17.869578 -48.373473 -15.000000
v 17.916604 -48.527215 -15.000000
v 17.916604 48.527215 -15.000000
v 18.178742 49.113382 -15.000000
v 18.102406 48.971886 -15.000000
v 18.448342 49.512844 -15.000000
v 18.351922 49.384193 -15.000000
v 23.044250 50.026567 -15.000000
v 23.860301 49.043106 -15.000000
v 23.780489 49.182671 -15.000000
v 24.234103 47.821056 -15.000000
v 24.214269 47.980601 -15.000000
v 22.215815 44.485984 -15.000000
v 22.363381 44.549798 -15.000000
v 22.065273 44.429545 -15.000000
v 18.261982 45.749070 -15.000000
v 18.351922 45.615807 -15.000000
v 19.148703 44.828820 -15.000000
v -18.139699 45.956894 -15.000000
v -18.066886 46.100234 -15.000000
v -18.219511 45.817329 -15.000000
v -19.784185 44.485984 -15.000000
v -19.636619 44.549798 -15.000000
v -19.934727 44.429545 -15.000000
v 24.057045 -48.603167 -15.000000
v -23.448993 45.363429 -15.000000
v -23.340335 45.244932 -15.000000
v -24.083396 46.472785 -15.000000
v -24.249006 47.580387 -15.000000
v 21.756743 -50.660671 -15.000000
v 21.912124 -50.619380 -15.000000
v 21.440810 -50.719967 -15.000000
v 21.599510 -50.694227 -15.000000
v 18.774050 -49.868047 -15.000000
v 18.893882 -49.975231 -15.000000
v 18.551007 -49.636571 -15.000000
v 18.659665 -49.755068 -15.000000
v 18.102406 -48.971886 -15.000000
v 18.178742 -49.113382 -15.000000
v 17.971177 -48.678444 -15.000000
v 18.033161 -48.826789 -15.000000
v -24.225173 47.900951 -15.000000
v -24.241055 47.740964 -15.000000
v -19.492388 50.379168 -15.000000
v -19.636619 50.450202 -15.000000
v 18.033161 48.826789 -15.000000
v 18.261982 49.250930 -15.000000
v 19.018869 50.076358 -15.000000
v 18.893882 49.975231 -15.000000
v 22.215815 50.514016 -15.000000
v 22.065273 50.570455 -15.000000
v 23.166697 49.922380 -15.000000
v 23.395397 49.696491 -15.000000
v 23.283841 49.812265 -15.000000
v 23.600664 49.449115 -15.000000
v 23.501091 49.575342 -15.000000
v 23.693872 49.318117 -15.000000
v 24.151070 48.295777 -15.000000
v 24.107860 48.450635 -15.000000
v 24.246023 47.660725 -15.000000
v 24.246023 47.339275 -15.000000
v 24.250000 47.500000 -15.000000
v 24.186568 46.861029 -15.000000
v 24.214269 47.019399 -15.000000
v 22.507612 44.620832 -15.000000
v 22.648153 44.698912 -15.000000
v 19.283068 44.740535 -15.000000
v 19.421635 44.659003 -15.000000
v 19.018869 44.923642 -15.000000
v 18.448342 45.487156 -15.000000
v -17.942955 46.396833 -15.000000
v -17.892140 46.549365 -15.000000
v -18.001252 46.247000 -15.000000
v -19.492388 44.620832 -15.000000
v -19.351847 44.698912 -15.000000
v -23.225950 45.131953 -15.000000
v -23.106118 45.024769 -15.000000
v -23.648078 45.615807 -15.000000
v -23.551658 45.487156 -15.000000
v -23.821258 45.886618 -15.000000
v -23.738018 45.749070 -15.000000
v -24.028823 46.321556 -15.000000
v -23.966839 46.173211 -15.000000
v 22.215815 -50.514016 -15.000000
v 22.363381 -50.450202 -15.000000
v 18.261982 -49.250930 -15.000000
v 18.351922 -49.384193 -15.000000
v 19.148703 -50.171180 -15.000000
v -24.201398 48.059958 -15.000000
v -24.130422 48.373473 -15.000000
v -24.169789 48.217593 -15.000000
v -23.821258 49.113382 -15.000000
v -23.897594 48.971886 -15.000000
v -23.551658 49.512844 -15.000000
v -23.648078 49.384193 -15.000000
v -21.040197 50.749751 -15.000000
v -21.200860 50.743787 -15.000000
v -19.934727 50.570455 -15.000000
v -20.087876 50.619380 -15.000000
v -19.784185 50.514016 -15.000000
v 18.659665 49.755068 -15.000000
v 18.551007 49.636571 -15.000000
v 18.774050 49.868047 -15.000000
v 19.564064 50.415577 -15.000000
v 19.421635 50.340997 -15.000000
v 20.479681 50.708079 -15.000000
v 20.321666 50.678421 -15.000000
v 20.959803 50.749751 -15.000000
v 20.799140 50.743787 -15.000000
v 21.912124 50.619380 -15.000000
v 22.507612 50.379168 -15.000000
v 22.363381 50.450202 -15.000000
v 23.998748 48.753000 -15.000000
v 23.933114 48.899766 -15.000000
v 24.057045 48.603167 -15.000000
v 24.234103 47.178944 -15.000000
v 22.784660 44.783847 -15.000000
v 19.564064 44.584423 -15.000000
v 19.710007 44.516978 -15.000000
v -17.848930 46.704223 -15.000000
v -19.215340 44.783847 -15.000000
v -22.981131 44.923642 -15.000000
v -23.897594 46.028114 -15.000000
v 22.507612 -50.379168 -15.000000
v 19.018869 -50.076358 -15.000000
v 18.448342 -49.512844 -15.000000
v -24.028823 48.678444 -15.000000
v -24.083396 48.527215 -15.000000
v -23.966839 48.826789 -15.000000
v -23.738018 49.250930 -15.000000
v -22.981131 50.076358 -15.000000
v -23.106118 49.975231 -15.000000
v -21.989001 50.595865 -15.000000
v -22.140893 50.543167 -15.000000
v -21.520319 50.708079 -15.000000
v -21.678334 50.678421 -15.000000
v -20.879435 50.747763 -15.000000
v -20.559190 50.719967 -15.000000
v -20.718969 50.737827 -15.000000
v -20.243257 50.660671 -15.000000
v -20.400490 50.694227 -15.000000
v 19.283068 50.259465 -15.000000
v 19.148703 50.171180 -15.000000
v 20.010999 50.595865 -15.000000
v 19.859107 50.543167 -15.000000
v 20.165311 50.640986 -15.000000
v 21.120565 50.747763 -15.000000
v 21.440810 50.719967 -15.000000
v 21.281031 50.737827 -15.000000
v 21.756743 50.660671 -15.000000
v 21.599510 50.694227 -15.000000
v 23.693872 45.681883 -15.000000
v 23.780489 45.817329 -15.000000
v 23.395397 45.303509 -15.000000
v 23.501091 45.424658 -15.000000
v 23.044250 44.973433 -15.000000
v 23.166697 45.077620 -15.000000
v 22.916800 44.875428 -15.000000
v -18.604603 45.303509 -15.000000
v -18.498909 45.424658 -15.000000
v -18.955750 44.973433 -15.000000
v -18.833303 45.077620 -15.000000
v -19.083200 44.875428 -15.000000
v 23.044250 -50.026567 -15.000000
v 23.166697 -49.922380 -15.000000
v 22.648153 -50.301088 -15.000000
v 22.065273 -50.570455 -15.000000
v 19.283068 -50.259465 -15.000000
v 19.421635 -50.340997 -15.000000
v -23.340335 49.755068 -15.000000
v -23.448993 49.636571 -15.000000
v -23.225950 49.868047 -15.000000
v -22.435936 50.415577 -15.000000
v -22.578365 50.340997 -15.000000
v -22.289993 50.483022 -15.000000
v -21.361031 50.729885 -15.000000
v 19.710007 50.483022 -15.000000
v 20.638969 50.729885 -15.000000
v 24.186568 48.138971 -15.000000
v 23.860301 45.956894 -15.000000
v 23.933114 46.100234 -15.000000
v 23.600664 45.550885 -15.000000
v 23.283841 45.187735 -15.000000
v -18.716159 45.187735 -15.000000
v 23.395397 -49.696491 -15.000000
v 23.501091 -49.575342 -15.000000
v 23.283841 -49.812265 -15.000000
v -22.716932 50.259465 -15.000000
v -21.834689 50.640986 -15.000000
v 22.648153 50.301088 -15.000000
v 24.057045 46.396833 -15.000000
v 24.107860 46.549365 -15.000000
v 23.998748 46.247000 -15.000000
v 22.784660 -50.216153 -15.000000
v 22.916800 -50.124572 -15.000000
v -22.851297 50.171180 -15.000000
v 24.151070 46.704223 -15.000000
v 17.798602 48.059958 0.000000
v -32.500000 60.000000 0.000000
v -20.718969 50.737827 0.000000
v 17.798602 46.940042 0.000000
v 17.774827 47.099049 0.000000
v -20.879435 50.747763 0.000000
v 17.750994 47.580387 0.000000
v 17.758945 47.740964 0.000000
v 17.758945 47.259036 0.000000
v 17.750994 47.419613 0.000000
v 17.869578 46.626527 0.000000
v 17.830211 46.782407 0.000000
v 17.830211 48.217593 0.000000
v 17.774827 47.900951 0.000000
v 17.869578 48.373473 0.000000
v 17.916604 48.527215 0.000000
v -20.559190 50.719967 0.000000
v -24.201398 46.940042 0.000000
v -24.225173 47.099049 0.000000
v 17.971177 46.321556 0.000000
v 17.916604 46.472785 0.000000
v -21.361031 50.729885 0.000000
v -21.200860 50.743787 0.000000
v -24.249006 47.580387 0.000000
v -24.241055 47.740964 0.000000
v -24.241055 47.259036 0.000000
v -24.249006 47.419613 0.000000
v -24.130422 46.626527 0.000000
v -24.169789 46.782407 0.000000
v -32.500000 -60.000000 0.000000
v 17.750994 -47.580387 0.000000
v 18.178742 49.113382 0.000000
v 18.261982 49.250930 0.000000
v 17.971177 48.678444 0.000000
v 18.033161 48.826789 0.000000
v -21.040197 50.749751 0.000000
v -21.834689 50.640986 0.000000
v -21.678334 50.678421 0.000000
v -24.201398 48.059958 0.000000
v -24.169789 48.217593 0.000000
v -24.225173 47.900951 0.000000
v 17.798602 -48.059958 0.000000
v 17.774827 -47.900951 0.000000
v 32.500000 60.000000 0.000000
v 22.648153 50.301088 0.000000
v 22.784660 50.216153 0.000000
v 18.351922 49.384193 0.000000
v 18.448342 49.512844 0.000000
v 18.102406 48.971886 0.000000
v -21.520319 50.708079 0.000000
v -23.738018 49.250930 0.000000
v -23.648078 49.384193 0.000000
v -23.966839 48.826789 0.000000
v -23.897594 48.971886 0.000000
v -20.879435 44.252237 0.000000
v -21.000000 44.250000 0.000000
v -19.934727 44.429545 0.000000
v 17.750994 -47.419613 0.000000
v 17.758945 -47.259036 0.000000
v 17.758945 -47.740964 0.000000
v 17.869578 -48.373473 0.000000
v 17.830211 -48.217593 0.000000
v 23.693872 49.318117 0.000000
v 23.780489 49.182671 0.000000
v 22.916800 50.124572 0.000000
v 19.148703 50.171180 0.000000
v 19.283068 50.259465 0.000000
v 18.659665 49.755068 0.000000
v 18.774050 49.868047 0.000000
v -22.289993 50.483022 0.000000
v -22.140893 50.543167 0.000000
v -22.716932 50.259465 0.000000
v -22.578365 50.340997 0.000000
v -23.225950 49.868047 0.000000
v -23.106118 49.975231 0.000000
v -23.821258 49.113382 0.000000
v -24.028823 48.678444 0.000000
v -24.130422 48.373473 0.000000
v -24.083396 48.527215 0.000000
v 19.148703 44.828820 0.000000
v -19.351847 50.301088 0.000000
v -19.215340 50.216153 0.000000
v -21.520319 44.291921 0.000000
v -21.678334 44.321579 0.000000
v -21.040197 44.250249 0.000000
v -21.200860 44.256213 0.000000
v 17.798602 -46.940042 0.000000
v 17.830211 -46.782407 0.000000
v 17.774827 -47.099049 0.000000
v 24.186568 48.138971 0.000000
v 24.214269 47.980601 0.000000
v 24.057045 48.603167 0.000000
v 24.107860 48.450635 0.000000
v 23.600664 49.449115 0.000000
v 23.395397 49.696491 0.000000
v 23.501091 49.575342 0.000000
v 23.166697 49.922380 0.000000
v 23.283841 49.812265 0.000000
v 23.044250 50.026567 0.000000
v 21.912124 50.619380 0.000000
v 22.065273 50.570455 0.000000
v 19.018869 50.076358 0.000000
v 19.421635 50.340997 0.000000
v 18.893882 49.975231 0.000000
v 18.551007 49.636571 0.000000
v 18.102406 46.028114 0.000000
v 18.033161 46.173211 0.000000
v -22.435936 50.415577 0.000000
v -22.851297 50.171180 0.000000
v -23.340335 49.755068 0.000000
v -23.551658 49.512844 0.000000
v -23.448993 49.636571 0.000000
v -24.028823 46.321556 0.000000
v -24.083396 46.472785 0.000000
v -23.897594 46.028114 0.000000
v -23.966839 46.173211 0.000000
v -18.399336 49.449115 0.000000
v -18.306128 49.318117 0.000000
v -19.083200 50.124572 0.000000
v -18.955750 50.026567 0.000000
v -21.989001 44.404135 0.000000
v -22.140893 44.456833 0.000000
v -21.361031 44.270115 0.000000
v -21.834689 44.359014 0.000000
v -20.718969 44.262173 0.000000
v 32.500000 -60.000000 0.000000
v 21.120565 -50.747763 0.000000
v 21.000000 -50.750000 0.000000
v 24.234103 47.821056 0.000000
v 23.998748 48.753000 0.000000
v 23.860301 49.043106 0.000000
v 23.933114 48.899766 0.000000
v 22.215815 50.514016 0.000000
v 22.363381 50.450202 0.000000
v 21.756743 50.660671 0.000000
v 20.638969 50.729885 0.000000
v 20.799140 50.743787 0.000000
v 20.165311 50.640986 0.000000
v 19.564064 50.415577 0.000000
v -21.989001 50.595865 0.000000
v 19.018869 44.923642 0.000000
v 18.893882 45.024769 0.000000
v -22.981131 50.076358 0.000000
v -23.648078 45.615807 0.000000
v -23.738018 45.749070 0.000000
v -23.225950 45.131953 0.000000
v -23.340335 45.244932 0.000000
v -22.981131 44.923642 0.000000
v -23.106118 45.024769 0.000000
v 19.564064 44.584423 0.000000
v -17.813432 48.138971 0.000000
v -17.785731 47.980601 0.000000
v 19.421635 44.659003 0.000000
v -18.001252 48.753000 0.000000
v -17.942955 48.603167 0.000000
v -18.219511 49.182671 0.000000
v -18.139699 49.043106 0.000000
v -18.604603 49.696491 0.000000
v -18.498909 49.575342 0.000000
v -18.833303 49.922380 0.000000
v -18.716159 49.812265 0.000000
v -20.087876 50.619380 0.000000
v -19.934727 50.570455 0.000000
v -22.289993 44.516978 0.000000
v -22.435936 44.584423 0.000000
v -20.559190 44.280033 0.000000
v 20.799140 -50.743787 0.000000
v 20.959803 -50.749751 0.000000
v 18.178742 -45.886618 0.000000
v 18.261982 -45.749070 0.000000
v 17.971177 -46.321556 0.000000
v 18.033161 -46.173211 0.000000
v 17.869578 -46.626527 0.000000
v 17.916604 -46.472785 0.000000
v 24.246023 47.660725 0.000000
v 21.440810 50.719967 0.000000
v 21.599510 50.694227 0.000000
v 21.120565 50.747763 0.000000
v 21.281031 50.737827 0.000000
v 20.959803 50.749751 0.000000
v 20.321666 50.678421 0.000000
v 19.710007 50.483022 0.000000
v 19.859107 50.543167 0.000000
v 18.351922 45.615807 0.000000
v 18.261982 45.749070 0.000000
v 18.774050 45.131953 0.000000
v 18.659665 45.244932 0.000000
v -23.821258 45.886618 0.000000
v -23.448993 45.363429 0.000000
v -17.765897 47.821056 0.000000
v -17.848930 48.295777 0.000000
v 19.283068 44.740535 0.000000
v -17.892140 48.450635 0.000000
v -18.066886 48.899766 0.000000
v -19.784185 50.514016 0.000000
v -19.636619 50.450202 0.000000
v -20.243257 50.660671 0.000000
v -20.243257 44.339329 0.000000
v -20.400490 44.305773 0.000000
v -20.087876 44.380620 0.000000
v -18.219511 45.817329 0.000000
v -18.306128 45.681883 0.000000
v 20.799140 -44.256213 0.000000
v 24.057045 46.396833 0.000000
v 23.998748 46.247000 0.000000
v 19.148703 -44.828820 0.000000
v 19.283068 -44.740535 0.000000
v 18.659665 -45.244932 0.000000
v 18.774050 -45.131953 0.000000
v 18.351922 -45.615807 0.000000
v 18.448342 -45.487156 0.000000
v 18.102406 -46.028114 0.000000
v 17.971177 -48.678444 0.000000
v 17.916604 -48.527215 0.000000
v 23.600664 45.550885 0.000000
v 24.151070 48.295777 0.000000
v 20.479681 50.708079 0.000000
v 20.010999 50.595865 0.000000
v 18.178742 45.886618 0.000000
v 18.551007 45.363429 0.000000
v 18.448342 45.487156 0.000000
v -23.551658 45.487156 0.000000
v -22.851297 44.828820 0.000000
v -17.753977 47.660725 0.000000
v -19.492388 50.379168 0.000000
v -20.400490 50.694227 0.000000
v -17.750000 47.500000 0.000000
v 20.479681 44.291921 0.000000
v 20.321666 44.321579 0.000000
v -19.492388 44.620832 0.000000
v -19.636619 44.549798 0.000000
v 21.281031 -50.737827 0.000000
v 20.959803 44.250249 0.000000
v 20.799140 44.256213 0.000000
v -18.139699 45.956894 0.000000
v -18.399336 45.550885 0.000000
v 22.648153 -44.698912 0.000000
v 22.784660 -44.783847 0.000000
v 20.638969 -44.270115 0.000000
v 23.933114 46.100234 0.000000
v 20.959803 -44.250249 0.000000
v 19.018869 -44.923642 0.000000
v 19.421635 -44.659003 0.000000
v 18.893882 -45.024769 0.000000
v 18.551007 -45.363429 0.000000
v 19.564064 -44.584423 0.000000
v 22.507612 50.379168 0.000000
v 20.010999 44.404135 0.000000
v 19.859107 44.456833 0.000000
v 20.638969 44.270115 0.000000
v 20.165311 44.359014 0.000000
v -19.351847 44.698912 0.000000
v -19.784185 44.485984 0.000000
v 21.440810 -50.719967 0.000000
v 21.120565 44.252237 0.000000
v 21.000000 44.250000 0.000000
v 23.693872 -45.681883 0.000000
v 23.780489 -45.817329 0.000000
v 22.916800 -44.875428 0.000000
v 23.044250 -44.973433 0.000000
v 23.860301 45.956894 0.000000
v 18.102406 -48.971886 0.000000
v 18.033161 -48.826789 0.000000
v 19.710007 44.516978 0.000000
v -22.578365 44.659003 0.000000
v -19.215340 44.783847 0.000000
v 20.638969 -50.729885 0.000000
v 21.756743 -50.660671 0.000000
v 21.599510 -50.694227 0.000000
v 22.065273 -50.570455 0.000000
v 21.912124 -50.619380 0.000000
v 24.186568 -46.861029 0.000000
v 24.214269 -47.019399 0.000000
v 24.057045 -46.396833 0.000000
v 24.107860 -46.549365 0.000000
v 23.600664 -45.550885 0.000000
v 23.860301 -45.956894 0.000000
v 23.395397 -45.303509 0.000000
v 23.501091 -45.424658 0.000000
v 23.166697 -45.077620 0.000000
v 23.283841 -45.187735 0.000000
v 21.120565 -44.252237 0.000000
v 21.281031 -44.262173 0.000000
v 20.165311 -44.359014 0.000000
v 20.321666 -44.321579 0.000000
v 19.710007 -44.516978 0.000000
v 19.859107 -44.456833 0.000000
v 18.351922 -49.384193 0.000000
v 18.261982 -49.250930 0.000000
v 19.018869 -50.076358 0.000000
v 18.893882 -49.975231 0.000000
v -22.716932 44.740535 0.000000
v -18.716159 45.187735 0.000000
v -18.833303 45.077620 0.000000
v -17.942955 46.396833 0.000000
v -18.001252 46.247000 0.000000
v 24.234103 -47.178944 0.000000
v 23.998748 -46.247000 0.000000
v 24.151070 -46.704223 0.000000
v 23.933114 -46.100234 0.000000
v 22.215815 -44.485984 0.000000
v 22.363381 -44.549798 0.000000
v 21.756743 -44.339329 0.000000
v 21.912124 -44.380620 0.000000
v 21.440810 -44.280033 0.000000
v 21.599510 -44.305773 0.000000
v 20.479681 -44.291921 0.000000
v 20.010999 -44.404135 0.000000
v 18.178742 -49.113382 0.000000
v 18.774050 -49.868047 0.000000
v 18.659665 -49.755068 0.000000
v 19.148703 -50.171180 0.000000
v -18.604603 45.303509 0.000000
v -18.955750 44.973433 0.000000
v -18.498909 45.424658 0.000000
v 22.507612 -50.379168 0.000000
v 22.363381 -50.450202 0.000000
v 23.283841 -49.812265 0.000000
v 23.166697 -49.922380 0.000000
v -18.066886 46.100234 0.000000
v 21.440810 44.280033 0.000000
v 21.281031 44.262173 0.000000
v 21.756743 44.339329 0.000000
v 21.599510 44.305773 0.000000
v 24.246023 -47.339275 0.000000
v 22.065273 -44.429545 0.000000
v 22.507612 -44.620832 0.000000
v 23.780489 45.817329 0.000000
v 23.693872 45.681883 0.000000
v 24.186568 46.861029 0.000000
v 24.151070 46.704223 0.000000
v 18.551007 -49.636571 0.000000
v 18.448342 -49.512844 0.000000
v -19.083200 44.875428 0.000000
v 22.648153 -50.301088 0.000000
v 23.395397 -49.696491 0.000000
v 23.600664 -49.449115 0.000000
v 23.501091 -49.575342 0.000000
v 23.780489 -49.182671 0.000000
v 23.693872 -49.318117 0.000000
v 23.998748 -48.753000 0.000000
v 23.933114 -48.899766 0.000000
v -17.813432 46.861029 0.000000
v -17.848930 46.704223 0.000000
v -17.753977 47.339275 0.000000
v -17.765897 47.178944 0.000000
v 23.283841 45.187735 0.000000
v 23.166697 45.077620 0.000000
v 24.107860 46.549365 0.000000
v 22.215815 -50.514016 0.000000
v 22.784660 -50.216153 0.000000
v 23.044250 -50.026567 0.000000
v 22.916800 -50.124572 0.000000
v 23.860301 -49.043106 0.000000
v 24.057045 -48.603167 0.000000
v 24.186568 -48.138971 0.000000
v 24.151070 -48.295777 0.000000
v 24.234103 -47.821056 0.000000
v 24.214269 -47.980601 0.000000
v -17.892140 46.549365 0.000000
v -17.785731 47.019399 0.000000
v 22.065273 44.429545 0.000000
v 21.912124 44.380620 0.000000
v 23.395397 45.303509 0.000000
v 23.044250 44.973433 0.000000
v 23.501091 45.424658 0.000000
v 24.234103 47.178944 0.000000
v 24.214269 47.019399 0.000000
v 20.479681 -50.708079 0.000000
v 20.321666 -50.678421 0.000000
v 24.107860 -48.450635 0.000000
v 24.246023 -47.660725 0.000000
v 22.215815 44.485984 0.000000
v 22.507612 44.620832 0.000000
v 22.363381 44.549798 0.000000
v 22.916800 44.875428 0.000000
v 24.246023 47.339275 0.000000
v 20.010999 -50.595865 0.000000
v 19.859107 -50.543167 0.000000
v 20.165311 -50.640986 0.000000
v 24.250000 -47.500000 0.000000
v 22.784660 44.783847 0.000000
v 22.648153 44.698912 0.000000
v 24.250000 47.500000 0.000000
v 19.564064 -50.415577 0.000000
v 19.421635 -50.340997 0.000000
v 19.710007 -50.483022 0.000000
v 19.283068 -50.259465 0.000000
usemtl nosac_motoraMaterial0
f 1 2 3
f 4 1 5
f 6 4 7
f 8 6 9
f 10 8 11
f 12 10 13
f 14 12 15
f 16 14 17
f 18 16 19
f 20 18 21
f 22 20 23
f 24 22 25
f 26 24 27
f 28 26 29
f 30 28 31
f 32 30 33
f 34 32 35
f 36 34 37
f 38 36 39
f 40 38 41
f 42 40 43
f 44 42 45
f 46 44 47
f 48 46 49
f 50 48 51
f 52 50 53
f 54 52 55
f 56 54 57
f 58 56 59
f 60 58 61
f 62 60 63
f 64 65 66
f 66 67 64
f 66 62 67
f 68 65 64
f 69 68 70
f 71 69 72
f 73 71 74
f 75 73 76
f 77 75 78
f 79 77 80
f 81 79 82
f 83 81 84
f 85 83 86
f 87 85 88
f 89 87 90
f 91 89 92
f 93 91 94
f 95 93 96
f 97 95 98
f 99 97 100
f 101 99 102
f 103 101 104
f 105 103 106
f 107 105 108
f 109 107 110
f 111 109 112
f 113 111 114
f 115 113 116
f 117 115 118
f 119 117 120
f 121 119 122
f 123 121 124
f 125 123 126
f 127 125 128
f 129 127 130
f 131 129 132
f 133 131 134
f 135 133 136
f 137 135 138
f 139 137 140
f 141 139 142
f 143 141 144
f 145 143 146
f 147 145 148
f 149 147 150
f 151 149 152
f 153 151 154
f 155 153 156
f 157 155 158
f 159 157 160
f 161 159 162
f 163 161 164
f 165 163 166
f 167 165 168
f 169 167 170
f 171 169 172
f 173 171 174
f 175 173 176
f 177 175 178
f 179 177 180
f 181 179 182
f 183 181 184
f 185 183 186
f 187 185 188
f 189 187 190
f 191 189 192
f 193 191 194
f 195 193 196
f 197 195 198
f 199 197 200
f 201 199 202
f 203 201 204
f 205 203 206
f 207 205 208
f 209 207 210
f 211 209 212
f 213 211 214
f 215 213 216
f 217 215 218
f 219 217 220
f 221 219 222
f 223 221 224
f 225 223 226
f 227 225 228
f 229 227 230
f 231 229 232
f 233 231 234
f 235 233 236
f 237 235 238
f 239 237 240
f 241 239 242
f 243 241 244
f 245 243 246
f 247 245 248
f 249 247 250
f 251 249 252
f 253 251 254
f 2 253 255
f 255 3 2
f 254 255 253
f 252 254 251
f 250 252 249
f 248 250 247
f 246 248 245
f 244 246 243
f 242 244 241
f 240 242 239
f 238 240 237
f 236 238 235
f 234 236 233
f 232 234 231
f 230 232 229
f 228 230 227
f 226 228 225
f 224 226 223
f 222 224 221
f 220 222 219
f 218 220 217
f 216 218 215
f 214 216 213
f 212 214 211
f 210 212 209
f 208 210 207
f 206 208 205
f 204 206 203
f 202 204 201
f 200 202 199
f 198 200 197
f 196 198 195
f 194 196 193
f 192 194 191
f 190 192 189
f 188 190 187
f 186 188 185
f 184 186 183
f 182 184 181
f 180 182 179
f 178 180 177
f 176 178 175
f 174 176 173
f 172 174 171
f 170 172 169
f 168 170 167
f 166 168 165
f 164 166 163
f 162 164 161
f 160 162 159
f 158 160 157
f 156 158 155
f 154 156 153
f 152 154 151
f 150 152 149
f 148 150 147
f 146 148 145
f 144 146 143
f 142 144 141
f 140 142 139
f 138 140 137
f 136 138 135
f 134 136 133
f 132 134 131
f 130 132 129
f 128 130 127
f 126 128 125
f 124 126 123
f 122 124 121
f 120 122 119
f 118 120 117
f 116 118 115
f 114 116 113
f 112 114 111
f 110 112 109
f 108 110 107
f 106 108 105
f 104 106 103
f 102 104 101
f 100 102 99
f 98 100 97
f 96 98 95
f 94 96 93
f 92 94 91
f 90 92 89
f 88 90 87
f 86 88 85
f 84 86 83
f 82 84 81
f 80 82 79
f 78 80 77
f 76 78 75
f 74 76 73
f 72 74 71
f 70 72 69
f 64 70 68
f 63 67 62
f 61 63 60
f 59 61 58
f 57 59 56
f 55 57 54
f 53 55 52
f 51 53 50
f 49 51 48
f 47 49 46
f 45 47 44
f 43 45 42
f 41 43 40
f 39 41 38
f 37 39 36
f 35 37 34
f 33 35 32
f 31 33 30
f 29 31 28
f 27 29 26
f 25 27 24
f 23 25 22
f 21 23 20
f 19 21 18
f 17 19 16
f 15 17 14
f 13 15 12
f 11 13 10
f 9 11 8
f 7 9 6
f 5 7 4
f 3 5 1
f 256 257 246
f 246 257 258
f 246 244 256
f 259 220 218
f 259 224 222
f 259 238 236
f 244 242 256
f 258 260 246
f 242 261 262
f 263 264 265
f 266 267 268
f 222 220 259
f 218 216 259
f 259 228 226
f 259 232 230
f 236 234 259
f 261 242 240
f 262 256 242
f 269 270 271
f 272 273 274
f 272 275 276
f 265 277 263
f 277 278 263
f 268 263 266
f 268 264 263
f 266 279 280
f 226 224 259
f 234 232 259
f 238 259 281
f 216 282 283
f 271 216 269
f 271 284 216
f 269 285 286
f 272 287 273
f 274 288 272
f 276 289 272
f 275 290 291
f 260 255 254
f 292 5 3
f 279 266 293
f 280 294 266
f 295 138 136
f 230 228 259
f 281 261 238
f 283 296 216
f 286 297 269
f 297 298 269
f 272 299 287
f 272 300 301
f 272 302 303
f 289 304 272
f 275 305 306
f 275 307 290
f 275 308 309
f 275 310 311
f 254 252 260
f 252 250 260
f 3 260 292
f 3 255 260
f 292 11 9
f 312 313 314
f 275 315 316
f 275 317 318
f 279 319 320
f 293 321 279
f 294 267 266
f 275 322 323
f 275 324 325
f 136 134 295
f 134 132 295
f 295 142 140
f 269 146 144
f 269 152 150
f 269 158 156
f 269 168 166
f 269 200 198
f 269 208 206
f 269 214 212
f 240 238 261
f 284 282 216
f 298 326 269
f 269 327 328
f 272 329 330
f 272 331 332
f 272 333 334
f 272 335 336
f 301 299 272
f 304 302 272
f 275 337 338
f 306 339 275
f 309 307 275
f 311 340 275
f 11 292 341
f 9 7 292
f 314 313 342
f 314 343 312
f 316 344 275
f 344 345 275
f 275 346 317
f 318 347 275
f 321 319 279
f 275 348 349
f 275 350 322
f 323 351 275
f 275 272 324
f 325 350 275
f 140 138 295
f 144 295 269
f 144 142 295
f 150 148 269
f 148 146 269
f 156 154 269
f 154 152 269
f 166 164 269
f 164 162 269
f 269 182 180
f 269 188 186
f 269 194 192
f 198 196 269
f 196 194 269
f 206 204 269
f 204 202 269
f 212 210 269
f 210 208 269
f 296 259 216
f 326 270 269
f 328 352 269
f 352 353 269
f 269 354 355
f 356 357 358
f 354 269 357
f 272 359 360
f 332 329 272
f 330 361 272
f 272 362 363
f 336 333 272
f 334 364 272
f 303 300 272
f 339 337 275
f 340 308 275
f 365 366 367
f 365 368 369
f 11 370 371
f 341 372 11
f 7 5 292
f 373 374 375
f 373 376 377
f 373 378 379
f 343 380 312
f 342 263 314
f 380 381 382
f 345 383 275
f 275 384 346
f 279 385 386
f 278 387 263
f 275 388 389
f 349 390 275
f 390 388 275
f 162 160 269
f 269 176 174
f 269 184 182
f 180 178 269
f 269 190 188
f 186 184 269
f 192 190 269
f 202 200 269
f 269 216 214
f 353 285 269
f 355 391 269
f 391 327 269
f 357 356 354
f 358 272 356
f 272 392 359
f 360 356 272
f 361 392 272
f 272 364 362
f 363 331 272
f 272 288 335
f 338 276 275
f 291 393 275
f 275 394 395
f 275 396 397
f 367 295 365
f 367 398 295
f 369 399 365
f 275 400 401
f 275 402 403
f 275 404 405
f 275 406 407
f 29 408 406
f 372 370 11
f 295 78 76
f 377 374 373
f 375 409 373
f 373 410 411
f 373 412 413
f 379 414 373
f 381 380 415
f 382 312 380
f 416 417 418
f 275 419 420
f 275 421 422
f 383 421 275
f 347 315 275
f 279 423 424
f 279 425 426
f 279 427 428
f 279 429 430
f 320 385 279
f 275 431 432
f 275 433 434
f 275 435 436
f 389 435 275
f 351 348 275
f 160 158 269
f 174 172 269
f 172 170 269
f 178 176 269
f 393 305 275
f 275 437 438
f 395 439 275
f 397 440 275
f 399 366 365
f 275 441 442
f 401 443 275
f 405 402 275
f 403 400 275
f 406 275 29
f 407 404 275
f 11 444 445
f 250 248 260
f 295 72 70
f 76 74 295
f 295 84 82
f 295 130 128
f 411 376 373
f 414 412 373
f 378 373 446
f 409 447 448
f 409 449 450
f 416 451 417
f 416 452 453
f 416 454 455
f 275 456 457
f 422 419 275
f 420 458 275
f 426 423 279
f 428 459 279
f 459 460 279
f 386 429 279
f 461 462 463
f 432 461 275
f 432 464 461
f 275 465 466
f 436 433 275
f 434 467 275
f 170 168 269
f 275 468 437
f 440 394 275
f 295 469 470
f 295 398 471
f 365 472 368
f 275 473 474
f 275 475 476
f 443 441 275
f 11 477 478
f 11 479 480
f 11 481 482
f 11 483 484
f 371 444 11
f 275 295 57
f 295 67 63
f 70 64 295
f 295 80 78
f 295 86 84
f 295 124 122
f 128 126 295
f 365 485 486
f 365 487 488
f 413 410 373
f 446 381 378
f 448 489 409
f 450 490 409
f 409 491 492
f 416 493 494
f 416 495 451
f 416 496 497
f 416 498 499
f 453 500 416
f 416 501 502
f 416 503 454
f 416 504 505
f 416 506 507
f 457 508 275
f 508 509 275
f 275 510 511
f 424 512 279
f 279 460 513
f 430 427 279
f 461 514 515
f 463 516 461
f 466 517 275
f 517 518 275
f 439 468 275
f 470 519 295
f 519 520 295
f 295 521 522
f 295 523 524
f 295 525 526
f 275 527 528
f 476 473 275
f 480 477 11
f 482 529 11
f 529 530 11
f 445 483 11
f 531 23 21
f 531 29 27
f 57 55 275
f 295 61 59
f 64 67 295
f 82 80 295
f 126 124 295
f 365 532 485
f 365 533 534
f 365 535 536
f 365 537 538
f 365 539 540
f 365 541 542
f 488 543 365
f 543 541 365
f 415 378 381
f 490 447 409
f 409 544 545
f 492 546 409
f 409 547 548
f 416 549 550
f 416 551 552
f 494 553 416
f 416 554 555
f 497 495 416
f 500 498 416
f 416 556 557
f 502 558 416
f 505 503 416
f 507 559 416
f 509 560 275
f 275 561 562
f 275 461 510
f 511 561 275
f 513 425 279
f 515 563 461
f 563 279 461
f 464 462 461
f 518 564 275
f 438 310 275
f 295 520 565
f 522 469 295
f 295 566 523
f 524 521 295
f 471 525 295
f 528 567 275
f 442 475 275
f 478 568 11
f 11 530 569
f 484 481 11
f 531 17 15
f 21 19 531
f 27 25 531
f 275 51 49
f 59 57 295
f 74 72 295
f 295 98 96
f 295 102 100
f 295 120 118
f 295 132 130
f 534 532 365
f 365 570 571
f 536 572 365
f 538 573 365
f 365 574 575
f 365 576 577
f 365 578 579
f 365 580 539
f 365 581 582
f 365 583 584
f 542 583 365
f 489 373 409
f 546 544 409
f 548 585 409
f 585 586 409
f 365 587 588
f 550 365 416
f 550 589 365
f 416 590 551
f 416 591 592
f 416 593 594
f 555 493 416
f 499 496 416
f 558 556 416
f 559 504 416
f 275 595 596
f 275 597 598
f 275 599 600
f 275 560 601
f 458 456 275
f 562 384 275
f 387 314 263
f 516 514 461
f 275 602 603
f 275 604 605
f 275 564 606
f 467 465 275
f 565 269 295
f 526 566 295
f 275 607 608
f 567 609 275
f 474 610 275
f 29 611 612
f 569 479 11
f 15 13 531
f 13 11 531
f 25 23 531
f 49 47 275
f 47 45 275
f 63 61 295
f 100 98 295
f 295 110 108
f 295 116 114
f 122 120 295
f 571 533 365
f 573 535 365
f 365 613 614
f 575 615 365
f 365 616 617
f 577 618 365
f 365 619 578
f 582 580 365
f 547 409 487
f 545 449 409
f 588 620 365
f 620 547 365
f 416 621 549
f 592 590 416
f 553 593 416
f 557 452 416
f 455 622 416
f 416 623 624
f 275 625 595
f 596 416 275
f 275 626 597
f 598 625 275
f 601 599 275
f 600 626 275
f 275 627 602
f 603 431 275
f 606 604 275
f 605 627 275
f 275 628 629
f 608 630 275
f 610 527 275
f 29 531 611
f 612 408 29
f 248 246 260
f 19 17 531
f 55 53 275
f 295 90 88
f 96 94 295
f 295 106 104
f 295 112 110
f 118 116 295
f 572 570 365
f 615 613 365
f 617 631 365
f 365 632 576
f 540 619 365
f 487 365 547
f 584 581 365
f 586 491 409
f 365 589 587
f 552 621 416
f 416 633 554
f 622 501 416
f 416 634 635
f 624 636 416
f 636 634 416
f 596 623 416
f 512 461 279
f 630 628 275
f 275 637 638
f 275 33 31
f 275 37 35
f 275 43 41
f 53 51 275
f 295 92 90
f 104 102 295
f 114 112 295
f 614 537 365
f 631 639 365
f 579 632 365
f 418 633 416
f 635 640 416
f 640 506 416
f 638 607 275
f 568 531 11
f 35 33 275
f 41 39 275
f 39 37 275
f 88 86 295
f 108 106 295
f 639 574 365
f 594 591 416
f 609 637 275
f 31 29 275
f 94 92 295
f 618 616 365
f 629 396 275
f 45 43 275
f 486 472 365
f 641 642 643
f 643 644 645
f 642 646 643
f 643 647 648
f 645 649 643
f 649 650 643
f 643 651 652
f 642 641 653
f 648 654 643
f 652 644 643
f 643 654 641
f 642 655 656
f 650 647 643
f 651 643 657
f 642 658 659
f 653 655 642
f 657 660 661
f 657 661 651
f 642 662 663
f 642 664 665
f 659 666 642
f 666 667 642
f 642 668 669
f 670 123 125
f 671 247 249
f 642 672 673
f 642 674 675
f 663 676 642
f 642 677 678
f 642 679 680
f 665 681 642
f 669 658 642
f 670 121 123
f 670 117 119
f 249 251 671
f 2 682 683
f 684 685 686
f 673 687 642
f 687 688 642
f 675 689 642
f 689 672 642
f 676 646 642
f 678 690 642
f 642 691 692
f 642 693 694
f 681 679 642
f 670 695 696
f 697 670 131
f 119 121 670
f 670 62 66
f 245 698 699
f 251 253 671
f 698 245 247
f 683 700 2
f 700 671 2
f 2 701 702
f 684 703 704
f 686 705 684
f 642 706 707
f 642 708 709
f 690 662 642
f 642 710 711
f 642 712 713
f 642 714 715
f 642 716 691
f 642 717 693
f 642 718 719
f 667 664 642
f 720 721 722
f 670 723 724
f 696 725 670
f 725 726 670
f 670 129 131
f 125 127 670
f 670 71 73
f 66 65 670
f 245 727 728
f 699 729 245
f 247 671 698
f 253 2 671
f 702 682 2
f 684 730 731
f 684 732 733
f 684 734 703
f 684 735 736
f 684 737 738
f 705 739 684
f 684 740 741
f 642 742 706
f 707 743 642
f 709 744 642
f 744 742 642
f 642 688 745
f 656 674 642
f 657 746 747
f 642 748 710
f 642 749 712
f 642 750 714
f 642 751 752
f 694 716 642
f 680 718 642
f 642 753 754
f 642 755 756
f 720 757 758
f 722 759 720
f 759 760 720
f 670 761 762
f 670 763 723
f 724 764 670
f 670 765 695
f 127 129 670
f 670 113 115
f 670 95 97
f 670 91 93
f 670 77 79
f 670 69 71
f 670 60 62
f 766 767 768
f 729 727 245
f 731 769 684
f 684 770 732
f 684 771 772
f 736 734 684
f 739 737 684
f 684 773 774
f 684 775 740
f 684 776 777
f 684 642 778
f 743 779 642
f 745 708 642
f 747 660 657
f 711 780 642
f 657 781 782
f 642 783 749
f 752 750 642
f 719 717 642
f 756 753 642
f 754 668 642
f 670 784 785
f 670 786 787
f 670 788 789
f 790 791 792
f 791 790 793
f 720 794 795
f 758 796 720
f 796 797 720
f 720 798 799
f 720 800 801
f 720 802 803
f 762 804 670
f 804 805 670
f 764 761 670
f 670 806 765
f 115 117 670
f 670 109 111
f 670 103 105
f 93 95 670
f 79 81 670
f 73 75 670
f 65 68 670
f 4 766 807
f 768 808 766
f 245 809 810
f 245 811 812
f 245 813 814
f 769 815 684
f 772 770 684
f 738 735 684
f 741 773 684
f 684 816 817
f 684 818 819
f 777 820 684
f 778 821 684
f 642 822 823
f 780 677 642
f 657 824 825
f 657 826 827
f 657 720 781
f 782 826 657
f 715 783 642
f 692 751 642
f 785 642 670
f 785 828 642
f 789 786 670
f 787 829 670
f 792 830 790
f 793 831 791
f 793 832 831
f 795 833 720
f 833 831 720
f 720 797 834
f 799 757 720
f 760 800 720
f 720 835 836
f 720 837 802
f 803 835 720
f 726 763 670
f 670 838 839
f 670 697 840
f 111 113 670
f 105 107 670
f 670 99 101
f 670 89 91
f 75 77 670
f 670 58 60
f 670 54 56
f 670 50 52
f 808 807 766
f 131 841 842
f 841 131 133
f 843 844 845
f 245 846 847
f 245 848 849
f 810 850 245
f 850 851 245
f 812 852 245
f 852 809 245
f 728 813 245
f 2 853 854
f 855 213 215
f 684 856 730
f 704 771 684
f 817 775 684
f 820 818 684
f 821 857 684
f 642 779 822
f 823 858 642
f 825 859 657
f 657 860 861
f 827 860 657
f 828 755 642
f 670 829 862
f 670 863 788
f 830 864 790
f 832 720 831
f 834 794 720
f 801 798 720
f 836 865 720
f 720 657 866
f 867 868 869
f 840 838 670
f 839 806 670
f 107 109 670
f 97 99 670
f 131 870 871
f 68 69 670
f 52 54 670
f 766 42 44
f 766 872 767
f 147 873 874
f 133 875 841
f 842 876 131
f 684 877 878
f 879 845 880
f 845 879 843
f 843 881 844
f 245 882 846
f 847 883 245
f 849 884 245
f 884 882 245
f 245 851 885
f 854 701 2
f 886 229 231
f 855 225 227
f 215 217 855
f 217 219 855
f 733 856 684
f 774 887 684
f 857 776 684
f 858 778 642
f 859 746 657
f 713 748 642
f 864 867 790
f 866 837 720
f 867 888 889
f 867 890 868
f 869 891 867
f 101 103 670
f 131 892 870
f 871 893 131
f 56 58 670
f 766 48 50
f 766 40 42
f 44 46 766
f 766 20 22
f 766 14 16
f 766 4 6
f 766 894 872
f 875 145 147
f 874 875 147
f 147 895 896
f 875 135 137
f 133 135 875
f 684 897 898
f 878 899 684
f 899 900 684
f 880 901 879
f 883 886 245
f 885 848 245
f 814 811 245
f 2 902 903
f 886 239 241
f 231 233 886
f 233 235 886
f 227 886 855
f 227 229 886
f 855 221 223
f 219 221 855
f 887 685 684
f 861 824 657
f 862 784 670
f 865 721 720
f 889 904 867
f 904 790 867
f 891 888 867
f 670 805 905
f 131 893 697
f 131 906 892
f 670 83 85
f 50 670 766
f 81 83 670
f 46 48 766
f 22 24 766
f 24 26 766
f 16 18 766
f 18 20 766
f 766 8 10
f 807 1 4
f 6 8 766
f 1 807 907
f 766 908 909
f 766 910 911
f 896 873 147
f 875 139 141
f 137 139 875
f 766 912 913
f 684 914 915
f 684 916 897
f 898 917 684
f 684 918 919
f 684 920 921
f 900 920 684
f 844 922 923
f 881 922 844
f 901 924 925
f 901 926 927
f 903 853 2
f 2 928 929
f 241 243 886
f 243 245 886
f 886 235 237
f 2 930 931
f 819 816 684
f 905 932 670
f 932 863 670
f 85 87 670
f 131 933 934
f 10 12 766
f 907 2 1
f 911 908 766
f 875 143 145
f 141 143 875
f 874 935 936
f 913 937 766
f 684 938 914
f 915 939 684
f 684 917 940
f 919 916 684
f 684 941 942
f 684 943 944
f 684 945 946
f 925 947 901
f 947 879 901
f 901 886 926
f 927 948 901
f 929 949 2
f 237 239 886
f 223 225 855
f 2 950 951
f 2 952 930
f 931 950 2
f 855 207 209
f 855 201 203
f 855 197 199
f 855 175 177
f 855 161 163
f 131 953 933
f 934 954 131
f 131 876 955
f 766 30 32
f 12 14 766
f 909 894 766
f 766 956 957
f 766 958 959
f 936 960 874
f 960 875 874
f 147 961 962
f 147 963 964
f 937 965 766
f 766 684 939
f 940 938 684
f 921 918 684
f 684 966 941
f 942 967 684
f 946 943 684
f 944 966 684
f 886 968 969
f 948 924 901
f 684 970 971
f 949 902 2
f 2 972 973
f 951 972 2
f 855 205 207
f 209 211 855
f 199 201 855
f 203 205 855
f 855 193 195
f 855 187 189
f 855 183 185
f 855 173 175
f 177 179 855
f 855 167 169
f 855 159 161
f 163 165 855
f 855 155 157
f 855 151 153
f 87 89 670
f 131 954 974
f 955 953 131
f 32 34 766
f 34 36 766
f 766 26 28
f 766 975 956
f 766 976 958
f 766 977 978
f 766 979 980
f 766 981 982
f 964 961 147
f 962 895 147
f 874 983 984
f 874 985 986
f 147 987 988
f 939 912 766
f 886 901 968
f 969 855 886
f 971 945 684
f 971 989 945
f 855 191 193
f 195 197 855
f 185 187 855
f 189 191 855
f 179 181 855
f 855 165 167
f 169 171 855
f 157 159 855
f 855 149 151
f 153 155 855
f 766 36 38
f 28 30 766
f 766 990 910
f 766 991 975
f 766 992 993
f 978 976 766
f 766 994 979
f 766 995 981
f 766 996 997
f 766 998 999
f 984 1000 874
f 986 1001 874
f 1001 983 874
f 985 874 890
f 147 1002 1003
f 147 1004 987
f 988 1005 147
f 147 855 1006
f 923 945 844
f 684 1007 1008
f 973 928 2
f 181 183 855
f 855 147 149
f 2 1009 1010
f 974 906 131
f 957 990 766
f 959 992 766
f 982 994 766
f 997 1011 766
f 766 1012 998
f 1000 935 874
f 890 867 985
f 147 1013 1002
f 1003 963 147
f 147 1014 1015
f 147 1005 1016
f 1006 1004 147
f 967 877 684
f 989 844 945
f 684 1017 1007
f 211 213 855
f 2 1018 1019
f 2 907 1009
f 1010 1020 2
f 38 40 766
f 993 991 766
f 1011 995 766
f 766 1021 1012
f 1015 1013 147
f 147 1022 1023
f 1016 1022 147
f 684 1024 1017
f 171 173 855
f 2 1025 1026
f 1019 1027 2
f 1027 1025 2
f 1020 1018 2
f 999 996 766
f 1023 1014 147
f 1008 970 684
f 1026 1028 2
f 1028 952 2
f 980 977 766
f 965 1021 766
f 815 1024 684
f 416 684 766
f 766 275 416
f 365 642 684
f 684 416 365
f 295 670 642
f 642 365 295
f 275 766 670
f 670 295 275
f 1012 1021 309
f 998 1012 308
f 999 998 340
f 996 999 311
f 997 996 310
f 1011 997 438
f 995 1011 437
f 981 995 468
f 982 981 439
f 994 982 395
f 979 994 394
f 980 979 440
f 977 980 397
f 978 977 396
f 976 978 629
f 958 976 628
f 959 958 630
f 992 959 608
f 993 992 607
f 991 993 638
f 975 991 637
f 956 975 609
f 957 956 567
f 990 957 528
f 910 990 527
f 911 910 610
f 908 911 474
f 909 908 473
f 894 909 476
f 872 894 475
f 767 872 442
f 443 808 768
f 768 441 443
f 768 767 441
f 807 808 443
f 907 807 401
f 1009 907 400
f 1010 1009 403
f 1020 1010 402
f 1018 1020 405
f 1019 1018 404
f 1027 1019 407
f 1025 1027 406
f 1026 1025 408
f 1028 1026 612
f 952 1028 611
f 930 952 531
f 931 930 568
f 950 931 478
f 951 950 477
f 972 951 480
f 973 972 479
f 928 973 569
f 929 928 530
f 949 929 529
f 902 949 482
f 903 902 481
f 853 903 484
f 854 853 483
f 701 854 445
f 702 701 444
f 682 702 371
f 683 682 370
f 700 683 372
f 671 700 341
f 698 671 292
f 699 698 260
f 729 699 258
f 727 729 257
f 728 727 256
f 813 728 262
f 814 813 261
f 811 814 281
f 812 811 259
f 852 812 296
f 809 852 283
f 810 809 282
f 850 810 284
f 851 850 271
f 885 851 270
f 848 885 326
f 849 848 298
f 884 849 297
f 882 884 286
f 846 882 285
f 847 846 353
f 883 847 352
f 886 883 328
f 926 886 327
f 927 926 391
f 948 927 355
f 924 948 354
f 925 924 356
f 947 925 360
f 879 947 359
f 843 879 392
f 881 843 361
f 922 881 330
f 923 922 329
f 945 923 332
f 946 945 331
f 943 946 363
f 944 943 362
f 966 944 364
f 941 966 334
f 942 941 333
f 967 942 336
f 877 967 335
f 878 877 288
f 899 878 274
f 900 899 273
f 920 900 287
f 921 920 299
f 918 921 301
f 919 918 300
f 916 919 303
f 897 916 302
f 898 897 304
f 917 898 289
f 940 917 276
f 938 940 338
f 914 938 337
f 915 914 339
f 939 915 306
f 912 939 305
f 913 912 393
f 937 913 291
f 965 937 290
f 1021 965 307
f 307 309 1021
f 290 307 965
f 291 290 937
f 393 291 913
f 305 393 912
f 306 305 939
f 339 306 915
f 337 339 914
f 338 337 938
f 276 338 940
f 289 276 917
f 304 289 898
f 302 304 897
f 303 302 916
f 300 303 919
f 301 300 918
f 299 301 921
f 287 299 920
f 273 287 900
f 274 273 899
f 288 274 878
f 335 288 877
f 336 335 967
f 333 336 942
f 334 333 941
f 364 334 966
f 362 364 944
f 363 362 943
f 331 363 946
f 332 331 945
f 329 332 923
f 330 329 922
f 361 330 881
f 392 361 843
f 359 392 879
f 360 359 947
f 356 360 925
f 354 356 924
f 355 354 948
f 391 355 927
f 327 391 926
f 328 327 886
f 352 328 883
f 353 352 847
f 285 353 846
f 286 285 882
f 297 286 884
f 298 297 849
f 326 298 848
f 270 326 885
f 271 270 851
f 284 271 850
f 282 284 810
f 283 282 809
f 296 283 852
f 259 296 812
f 281 259 811
f 261 281 814
f 262 261 813
f 256 262 728
f 257 256 727
f 258 257 729
f 260 258 699
f 292 260 698
f 341 292 671
f 372 341 700
f 370 372 683
f 371 370 682
f 444 371 702
f 445 444 701
f 483 445 854
f 484 483 853
f 481 484 903
f 482 481 902
f 529 482 949
f 530 529 929
f 569 530 928
f 479 569 973
f 480 479 972
f 477 480 951
f 478 477 950
f 568 478 931
f 531 568 930
f 611 531 952
f 612 611 1028
f 408 612 1026
f 406 408 1025
f 407 406 1027
f 404 407 1019
f 405 404 1018
f 402 405 1020
f 403 402 1010
f 400 403 1009
f 401 400 907
f 443 401 807
f 442 441 767
f 475 442 872
f 476 475 894
f 473 476 909
f 474 473 908
f 610 474 911
f 527 610 910
f 528 527 990
f 567 528 957
f 609 567 956
f 637 609 975
f 638 637 991
f 607 638 993
f 608 607 992
f 630 608 959
f 628 630 958
f 629 628 976
f 396 629 978
f 397 396 977
f 440 397 980
f 394 440 979
f 395 394 994
f 439 395 982
f 468 439 981
f 437 468 995
f 438 437 1011
f 310 438 997
f 311 310 996
f 340 311 999
f 308 340 998
f 309 308 1012
f 985 867 268
f 986 985 267
f 1001 986 294
f 983 1001 280
f 984 983 279
f 1000 984 563
f 935 1000 515
f 936 935 514
f 960 936 516
f 875 960 463
f 841 875 462
f 842 841 464
f 876 842 432
f 955 876 431
f 953 955 603
f 933 953 602
f 934 933 627
f 954 934 605
f 974 954 604
f 906 974 606
f 892 906 564
f 870 892 518
f 871 870 517
f 893 871 466
f 697 893 465
f 840 697 467
f 838 840 434
f 839 838 433
f 806 839 436
f 765 806 435
f 695 765 389
f 390 725 696
f 696 388 390
f 696 695 388
f 726 725 390
f 763 726 349
f 723 763 348
f 724 723 351
f 764 724 323
f 761 764 322
f 762 761 350
f 804 762 325
f 805 804 324
f 905 805 272
f 932 905 358
f 863 932 357
f 788 863 269
f 789 788 565
f 786 789 520
f 787 786 519
f 829 787 470
f 862 829 469
f 784 862 522
f 785 784 521
f 828 785 524
f 755 828 523
f 756 755 566
f 753 756 526
f 754 753 525
f 668 754 471
f 669 668 398
f 658 669 367
f 659 658 366
f 666 659 399
f 667 666 369
f 664 667 368
f 665 664 472
f 681 665 486
f 679 681 485
f 680 679 532
f 718 680 534
f 719 718 533
f 717 719 571
f 693 717 570
f 694 693 572
f 716 694 536
f 691 716 535
f 692 691 573
f 751 692 538
f 752 751 537
f 750 752 614
f 714 750 613
f 715 714 615
f 783 715 575
f 749 783 574
f 712 749 639
f 713 712 631
f 748 713 617
f 710 748 616
f 711 710 618
f 780 711 577
f 677 780 576
f 678 677 632
f 690 678 579
f 662 690 578
f 663 662 619
f 676 663 540
f 646 676 539
f 643 646 580
f 657 643 582
f 866 657 581
f 837 866 584
f 802 837 583
f 803 802 542
f 835 803 541
f 836 835 543
f 865 836 488
f 721 865 487
f 722 721 409
f 759 722 375
f 760 759 374
f 800 760 377
f 801 800 376
f 798 801 411
f 799 798 410
f 757 799 413
f 758 757 412
f 796 758 414
f 797 796 379
f 834 797 378
f 794 834 415
f 795 794 380
f 833 795 343
f 831 833 314
f 791 831 387
f 792 791 278
f 830 792 277
f 864 830 265
f 867 864 264
f 264 268 867
f 265 264 864
f 277 265 830
f 278 277 792
f 387 278 791
f 314 387 831
f 343 314 833
f 380 343 795
f 415 380 794
f 378 415 834
f 379 378 797
f 414 379 796
f 412 414 758
f 413 412 757
f 410 413 799
f 411 410 798
f 376 411 801
f 377 376 800
f 374 377 760
f 375 374 759
f 409 375 722
f 487 409 721
f 488 487 865
f 543 488 836
f 541 543 835
f 542 541 803
f 583 542 802
f 584 583 837
f 581 584 866
f 582 581 657
f 580 582 643
f 539 580 646
f 540 539 676
f 619 540 663
f 578 619 662
f 579 578 690
f 632 579 678
f 576 632 677
f 577 576 780
f 618 577 711
f 616 618 710
f 617 616 748
f 631 617 713
f 639 631 712
f 574 639 749
f 575 574 783
f 615 575 715
f 613 615 714
f 614 613 750
f 537 614 752
f 538 537 751
f 573 538 692
f 535 573 691
f 536 535 716
f 572 536 694
f 570 572 693
f 571 570 717
f 533 571 719
f 534 533 718
f 532 534 680
f 485 532 679
f 486 485 681
f 472 486 665
f 368 472 664
f 369 368 667
f 399 369 666
f 366 399 659
f 367 366 658
f 398 367 669
f 471 398 668
f 525 471 754
f 526 525 753
f 566 526 756
f 523 566 755
f 524 523 828
f 521 524 785
f 522 521 784
f 469 522 862
f 470 469 829
f 519 470 787
f 520 519 786
f 565 520 789
f 269 565 788
f 357 269 863
f 358 357 932
f 272 358 905
f 324 272 805
f 325 324 804
f 350 325 762
f 322 350 761
f 323 322 764
f 351 323 724
f 348 351 723
f 349 348 763
f 390 349 726
f 389 388 695
f 435 389 765
f 436 435 806
f 433 436 839
f 434 433 838
f 467 434 840
f 465 467 697
f 466 465 893
f 517 466 871
f 518 517 870
f 564 518 892
f 606 564 906
f 604 606 974
f 605 604 954
f 627 605 934
f 602 627 933
f 603 602 953
f 431 603 955
f 432 431 876
f 464 432 842
f 462 464 841
f 463 462 875
f 516 463 960
f 514 516 936
f 515 514 935
f 563 515 1000
f 279 563 984
f 280 279 983
f 294 280 1001
f 267 294 986
f 268 267 985
f 1017 1024 505
f 1007 1017 504
f 1008 1007 559
f 970 1008 507
f 971 970 506
f 989 971 640
f 844 989 635
f 845 844 634
f 880 845 636
f 901 880 624
f 968 901 623
f 969 968 596
f 855 969 595
f 1006 855 625
f 1004 1006 598
f 987 1004 597
f 988 987 626
f 1005 988 600
f 1016 1005 599
f 1022 1016 601
f 1023 1022 560
f 1014 1023 509
f 1015 1014 508
f 1013 1015 457
f 1002 1013 456
f 1003 1002 458
f 963 1003 420
f 964 963 419
f 961 964 422
f 962 961 421
f 895 962 383
f 344 873 896
f 896 345 344
f 896 895 345
f 874 873 344
f 890 874 316
f 868 890 315
f 869 868 347
f 891 869 318
f 888 891 317
f 889 888 346
f 904 889 384
f 790 904 562
f 793 790 561
f 832 793 511
f 720 832 510
f 781 720 461
f 782 781 512
f 826 782 424
f 827 826 423
f 860 827 426
f 861 860 425
f 824 861 513
f 825 824 460
f 859 825 459
f 746 859 428
f 747 746 427
f 660 747 430
f 661 660 429
f 651 661 386
f 652 651 385
f 644 652 320
f 645 644 319
f 649 645 321
f 650 649 293
f 647 650 266
f 648 647 263
f 654 648 342
f 641 654 313
f 653 641 312
f 655 653 382
f 656 655 381
f 674 656 446
f 675 674 373
f 689 675 489
f 672 689 448
f 673 672 447
f 687 673 490
f 688 687 450
f 745 688 449
f 708 745 545
f 709 708 544
f 744 709 546
f 742 744 492
f 706 742 491
f 707 706 586
f 743 707 585
f 779 743 548
f 822 779 547
f 823 822 620
f 858 823 588
f 778 858 587
f 821 778 589
f 857 821 550
f 776 857 549
f 777 776 621
f 820 777 552
f 818 820 551
f 819 818 590
f 816 819 592
f 817 816 591
f 775 817 594
f 740 775 593
f 741 740 553
f 773 741 494
f 774 773 493
f 887 774 555
f 685 887 554
f 686 685 633
f 705 686 418
f 739 705 417
f 737 739 451
f 738 737 495
f 735 738 497
f 736 735 496
f 734 736 499
f 703 734 498
f 704 703 500
f 771 704 453
f 772 771 452
f 770 772 557
f 732 770 556
f 733 732 558
f 856 733 502
f 730 856 501
f 731 730 622
f 769 731 455
f 815 769 454
f 1024 815 503
f 503 505 1024
f 454 503 815
f 455 454 769
f 622 455 731
f 501 622 730
f 502 501 856
f 558 502 733
f 556 558 732
f 557 556 770
f 452 557 772
f 453 452 771
f 500 453 704
f 498 500 703
f 499 498 734
f 496 499 736
f 497 496 735
f 495 497 738
f 451 495 737
f 417 451 739
f 418 417 705
f 633 418 686
f 554 633 685
f 555 554 887
f 493 555 774
f 494 493 773
f 553 494 741
f 593 553 740
f 594 593 775
f 591 594 817
f 592 591 816
f 590 592 819
f 551 590 818
f 552 551 820
f 621 552 777
f 549 621 776
f 550 549 857
f 589 550 821
f 587 589 778
f 588 587 858
f 620 588 823
f 547 620 822
f 548 547 779
f 585 548 743
f 586 585 707
f 491 586 706
f 492 491 742
f 546 492 744
f 544 546 709
f 545 544 708
f 449 545 745
f 450 449 688
f 490 450 687
f 447 490 673
f 448 447 672
f 489 448 689
f 373 489 675
f 446 373 674
f 381 446 656
f 382 381 655
f 312 382 653
f 313 312 641
f 342 313 654
f 263 342 648
f 266 263 647
f 293 266 650
f 321 293 649
f 319 321 645
f 320 319 644
f 385 320 652
f 386 385 651
f 429 386 661
f 430 429 660
f 427 430 747
f 428 427 746
f 459 428 859
f 460 459 825
f 513 460 824
f 425 513 861
f 426 425 860
f 423 426 827
f 424 423 826
f 512 424 782
f 461 512 781
f 510 461 720
f 511 510 832
f 561 511 793
f 562 561 790
f 384 562 904
f 346 384 889
f 317 346 888
f 318 317 891
f 347 318 869
f 315 347 868
f 316 315 890
f 344 316 874
f 383 345 895
f 421 383 962
f 422 421 961
f 419 422 964
f 420 419 963
f 458 420 1003
f 456 458 1002
f 457 456 1013
f 508 457 1015
f 509 508 1014
f 560 509 1023
f 601 560 1022
f 599 601 1016
f 600 599 1005
f 626 600 988
f 597 626 987
f 598 597 1004
f 625 598 1006
f 595 625 855
f 596 595 969
f 623 596 968
f 624 623 901
f 636 624 880
f 634 636 845
f 635 634 844
f 640 635 989
f 506 640 971
f 507 506 970
f 559 507 1008
f 504 559 1007
f 505 504 1017
