# 
# Wavefront OBJ file
# Created with Kaydara FBX
# 
mtllib klema.mtl

g klema
v 25.500001 -5.147611 -10.766833
v 25.500001 -5.000000 -10.770797
v 19.366069 -5.000000 -10.770797
v 25.500001 -5.294796 -10.754951
v 19.366069 -5.147611 -10.766833
v 25.500001 -5.441131 -10.735186
v 19.366069 -5.294796 -10.754951
v 25.500001 -5.586194 -10.707594
v 19.366069 -5.441131 -10.735186
v 25.500001 -5.729567 -10.672256
v 19.366069 -5.586194 -10.707594
v 25.500001 -5.870837 -10.629273
v 19.366069 -5.729567 -10.672256
v 25.500001 -6.009596 -10.578768
v 19.366069 -5.870837 -10.629273
v 25.500001 -6.145444 -10.520889
v 19.366069 -6.009596 -10.578768
v 25.500001 -6.277989 -10.455801
v 19.366069 -6.145444 -10.520889
v 25.500001 -6.406849 -10.383693
v 19.366069 -6.277989 -10.455801
v 25.500001 -6.531653 -10.304772
v 19.366069 -6.406849 -10.383693
v 25.500001 -6.652041 -10.219265
v 19.366069 -6.531653 -10.304772
v 25.500001 -6.767666 -10.127420
v 19.366069 -6.652041 -10.219265
v 25.500001 -6.878194 -10.029500
v 19.366069 -6.767666 -10.127420
v 25.500001 -6.983307 -9.925789
v 19.366069 -6.878194 -10.029500
v 25.500001 -7.082701 -9.816586
v 19.366069 -6.983307 -9.925789
v 25.500001 -7.176090 -9.702205
v 19.366069 -7.082701 -9.816586
v 25.500001 -7.263206 -9.582975
v 19.366069 -7.176090 -9.702205
v 25.500001 -7.343795 -9.459242
v 19.366069 -7.263206 -9.582975
v 25.500001 -7.417627 -9.331361
v 19.366069 -7.343795 -9.459242
v 25.500001 -7.484489 -9.199702
v 19.366069 -7.417627 -9.331361
v 25.500001 -7.544187 -9.064643
v 19.366069 -7.484489 -9.199702
v 25.500001 -7.596549 -8.926575
v 19.366069 -7.544187 -9.064643
v 25.500001 -7.641425 -8.785895
v 19.366069 -7.596549 -8.926575
v 25.500001 -7.678685 -8.643010
v 19.366069 -7.641425 -8.785895
v 25.500001 -7.708221 -8.498330
v 19.366069 -7.678685 -8.643010
v 25.500001 -7.729949 -8.352273
v 19.366069 -7.708221 -8.498330
v 25.500001 -7.743806 -8.205261
v 19.366069 -7.729949 -8.352273
v 25.500001 -7.749752 -8.057717
v 19.366069 -7.743806 -8.205261
v 25.500001 -7.747770 -7.910066
v 19.366069 -7.749752 -8.057717
v 25.500001 -7.737865 -7.762735
v 19.366069 -7.747770 -7.910066
v 25.500001 -7.720066 -7.616147
v 19.366069 -7.737865 -7.762735
v 25.500001 -7.694424 -7.470727
v 19.366069 -7.720066 -7.616147
v 25.500001 -7.661014 -7.326892
v 19.366069 -7.694424 -7.470727
v 25.500001 -7.619931 -7.185058
v 19.366069 -7.661014 -7.326892
v 25.500001 -7.571295 -7.045634
v 19.366069 -7.619931 -7.185058
v 25.500001 -7.515244 -6.909021
v 19.366069 -7.571295 -7.045634
v 25.500001 -7.451942 -6.775614
v 19.366069 -7.515244 -6.909021
v 25.500001 -7.381570 -6.645797
v 19.366069 -7.451942 -6.775614
v 25.500001 -7.304331 -6.519945
v 19.366069 -7.381570 -6.645797
v 25.500001 -7.220448 -6.398420
v 19.366069 -7.304331 -6.519945
v 25.500001 -7.130164 -6.281573
v 19.366069 -7.220448 -6.398420
v 25.500001 -7.033737 -6.169740
v 19.366069 -7.130164 -6.281573
v 25.500001 -6.931447 -6.063244
v 19.366069 -7.033737 -6.169740
v 25.500001 -6.823587 -5.962393
v 19.366069 -6.931447 -6.063244
v 25.500001 -6.710470 -5.867476
v 19.366069 -6.823587 -5.962393
v 25.500001 -6.592421 -5.778768
v 19.366069 -6.710470 -5.867476
v 25.500001 -6.469781 -5.696525
v 19.366069 -6.592421 -5.778768
v 25.500001 -6.342903 -5.620982
v 19.366069 -6.469781 -5.696525
v 25.500001 -6.212153 -5.552360
v 19.366069 -6.342903 -5.620982
v 25.500001 -6.077908 -5.490854
v 19.366069 -6.212153 -5.552360
v 25.500001 -5.940555 -5.436643
v 19.366069 -6.077908 -5.490854
v 25.500001 -5.800491 -5.389882
v 19.366069 -5.940555 -5.436643
v 25.500001 -5.658118 -5.350707
v 19.366069 -5.800491 -5.389882
v 25.500001 -5.513848 -5.319231
v 19.366069 -5.658118 -5.350707
v 25.500001 -5.368096 -5.295544
v 19.366069 -5.513848 -5.319231
v 25.500001 -5.221283 -5.279715
v 19.366069 -5.368096 -5.295544
v 25.500001 -5.073832 -5.271789
v 19.366069 -5.221283 -5.279715
v 25.500001 -4.926168 -5.271789
v 19.366069 -5.000000 -5.270797
v 19.366069 -5.073832 -5.271789
v 25.500001 -4.778717 -5.279715
v 19.366069 -4.926168 -5.271789
v 25.500001 -4.631904 -5.295544
v 19.366069 -4.778717 -5.279715
v 25.500001 -4.486152 -5.319231
v 19.366069 -4.631904 -5.295544
v 25.500001 -4.341882 -5.350707
v 19.366069 -4.486152 -5.319231
v 25.500001 -4.199509 -5.389882
v 19.366069 -4.341882 -5.350707
v 25.500001 -4.059445 -5.436643
v 19.366069 -4.199509 -5.389882
v 25.500001 -3.922092 -5.490854
v 19.366069 -4.059445 -5.436643
v 25.500001 -3.787847 -5.552360
v 19.366069 -3.922092 -5.490854
v 25.500001 -3.657097 -5.620982
v 19.366069 -3.787847 -5.552360
v 25.500001 -3.530219 -5.696525
v 19.366069 -3.657097 -5.620982
v 25.500001 -3.407579 -5.778768
v 19.366069 -3.530219 -5.696525
v 25.500001 -3.289530 -5.867476
v 19.366069 -3.407579 -5.778768
v 25.500001 -3.176413 -5.962393
v 19.366069 -3.289530 -5.867476
v 25.500001 -3.068553 -6.063244
v 19.366069 -3.176413 -5.962393
v 25.500001 -2.966263 -6.169740
v 19.366069 -3.068553 -6.063244
v 25.500001 -2.869836 -6.281573
v 19.366069 -2.966263 -6.169740
v 25.500001 -2.779552 -6.398420
v 19.366069 -2.869836 -6.281573
v 25.500001 -2.695669 -6.519945
v 19.366069 -2.779552 -6.398420
v 25.500001 -2.618430 -6.645797
v 19.366069 -2.695669 -6.519945
v 25.500001 -2.548058 -6.775614
v 19.366069 -2.618430 -6.645797
v 25.500001 -2.484756 -6.909021
v 19.366069 -2.548058 -6.775614
v 25.500001 -2.428705 -7.045634
v 19.366069 -2.484756 -6.909021
v 25.500001 -2.380069 -7.185058
v 19.366069 -2.428705 -7.045634
v 25.500001 -2.338986 -7.326892
v 19.366069 -2.380069 -7.185058
v 25.500001 -2.305576 -7.470727
v 19.366069 -2.338986 -7.326892
v 25.500001 -2.279934 -7.616147
v 19.366069 -2.305576 -7.470727
v 25.500001 -2.262135 -7.762735
v 19.366069 -2.279934 -7.616147
v 25.500001 -2.252230 -7.910066
v 19.366069 -2.262135 -7.762735
v 19.366069 -2.252230 -7.910066
v 19.366069 -2.250248 -8.057717
v 25.500001 -2.250000 -8.020797
v 25.500001 -2.250248 -8.057717
v 25.500001 -2.256194 -8.205261
v 25.500001 -2.270051 -8.352273
v 19.366069 -2.256194 -8.205261
v 25.500001 -2.291779 -8.498330
v 19.366069 -2.270051 -8.352273
v 25.500001 -2.321315 -8.643010
v 19.366069 -2.291779 -8.498330
v 25.500001 -2.358575 -8.785895
v 19.366069 -2.321315 -8.643010
v 25.500001 -2.403451 -8.926575
v 19.366069 -2.358575 -8.785895
v 25.500001 -2.455813 -9.064643
v 19.366069 -2.403451 -8.926575
v 25.500001 -2.515511 -9.199702
v 19.366069 -2.455813 -9.064643
v 25.500001 -2.582373 -9.331361
v 19.366069 -2.515511 -9.199702
v 25.500001 -2.656205 -9.459242
v 19.366069 -2.582373 -9.331361
v 25.500001 -2.736794 -9.582975
v 19.366069 -2.656205 -9.459242
v 25.500001 -2.823910 -9.702205
v 19.366069 -2.736794 -9.582975
v 25.500001 -2.917299 -9.816586
v 19.366069 -2.823910 -9.702205
v 25.500001 -3.016693 -9.925789
v 19.366069 -2.917299 -9.816586
v 25.500001 -3.121806 -10.029500
v 19.366069 -3.016693 -9.925789
v 25.500001 -3.232334 -10.127420
v 19.366069 -3.121806 -10.029500
v 25.500001 -3.347959 -10.219265
v 19.366069 -3.232334 -10.127420
v 25.500001 -3.468347 -10.304772
v 19.366069 -3.347959 -10.219265
v 25.500001 -3.593151 -10.383693
v 19.366069 -3.468347 -10.304772
v 25.500001 -3.722011 -10.455801
v 19.366069 -3.593151 -10.383693
v 25.500001 -3.854556 -10.520889
v 19.366069 -3.722011 -10.455801
v 25.500001 -3.990404 -10.578768
v 19.366069 -3.854556 -10.520889
v 25.500001 -4.129163 -10.629273
v 19.366069 -3.990404 -10.578768
v 25.500001 -4.270433 -10.672256
v 19.366069 -4.129163 -10.629273
v 25.500001 -4.413806 -10.707594
v 19.366069 -4.270433 -10.672256
v 25.500001 -4.558869 -10.735186
v 19.366069 -4.413806 -10.707594
v 25.500001 -4.705204 -10.754951
v 19.366069 -4.558869 -10.735186
v 25.500001 -4.852389 -10.766833
v 19.366069 -4.705204 -10.754951
v 19.366069 -4.852389 -10.766833
v 19.366069 -2.700000 -4.037080
v 19.366069 -0.400000 -8.020797
v 19.366069 -2.700000 -12.004514
v 19.366069 -7.300000 -4.037080
v 19.366069 -9.600000 -8.020797
v 19.366069 -7.300000 -12.004514
v 14.866069 -9.600000 -8.020797
v 14.866069 -7.300000 -4.037080
v 14.866069 -2.700000 -4.037080
v 14.866069 -0.400000 -8.020797
v 14.866069 -2.700000 -12.004514
v 14.866069 -7.300000 -12.004514
v 14.866069 0.000000 -2.000000
v 14.866069 0.000000 -14.041595
v 14.866069 -10.000000 -14.041595
v 14.866069 -10.000000 -2.000000
v 25.500001 -10.000000 -14.041595
v 25.500001 -10.000000 -2.000000
v 17.580774 0.000000 -14.041595
v 25.500001 0.000000 -14.041595
v 17.613915 0.000000 -14.000000
v 25.500001 0.000000 -14.000000
v 19.905522 7.957270 -14.000000
v 20.053829 7.956210 -14.000000
v 17.613915 21.999972 -14.000000
v 20.129455 13.451753 -14.000000
v 19.981175 13.454772 -14.000000
v 20.201977 7.963145 -14.000000
v 20.349536 7.978055 -14.000000
v 19.757489 7.966324 -14.000000
v 20.277356 13.440745 -14.000000
v 19.832948 13.449795 -14.000000
v 25.500001 21.999986 -14.000000
v 20.424449 13.421781 -14.000000
v 19.610158 7.983344 -14.000000
v 19.685205 13.436834 -14.000000
v 19.463960 8.008280 -14.000000
v 20.570305 13.394915 -14.000000
v 20.496076 8.000898 -14.000000
v 19.538376 13.415929 -14.000000
v 19.319319 8.041061 -14.000000
v 20.714501 13.360227 -14.000000
v 20.641172 8.031607 -14.000000
v 19.392887 13.387139 -14.000000
v 19.176655 8.081591 -14.000000
v 20.856616 13.317816 -14.000000
v 20.784400 8.070092 -14.000000
v 19.249163 13.350549 -14.000000
v 19.036385 8.129752 -14.000000
v 20.996238 13.267807 -14.000000
v 20.925346 8.116242 -14.000000
v 19.107620 13.306265 -14.000000
v 18.898915 8.185404 -14.000000
v 21.132960 13.210344 -14.000000
v 21.063598 8.169922 -14.000000
v 18.968671 13.254416 -14.000000
v 18.764646 8.248385 -14.000000
v 21.266386 13.145595 -14.000000
v 21.198754 8.230976 -14.000000
v 18.832720 13.195153 -14.000000
v 18.633968 8.318512 -14.000000
v 21.396126 13.073748 -14.000000
v 21.330422 8.299226 -14.000000
v 18.700162 13.128647 -14.000000
v 18.507261 8.395581 -14.000000
v 21.521803 12.995013 -14.000000
v 21.458218 8.374475 -14.000000
v 18.571382 13.055093 -14.000000
v 18.384895 8.479367 -14.000000
v 21.643052 12.909617 -14.000000
v 21.581771 8.456503 -14.000000
v 18.446756 12.974704 -14.000000
v 18.267223 8.569628 -14.000000
v 21.759520 12.817810 -14.000000
v 21.700722 8.545071 -14.000000
v 18.326646 12.887714 -14.000000
v 18.154590 8.666101 -14.000000
v 21.870869 12.719858 -14.000000
v 21.814724 8.639923 -14.000000
v 18.211401 12.794377 -14.000000
v 18.047323 8.768504 -14.000000
v 21.976774 12.616047 -14.000000
v 21.923446 8.740782 -14.000000
v 18.101356 12.694963 -14.000000
v 17.945733 8.876541 -14.000000
v 22.076928 12.506678 -14.000000
v 22.026571 8.847354 -14.000000
v 17.996831 12.589762 -14.000000
v 17.850116 8.989896 -14.000000
v 22.171039 12.392069 -14.000000
v 22.123800 8.959331 -14.000000
v 17.898131 12.479079 -14.000000
v 17.760750 9.108241 -14.000000
v 22.258833 12.272554 -14.000000
v 22.214850 9.076385 -14.000000
v 17.613915 9.337158 -14.000000
v 17.677895 9.231231 -14.000000
v 17.805543 12.363238 -14.000000
v 17.719335 12.242574 -14.000000
v 17.639759 12.117438 -14.000000
v 22.340056 12.148481 -14.000000
v 22.299456 9.198177 -14.000000
v 22.377372 9.324353 -14.000000
v 22.414470 12.020210 -14.000000
v 22.448371 9.454544 -14.000000
v 22.481860 11.888114 -14.000000
v 22.512247 9.588374 -14.000000
v 22.542029 11.752578 -14.000000
v 22.568814 9.725452 -14.000000
v 22.594803 11.613995 -14.000000
v 22.617908 9.865380 -14.000000
v 22.640028 11.472770 -14.000000
v 22.659386 10.007751 -14.000000
v 22.677572 11.329312 -14.000000
v 22.693126 10.152151 -14.000000
v 22.707326 11.184039 -14.000000
v 22.719032 10.298159 -14.000000
v 22.729204 11.037373 -14.000000
v 22.749099 10.741573 -14.000000
v 22.743142 10.889742 -14.000000
v 22.747059 10.593299 -14.000000
v 22.737027 10.445351 -14.000000
v 17.613915 12.073345 -14.000000
v 17.639759 12.117438 -2.000000
v 17.719335 12.242574 -2.000000
v 17.805543 12.363238 -2.000000
v 17.898131 12.479079 -2.000000
v 17.996831 12.589762 -2.000000
v 18.101356 12.694963 -2.000000
v 18.326646 12.887714 -2.000000
v 18.446756 12.974704 -2.000000
v 18.571382 13.055093 -2.000000
v 18.700162 13.128647 -2.000000
v 18.832720 13.195153 -2.000000
v 18.968671 13.254416 -2.000000
v 19.107620 13.306265 -2.000000
v 19.249163 13.350549 -2.000000
v 19.392887 13.387139 -2.000000
v 19.538376 13.415929 -2.000000
v 19.685205 13.436834 -2.000000
v 19.832948 13.449795 -2.000000
v 19.981175 13.454772 -2.000000
v 20.129455 13.451753 -2.000000
v 20.277356 13.440745 -2.000000
v 20.424449 13.421781 -2.000000
v 20.714501 13.360227 -2.000000
v 20.856616 13.317816 -2.000000
v 21.132960 13.210344 -2.000000
v 20.996238 13.267807 -2.000000
v 21.266386 13.145595 -2.000000
v 21.521803 12.995013 -2.000000
v 21.396126 13.073748 -2.000000
v 21.759520 12.817810 -2.000000
v 21.870869 12.719858 -2.000000
v 22.076928 12.506678 -2.000000
v 21.976774 12.616047 -2.000000
v 22.171039 12.392069 -2.000000
v 22.258833 12.272554 -2.000000
v 22.340056 12.148481 -2.000000
v 22.414470 12.020210 -2.000000
v 22.481860 11.888114 -2.000000
v 22.542029 11.752578 -2.000000
v 22.594803 11.613995 -2.000000
v 22.640028 11.472770 -2.000000
v 22.677572 11.329312 -2.000000
v 22.707326 11.184039 -2.000000
v 22.729204 11.037373 -2.000000
v 22.743142 10.889742 -2.000000
v 22.749099 10.741573 -2.000000
v 22.747059 10.593299 -2.000000
v 22.737027 10.445351 -2.000000
v 22.719032 10.298159 -2.000000
v 22.693126 10.152151 -2.000000
v 22.659386 10.007751 -2.000000
v 22.617908 9.865380 -2.000000
v 22.568814 9.725452 -2.000000
v 22.512247 9.588374 -2.000000
v 22.448371 9.454544 -2.000000
v 22.377372 9.324353 -2.000000
v 22.299456 9.198177 -2.000000
v 22.214850 9.076385 -2.000000
v 22.123800 8.959331 -2.000000
v 22.026571 8.847354 -2.000000
v 21.923446 8.740782 -2.000000
v 21.814724 8.639923 -2.000000
v 21.700722 8.545071 -2.000000
v 21.581771 8.456503 -2.000000
v 21.458218 8.374475 -2.000000
v 21.330422 8.299226 -2.000000
v 21.198754 8.230976 -2.000000
v 21.063598 8.169922 -2.000000
v 20.925346 8.116242 -2.000000
v 20.784400 8.070092 -2.000000
v 20.641172 8.031607 -2.000000
v 20.496076 8.000898 -2.000000
v 20.349536 7.978055 -2.000000
v 20.201977 7.963145 -2.000000
v 20.053829 7.956210 -2.000000
v 19.905522 7.957270 -2.000000
v 19.757489 7.966324 -2.000000
v 19.610158 7.983344 -2.000000
v 19.463960 8.008280 -2.000000
v 19.319319 8.041061 -2.000000
v 19.176655 8.081591 -2.000000
v 19.036385 8.129752 -2.000000
v 18.898915 8.185404 -2.000000
v 18.764646 8.248385 -2.000000
v 18.633968 8.318512 -2.000000
v 18.507261 8.395581 -2.000000
v 18.384895 8.479367 -2.000000
v 18.267223 8.569628 -2.000000
v 18.154590 8.666101 -2.000000
v 18.047323 8.768504 -2.000000
v 17.945733 8.876541 -2.000000
v 17.850116 8.989896 -2.000000
v 17.760750 9.108241 -2.000000
v 17.677895 9.231231 -2.000000
v 17.601793 9.358508 -2.000000
v 17.532663 9.489702 -2.000000
v 17.601793 9.358508 -14.015238
v 17.566541 9.423263 -14.059396
v 17.470709 9.624432 -2.000000
v 17.532663 9.489702 -14.101621
v 17.500953 9.556268 -14.140956
v 17.416108 9.762305 -2.000000
v 17.470709 9.624432 -14.178305
v 17.442653 9.692560 -14.212806
v 17.369022 9.902921 -2.000000
v 17.416108 9.762305 -14.245321
v 17.391786 9.831792 -14.275006
v 17.329586 10.045870 -2.000000
v 17.369022 9.902921 -14.302695
v 17.348391 9.973945 -14.327712
v 17.297915 10.190738 -2.000000
v 17.329586 10.045870 -14.350452
v 17.312816 10.117893 -14.370678
v 17.274101 10.337102 -2.000000
v 17.297915 10.190738 -14.388612
v 17.285062 10.263507 -14.404049
v 17.258214 10.484536 -2.000000
v 17.274101 10.337102 -14.417192
v 17.265197 10.410401 -14.427855
v 17.250299 10.632613 -2.000000
v 17.258214 10.484536 -14.436207
v 17.253259 10.558501 -14.442128
v 17.249339 10.705251 -2.000000
v 17.250299 10.632613 -14.445663
v 17.250338 10.779360 -14.445616
v 17.253339 10.853485 -14.442033
v 17.249339 10.705251 -14.446809
v 17.253339 10.853485 -2.000000
v 17.258362 10.927795 -14.436030
v 17.265325 11.001288 -14.427701
v 17.265325 11.001288 -2.000000
v 17.274340 11.075162 -14.416907
v 17.285263 11.148230 -14.403808
v 17.285263 11.148230 -2.000000
v 17.298238 11.221457 -14.388223
v 17.313095 11.293883 -14.370342
v 17.313095 11.293883 -2.000000
v 17.329987 11.366253 -14.349967
v 17.348741 11.437824 -14.327288
v 17.348741 11.437824 -2.000000
v 17.369576 11.509395 -14.302022
v 17.392096 11.579635 -14.274628
v 17.392096 11.579635 -2.000000
v 17.416810 11.650117 -14.244463
v 17.443034 11.718902 -14.212339
v 17.443034 11.718902 -2.000000
v 17.471491 11.787898 -14.177342
v 17.501407 11.855221 -14.140394
v 17.501407 11.855221 -2.000000
v 17.533519 11.922535 -14.100557
v 17.567046 11.988196 -14.058766
v 17.567046 11.988196 -2.000000
v 17.590184 12.031123 -14.029804
v 21.643052 12.909617 -2.000000
v 20.570305 13.394915 -2.000000
v 18.211401 12.794377 -2.000000
v 25.500001 21.999944 -14.036672
v 17.584705 21.999972 -14.036672
v 25.500001 34.000000 -14.036672
v 25.500001 34.000000 -2.000000
v 25.500001 30.750000 -8.018336
v 25.500001 29.469781 -5.694063
v 25.500001 29.592421 -5.776307
v 25.500001 30.747770 -7.907605
v 25.500001 29.342903 -5.618521
v 25.500001 28.940555 -5.434181
v 25.500001 29.077908 -5.488392
v 25.500001 28.658118 -5.348246
v 25.500001 28.800491 -5.387421
v 25.500001 28.368096 -5.293083
v 25.500001 28.513848 -5.316770
v 25.500001 27.486152 -5.316770
v 25.500001 27.631904 -5.293083
v 25.500001 27.059445 -5.434181
v 25.500001 27.199509 -5.387421
v 25.500001 25.252230 -7.907605
v 25.500001 30.641425 -8.783434
v 25.500001 30.596549 -8.924114
v 25.500001 30.749752 -8.055255
v 25.500001 30.694424 -7.468265
v 25.500001 30.720066 -7.613686
v 25.500001 30.515244 -6.906560
v 25.500001 30.571295 -7.043172
v 25.500001 29.710470 -5.865015
v 25.500001 29.212153 -5.549898
v 25.500001 28.073832 -5.269327
v 25.500001 28.221283 -5.277253
v 25.500001 27.341882 -5.348246
v 25.500001 25.256194 -8.202799
v 25.500001 25.250248 -8.055255
v 25.500001 25.305576 -7.468265
v 25.500001 29.009596 -10.576307
v 25.500001 28.870837 -10.626811
v 25.500001 30.678685 -8.640548
v 25.500001 30.729949 -8.349812
v 25.500001 30.708221 -8.495868
v 25.500001 30.737865 -7.760273
v 25.500001 30.661014 -7.324431
v 25.500001 30.619931 -7.182597
v 25.500001 27.778717 -5.277253
v 25.500001 27.926168 -5.269327
v 25.500001 26.068553 -6.060783
v 25.500001 26.176413 -5.959931
v 25.500001 25.262135 -7.760273
v 25.500001 28.586194 -10.705133
v 25.500001 28.441131 -10.732724
v 25.500001 28.729567 -10.669794
v 25.500001 29.652041 -10.216804
v 25.500001 29.531653 -10.302310
v 25.500001 29.983307 -9.923328
v 25.500001 29.878194 -10.027039
v 25.500001 30.544187 -9.062182
v 25.500001 30.484489 -9.197240
v 25.500001 30.743806 -8.202799
v 25.500001 26.530219 -5.694063
v 25.500001 26.657097 -5.618521
v 25.500001 26.289530 -5.865015
v 25.500001 25.869836 -6.279111
v 25.500001 25.966263 -6.167278
v 25.500001 28.294796 -10.752489
v 25.500001 28.147611 -10.764371
v 25.500001 29.406849 -10.381231
v 25.500001 29.767666 -10.124958
v 25.500001 30.263206 -9.580514
v 25.500001 30.176090 -9.699743
v 25.500001 30.381570 -6.643336
v 25.500001 30.451942 -6.773153
v 25.500001 30.220448 -6.395958
v 25.500001 30.304331 -6.517484
v 25.500001 29.823587 -5.959931
v 25.500001 29.931447 -6.060783
v 25.500001 26.787847 -5.549898
v 25.500001 26.922092 -5.488392
v 25.500001 25.695669 -6.517484
v 25.500001 25.779552 -6.395958
v 25.500001 25.548058 -6.773153
v 25.500001 25.618430 -6.643336
v 25.500001 25.270051 -8.349812
v 25.500001 25.582373 -9.328900
v 25.500001 25.823910 -9.699743
v 25.500001 25.736794 -9.580514
v 25.500001 29.277989 -10.453340
v 25.500001 29.145444 -10.518428
v 25.500001 30.082701 -9.814124
v 25.500001 30.417627 -9.328900
v 25.500001 30.343795 -9.456781
v 25.500001 30.033737 -6.167278
v 25.500001 30.130164 -6.279111
v 25.500001 26.407579 -5.776307
v 25.500001 25.279934 -7.613686
v 25.500001 25.321315 -8.640548
v 25.500001 25.291779 -8.495868
v 25.500001 25.515511 -9.197240
v 25.500001 25.455813 -9.062182
v 25.500001 25.656205 -9.456781
v 25.500001 25.917299 -9.814124
v 25.500001 27.558869 -10.732724
v 25.500001 27.413806 -10.705133
v 25.500001 25.358575 -8.783434
v 25.500001 26.016693 -9.923328
v 25.500001 27.705204 -10.752489
v 25.500001 25.428705 -7.043172
v 25.500001 25.484756 -6.906560
v 25.500001 25.403451 -8.924114
v 25.500001 26.854556 -10.518428
v 25.500001 26.722011 -10.453340
v 25.500001 27.270433 -10.669794
v 25.500001 27.129163 -10.626811
v 25.500001 27.852389 -10.764371
v 25.500001 25.338986 -7.324431
v 25.500001 26.990404 -10.576307
v 25.500001 28.000000 -10.768336
v 25.500001 25.380069 -7.182597
v 25.500001 26.347959 -10.216804
v 25.500001 26.232334 -10.124958
v 25.500001 26.593151 -10.381231
v 25.500001 26.468347 -10.302310
v 25.500001 26.121806 -10.027039
v 14.866069 34.000000 -2.000000
v 14.866069 34.000000 -14.036672
v 14.866069 22.000000 -2.000000
v 14.866069 22.000000 -14.036672
v 14.816157 0.000000 -2.341257
v 14.758413 0.000000 -2.681277
v 14.816157 22.000000 -2.341257
v 14.692867 0.000000 -3.019879
v 14.758413 22.000000 -2.681277
v 14.619553 0.000000 -3.356885
v 14.692867 22.000000 -3.019879
v 14.538510 0.000000 -3.692115
v 14.619553 22.000000 -3.356885
v 14.449782 0.000000 -4.025395
v 14.538510 22.000000 -3.692115
v 14.353415 0.000000 -4.356546
v 14.449782 22.000000 -4.025395
v 14.249459 0.000000 -4.685394
v 14.353415 22.000000 -4.356546
v 14.137971 0.000000 -5.011765
v 14.249459 22.000000 -4.685394
v 14.019008 0.000000 -5.335486
v 14.137971 22.000000 -5.011765
v 13.892634 0.000000 -5.656387
v 14.019008 22.000000 -5.335486
v 13.758916 0.000000 -5.974297
v 13.892634 22.000000 -5.656387
v 13.617924 0.000000 -6.289050
v 13.758916 22.000000 -5.974297
v 13.469733 0.000000 -6.600477
v 13.617924 22.000000 -6.289050
v 13.314421 0.000000 -6.908415
v 13.469733 22.000000 -6.600477
v 13.152070 0.000000 -7.212701
v 13.314421 22.000000 -6.908415
v 12.982766 0.000000 -7.513174
v 13.152070 22.000000 -7.212701
v 12.806599 0.000000 -7.809675
v 12.982766 22.000000 -7.513174
v 12.623662 0.000000 -8.102047
v 12.806599 22.000000 -7.809675
v 12.434051 0.000000 -8.390136
v 12.623662 22.000000 -8.102047
v 12.237866 0.000000 -8.673790
v 12.434051 22.000000 -8.390136
v 12.035212 0.000000 -8.952858
v 12.237866 22.000000 -8.673790
v 11.826196 0.000000 -9.227193
v 12.035212 22.000000 -8.952858
v 11.610927 0.000000 -9.496650
v 11.826196 22.000000 -9.227193
v 11.389521 0.000000 -9.761087
v 11.610927 22.000000 -9.496650
v 11.162093 0.000000 -10.020364
v 11.389521 22.000000 -9.761087
v 10.928764 0.000000 -10.274343
v 11.162093 22.000000 -10.020364
v 10.689658 0.000000 -10.522890
v 10.928764 22.000000 -10.274343
v 10.444900 0.000000 -10.765875
v 10.689658 22.000000 -10.522890
v 10.194621 0.000000 -11.003168
v 10.444900 22.000000 -10.765875
v 9.938952 0.000000 -11.234644
v 10.194621 22.000000 -11.003168
v 9.678029 0.000000 -11.460181
v 9.938952 22.000000 -11.234644
v 9.411990 0.000000 -11.679659
v 9.678029 22.000000 -11.460181
v 9.140975 0.000000 -11.892963
v 9.411990 22.000000 -11.679659
v 8.865128 0.000000 -12.099980
v 9.140975 22.000000 -11.892963
v 8.584594 0.000000 -12.300600
v 8.865128 22.000000 -12.099980
v 8.299521 0.000000 -12.494717
v 8.584594 22.000000 -12.300600
v 8.010061 0.000000 -12.682228
v 8.299521 22.000000 -12.494717
v 7.716367 0.000000 -12.863036
v 8.010061 22.000000 -12.682228
v 7.418593 0.000000 -13.037043
v 7.716367 22.000000 -12.863036
v 7.116897 0.000000 -13.204157
v 7.418593 22.000000 -13.037043
v 6.811439 0.000000 -13.364292
v 7.116897 22.000000 -13.204157
v 6.502380 0.000000 -13.517361
v 6.811439 22.000000 -13.364292
v 6.189883 0.000000 -13.663284
v 6.502380 22.000000 -13.517361
v 5.874115 0.000000 -13.801985
v 6.189883 22.000000 -13.663284
v 5.555240 0.000000 -13.933388
v 5.874115 22.000000 -13.801985
v 5.233429 0.000000 -14.057426
v 5.555240 22.000000 -13.933388
v 4.908851 0.000000 -14.174032
v 5.233429 22.000000 -14.057426
v 4.581679 0.000000 -14.283145
v 4.908851 22.000000 -14.174032
v 4.252084 0.000000 -14.384707
v 4.581679 22.000000 -14.283145
v 3.920241 0.000000 -14.478664
v 4.252084 22.000000 -14.384707
v 3.586325 0.000000 -14.564967
v 3.920241 22.000000 -14.478664
v 3.250514 0.000000 -14.643571
v 3.586325 22.000000 -14.564967
v 2.912984 0.000000 -14.714432
v 3.250514 22.000000 -14.643571
v 2.573915 0.000000 -14.777515
v 2.912984 22.000000 -14.714432
v 2.233484 0.000000 -14.832786
v 2.573915 22.000000 -14.777515
v 1.891873 0.000000 -14.880216
v 2.233484 22.000000 -14.832786
v 1.549262 0.000000 -14.919778
v 1.891873 22.000000 -14.880216
v 1.205832 0.000000 -14.951454
v 1.549262 22.000000 -14.919778
v 0.861764 0.000000 -14.975225
v 1.205832 22.000000 -14.951454
v 0.517241 0.000000 -14.991079
v 0.861764 22.000000 -14.975225
v 0.172444 0.000000 -14.999009
v 0.517241 22.000000 -14.991079
v -0.172444 0.000000 -14.999009
v 0.172444 22.000000 -14.999009
v -0.517241 0.000000 -14.991079
v -0.172444 22.000000 -14.999009
v -0.861764 0.000000 -14.975225
v -0.517241 22.000000 -14.991079
v -1.205832 0.000000 -14.951454
v -0.861764 22.000000 -14.975225
v -1.549262 0.000000 -14.919778
v -1.205832 22.000000 -14.951454
v -1.891873 0.000000 -14.880216
v -1.549262 22.000000 -14.919778
v -2.233484 0.000000 -14.832786
v -1.891873 22.000000 -14.880216
v -2.573915 0.000000 -14.777515
v -2.233484 22.000000 -14.832786
v -2.912984 0.000000 -14.714432
v -2.573915 22.000000 -14.777515
v -3.250514 0.000000 -14.643571
v -2.912984 22.000000 -14.714432
v -3.586325 0.000000 -14.564967
v -3.250514 22.000000 -14.643571
v -3.920241 0.000000 -14.478664
v -3.586325 22.000000 -14.564967
v -4.252084 0.000000 -14.384707
v -3.920241 22.000000 -14.478664
v -4.581679 0.000000 -14.283145
v -4.252084 22.000000 -14.384707
v -4.908851 0.000000 -14.174032
v -4.581679 22.000000 -14.283145
v -5.233429 0.000000 -14.057426
v -4.908851 22.000000 -14.174032
v -5.555240 0.000000 -13.933388
v -5.233429 22.000000 -14.057426
v -5.874115 0.000000 -13.801985
v -5.555240 22.000000 -13.933388
v -6.189883 0.000000 -13.663284
v -5.874115 22.000000 -13.801985
v -6.502380 0.000000 -13.517361
v -6.189883 22.000000 -13.663284
v -6.811439 0.000000 -13.364292
v -6.502380 22.000000 -13.517361
v -7.116897 0.000000 -13.204157
v -6.811439 22.000000 -13.364292
v -7.418593 0.000000 -13.037043
v -7.116897 22.000000 -13.204157
v -7.716367 0.000000 -12.863036
v -7.418593 22.000000 -13.037043
v -8.010061 0.000000 -12.682228
v -7.716367 22.000000 -12.863036
v -8.299521 0.000000 -12.494717
v -8.010061 22.000000 -12.682228
v -8.584594 0.000000 -12.300600
v -8.299521 22.000000 -12.494717
v -8.865128 0.000000 -12.099980
v -8.584594 22.000000 -12.300600
v -9.140975 0.000000 -11.892963
v -8.865128 22.000000 -12.099980
v -9.411990 0.000000 -11.679659
v -9.140975 22.000000 -11.892963
v -9.678029 0.000000 -11.460181
v -9.411990 22.000000 -11.679659
v -9.938952 0.000000 -11.234644
v -9.678029 22.000000 -11.460181
v -10.194621 0.000000 -11.003168
v -9.938952 22.000000 -11.234644
v -10.444900 0.000000 -10.765875
v -10.194621 22.000000 -11.003168
v -10.689658 0.000000 -10.522890
v -10.444900 22.000000 -10.765875
v -10.928764 0.000000 -10.274343
v -10.689658 22.000000 -10.522890
v -11.162093 0.000000 -10.020364
v -10.928764 22.000000 -10.274343
v -11.389521 0.000000 -9.761087
v -11.162093 22.000000 -10.020364
v -11.610927 0.000000 -9.496650
v -11.389521 22.000000 -9.761087
v -11.826196 0.000000 -9.227193
v -11.610927 22.000000 -9.496650
v -12.035212 0.000000 -8.952858
v -11.826196 22.000000 -9.227193
v -12.237866 0.000000 -8.673790
v -12.035212 22.000000 -8.952858
v -12.434051 0.000000 -8.390136
v -12.237866 22.000000 -8.673790
v -12.623662 0.000000 -8.102047
v -12.434051 22.000000 -8.390136
v -12.806599 0.000000 -7.809675
v -12.623662 22.000000 -8.102047
v -12.982766 0.000000 -7.513174
v -12.806599 22.000000 -7.809675
v -13.152070 0.000000 -7.212701
v -12.982766 22.000000 -7.513174
v -13.314421 0.000000 -6.908415
v -13.152070 22.000000 -7.212701
v -13.469733 0.000000 -6.600477
v -13.314421 22.000000 -6.908415
v -13.617924 0.000000 -6.289050
v -13.469733 22.000000 -6.600477
v -13.758916 0.000000 -5.974297
v -13.617924 22.000000 -6.289050
v -13.892634 0.000000 -5.656387
v -13.758916 22.000000 -5.974297
v -14.019008 0.000000 -5.335486
v -13.892634 22.000000 -5.656387
v -14.137971 0.000000 -5.011765
v -14.019008 22.000000 -5.335486
v -14.249459 0.000000 -4.685394
v -14.137971 22.000000 -5.011765
v -14.353415 0.000000 -4.356546
v -14.249459 22.000000 -4.685394
v -14.449782 0.000000 -4.025395
v -14.353415 22.000000 -4.356546
v -14.538510 0.000000 -3.692115
v -14.449782 22.000000 -4.025395
v -14.619553 0.000000 -3.356885
v -14.538510 22.000000 -3.692115
v -14.692867 0.000000 -3.019879
v -14.619553 22.000000 -3.356885
v -14.758413 0.000000 -2.681277
v -14.692867 22.000000 -3.019879
v -14.816157 0.000000 -2.341257
v -14.758413 22.000000 -2.681277
v -14.866069 0.000000 -2.000000
v -14.816157 22.000000 -2.341257
v -14.866069 22.000000 -2.000000
v 19.366069 28.000000 -10.768336
v 19.366069 27.852389 -10.764371
v 19.366069 27.705204 -10.752489
v 19.366069 27.558869 -10.732724
v 19.366069 27.413806 -10.705133
v 19.366069 27.270433 -10.669794
v 19.366069 27.129163 -10.626811
v 19.366069 26.990404 -10.576307
v 19.366069 26.854556 -10.518428
v 19.366069 26.722011 -10.453340
v 19.366069 26.593151 -10.381231
v 19.366069 26.468347 -10.302310
v 19.366069 26.347959 -10.216804
v 19.366069 26.232334 -10.124958
v 19.366069 26.121806 -10.027039
v 19.366069 26.016693 -9.923328
v 19.366069 25.917299 -9.814124
v 19.366069 25.823910 -9.699743
v 19.366069 25.736794 -9.580514
v 19.366069 25.656205 -9.456781
v 19.366069 25.582373 -9.328900
v 19.366069 25.515511 -9.197240
v 19.366069 25.455813 -9.062182
v 19.366069 25.403451 -8.924114
v 19.366069 25.358575 -8.783434
v 19.366069 25.321315 -8.640548
v 19.366069 25.291779 -8.495868
v 19.366069 25.270051 -8.349812
v 19.366069 25.256194 -8.202799
v 19.366069 25.250248 -8.055255
v 19.366069 25.252230 -7.907605
v 19.366069 25.262135 -7.760273
v 19.366069 25.279934 -7.613686
v 19.366069 25.305576 -7.468265
v 19.366069 25.338986 -7.324431
v 19.366069 25.380069 -7.182597
v 19.366069 25.428705 -7.043172
v 19.366069 25.484756 -6.906560
v 19.366069 25.548058 -6.773153
v 19.366069 25.618430 -6.643336
v 19.366069 25.695669 -6.517484
v 19.366069 25.779552 -6.395958
v 19.366069 25.869836 -6.279111
v 19.366069 25.966263 -6.167278
v 19.366069 26.068553 -6.060783
v 19.366069 26.176413 -5.959931
v 19.366069 26.289530 -5.865015
v 19.366069 26.407579 -5.776307
v 19.366069 26.530219 -5.694063
v 19.366069 26.657097 -5.618521
v 19.366069 26.787847 -5.549898
v 19.366069 26.922092 -5.488392
v 19.366069 27.059445 -5.434181
v 19.366069 27.199509 -5.387421
v 19.366069 27.341882 -5.348246
v 19.366069 27.486152 -5.316770
v 19.366069 27.631904 -5.293083
v 19.366069 27.778717 -5.277253
v 19.366069 27.926168 -5.269327
v 19.366069 28.000000 -5.268336
v 19.366069 28.073832 -5.269327
v 19.366069 28.221283 -5.277253
v 19.366069 28.368096 -5.293083
v 19.366069 28.513848 -5.316770
v 19.366069 28.658118 -5.348246
v 19.366069 28.800491 -5.387421
v 19.366069 28.940555 -5.434181
v 19.366069 29.077908 -5.488392
v 19.366069 29.212153 -5.549898
v 19.366069 29.342903 -5.618521
v 19.366069 29.469781 -5.694063
v 19.366069 29.592421 -5.776307
v 19.366069 29.710470 -5.865015
v 19.366069 29.823587 -5.959931
v 19.366069 29.931447 -6.060783
v 19.366069 30.033737 -6.167278
v 19.366069 30.130164 -6.279111
v 19.366069 30.220448 -6.395958
v 19.366069 30.304331 -6.517484
v 19.366069 30.381570 -6.643336
v 19.366069 30.451942 -6.773153
v 19.366069 30.515244 -6.906560
v 19.366069 30.571295 -7.043172
v 19.366069 30.619931 -7.182597
v 19.366069 30.661014 -7.324431
v 19.366069 30.694424 -7.468265
v 19.366069 30.720066 -7.613686
v 19.366069 30.737865 -7.760273
v 19.366069 30.747770 -7.907605
v 19.366069 30.749752 -8.055255
v 19.366069 30.743806 -8.202799
v 19.366069 30.729949 -8.349812
v 19.366069 30.708221 -8.495868
v 19.366069 30.678685 -8.640548
v 19.366069 30.641425 -8.783434
v 19.366069 30.596549 -8.924114
v 19.366069 30.544187 -9.062182
v 19.366069 30.484489 -9.197240
v 19.366069 30.417627 -9.328900
v 19.366069 30.343795 -9.456781
v 19.366069 30.263206 -9.580514
v 19.366069 30.176090 -9.699743
v 19.366069 30.082701 -9.814124
v 19.366069 29.983307 -9.923328
v 19.366069 29.878194 -10.027039
v 19.366069 29.767666 -10.124958
v 19.366069 29.652041 -10.216804
v 19.366069 29.531653 -10.302310
v 19.366069 29.406849 -10.381231
v 19.366069 29.277989 -10.453340
v 19.366069 29.145444 -10.518428
v 19.366069 29.009596 -10.576307
v 19.366069 28.870837 -10.626811
v 19.366069 28.729567 -10.669794
v 19.366069 28.586194 -10.705133
v 19.366069 28.441131 -10.732724
v 19.366069 28.294796 -10.752489
v 19.366069 28.147611 -10.764371
v -17.077132 0.000000 -14.649968
v -17.077132 22.000000 -14.649968
v -16.799703 22.000000 -14.967297
v -16.799703 0.000000 -14.967297
v -16.516379 22.000000 -15.279373
v -16.516379 0.000000 -15.279373
v -16.227258 22.000000 -15.586087
v -16.227258 0.000000 -15.586087
v -15.932442 22.000000 -15.887331
v -15.932442 0.000000 -15.887331
v -15.632035 22.000000 -16.182999
v -15.632035 0.000000 -16.182999
v -15.326143 22.000000 -16.472989
v -15.326143 0.000000 -16.472989
v -15.014871 22.000000 -16.757197
v -15.014871 0.000000 -16.757197
v -14.698330 22.000000 -17.035524
v -14.698330 0.000000 -17.035524
v -14.376631 22.000000 -17.307873
v -14.376631 0.000000 -17.307873
v -14.049887 22.000000 -17.574148
v -14.049887 0.000000 -17.574148
v -13.718212 22.000000 -17.834255
v -13.718212 0.000000 -17.834255
v -13.381722 22.000000 -18.088104
v -13.381722 0.000000 -18.088104
v -13.040537 22.000000 -18.335605
v -13.040537 0.000000 -18.335605
v -12.694775 22.000000 -18.576671
v -12.694775 0.000000 -18.576671
v -12.344557 22.000000 -18.811217
v -12.344557 0.000000 -18.811217
v -11.990008 22.000000 -19.039162
v -11.990008 0.000000 -19.039162
v -11.631251 22.000000 -19.260426
v -11.631251 0.000000 -19.260426
v -11.268412 22.000000 -19.474930
v -11.268412 0.000000 -19.474930
v -10.901618 22.000000 -19.682600
v -10.901618 0.000000 -19.682600
v -10.530999 22.000000 -19.883362
v -10.530999 0.000000 -19.883362
v -10.156683 22.000000 -20.077146
v -10.156683 0.000000 -20.077146
v -9.778804 22.000000 -20.263884
v -9.778804 0.000000 -20.263884
v -9.397492 22.000000 -20.443511
v -9.397492 0.000000 -20.443511
v -9.012883 22.000000 -20.615963
v -9.012883 0.000000 -20.615963
v -8.625110 22.000000 -20.781181
v -8.625110 0.000000 -20.781181
v -8.234311 22.000000 -20.939105
v -8.234311 0.000000 -20.939105
v -7.840622 22.000000 -21.089681
v -7.840622 0.000000 -21.089681
v -7.444181 22.000000 -21.232856
v -7.444181 0.000000 -21.232856
v -7.045128 22.000000 -21.368579
v -7.045128 0.000000 -21.368579
v -6.643602 22.000000 -21.496803
v -6.643602 0.000000 -21.496803
v -6.239745 22.000000 -21.617483
v -6.239745 0.000000 -21.617483
v -5.833698 22.000000 -21.730577
v -5.833698 0.000000 -21.730577
v -5.425604 22.000000 -21.836044
v -5.425604 0.000000 -21.836044
v -5.015606 22.000000 -21.933848
v -5.015606 0.000000 -21.933848
v -4.603848 22.000000 -22.023955
v -4.603848 0.000000 -22.023955
v -4.190473 22.000000 -22.106332
v -4.190473 0.000000 -22.106332
v -3.775629 22.000000 -22.180952
v -3.775629 0.000000 -22.180952
v -3.359459 22.000000 -22.247787
v -3.359459 0.000000 -22.247787
v -2.942110 22.000000 -22.306815
v -2.942110 0.000000 -22.306815
v -2.523729 22.000000 -22.358014
v -2.523729 0.000000 -22.358014
v -2.104462 22.000000 -22.401367
v -2.104462 0.000000 -22.401367
v -1.684457 22.000000 -22.436858
v -1.684457 0.000000 -22.436858
v -1.263860 22.000000 -22.464475
v -1.263860 0.000000 -22.464475
v -0.842820 22.000000 -22.484209
v -0.842820 0.000000 -22.484209
v -0.421484 22.000000 -22.496052
v -0.421484 0.000000 -22.496052
v -0.000000 22.000000 -22.500000
v -0.000000 0.000000 -22.500000
v 0.421484 22.000000 -22.496052
v 0.421484 0.000000 -22.496052
v 0.842820 22.000000 -22.484209
v 0.842820 0.000000 -22.484209
v 1.263860 22.000000 -22.464475
v 1.263860 0.000000 -22.464475
v 1.684457 22.000000 -22.436858
v 1.684457 0.000000 -22.436858
v 2.104462 22.000000 -22.401367
v 2.104462 0.000000 -22.401367
v 2.523729 22.000000 -22.358014
v 2.523729 0.000000 -22.358014
v 2.942110 22.000000 -22.306815
v 2.942110 0.000000 -22.306815
v 3.359459 22.000000 -22.247787
v 3.359459 0.000000 -22.247787
v 3.775629 22.000000 -22.180952
v 3.775629 0.000000 -22.180952
v 4.190473 22.000000 -22.106332
v 4.190473 0.000000 -22.106332
v 4.603848 22.000000 -22.023955
v 4.603848 0.000000 -22.023955
v 5.015606 22.000000 -21.933848
v 5.015606 0.000000 -21.933848
v 5.425604 22.000000 -21.836044
v 5.425604 0.000000 -21.836044
v 5.833698 22.000000 -21.730577
v 5.833698 0.000000 -21.730577
v 6.239745 22.000000 -21.617483
v 6.239745 0.000000 -21.617483
v 6.643602 22.000000 -21.496803
v 6.643602 0.000000 -21.496803
v 7.045128 22.000000 -21.368579
v 7.045128 0.000000 -21.368579
v 7.444181 22.000000 -21.232856
v 7.444181 0.000000 -21.232856
v 7.840622 22.000000 -21.089681
v 7.840622 0.000000 -21.089681
v 8.234311 22.000000 -20.939105
v 8.234311 0.000000 -20.939105
v 8.625110 22.000000 -20.781181
v 8.625110 0.000000 -20.781181
v 9.012883 22.000000 -20.615963
v 9.012883 0.000000 -20.615963
v 9.397492 22.000000 -20.443511
v 9.397492 0.000000 -20.443511
v 9.778804 22.000000 -20.263884
v 9.778804 0.000000 -20.263884
v 10.156683 22.000000 -20.077146
v 10.156683 0.000000 -20.077146
v 10.530999 22.000000 -19.883362
v 10.530999 0.000000 -19.883362
v 10.901618 22.000000 -19.682600
v 10.901618 0.000000 -19.682600
v 11.268412 22.000000 -19.474930
v 11.268412 0.000000 -19.474930
v 11.631251 22.000000 -19.260426
v 11.631251 0.000000 -19.260426
v 11.990008 22.000000 -19.039162
v 11.990008 0.000000 -19.039162
v 12.344557 22.000000 -18.811217
v 12.344557 0.000000 -18.811217
v 12.694775 22.000000 -18.576671
v 12.694775 0.000000 -18.576671
v 13.040537 22.000000 -18.335605
v 13.040537 0.000000 -18.335605
v 13.381722 22.000000 -18.088104
v 13.381722 0.000000 -18.088104
v 13.718212 22.000000 -17.834255
v 13.718212 0.000000 -17.834255
v 14.049887 22.000000 -17.574148
v 14.049887 0.000000 -17.574148
v 14.376631 22.000000 -17.307873
v 14.376631 0.000000 -17.307873
v 14.698330 22.000000 -17.035524
v 14.698330 0.000000 -17.035524
v 15.014871 22.000000 -16.757197
v 15.014871 0.000000 -16.757197
v 15.326143 22.000000 -16.472989
v 15.326143 0.000000 -16.472989
v 15.632035 22.000000 -16.182999
v 15.632035 0.000000 -16.182999
v 15.932442 22.000000 -15.887331
v 15.932442 0.000000 -15.887331
v 16.227258 22.000000 -15.586087
v 16.227258 0.000000 -15.586087
v 16.516379 22.000000 -15.279373
v 16.516379 0.000000 -15.279373
v 16.799703 22.000000 -14.967297
v 16.799703 0.000000 -14.967297
v 17.077132 22.000000 -14.649968
v 17.348568 22.000000 -14.327498
v 17.348568 0.000000 -14.327498
v 17.077132 0.000000 -14.649968
v -17.348568 0.000000 -14.327498
v -17.613915 0.000000 -14.000000
v -17.613915 9.337158 -14.000000
v -17.590184 9.379379 -14.029804
v -17.567046 9.422307 -14.058766
v -17.533519 9.487967 -14.100557
v -17.501407 9.555281 -14.140394
v -17.471491 9.622605 -14.177342
v -17.443034 9.691600 -14.212339
v -17.416810 9.760385 -14.244463
v -17.392096 9.830867 -14.274628
v -17.369576 9.901107 -14.302022
v -17.348568 22.000000 -14.327498
v -17.312816 11.292609 -14.370678
v -17.329586 11.364632 -14.350452
v -17.297915 11.219764 -14.388612
v -17.348391 11.436557 -14.327712
v -17.274101 11.073401 -14.417192
v -17.285062 11.146996 -14.404049
v -17.265197 11.000101 -14.427855
v -17.258214 10.925966 -14.436207
v -17.253259 10.852001 -14.442128
v -17.249339 10.705251 -14.446809
v -17.250299 10.777889 -14.445663
v -17.250338 10.631142 -14.445616
v -17.253339 10.557017 -14.442033
v -17.348741 9.972678 -14.327288
v -17.329987 10.044249 -14.349967
v -17.313095 10.116619 -14.370342
v -17.298238 10.189046 -14.388223
v -17.285263 10.262273 -14.403808
v -17.274340 10.335340 -14.416907
v -17.265325 10.409214 -14.427701
v -17.258362 10.482707 -14.436030
v -17.613915 22.000000 -14.000000
v -17.566541 11.987239 -14.059396
v -17.601793 12.051994 -14.015238
v -17.532663 11.920800 -14.101621
v -17.470709 11.786070 -14.178305
v -17.500953 11.854235 -14.140956
v -17.613915 12.073345 -14.000000
v -17.416108 11.648197 -14.245321
v -17.442653 11.717942 -14.212806
v -17.369022 11.507581 -14.302695
v -17.391786 11.578710 -14.275006
v -17.639759 9.293064 -14.000000
v -17.719335 9.167928 -14.000000
v -17.719335 9.167928 -2.000000
v -17.805543 9.047264 -2.000000
v -17.805543 9.047264 -14.000000
v -17.898131 8.931423 -14.000000
v -17.898131 8.931423 -2.000000
v -17.996831 8.820741 -2.000000
v -17.996831 8.820741 -14.000000
v -18.101356 8.715539 -14.000000
v -18.101356 8.715539 -2.000000
v -18.211401 8.616126 -14.000000
v -18.211401 8.616126 -2.000000
v -18.326646 8.522788 -14.000000
v -18.326646 8.522788 -2.000000
v -18.446756 8.435798 -14.000000
v -18.571382 8.355409 -14.000000
v -18.571382 8.355409 -2.000000
v -18.700162 8.281855 -2.000000
v -18.700162 8.281855 -14.000000
v -18.832720 8.215350 -14.000000
v -18.832720 8.215350 -2.000000
v -18.968671 8.156086 -14.000000
v -19.107620 8.104237 -14.000000
v -19.107620 8.104237 -2.000000
v -18.968671 8.156086 -2.000000
v -19.249163 8.059953 -14.000000
v -19.249163 8.059953 -2.000000
v -19.392887 8.023363 -14.000000
v -19.392887 8.023363 -2.000000
v -19.538376 7.994573 -14.000000
v -19.685205 7.973668 -14.000000
v -19.685205 7.973668 -2.000000
v -19.832948 7.960708 -2.000000
v -19.832948 7.960708 -14.000000
v -19.981175 7.955730 -14.000000
v -19.981175 7.955730 -2.000000
v -20.129455 7.958749 -14.000000
v -20.277356 7.969757 -14.000000
v -20.277356 7.969757 -2.000000
v -20.129455 7.958749 -2.000000
v -20.424449 7.988721 -14.000000
v -20.424449 7.988721 -2.000000
v -20.570305 8.015587 -14.000000
v -20.570305 8.015587 -2.000000
v -20.714500 8.050275 -14.000000
v -20.714500 8.050275 -2.000000
v -20.856616 8.092686 -14.000000
v -20.996238 8.142695 -14.000000
v -20.996238 8.142695 -2.000000
v -20.856616 8.092686 -2.000000
v -21.132960 8.200158 -14.000000
v -21.132960 8.200158 -2.000000
v -21.266386 8.264907 -2.000000
v -21.266386 8.264907 -14.000000
v -21.396126 8.336754 -14.000000
v -21.521803 8.415490 -14.000000
v -21.521803 8.415490 -2.000000
v -21.396126 8.336754 -2.000000
v -21.643052 8.500885 -14.000000
v -21.643052 8.500885 -2.000000
v -21.759520 8.592693 -14.000000
v -21.759520 8.592693 -2.000000
v -21.870869 8.690644 -14.000000
v -21.870869 8.690644 -2.000000
v -21.976774 8.794456 -14.000000
v -22.076928 8.903825 -14.000000
v -22.076928 8.903825 -2.000000
v -21.976774 8.794456 -2.000000
v -22.171039 9.018433 -14.000000
v -22.171039 9.018433 -2.000000
v -22.258833 9.137948 -14.000000
v -22.340056 9.262021 -14.000000
v -22.340056 9.262021 -2.000000
v -22.258833 9.137948 -2.000000
v -22.414470 9.390293 -14.000000
v -22.414470 9.390293 -2.000000
v -22.481860 9.522388 -14.000000
v -22.481860 9.522388 -2.000000
v -22.542029 9.657925 -14.000000
v -22.542029 9.657925 -2.000000
v -22.594803 9.796507 -14.000000
v -22.594803 9.796507 -2.000000
v -22.640028 9.937732 -14.000000
v -22.640028 9.937732 -2.000000
v -22.677572 10.081190 -14.000000
v -22.677572 10.081190 -2.000000
v -22.707326 10.226463 -14.000000
v -22.707326 10.226463 -2.000000
v -22.729204 10.373129 -14.000000
v -22.729204 10.373129 -2.000000
v -22.743142 10.520761 -14.000000
v -22.743142 10.520761 -2.000000
v -22.749099 10.668929 -14.000000
v -22.749099 10.668929 -2.000000
v -22.747059 10.817203 -14.000000
v -22.747059 10.817203 -2.000000
v -22.737027 10.965151 -14.000000
v -22.737027 10.965151 -2.000000
v -22.719032 11.112343 -14.000000
v -22.719032 11.112343 -2.000000
v -22.693126 11.258352 -14.000000
v -22.693126 11.258352 -2.000000
v -22.659386 11.402751 -14.000000
v -22.659386 11.402751 -2.000000
v -22.617908 11.545122 -14.000000
v -22.617908 11.545122 -2.000000
v -22.568814 11.685050 -14.000000
v -22.568814 11.685050 -2.000000
v -22.512247 11.822128 -14.000000
v -22.512247 11.822128 -2.000000
v -22.448371 11.955958 -14.000000
v -22.448371 11.955958 -2.000000
v -22.377372 12.086150 -14.000000
v -22.377372 12.086150 -2.000000
v -22.299456 12.212325 -14.000000
v -22.299456 12.212325 -2.000000
v -22.214850 12.334117 -14.000000
v -22.214850 12.334117 -2.000000
v -22.123800 12.451172 -14.000000
v -22.123800 12.451172 -2.000000
v -22.026571 12.563148 -14.000000
v -22.026571 12.563148 -2.000000
v -21.923446 12.669720 -14.000000
v -21.923446 12.669720 -2.000000
v -21.814724 12.770579 -14.000000
v -21.814724 12.770579 -2.000000
v -21.700722 12.865431 -14.000000
v -21.700722 12.865431 -2.000000
v -21.581771 12.953999 -14.000000
v -21.581771 12.953999 -2.000000
v -21.458218 13.036027 -14.000000
v -21.458218 13.036027 -2.000000
v -21.330422 13.111276 -14.000000
v -21.330422 13.111276 -2.000000
v -21.198754 13.179527 -14.000000
v -21.198754 13.179527 -2.000000
v -21.063598 13.240581 -14.000000
v -21.063598 13.240581 -2.000000
v -20.925346 13.294261 -14.000000
v -20.925346 13.294261 -2.000000
v -20.784400 13.340410 -14.000000
v -20.784400 13.340410 -2.000000
v -20.641172 13.378895 -14.000000
v -20.641172 13.378895 -2.000000
v -20.496076 13.409604 -14.000000
v -20.496076 13.409604 -2.000000
v -20.349536 13.432447 -14.000000
v -20.349536 13.432447 -2.000000
v -20.201977 13.447357 -14.000000
v -20.201977 13.447357 -2.000000
v -20.053829 13.454292 -14.000000
v -20.053829 13.454292 -2.000000
v -19.905522 13.453232 -14.000000
v -19.905522 13.453232 -2.000000
v -19.757489 13.444178 -14.000000
v -19.757489 13.444178 -2.000000
v -19.610158 13.427159 -14.000000
v -19.610158 13.427159 -2.000000
v -19.463960 13.402222 -14.000000
v -19.463960 13.402222 -2.000000
v -19.319319 13.369441 -14.000000
v -19.319319 13.369441 -2.000000
v -19.176655 13.328911 -14.000000
v -19.176655 13.328911 -2.000000
v -19.036385 13.280750 -14.000000
v -19.036385 13.280750 -2.000000
v -18.898915 13.225099 -14.000000
v -18.898915 13.225099 -2.000000
v -18.764646 13.162118 -14.000000
v -18.764646 13.162118 -2.000000
v -18.633968 13.091991 -14.000000
v -18.633968 13.091991 -2.000000
v -18.507261 13.014922 -14.000000
v -18.507261 13.014922 -2.000000
v -18.384895 12.931135 -14.000000
v -18.384895 12.931135 -2.000000
v -18.267223 12.840874 -14.000000
v -18.267223 12.840874 -2.000000
v -18.154590 12.744401 -14.000000
v -18.154590 12.744401 -2.000000
v -18.047323 12.641998 -14.000000
v -18.047323 12.641998 -2.000000
v -17.945733 12.533961 -14.000000
v -17.945733 12.533961 -2.000000
v -17.850116 12.420606 -14.000000
v -17.850116 12.420606 -2.000000
v -17.760750 12.302261 -14.000000
v -17.760750 12.302261 -2.000000
v -17.677895 12.179271 -14.000000
v -17.677895 12.179271 -2.000000
v -17.601793 12.051994 -2.000000
v -17.532663 11.920800 -2.000000
v -17.470709 11.786070 -2.000000
v -17.416108 11.648197 -2.000000
v -17.369022 11.507581 -2.000000
v -17.329586 11.364632 -2.000000
v -17.297915 11.219764 -2.000000
v -17.274101 11.073401 -2.000000
v -17.258214 10.925966 -2.000000
v -17.250299 10.777889 -2.000000
v -17.249339 10.705251 -2.000000
v -17.253339 10.557017 -2.000000
v -17.265325 10.409214 -2.000000
v -17.285263 10.262273 -2.000000
v -17.313095 10.116619 -2.000000
v -17.348741 9.972678 -2.000000
v -17.392096 9.830867 -2.000000
v -17.443034 9.691600 -2.000000
v -17.501407 9.555281 -2.000000
v -17.639759 9.293064 -2.000000
v -17.567046 9.422307 -2.000000
v -19.538376 7.994573 -2.000000
v -18.446756 8.435798 -2.000000
v -25.500001 22.000000 -14.000000
v -25.500001 22.000000 -2.000000
v -25.500001 0.000000 -14.000000
v -25.500001 0.000000 -2.000000
v 14.866069 30.300000 -4.034619
v 14.866069 25.700000 -4.034619
v 14.866069 30.300000 -12.002053
v 14.866069 32.600000 -8.018336
v 14.866069 25.700000 -12.002053
v 14.866069 23.400000 -8.018336
v 19.366069 25.700000 -12.002053
v 19.366069 30.300000 -12.002053
v 19.366069 30.300000 -4.034619
v 19.366069 32.600000 -8.018336
v 19.366069 23.400000 -8.018336
v 19.366069 25.700000 -4.034619
usemtl klemaMaterial0
f 1 2 3
f 4 1 5
f 6 4 7
f 8 6 9
f 10 8 11
f 12 10 13
f 14 12 15
f 16 14 17
f 18 16 19
f 20 18 21
f 22 20 23
f 24 22 25
f 26 24 27
f 28 26 29
f 30 28 31
f 32 30 33
f 34 32 35
f 36 34 37
f 38 36 39
f 40 38 41
f 42 40 43
f 44 42 45
f 46 44 47
f 48 46 49
f 50 48 51
f 52 50 53
f 54 52 55
f 56 54 57
f 58 56 59
f 60 58 61
f 62 60 63
f 64 62 65
f 66 64 67
f 68 66 69
f 70 68 71
f 72 70 73
f 74 72 75
f 76 74 77
f 78 76 79
f 80 78 81
f 82 80 83
f 84 82 85
f 86 84 87
f 88 86 89
f 90 88 91
f 92 90 93
f 94 92 95
f 96 94 97
f 98 96 99
f 100 98 101
f 102 100 103
f 104 102 105
f 106 104 107
f 108 106 109
f 110 108 111
f 112 110 113
f 114 112 115
f 116 114 117
f 118 116 119
f 116 120 119
f 121 118 122
f 123 121 124
f 125 123 126
f 127 125 128
f 129 127 130
f 131 129 132
f 133 131 134
f 135 133 136
f 137 135 138
f 139 137 140
f 141 139 142
f 143 141 144
f 145 143 146
f 147 145 148
f 149 147 150
f 151 149 152
f 153 151 154
f 155 153 156
f 157 155 158
f 159 157 160
f 161 159 162
f 163 161 164
f 165 163 166
f 167 165 168
f 169 167 170
f 171 169 172
f 173 171 174
f 175 173 176
f 177 178 179
f 178 180 179
f 181 180 178
f 182 181 183
f 184 182 185
f 186 184 187
f 188 186 189
f 190 188 191
f 192 190 193
f 194 192 195
f 196 194 197
f 198 196 199
f 200 198 201
f 202 200 203
f 204 202 205
f 206 204 207
f 208 206 209
f 210 208 211
f 212 210 213
f 214 212 215
f 216 214 217
f 218 216 219
f 220 218 221
f 222 220 223
f 224 222 225
f 226 224 227
f 228 226 229
f 230 228 231
f 232 230 233
f 234 232 235
f 2 234 236
f 236 3 2
f 235 236 234
f 233 235 232
f 231 233 230
f 229 231 228
f 227 229 226
f 225 227 224
f 223 225 222
f 221 223 220
f 219 221 218
f 217 219 216
f 215 217 214
f 213 215 212
f 211 213 210
f 209 211 208
f 207 209 206
f 205 207 204
f 203 205 202
f 201 203 200
f 199 201 198
f 197 199 196
f 195 197 194
f 193 195 192
f 191 193 190
f 189 191 188
f 187 189 186
f 185 187 184
f 183 185 182
f 178 183 181
f 179 175 177
f 176 177 175
f 174 176 173
f 172 174 171
f 170 172 169
f 168 170 167
f 166 168 165
f 164 166 163
f 162 164 161
f 160 162 159
f 158 160 157
f 156 158 155
f 154 156 153
f 152 154 151
f 150 152 149
f 148 150 147
f 146 148 145
f 144 146 143
f 142 144 141
f 140 142 139
f 138 140 137
f 136 138 135
f 134 136 133
f 132 134 131
f 130 132 129
f 128 130 127
f 126 128 125
f 124 126 123
f 122 124 121
f 119 122 118
f 117 120 116
f 115 117 114
f 113 115 112
f 111 113 110
f 109 111 108
f 107 109 106
f 105 107 104
f 103 105 102
f 101 103 100
f 99 101 98
f 97 99 96
f 95 97 94
f 93 95 92
f 91 93 90
f 89 91 88
f 87 89 86
f 85 87 84
f 83 85 82
f 81 83 80
f 79 81 78
f 77 79 76
f 75 77 74
f 73 75 72
f 71 73 70
f 69 71 68
f 67 69 66
f 65 67 64
f 63 65 62
f 61 63 60
f 59 61 58
f 57 59 56
f 55 57 54
f 53 55 52
f 51 53 50
f 49 51 48
f 47 49 46
f 45 47 44
f 43 45 42
f 41 43 40
f 39 41 38
f 37 39 36
f 35 37 34
f 33 35 32
f 31 33 30
f 29 31 28
f 27 29 26
f 25 27 24
f 23 25 22
f 21 23 20
f 19 21 18
f 17 19 16
f 15 17 14
f 13 15 12
f 11 13 10
f 9 11 8
f 7 9 6
f 5 7 4
f 3 5 1
f 237 158 156
f 238 162 160
f 237 160 158
f 238 164 162
f 238 170 168
f 160 237 238
f 168 166 238
f 237 152 150
f 166 164 238
f 237 146 144
f 150 148 237
f 238 172 170
f 148 146 237
f 156 154 237
f 238 185 183
f 238 189 187
f 154 152 237
f 238 176 174
f 238 178 177
f 187 185 238
f 239 201 199
f 239 205 203
f 240 83 81
f 174 172 238
f 183 178 238
f 238 193 191
f 238 197 195
f 203 201 239
f 239 209 207
f 241 51 49
f 81 241 240
f 240 93 91
f 177 176 238
f 195 193 238
f 207 205 239
f 239 213 211
f 239 219 217
f 241 47 45
f 241 53 51
f 241 69 67
f 241 75 73
f 81 79 241
f 91 89 240
f 240 105 103
f 240 109 107
f 237 140 138
f 191 189 238
f 199 238 239
f 239 215 213
f 239 221 219
f 239 231 229
f 49 47 241
f 241 57 55
f 241 61 59
f 241 65 63
f 241 71 69
f 241 77 75
f 240 85 83
f 89 87 240
f 107 105 240
f 237 122 119
f 237 128 126
f 237 142 140
f 199 197 238
f 217 215 239
f 239 225 223
f 239 233 231
f 239 3 236
f 242 5 3
f 55 53 241
f 63 61 241
f 73 71 241
f 87 85 240
f 240 97 95
f 240 111 109
f 237 124 122
f 237 130 128
f 237 136 134
f 144 142 237
f 223 221 239
f 229 227 239
f 236 235 239
f 242 7 5
f 242 241 43
f 59 57 241
f 79 77 241
f 240 99 97
f 103 101 240
f 126 124 237
f 134 132 237
f 211 209 239
f 235 233 239
f 242 9 7
f 242 15 13
f 242 39 37
f 43 41 242
f 67 65 241
f 101 99 240
f 240 115 113
f 132 130 237
f 227 225 239
f 242 11 9
f 242 17 15
f 242 25 23
f 242 31 29
f 242 35 33
f 41 39 242
f 95 93 240
f 240 117 115
f 240 119 120
f 138 136 237
f 13 11 242
f 242 27 25
f 33 31 242
f 45 43 241
f 120 117 240
f 3 239 242
f 242 21 19
f 29 27 242
f 113 111 240
f 19 17 242
f 37 35 242
f 23 21 242
f 119 240 237
f 241 243 244
f 244 240 241
f 240 244 245
f 245 237 240
f 237 245 246
f 246 238 237
f 238 246 247
f 247 239 238
f 239 247 248
f 248 242 239
f 242 248 243
f 243 241 242
f 249 245 244
f 249 246 245
f 250 247 246
f 246 249 250
f 251 248 247
f 247 250 251
f 251 252 243
f 243 248 251
f 252 244 243
f 244 252 249
f 251 253 254
f 254 252 251
f 253 251 255
f 251 250 255
f 255 256 253
f 256 255 257
f 257 258 256
f 257 259 260
f 261 262 263
f 257 264 265
f 257 266 259
f 261 267 262
f 260 264 257
f 263 268 261
f 269 270 267
f 257 271 266
f 267 261 269
f 265 258 257
f 268 272 261
f 257 273 271
f 269 274 270
f 265 275 258
f 272 276 261
f 257 277 273
f 269 278 274
f 275 279 258
f 276 280 261
f 257 281 277
f 269 282 278
f 279 283 258
f 280 284 261
f 257 285 281
f 269 286 282
f 283 287 258
f 284 288 261
f 257 289 285
f 269 290 286
f 287 291 258
f 288 292 261
f 257 293 289
f 269 294 290
f 291 295 258
f 292 296 261
f 257 297 293
f 269 298 294
f 295 299 258
f 296 300 261
f 257 301 297
f 269 302 298
f 299 303 258
f 300 304 261
f 257 305 301
f 269 306 302
f 303 307 258
f 304 308 261
f 257 309 305
f 269 310 306
f 307 311 258
f 308 312 261
f 257 313 309
f 269 314 310
f 311 315 258
f 312 316 261
f 257 317 313
f 269 318 314
f 315 319 258
f 316 320 261
f 257 321 317
f 269 322 318
f 319 323 258
f 320 324 261
f 257 325 321
f 269 326 322
f 323 327 258
f 324 328 261
f 257 329 325
f 269 330 326
f 327 331 258
f 257 332 333
f 328 334 261
f 333 329 257
f 261 335 336
f 269 337 330
f 331 338 258
f 334 335 261
f 338 339 258
f 269 340 337
f 339 341 258
f 269 342 340
f 341 343 258
f 269 344 342
f 343 345 258
f 269 346 344
f 345 347 258
f 269 348 346
f 347 349 258
f 269 350 348
f 349 351 258
f 269 352 350
f 351 353 258
f 269 354 352
f 269 355 356
f 258 357 355
f 353 358 258
f 356 354 269
f 336 359 261
f 358 357 258
f 355 269 258
f 360 336 335
f 361 335 334
f 362 334 328
f 363 328 324
f 364 324 320
f 365 320 316
f 316 312 366
f 367 366 312
f 308 304 368
f 369 368 304
f 369 300 296
f 370 296 292
f 371 292 288
f 372 288 284
f 373 284 280
f 374 280 276
f 375 276 272
f 376 272 268
f 377 268 263
f 378 263 262
f 379 262 267
f 380 267 270
f 381 270 274
f 274 278 382
f 383 382 278
f 383 282 286
f 290 384 385
f 384 290 294
f 386 294 298
f 302 387 388
f 387 302 306
f 306 310 389
f 390 389 310
f 390 314 318
f 322 391 392
f 322 326 393
f 394 393 326
f 337 395 394
f 395 337 340
f 396 340 342
f 397 342 344
f 398 344 346
f 399 346 348
f 400 348 350
f 401 350 352
f 402 352 354
f 403 354 356
f 404 356 355
f 405 355 357
f 406 357 358
f 407 358 353
f 408 353 351
f 409 351 349
f 410 349 347
f 411 347 345
f 412 345 343
f 413 343 341
f 414 341 339
f 415 339 338
f 416 338 331
f 417 331 327
f 418 327 323
f 419 323 319
f 420 319 315
f 421 315 311
f 422 311 307
f 423 307 303
f 424 303 299
f 425 299 295
f 426 295 291
f 427 291 287
f 428 287 283
f 429 283 279
f 430 279 275
f 431 275 265
f 432 265 264
f 433 264 260
f 434 260 259
f 435 259 266
f 436 266 271
f 437 271 273
f 438 273 277
f 439 277 281
f 440 281 285
f 441 285 289
f 442 289 293
f 443 293 297
f 444 297 301
f 445 301 305
f 446 305 309
f 447 309 313
f 448 313 317
f 449 317 321
f 450 321 325
f 451 325 329
f 452 329 333
f 453 333 332
f 332 454 453
f 455 454 456
f 456 457 455
f 458 455 459
f 459 460 458
f 461 458 462
f 462 463 461
f 464 461 465
f 465 466 464
f 467 464 468
f 468 469 467
f 470 467 471
f 471 472 470
f 473 470 474
f 474 475 473
f 476 473 477
f 477 478 476
f 479 476 480
f 480 481 479
f 482 479 483
f 482 484 485
f 482 486 484
f 487 488 489
f 487 485 488
f 490 491 492
f 490 489 491
f 493 494 495
f 493 492 494
f 496 497 498
f 496 495 497
f 499 500 501
f 499 498 500
f 502 503 504
f 502 501 503
f 505 506 507
f 505 504 506
f 508 509 510
f 508 507 509
f 360 511 359
f 511 510 512
f 512 359 511
f 359 336 360
f 510 511 508
f 507 508 505
f 504 505 502
f 501 502 499
f 498 499 496
f 495 496 493
f 492 493 490
f 489 490 487
f 485 487 482
f 483 486 482
f 481 483 479
f 478 480 476
f 475 477 473
f 472 474 470
f 469 471 467
f 466 468 464
f 463 465 461
f 460 462 458
f 457 459 455
f 332 456 454
f 333 453 452
f 329 452 451
f 325 451 450
f 321 450 449
f 317 449 448
f 313 448 447
f 309 447 446
f 305 446 445
f 301 445 444
f 297 444 443
f 293 443 442
f 289 442 441
f 285 441 440
f 281 440 439
f 277 439 438
f 273 438 437
f 271 437 436
f 266 436 435
f 259 435 434
f 260 434 433
f 264 433 432
f 265 432 431
f 275 431 430
f 279 430 429
f 283 429 428
f 287 428 427
f 291 427 426
f 295 426 425
f 299 425 424
f 303 424 423
f 307 423 422
f 311 422 421
f 315 421 420
f 319 420 419
f 323 419 418
f 327 418 417
f 331 417 416
f 338 416 415
f 339 415 414
f 341 414 413
f 343 413 412
f 345 412 411
f 347 411 410
f 349 410 409
f 351 409 408
f 353 408 407
f 358 407 406
f 357 406 405
f 355 405 404
f 356 404 403
f 354 403 402
f 352 402 401
f 350 401 400
f 348 400 399
f 346 399 398
f 344 398 397
f 342 397 396
f 340 396 395
f 394 330 337
f 326 330 394
f 393 391 322
f 392 318 322
f 318 392 390
f 310 314 390
f 389 513 306
f 306 513 387
f 388 298 302
f 298 388 386
f 294 386 384
f 385 286 290
f 286 385 383
f 278 282 383
f 382 514 274
f 274 514 381
f 270 381 380
f 267 380 379
f 262 379 378
f 263 378 377
f 268 377 376
f 272 376 375
f 276 375 374
f 280 374 373
f 284 373 372
f 288 372 371
f 292 371 370
f 296 370 369
f 304 300 369
f 368 367 308
f 312 308 367
f 366 515 316
f 316 515 365
f 320 365 364
f 324 364 363
f 328 363 362
f 334 362 361
f 335 361 360
f 516 269 261
f 261 517 516
f 518 519 520
f 519 521 522
f 254 108 110
f 519 523 520
f 519 524 521
f 519 525 526
f 519 527 528
f 519 529 530
f 519 531 532
f 254 533 534
f 535 161 163
f 254 121 123
f 254 116 118
f 254 106 108
f 518 536 537
f 520 538 518
f 519 539 540
f 519 541 542
f 522 543 519
f 526 544 519
f 530 527 519
f 519 545 546
f 519 547 531
f 534 519 254
f 534 547 519
f 163 548 549
f 550 133 135
f 123 125 254
f 254 114 116
f 110 112 254
f 518 551 552
f 518 553 536
f 518 554 555
f 519 556 523
f 519 557 539
f 542 558 519
f 544 524 519
f 546 529 519
f 519 559 560
f 532 559 519
f 254 561 562
f 163 549 535
f 563 157 159
f 563 153 155
f 135 137 550
f 137 139 550
f 550 254 129
f 125 127 254
f 112 114 254
f 256 232 234
f 518 564 565
f 552 566 518
f 518 567 568
f 518 569 570
f 518 571 572
f 555 553 518
f 538 573 518
f 558 557 519
f 528 525 519
f 254 574 575
f 562 576 254
f 254 577 578
f 535 563 161
f 163 165 548
f 155 157 563
f 550 141 143
f 129 131 550
f 118 121 254
f 254 100 102
f 254 92 94
f 254 82 84
f 256 230 232
f 518 579 580
f 566 564 518
f 568 581 518
f 570 582 518
f 518 583 584
f 537 571 518
f 540 556 519
f 519 585 586
f 519 587 588
f 519 589 590
f 560 545 519
f 575 591 254
f 591 592 254
f 578 561 254
f 254 593 594
f 254 595 596
f 159 161 563
f 258 597 548
f 550 145 147
f 139 141 550
f 127 129 254
f 102 104 254
f 254 90 92
f 84 86 254
f 598 258 269
f 269 599 600
f 253 256 2
f 256 228 230
f 256 224 226
f 565 579 518
f 518 601 602
f 582 567 518
f 584 603 518
f 518 604 605
f 573 554 518
f 588 585 519
f 519 606 607
f 543 589 519
f 592 533 254
f 576 608 254
f 596 593 254
f 153 563 609
f 548 165 258
f 550 149 151
f 143 145 550
f 104 106 254
f 254 96 98
f 254 88 90
f 254 80 82
f 258 610 611
f 258 612 613
f 269 614 598
f 269 615 599
f 254 68 70
f 254 62 64
f 2 1 253
f 226 228 256
f 256 218 220
f 212 256 258
f 516 616 617
f 602 551 518
f 603 569 518
f 572 604 518
f 607 587 519
f 594 577 254
f 147 149 550
f 98 100 254
f 86 88 254
f 258 618 610
f 598 612 258
f 269 619 615
f 254 76 78
f 70 72 254
f 64 66 254
f 254 253 58
f 253 32 34
f 253 24 26
f 253 20 22
f 253 8 10
f 1 4 253
f 256 222 224
f 256 216 218
f 256 212 214
f 258 208 210
f 258 198 200
f 516 620 616
f 581 601 518
f 586 541 519
f 608 574 254
f 254 621 622
f 151 153 550
f 94 96 254
f 258 623 618
f 600 614 269
f 254 74 76
f 66 68 254
f 58 60 254
f 253 54 56
f 253 50 52
f 253 30 32
f 26 28 253
f 253 18 20
f 253 14 16
f 10 12 253
f 4 6 253
f 220 222 256
f 258 210 212
f 258 204 206
f 200 202 258
f 516 624 625
f 516 626 627
f 516 628 620
f 605 583 518
f 622 595 254
f 254 550 629
f 131 133 550
f 613 623 258
f 72 74 254
f 56 58 253
f 253 48 50
f 253 42 44
f 253 36 38
f 28 30 253
f 16 18 253
f 6 8 253
f 214 216 256
f 202 204 258
f 258 194 196
f 258 190 192
f 258 184 186
f 258 175 179
f 516 630 624
f 617 626 516
f 516 518 631
f 590 606 519
f 629 632 254
f 632 621 254
f 611 597 258
f 60 62 254
f 253 46 48
f 253 40 42
f 34 36 253
f 12 14 253
f 206 208 258
f 192 194 258
f 186 188 258
f 258 181 182
f 179 180 258
f 258 171 173
f 258 167 169
f 516 633 634
f 625 635 516
f 631 628 516
f 78 80 254
f 44 46 253
f 22 24 253
f 196 198 258
f 182 184 258
f 173 175 258
f 180 181 258
f 258 165 167
f 169 171 258
f 516 636 633
f 627 630 516
f 609 550 153
f 38 40 253
f 188 190 258
f 637 619 269
f 635 636 516
f 52 54 253
f 634 637 516
f 234 2 256
f 580 631 518
f 269 516 637
f 638 519 518
f 518 639 638
f 519 377 378
f 249 433 434
f 378 379 519
f 434 435 249
f 519 376 377
f 249 432 433
f 379 380 519
f 435 436 249
f 519 375 376
f 249 431 432
f 380 381 519
f 436 437 249
f 519 374 375
f 249 430 431
f 381 514 519
f 437 438 249
f 519 373 374
f 249 429 430
f 514 382 519
f 438 439 249
f 519 372 373
f 249 428 429
f 382 383 519
f 439 440 249
f 519 371 372
f 249 427 428
f 383 385 519
f 440 441 249
f 519 370 371
f 249 426 427
f 385 384 519
f 441 442 249
f 384 386 519
f 519 368 369
f 249 425 426
f 369 370 519
f 386 388 519
f 442 443 249
f 249 424 425
f 388 387 519
f 519 366 367
f 443 444 249
f 367 368 519
f 387 513 519
f 444 445 249
f 249 422 423
f 423 424 249
f 445 446 249
f 513 389 519
f 519 365 515
f 515 366 519
f 389 390 519
f 446 447 249
f 249 420 421
f 447 448 249
f 249 419 420
f 421 422 249
f 390 392 519
f 519 363 364
f 448 449 249
f 364 365 519
f 392 391 519
f 252 418 419
f 419 249 252
f 449 450 249
f 391 393 519
f 519 361 362
f 393 394 519
f 519 360 361
f 362 363 519
f 450 451 249
f 252 416 417
f 394 395 519
f 519 511 360
f 451 452 249
f 252 415 416
f 417 418 252
f 395 396 519
f 519 508 511
f 452 453 249
f 252 414 415
f 396 397 519
f 453 454 249
f 252 413 414
f 638 505 508
f 454 455 249
f 252 412 413
f 508 519 638
f 397 398 519
f 455 458 249
f 254 411 412
f 398 399 519
f 638 499 502
f 412 252 254
f 458 461 249
f 502 505 638
f 399 400 519
f 461 464 249
f 254 409 410
f 400 401 519
f 638 493 496
f 410 411 254
f 464 467 249
f 401 402 519
f 638 490 493
f 496 499 638
f 402 403 519
f 249 476 479
f 467 470 249
f 254 407 408
f 640 487 490
f 479 640 249
f 479 482 640
f 470 473 249
f 254 406 407
f 408 409 254
f 490 638 640
f 403 404 519
f 473 476 249
f 482 487 640
f 254 519 405
f 405 406 254
f 404 405 519
f 518 516 517
f 517 639 518
f 517 641 639
f 642 249 640
f 643 642 644
f 645 643 646
f 647 645 648
f 649 647 650
f 651 649 652
f 653 651 654
f 655 653 656
f 657 655 658
f 659 657 660
f 661 659 662
f 663 661 664
f 665 663 666
f 667 665 668
f 669 667 670
f 671 669 672
f 673 671 674
f 675 673 676
f 677 675 678
f 679 677 680
f 681 679 682
f 683 681 684
f 685 683 686
f 687 685 688
f 689 687 690
f 691 689 692
f 693 691 694
f 695 693 696
f 697 695 698
f 699 697 700
f 701 699 702
f 703 701 704
f 705 703 706
f 707 705 708
f 709 707 710
f 711 709 712
f 713 711 714
f 715 713 716
f 717 715 718
f 719 717 720
f 721 719 722
f 723 721 724
f 725 723 726
f 727 725 728
f 729 727 730
f 731 729 732
f 733 731 734
f 735 733 736
f 737 735 738
f 739 737 740
f 741 739 742
f 743 741 744
f 745 743 746
f 747 745 748
f 749 747 750
f 751 749 752
f 753 751 754
f 755 753 756
f 757 755 758
f 759 757 760
f 761 759 762
f 763 761 764
f 765 763 766
f 767 765 768
f 769 767 770
f 771 769 772
f 773 771 774
f 775 773 776
f 777 775 778
f 779 777 780
f 781 779 782
f 783 781 784
f 785 783 786
f 787 785 788
f 789 787 790
f 791 789 792
f 793 791 794
f 795 793 796
f 797 795 798
f 799 797 800
f 801 799 802
f 803 801 804
f 805 803 806
f 807 805 808
f 809 807 810
f 811 809 812
f 813 811 814
f 815 813 816
f 817 815 818
f 819 817 820
f 821 819 822
f 823 821 824
f 825 823 826
f 827 825 828
f 829 827 830
f 831 829 832
f 833 831 834
f 835 833 836
f 837 835 838
f 839 837 840
f 841 839 842
f 843 841 844
f 845 843 846
f 847 845 848
f 849 847 850
f 851 849 852
f 853 851 854
f 855 853 856
f 857 855 858
f 859 857 860
f 861 859 862
f 863 861 864
f 865 863 866
f 867 865 868
f 869 867 870
f 871 869 872
f 873 871 874
f 875 873 876
f 877 875 878
f 879 877 880
f 881 879 882
f 883 881 884
f 885 883 886
f 887 885 888
f 889 887 890
f 890 891 889
f 888 890 887
f 886 888 885
f 884 886 883
f 882 884 881
f 880 882 879
f 878 880 877
f 876 878 875
f 874 876 873
f 872 874 871
f 870 872 869
f 868 870 867
f 866 868 865
f 864 866 863
f 862 864 861
f 860 862 859
f 858 860 857
f 856 858 855
f 854 856 853
f 852 854 851
f 850 852 849
f 848 850 847
f 846 848 845
f 844 846 843
f 842 844 841
f 840 842 839
f 838 840 837
f 836 838 835
f 834 836 833
f 832 834 831
f 830 832 829
f 828 830 827
f 826 828 825
f 824 826 823
f 822 824 821
f 820 822 819
f 818 820 817
f 816 818 815
f 814 816 813
f 812 814 811
f 810 812 809
f 808 810 807
f 806 808 805
f 804 806 803
f 802 804 801
f 800 802 799
f 798 800 797
f 796 798 795
f 794 796 793
f 792 794 791
f 790 792 789
f 788 790 787
f 786 788 785
f 784 786 783
f 782 784 781
f 780 782 779
f 778 780 777
f 776 778 775
f 774 776 773
f 772 774 771
f 770 772 769
f 768 770 767
f 766 768 765
f 764 766 763
f 762 764 761
f 760 762 759
f 758 760 757
f 756 758 755
f 754 756 753
f 752 754 751
f 750 752 749
f 748 750 747
f 746 748 745
f 744 746 743
f 742 744 741
f 740 742 739
f 738 740 737
f 736 738 735
f 734 736 733
f 732 734 731
f 730 732 729
f 728 730 727
f 726 728 725
f 724 726 723
f 722 724 721
f 720 722 719
f 718 720 717
f 716 718 715
f 714 716 713
f 712 714 711
f 710 712 709
f 708 710 707
f 706 708 705
f 704 706 703
f 702 704 701
f 700 702 699
f 698 700 697
f 696 698 695
f 694 696 693
f 692 694 691
f 690 692 689
f 688 690 687
f 686 688 685
f 684 686 683
f 682 684 681
f 680 682 679
f 678 680 677
f 676 678 675
f 674 676 673
f 672 674 671
f 670 672 669
f 668 670 667
f 666 668 665
f 664 666 663
f 662 664 661
f 660 662 659
f 658 660 657
f 656 658 655
f 654 656 653
f 652 654 651
f 650 652 649
f 648 650 647
f 646 648 645
f 644 646 643
f 640 644 642
f 628 631 892
f 620 628 893
f 616 620 894
f 617 616 895
f 626 617 896
f 627 626 897
f 630 627 898
f 624 630 899
f 625 624 900
f 635 625 901
f 636 635 902
f 633 636 903
f 634 633 904
f 637 634 905
f 619 637 906
f 615 619 907
f 599 615 908
f 600 599 909
f 614 600 910
f 598 614 911
f 612 598 912
f 613 612 913
f 623 613 914
f 618 623 915
f 610 618 916
f 611 610 917
f 597 611 918
f 548 597 919
f 549 548 920
f 535 549 921
f 563 535 922
f 609 563 923
f 550 609 924
f 629 550 925
f 632 629 926
f 621 632 927
f 622 621 928
f 595 622 929
f 596 595 930
f 593 596 931
f 594 593 932
f 577 594 933
f 578 577 934
f 561 578 935
f 562 561 936
f 576 562 937
f 608 576 938
f 574 608 939
f 575 574 940
f 591 575 941
f 592 591 942
f 533 592 943
f 534 533 944
f 547 534 945
f 531 547 946
f 532 531 947
f 559 532 948
f 560 559 949
f 560 950 951
f 951 545 560
f 546 545 952
f 529 546 953
f 530 529 954
f 527 530 955
f 528 527 956
f 525 528 957
f 526 525 958
f 544 526 959
f 524 544 960
f 521 524 961
f 522 521 962
f 543 522 963
f 589 543 964
f 590 589 965
f 606 590 966
f 607 606 967
f 587 607 968
f 588 587 969
f 585 588 970
f 586 585 971
f 541 586 972
f 542 541 973
f 558 542 974
f 557 558 975
f 539 557 976
f 540 539 977
f 556 540 978
f 523 556 979
f 980 981 520
f 981 538 520
f 573 538 981
f 554 573 982
f 555 554 983
f 553 555 984
f 536 553 985
f 537 536 986
f 571 537 987
f 572 571 988
f 604 572 989
f 605 604 990
f 583 605 991
f 584 583 992
f 603 584 993
f 569 603 994
f 570 569 995
f 582 570 996
f 567 582 997
f 568 567 998
f 581 568 999
f 601 581 1000
f 602 601 1001
f 551 602 1002
f 552 551 1003
f 566 552 1004
f 564 566 1005
f 565 564 1006
f 579 565 1007
f 580 579 1008
f 631 580 1009
f 1009 892 631
f 1008 1009 580
f 1007 1008 579
f 1006 1007 565
f 1005 1006 564
f 1004 1005 566
f 1003 1004 552
f 1002 1003 551
f 1001 1002 602
f 1000 1001 601
f 999 1000 581
f 998 999 568
f 997 998 567
f 996 997 582
f 995 996 570
f 994 995 569
f 993 994 603
f 992 993 584
f 991 992 583
f 990 991 605
f 989 990 604
f 988 989 572
f 987 988 571
f 986 987 537
f 985 986 536
f 984 985 553
f 983 984 555
f 982 983 554
f 981 982 573
f 520 523 980
f 979 980 523
f 978 979 556
f 977 978 540
f 976 977 539
f 975 976 557
f 974 975 558
f 973 974 542
f 972 973 541
f 971 972 586
f 970 971 585
f 969 970 588
f 968 969 587
f 967 968 607
f 966 967 606
f 965 966 590
f 964 965 589
f 963 964 543
f 962 963 522
f 961 962 521
f 960 961 524
f 959 960 544
f 958 959 526
f 957 958 525
f 956 957 528
f 955 956 527
f 954 955 530
f 953 954 529
f 952 953 546
f 951 952 545
f 949 950 560
f 948 949 559
f 947 948 532
f 946 947 531
f 945 946 547
f 944 945 534
f 943 944 533
f 942 943 592
f 941 942 591
f 940 941 575
f 939 940 574
f 938 939 608
f 937 938 576
f 936 937 562
f 935 936 561
f 934 935 578
f 933 934 577
f 932 933 594
f 931 932 593
f 930 931 596
f 929 930 595
f 928 929 622
f 927 928 621
f 926 927 632
f 925 926 629
f 924 925 550
f 923 924 609
f 922 923 563
f 921 922 535
f 920 921 549
f 919 920 548
f 918 919 597
f 917 918 611
f 916 917 610
f 915 916 618
f 914 915 623
f 913 914 613
f 912 913 612
f 911 912 598
f 910 911 614
f 909 910 600
f 908 909 599
f 907 908 615
f 906 907 619
f 905 906 637
f 904 905 634
f 903 904 633
f 902 903 636
f 901 902 635
f 900 901 625
f 899 900 624
f 898 899 630
f 897 898 627
f 896 897 626
f 895 896 617
f 894 895 616
f 893 894 620
f 892 893 628
f 1010 1011 1012
f 1013 1012 1014
f 1015 1014 1016
f 1017 1016 1018
f 1019 1018 1020
f 1021 1020 1022
f 1023 1022 1024
f 1025 1024 1026
f 1027 1026 1028
f 1029 1028 1030
f 1031 1030 1032
f 1033 1032 1034
f 1035 1034 1036
f 1037 1036 1038
f 1039 1038 1040
f 1041 1040 1042
f 1043 1042 1044
f 1045 1044 1046
f 1047 1046 1048
f 1049 1048 1050
f 1051 1050 1052
f 1053 1052 1054
f 1055 1054 1056
f 1057 1056 1058
f 1059 1058 1060
f 1061 1060 1062
f 1063 1062 1064
f 1065 1064 1066
f 1067 1066 1068
f 1069 1068 1070
f 1071 1070 1072
f 1073 1072 1074
f 1075 1074 1076
f 1077 1076 1078
f 1079 1078 1080
f 1081 1080 1082
f 1083 1082 1084
f 1085 1084 1086
f 1087 1086 1088
f 1089 1088 1090
f 1091 1090 1092
f 1093 1092 1094
f 1095 1094 1096
f 1097 1096 1098
f 1099 1098 1100
f 1101 1100 1102
f 1103 1102 1104
f 1105 1104 1106
f 1107 1106 1108
f 1109 1108 1110
f 1111 1110 1112
f 1113 1112 1114
f 1115 1114 1116
f 1117 1116 1118
f 1119 1118 1120
f 1121 1120 1122
f 1123 1122 1124
f 1125 1124 1126
f 1127 1126 1128
f 1129 1128 1130
f 1131 1130 1132
f 1133 1132 1134
f 1135 1134 1136
f 1137 1136 1138
f 1139 1138 1140
f 1141 1140 1142
f 1143 1142 1144
f 1145 1144 1146
f 1147 1146 1148
f 1149 1148 1150
f 1151 1150 1152
f 1153 1152 1154
f 1155 1154 1156
f 1157 1156 1158
f 1159 1158 1160
f 1161 1160 1162
f 1163 1162 1164
f 1165 1164 1166
f 1167 1166 1168
f 1169 1168 1170
f 1171 1170 1172
f 1173 1172 1174
f 1175 1174 1176
f 1177 1176 1178
f 1179 1178 1180
f 1181 1180 1182
f 1183 1182 1184
f 1185 1184 1186
f 1187 1186 1188
f 1189 1188 1190
f 1191 1190 1192
f 1193 1192 1194
f 517 261 359
f 512 1195 517
f 359 512 517
f 512 510 1195
f 510 509 1195
f 509 507 1195
f 507 506 1195
f 506 504 1195
f 504 503 1195
f 503 501 1195
f 501 500 1195
f 1196 472 471
f 1196 474 472
f 471 469 1196
f 1196 477 475
f 1196 478 477
f 475 474 1196
f 1196 480 478
f 1196 481 480
f 1197 486 483
f 483 1196 1197
f 483 481 1196
f 1194 484 486
f 1194 485 484
f 486 1197 1194
f 1194 1195 498
f 498 497 1194
f 497 495 1194
f 495 494 1194
f 494 492 1194
f 492 491 1194
f 491 489 1194
f 489 488 1194
f 488 485 1194
f 257 457 456
f 257 459 457
f 257 462 460
f 460 459 257
f 456 332 257
f 257 465 463
f 463 462 257
f 257 468 466
f 466 465 257
f 1196 469 468
f 468 257 255
f 468 255 1196
f 1198 1199 1200
f 1200 1201 1198
f 1201 1202 1198
f 1202 1203 1198
f 1203 1204 1198
f 1204 1205 1198
f 1205 1206 1198
f 1206 1207 1198
f 1207 1208 1198
f 1208 1209 1198
f 1210 1211 1212
f 1210 1213 1211
f 1212 1214 1210
f 1210 1215 1216
f 1210 1217 1215
f 1216 1213 1210
f 1210 1218 1217
f 1210 1219 1218
f 1210 1220 1221
f 1221 1219 1210
f 1010 1222 1220
f 1010 1223 1222
f 1220 1011 1010
f 1220 1210 1011
f 1010 1198 1224
f 1224 1225 1010
f 1225 1226 1010
f 1226 1227 1010
f 1227 1228 1010
f 1228 1229 1010
f 1229 1230 1010
f 1230 1231 1010
f 1231 1223 1010
f 1232 1233 1234
f 1232 1235 1233
f 1232 1236 1237
f 1237 1235 1232
f 1234 1238 1232
f 1232 1239 1240
f 1240 1236 1232
f 1232 1241 1242
f 1242 1239 1232
f 1210 1214 1241
f 1241 1232 1210
f 1209 1224 1198
f 500 498 1195
f 1194 1197 1193
f 1192 1193 1191
f 1190 1191 1189
f 1188 1189 1187
f 1186 1187 1185
f 1184 1185 1183
f 1182 1183 1181
f 1180 1181 1179
f 1178 1179 1177
f 1176 1177 1175
f 1174 1175 1173
f 1172 1173 1171
f 1170 1171 1169
f 1168 1169 1167
f 1166 1167 1165
f 1164 1165 1163
f 1162 1163 1161
f 1160 1161 1159
f 1158 1159 1157
f 1156 1157 1155
f 1154 1155 1153
f 1152 1153 1151
f 1150 1151 1149
f 1148 1149 1147
f 1146 1147 1145
f 1144 1145 1143
f 1142 1143 1141
f 1140 1141 1139
f 1138 1139 1137
f 1136 1137 1135
f 1134 1135 1133
f 1132 1133 1131
f 1130 1131 1129
f 1128 1129 1127
f 1126 1127 1125
f 1124 1125 1123
f 1122 1123 1121
f 1120 1121 1119
f 1118 1119 1117
f 1116 1117 1115
f 1114 1115 1113
f 1112 1113 1111
f 1110 1111 1109
f 1108 1109 1107
f 1106 1107 1105
f 1104 1105 1103
f 1102 1103 1101
f 1100 1101 1099
f 1098 1099 1097
f 1096 1097 1095
f 1094 1095 1093
f 1092 1093 1091
f 1090 1091 1089
f 1088 1089 1087
f 1086 1087 1085
f 1084 1085 1083
f 1082 1083 1081
f 1080 1081 1079
f 1078 1079 1077
f 1076 1077 1075
f 1074 1075 1073
f 1072 1073 1071
f 1070 1071 1069
f 1068 1069 1067
f 1066 1067 1065
f 1064 1065 1063
f 1062 1063 1061
f 1060 1061 1059
f 1058 1059 1057
f 1056 1057 1055
f 1054 1055 1053
f 1052 1053 1051
f 1050 1051 1049
f 1048 1049 1047
f 1046 1047 1045
f 1044 1045 1043
f 1042 1043 1041
f 1040 1041 1039
f 1038 1039 1037
f 1036 1037 1035
f 1034 1035 1033
f 1032 1033 1031
f 1030 1031 1029
f 1028 1029 1027
f 1026 1027 1025
f 1024 1025 1023
f 1022 1023 1021
f 1020 1021 1019
f 1018 1019 1017
f 1016 1017 1015
f 1014 1015 1013
f 1012 1013 1010
f 1243 1244 1245
f 1246 1245 1244
f 1247 1248 1249
f 1250 1249 1248
f 1250 1251 1252
f 1253 1252 1254
f 1255 1254 1256
f 1257 1256 1258
f 1258 1259 1260
f 1261 1260 1259
f 1261 1262 1263
f 1264 1263 1265
f 1266 1267 1268
f 1267 1266 1269
f 1270 1269 1271
f 1272 1271 1273
f 1273 1274 1275
f 1276 1275 1274
f 1276 1277 1278
f 1279 1278 1280
f 1281 1282 1283
f 1282 1281 1284
f 1285 1284 1286
f 1287 1286 1288
f 1289 1288 1290
f 1291 1292 1293
f 1291 1294 1295
f 1296 1295 1294
f 1296 1297 1298
f 1299 1300 1301
f 1302 1303 1300
f 1302 1304 1305
f 1304 1306 1307
f 1307 1306 1308
f 1309 1310 1311
f 1309 1312 1313
f 1313 1312 1314
f 1315 1316 1317
f 1318 1319 1316
f 1319 1318 1320
f 1321 1320 1322
f 1323 1322 1324
f 1325 1324 1326
f 1327 1326 1328
f 1329 1328 1330
f 1331 1330 1332
f 1333 1332 1334
f 1335 1334 1336
f 1337 1336 1338
f 1339 1338 1340
f 1341 1340 1342
f 1343 1342 1344
f 1345 1344 1346
f 1347 1346 1348
f 1349 1348 1350
f 1351 1350 1352
f 1353 1352 1354
f 1355 1354 1356
f 1357 1356 1358
f 1359 1358 1360
f 1361 1360 1362
f 1363 1362 1364
f 1365 1364 1366
f 1367 1366 1368
f 1369 1368 1370
f 1371 1370 1372
f 1373 1372 1374
f 1375 1374 1376
f 1377 1376 1378
f 1379 1378 1380
f 1381 1380 1382
f 1383 1382 1384
f 1385 1384 1386
f 1387 1386 1388
f 1389 1388 1390
f 1391 1390 1392
f 1393 1392 1394
f 1395 1394 1396
f 1397 1396 1398
f 1399 1398 1400
f 1401 1400 1402
f 1403 1402 1404
f 1405 1404 1406
f 1407 1406 1408
f 1409 1408 1410
f 1411 1410 1412
f 1413 1412 1414
f 1415 1414 1416
f 1417 1416 1418
f 1419 1418 1420
f 1421 1420 1422
f 1423 1422 1424
f 1425 1424 1426
f 1427 1426 1428
f 1429 1428 1430
f 1431 1430 1432
f 1433 1432 1238
f 1238 1434 1433
f 1435 1434 1234
f 1234 1233 1435
f 1436 1435 1235
f 1235 1237 1436
f 1437 1436 1236
f 1236 1240 1437
f 1438 1437 1239
f 1239 1242 1438
f 1439 1438 1241
f 1241 1214 1439
f 1440 1439 1212
f 1212 1211 1440
f 1441 1440 1213
f 1213 1216 1441
f 1442 1441 1215
f 1215 1217 1442
f 1443 1442 1218
f 1218 1219 1443
f 1444 1443 1221
f 1444 1222 1223
f 1444 1220 1222
f 1445 1231 1230
f 1445 1223 1231
f 1446 1229 1228
f 1446 1230 1229
f 1447 1227 1226
f 1447 1228 1227
f 1448 1225 1224
f 1448 1226 1225
f 1449 1209 1208
f 1449 1224 1209
f 1450 1207 1206
f 1450 1208 1207
f 1451 1205 1204
f 1451 1206 1205
f 1452 1203 1202
f 1452 1204 1203
f 1453 1454 1200
f 1454 1202 1201
f 1201 1200 1454
f 1200 1243 1453
f 1202 1454 1452
f 1204 1452 1451
f 1206 1451 1450
f 1208 1450 1449
f 1224 1449 1448
f 1226 1448 1447
f 1228 1447 1446
f 1230 1446 1445
f 1223 1445 1444
f 1221 1220 1444
f 1219 1221 1443
f 1217 1218 1442
f 1216 1215 1441
f 1211 1213 1440
f 1214 1212 1439
f 1242 1241 1438
f 1240 1239 1437
f 1237 1236 1436
f 1233 1235 1435
f 1238 1234 1434
f 1432 1433 1431
f 1430 1431 1429
f 1428 1429 1427
f 1426 1427 1425
f 1424 1425 1423
f 1422 1423 1421
f 1420 1421 1419
f 1418 1419 1417
f 1416 1417 1415
f 1414 1415 1413
f 1412 1413 1411
f 1410 1411 1409
f 1408 1409 1407
f 1406 1407 1405
f 1404 1405 1403
f 1402 1403 1401
f 1400 1401 1399
f 1398 1399 1397
f 1396 1397 1395
f 1394 1395 1393
f 1392 1393 1391
f 1390 1391 1389
f 1388 1389 1387
f 1386 1387 1385
f 1384 1385 1383
f 1382 1383 1381
f 1380 1381 1379
f 1378 1379 1377
f 1376 1377 1375
f 1374 1375 1373
f 1372 1373 1371
f 1370 1371 1369
f 1368 1369 1367
f 1366 1367 1365
f 1364 1365 1363
f 1362 1363 1361
f 1360 1361 1359
f 1358 1359 1357
f 1356 1357 1355
f 1354 1355 1353
f 1352 1353 1351
f 1350 1351 1349
f 1348 1349 1347
f 1346 1347 1345
f 1344 1345 1343
f 1342 1343 1341
f 1340 1341 1339
f 1338 1339 1337
f 1336 1337 1335
f 1334 1335 1333
f 1332 1333 1331
f 1330 1331 1329
f 1328 1329 1327
f 1326 1327 1325
f 1324 1325 1323
f 1322 1323 1321
f 1320 1321 1319
f 1316 1315 1318
f 1317 1314 1315
f 1314 1317 1313
f 1313 1310 1309
f 1311 1308 1309
f 1308 1311 1307
f 1307 1305 1304
f 1305 1303 1302
f 1300 1299 1302
f 1301 1298 1299
f 1298 1301 1296
f 1294 1297 1296
f 1295 1292 1291
f 1293 1290 1291
f 1290 1293 1289
f 1288 1289 1287
f 1286 1287 1285
f 1284 1285 1282
f 1283 1280 1281
f 1280 1283 1279
f 1278 1279 1276
f 1274 1277 1276
f 1275 1455 1273
f 1273 1455 1272
f 1271 1272 1270
f 1269 1270 1267
f 1268 1265 1266
f 1265 1268 1264
f 1263 1264 1261
f 1259 1262 1261
f 1260 1456 1258
f 1258 1456 1257
f 1256 1257 1255
f 1254 1255 1253
f 1252 1253 1250
f 1248 1251 1250
f 1249 1246 1247
f 1244 1247 1246
f 1245 1453 1243
f 1140 716 714
f 641 696 694
f 641 700 698
f 641 708 706
f 714 641 1140
f 641 652 650
f 641 690 688
f 694 692 641
f 641 702 700
f 641 710 708
f 714 712 641
f 641 654 652
f 641 658 656
f 641 662 660
f 641 666 664
f 641 676 674
f 641 686 684
f 692 690 641
f 641 704 702
f 712 710 641
f 1140 720 718
f 1140 728 726
f 1106 764 762
f 1104 766 764
f 1102 768 766
f 1092 776 774
f 656 654 641
f 664 662 641
f 641 670 668
f 674 672 641
f 688 686 641
f 706 704 641
f 1140 722 720
f 726 724 1140
f 1134 1132 742
f 764 1106 1104
f 766 1104 1102
f 1100 1098 770
f 1098 1096 772
f 1094 774 772
f 774 1094 1092
f 1080 1078 786
f 660 658 641
f 672 670 641
f 641 682 680
f 698 696 641
f 724 722 1140
f 1140 732 730
f 1140 736 734
f 1136 740 738
f 740 1136 1134
f 1124 750 748
f 1102 1100 768
f 772 770 1098
f 1092 1090 776
f 1090 1088 778
f 1082 784 782
f 784 1082 1080
f 1070 794 792
f 1048 1046 812
f 1038 820 818
f 1036 1034 822
f 1034 1032 824
f 1210 844 842
f 1232 846 844
f 641 646 644
f 668 666 641
f 680 678 641
f 718 716 1140
f 734 732 1140
f 1138 738 736
f 742 740 1134
f 1132 1130 744
f 1130 1128 746
f 1126 748 746
f 748 1126 1124
f 1120 1118 754
f 1116 756 754
f 1112 1110 760
f 770 768 1100
f 778 776 1090
f 1088 1086 780
f 1084 782 780
f 786 784 1080
f 1078 1076 788
f 1074 790 788
f 1072 792 790
f 792 1072 1070
f 1068 1066 796
f 1056 1054 806
f 1052 808 806
f 810 1050 1048
f 1046 1044 814
f 1044 1042 816
f 1040 818 816
f 818 1040 1038
f 824 822 1034
f 1030 826 824
f 1028 828 826
f 1012 1011 842
f 844 1210 1232
f 1232 850 848
f 641 1154 1152
f 641 1188 1186
f 641 648 646
f 678 676 641
f 730 728 1140
f 738 1138 1136
f 746 744 1130
f 1124 1122 750
f 1122 1120 752
f 754 1118 1116
f 758 1114 1112
f 1110 1108 762
f 772 1096 1094
f 780 1086 1084
f 788 786 1078
f 790 1074 1072
f 796 794 1068
f 1066 1064 798
f 1058 1056 804
f 806 1054 1052
f 1050 810 808
f 814 812 1046
f 816 1042 1040
f 822 820 1036
f 826 1030 1028
f 1026 1024 830
f 1016 838 836
f 1014 1012 840
f 842 1011 1210
f 1232 852 850
f 1232 856 854
f 641 1148 1146
f 1152 1150 641
f 641 1158 1156
f 641 1162 1160
f 641 1166 1164
f 1186 1184 641
f 1457 874 872
f 1457 878 876
f 650 648 641
f 736 1140 1138
f 746 1128 1126
f 754 752 1120
f 1114 758 756
f 762 760 1110
f 780 778 1088
f 788 1076 1074
f 798 796 1066
f 1062 800 798
f 1060 802 800
f 802 1060 1058
f 808 1052 1050
f 816 814 1044
f 824 1032 1030
f 828 1028 1026
f 1018 836 834
f 836 1018 1016
f 842 840 1012
f 854 852 1232
f 1146 1144 641
f 1156 1154 641
f 1164 1162 641
f 641 1178 1176
f 641 1190 1188
f 876 874 1457
f 1457 1458 880
f 1458 886 884
f 684 682 641
f 752 750 1122
f 760 758 1112
f 782 1084 1082
f 798 1064 1062
f 804 802 1058
f 812 810 1048
f 830 828 1026
f 1024 1022 832
f 1020 834 832
f 1016 1014 838
f 848 846 1232
f 1232 862 860
f 1232 868 866
f 1144 1142 641
f 1160 1158 641
f 641 1170 1168
f 641 1174 1172
f 641 1180 1178
f 1184 1182 641
f 641 1194 1192
f 880 878 1457
f 884 882 1458
f 744 742 1132
f 762 1108 1106
f 800 1062 1060
f 1038 1036 820
f 832 1022 1020
f 840 838 1014
f 860 858 1232
f 866 864 1232
f 1150 1148 641
f 1172 1170 641
f 1182 1180 641
f 641 1195 1194
f 1457 870 868
f 882 880 1458
f 1458 890 888
f 756 1116 1114
f 806 804 1056
f 834 1020 1018
f 864 862 1232
f 1168 1166 641
f 1192 1190 641
f 872 870 1457
f 1458 891 890
f 1070 1068 794
f 858 856 1232
f 1176 1174 641
f 888 886 1458
f 832 830 1024
f 641 517 1195
f 644 640 641
f 868 1232 1457
f 1142 1140 641
f 1093 1095 771
f 1091 773 775
f 773 1091 1093
f 771 773 1093
f 1095 1097 769
f 1099 767 769
f 1101 765 767
f 1081 781 783
f 769 771 1095
f 767 1099 1101
f 1103 1105 763
f 1141 250 711
f 783 1079 1081
f 1083 1085 779
f 769 1097 1099
f 765 1101 1103
f 1105 1107 761
f 1107 1109 759
f 1141 721 723
f 1141 713 715
f 250 709 711
f 250 701 703
f 1073 1075 787
f 1075 1077 785
f 1079 783 785
f 779 781 1083
f 1085 1087 777
f 1089 775 777
f 763 765 1103
f 759 761 1107
f 1113 755 757
f 1125 1127 745
f 1141 729 731
f 1141 725 727
f 1141 719 721
f 715 717 1141
f 250 707 709
f 703 705 250
f 250 697 699
f 250 693 695
f 250 689 691
f 250 645 647
f 1199 1198 841
f 1198 1010 839
f 1035 819 821
f 1037 817 819
f 1039 1041 815
f 1049 807 809
f 1071 1073 789
f 785 787 1075
f 1081 1083 781
f 777 1087 1089
f 761 763 1105
f 1111 757 759
f 757 1111 1113
f 1117 1119 751
f 1121 749 751
f 747 1123 1125
f 1127 1129 743
f 1131 741 743
f 1133 739 741
f 1135 737 739
f 727 729 1141
f 717 719 1141
f 705 707 250
f 695 697 250
f 250 687 689
f 250 683 685
f 250 669 671
f 250 659 661
f 250 655 657
f 250 651 653
f 647 649 250
f 1199 849 851
f 839 841 1198
f 1013 837 839
f 1029 1031 823
f 1031 1033 821
f 819 1035 1037
f 817 1037 1039
f 1041 1043 813
f 1045 811 813
f 1047 809 811
f 809 1047 1049
f 1053 1055 803
f 1057 801 803
f 1069 791 793
f 791 1069 1071
f 785 1077 1079
f 775 1089 1091
f 1113 1115 755
f 1115 1117 753
f 751 1119 1121
f 1123 747 749
f 743 745 1127
f 741 1131 1133
f 739 1133 1135
f 1137 1139 735
f 723 725 1141
f 699 701 250
f 685 687 250
f 250 679 681
f 250 667 669
f 250 663 665
f 657 659 250
f 649 651 250
f 1199 847 849
f 1199 843 845
f 839 1010 1013
f 1015 835 837
f 1017 1019 833
f 1027 825 827
f 821 823 1031
f 815 817 1039
f 813 1043 1045
f 1049 1051 807
f 1051 1053 805
f 803 1055 1057
f 1059 799 801
f 1067 793 795
f 789 791 1071
f 777 779 1085
f 753 755 1115
f 749 1121 1123
f 743 1129 1131
f 735 737 1137
f 1139 1141 733
f 711 713 1141
f 681 683 250
f 250 675 677
f 665 667 250
f 653 655 250
f 1459 871 873
f 250 1185 1187
f 250 1151 1153
f 845 847 1199
f 837 1013 1015
f 835 1015 1017
f 1019 1021 831
f 827 1025 1027
f 821 1033 1035
f 811 1045 1047
f 803 805 1053
f 801 1057 1059
f 1061 1063 797
f 1063 1065 795
f 793 1067 1069
f 759 1109 1111
f 745 747 1125
f 733 735 1139
f 691 693 250
f 250 673 675
f 661 663 250
f 250 249 642
f 1459 869 871
f 250 1183 1185
f 250 1163 1165
f 250 1159 1161
f 250 1155 1157
f 250 1149 1151
f 250 1145 1147
f 1199 861 863
f 1199 855 857
f 841 843 1199
f 831 833 1019
f 1021 1023 829
f 1025 827 829
f 823 825 1029
f 805 807 1051
f 797 799 1061
f 795 1065 1067
f 751 753 1117
f 731 733 1141
f 671 673 250
f 642 643 250
f 643 645 250
f 1460 879 881
f 1459 875 877
f 1459 867 869
f 1187 1189 250
f 250 1175 1177
f 1161 1163 250
f 1153 1155 250
f 250 1143 1145
f 1199 859 861
f 1199 853 855
f 833 835 1017
f 829 1023 1025
f 813 815 1041
f 795 797 1063
f 1135 1137 737
f 1460 877 879
f 873 875 1459
f 250 1191 1193
f 250 1181 1183
f 1177 1179 250
f 250 1171 1173
f 250 1167 1169
f 1157 1159 250
f 250 1141 1143
f 857 859 1199
f 829 831 1021
f 1059 1061 799
f 677 679 250
f 1460 883 885
f 877 1460 1459
f 1459 1199 865
f 1193 1197 250
f 1179 1181 250
f 1169 1171 250
f 1147 1149 250
f 851 853 1199
f 787 789 1073
f 885 887 1460
f 865 867 1459
f 1189 1191 250
f 1165 1167 250
f 1027 1029 825
f 881 883 1460
f 1173 1175 250
f 887 889 1460
f 1197 1196 250
f 1196 255 250
f 863 865 1199
f 1232 1396 1394
f 1199 1280 1278
f 1232 1392 1390
f 1232 1398 1396
f 1199 1281 1280
f 1394 1392 1232
f 1278 1277 1199
f 1459 1284 1281
f 1232 1400 1398
f 1281 1199 1459
f 1390 1457 1232
f 1277 1274 1199
f 1232 1402 1400
f 1459 1286 1284
f 1390 1388 1457
f 1274 1273 1199
f 1232 1404 1402
f 1459 1288 1286
f 1388 1386 1457
f 1273 1271 1199
f 1232 1406 1404
f 1459 1290 1288
f 1386 1384 1457
f 1271 1269 1199
f 1232 1408 1406
f 1459 1291 1290
f 1384 1382 1457
f 1269 1266 1199
f 1232 1410 1408
f 1459 1294 1291
f 1382 1380 1457
f 1266 1265 1199
f 1232 1412 1410
f 1459 1297 1294
f 1380 1378 1457
f 1265 1263 1199
f 1232 1414 1412
f 1459 1298 1297
f 1378 1376 1457
f 1263 1262 1199
f 1232 1416 1414
f 1459 1299 1298
f 1376 1374 1457
f 1262 1259 1199
f 1232 1418 1416
f 1459 1302 1299
f 1374 1372 1457
f 1259 1258 1199
f 1232 1420 1418
f 1459 1304 1302
f 1372 1370 1457
f 1258 1256 1199
f 1232 1422 1420
f 1459 1306 1304
f 1370 1368 1457
f 1256 1254 1199
f 1232 1424 1422
f 1459 1308 1306
f 1368 1366 1457
f 1254 1252 1199
f 1232 1426 1424
f 1459 1309 1308
f 1366 1364 1457
f 1252 1251 1199
f 1232 1428 1426
f 1459 1312 1309
f 1364 1362 1457
f 1251 1248 1199
f 1232 1430 1428
f 1459 1314 1312
f 1362 1360 1457
f 1232 1238 1432
f 1248 1247 1199
f 1432 1430 1232
f 1199 1244 1243
f 1459 1315 1314
f 1360 1358 1457
f 1247 1244 1199
f 1358 1356 1457
f 1459 1318 1315
f 1356 1354 1457
f 1459 1320 1318
f 1354 1352 1457
f 1459 1322 1320
f 1352 1350 1457
f 1459 1324 1322
f 1350 1348 1457
f 1459 1326 1324
f 1348 1346 1457
f 1459 1328 1326
f 1346 1344 1457
f 1459 1330 1328
f 1344 1342 1457
f 1459 1332 1330
f 1459 1336 1334
f 1457 1338 1336
f 1342 1340 1457
f 1334 1332 1459
f 1243 1200 1199
f 1340 1338 1457
f 1336 1459 1457
f 891 1458 1395
f 1458 1393 1395
f 1460 889 1279
f 1395 1397 891
f 889 1276 1279
f 1458 1391 1393
f 1279 1283 1460
f 1397 1399 891
f 889 1275 1276
f 1458 1389 1391
f 1283 1282 1460
f 1399 1401 891
f 889 1455 1275
f 1458 1387 1389
f 1282 1285 1460
f 1401 1403 891
f 889 1272 1455
f 1458 1385 1387
f 1285 1287 1460
f 1403 1405 891
f 889 1270 1272
f 1458 1383 1385
f 1287 1289 1460
f 1405 1407 891
f 889 1267 1270
f 1458 1381 1383
f 1289 1293 1460
f 1407 1409 891
f 889 1268 1267
f 1458 1379 1381
f 1293 1292 1460
f 1409 1411 891
f 889 1264 1268
f 1458 1377 1379
f 1292 1295 1460
f 1411 1413 891
f 889 1261 1264
f 1458 1375 1377
f 1295 1296 1460
f 1413 1415 891
f 889 1260 1261
f 1458 1373 1375
f 1296 1301 1460
f 1415 1417 891
f 889 1456 1260
f 1458 1371 1373
f 1301 1300 1460
f 1417 1419 891
f 889 1257 1456
f 1458 1369 1371
f 1300 1303 1460
f 1419 1421 891
f 889 1255 1257
f 1458 1367 1369
f 1303 1305 1460
f 1421 1423 891
f 889 1253 1255
f 1458 1365 1367
f 1305 1307 1460
f 1423 1425 891
f 889 1250 1253
f 1458 1363 1365
f 1307 1311 1460
f 1425 1427 891
f 889 1249 1250
f 1458 1361 1363
f 1311 1310 1460
f 1427 1429 891
f 889 1246 1249
f 1458 1359 1361
f 1310 1313 1460
f 1429 1431 891
f 889 1245 1246
f 1458 1357 1359
f 1313 1317 1460
f 1431 1433 891
f 889 1453 1245
f 1458 1355 1357
f 1317 1316 1460
f 1433 1434 891
f 889 1454 1453
f 1458 1353 1355
f 1316 1319 1460
f 1434 1435 891
f 889 1452 1454
f 1458 1351 1353
f 1319 1321 1460
f 1435 1436 891
f 889 1451 1452
f 1458 1349 1351
f 1321 1323 1460
f 1436 1437 891
f 889 1450 1451
f 1458 1347 1349
f 1323 1325 1460
f 1437 1438 891
f 889 1449 1450
f 1458 1345 1347
f 1325 1327 1460
f 1438 1439 891
f 889 1448 1449
f 1458 1343 1345
f 1327 1329 1460
f 1439 1440 891
f 1329 1331 1460
f 889 1446 1447
f 891 1442 1443
f 1440 1441 891
f 1458 1339 1341
f 1447 1448 889
f 1331 1333 1460
f 1443 889 891
f 1443 1444 889
f 1341 1343 1458
f 1441 1442 891
f 1458 1460 1337
f 1333 1335 1460
f 889 1444 1445
f 1337 1339 1458
f 1445 1446 889
f 1335 1337 1460
f 1457 1459 1460
f 1460 1458 1457
f 638 1461 1462
f 639 1463 1464
f 639 641 1465
f 638 1464 1461
f 1465 1463 639
f 1464 638 639
f 641 640 1466
f 1466 1465 641
f 640 1462 1466
f 1462 640 638
f 1467 897 896
f 1468 1467 892
f 896 895 1467
f 1468 1005 1004
f 1467 893 892
f 895 894 1467
f 1467 899 898
f 1469 952 951
f 1470 975 974
f 1470 979 978
f 1470 982 981
f 1470 988 987
f 1468 1006 1005
f 1468 1008 1007
f 892 1009 1468
f 898 897 1467
f 1467 902 901
f 1469 953 952
f 1469 964 963
f 1470 976 975
f 978 977 1470
f 981 980 1470
f 1470 985 984
f 987 986 1470
f 1468 997 996
f 1468 1000 999
f 1007 1006 1468
f 894 893 1467
f 901 900 1467
f 1467 911 910
f 1471 912 911
f 1472 938 937
f 1472 949 948
f 1469 954 953
f 1469 956 955
f 1469 960 959
f 963 962 1469
f 977 976 1470
f 1470 983 982
f 986 985 1470
f 1470 990 989
f 1468 994 993
f 1468 998 997
f 1468 1001 1000
f 1009 1008 1468
f 1467 903 902
f 1467 908 907
f 910 909 1467
f 1471 913 912
f 1471 915 914
f 1471 919 918
f 1471 922 921
f 1472 932 931
f 1472 936 935
f 1472 939 938
f 1472 946 945
f 948 947 1472
f 955 954 1469
f 1469 958 957
f 1469 961 960
f 1469 965 964
f 1469 969 968
f 1469 971 970
f 1470 972 971
f 980 979 1470
f 989 988 1470
f 1468 991 990
f 1468 995 994
f 999 998 1468
f 1468 1003 1002
f 900 899 1467
f 909 908 1467
f 914 913 1471
f 918 917 1471
f 1471 923 922
f 931 1471 1472
f 1472 934 933
f 937 936 1472
f 1472 942 941
f 1472 944 943
f 947 946 1472
f 1472 951 950
f 957 956 1469
f 962 961 1469
f 970 969 1469
f 1470 973 972
f 984 983 1470
f 1468 992 991
f 996 995 1468
f 1004 1003 1468
f 1467 906 905
f 911 1467 1471
f 917 916 1471
f 921 920 1471
f 1471 925 924
f 933 932 1472
f 1472 940 939
f 943 942 1472
f 950 949 1472
f 959 958 1469
f 1469 967 966
f 971 1469 1470
f 990 1470 1468
f 1002 1001 1468
f 905 904 1467
f 916 915 1471
f 924 923 1471
f 935 934 1472
f 945 944 1472
f 966 965 1469
f 974 973 1470
f 904 903 1467
f 920 919 1471
f 1471 928 927
f 1471 930 929
f 941 940 1472
f 968 967 1469
f 907 906 1467
f 927 926 1471
f 931 930 1471
f 993 992 1468
f 929 928 1471
f 926 925 1471
f 951 1472 1469
f 1472 1462 1461
f 1461 1469 1472
f 1469 1461 1464
f 1464 1470 1469
f 1470 1464 1463
f 1463 1468 1470
f 1468 1463 1465
f 1465 1467 1468
f 1467 1465 1466
f 1466 1471 1467
f 1471 1466 1462
f 1462 1472 1471
