# 
# Wavefront OBJ file
# Created with Kaydara FBX
# 
mtllib klizac.mtl

g klizac
v -6.800000 -0.147611 2.253964
v -6.800000 -0.294796 2.265846
v -6.800000 -0.441131 2.285612
v -6.800000 -0.586194 2.313203
v -6.800000 -0.729567 2.348542
v -6.800000 -0.870837 2.391525
v -6.800000 -1.009596 2.442029
v -6.800000 -1.145444 2.499908
v -6.800000 -1.277989 2.564996
v -6.800000 -1.406849 2.637104
v -6.800000 -1.531653 2.716026
v -6.800000 -1.652041 2.801532
v -6.800000 -1.767666 2.893378
v -6.800000 -1.878194 2.991297
v -6.800000 -1.983307 3.095008
v -6.800000 -2.082701 3.204212
v -6.800000 -2.176090 3.318593
v -6.800000 -2.263206 3.437822
v -6.800000 -2.343795 3.561555
v -6.800000 -2.417627 3.689436
v -6.800000 -2.484489 3.821095
v -6.800000 -2.544187 3.956154
v -6.800000 -2.596549 4.094222
v -6.800000 -2.641425 4.234902
v -6.800000 -2.678685 4.377788
v -6.800000 -2.708221 4.522468
v -6.800000 -2.729949 4.668524
v -6.800000 -2.743806 4.815536
v -6.800000 -2.749752 4.963081
v -6.800000 -2.747770 5.110731
v -6.800000 -2.737865 5.258063
v -6.800000 -2.720066 5.404650
v -6.800000 -2.694424 5.550071
v -6.800000 -2.661014 5.693905
v -6.800000 -2.619931 5.835739
v -6.800000 -2.571295 5.975163
v -6.800000 -2.515244 6.111776
v -6.800000 -2.451942 6.245183
v -6.800000 -2.381570 6.375000
v -6.800000 -2.304331 6.500852
v -6.800000 -2.220448 6.622377
v -6.800000 -2.130164 6.739225
v -6.800000 -2.033737 6.851057
v -6.800000 -1.931447 6.957553
v -6.800000 -1.823587 7.058405
v -6.800000 -1.710470 7.153321
v -6.800000 -1.592421 7.242029
v -6.800000 -1.469781 7.324273
v -6.800000 -1.342903 7.399815
v -6.800000 -1.212153 7.468438
v -6.800000 -1.077908 7.529943
v -6.800000 -0.940555 7.584155
v -6.800000 -0.800491 7.630915
v -6.800000 -0.658118 7.670090
v -6.800000 -0.513848 7.701566
v -6.800000 -0.368096 7.725253
v -6.800000 -0.221283 7.741083
v -6.800000 -0.073832 7.749009
v -6.800000 0.073832 7.749009
v -6.800000 0.221283 7.741083
v -6.800000 0.368096 7.725253
v -6.800000 0.513848 7.701566
v -6.800000 0.658118 7.670090
v -6.800000 0.800491 7.630915
v -6.800000 0.940555 7.584155
v -6.800000 1.077908 7.529943
v -6.800000 1.212153 7.468438
v -6.800000 1.342903 7.399815
v -6.800000 1.469781 7.324273
v -6.800000 1.592421 7.242029
v -6.800000 1.710470 7.153321
v -6.800000 1.823587 7.058405
v -6.800000 1.931447 6.957553
v -6.800000 2.033737 6.851057
v -6.800000 2.130164 6.739225
v -6.800000 2.220448 6.622377
v -6.800000 2.304331 6.500852
v -6.800000 2.381570 6.375000
v -6.800000 2.451942 6.245183
v -6.800000 2.515244 6.111776
v -6.800000 2.571295 5.975163
v -6.800000 2.619931 5.835739
v -6.800000 2.661014 5.693905
v -6.800000 2.694424 5.550071
v -6.800000 2.720066 5.404650
v -6.800000 2.737865 5.258063
v -6.800000 2.747770 5.110731
v -6.800000 2.749752 4.963081
v -6.800000 2.743806 4.815536
v -6.800000 2.729949 4.668524
v -6.800000 2.708221 4.522468
v -6.800000 2.678685 4.377788
v -6.800000 2.641425 4.234902
v -6.800000 2.596549 4.094222
v -6.800000 2.544187 3.956154
v -6.800000 2.484489 3.821095
v -6.800000 2.417627 3.689436
v -6.800000 2.343795 3.561555
v -6.800000 2.263206 3.437822
v -6.800000 2.176090 3.318593
v -6.800000 2.082701 3.204212
v -6.800000 1.983307 3.095008
v -6.800000 1.878194 2.991297
v -6.800000 1.767666 2.893378
v -6.800000 1.652041 2.801532
v -6.800000 1.531653 2.716026
v -6.800000 1.406849 2.637104
v -6.800000 1.277989 2.564996
v -6.800000 1.145444 2.499908
v -6.800000 1.009596 2.442029
v -6.800000 0.870837 2.391525
v -6.800000 0.729567 2.348542
v -6.800000 0.586194 2.313203
v -6.800000 0.441131 2.285612
v -6.800000 0.294796 2.265846
v -6.800000 0.147611 2.253964
v -6.800000 -0.000000 2.250000
v -6.800000 0.000000 5.000000
v -9.300000 -0.000000 2.250000
v -9.300000 -0.147611 2.253964
v -9.300000 -0.294796 2.265846
v -9.300000 -0.441131 2.285612
v -9.300000 -0.586194 2.313203
v -9.300000 -0.729567 2.348542
v -9.300000 -0.870837 2.391525
v -9.300000 -1.009596 2.442029
v -9.300000 -1.145444 2.499908
v -9.300000 -1.277989 2.564996
v -9.300000 -1.406849 2.637104
v -9.300000 -1.531653 2.716026
v -9.300000 -1.652041 2.801532
v -9.300000 -1.767666 2.893378
v -9.300000 -1.878194 2.991297
v -9.300000 -1.983307 3.095008
v -9.300000 -2.082701 3.204212
v -9.300000 -2.176090 3.318593
v -9.300000 -2.263206 3.437822
v -9.300000 -2.343795 3.561555
v -9.300000 -2.417627 3.689436
v -9.300000 -2.484489 3.821095
v -9.300000 -2.544187 3.956154
v -9.300000 -2.596549 4.094222
v -9.300000 -2.641425 4.234902
v -9.300000 -2.678685 4.377788
v -9.300000 -2.708221 4.522468
v -9.300000 -2.729949 4.668524
v -9.300000 -2.743806 4.815536
v -9.300000 -2.749752 4.963081
v -9.300000 -2.747770 5.110731
v -9.300000 -2.737865 5.258063
v -9.300000 -2.720066 5.404650
v -9.300000 -2.694424 5.550071
v -9.300000 -2.661014 5.693905
v -9.300000 -2.619931 5.835739
v -9.300000 -2.571295 5.975163
v -9.300000 -2.515244 6.111776
v -9.300000 -2.451942 6.245183
v -9.300000 -2.381570 6.375000
v -9.300000 -2.304331 6.500852
v -9.300000 -2.220448 6.622377
v -9.300000 -2.130164 6.739225
v -9.300000 -2.033737 6.851057
v -9.300000 -1.931447 6.957553
v -9.300000 -1.823587 7.058405
v -9.300000 -1.710470 7.153321
v -9.300000 -1.592421 7.242029
v -9.300000 -1.469781 7.324273
v -9.300000 -1.342903 7.399815
v -9.300000 -1.212153 7.468438
v -9.300000 -1.077908 7.529943
v -9.300000 -0.940555 7.584155
v -9.300000 -0.800491 7.630915
v -9.300000 -0.658118 7.670090
v -9.300000 -0.513848 7.701566
v -9.300000 -0.368096 7.725253
v -9.300000 -0.221283 7.741083
v -9.300000 -0.073832 7.749009
v -9.300000 0.000000 7.750000
v -9.300000 0.073832 7.749009
v -9.300000 0.221283 7.741083
v -9.300000 0.368096 7.725253
v -9.300000 0.513848 7.701566
v -9.300000 0.658118 7.670090
v -9.300000 0.800491 7.630915
v -9.300000 0.940555 7.584155
v -9.300000 1.077908 7.529943
v -9.300000 1.212153 7.468438
v -9.300000 1.342903 7.399815
v -9.300000 1.469781 7.324273
v -9.300000 1.592421 7.242029
v -9.300000 1.710470 7.153321
v -9.300000 1.823587 7.058405
v -9.300000 1.931447 6.957553
v -9.300000 2.033737 6.851057
v -9.300000 2.130164 6.739225
v -9.300000 2.220448 6.622377
v -9.300000 2.304331 6.500852
v -9.300000 2.381570 6.375000
v -9.300000 2.451942 6.245183
v -9.300000 2.515244 6.111776
v -9.300000 2.571295 5.975163
v -9.300000 2.619931 5.835739
v -9.300000 2.661014 5.693905
v -9.300000 2.694424 5.550071
v -9.300000 2.720066 5.404650
v -9.300000 2.737865 5.258063
v -9.300000 2.747770 5.110731
v -9.300000 2.749752 4.963081
v -9.300000 2.743806 4.815536
v -9.300000 2.729949 4.668524
v -9.300000 2.708221 4.522468
v -9.300000 2.678685 4.377788
v -9.300000 2.641425 4.234902
v -9.300000 2.596549 4.094222
v -9.300000 2.544187 3.956154
v -9.300000 2.484489 3.821095
v -9.300000 2.417627 3.689436
v -9.300000 2.343795 3.561555
v -9.300000 2.263206 3.437822
v -9.300000 2.176090 3.318593
v -9.300000 2.082701 3.204212
v -9.300000 1.983307 3.095008
v -9.300000 1.878194 2.991297
v -9.300000 1.767666 2.893378
v -9.300000 1.652041 2.801532
v -9.300000 1.531653 2.716026
v -9.300000 1.406849 2.637104
v -9.300000 1.277989 2.564996
v -9.300000 1.145444 2.499908
v -9.300000 1.009596 2.442029
v -9.300000 0.870837 2.391525
v -9.300000 0.729567 2.348542
v -9.300000 0.586194 2.313203
v -9.300000 0.441131 2.285612
v -9.300000 0.294796 2.265846
v -9.300000 0.147611 2.253964
v -9.300000 -6.779448 0.000000
v -9.300000 6.779448 0.000000
v -9.300000 -6.779448 10.000000
v -9.300000 6.779448 10.000000
v -6.800000 -6.779448 0.000000
v -6.800000 -6.779448 10.000000
v -6.800000 -6.800000 0.000000
v -6.800000 -6.800000 10.000000
v 6.800000 -6.800000 0.000000
v 6.800000 -6.800000 10.000000
v 6.800000 6.800000 0.000000
v 6.800000 6.800000 10.000000
v -6.800000 6.800000 0.000000
v -6.800000 6.800000 10.000000
v -6.800000 6.779448 0.000000
v -6.800000 6.779448 10.000000
v 4.089013 -0.089847 0.000000
v 4.090000 0.000000 0.000000
v 4.089013 0.089847 0.000000
v 3.738833 1.658079 0.000000
v 3.662395 1.820704 0.000000
v 4.081120 -0.269367 0.000000
v 3.488471 2.135103 0.000000
v 3.391322 2.286271 0.000000
v 3.578887 1.979814 0.000000
v 3.971152 0.978801 0.000000
v 3.924326 1.152286 0.000000
v 4.065350 -0.448367 0.000000
v 3.971152 -0.978801 0.000000
v 4.010312 -0.803427 0.000000
v -2.323385 3.366004 0.000000
v -2.468992 3.260702 0.000000
v -1.860823 3.642175 0.000000
v -2.019007 3.556924 0.000000
v 3.287626 2.433026 0.000000
v 3.177584 2.575084 0.000000
v 4.010312 0.803427 0.000000
v 4.065350 0.448367 0.000000
v 4.041732 0.626501 0.000000
v 4.081120 0.269367 0.000000
v 4.041732 -0.626501 0.000000
v -2.609832 3.149107 0.000000
v -1.699047 3.720395 0.000000
v 1.280958 3.884230 0.000000
v 2.096656 3.511714 0.000000
v 1.940383 3.600418 0.000000
v 3.869925 1.323547 0.000000
v 3.808055 1.492253 0.000000
v 3.808055 -1.492253 0.000000
v 3.869925 -1.323547 0.000000
v 3.578887 -1.979814 0.000000
v 3.662395 -1.820704 0.000000
v -3.839917 1.408240 0.000000
v -3.898067 1.238215 0.000000
v -2.745636 3.031433 0.000000
v -2.876139 2.907907 0.000000
v -2.173293 3.464808 0.000000
v -1.533992 3.791434 0.000000
v 1.450334 3.824216 0.000000
v 1.780365 3.682173 0.000000
v 1.616910 3.756821 0.000000
v 2.248882 3.416231 0.000000
v 2.540025 3.205678 0.000000
v 2.396767 3.314153 0.000000
v 3.738833 -1.658079 0.000000
v 3.488471 -2.135103 0.000000
v 3.287626 -2.433026 0.000000
v 3.391322 -2.286271 0.000000
v 2.678380 -3.091016 0.000000
v 2.811566 -2.970387 0.000000
v -3.774355 1.575546 0.000000
v -3.621515 1.900718 0.000000
v -3.701507 1.739811 0.000000
v -1.365976 3.855154 0.000000
v -1.022363 3.960161 0.000000
v -1.195323 3.911432 0.000000
v 2.811566 2.970387 0.000000
v 2.678380 3.091016 0.000000
v 3.061409 2.712172 0.000000
v 2.939324 2.844024 0.000000
v 3.924326 -1.152286 0.000000
v 3.061409 -2.712172 0.000000
v 3.177584 -2.575084 0.000000
v 2.939324 -2.844024 0.000000
v 2.096656 -3.511714 0.000000
v 2.248882 -3.416231 0.000000
v 1.450334 -3.824216 0.000000
v 1.616910 -3.756821 0.000000
v 0.403684 -4.070029 0.000000
v 0.582068 -4.048370 0.000000
v -0.134757 -4.087779 0.000000
v 0.044926 -4.089753 0.000000
v -1.195323 -3.911432 0.000000
v -1.022363 -3.960161 0.000000
v -2.019007 -3.556924 0.000000
v -1.860823 -3.642175 0.000000
v -3.948692 1.065801 0.000000
v -3.991695 0.891329 0.000000
v -3.440727 2.211221 0.000000
v -3.534532 2.057956 0.000000
v -3.120250 2.644266 0.000000
v -3.233385 2.504659 0.000000
v -3.001091 2.778768 0.000000
v -3.120250 -2.644266 0.000000
v -3.001091 -2.778768 0.000000
v -3.340280 -2.360218 0.000000
v -3.233385 -2.504659 0.000000
v 2.540025 -3.205678 0.000000
v 2.396767 -3.314153 0.000000
v 1.780365 -3.682173 0.000000
v 1.940383 -3.600418 0.000000
v 1.280958 -3.884230 0.000000
v 0.759327 -4.018896 0.000000
v 0.224522 -4.083833 0.000000
v -0.314179 -4.077915 0.000000
v -0.670859 -4.034606 0.000000
v -0.492995 -4.060179 0.000000
v -1.365976 -3.855154 0.000000
v -1.699047 -3.720395 0.000000
v -1.533992 -3.791434 0.000000
v -2.173293 -3.464808 0.000000
v -2.609832 -3.149107 0.000000
v -2.468992 -3.260702 0.000000
v -4.026994 0.715137 0.000000
v -3.340280 2.360218 0.000000
v -0.670859 4.034606 0.000000
v -0.847429 4.001245 0.000000
v 0.044926 4.089753 0.000000
v -0.134757 4.087779 0.000000
v 0.403684 4.070029 0.000000
v 0.224522 4.083833 0.000000
v 0.759327 4.018896 0.000000
v 0.582068 4.048370 0.000000
v -3.621515 -1.900718 0.000000
v -3.534532 -2.057956 0.000000
v -0.847429 -4.001245 0.000000
v -2.745636 -3.031433 0.000000
v -4.074218 0.358953 0.000000
v -4.086053 0.179650 0.000000
v -4.054519 0.537564 0.000000
v 0.935121 3.981664 0.000000
v -3.440727 -2.211221 0.000000
v -3.898067 -1.238215 0.000000
v -3.839917 -1.408240 0.000000
v -3.991695 -0.891329 0.000000
v -3.948692 -1.065801 0.000000
v -2.323385 -3.366004 0.000000
v -0.314179 4.077915 0.000000
v -0.492995 4.060179 0.000000
v -3.774355 -1.575546 0.000000
v -3.701507 -1.739811 0.000000
v -4.054519 -0.537564 0.000000
v -4.026994 -0.715137 0.000000
v 0.935121 -3.981664 0.000000
v 1.109110 -3.936747 0.000000
v -2.876139 -2.907907 0.000000
v 1.109110 3.936747 0.000000
v -4.086053 -0.179650 0.000000
v -4.074218 -0.358953 0.000000
v -4.090000 -0.000000 0.000000
v -4.090000 -0.000000 18.000000
v -4.086053 -0.179650 18.000000
v -4.074218 -0.358953 18.000000
v -4.054519 -0.537564 18.000000
v -4.026994 -0.715137 18.000000
v -3.991695 -0.891329 18.000000
v -3.948692 -1.065801 18.000000
v -3.898067 -1.238215 18.000000
v -3.839917 -1.408240 18.000000
v -3.774355 -1.575546 18.000000
v -3.701507 -1.739811 18.000000
v -3.621515 -1.900718 18.000000
v -3.534532 -2.057956 18.000000
v -3.440727 -2.211221 18.000000
v -3.340280 -2.360218 18.000000
v -3.233385 -2.504659 18.000000
v -3.120250 -2.644266 18.000000
v -3.001091 -2.778768 18.000000
v -2.876139 -2.907907 18.000000
v -2.745636 -3.031433 18.000000
v -2.609832 -3.149107 18.000000
v -2.468992 -3.260702 18.000000
v -2.323385 -3.366004 18.000000
v -2.173293 -3.464808 18.000000
v -2.019007 -3.556924 18.000000
v -1.860823 -3.642175 18.000000
v -1.699047 -3.720395 18.000000
v -1.533992 -3.791434 18.000000
v -1.365976 -3.855154 18.000000
v -1.195323 -3.911432 18.000000
v -1.022363 -3.960161 18.000000
v -0.847429 -4.001245 18.000000
v -0.670859 -4.034606 18.000000
v -0.492995 -4.060179 18.000000
v -0.314179 -4.077915 18.000000
v -0.134757 -4.087779 18.000000
v 0.044926 -4.089753 18.000000
v 0.224522 -4.083833 18.000000
v 0.403684 -4.070029 18.000000
v 0.582068 -4.048370 18.000000
v 0.759327 -4.018896 18.000000
v 0.935121 -3.981664 18.000000
v 1.109110 -3.936747 18.000000
v 1.280958 -3.884230 18.000000
v 1.450334 -3.824216 18.000000
v 1.616910 -3.756821 18.000000
v 1.780365 -3.682173 18.000000
v 1.940383 -3.600418 18.000000
v 2.096656 -3.511714 18.000000
v 2.248882 -3.416231 18.000000
v 2.396767 -3.314153 18.000000
v 2.540025 -3.205678 18.000000
v 2.678380 -3.091016 18.000000
v 2.811566 -2.970387 18.000000
v 2.939324 -2.844024 18.000000
v 3.061409 -2.712172 18.000000
v 3.177584 -2.575084 18.000000
v 3.287626 -2.433026 18.000000
v 3.391322 -2.286271 18.000000
v 3.488471 -2.135103 18.000000
v 3.578887 -1.979814 18.000000
v 3.662395 -1.820704 18.000000
v 3.738833 -1.658079 18.000000
v 3.808055 -1.492253 18.000000
v 3.869925 -1.323547 18.000000
v 3.924326 -1.152286 18.000000
v 3.971152 -0.978801 18.000000
v 4.010312 -0.803427 18.000000
v 4.041732 -0.626501 18.000000
v 4.065350 -0.448367 18.000000
v 4.081120 -0.269367 18.000000
v 4.089013 0.089847 18.000000
v 4.089013 -0.089847 18.000000
v 4.081120 0.269367 18.000000
v 4.065350 0.448367 18.000000
v 4.041732 0.626501 18.000000
v 4.010312 0.803427 18.000000
v 3.971152 0.978801 18.000000
v 3.924326 1.152286 18.000000
v 3.869925 1.323547 18.000000
v 3.808055 1.492253 18.000000
v 3.738833 1.658079 18.000000
v 3.662395 1.820704 18.000000
v 3.578887 1.979814 18.000000
v 3.488471 2.135103 18.000000
v 3.391322 2.286271 18.000000
v 3.287626 2.433026 18.000000
v 3.177584 2.575084 18.000000
v 3.061409 2.712172 18.000000
v 2.939324 2.844024 18.000000
v 2.811566 2.970387 18.000000
v 2.678380 3.091016 18.000000
v 2.540025 3.205678 18.000000
v 2.396767 3.314153 18.000000
v 2.248882 3.416231 18.000000
v 2.096656 3.511714 18.000000
v 1.940383 3.600418 18.000000
v 1.780365 3.682173 18.000000
v 1.616910 3.756821 18.000000
v 1.450334 3.824216 18.000000
v 1.280958 3.884230 18.000000
v 1.109110 3.936747 18.000000
v 0.935121 3.981664 18.000000
v 0.759327 4.018896 18.000000
v 0.582068 4.048370 18.000000
v 0.403684 4.070029 18.000000
v 0.224522 4.083833 18.000000
v 0.044926 4.089753 18.000000
v -0.000000 4.090000 18.000000
v -0.134757 4.087779 18.000000
v -0.314179 4.077915 18.000000
v -0.492995 4.060179 18.000000
v -0.670859 4.034606 18.000000
v -0.847429 4.001245 18.000000
v -1.022363 3.960161 18.000000
v -1.195323 3.911432 18.000000
v -1.365976 3.855154 18.000000
v -1.533992 3.791434 18.000000
v -1.699047 3.720395 18.000000
v -1.860823 3.642175 18.000000
v -2.019007 3.556924 18.000000
v -2.173293 3.464808 18.000000
v -2.323385 3.366004 18.000000
v -2.468992 3.260702 18.000000
v -2.609832 3.149107 18.000000
v -2.745636 3.031433 18.000000
v -2.876139 2.907907 18.000000
v -3.001091 2.778768 18.000000
v -3.120250 2.644266 18.000000
v -3.233385 2.504659 18.000000
v -3.340280 2.360218 18.000000
v -3.440727 2.211221 18.000000
v -3.534532 2.057956 18.000000
v -3.621515 1.900718 18.000000
v -3.701507 1.739811 18.000000
v -3.774355 1.575546 18.000000
v -3.839917 1.408240 18.000000
v -3.898067 1.238215 18.000000
v -3.948692 1.065801 18.000000
v -3.991695 0.891329 18.000000
v -4.026994 0.715137 18.000000
v -4.054519 0.537564 18.000000
v -4.074218 0.358953 18.000000
v -4.086053 0.179650 18.000000
v -10.000000 10.000000 10.000000
v 10.000000 10.000000 10.000000
v 10.000000 -10.000000 10.000000
v -10.000000 -10.000000 10.000000
v -10.000000 10.000000 18.000000
v -10.000000 -10.000000 18.000000
v 10.000000 10.000000 18.000000
v 10.000000 -10.000000 18.000000
usemtl klizacMaterial0
f 118 1 2
f 2 3 118
f 3 4 118
f 4 5 118
f 5 6 118
f 6 7 118
f 7 8 118
f 8 9 118
f 9 10 118
f 10 11 118
f 11 12 118
f 12 13 118
f 13 14 118
f 14 15 118
f 15 16 118
f 16 17 118
f 17 18 118
f 18 19 118
f 19 20 118
f 20 21 118
f 21 22 118
f 22 23 118
f 23 24 118
f 24 25 118
f 25 26 118
f 26 27 118
f 27 28 118
f 28 29 118
f 29 30 118
f 30 31 118
f 31 32 118
f 32 33 118
f 33 34 118
f 34 35 118
f 35 36 118
f 36 37 118
f 37 38 118
f 38 39 118
f 39 40 118
f 40 41 118
f 41 42 118
f 42 43 118
f 43 44 118
f 44 45 118
f 45 46 118
f 46 47 118
f 47 48 118
f 48 49 118
f 49 50 118
f 50 51 118
f 51 52 118
f 52 53 118
f 53 54 118
f 54 55 118
f 55 56 118
f 56 57 118
f 57 58 118
f 58 59 118
f 59 60 118
f 60 61 118
f 61 62 118
f 62 63 118
f 63 64 118
f 64 65 118
f 65 66 118
f 66 67 118
f 67 68 118
f 68 69 118
f 69 70 118
f 70 71 118
f 71 72 118
f 72 73 118
f 73 74 118
f 74 75 118
f 75 76 118
f 76 77 118
f 77 78 118
f 78 79 118
f 79 80 118
f 80 81 118
f 81 82 118
f 82 83 118
f 83 84 118
f 84 85 118
f 85 86 118
f 86 87 118
f 87 88 118
f 88 89 118
f 89 90 118
f 90 91 118
f 91 92 118
f 92 93 118
f 93 94 118
f 94 95 118
f 95 96 118
f 96 97 118
f 97 98 118
f 98 99 118
f 99 100 118
f 100 101 118
f 101 102 118
f 102 103 118
f 103 104 118
f 104 105 118
f 105 106 118
f 106 107 118
f 107 108 118
f 108 109 118
f 109 110 118
f 110 111 118
f 111 112 118
f 112 113 118
f 113 114 118
f 114 115 118
f 115 116 118
f 116 117 118
f 117 1 118
f 1 117 119
f 2 1 120
f 3 2 121
f 4 3 122
f 5 4 123
f 6 5 124
f 7 6 125
f 8 7 126
f 9 8 127
f 10 9 128
f 11 10 129
f 12 11 130
f 13 12 131
f 14 13 132
f 15 14 133
f 16 15 134
f 17 16 135
f 18 17 136
f 19 18 137
f 20 19 138
f 21 20 139
f 22 21 140
f 23 22 141
f 24 23 142
f 25 24 143
f 26 25 144
f 27 26 145
f 28 27 146
f 29 28 147
f 30 29 148
f 31 30 149
f 32 31 150
f 33 32 151
f 34 33 152
f 35 34 153
f 36 35 154
f 37 36 155
f 38 37 156
f 39 38 157
f 40 39 158
f 41 40 159
f 42 41 160
f 43 42 161
f 44 43 162
f 45 44 163
f 46 45 164
f 47 46 165
f 48 47 166
f 49 48 167
f 50 49 168
f 51 50 169
f 52 51 170
f 53 52 171
f 54 53 172
f 55 54 173
f 56 55 174
f 57 56 175
f 58 57 176
f 58 177 178
f 178 59 58
f 60 59 179
f 61 60 180
f 62 61 181
f 63 62 182
f 64 63 183
f 65 64 184
f 66 65 185
f 67 66 186
f 68 67 187
f 69 68 188
f 70 69 189
f 71 70 190
f 72 71 191
f 73 72 192
f 74 73 193
f 75 74 194
f 76 75 195
f 77 76 196
f 78 77 197
f 79 78 198
f 80 79 199
f 81 80 200
f 82 81 201
f 83 82 202
f 84 83 203
f 85 84 204
f 86 85 205
f 87 86 206
f 88 87 207
f 89 88 208
f 90 89 209
f 91 90 210
f 92 91 211
f 93 92 212
f 94 93 213
f 95 94 214
f 96 95 215
f 97 96 216
f 98 97 217
f 99 98 218
f 100 99 219
f 101 100 220
f 102 101 221
f 103 102 222
f 104 103 223
f 105 104 224
f 106 105 225
f 107 106 226
f 108 107 227
f 109 108 228
f 110 109 229
f 111 110 230
f 112 111 231
f 113 112 232
f 114 113 233
f 115 114 234
f 116 115 235
f 117 116 236
f 236 119 117
f 235 236 116
f 234 235 115
f 233 234 114
f 232 233 113
f 231 232 112
f 230 231 111
f 229 230 110
f 228 229 109
f 227 228 108
f 226 227 107
f 225 226 106
f 224 225 105
f 223 224 104
f 222 223 103
f 221 222 102
f 220 221 101
f 219 220 100
f 218 219 99
f 217 218 98
f 216 217 97
f 215 216 96
f 214 215 95
f 213 214 94
f 212 213 93
f 211 212 92
f 210 211 91
f 209 210 90
f 208 209 89
f 207 208 88
f 206 207 87
f 205 206 86
f 204 205 85
f 203 204 84
f 202 203 83
f 201 202 82
f 200 201 81
f 199 200 80
f 198 199 79
f 197 198 78
f 196 197 77
f 195 196 76
f 194 195 75
f 193 194 74
f 192 193 73
f 191 192 72
f 190 191 71
f 189 190 70
f 188 189 69
f 187 188 68
f 186 187 67
f 185 186 66
f 184 185 65
f 183 184 64
f 182 183 63
f 181 182 62
f 180 181 61
f 179 180 60
f 178 179 59
f 176 177 58
f 175 176 57
f 174 175 56
f 173 174 55
f 172 173 54
f 171 172 53
f 170 171 52
f 169 170 51
f 168 169 50
f 167 168 49
f 166 167 48
f 165 166 47
f 164 165 46
f 163 164 45
f 162 163 44
f 161 162 43
f 160 161 42
f 159 160 41
f 158 159 40
f 157 158 39
f 156 157 38
f 155 156 37
f 154 155 36
f 153 154 35
f 152 153 34
f 151 152 33
f 150 151 32
f 149 150 31
f 148 149 30
f 147 148 29
f 146 147 28
f 145 146 27
f 144 145 26
f 143 144 25
f 142 143 24
f 141 142 23
f 140 141 22
f 139 140 21
f 138 139 20
f 137 138 19
f 136 137 18
f 135 136 17
f 134 135 16
f 133 134 15
f 132 133 14
f 131 132 13
f 130 131 12
f 129 130 11
f 128 129 10
f 127 128 9
f 126 127 8
f 125 126 7
f 124 125 6
f 123 124 5
f 122 123 4
f 121 122 3
f 120 121 2
f 119 120 1
f 237 125 124
f 237 126 125
f 238 222 221
f 238 224 223
f 237 120 119
f 124 123 237
f 238 219 218
f 221 220 238
f 238 225 224
f 238 227 226
f 238 232 231
f 237 121 120
f 123 122 237
f 239 149 148
f 220 219 238
f 226 225 238
f 238 230 229
f 238 233 232
f 238 235 234
f 238 119 236
f 122 121 237
f 237 131 130
f 239 150 149
f 223 222 238
f 229 228 238
f 234 233 238
f 119 238 237
f 130 129 237
f 237 133 132
f 237 145 144
f 237 147 146
f 239 151 150
f 240 238 208
f 238 214 213
f 238 217 216
f 228 227 238
f 236 235 238
f 237 128 127
f 132 131 237
f 237 135 134
f 146 145 237
f 148 237 239
f 239 162 161
f 208 207 240
f 238 211 210
f 238 215 214
f 218 217 238
f 127 126 237
f 134 133 237
f 148 147 237
f 239 155 154
f 239 163 162
f 240 196 195
f 240 198 197
f 240 200 199
f 238 209 208
f 238 212 211
f 216 215 238
f 129 128 237
f 237 137 136
f 237 139 138
f 239 152 151
f 154 153 239
f 239 159 158
f 161 160 239
f 240 193 192
f 195 194 240
f 199 198 240
f 240 202 201
f 240 204 203
f 240 206 205
f 210 209 238
f 231 230 238
f 138 137 237
f 237 141 140
f 237 143 142
f 153 152 239
f 239 157 156
f 160 159 239
f 239 165 164
f 192 191 240
f 197 196 240
f 203 202 240
f 207 206 240
f 136 135 237
f 142 141 237
f 156 155 239
f 164 163 239
f 194 193 240
f 205 204 240
f 140 139 237
f 158 157 239
f 201 200 240
f 144 143 237
f 239 169 168
f 239 240 178
f 240 182 181
f 240 184 183
f 240 187 186
f 240 190 189
f 213 212 238
f 239 167 166
f 239 170 169
f 239 172 171
f 239 176 175
f 178 177 239
f 240 180 179
f 183 182 240
f 186 185 240
f 189 188 240
f 166 165 239
f 171 170 239
f 239 174 173
f 177 176 239
f 181 180 240
f 188 187 240
f 168 167 239
f 175 174 239
f 185 184 240
f 173 172 239
f 191 190 240
f 179 178 240
f 237 241 242
f 242 239 237
f 243 244 242
f 242 241 243
f 244 243 245
f 245 246 244
f 246 245 247
f 247 248 246
f 248 247 249
f 249 250 248
f 250 249 251
f 251 252 250
f 240 252 251
f 251 238 240
f 245 253 254
f 254 247 245
f 254 255 247
f 247 256 257
f 245 258 253
f 247 259 260
f 257 261 247
f 247 262 263
f 245 264 258
f 245 265 266
f 238 267 268
f 238 269 270
f 247 271 272
f 261 259 247
f 247 273 262
f 247 274 275
f 255 276 247
f 266 277 245
f 268 278 238
f 238 279 269
f 249 247 280
f 247 281 282
f 260 271 247
f 247 283 284
f 275 273 247
f 277 264 245
f 245 285 286
f 245 287 288
f 238 289 290
f 238 291 292
f 238 293 267
f 238 294 279
f 247 295 280
f 247 296 297
f 247 298 281
f 247 299 300
f 284 256 247
f 276 274 247
f 245 301 285
f 245 302 287
f 245 303 304
f 245 305 306
f 238 307 289
f 238 308 309
f 278 291 238
f 238 310 294
f 238 311 312
f 297 295 247
f 300 298 247
f 247 313 314
f 247 315 316
f 263 283 247
f 286 317 245
f 304 302 245
f 245 318 319
f 306 320 245
f 245 321 322
f 245 323 324
f 245 325 326
f 243 327 328
f 243 329 330
f 243 331 332
f 238 333 334
f 309 307 238
f 238 335 336
f 238 337 338
f 292 339 238
f 312 310 238
f 340 341 241
f 237 342 343
f 282 296 247
f 316 313 247
f 317 265 245
f 319 303 245
f 245 344 305
f 322 345 245
f 245 346 347
f 245 348 323
f 326 349 245
f 245 328 350
f 243 351 327
f 243 352 353
f 243 354 329
f 243 355 356
f 243 357 331
f 243 358 359
f 334 360 238
f 336 308 238
f 338 361 238
f 270 293 238
f 238 362 363
f 238 364 365
f 238 366 367
f 238 368 369
f 343 340 237
f 237 370 371
f 314 299 247
f 288 301 245
f 345 344 245
f 324 346 245
f 350 325 245
f 353 351 243
f 330 372 243
f 332 355 243
f 243 373 358
f 238 374 375
f 360 376 238
f 361 335 238
f 363 311 238
f 367 364 238
f 238 377 368
f 369 366 238
f 241 237 340
f 371 378 237
f 237 379 380
f 237 381 382
f 272 315 247
f 347 321 245
f 328 245 243
f 356 354 243
f 359 383 243
f 373 243 241
f 376 374 238
f 339 337 238
f 238 384 385
f 378 342 237
f 237 386 387
f 382 379 237
f 237 388 389
f 320 318 245
f 245 390 391
f 372 352 243
f 241 392 373
f 290 333 238
f 365 384 238
f 251 280 393
f 387 370 237
f 389 381 237
f 237 394 395
f 237 238 396
f 391 348 245
f 383 357 243
f 385 362 238
f 393 238 251
f 393 377 238
f 380 386 237
f 396 394 237
f 349 390 245
f 375 396 238
f 395 388 237
f 280 251 249
f 341 392 241
f 394 396 397
f 395 394 398
f 388 395 399
f 389 388 400
f 381 389 401
f 382 381 402
f 379 382 403
f 380 379 404
f 386 380 405
f 387 386 406
f 370 387 407
f 371 370 408
f 378 371 409
f 342 378 410
f 343 342 411
f 340 343 412
f 341 340 413
f 392 341 414
f 373 392 415
f 358 373 416
f 359 358 417
f 383 359 418
f 357 383 419
f 331 357 420
f 332 331 421
f 355 332 422
f 356 355 423
f 354 356 424
f 329 354 425
f 330 329 426
f 372 330 427
f 352 372 428
f 353 352 429
f 351 353 430
f 327 351 431
f 328 327 432
f 350 328 433
f 325 350 434
f 326 325 435
f 349 326 436
f 390 349 437
f 391 390 438
f 348 391 439
f 323 348 440
f 324 323 441
f 346 324 442
f 347 346 443
f 321 347 444
f 322 321 445
f 345 322 446
f 344 345 447
f 305 344 448
f 306 305 449
f 320 306 450
f 318 320 451
f 319 318 452
f 303 319 453
f 304 303 454
f 302 304 455
f 287 302 456
f 288 287 457
f 301 288 458
f 285 301 459
f 286 285 460
f 317 286 461
f 265 317 462
f 266 265 463
f 277 266 464
f 264 277 465
f 258 264 466
f 253 258 467
f 468 255 254
f 254 469 468
f 254 253 469
f 276 255 468
f 274 276 470
f 275 274 471
f 273 275 472
f 262 273 473
f 263 262 474
f 283 263 475
f 284 283 476
f 256 284 477
f 257 256 478
f 261 257 479
f 259 261 480
f 260 259 481
f 271 260 482
f 272 271 483
f 315 272 484
f 316 315 485
f 313 316 486
f 314 313 487
f 299 314 488
f 300 299 489
f 298 300 490
f 281 298 491
f 282 281 492
f 296 282 493
f 297 296 494
f 295 297 495
f 280 295 496
f 393 280 497
f 377 393 498
f 368 377 499
f 369 368 500
f 366 369 501
f 367 366 502
f 364 367 503
f 364 504 505
f 505 365 364
f 505 506 365
f 384 365 506
f 385 384 507
f 362 385 508
f 363 362 509
f 311 363 510
f 312 311 511
f 310 312 512
f 294 310 513
f 279 294 514
f 269 279 515
f 270 269 516
f 293 270 517
f 267 293 518
f 268 267 519
f 278 268 520
f 291 278 521
f 292 291 522
f 339 292 523
f 337 339 524
f 338 337 525
f 361 338 526
f 335 361 527
f 336 335 528
f 308 336 529
f 309 308 530
f 307 309 531
f 289 307 532
f 290 289 533
f 333 290 534
f 334 333 535
f 360 334 536
f 376 360 537
f 374 376 538
f 375 374 539
f 396 375 540
f 540 397 396
f 539 540 375
f 538 539 374
f 537 538 376
f 536 537 360
f 535 536 334
f 534 535 333
f 533 534 290
f 532 533 289
f 531 532 307
f 530 531 309
f 529 530 308
f 528 529 336
f 527 528 335
f 526 527 361
f 525 526 338
f 524 525 337
f 523 524 339
f 522 523 292
f 521 522 291
f 520 521 278
f 519 520 268
f 518 519 267
f 517 518 293
f 516 517 270
f 515 516 269
f 514 515 279
f 513 514 294
f 512 513 310
f 511 512 312
f 510 511 311
f 509 510 363
f 508 509 362
f 507 508 385
f 506 507 384
f 503 504 364
f 502 503 367
f 501 502 366
f 500 501 369
f 499 500 368
f 498 499 377
f 497 498 393
f 496 497 280
f 495 496 295
f 494 495 297
f 493 494 296
f 492 493 282
f 491 492 281
f 490 491 298
f 489 490 300
f 488 489 299
f 487 488 314
f 486 487 313
f 485 486 316
f 484 485 315
f 483 484 272
f 482 483 271
f 481 482 260
f 480 481 259
f 479 480 261
f 478 479 257
f 477 478 256
f 476 477 284
f 475 476 283
f 474 475 263
f 473 474 262
f 472 473 273
f 471 472 275
f 470 471 274
f 468 470 276
f 467 469 253
f 466 467 258
f 465 466 264
f 464 465 277
f 463 464 266
f 462 463 265
f 461 462 317
f 460 461 286
f 459 460 285
f 458 459 301
f 457 458 288
f 456 457 287
f 455 456 302
f 454 455 304
f 453 454 303
f 452 453 319
f 451 452 318
f 450 451 320
f 449 450 306
f 448 449 305
f 447 448 344
f 446 447 345
f 445 446 322
f 444 445 321
f 443 444 347
f 442 443 346
f 441 442 324
f 440 441 323
f 439 440 348
f 438 439 391
f 437 438 390
f 436 437 349
f 435 436 326
f 434 435 325
f 433 434 350
f 432 433 328
f 431 432 327
f 430 431 351
f 429 430 353
f 428 429 352
f 427 428 372
f 426 427 330
f 425 426 329
f 424 425 354
f 423 424 356
f 422 423 355
f 421 422 332
f 420 421 331
f 419 420 357
f 418 419 383
f 417 418 359
f 416 417 358
f 415 416 373
f 414 415 392
f 413 414 341
f 412 413 340
f 411 412 343
f 410 411 342
f 409 410 378
f 408 409 371
f 407 408 370
f 406 407 387
f 405 406 386
f 404 405 380
f 403 404 379
f 402 403 382
f 401 402 381
f 400 401 389
f 399 400 388
f 398 399 395
f 397 398 394
f 240 541 250
f 541 542 248
f 248 250 541
f 542 543 246
f 246 248 542
f 543 544 244
f 244 246 543
f 239 242 244
f 244 544 239
f 544 541 240
f 240 239 544
f 250 252 240
f 545 521 520
f 546 419 418
f 545 518 517
f 545 522 521
f 418 417 546
f 547 545 505
f 545 515 514
f 517 516 545
f 520 519 545
f 545 524 523
f 545 530 529
f 545 532 531
f 546 413 412
f 546 416 415
f 546 420 419
f 546 422 421
f 546 428 427
f 546 548 433
f 545 506 505
f 545 513 512
f 516 515 545
f 523 522 545
f 531 530 545
f 546 410 409
f 546 414 413
f 417 416 546
f 546 423 422
f 546 425 424
f 427 426 546
f 546 431 430
f 433 432 546
f 548 459 458
f 547 476 475
f 505 504 547
f 514 513 545
f 545 525 524
f 545 527 526
f 545 533 532
f 545 535 534
f 545 537 536
f 545 546 397
f 546 400 399
f 546 411 410
f 415 414 546
f 424 423 546
f 546 429 428
f 432 431 546
f 548 435 434
f 548 437 436
f 548 451 450
f 548 456 455
f 458 457 548
f 548 461 460
f 548 465 464
f 547 473 472
f 475 474 547
f 547 480 479
f 547 491 490
f 547 502 501
f 545 507 506
f 545 511 510
f 519 518 545
f 545 528 527
f 534 533 545
f 545 538 537
f 397 540 545
f 399 398 546
f 412 411 546
f 426 425 546
f 434 433 548
f 548 438 437
f 548 443 442
f 548 447 446
f 548 452 451
f 548 454 453
f 457 456 548
f 548 462 461
f 548 466 465
f 548 469 467
f 547 471 470
f 474 473 547
f 547 481 480
f 547 483 482
f 547 492 491
f 547 494 493
f 547 496 495
f 501 500 547
f 504 503 547
f 512 511 545
f 529 528 545
f 545 539 538
f 398 397 546
f 546 404 403
f 546 406 405
f 421 420 546
f 436 435 548
f 442 441 548
f 548 445 444
f 548 448 447
f 450 449 548
f 455 454 548
f 548 463 462
f 467 466 548
f 548 547 468
f 472 471 547
f 547 478 477
f 482 481 547
f 547 485 484
f 547 487 486
f 547 489 488
f 493 492 547
f 547 497 496
f 503 502 547
f 545 509 508
f 526 525 545
f 540 539 545
f 546 402 401
f 405 404 546
f 546 408 407
f 430 429 546
f 444 443 548
f 449 448 548
f 460 459 548
f 468 469 548
f 477 476 547
f 484 483 547
f 488 487 547
f 495 494 547
f 508 507 545
f 536 535 545
f 403 402 546
f 409 408 546
f 446 445 548
f 464 463 548
f 479 478 547
f 490 489 547
f 510 509 545
f 407 406 546
f 548 440 439
f 453 452 548
f 486 485 547
f 547 499 498
f 401 400 546
f 441 440 548
f 498 497 547
f 439 438 548
f 500 499 547
f 470 468 547
f 548 543 542
f 542 547 548
f 547 542 541
f 541 545 547
f 545 541 544
f 544 546 545
f 546 544 543
f 543 548 546
