# 
# Wavefront OBJ file
# Created with Kaydara FBX
# 
mtllib spacer.mtl

g spacer
v 0.919530 -10.706225 0.000000
v 0.773355 -10.710185 0.000000
v 0.773355 -10.710185 2.626802
v 1.065276 -10.694357 0.000000
v 0.919530 -10.706225 2.626918
v 1.210166 -10.674616 0.000000
v 1.065276 -10.694357 2.627267
v 1.353775 -10.647060 0.000000
v 1.210166 -10.674616 2.627848
v 1.495681 -10.611770 0.000000
v 1.353775 -10.647060 2.628658
v 1.635469 -10.568848 0.000000
v 1.495681 -10.611770 2.629695
v 1.772728 -10.518422 0.000000
v 1.635469 -10.568848 2.630957
v 1.907055 -10.460638 0.000000
v 1.772728 -10.518422 2.632440
v 2.038058 -10.395667 0.000000
v 1.907055 -10.460638 2.634139
v 2.165350 -10.323699 0.000000
v 2.038058 -10.395667 2.636049
v 2.288560 -10.244945 0.000000
v 2.165350 -10.323699 2.638165
v 2.407325 -10.159636 0.000000
v 2.288560 -10.244945 2.640480
v 2.521298 -10.068022 0.000000
v 2.407325 -10.159636 2.642988
v 2.630143 -9.970372 0.000000
v 2.521298 -10.068022 2.645682
v 2.733543 -9.866973 0.000000
v 2.630143 -9.970372 2.648553
v 2.831192 -9.758128 0.000000
v 2.733543 -9.866973 2.651593
v 2.922806 -9.644155 0.000000
v 2.831192 -9.758128 2.654793
v 3.008115 -9.525390 0.000000
v 2.922806 -9.644155 2.658144
v 3.086869 -9.402180 0.000000
v 3.008115 -9.525390 2.661636
v 3.158837 -9.274887 0.000000
v 3.086869 -9.402180 2.665258
v 3.223809 -9.143885 0.000000
v 3.158837 -9.274887 2.669001
v 3.281592 -9.009558 0.000000
v 3.223809 -9.143885 2.672852
v 3.332018 -8.872299 0.000000
v 3.281592 -9.009558 2.676801
v 3.374940 -8.732511 0.000000
v 3.332018 -8.872299 2.680837
v 3.410230 -8.590605 0.000000
v 3.374940 -8.732511 2.684947
v 3.437786 -8.446996 0.000000
v 3.410230 -8.590605 2.689119
v 3.457527 -8.302106 0.000000
v 3.437786 -8.446996 2.693341
v 3.469395 -8.156360 0.000000
v 3.457527 -8.302106 2.697601
v 3.473355 -8.010185 0.000000
v 3.469395 -8.156360 2.701886
v 3.469395 -7.864010 0.000000
v 3.473355 -8.010185 2.706184
v 3.457527 -7.718263 0.000000
v 3.469395 -7.864010 2.710481
v 3.437786 -7.573373 0.000000
v 3.457527 -7.718263 2.714766
v 3.410230 -7.429764 0.000000
v 3.437786 -7.573373 2.719026
v 3.374940 -7.287858 0.000000
v 3.410230 -7.429764 2.723248
v 3.332018 -7.148071 0.000000
v 3.374940 -7.287858 2.727420
v 3.281592 -7.010812 0.000000
v 3.332018 -7.148071 2.731530
v 3.223809 -6.876484 0.000000
v 3.281592 -7.010812 2.735566
v 3.158837 -6.745482 0.000000
v 3.223809 -6.876484 2.739515
v 3.086869 -6.618189 0.000000
v 3.158837 -6.745482 2.743367
v 3.008115 -6.494980 0.000000
v 3.086869 -6.618189 2.747109
v 2.922806 -6.376214 0.000000
v 3.008115 -6.494980 2.750732
v 2.831192 -6.262242 0.000000
v 2.922806 -6.376214 2.754223
v 2.733543 -6.153396 0.000000
v 2.831192 -6.262242 2.757574
v 2.630143 -6.049997 0.000000
v 2.733543 -6.153396 2.760774
v 2.521298 -5.952347 0.000000
v 2.630143 -6.049997 2.763814
v 2.407325 -5.860733 0.000000
v 2.521298 -5.952347 2.766685
v 2.288560 -5.775424 0.000000
v 2.407325 -5.860733 2.769379
v 2.165350 -5.696670 0.000000
v 2.288560 -5.775424 2.771887
v 2.038058 -5.624702 0.000000
v 2.165350 -5.696670 2.774202
v 1.907055 -5.559731 0.000000
v 2.038058 -5.624702 2.776318
v 1.772728 -5.501948 0.000000
v 1.907055 -5.559731 2.778228
v 1.635469 -5.451521 0.000000
v 1.772728 -5.501948 2.779927
v 1.495681 -5.408600 0.000000
v 1.635469 -5.451521 2.781410
v 1.353775 -5.373309 0.000000
v 1.495681 -5.408600 2.782672
v 1.210166 -5.345753 0.000000
v 1.353775 -5.373309 2.783709
v 1.065276 -5.326012 0.000000
v 1.210166 -5.345753 2.784520
v 0.919530 -5.314144 0.000000
v 1.065276 -5.326012 2.785100
v 0.773355 -5.310185 0.000000
v 0.919530 -5.314144 2.785449
v 0.773355 -5.310185 2.785565
v 0.627180 -5.314144 2.785449
v 0.627180 -5.314144 0.000000
v 0.481434 -5.326012 2.785100
v 0.481434 -5.326012 0.000000
v 0.336543 -5.345753 2.784520
v 0.336543 -5.345753 0.000000
v 0.192935 -5.373309 2.783709
v 0.192935 -5.373309 0.000000
v 0.051028 -5.408600 2.782672
v 0.051028 -5.408600 0.000000
v -0.088759 -5.451521 2.781410
v -0.088759 -5.451521 0.000000
v -0.226018 -5.501948 2.779927
v -0.226018 -5.501948 0.000000
v -0.360346 -5.559731 2.778228
v -0.360346 -5.559731 0.000000
v -0.491348 -5.624702 2.776318
v -0.491348 -5.624702 0.000000
v -0.618641 -5.696670 2.774202
v -0.618641 -5.696670 0.000000
v -0.741850 -5.775424 2.771887
v -0.741850 -5.775424 0.000000
v -0.860616 -5.860733 2.769379
v -0.860616 -5.860733 0.000000
v -0.974588 -5.952347 2.766685
v -0.974588 -5.952347 0.000000
v -1.083434 -6.049997 2.763814
v -1.083434 -6.049997 0.000000
v -1.186833 -6.153396 2.760774
v -1.186833 -6.153396 0.000000
v -1.284483 -6.262242 2.757574
v -1.284483 -6.262242 0.000000
v -1.376096 -6.376214 2.754223
v -1.376096 -6.376214 0.000000
v -1.461405 -6.494980 2.750732
v -1.461405 -6.494980 0.000000
v -1.540160 -6.618189 2.747109
v -1.540160 -6.618189 0.000000
v -1.612128 -6.745482 2.743367
v -1.612128 -6.745482 0.000000
v -1.677099 -6.876484 2.739515
v -1.677099 -6.876484 0.000000
v -1.734882 -7.010812 2.735566
v -1.734882 -7.010812 0.000000
v -1.785309 -7.148071 2.731530
v -1.785309 -7.148071 0.000000
v -1.828230 -7.287858 2.727420
v -1.828230 -7.287858 0.000000
v -1.863521 -7.429764 2.723248
v -1.863521 -7.429764 0.000000
v -1.891077 -7.573373 2.719026
v -1.891077 -7.573373 0.000000
v -1.910818 -7.718263 2.714766
v -1.910818 -7.718263 0.000000
v -1.922685 -7.864010 2.710481
v -1.922685 -7.864010 0.000000
v -1.926645 -8.010185 2.706184
v -1.926645 -8.010185 0.000000
v -1.922685 -8.156360 2.701886
v -1.922685 -8.156360 0.000000
v -1.910818 -8.302106 2.697601
v -1.910818 -8.302106 0.000000
v -1.891077 -8.446996 2.693341
v -1.891077 -8.446996 0.000000
v -1.863521 -8.590605 2.689119
v -1.863521 -8.590605 0.000000
v -1.828230 -8.732511 2.684947
v -1.828230 -8.732511 0.000000
v -1.785309 -8.872299 2.680837
v -1.785309 -8.872299 0.000000
v -1.734882 -9.009558 2.676801
v -1.734882 -9.009558 0.000000
v -1.677099 -9.143885 2.672852
v -1.677099 -9.143885 0.000000
v -1.612128 -9.274887 2.669001
v -1.612128 -9.274887 0.000000
v -1.540160 -9.402180 2.665258
v -1.540160 -9.402180 0.000000
v -1.461405 -9.525390 2.661636
v -1.461405 -9.525390 0.000000
v -1.376096 -9.644155 2.658144
v -1.376096 -9.644155 0.000000
v -1.284483 -9.758128 2.654793
v -1.284483 -9.758128 0.000000
v -1.186833 -9.866973 2.651593
v -1.186833 -9.866973 0.000000
v -1.083434 -9.970372 2.648553
v -1.083434 -9.970372 0.000000
v -0.974588 -10.068022 2.645682
v -0.974588 -10.068022 0.000000
v -0.860616 -10.159636 2.642988
v -0.860616 -10.159636 0.000000
v -0.741850 -10.244945 2.640480
v -0.741850 -10.244945 0.000000
v -0.618641 -10.323699 2.638165
v -0.618641 -10.323699 0.000000
v -0.491348 -10.395667 2.636049
v -0.491348 -10.395667 0.000000
v -0.360346 -10.460638 2.634139
v -0.360346 -10.460638 0.000000
v -0.226018 -10.518422 2.632440
v -0.226018 -10.518422 0.000000
v -0.088759 -10.568848 2.630957
v -0.088759 -10.568848 0.000000
v 0.051028 -10.611770 2.629695
v 0.051028 -10.611770 0.000000
v 0.192935 -10.647060 2.628658
v 0.192935 -10.647060 0.000000
v 0.336543 -10.674616 2.627848
v 0.336543 -10.674616 0.000000
v 0.481434 -10.694357 2.627267
v 0.481434 -10.694357 0.000000
v 0.627180 -10.706225 2.626918
v 0.627180 -10.706225 0.000000
v 1.635469 11.431152 0.000000
v 5.773355 -31.010185 0.000000
v 3.437786 -25.573373 0.000000
v 3.410230 -25.429764 0.000000
v 3.457527 -26.302106 0.000000
v 3.469395 -26.156360 0.000000
v 3.410230 -26.590605 0.000000
v 3.437786 -26.446996 0.000000
v 1.495681 11.388230 0.000000
v 2.831192 -27.758128 0.000000
v 2.922806 -27.644155 0.000000
v 3.158837 -24.745482 0.000000
v 3.086869 -24.618189 0.000000
v 1.353775 11.352940 0.000000
v 3.457527 -25.718263 0.000000
v 3.374940 -26.732511 0.000000
v 3.281592 -27.009558 0.000000
v 3.332018 -26.872299 0.000000
v 3.008115 -27.525390 0.000000
v 3.008115 -24.494980 0.000000
v 2.922806 -24.376214 0.000000
v 3.473355 -26.010185 0.000000
v 3.469395 -25.864010 0.000000
v 3.086869 -27.402180 0.000000
v 0.481434 11.305643 0.000000
v -4.226645 -31.010185 0.000000
v -0.088759 11.431152 0.000000
v 2.288560 -23.775424 0.000000
v 2.165350 -23.696670 0.000000
v 2.521298 -23.952347 0.000000
v 2.407325 -23.860733 0.000000
v 3.281592 -25.010812 0.000000
v 3.223809 -24.876484 0.000000
v 3.158837 -27.274887 0.000000
v -1.910818 -25.718263 0.000000
v -1.922685 -25.864010 0.000000
v 0.051028 11.388230 0.000000
v -1.891077 -25.573373 0.000000
v 2.630143 -24.049997 0.000000
v 3.374940 -25.287858 0.000000
v 3.332018 -25.148071 0.000000
v 3.223809 -27.143885 0.000000
v 0.627180 11.293775 0.000000
v 0.773355 11.289815 0.000000
v -1.785309 -25.148071 0.000000
v -1.828230 -25.287858 0.000000
v 0.192935 11.352940 0.000000
v 5.773355 18.989815 0.000000
v 3.281592 14.989188 0.000000
v 3.223809 15.123516 0.000000
v 3.374940 14.712142 0.000000
v 3.332018 14.851929 0.000000
v 3.473355 13.989815 0.000000
v 3.469395 14.135990 0.000000
v 2.831192 -24.262242 0.000000
v 2.733543 -24.153396 0.000000
v 0.919530 11.293775 0.000000
v -1.863521 -25.429764 0.000000
v -1.926645 -26.010185 0.000000
v -1.612128 -24.745482 0.000000
v -1.677099 -24.876484 0.000000
v 3.437786 14.426627 0.000000
v 3.410230 14.570236 0.000000
v 3.457527 14.281737 0.000000
v 1.065276 11.305643 0.000000
v 0.336543 11.325384 0.000000
v -1.734882 -25.010812 0.000000
v -4.226645 18.989815 0.000000
v -1.891077 13.553004 0.000000
v 3.469395 13.843640 0.000000
v 3.332018 13.127701 0.000000
v 3.374940 13.267489 0.000000
v 3.158837 12.725113 0.000000
v 3.223809 12.856115 0.000000
v 2.165350 11.676301 0.000000
v 2.288560 11.755055 0.000000
v 1.907055 11.539362 0.000000
v 2.038058 11.604333 0.000000
v 2.038058 -23.624702 0.000000
v 2.733543 -27.866973 0.000000
v 2.407325 -28.159636 0.000000
v 2.521298 -28.068022 0.000000
v 1.210166 11.325384 0.000000
v -0.360346 11.539362 0.000000
v -0.226018 11.481578 0.000000
v -0.741850 11.755055 0.000000
v -0.618641 11.676301 0.000000
v -1.734882 12.990442 0.000000
v -1.677099 12.856115 0.000000
v -1.863521 13.409395 0.000000
v -1.828230 14.712142 0.000000
v -1.863521 14.570236 0.000000
v -1.376096 15.623786 0.000000
v -1.461405 15.505020 0.000000
v 1.353775 -23.373309 0.000000
v 3.158837 15.254518 0.000000
v 3.086869 15.381811 0.000000
v 3.437786 13.553004 0.000000
v 3.457527 13.697894 0.000000
v 3.410230 13.409395 0.000000
v 3.281592 12.990442 0.000000
v 2.922806 12.355845 0.000000
v 3.008115 12.474610 0.000000
v 2.407325 11.840364 0.000000
v 2.521298 11.931978 0.000000
v 1.772728 11.481578 0.000000
v 2.630143 -27.970372 0.000000
v -0.491348 11.604333 0.000000
v -1.284483 12.241872 0.000000
v -1.186833 12.133027 0.000000
v -1.612128 12.725113 0.000000
v -1.540160 12.597820 0.000000
v -1.785309 13.127701 0.000000
v -1.828230 13.267489 0.000000
v -1.922685 13.843640 0.000000
v -1.910818 13.697894 0.000000
v -1.785309 14.851929 0.000000
v -1.677099 15.123516 0.000000
v -1.734882 14.989188 0.000000
v -1.540160 15.381811 0.000000
v -1.612128 15.254518 0.000000
v -1.284483 15.737758 0.000000
v 1.210166 -23.345753 0.000000
v 1.065276 -23.326012 0.000000
v 2.288560 16.224576 0.000000
v 2.165350 16.303330 0.000000
v 2.521298 16.047653 0.000000
v 2.407325 16.139267 0.000000
v 2.922806 15.623786 0.000000
v 2.831192 15.737758 0.000000
v 3.008115 15.505020 0.000000
v 3.086869 12.597820 0.000000
v 2.831192 12.241872 0.000000
v 2.630143 12.029628 0.000000
v 2.733543 12.133027 0.000000
v -1.083434 12.029628 0.000000
v -0.974588 11.931978 0.000000
v -1.376096 12.355845 0.000000
v -1.461405 12.474610 0.000000
v -1.926645 13.989815 0.000000
v -1.910818 14.281737 0.000000
v -1.922685 14.135990 0.000000
v -1.083434 15.950003 0.000000
v -1.186833 15.846604 0.000000
v 1.635469 16.548479 0.000000
v 1.495681 16.591400 0.000000
v 2.038058 16.375298 0.000000
v 1.907055 16.440269 0.000000
v 1.907055 -23.559731 0.000000
v -0.860616 11.840364 0.000000
v -1.891077 14.426627 0.000000
v -0.974588 16.047653 0.000000
v -0.741850 16.224576 0.000000
v -0.860616 16.139267 0.000000
v 0.192935 16.626691 0.000000
v 0.051028 16.591400 0.000000
v 1.353775 16.626691 0.000000
v 2.733543 15.846604 0.000000
v 2.630143 15.950003 0.000000
v 1.772728 -23.501948 0.000000
v 0.336543 16.654247 0.000000
v 0.919530 16.685856 0.000000
v 0.773355 16.689815 0.000000
v 1.772728 16.498052 0.000000
v -1.376096 -27.644155 0.000000
v -1.284483 -27.758128 0.000000
v -0.491348 16.375298 0.000000
v -0.618641 16.303330 0.000000
v -0.226018 16.498052 0.000000
v -0.360346 16.440269 0.000000
v -0.088759 16.548479 0.000000
v 1.495681 -23.408600 0.000000
v 1.065276 16.673988 0.000000
v 1.210166 16.654247 0.000000
v 2.038058 -28.395667 0.000000
v 2.165350 -28.323699 0.000000
v -1.186833 -27.866973 0.000000
v 1.635469 -23.451521 0.000000
v 2.288560 -28.244945 0.000000
v -0.088759 -28.568848 0.000000
v 0.051028 -28.611770 0.000000
v -1.461405 -27.525390 0.000000
v -1.677099 -27.143885 0.000000
v -1.612128 -27.274887 0.000000
v 0.192935 -23.373309 0.000000
v 1.907055 -28.460638 0.000000
v 1.635469 -28.568848 0.000000
v 1.772728 -28.518422 0.000000
v 0.192935 -28.647060 0.000000
v -0.618641 -28.323699 0.000000
v -0.491348 -28.395667 0.000000
v -0.974588 -28.068022 0.000000
v -0.860616 -28.159636 0.000000
v -1.083434 -27.970372 0.000000
v -1.540160 -27.402180 0.000000
v -1.828230 -26.732511 0.000000
v -1.785309 -26.872299 0.000000
v -1.891077 -26.446996 0.000000
v -1.863521 -26.590605 0.000000
v -1.922685 -26.156360 0.000000
v -1.910818 -26.302106 0.000000
v 0.481434 16.673988 0.000000
v 0.627180 16.685856 0.000000
v -0.226018 -28.518422 0.000000
v -0.360346 -28.460638 0.000000
v -0.741850 -28.244945 0.000000
v -1.083434 -24.049997 0.000000
v -1.186833 -24.153396 0.000000
v -0.741850 -23.775424 0.000000
v -0.860616 -23.860733 0.000000
v 0.336543 -28.674616 0.000000
v -1.734882 -27.009558 0.000000
v -1.540160 -24.618189 0.000000
v -1.461405 -24.494980 0.000000
v -1.284483 -24.262242 0.000000
v -0.974588 -23.952347 0.000000
v -0.491348 -23.624702 0.000000
v -0.618641 -23.696670 0.000000
v 0.336543 -23.345753 0.000000
v 0.627180 -28.706225 0.000000
v 0.773355 -28.710185 0.000000
v -1.376096 -24.376214 0.000000
v 0.481434 -23.326012 0.000000
v 1.353775 -28.647060 0.000000
v 1.495681 -28.611770 0.000000
v 0.481434 -28.694357 0.000000
v -0.360346 -23.559731 0.000000
v 0.051028 -23.408600 0.000000
v 0.773355 -23.310185 0.000000
v 0.627180 -23.314144 0.000000
v 1.065276 -28.694357 0.000000
v 1.210166 -28.674616 0.000000
v 0.919530 -28.706225 0.000000
v -0.088759 -23.451521 0.000000
v -0.226018 -23.501948 0.000000
v 0.919530 -23.314144 0.000000
v 5.773355 -31.010185 2.029970
v 3.469395 -25.864010 2.181270
v 3.473355 -26.010185 2.176973
v 3.469395 -26.156360 2.172675
v 3.457527 -25.718263 2.185555
v 3.457527 -26.302106 2.168390
v 3.437786 -25.573373 2.189815
v 3.410230 -25.429764 2.194037
v -4.226645 18.989815 3.500000
v -1.922685 13.843640 3.348699
v -1.926645 13.989815 3.352997
v 3.437786 -26.446996 2.164130
v -1.910818 13.697894 3.344414
v 3.410230 -26.590605 2.159908
v -1.922685 14.135990 3.357295
v 3.374940 -26.732511 2.155736
v 3.332018 -25.148071 2.202319
v 3.374940 -25.287858 2.198209
v -1.910818 14.281737 3.361580
v 3.332018 -26.872299 2.151626
v 3.281592 -25.010812 2.206355
v -1.891077 13.553004 3.340154
v 3.281592 -27.009558 2.147590
v 5.773355 18.989815 3.500000
v 3.223809 -24.876484 2.210304
v -1.863521 13.409395 3.335932
v 3.158837 -24.745482 2.214156
v -1.891077 14.426627 3.365839
v 3.223809 -27.143885 2.143641
v -1.863521 14.570236 3.370062
v -1.828230 14.712142 3.374234
v -1.785309 13.127701 3.327650
v -1.828230 13.267489 3.331760
v 3.158837 -27.274887 2.139790
v -1.785309 14.851929 3.378344
v -1.734882 12.990442 3.323615
v 3.086869 -27.402180 2.136047
v 3.008115 -24.494980 2.221521
v 3.086869 -24.618189 2.217898
v -1.734882 14.989188 3.382379
v -4.226645 -31.010185 2.029970
v -1.677099 12.856115 3.319665
v 3.008115 -27.525390 2.132425
v 2.922806 -24.376214 2.225012
v -1.612128 12.725113 3.315814
v 2.922806 -27.644155 2.128933
v 2.165350 -23.696670 2.244991
v 2.038058 -23.624702 2.247107
v -1.677099 15.123516 3.386328
v -1.922685 -26.156360 2.172675
v -1.926645 -26.010185 2.176973
v -1.922685 -25.864010 2.181270
v 2.831192 -27.758128 2.125582
v 2.733543 -24.153396 2.231563
v 2.831192 -24.262242 2.228363
v -1.612128 15.254518 3.390180
v -1.461405 12.474610 3.308449
v -1.540160 12.597820 3.312071
v -1.891077 -25.573373 2.189815
v -1.910818 -26.302106 2.168390
v 2.733543 -27.866973 2.122382
v 2.630143 -24.049997 2.234603
v -1.540160 15.381811 3.393922
v -1.376096 12.355845 3.304957
v -0.088759 11.431152 3.277771
v -1.910818 -25.718263 2.185555
v -1.891077 -26.446996 2.164130
v 2.630143 -27.970372 2.119342
v -1.461405 15.505020 3.397545
v 0.051028 11.388230 3.276509
v -1.863521 -26.590605 2.159908
v 2.521298 -28.068022 2.116471
v 2.407325 -23.860733 2.240168
v 2.521298 -23.952347 2.237474
v 3.457527 13.697894 3.344414
v -1.376096 15.623786 3.401037
v -1.828230 -26.732511 2.155736
v 2.407325 -28.159636 2.113777
v 3.469395 13.843640 3.348699
v 3.469395 14.135990 3.357295
v 3.473355 13.989815 3.352997
v -1.284483 15.737758 3.404388
v -1.186833 12.133027 3.298406
v -1.284483 12.241872 3.301606
v -1.785309 -26.872299 2.151626
v -1.186833 15.846604 3.407588
v -1.083434 12.029628 3.295366
v -1.734882 -27.009558 2.147590
v 2.288560 -28.244945 2.111269
v 2.288560 -23.775424 2.242676
v 3.457527 14.281737 3.361580
v -1.083434 15.950003 3.410628
v -1.677099 -27.143885 2.143641
v 2.165350 -28.323699 2.108954
v 3.437786 14.426627 3.365839
v -1.612128 -27.274887 2.139790
v 3.410230 14.570236 3.370062
v -0.974588 16.047653 3.413499
v -0.860616 11.840364 3.289802
v -0.974588 11.931978 3.292495
v -1.540160 -27.402180 2.136047
v 3.374940 14.712142 3.374234
v -0.860616 16.139267 3.416192
v -1.461405 -27.525390 2.132425
v 3.332018 14.851929 3.378344
v -0.618641 11.676301 3.284978
v -0.741850 11.755055 3.287294
v -1.376096 -27.644155 2.128933
v 3.281592 14.989188 3.382379
v -0.741850 16.224576 3.418700
v -1.284483 -27.758128 2.125582
v 2.038058 -28.395667 2.106838
v 3.223809 15.123516 3.386328
v -1.186833 -27.866973 2.122382
v 1.907055 -23.559731 2.249017
v 3.158837 15.254518 3.390180
v -0.618641 16.303330 3.421016
v -0.360346 11.539362 3.280952
v -0.491348 11.604333 3.282862
v -1.083434 -27.970372 2.119342
v -1.863521 -25.429764 2.194037
v 1.772728 -23.501948 2.250716
v 3.086869 15.381811 3.393922
v -0.491348 16.375298 3.423132
v -0.974588 -28.068022 2.116471
v -1.828230 -25.287858 2.198209
v -1.785309 -25.148071 2.202319
v 3.008115 15.505020 3.397545
v 0.919530 -23.314144 2.256238
v -0.860616 -28.159636 2.113777
v -1.734882 -25.010812 2.206355
v 1.907055 -28.460638 2.104928
v 2.922806 15.623786 3.401037
v -0.360346 16.440269 3.425042
v -0.741850 -28.244945 2.111269
v -1.677099 -24.876484 2.210304
v 0.773355 11.289815 3.273615
v 1.772728 -28.518422 2.103229
v 2.831192 15.737758 3.404388
v -0.226018 16.498052 3.426741
v -0.226018 11.481578 3.279253
v -0.618641 -28.323699 2.108954
v 3.437786 13.553004 3.340154
v 3.410230 13.409395 3.335932
v 1.635469 -23.451521 2.252199
v 2.733543 15.846604 3.407588
v -0.088759 16.548479 3.428223
v -0.491348 -28.395667 2.106838
v -1.612128 -24.745482 2.214156
v 3.374940 13.267489 3.331760
v 3.332018 13.127701 3.327650
v 2.630143 15.950003 3.410628
v -0.360346 -28.460638 2.104928
v -1.540160 -24.618189 2.217898
v 3.281592 12.990442 3.323615
v 2.521298 16.047653 3.413499
v -0.226018 -28.518422 2.103229
v -1.461405 -24.494980 2.221521
v 3.223809 12.856115 3.319665
v 1.495681 -23.408600 2.253461
v 2.407325 16.139267 3.416192
v 0.192935 11.352940 3.275471
v -0.088759 -28.568848 2.101746
v -1.376096 -24.376214 2.225012
v 1.635469 -28.568848 2.101746
v 2.288560 16.224576 3.418700
v 0.051028 16.591400 3.429485
v 0.051028 -28.611770 2.100484
v -1.284483 -24.262242 2.228363
v 3.158837 12.725113 3.315814
v 1.495681 -28.611770 2.100484
v 2.165350 16.303330 3.421016
v 0.192935 -28.647060 2.099447
v -1.186833 -24.153396 2.231563
v 3.086869 12.597820 3.312071
v 1.353775 -23.373309 2.254498
v 2.038058 16.375298 3.423132
v -1.083434 -24.049997 2.234603
v 3.008115 12.474610 3.308449
v 1.907055 16.440269 3.425042
v 0.336543 11.325384 3.274661
v -0.974588 -23.952347 2.237474
v 2.922806 12.355845 3.304957
v 1.210166 -23.345753 2.255309
v 1.772728 16.498052 3.426741
v 0.192935 16.626691 3.430523
v -0.860616 -23.860733 2.240168
v 2.831192 12.241872 3.301606
v 1.635469 16.548479 3.428223
v 0.336543 -28.674616 2.098637
v -0.741850 -23.775424 2.242676
v 2.733543 12.133027 3.298406
v 1.353775 -28.647060 2.099447
v 1.495681 16.591400 3.429485
v 0.481434 -28.694357 2.098056
v -0.618641 -23.696670 2.244991
v 2.630143 12.029628 3.295366
v 1.210166 -28.674616 2.098637
v 1.353775 16.626691 3.430523
v -0.491348 -23.624702 2.247107
v 2.521298 11.931978 3.292495
v 1.065276 -23.326012 2.255889
v 1.210166 16.654247 3.431333
v 0.481434 11.305643 3.274081
v -0.360346 -23.559731 2.249017
v 2.407325 11.840364 3.289802
v 0.336543 16.654247 3.431333
v -0.226018 -23.501948 2.250716
v 2.288560 11.755055 3.287294
v 1.065276 16.673988 3.431913
v 0.481434 16.673988 3.431913
v -0.088759 -23.451521 2.252199
v 2.165350 11.676301 3.284978
v 0.627180 11.293775 3.273732
v 0.051028 -23.408600 2.253461
v 2.038058 11.604333 3.282862
v 0.192935 -23.373309 2.254498
v 1.907055 11.539362 3.280952
v 0.919530 16.685856 3.432262
v 0.627180 -28.706225 2.097707
v 0.773355 -28.710185 2.097591
v 0.481434 -23.326012 2.255889
v 0.627180 -23.314144 2.256238
v 0.336543 -23.345753 2.255309
v 1.772728 11.481578 3.279253
v 1.065276 -28.694357 2.098056
v 1.635469 11.431152 3.277771
v 0.919530 -28.706225 2.097707
v 1.495681 11.388230 3.276509
v 0.773355 16.689815 3.432379
v 0.627180 16.685856 3.432262
v 1.353775 11.352940 3.275471
v 0.773355 -23.310185 2.256354
v 1.210166 11.325384 3.274661
v 1.065276 11.305643 3.274081
v 0.919530 11.293775 3.273732
usemtl spacerMaterial0
f 1 2 3
f 4 1 5
f 6 4 7
f 8 6 9
f 10 8 11
f 12 10 13
f 14 12 15
f 16 14 17
f 18 16 19
f 20 18 21
f 22 20 23
f 24 22 25
f 26 24 27
f 28 26 29
f 30 28 31
f 32 30 33
f 34 32 35
f 36 34 37
f 38 36 39
f 40 38 41
f 42 40 43
f 44 42 45
f 46 44 47
f 48 46 49
f 50 48 51
f 52 50 53
f 54 52 55
f 56 54 57
f 58 56 59
f 60 58 61
f 62 60 63
f 64 62 65
f 66 64 67
f 68 66 69
f 70 68 71
f 72 70 73
f 74 72 75
f 76 74 77
f 78 76 79
f 80 78 81
f 82 80 83
f 84 82 85
f 86 84 87
f 88 86 89
f 90 88 91
f 92 90 93
f 94 92 95
f 96 94 97
f 98 96 99
f 100 98 101
f 102 100 103
f 104 102 105
f 106 104 107
f 108 106 109
f 110 108 111
f 112 110 113
f 114 112 115
f 116 114 117
f 116 118 119
f 120 119 121
f 122 121 123
f 124 123 125
f 126 125 127
f 128 127 129
f 130 129 131
f 132 131 133
f 134 133 135
f 136 135 137
f 138 137 139
f 140 139 141
f 142 141 143
f 144 143 145
f 146 145 147
f 148 147 149
f 150 149 151
f 152 151 153
f 154 153 155
f 156 155 157
f 158 157 159
f 160 159 161
f 162 161 163
f 164 163 165
f 166 165 167
f 168 167 169
f 170 169 171
f 172 171 173
f 174 173 175
f 176 175 177
f 178 177 179
f 180 179 181
f 182 181 183
f 184 183 185
f 186 185 187
f 188 187 189
f 190 189 191
f 192 191 193
f 194 193 195
f 196 195 197
f 198 197 199
f 200 199 201
f 202 201 203
f 204 203 205
f 206 205 207
f 208 207 209
f 210 209 211
f 212 211 213
f 214 213 215
f 216 215 217
f 218 217 219
f 220 219 221
f 222 221 223
f 224 223 225
f 226 225 227
f 228 227 229
f 230 229 231
f 232 231 3
f 3 2 232
f 231 232 230
f 229 230 228
f 227 228 226
f 225 226 224
f 223 224 222
f 221 222 220
f 219 220 218
f 217 218 216
f 215 216 214
f 213 214 212
f 211 212 210
f 209 210 208
f 207 208 206
f 205 206 204
f 203 204 202
f 201 202 200
f 199 200 198
f 197 198 196
f 195 196 194
f 193 194 192
f 191 192 190
f 189 190 188
f 187 188 186
f 185 186 184
f 183 184 182
f 181 182 180
f 179 180 178
f 177 178 176
f 175 176 174
f 173 174 172
f 171 172 170
f 169 170 168
f 167 168 166
f 165 166 164
f 163 164 162
f 161 162 160
f 159 160 158
f 157 158 156
f 155 156 154
f 153 154 152
f 151 152 150
f 149 150 148
f 147 148 146
f 145 146 144
f 143 144 142
f 141 142 140
f 139 140 138
f 137 138 136
f 135 136 134
f 133 134 132
f 131 132 130
f 129 130 128
f 127 128 126
f 125 126 124
f 123 124 122
f 121 122 120
f 119 120 116
f 117 118 116
f 115 117 114
f 113 115 112
f 111 113 110
f 109 111 108
f 107 109 106
f 105 107 104
f 103 105 102
f 101 103 100
f 99 101 98
f 97 99 96
f 95 97 94
f 93 95 92
f 91 93 90
f 89 91 88
f 87 89 86
f 85 87 84
f 83 85 82
f 81 83 80
f 79 81 78
f 77 79 76
f 75 77 74
f 73 75 72
f 71 73 70
f 69 71 68
f 67 69 66
f 65 67 64
f 63 65 62
f 61 63 60
f 59 61 58
f 57 59 56
f 55 57 54
f 53 55 52
f 51 53 50
f 49 51 48
f 47 49 46
f 45 47 44
f 43 45 42
f 41 43 40
f 39 41 38
f 37 39 36
f 35 37 34
f 33 35 32
f 31 33 30
f 29 31 28
f 27 29 26
f 25 27 24
f 23 25 22
f 21 23 20
f 19 21 18
f 17 19 16
f 15 17 14
f 13 15 12
f 11 13 10
f 9 11 8
f 7 9 6
f 5 7 4
f 3 5 1
f 233 234 62
f 234 235 236
f 234 237 238
f 234 239 240
f 234 60 62
f 62 241 233
f 236 58 234
f 240 237 234
f 234 242 243
f 244 245 56
f 62 246 241
f 234 247 235
f 234 248 239
f 234 249 250
f 243 251 234
f 56 252 253
f 56 58 244
f 245 252 56
f 58 60 234
f 234 254 255
f 250 248 234
f 251 256 234
f 257 136 138
f 257 132 134
f 246 98 100
f 258 174 176
f 258 259 172
f 260 261 54
f 56 262 263
f 58 264 265
f 238 254 234
f 256 266 234
f 134 136 257
f 257 128 130
f 100 102 246
f 246 94 96
f 246 90 92
f 246 82 84
f 246 76 78
f 258 267 268
f 172 259 269
f 172 174 258
f 176 270 258
f 54 56 260
f 56 271 262
f 265 244 58
f 58 272 273
f 255 247 234
f 266 274 234
f 257 146 148
f 257 142 144
f 130 132 257
f 257 124 126
f 275 276 116
f 96 98 246
f 246 88 90
f 84 86 246
f 86 88 246
f 78 80 246
f 246 66 68
f 176 277 278
f 258 270 267
f 269 279 172
f 280 281 282
f 280 283 284
f 280 285 286
f 263 260 56
f 56 287 288
f 273 264 58
f 274 249 234
f 148 150 257
f 257 140 142
f 126 128 257
f 116 120 275
f 289 114 116
f 92 94 246
f 80 82 246
f 246 64 66
f 68 70 246
f 279 164 166
f 279 158 160
f 278 290 176
f 290 270 176
f 268 291 258
f 176 292 293
f 284 281 280
f 280 294 295
f 286 296 280
f 288 271 56
f 236 272 58
f 150 152 257
f 138 140 257
f 122 257 275
f 110 289 297
f 289 112 114
f 246 72 74
f 246 62 64
f 166 168 279
f 168 170 279
f 160 162 279
f 298 257 154
f 293 299 176
f 299 277 176
f 258 300 301
f 295 283 280
f 280 302 285
f 234 303 304
f 234 305 306
f 234 307 308
f 234 309 310
f 261 311 54
f 234 312 242
f 234 313 314
f 144 146 257
f 120 122 275
f 297 315 110
f 289 110 112
f 246 104 106
f 74 76 246
f 70 72 246
f 162 164 279
f 156 279 298
f 258 316 317
f 258 318 319
f 258 320 321
f 301 322 258
f 300 323 324
f 300 325 326
f 327 40 42
f 280 328 329
f 296 294 280
f 280 330 331
f 304 280 234
f 304 332 280
f 306 333 234
f 333 303 234
f 234 334 335
f 234 336 337
f 310 307 234
f 308 336 234
f 234 233 338
f 253 287 56
f 314 339 234
f 122 124 257
f 116 276 289
f 106 108 246
f 102 104 246
f 154 156 298
f 317 259 258
f 319 340 258
f 258 341 342
f 258 343 344
f 258 345 320
f 321 343 258
f 322 346 258
f 300 347 348
f 300 349 323
f 300 350 351
f 300 352 353
f 300 354 325
f 42 44 327
f 327 36 38
f 327 28 30
f 327 20 22
f 327 16 18
f 1 355 356
f 280 357 358
f 280 359 360
f 280 361 362
f 329 363 280
f 331 302 280
f 332 330 280
f 234 364 305
f 234 365 334
f 335 364 234
f 337 366 234
f 366 367 234
f 338 309 234
f 339 312 234
f 315 246 110
f 156 158 279
f 340 316 258
f 258 368 369
f 258 370 341
f 342 368 258
f 344 371 258
f 371 370 258
f 346 345 258
f 300 372 347
f 300 373 374
f 351 349 300
f 326 352 300
f 300 375 376
f 327 48 50
f 44 46 327
f 327 34 36
f 30 32 327
f 327 24 26
f 18 20 327
f 327 12 14
f 1 327 355
f 280 377 378
f 280 379 380
f 360 357 280
f 363 361 280
f 311 381 54
f 108 110 246
f 369 382 258
f 348 301 300
f 300 383 373
f 353 350 300
f 300 384 375
f 300 385 386
f 300 387 388
f 46 48 327
f 32 34 327
f 22 24 327
f 327 10 12
f 356 2 1
f 378 389 280
f 358 379 280
f 280 390 391
f 282 328 280
f 367 365 234
f 54 381 392
f 152 154 257
f 382 318 258
f 324 383 300
f 386 384 300
f 300 393 387
f 38 40 327
f 14 16 327
f 327 6 8
f 1 4 327
f 280 394 395
f 280 396 377
f 391 359 280
f 258 397 398
f 376 354 300
f 300 399 400
f 300 401 402
f 388 403 300
f 26 28 327
f 4 6 327
f 404 327 52
f 280 405 394
f 389 406 280
f 362 390 280
f 170 172 279
f 234 407 408
f 398 409 258
f 400 385 300
f 403 401 300
f 8 10 327
f 54 410 404
f 406 405 280
f 392 410 54
f 408 411 234
f 258 412 413
f 258 414 397
f 258 415 416
f 417 184 186
f 402 399 300
f 52 54 404
f 380 396 280
f 234 418 407
f 234 419 420
f 356 230 232
f 413 421 258
f 258 422 423
f 258 424 425
f 409 426 258
f 416 427 258
f 258 428 429
f 258 430 431
f 258 432 433
f 186 188 417
f 188 190 417
f 300 434 393
f 300 395 435
f 395 300 280
f 420 418 234
f 356 228 230
f 356 224 226
f 356 220 222
f 356 216 218
f 258 436 412
f 423 437 258
f 425 438 258
f 427 414 258
f 431 428 258
f 258 291 432
f 178 439 440
f 178 441 442
f 441 178 180
f 417 196 198
f 417 192 194
f 417 182 184
f 435 434 300
f 411 313 234
f 226 228 356
f 218 220 356
f 421 443 258
f 438 422 258
f 258 444 415
f 433 430 258
f 445 176 178
f 178 446 445
f 440 447 178
f 442 448 178
f 180 449 450
f 451 206 208
f 194 196 417
f 198 200 417
f 190 192 417
f 50 52 327
f 222 224 356
f 258 452 453
f 437 436 258
f 429 444 258
f 445 292 176
f 447 454 178
f 180 450 441
f 208 455 451
f 417 200 202
f 455 214 216
f 455 208 210
f 232 2 356
f 234 456 457
f 258 458 452
f 426 424 258
f 454 446 178
f 180 459 449
f 460 180 182
f 417 204 206
f 216 461 462
f 210 212 455
f 457 419 234
f 234 463 464
f 234 453 465
f 443 458 258
f 448 439 178
f 180 466 467
f 182 417 460
f 202 204 417
f 212 214 455
f 216 356 468
f 464 456 234
f 453 234 258
f 467 459 180
f 451 417 206
f 468 461 216
f 465 463 234
f 460 466 180
f 374 372 300
f 216 462 455
f 469 470 471
f 471 472 469
f 469 473 470
f 472 474 469
f 469 475 473
f 469 476 475
f 477 478 479
f 474 480 469
f 477 481 478
f 480 482 469
f 479 483 477
f 482 484 469
f 469 485 486
f 483 487 477
f 484 488 469
f 469 489 485
f 486 476 469
f 477 490 481
f 488 491 469
f 492 493 489
f 477 494 490
f 492 495 493
f 489 469 492
f 487 496 477
f 491 497 469
f 496 498 477
f 498 499 477
f 477 500 501
f 497 502 469
f 499 503 477
f 477 504 500
f 501 494 477
f 502 505 469
f 492 506 507
f 503 508 477
f 509 510 504
f 505 511 469
f 492 512 506
f 507 495 492
f 492 59 57
f 492 63 61
f 509 513 510
f 504 477 509
f 511 514 469
f 57 515 492
f 57 516 515
f 492 65 63
f 61 59 492
f 508 517 477
f 509 518 519
f 519 520 509
f 514 521 469
f 492 522 523
f 492 67 65
f 492 73 71
f 517 524 477
f 509 525 526
f 225 509 527
f 509 528 518
f 521 529 469
f 492 530 522
f 523 512 492
f 492 69 67
f 492 75 73
f 71 69 492
f 524 531 477
f 509 532 525
f 526 513 509
f 533 509 171
f 509 534 527
f 509 535 528
f 529 536 469
f 492 79 77
f 531 537 477
f 509 173 171
f 171 538 533
f 509 177 175
f 520 534 509
f 77 75 492
f 492 83 81
f 175 173 509
f 509 183 181
f 509 539 535
f 536 540 469
f 492 541 542
f 81 79 492
f 492 87 85
f 113 492 543
f 537 544 477
f 509 179 177
f 509 185 183
f 181 179 509
f 509 545 539
f 542 530 492
f 540 546 469
f 85 83 492
f 492 91 89
f 492 547 543
f 492 548 549
f 544 550 477
f 509 551 552
f 509 189 187
f 509 553 545
f 89 87 492
f 492 95 93
f 549 547 492
f 550 554 477
f 509 555 551
f 552 532 509
f 187 185 509
f 509 193 191
f 509 556 553
f 546 557 469
f 492 515 558
f 93 91 492
f 492 559 548
f 554 560 477
f 191 189 509
f 509 197 195
f 509 561 556
f 558 541 492
f 557 562 469
f 492 97 95
f 492 563 559
f 195 193 509
f 509 201 199
f 509 564 561
f 492 99 97
f 492 565 563
f 560 566 477
f 509 567 568
f 199 197 509
f 509 569 564
f 492 570 565
f 568 555 509
f 566 571 477
f 509 203 201
f 509 572 569
f 492 101 99
f 492 573 570
f 509 574 575
f 509 205 203
f 509 576 572
f 492 103 101
f 492 577 573
f 575 567 509
f 571 578 477
f 509 207 205
f 509 579 576
f 562 580 469
f 492 581 577
f 509 209 207
f 509 582 579
f 57 583 516
f 492 584 581
f 578 585 477
f 509 586 587
f 509 211 209
f 509 588 582
f 231 527 589
f 57 590 583
f 492 591 584
f 587 574 509
f 585 592 477
f 509 213 211
f 509 593 588
f 589 594 231
f 594 595 231
f 492 105 103
f 492 596 591
f 597 55 53
f 509 215 213
f 509 598 593
f 595 599 231
f 580 600 469
f 492 601 596
f 53 51 597
f 51 49 597
f 592 602 477
f 509 217 215
f 509 603 598
f 599 604 231
f 605 169 167
f 600 606 469
f 492 607 601
f 49 47 597
f 602 608 477
f 509 533 609
f 509 219 217
f 509 610 603
f 167 165 605
f 165 163 605
f 118 611 612
f 57 613 590
f 492 614 607
f 47 45 597
f 609 586 509
f 608 615 477
f 509 221 219
f 509 616 610
f 604 617 231
f 163 161 605
f 612 618 118
f 618 619 118
f 492 107 105
f 492 620 614
f 509 223 221
f 509 621 616
f 617 622 231
f 161 159 605
f 619 623 118
f 492 109 107
f 492 624 620
f 45 43 597
f 509 625 621
f 622 626 231
f 623 627 118
f 57 628 613
f 492 629 624
f 43 41 597
f 171 630 538
f 509 631 625
f 626 632 231
f 159 157 605
f 606 633 469
f 492 634 629
f 41 39 597
f 615 635 477
f 509 636 631
f 632 637 231
f 157 155 605
f 627 638 118
f 633 639 469
f 628 57 55
f 492 640 634
f 39 37 597
f 509 225 223
f 509 641 636
f 637 642 231
f 155 153 605
f 638 643 118
f 55 644 628
f 492 645 640
f 37 35 597
f 527 227 225
f 642 646 231
f 153 151 605
f 643 647 118
f 492 111 109
f 492 648 645
f 35 33 597
f 171 649 630
f 646 650 231
f 151 149 605
f 647 651 118
f 55 652 644
f 492 653 648
f 33 31 597
f 635 654 477
f 650 655 231
f 149 147 605
f 651 656 118
f 492 113 111
f 492 657 653
f 31 29 597
f 509 658 641
f 655 659 231
f 147 145 605
f 656 660 118
f 639 661 469
f 492 662 657
f 29 27 597
f 509 663 658
f 659 664 231
f 145 143 605
f 660 665 118
f 661 666 469
f 492 667 662
f 27 25 597
f 527 229 227
f 664 668 231
f 143 141 605
f 665 669 118
f 55 670 652
f 492 671 667
f 25 23 597
f 171 672 649
f 668 673 231
f 141 139 605
f 669 674 118
f 543 115 113
f 23 21 597
f 654 675 477
f 673 676 231
f 139 137 605
f 674 677 118
f 492 678 671
f 21 19 597
f 675 679 477
f 672 171 169
f 676 680 231
f 137 135 605
f 677 681 118
f 55 597 670
f 115 543 611
f 19 17 597
f 169 682 672
f 680 683 231
f 135 133 605
f 681 684 118
f 611 117 115
f 17 15 597
f 527 231 229
f 683 685 231
f 133 131 605
f 684 686 118
f 492 687 678
f 15 13 597
f 509 688 663
f 509 469 689
f 231 690 691
f 685 692 231
f 131 129 605
f 686 693 118
f 666 694 469
f 13 11 597
f 689 688 509
f 692 690 231
f 129 127 605
f 693 695 118
f 694 696 469
f 11 9 597
f 691 3 231
f 127 125 605
f 695 697 118
f 611 118 117
f 696 689 469
f 492 477 698
f 597 5 3
f 9 7 597
f 679 699 477
f 125 123 605
f 697 700 118
f 698 687 492
f 7 5 597
f 169 605 682
f 691 701 3
f 605 119 118
f 123 121 605
f 700 702 118
f 3 701 597
f 121 119 605
f 702 703 118
f 699 698 477
f 703 704 118
f 118 704 605
f 300 477 492
f 492 280 300
f 300 258 509
f 509 477 300
f 258 234 469
f 469 509 258
f 280 492 469
f 469 234 280
f 465 453 689
f 463 465 696
f 464 463 694
f 456 464 666
f 457 456 661
f 419 457 639
f 420 419 633
f 418 420 606
f 407 418 600
f 408 407 580
f 411 408 562
f 313 411 557
f 314 313 546
f 339 314 540
f 312 339 536
f 242 312 529
f 243 242 521
f 251 243 514
f 256 251 511
f 266 256 505
f 274 266 502
f 249 274 497
f 250 249 491
f 248 250 488
f 239 248 484
f 240 239 482
f 237 240 480
f 238 237 474
f 254 238 472
f 255 254 471
f 247 255 470
f 235 247 473
f 236 235 475
f 272 236 476
f 273 272 486
f 264 273 485
f 265 264 489
f 244 265 493
f 245 244 495
f 252 245 507
f 253 252 506
f 287 253 512
f 288 287 523
f 271 288 522
f 262 271 530
f 263 262 542
f 260 263 541
f 261 260 558
f 311 261 515
f 381 311 516
f 392 381 583
f 410 392 590
f 404 410 613
f 327 404 628
f 355 327 644
f 356 355 652
f 468 356 670
f 461 468 597
f 461 701 691
f 462 691 690
f 455 690 692
f 451 692 685
f 417 685 683
f 460 683 680
f 466 680 676
f 467 676 673
f 459 673 668
f 449 668 664
f 450 664 659
f 441 659 655
f 442 655 650
f 448 650 646
f 439 646 642
f 440 642 637
f 447 637 632
f 454 632 626
f 446 626 622
f 445 622 617
f 292 617 604
f 293 604 599
f 299 599 595
f 277 595 594
f 278 594 589
f 290 589 527
f 270 527 534
f 267 534 520
f 268 520 519
f 291 519 518
f 432 518 528
f 433 528 535
f 430 535 539
f 431 539 545
f 428 545 553
f 429 553 556
f 444 556 561
f 415 561 564
f 416 564 569
f 427 569 572
f 414 572 576
f 397 576 579
f 398 579 582
f 409 582 588
f 426 588 593
f 424 593 598
f 425 598 603
f 438 603 610
f 422 610 616
f 423 616 621
f 437 621 625
f 436 625 631
f 412 631 636
f 413 636 641
f 421 641 658
f 443 658 663
f 458 663 688
f 452 688 689
f 689 453 452
f 688 452 458
f 663 458 443
f 658 443 421
f 641 421 413
f 636 413 412
f 631 412 436
f 625 436 437
f 621 437 423
f 616 423 422
f 610 422 438
f 603 438 425
f 598 425 424
f 593 424 426
f 588 426 409
f 582 409 398
f 579 398 397
f 576 397 414
f 572 414 427
f 569 427 416
f 564 416 415
f 561 415 444
f 556 444 429
f 553 429 428
f 545 428 431
f 539 431 430
f 535 430 433
f 528 433 432
f 518 432 291
f 519 291 268
f 520 268 267
f 534 267 270
f 527 270 290
f 589 290 278
f 594 278 277
f 595 277 299
f 599 299 293
f 604 293 292
f 617 292 445
f 622 445 446
f 626 446 454
f 632 454 447
f 637 447 440
f 642 440 439
f 646 439 448
f 650 448 442
f 655 442 441
f 659 441 450
f 664 450 449
f 668 449 459
f 673 459 467
f 676 467 466
f 680 466 460
f 683 460 417
f 685 417 451
f 692 451 455
f 690 455 462
f 691 462 461
f 597 701 461
f 670 597 468
f 652 670 356
f 644 652 355
f 628 644 327
f 613 628 404
f 590 613 410
f 583 590 392
f 516 583 381
f 515 516 311
f 558 515 261
f 541 558 260
f 542 541 263
f 530 542 262
f 522 530 271
f 523 522 288
f 512 523 287
f 506 512 253
f 507 506 252
f 495 507 245
f 493 495 244
f 489 493 265
f 485 489 264
f 486 485 273
f 476 486 272
f 475 476 236
f 473 475 235
f 470 473 247
f 471 470 255
f 472 471 254
f 474 472 238
f 480 474 237
f 482 480 240
f 484 482 239
f 488 484 248
f 491 488 250
f 497 491 249
f 502 497 274
f 505 502 266
f 511 505 256
f 514 511 251
f 521 514 243
f 529 521 242
f 536 529 312
f 540 536 339
f 546 540 314
f 557 546 313
f 562 557 411
f 580 562 408
f 600 580 407
f 606 600 418
f 633 606 420
f 639 633 419
f 661 639 457
f 666 661 456
f 694 666 464
f 696 694 463
f 689 696 465
f 289 276 605
f 297 289 704
f 315 297 703
f 246 315 702
f 241 246 700
f 233 241 697
f 338 233 695
f 309 338 693
f 310 309 686
f 307 310 684
f 308 307 681
f 336 308 677
f 337 336 674
f 366 337 669
f 367 366 665
f 365 367 660
f 334 365 656
f 335 334 651
f 364 335 647
f 305 364 643
f 306 305 638
f 333 306 627
f 303 333 623
f 304 303 619
f 332 304 618
f 330 332 612
f 331 330 611
f 302 331 543
f 285 302 547
f 286 285 549
f 296 286 548
f 294 296 559
f 295 294 563
f 283 295 565
f 284 283 570
f 281 284 573
f 282 281 577
f 328 282 581
f 329 328 584
f 363 329 591
f 361 363 596
f 362 361 601
f 390 362 607
f 391 390 614
f 359 391 620
f 360 359 624
f 357 360 629
f 358 357 634
f 379 358 640
f 380 379 645
f 396 380 648
f 377 396 653
f 378 377 657
f 389 378 662
f 406 389 667
f 405 406 671
f 394 405 678
f 395 394 687
f 395 698 699
f 435 699 679
f 434 679 675
f 393 675 654
f 387 654 635
f 388 635 615
f 403 615 608
f 401 608 602
f 402 602 592
f 399 592 585
f 400 585 578
f 385 578 571
f 386 571 566
f 384 566 560
f 375 560 554
f 376 554 550
f 354 550 544
f 325 544 537
f 326 537 531
f 352 531 524
f 353 524 517
f 350 517 508
f 351 508 503
f 349 503 499
f 323 499 498
f 324 498 496
f 383 496 487
f 373 487 483
f 374 483 479
f 372 479 478
f 347 478 481
f 348 481 490
f 301 490 494
f 322 494 501
f 346 501 500
f 345 500 504
f 320 504 510
f 321 510 513
f 343 513 526
f 344 526 525
f 371 525 532
f 370 532 552
f 341 552 551
f 342 551 555
f 368 555 568
f 369 568 567
f 382 567 575
f 318 575 574
f 319 574 587
f 340 587 586
f 316 586 609
f 317 609 533
f 259 533 538
f 269 538 630
f 279 630 649
f 298 649 672
f 257 672 682
f 275 682 605
f 605 276 275
f 682 275 257
f 672 257 298
f 649 298 279
f 630 279 269
f 538 269 259
f 533 259 317
f 609 317 316
f 586 316 340
f 587 340 319
f 574 319 318
f 575 318 382
f 567 382 369
f 568 369 368
f 555 368 342
f 551 342 341
f 552 341 370
f 532 370 371
f 525 371 344
f 526 344 343
f 513 343 321
f 510 321 320
f 504 320 345
f 500 345 346
f 501 346 322
f 494 322 301
f 490 301 348
f 481 348 347
f 478 347 372
f 479 372 374
f 483 374 373
f 487 373 383
f 496 383 324
f 498 324 323
f 499 323 349
f 503 349 351
f 508 351 350
f 517 350 353
f 524 353 352
f 531 352 326
f 537 326 325
f 544 325 354
f 550 354 376
f 554 376 375
f 560 375 384
f 566 384 386
f 571 386 385
f 578 385 400
f 585 400 399
f 592 399 402
f 602 402 401
f 608 401 403
f 615 403 388
f 635 388 387
f 654 387 393
f 675 393 434
f 679 434 435
f 699 435 395
f 687 698 395
f 678 687 394
f 671 678 405
f 667 671 406
f 662 667 389
f 657 662 378
f 653 657 377
f 648 653 396
f 645 648 380
f 640 645 379
f 634 640 358
f 629 634 357
f 624 629 360
f 620 624 359
f 614 620 391
f 607 614 390
f 601 607 362
f 596 601 361
f 591 596 363
f 584 591 329
f 581 584 328
f 577 581 282
f 573 577 281
f 570 573 284
f 565 570 283
f 563 565 295
f 559 563 294
f 548 559 296
f 549 548 286
f 547 549 285
f 543 547 302
f 611 543 331
f 612 611 330
f 618 612 332
f 619 618 304
f 623 619 303
f 627 623 333
f 638 627 306
f 643 638 305
f 647 643 364
f 651 647 335
f 656 651 334
f 660 656 365
f 665 660 367
f 669 665 366
f 674 669 337
f 677 674 336
f 681 677 308
f 684 681 307
f 686 684 310
f 693 686 309
f 695 693 338
f 697 695 233
f 700 697 241
f 702 700 246
f 703 702 315
f 704 703 297
f 605 704 289
