# 
# Wavefront OBJ file
# Created with Kaydara FBX
# 
mtllib korekcija_ugla.mtl

g korekcija_ugla
v -5.304110 -3.109564 -2.500000
v -5.448557 -3.099684 -2.500000
v -5.448557 -3.099684 -7.339428
v -5.376266 -3.103638 -7.340905
v -5.160418 -3.127318 -2.500000
v -5.304110 -3.109564 -7.343119
v -5.232143 -3.117460 -7.346069
v -5.017910 -3.152892 -2.500000
v -5.160418 -3.127318 -7.349751
v -5.088989 -3.139132 -7.354164
v -4.877011 -3.186211 -2.500000
v -5.017910 -3.152892 -7.359304
v -4.947233 -3.168589 -7.365168
v -4.738142 -3.227174 -2.500000
v -4.877011 -3.186211 -7.371750
v -4.807297 -3.205744 -7.379047
v -4.601717 -3.275659 -2.500000
v -4.738142 -3.227174 -7.387052
v -4.669598 -3.250485 -7.395760
v -4.468144 -3.331522 -2.500000
v -4.601717 -3.275659 -7.405164
v -4.534549 -3.302678 -7.415257
v -4.337820 -3.394596 -2.500000
v -4.468144 -3.331522 -7.426031
v -4.402551 -3.362169 -7.437479
v -4.211135 -3.464693 -2.500000
v -4.337820 -3.394596 -7.449592
v -4.273999 -3.428780 -7.462361
v -4.088468 -3.541604 -2.500000
v -4.211135 -3.464693 -7.475777
v -4.149276 -3.502311 -7.489829
v -3.970183 -3.625098 -2.500000
v -4.088468 -3.541604 -7.504507
v -4.028755 -3.582543 -7.519799
v -3.856634 -3.714927 -2.500000
v -3.970183 -3.625098 -7.535696
v -3.912795 -3.669237 -7.552184
v -3.748161 -3.810823 -2.500000
v -3.856634 -3.714927 -7.569251
v -3.801743 -3.762134 -7.586885
v -3.645086 -3.912500 -2.500000
v -3.748161 -3.810823 -7.605073
v -3.695929 -3.860958 -7.623801
v -3.547717 -4.019654 -2.500000
v -3.645086 -3.912500 -7.643054
v -3.595670 -3.965412 -7.662819
v -3.456345 -4.131965 -2.500000
v -3.547717 -4.019654 -7.683081
v -3.501264 -4.075185 -7.703825
v -3.371243 -4.249098 -2.500000
v -3.456345 -4.131965 -7.725035
v -3.412994 -4.189950 -7.746695
v -3.292664 -4.370704 -2.500000
v -3.371243 -4.249098 -7.768790
v -3.331123 -4.309364 -7.791302
v -3.220844 -4.496419 -2.500000
v -3.292664 -4.370704 -7.814215
v -3.255895 -4.433071 -7.837512
v -3.155995 -4.625869 -2.500000
v -3.220844 -4.496419 -7.861176
v -3.187535 -4.560701 -7.885188
v -3.098313 -4.758667 -2.500000
v -3.155995 -4.625869 -7.909532
v -3.126247 -4.691874 -7.934188
v -3.047969 -4.894417 -2.500000
v -3.098313 -4.758667 -7.959138
v -3.072214 -4.826198 -7.984364
v -3.005113 -5.032714 -2.500000
v -3.047969 -4.894417 -8.009847
v -3.025596 -4.963273 -8.035568
v -2.969873 -5.173144 -2.500000
v -3.005113 -5.032714 -8.061508
v -2.986534 -5.102688 -8.087647
v -2.942355 -5.315289 -2.500000
v -2.969873 -5.173144 -8.113965
v -2.955143 -5.244029 -8.140444
v -2.922640 -5.458726 -2.500000
v -2.942355 -5.315289 -8.167063
v -2.931518 -5.386873 -8.193803
v -2.910788 -5.603024 -2.500000
v -2.922640 -5.458726 -8.220644
v -2.915728 -5.530794 -8.247565
v -2.906833 -5.747755 -2.500000
v -2.910788 -5.603024 -8.274546
v -2.907822 -5.675362 -8.301568
v -2.910788 -5.892485 -2.500000
v -2.906833 -5.747755 -8.328610
v -2.907822 -5.820147 -8.355652
v -2.922640 -6.036784 -2.500000
v -2.910788 -5.892485 -8.382674
v -2.915728 -5.964716 -8.409655
v -2.942355 -6.180220 -2.500000
v -2.922640 -6.036784 -8.436576
v -2.931518 -6.108637 -8.463417
v -2.969873 -6.322365 -2.500000
v -2.942355 -6.180220 -8.490156
v -2.955143 -6.251481 -8.516776
v -3.005113 -6.462796 -2.500000
v -2.969873 -6.322365 -8.543255
v -2.986534 -6.392821 -8.569573
v -3.047969 -6.601092 -2.500000
v -3.005113 -6.462796 -8.595712
v -3.025596 -6.532237 -8.621652
v -3.098313 -6.736842 -2.500000
v -3.047969 -6.601092 -8.647373
v -3.072214 -6.669311 -8.672856
v -3.155995 -6.869640 -2.500000
v -3.098313 -6.736842 -8.698082
v -3.126247 -6.803635 -8.723032
v -3.220844 -6.999090 -2.500000
v -3.155995 -6.869640 -8.747688
v -3.187535 -6.934808 -8.772031
v -3.292664 -7.124806 -2.500000
v -3.220844 -6.999090 -8.796044
v -3.255895 -7.062439 -8.819707
v -3.371243 -7.246412 -2.500000
v -3.292664 -7.124806 -8.843005
v -3.331123 -7.186145 -8.865918
v -3.456345 -7.363545 -2.500000
v -3.371243 -7.246412 -8.888430
v -3.412994 -7.305559 -8.910525
v -3.547717 -7.475856 -2.500000
v -3.456345 -7.363545 -8.932185
v -3.501264 -7.420324 -8.953395
v -3.645086 -7.583009 -2.500000
v -3.547717 -7.475856 -8.974139
v -3.595670 -7.530098 -8.994401
v -3.748161 -7.684686 -2.500000
v -3.645086 -7.583009 -9.014166
v -3.695929 -7.634552 -9.033419
v -3.856634 -7.780582 -2.500000
v -3.748161 -7.684686 -9.052147
v -3.801743 -7.733375 -9.070334
v -3.970183 -7.870411 -2.500000
v -3.856634 -7.780582 -9.087969
v -3.912795 -7.826272 -9.105036
v -4.088468 -7.953906 -2.500000
v -3.970183 -7.870411 -9.121524
v -4.028755 -7.912966 -9.137420
v -4.211135 -8.030816 -2.500000
v -4.088468 -7.953906 -9.152713
v -4.149276 -7.993199 -9.167391
v -4.337820 -8.100913 -2.500000
v -4.211135 -8.030816 -9.181443
v -4.273999 -8.066730 -9.194858
v -4.468144 -8.163987 -2.500000
v -4.337820 -8.100913 -9.207628
v -4.402551 -8.133340 -9.219741
v -4.601717 -8.219850 -2.500000
v -4.468144 -8.163987 -9.231189
v -4.534549 -8.192831 -9.241963
v -4.738142 -8.268336 -2.500000
v -4.601717 -8.219850 -9.252056
v -4.669598 -8.245025 -9.261460
v -4.877011 -8.309299 -2.500000
v -4.738142 -8.268336 -9.270168
v -4.807297 -8.289766 -9.278173
v -5.017910 -8.342617 -2.500000
v -4.877011 -8.309299 -9.285470
v -4.947233 -8.326920 -9.292052
v -5.160418 -8.368191 -2.500000
v -5.017910 -8.342617 -9.297916
v -5.088989 -8.356377 -9.303056
v -5.304110 -8.385945 -2.500000
v -5.160418 -8.368191 -9.307469
v -5.232143 -8.378050 -9.311151
v -5.448557 -8.395825 -2.500000
v -5.304110 -8.385945 -9.314101
v -5.376266 -8.391872 -9.316315
v -5.593328 -8.397803 -2.500000
v -5.448557 -8.395825 -9.317792
v -5.520929 -8.397803 -9.318530
v -5.665700 -8.395825 -9.317792
v -5.737991 -8.391872 -9.316315
v -5.593328 -8.397803 -9.318530
v -5.737991 -8.391872 -2.500000
v -5.810147 -8.385945 -9.314101
v -5.882114 -8.378050 -9.311151
v -5.882114 -8.378050 -2.500000
v -5.953839 -8.368191 -9.307469
v -6.025268 -8.356377 -9.303056
v -6.025268 -8.356377 -2.500000
v -6.096347 -8.342617 -9.297916
v -6.167024 -8.326920 -9.292052
v -6.167024 -8.326920 -2.500000
v -6.237246 -8.309299 -9.285470
v -6.306960 -8.289766 -9.278173
v -6.306960 -8.289766 -2.500000
v -6.376115 -8.268336 -9.270168
v -6.444658 -8.245025 -9.261460
v -6.444658 -8.245025 -2.500000
v -6.512540 -8.219850 -9.252056
v -6.579708 -8.192831 -9.241963
v -6.579708 -8.192831 -2.500000
v -6.646113 -8.163987 -9.231189
v -6.711706 -8.133340 -9.219741
v -6.711706 -8.133340 -2.500000
v -6.776437 -8.100913 -9.207628
v -6.840258 -8.066730 -9.194858
v -6.840258 -8.066730 -2.500000
v -6.903121 -8.030816 -9.181443
v -6.964981 -7.993199 -9.167391
v -6.964981 -7.993199 -2.500000
v -7.025789 -7.953906 -9.152713
v -7.085502 -7.912966 -9.137420
v -7.085502 -7.912966 -2.500000
v -7.144074 -7.870411 -9.121524
v -7.201462 -7.826272 -9.105036
v -7.201462 -7.826272 -2.500000
v -7.257622 -7.780582 -9.087969
v -7.312514 -7.733375 -9.070334
v -7.312514 -7.733375 -2.500000
v -7.366096 -7.684686 -9.052147
v -7.418328 -7.634552 -9.033419
v -7.418328 -7.634552 -2.500000
v -7.469171 -7.583009 -9.014166
v -7.518587 -7.530098 -8.994401
v -7.518587 -7.530098 -2.500000
v -7.566540 -7.475856 -8.974139
v -7.612993 -7.420324 -8.953395
v -7.612993 -7.420324 -2.500000
v -7.657911 -7.363545 -8.932185
v -7.701263 -7.305559 -8.910525
v -7.701263 -7.305559 -2.500000
v -7.743014 -7.246412 -8.888430
v -7.783134 -7.186145 -8.865918
v -7.783134 -7.186145 -2.500000
v -7.821592 -7.124806 -8.843005
v -7.858361 -7.062439 -8.819707
v -7.858361 -7.062439 -2.500000
v -7.893413 -6.999090 -8.796044
v -7.926721 -6.934808 -8.772031
v -7.926721 -6.934808 -2.500000
v -7.958261 -6.869640 -8.747688
v -7.988009 -6.803635 -8.723032
v -7.988009 -6.803635 -2.500000
v -8.015944 -6.736842 -8.698082
v -8.042043 -6.669311 -8.672856
v -8.042043 -6.669311 -2.500000
v -8.066288 -6.601092 -8.647373
v -8.088660 -6.532237 -8.621652
v -8.088660 -6.532237 -2.500000
v -8.109144 -6.462796 -8.595712
v -8.127723 -6.392821 -8.569573
v -8.127723 -6.392821 -2.500000
v -8.144384 -6.322365 -8.543255
v -8.159114 -6.251481 -8.516776
v -8.159114 -6.251481 -2.500000
v -8.171902 -6.180220 -8.490156
v -8.182739 -6.108637 -8.463417
v -8.182739 -6.108637 -2.500000
v -8.191617 -6.036784 -8.436576
v -8.198528 -5.964716 -8.409655
v -8.198528 -5.964716 -2.500000
v -8.203469 -5.892485 -8.382674
v -8.206435 -5.820147 -8.355652
v -8.207424 -5.747755 -2.500000
v -8.207424 -5.747755 -8.328610
v -8.206435 -5.675362 -8.301568
v -8.206435 -5.675362 -2.500000
v -8.206435 -5.820147 -2.500000
v -8.203469 -5.603024 -8.274546
v -8.198528 -5.530794 -8.247565
v -8.198528 -5.530794 -2.500000
v -8.191617 -5.458726 -8.220644
v -8.182739 -5.386873 -8.193803
v -8.182739 -5.386873 -2.500000
v -8.171902 -5.315289 -8.167063
v -8.159114 -5.244029 -8.140444
v -8.159114 -5.244029 -2.500000
v -8.144384 -5.173144 -8.113965
v -8.127723 -5.102688 -8.087647
v -8.127723 -5.102688 -2.500000
v -8.109144 -5.032714 -8.061508
v -8.088660 -4.963273 -8.035568
v -8.088660 -4.963273 -2.500000
v -8.066288 -4.894417 -8.009847
v -8.042043 -4.826198 -7.984364
v -8.042043 -4.826198 -2.500000
v -8.015944 -4.758667 -7.959138
v -7.988009 -4.691874 -7.934188
v -7.988009 -4.691874 -2.500000
v -7.958261 -4.625869 -7.909532
v -7.926721 -4.560701 -7.885188
v -7.926721 -4.560701 -2.500000
v -7.893413 -4.496419 -7.861176
v -7.858361 -4.433071 -7.837512
v -7.858361 -4.433071 -2.500000
v -7.821592 -4.370704 -7.814215
v -7.783134 -4.309364 -7.791302
v -7.783134 -4.309364 -2.500000
v -7.743014 -4.249098 -7.768790
v -7.701263 -4.189950 -7.746695
v -7.701263 -4.189950 -2.500000
v -7.657911 -4.131965 -7.725035
v -7.612993 -4.075185 -7.703825
v -7.612993 -4.075185 -2.500000
v -7.566540 -4.019654 -7.683081
v -7.518587 -3.965412 -7.662819
v -7.518587 -3.965412 -2.500000
v -7.469171 -3.912500 -7.643054
v -7.418328 -3.860958 -7.623801
v -7.418328 -3.860958 -2.500000
v -7.366096 -3.810823 -7.605073
v -7.312514 -3.762134 -7.586885
v -7.312514 -3.762134 -2.500000
v -7.257622 -3.714927 -7.569251
v -7.201462 -3.669237 -7.552184
v -7.201462 -3.669237 -2.500000
v -7.144074 -3.625098 -7.535696
v -7.085502 -3.582543 -7.519799
v -7.085502 -3.582543 -2.500000
v -7.025789 -3.541604 -7.504507
v -6.964981 -3.502311 -7.489829
v -6.964981 -3.502311 -2.500000
v -6.903121 -3.464693 -7.475777
v -6.840258 -3.428780 -7.462361
v -6.840258 -3.428780 -2.500000
v -6.776437 -3.394596 -7.449592
v -6.711706 -3.362169 -7.437479
v -6.711706 -3.362169 -2.500000
v -6.646113 -3.331522 -7.426031
v -6.579708 -3.302678 -7.415257
v -6.579708 -3.302678 -2.500000
v -6.512540 -3.275659 -7.405164
v -6.444658 -3.250485 -7.395760
v -6.444658 -3.250485 -2.500000
v -6.376115 -3.227174 -7.387052
v -6.306960 -3.205744 -7.379047
v -6.306960 -3.205744 -2.500000
v -6.237246 -3.186211 -7.371750
v -6.167024 -3.168589 -7.365168
v -6.167024 -3.168589 -2.500000
v -6.096347 -3.152892 -7.359304
v -6.025268 -3.139132 -7.354164
v -6.025268 -3.139132 -2.500000
v -5.953839 -3.127318 -7.349751
v -5.882114 -3.117460 -7.346069
v -5.882114 -3.117460 -2.500000
v -5.810147 -3.109564 -7.343119
v -5.737991 -3.103638 -7.340905
v -5.737991 -3.103638 -2.500000
v -5.665700 -3.099684 -7.339428
v -5.593329 -3.097706 -7.338690
v -5.593328 -3.097706 -2.500000
v -5.557128 -3.097459 -7.338597
v 56.750104 9.855621 -2.500000
v 22.118566 -5.850762 -8.367088
v 22.119563 -5.777758 -8.339818
v 22.118566 -5.704755 -8.312548
v 22.115575 -5.631807 -8.285298
v 22.110593 -5.996550 -8.421547
v 22.115575 -5.923710 -8.394338
v 22.110593 -5.558967 -8.258089
v 22.103622 -6.069227 -8.448695
v 22.103622 -5.486290 -8.230940
v 22.094670 -5.413831 -8.203874
v 22.083741 -6.213873 -8.502728
v 22.094670 -6.141686 -8.475762
v 22.083741 -5.341644 -8.176908
v 22.070845 -6.285735 -8.529571
v 22.070845 -5.269782 -8.150064
v 22.055991 -6.357218 -8.556274
v 22.055991 -5.198299 -8.123362
v 22.039189 -5.127249 -8.096821
v 22.020454 -6.498833 -8.609174
v 22.039189 -6.428268 -8.582814
v 22.020454 -5.056683 -8.070462
v 21.999797 -6.568860 -8.635332
v 21.999797 -4.986656 -8.044303
v 21.977236 -6.638297 -8.661270
v 21.977236 -4.917220 -8.018365
v 21.952786 -4.848425 -7.992667
v 21.926467 -6.775192 -8.712407
v 21.952786 -6.707091 -8.686968
v 21.926467 -4.780324 -7.967228
v 21.898297 -6.842549 -8.737568
v 21.898297 -4.712968 -7.942067
v 21.868298 -6.909111 -8.762432
v 21.868298 -4.646406 -7.917203
v 56.750104 -0.000000 -6.181548
v 21.836492 -6.974829 -8.786981
v 21.836492 -4.580688 -7.892655
v 26.598379 -15.576183 -12.000000
v 21.802902 -7.039653 -8.811196
v 21.802902 -4.515864 -7.868439
v 21.767555 -7.103536 -8.835059
v 21.767555 -4.451981 -7.844576
v 21.730476 -7.166430 -8.858553
v 21.691692 -7.228287 -8.881660
v 21.730476 -4.389087 -7.821082
v 21.651234 -7.289062 -8.904362
v 21.691692 -4.327230 -7.797976
v -67.861845 0.000000 -6.181548
v -33.236356 -5.683008 -8.304424
v -33.237348 -5.755666 -8.331565
v 21.609130 -7.348708 -8.926643
v -33.236356 -5.828324 -8.358706
v -33.233379 -5.900927 -8.385827
v -33.228420 -5.537910 -8.250223
v -33.233379 -5.610405 -8.277303
v 21.651234 -4.266455 -7.775274
v -33.221483 -5.465577 -8.223203
v 21.609130 -4.206808 -7.752993
v -33.228420 -5.973422 -8.412907
v 21.565414 -7.407183 -8.948486
v 21.520116 -7.464442 -8.969875
v -33.221483 -6.045754 -8.439927
v 21.565414 -4.148334 -7.731149
v -33.212573 -6.117870 -8.466866
v -33.201696 -5.321616 -8.169427
v -33.212573 -5.393461 -8.196264
v 21.473271 -7.520442 -8.990794
v -33.201696 -6.189716 -8.493704
v -33.188861 -5.250094 -8.142710
v 21.520116 -4.091075 -7.709761
v -33.188861 -6.261238 -8.520421
v 21.473271 -4.035075 -7.688842
v -33.157355 -5.108235 -8.089719
v -33.174077 -5.178949 -8.116134
v 21.424914 -7.575141 -9.011227
v -33.174077 -6.332383 -8.546997
v -33.138708 -5.038004 -8.063484
v 21.424914 -3.980375 -7.668409
v -33.157355 -6.403097 -8.573412
v 21.375080 -7.628500 -9.031159
v 21.323808 -7.680477 -9.050575
v -33.138708 -6.473328 -8.599646
v -33.095695 -4.899201 -8.011634
v -33.118149 -4.968309 -8.037449
v 21.375080 -3.927017 -7.648477
v -33.118149 -6.543023 -8.625681
v -33.071361 -4.830732 -7.986058
v 21.271136 -7.731034 -9.069460
v -33.095695 -6.612131 -8.651496
v 21.323808 -3.875040 -7.629061
v 21.271136 -3.824483 -7.610175
v -33.071361 -6.680600 -8.677072
v -33.017129 -4.695916 -7.935698
v -33.045166 -4.762953 -7.960739
v 21.217102 -7.780134 -9.087801
v -33.045166 -6.748379 -8.702391
v -32.987272 -4.629669 -7.910951
v 21.217102 -3.775383 -7.591834
v -33.017129 -6.815416 -8.727433
v 21.161747 -7.827740 -9.105584
v -32.987272 -6.881663 -8.752179
v -32.955617 -6.947070 -8.776612
v 21.105112 -7.873815 -9.122796
v -32.922186 -4.499744 -7.862418
v -32.955617 -4.564262 -7.886519
v 21.161747 -3.727777 -7.574051
v -37.813592 -15.471864 -11.961032
v -32.887006 -4.436164 -7.838668
v 21.105112 -3.681702 -7.556840
v -32.922186 -7.011588 -8.800712
v 21.047240 -7.918327 -9.139423
v -28.083318 -4.830732 -7.986058
v -28.109513 -4.762953 -7.960739
v 20.988174 -7.961241 -9.155453
v -28.137549 -4.695916 -7.935698
v -32.887006 -7.075168 -8.824463
v 21.047240 -3.637190 -7.540213
v -28.167407 -4.629669 -7.910951
v -32.850102 -7.137764 -8.847845
v -32.811503 -4.312004 -7.792288
v -32.850102 -4.373568 -7.815285
v 20.988174 -3.594276 -7.524182
v -28.199062 -4.564262 -7.886519
v -32.811503 -7.199328 -8.870842
v -32.771236 -4.251517 -7.769693
v 20.927957 -8.002526 -9.170875
v -28.232492 -4.499744 -7.862418
v -32.771236 -7.259815 -8.893437
v 20.866635 -8.042150 -9.185677
v -28.267673 -4.436164 -7.838668
v 20.927957 -3.552991 -7.508760
v -28.304576 -4.373568 -7.815285
v -32.729332 -7.319180 -8.915613
v -32.685822 -4.133954 -7.725778
v -32.729332 -4.192152 -7.747518
v 20.866635 -3.513366 -7.493959
v -28.425347 -4.192152 -7.747518
v -28.343176 -4.312004 -7.792288
v -32.685822 -7.377378 -8.937352
v -32.640738 -4.076967 -7.704490
v 20.804254 -8.080085 -9.199847
v -28.383443 -4.251517 -7.769693
v -32.640738 -7.434365 -8.958640
v 20.740860 -8.116302 -9.213376
v 19.410397 -3.105348 -7.341544
v 19.337416 -3.107342 -7.342289
v -32.545987 -3.966791 -7.663334
v -32.594115 -4.021232 -7.683671
v 20.804254 -3.475432 -7.479788
v 19.446903 -3.105099 -7.341451
v -28.468857 -4.133954 -7.725778
v -32.594115 -7.490100 -8.979460
v -32.496389 -3.913685 -7.643497
v 20.740860 -3.439215 -7.466260
v -28.513941 -4.076967 -7.704490
v -30.541007 -8.415427 -9.325113
v -30.468370 -8.413442 -9.324372
v -32.545987 -7.544541 -8.999796
v 20.676501 -8.150774 -9.226253
v 17.242573 -7.289062 -8.904362
v 17.284676 -7.348708 -8.926643
v -28.560564 -4.021232 -7.683671
v 20.611223 -8.183474 -9.238468
v 17.328393 -7.407183 -8.948486
v -28.608692 -3.966791 -7.663334
v -32.496389 -7.597647 -9.019633
v -32.392937 -3.811636 -7.605377
v -32.445360 -3.861954 -7.624173
v 20.676501 -3.404743 -7.453383
v 17.373691 -7.464442 -8.969875
v -28.658289 -3.913685 -7.643497
v -32.445360 -7.649378 -9.038958
v -32.339158 -3.762769 -7.587122
v 20.611223 -3.372043 -7.441167
v 17.420536 -7.520442 -8.990794
v -28.709319 -3.861954 -7.624173
v -32.392937 -7.699696 -9.057754
v -32.284066 -3.715388 -7.569424
v 20.545077 -8.214380 -9.250013
v 17.468893 -7.575141 -9.011227
v -28.761742 -3.811636 -7.605377
v -32.339158 -7.748563 -9.076008
v 20.545077 -3.341137 -7.429623
v 17.518726 -7.628500 -9.031159
v -28.815520 -3.762769 -7.587122
v 20.478112 -8.243467 -9.260878
v 17.569998 -7.680477 -9.050575
v -28.870613 -3.715388 -7.569424
v -32.284066 -7.795943 -9.093707
v 20.410377 -8.270714 -9.271057
v 17.622671 -7.731034 -9.069460
v -28.926980 -3.669531 -7.552294
v -32.227699 -7.841801 -9.110837
v -32.170101 -3.625230 -7.535745
v -32.227699 -3.669531 -7.552294
v 20.478112 -3.312050 -7.418757
v 17.788695 -7.873815 -9.122796
v 17.676705 -7.780134 -9.087801
v -28.984578 -3.625230 -7.535745
v -32.170101 -7.886102 -9.127385
v -32.111314 -3.582519 -7.519790
v 20.410377 -3.284802 -7.408579
v 17.732060 -7.827740 -9.105584
v -29.043365 -3.582519 -7.519790
v -32.111314 -7.928813 -9.143340
v -32.051383 -3.541430 -7.504442
v 20.341923 -8.296101 -9.280540
v 18.282583 -3.372043 -7.441167
v 18.217306 -3.404743 -7.453383
v 18.903135 -3.161000 -7.362333
v -29.103296 -3.541430 -7.504442
v -32.051383 -7.969902 -9.158689
v 20.272801 -8.319609 -9.289321
v 18.348729 -3.341137 -7.429623
v 18.152946 -3.439215 -7.466260
v 17.846567 -7.918327 -9.139423
v -29.164328 -3.501993 -7.489710
v 20.341923 -3.259416 -7.399096
v 18.415695 -3.312050 -7.418757
v 17.905633 -7.961241 -9.155453
v -30.036145 -8.360038 -9.304423
v -29.226413 -3.464237 -7.475607
v -31.990351 -8.009339 -9.173420
v -31.928265 -3.464237 -7.475607
v -31.990351 -3.501993 -7.489710
v 20.272801 -3.235908 -7.390315
v 18.483430 -3.284802 -7.408579
v 17.965849 -8.002526 -9.170875
v -30.107484 -8.373849 -9.309582
v -29.353562 -8.117448 -9.213804
v -29.289507 -8.083140 -9.200988
v -29.289507 -3.428192 -7.462142
v -31.928265 -8.047095 -9.187524
v -31.865171 -3.428192 -7.462142
v 20.203062 -8.341220 -9.297394
v 17.328393 -4.148334 -7.731149
v 18.551884 -3.259416 -7.399096
v 18.974814 -3.147123 -7.357149
v 18.027171 -8.042150 -9.185677
v -28.425347 -7.319180 -8.915613
v -29.418531 -8.149994 -9.225962
v -29.226413 -8.047095 -9.187524
v -29.353562 -3.393884 -7.449326
v -31.865171 -8.083140 -9.200988
v -31.801116 -3.393884 -7.449326
v 20.132760 -8.360918 -9.304752
v 17.420536 -4.035075 -7.688842
v 17.373691 -4.091075 -7.709761
v 17.569998 -3.875040 -7.629061
v 17.518726 -3.927017 -7.648477
v 17.732060 -3.727777 -7.574051
v 17.676705 -3.775383 -7.591834
v 17.965849 -3.552991 -7.508760
v 17.905633 -3.594276 -7.524182
v 18.621006 -3.235908 -7.390315
v 18.089552 -8.080085 -9.199847
v -28.513941 -7.434365 -8.958640
v -28.468857 -7.377378 -8.937352
v -28.658289 -7.597647 -9.019633
v -28.608692 -7.544541 -8.999796
v -28.815520 -7.748563 -9.076008
v -28.761742 -7.699696 -9.057754
v -29.043365 -7.928813 -9.143340
v -28.984578 -7.886102 -9.127385
v -29.484364 -8.180754 -9.237452
v -29.418531 -3.361338 -7.437169
v -31.801116 -8.117448 -9.213804
v 20.203062 -3.214297 -7.382242
v 17.468893 -3.980375 -7.668409
v 17.622671 -3.824483 -7.610175
v 17.788695 -3.681702 -7.556840
v 18.027171 -3.513366 -7.493959
v 17.846567 -3.637190 -7.540213
v 18.690744 -3.214297 -7.382242
v 19.046845 -3.135210 -7.352699
v 18.152946 -8.116302 -9.213376
v -29.755352 -8.285485 -9.276574
v -29.965209 -8.344284 -9.298538
v -28.560564 -7.490100 -8.979460
v -28.709319 -7.649378 -9.038958
v -28.870613 -7.795943 -9.093707
v -29.103296 -7.969902 -9.158689
v -28.926980 -7.841801 -9.110837
v -29.551012 -8.209703 -9.248266
v -28.058984 -6.612131 -8.651496
v -29.484364 -3.330578 -7.425679
v -31.670315 -3.330578 -7.425679
v -31.736148 -3.361338 -7.437169
v 20.061945 -8.378688 -9.311390
v 18.089552 -3.475432 -7.479788
v 18.761047 -3.194599 -7.374884
v 16.941020 -4.848425 -7.992667
v 18.217306 -8.150774 -9.226253
v -29.894729 -8.326598 -9.291932
v -29.824760 -8.306993 -9.284608
v -29.164328 -8.009339 -9.173420
v -29.618427 -8.236821 -9.258396
v -28.109513 -6.748379 -8.702391
v -28.083318 -6.680600 -8.677072
v -28.167407 -6.881663 -8.752179
v -28.137549 -6.815416 -8.727433
v -30.179175 -8.385706 -9.314011
v -29.551012 -3.301629 -7.414864
v -31.736148 -8.149994 -9.225962
v -31.603667 -3.301629 -7.414864
v 20.132760 -3.194599 -7.374884
v 18.831861 -3.176829 -7.368246
v 16.995509 -4.712968 -7.942067
v 16.967340 -4.780324 -7.967228
v 17.057315 -4.580688 -7.892655
v 17.025509 -4.646406 -7.917203
v 18.282583 -8.183474 -9.238468
v -29.686557 -8.262088 -9.267834
v -28.232492 -7.011588 -8.800712
v -28.199062 -6.947070 -8.776612
v -29.618427 -3.274510 -7.404734
v -31.670315 -8.180754 -9.237452
v -31.536252 -3.274510 -7.404734
v 20.061945 -3.176829 -7.368246
v 17.126252 -4.451981 -7.844576
v 17.090904 -4.515864 -7.868439
v 19.119175 -3.125268 -7.348985
v 18.348729 -8.214380 -9.250013
v -28.304576 -7.137764 -8.847845
v -28.267673 -7.075168 -8.824463
v -28.383443 -7.259815 -8.893437
v -28.343176 -7.199328 -8.870842
v -30.251163 -8.395601 -9.317708
v -29.686557 -3.249244 -7.395296
v -31.603667 -8.209703 -9.248266
v -31.468122 -3.249244 -7.395296
v 19.990672 -8.394517 -9.317303
v 17.202114 -4.327230 -7.797976
v 17.163331 -4.389087 -7.821082
v 17.284676 -4.206808 -7.752993
v 17.242573 -4.266455 -7.775274
v 16.790184 -5.486290 -8.230940
v 16.822962 -5.269782 -8.150064
v 16.810065 -5.341644 -8.176908
v 16.778232 -5.631807 -8.285298
v 16.775241 -5.704755 -8.312548
v 16.790184 -6.069227 -8.448695
v 16.799137 -6.141686 -8.475762
v 18.483430 -8.270714 -9.271057
v 18.415695 -8.243467 -9.260878
v -27.926259 -5.973422 -8.412907
v -27.952983 -6.189716 -8.493704
v -27.942106 -6.117870 -8.466866
v -27.918323 -5.828324 -8.358706
v -27.917331 -5.755666 -8.331565
v -30.323394 -8.403525 -9.320668
v -29.755352 -3.225847 -7.386556
v -31.536252 -8.236821 -9.258396
v -31.399327 -3.225847 -7.386556
v 19.990672 -3.161000 -7.362333
v 16.799137 -5.413831 -8.203874
v 16.854617 -5.127249 -8.096821
v 16.837816 -5.198299 -8.123362
v 16.774243 -5.777758 -8.339818
v 16.775241 -5.850762 -8.367088
v 16.810065 -6.213873 -8.502728
v -27.933196 -6.045754 -8.439927
v -27.980602 -6.332383 -8.546997
v -27.965818 -6.261238 -8.520421
v -27.918323 -5.683008 -8.304424
v -27.921300 -5.900927 -8.385827
v -29.824760 -3.204339 -7.378522
v -31.468122 -8.262088 -9.267834
v 19.918993 -8.408394 -9.322486
v 16.894009 -4.986656 -8.044303
v 16.873353 -5.056683 -8.070462
v 16.822962 -6.285735 -8.529571
v 19.191750 -3.117306 -7.346011
v 16.941020 -6.707091 -8.686968
v 16.967340 -6.775192 -8.712407
v 19.264515 -3.111329 -7.343778
v 18.551884 -8.296101 -9.280540
v -28.015971 -6.473328 -8.599646
v -27.997324 -6.403097 -8.573412
v -27.921300 -5.610405 -8.277303
v -27.942106 -5.393461 -8.196264
v -27.952983 -5.321616 -8.169427
v -29.894729 -3.184734 -7.371199
v 19.846961 -8.420307 -9.326937
v 16.916571 -4.917220 -8.018365
v 16.778232 -5.923710 -8.394338
v 16.783214 -5.558967 -8.258089
v 16.837816 -6.357218 -8.556274
v 16.995509 -6.842549 -8.737568
v 18.621006 -8.319609 -9.289321
v -28.036530 -6.543023 -8.625681
v -27.965818 -5.250094 -8.142710
v -29.965209 -3.167048 -7.364592
v -30.395814 -8.409474 -9.322890
v -31.399327 -8.285485 -9.276574
v -31.259949 -3.184734 -7.371199
v -31.329919 -3.204339 -7.378522
v 19.918993 -3.147123 -7.357149
v 16.783214 -5.996550 -8.421547
v 16.854617 -6.428268 -8.582814
v 17.025509 -6.909111 -8.762432
v 18.690744 -8.341220 -9.297394
v -27.926259 -5.537910 -8.250223
v -27.980602 -5.178949 -8.116134
v -67.861845 9.855621 -2.500000
v -30.107484 -3.137483 -7.353548
v -30.036145 -3.151294 -7.358707
v -31.329919 -8.306993 -9.284608
v -31.189470 -3.167048 -7.364592
v 19.846961 -3.135210 -7.352699
v 16.873353 -6.498833 -8.609174
v 17.057315 -6.974829 -8.786981
v 18.761047 -8.360918 -9.304752
v -27.933196 -5.465577 -8.223203
v -27.997324 -5.108235 -8.089719
v -31.259949 -8.326598 -9.291932
v -31.118534 -3.151294 -7.358707
v 19.774631 -8.430249 -9.330650
v 16.894009 -6.568860 -8.635332
v 17.090904 -7.039653 -8.811196
v 18.831861 -8.378688 -9.311390
v -28.015971 -5.038004 -8.063484
v -30.179175 -3.125626 -7.349119
v -31.189470 -8.344284 -9.298538
v -31.047194 -3.137483 -7.353548
v 19.702057 -8.438211 -9.333625
v 16.916571 -6.638297 -8.661270
v 17.126252 -7.103536 -8.835059
v 18.903135 -8.394517 -9.317303
v -28.036530 -4.968309 -8.037449
v -30.251163 -3.115731 -7.345423
v -31.118534 -8.360038 -9.304423
v -30.975504 -3.125626 -7.349119
v 19.774631 -3.125268 -7.348985
v 17.163331 -7.166430 -8.858553
v 18.974814 -8.408394 -9.322486
v -28.058984 -4.899201 -8.011634
v -30.323394 -3.107807 -7.342463
v -31.047194 -8.373849 -9.309582
v -30.903516 -3.115731 -7.345423
v 19.702057 -3.117306 -7.346011
v 17.202114 -7.228287 -8.881660
v 19.046845 -8.420307 -9.326937
v -30.395814 -3.101858 -7.340241
v -30.975504 -8.385706 -9.314011
v -30.831285 -3.107807 -7.342463
v 19.629292 -8.444188 -9.335857
v 19.119175 -8.430249 -9.330650
v -30.468370 -3.097890 -7.338758
v -30.903516 -8.395601 -9.317708
v -30.758865 -3.101858 -7.340241
v 19.556391 -8.448175 -9.337346
v 19.191750 -8.438211 -9.333625
v -30.831285 -8.403525 -9.320668
v -30.686309 -3.097890 -7.338758
v 19.629292 -3.111329 -7.343778
v 19.264515 -8.444188 -9.335857
v -30.758865 -8.409474 -9.322890
v -30.577339 -3.095657 -7.337924
v -30.613673 -3.095905 -7.338017
v 19.483408 -8.450169 -9.338091
v 19.337416 -8.448175 -9.337346
v 19.410398 -8.450169 -9.338091
v -30.686309 -8.413442 -9.324372
v -30.613672 -8.415427 -9.325113
v 19.556391 -3.107342 -7.342289
v -30.323394 -3.107807 -2.500000
v -30.179175 -3.125626 -2.500000
v 16.822962 -5.269782 -2.500000
v 16.799137 -5.413831 -2.500000
v -30.758865 -3.101858 -2.500000
v -30.613672 -3.095905 -2.500000
v -30.468370 -3.097890 -2.500000
v -30.036145 -3.151294 -2.500000
v -31.047194 -3.137483 -2.500000
v -30.903516 -3.115731 -2.500000
v 16.854617 -5.127249 -2.500000
v -31.189470 -3.167048 -2.500000
v -29.618427 -3.274510 -2.500000
v -29.484364 -3.330578 -2.500000
v -29.894729 -3.184734 -2.500000
v -31.603667 -3.301629 -2.500000
v -31.468122 -3.249244 -2.500000
v -29.353562 -3.393884 -2.500000
v -29.226413 -3.464237 -2.500000
v -29.755352 -3.225847 -2.500000
v -31.329919 -3.204339 -2.500000
v -31.865171 -3.428192 -2.500000
v -31.736148 -3.361338 -2.500000
v -32.111314 -3.582519 -2.500000
v -31.990351 -3.501993 -2.500000
v -27.980602 -5.178949 -2.500000
v -27.921300 -5.610405 -2.500000
v -27.917331 -5.755666 -2.500000
v -29.103296 -3.541430 -2.500000
v -28.984578 -3.625230 -2.500000
v 16.822962 -6.285735 -2.500000
v 26.598379 -15.576183 -2.500000
v 19.119175 -8.430249 -2.500000
v 20.676501 -3.404743 -2.500000
v 20.804254 -3.475432 -2.500000
v 16.775241 -5.850762 -2.500000
v 16.774243 -5.777758 -2.500000
v 19.264515 -8.444188 -2.500000
v 20.927957 -3.552991 -2.500000
v 21.047240 -3.637190 -2.500000
v 20.272801 -3.235908 -2.500000
v 20.410377 -3.284802 -2.500000
v 18.690744 -3.214297 -2.500000
v 18.831861 -3.176829 -2.500000
v -28.870613 -3.715388 -2.500000
v -28.761742 -3.811636 -2.500000
v 16.783214 -5.996550 -2.500000
v -37.813592 -15.471864 -2.500000
v -31.047194 -8.373849 -2.500000
v -31.189470 -8.344284 -2.500000
v -30.758865 -8.409474 -2.500000
v -30.903516 -8.395601 -2.500000
v 19.410398 -8.450169 -2.500000
v 21.161747 -3.727777 -2.500000
v 21.271136 -3.824483 -2.500000
v 20.545077 -3.341137 -2.500000
v 19.702057 -3.117306 -2.500000
v 19.846961 -3.135210 -2.500000
v 19.119175 -3.125268 -2.500000
v 19.264515 -3.111329 -2.500000
v 18.974814 -3.147123 -2.500000
v -28.560564 -4.021232 -2.500000
v -28.468857 -4.133954 -2.500000
v -28.658289 -3.913685 -2.500000
v -32.339158 -3.762769 -2.500000
v -32.227699 -3.669531 -2.500000
v 16.775241 -5.704755 -2.500000
v 21.375080 -3.927017 -2.500000
v 21.473271 -4.035075 -2.500000
v 19.990672 -3.161000 -2.500000
v 20.132760 -3.194599 -2.500000
v 19.410398 -3.105348 -2.500000
v 18.415695 -3.312050 -2.500000
v 18.551884 -3.259416 -2.500000
v -27.933196 -5.465577 -2.500000
v -27.952983 -5.321616 -2.500000
v -28.383443 -4.251517 -2.500000
v -32.640738 -4.076967 -2.500000
v -32.545987 -3.966791 -2.500000
v 16.783214 -5.558967 -2.500000
v -32.445360 -7.649378 -2.500000
v -32.545987 -7.544541 -2.500000
v -31.329919 -8.306993 -2.500000
v -31.468122 -8.262088 -2.500000
v -30.613672 -8.415427 -2.500000
v 19.556391 -3.107342 -2.500000
v 18.282583 -3.372043 -2.500000
v 18.027171 -3.513366 -2.500000
v 18.152946 -3.439215 -2.500000
v -28.109513 -4.762953 -2.500000
v -28.058984 -4.899201 -2.500000
v -28.232492 -4.499744 -2.500000
v -28.167407 -4.629669 -2.500000
v -32.445360 -3.861954 -2.500000
v 16.799137 -6.141686 -2.500000
v -32.339158 -7.748563 -2.500000
v -31.990351 -8.009339 -2.500000
v -32.111314 -7.928813 -2.500000
v -31.736148 -8.149994 -2.500000
v -31.865171 -8.083140 -2.500000
v -30.323394 -8.403525 -2.500000
v -30.468370 -8.413442 -2.500000
v 19.556391 -8.448175 -2.500000
v 21.271136 -7.731034 -2.500000
v 21.161747 -7.827740 -2.500000
v 21.473271 -7.520442 -2.500000
v 21.375080 -7.628500 -2.500000
v 17.468893 -3.980375 -2.500000
v 17.569998 -3.875040 -2.500000
v 17.126252 -4.451981 -2.500000
v 17.202114 -4.327230 -2.500000
v 16.995509 -4.712968 -2.500000
v 17.057315 -4.580688 -2.500000
v 16.894009 -4.986656 -2.500000
v 16.941020 -4.848425 -2.500000
v -28.304576 -4.373568 -2.500000
v 16.894009 -6.568860 -2.500000
v 16.854617 -6.428268 -2.500000
v 16.995509 -6.842549 -2.500000
v 16.941020 -6.707091 -2.500000
v 17.202114 -7.228287 -2.500000
v 17.126252 -7.103536 -2.500000
v 18.152946 -8.116302 -2.500000
v 18.027171 -8.042150 -2.500000
v 18.831861 -8.378688 -2.500000
v 18.690744 -8.341220 -2.500000
v -32.640738 -7.434365 -2.500000
v -32.227699 -7.841801 -2.500000
v -31.603667 -8.209703 -2.500000
v -28.468857 -7.377378 -2.500000
v -28.560564 -7.490100 -2.500000
v -27.980602 -6.332383 -2.500000
v 19.990672 -8.394517 -2.500000
v 19.846961 -8.420307 -2.500000
v 20.927957 -8.002526 -2.500000
v 20.804254 -8.080085 -2.500000
v 17.905633 -3.594276 -2.500000
v 17.676705 -3.775383 -2.500000
v 17.788695 -3.681702 -2.500000
v 17.284676 -4.206808 -2.500000
v -28.015971 -5.038004 -2.500000
v 17.057315 -6.974829 -2.500000
v 17.373691 -7.464442 -2.500000
v 17.284676 -7.348708 -2.500000
v 17.569998 -7.680477 -2.500000
v 17.468893 -7.575141 -2.500000
v 17.788695 -7.873815 -2.500000
v 17.676705 -7.780134 -2.500000
v 17.905633 -7.961241 -2.500000
v 18.551884 -8.296101 -2.500000
v 18.415695 -8.243467 -2.500000
v 18.974814 -8.408394 -2.500000
v -29.894729 -8.326598 -2.500000
v -30.036145 -8.360038 -2.500000
v -29.353562 -8.117448 -2.500000
v -29.484364 -8.180754 -2.500000
v -28.761742 -7.699696 -2.500000
v -28.870613 -7.795943 -2.500000
v -28.383443 -7.259815 -2.500000
v -28.658289 -7.597647 -2.500000
v -28.167407 -6.881663 -2.500000
v -28.232492 -7.011588 -2.500000
v -27.952983 -6.189716 -2.500000
v 19.702057 -8.438211 -2.500000
v 20.272801 -8.319609 -2.500000
v 20.132760 -8.360918 -2.500000
v 20.545077 -8.214380 -2.500000
v 20.410377 -8.270714 -2.500000
v 20.676501 -8.150774 -2.500000
v 21.047240 -7.918327 -2.500000
v 56.750104 0.000000 -2.500000
v 21.868298 -4.646406 -2.500000
v 21.926467 -4.780324 -2.500000
v 21.651234 -4.266455 -2.500000
v 21.730476 -4.389087 -2.500000
v 21.565414 -4.148334 -2.500000
v 17.373691 -4.091075 -2.500000
v -32.811503 -4.312004 -2.500000
v -32.729332 -4.192152 -2.500000
v 18.282583 -8.183474 -2.500000
v -67.861845 0.000000 -2.500000
v -33.236356 -5.828324 -2.500000
v -33.237348 -5.755666 -2.500000
v -32.955617 -6.947070 -2.500000
v -33.017129 -6.815416 -2.500000
v -30.179175 -8.385706 -2.500000
v -29.618427 -8.236821 -2.500000
v -29.755352 -8.285485 -2.500000
v -28.984578 -7.886102 -2.500000
v -29.103296 -7.969902 -2.500000
v -28.304576 -7.137764 -2.500000
v -28.058984 -6.612131 -2.500000
v -28.109513 -6.748379 -2.500000
v -27.933196 -6.045754 -2.500000
v 21.868298 -6.909111 -2.500000
v 21.977236 -4.917220 -2.500000
v 22.020454 -5.056683 -2.500000
v 21.802902 -4.515864 -2.500000
v -33.118149 -4.968309 -2.500000
v -33.212573 -5.393461 -2.500000
v -33.188861 -5.250094 -2.500000
v -33.236356 -5.683008 -2.500000
v -33.228420 -5.537910 -2.500000
v -32.887006 -7.075168 -2.500000
v -32.729332 -7.319180 -2.500000
v -32.811503 -7.199328 -2.500000
v -29.226413 -8.047095 -2.500000
v -28.015971 -6.473328 -2.500000
v -27.921300 -5.900927 -2.500000
v 21.802902 -7.039653 -2.500000
v 22.020454 -6.498833 -2.500000
v 21.977236 -6.638297 -2.500000
v 22.055991 -5.198299 -2.500000
v -33.071361 -4.830732 -2.500000
v -33.157355 -5.108235 -2.500000
v -33.212573 -6.117870 -2.500000
v -33.228420 -5.973422 -2.500000
v 21.730476 -7.166430 -2.500000
v 21.926467 -6.775192 -2.500000
v 22.083741 -5.341644 -2.500000
v 22.103622 -5.486290 -2.500000
v -33.017129 -4.695916 -2.500000
v -32.955617 -4.564262 -2.500000
v -33.118149 -6.543023 -2.500000
v -33.157355 -6.403097 -2.500000
v 21.651234 -7.289062 -2.500000
v 21.565414 -7.407183 -2.500000
v 22.103622 -6.069227 -2.500000
v 22.083741 -6.213873 -2.500000
v 22.115575 -5.631807 -2.500000
v -32.887006 -4.436164 -2.500000
v -33.188861 -6.261238 -2.500000
v 22.055991 -6.357218 -2.500000
v -33.071361 -6.680600 -2.500000
v 22.119563 -5.777758 -2.500000
v 22.115575 -5.923710 -2.500000
usemtl korekcija_uglaMaterial0
f 1 2 3
f 3 4 1
f 5 1 6
f 6 7 5
f 8 5 9
f 9 10 8
f 11 8 12
f 12 13 11
f 14 11 15
f 15 16 14
f 17 14 18
f 18 19 17
f 20 17 21
f 21 22 20
f 23 20 24
f 24 25 23
f 26 23 27
f 27 28 26
f 29 26 30
f 30 31 29
f 32 29 33
f 33 34 32
f 35 32 36
f 36 37 35
f 38 35 39
f 39 40 38
f 41 38 42
f 42 43 41
f 44 41 45
f 45 46 44
f 47 44 48
f 48 49 47
f 50 47 51
f 51 52 50
f 53 50 54
f 54 55 53
f 56 53 57
f 57 58 56
f 59 56 60
f 60 61 59
f 62 59 63
f 63 64 62
f 65 62 66
f 66 67 65
f 68 65 69
f 69 70 68
f 71 68 72
f 72 73 71
f 74 71 75
f 75 76 74
f 77 74 78
f 78 79 77
f 80 77 81
f 81 82 80
f 83 80 84
f 84 85 83
f 86 83 87
f 87 88 86
f 89 86 90
f 90 91 89
f 92 89 93
f 93 94 92
f 95 92 96
f 96 97 95
f 98 95 99
f 99 100 98
f 101 98 102
f 102 103 101
f 104 101 105
f 105 106 104
f 107 104 108
f 108 109 107
f 110 107 111
f 111 112 110
f 113 110 114
f 114 115 113
f 116 113 117
f 117 118 116
f 119 116 120
f 120 121 119
f 122 119 123
f 123 124 122
f 125 122 126
f 126 127 125
f 128 125 129
f 129 130 128
f 131 128 132
f 132 133 131
f 134 131 135
f 135 136 134
f 137 134 138
f 138 139 137
f 140 137 141
f 141 142 140
f 143 140 144
f 144 145 143
f 146 143 147
f 147 148 146
f 149 146 150
f 150 151 149
f 152 149 153
f 153 154 152
f 155 152 156
f 156 157 155
f 158 155 159
f 159 160 158
f 161 158 162
f 162 163 161
f 164 161 165
f 165 166 164
f 167 164 168
f 168 169 167
f 170 167 171
f 171 172 170
f 170 173 174
f 170 175 173
f 176 177 178
f 176 174 177
f 179 180 181
f 179 178 180
f 182 183 184
f 182 181 183
f 185 186 187
f 185 184 186
f 188 189 190
f 188 187 189
f 191 192 193
f 191 190 192
f 194 195 196
f 194 193 195
f 197 198 199
f 197 196 198
f 200 201 202
f 200 199 201
f 203 204 205
f 203 202 204
f 206 207 208
f 206 205 207
f 209 210 211
f 209 208 210
f 212 213 214
f 212 211 213
f 215 216 217
f 215 214 216
f 218 219 220
f 218 217 219
f 221 222 223
f 221 220 222
f 224 225 226
f 224 223 225
f 227 228 229
f 227 226 228
f 230 231 232
f 230 229 231
f 233 234 235
f 233 232 234
f 236 237 238
f 236 235 237
f 239 240 241
f 239 238 240
f 242 243 244
f 242 241 243
f 245 246 247
f 245 244 246
f 248 249 250
f 248 247 249
f 251 252 253
f 251 250 252
f 254 255 256
f 254 253 255
f 257 258 259
f 259 260 257
f 261 256 258
f 260 262 263
f 260 259 262
f 264 265 266
f 264 263 265
f 267 268 269
f 267 266 268
f 270 271 272
f 270 269 271
f 273 274 275
f 273 272 274
f 276 277 278
f 276 275 277
f 279 280 281
f 279 278 280
f 282 283 284
f 282 281 283
f 285 286 287
f 285 284 286
f 288 289 290
f 288 287 289
f 291 292 293
f 291 290 292
f 294 295 296
f 294 293 295
f 297 298 299
f 297 296 298
f 300 301 302
f 300 299 301
f 303 304 305
f 303 302 304
f 306 307 308
f 306 305 307
f 309 310 311
f 309 308 310
f 312 313 314
f 312 311 313
f 315 316 317
f 315 314 316
f 318 319 320
f 318 317 319
f 321 322 323
f 321 320 322
f 324 325 326
f 324 323 325
f 327 328 329
f 327 326 328
f 330 331 332
f 330 329 331
f 333 334 335
f 333 332 334
f 336 337 338
f 336 335 337
f 339 340 341
f 339 338 340
f 342 343 344
f 342 341 343
f 2 345 346
f 345 344 346
f 346 3 2
f 344 345 342
f 341 342 339
f 338 339 336
f 335 336 333
f 332 333 330
f 329 330 327
f 326 327 324
f 323 324 321
f 320 321 318
f 317 318 315
f 314 315 312
f 311 312 309
f 308 309 306
f 305 306 303
f 302 303 300
f 299 300 297
f 296 297 294
f 293 294 291
f 290 291 288
f 287 288 285
f 284 285 282
f 281 282 279
f 278 279 276
f 275 276 273
f 272 273 270
f 269 270 267
f 266 267 264
f 263 264 260
f 257 261 258
f 256 261 254
f 253 254 251
f 250 251 248
f 247 248 245
f 244 245 242
f 241 242 239
f 238 239 236
f 235 236 233
f 232 233 230
f 229 230 227
f 226 227 224
f 223 224 221
f 220 221 218
f 217 218 215
f 214 215 212
f 211 212 209
f 208 209 206
f 205 206 203
f 202 203 200
f 199 200 197
f 196 197 194
f 193 194 191
f 190 191 188
f 187 188 185
f 184 185 182
f 181 182 179
f 178 179 176
f 174 176 170
f 172 175 170
f 169 171 167
f 166 168 164
f 163 165 161
f 160 162 158
f 157 159 155
f 154 156 152
f 151 153 149
f 148 150 146
f 145 147 143
f 142 144 140
f 139 141 137
f 136 138 134
f 133 135 131
f 130 132 128
f 127 129 125
f 124 126 122
f 121 123 119
f 118 120 116
f 115 117 113
f 112 114 110
f 109 111 107
f 106 108 104
f 103 105 101
f 100 102 98
f 97 99 95
f 94 96 92
f 91 93 89
f 88 90 86
f 85 87 83
f 82 84 80
f 79 81 77
f 76 78 74
f 73 75 71
f 70 72 68
f 67 69 65
f 64 66 62
f 61 63 59
f 58 60 56
f 55 57 53
f 52 54 50
f 49 51 47
f 46 48 44
f 43 45 41
f 40 42 38
f 37 39 35
f 34 36 32
f 31 33 29
f 28 30 26
f 25 27 23
f 22 24 20
f 19 21 17
f 16 18 14
f 13 15 11
f 10 12 8
f 7 9 5
f 4 6 1
f 347 348 349
f 349 350 347
f 350 351 347
f 347 352 353
f 351 354 347
f 347 355 352
f 353 348 347
f 354 356 347
f 356 357 347
f 347 358 359
f 357 360 347
f 347 361 358
f 359 355 347
f 360 362 347
f 347 363 361
f 362 364 347
f 364 365 347
f 347 366 367
f 365 368 347
f 347 369 366
f 367 363 347
f 368 370 347
f 347 371 369
f 370 372 347
f 372 373 347
f 347 374 375
f 373 376 347
f 347 377 374
f 375 371 347
f 376 378 347
f 347 379 377
f 378 380 347
f 381 382 379
f 379 347 381
f 380 383 347
f 384 385 382
f 382 381 384
f 383 386 347
f 384 387 385
f 386 388 347
f 384 389 387
f 384 390 389
f 388 391 347
f 384 392 390
f 391 393 347
f 394 395 396
f 384 397 392
f 396 398 394
f 398 399 394
f 394 400 401
f 393 402 347
f 394 403 400
f 401 395 394
f 402 404 347
f 399 405 394
f 384 406 397
f 384 407 406
f 405 408 394
f 404 409 347
f 408 410 394
f 394 411 412
f 384 413 407
f 410 414 394
f 394 415 411
f 412 403 394
f 409 416 347
f 414 417 394
f 416 418 347
f 394 419 420
f 384 421 413
f 417 422 394
f 394 423 419
f 420 415 394
f 418 424 347
f 422 425 394
f 384 426 421
f 384 427 426
f 425 428 394
f 394 429 430
f 424 431 347
f 428 432 394
f 394 433 429
f 430 423 394
f 384 434 427
f 432 435 394
f 431 436 347
f 436 437 347
f 435 438 394
f 394 439 440
f 384 441 434
f 438 442 394
f 394 443 439
f 440 433 394
f 437 444 347
f 442 445 394
f 384 446 441
f 394 447 448
f 384 449 446
f 445 447 394
f 394 450 451
f 444 452 347
f 448 453 394
f 394 454 450
f 451 443 394
f 452 455 347
f 448 456 453
f 384 457 449
f 341 458 459
f 384 460 457
f 459 461 341
f 456 462 453
f 455 463 347
f 461 464 341
f 462 465 453
f 394 466 467
f 463 468 347
f 464 469 341
f 465 470 453
f 394 471 466
f 467 454 394
f 384 472 460
f 469 473 341
f 470 474 453
f 384 475 472
f 473 476 341
f 468 477 347
f 476 478 341
f 474 479 453
f 394 480 481
f 477 482 347
f 483 343 341
f 478 484 341
f 479 485 453
f 394 486 480
f 481 471 394
f 384 487 475
f 484 488 341
f 341 488 483
f 485 489 453
f 384 490 487
f 347 491 492
f 394 493 494
f 482 495 347
f 347 496 491
f 492 52 347
f 483 497 343
f 489 498 453
f 394 499 493
f 494 486 394
f 495 500 347
f 52 51 347
f 497 501 343
f 453 502 503
f 498 504 453
f 384 505 490
f 171 506 507
f 501 508 343
f 503 223 453
f 223 222 453
f 384 509 505
f 51 49 347
f 507 510 171
f 508 511 343
f 504 512 453
f 394 513 514
f 500 515 347
f 49 48 347
f 510 516 171
f 511 517 343
f 222 220 453
f 512 518 453
f 394 519 513
f 514 499 394
f 515 520 347
f 48 46 347
f 516 521 171
f 517 522 343
f 220 219 453
f 518 523 453
f 394 524 519
f 384 525 509
f 46 45 347
f 521 526 171
f 522 527 343
f 219 217 453
f 523 528 453
f 520 529 347
f 45 43 347
f 526 530 171
f 527 531 343
f 217 216 453
f 384 532 525
f 43 42 347
f 530 533 171
f 531 534 343
f 216 214 453
f 528 535 453
f 384 536 532
f 42 40 347
f 533 537 171
f 534 538 343
f 214 213 453
f 535 539 453
f 394 540 541
f 529 542 347
f 40 39 347
f 543 172 171
f 537 544 171
f 538 545 343
f 213 211 453
f 539 546 453
f 394 547 540
f 541 524 394
f 542 548 347
f 39 37 347
f 544 549 171
f 171 549 543
f 545 550 343
f 211 210 453
f 546 551 453
f 394 552 547
f 384 553 536
f 162 554 555
f 556 148 147
f 37 36 347
f 550 557 343
f 210 208 453
f 551 558 453
f 384 559 553
f 162 560 554
f 555 561 162
f 556 150 148
f 147 145 556
f 36 34 347
f 543 562 172
f 557 563 343
f 208 207 453
f 548 564 347
f 162 565 560
f 556 151 150
f 34 33 347
f 562 566 172
f 567 319 317
f 563 568 343
f 207 205 453
f 558 569 453
f 394 570 571
f 564 572 347
f 162 573 565
f 556 153 151
f 33 31 347
f 566 574 172
f 293 575 567
f 567 320 319
f 317 316 567
f 334 576 577
f 568 578 343
f 205 204 453
f 569 579 453
f 394 580 570
f 571 552 394
f 384 581 559
f 582 163 162
f 162 583 573
f 123 584 556
f 556 154 153
f 31 30 347
f 574 585 172
f 567 296 295
f 567 295 293
f 567 301 299
f 567 305 304
f 567 311 310
f 567 322 320
f 586 335 334
f 334 587 576
f 577 588 334
f 578 589 343
f 204 202 453
f 579 590 453
f 394 591 580
f 384 592 581
f 162 593 594
f 162 594 582
f 162 595 596
f 162 597 598
f 162 599 600
f 162 601 583
f 556 126 124
f 556 124 123
f 556 130 129
f 556 135 133
f 556 141 139
f 556 156 154
f 30 28 347
f 585 602 172
f 567 298 296
f 567 302 301
f 299 298 567
f 567 307 305
f 304 302 567
f 567 313 311
f 310 308 567
f 567 323 322
f 334 603 604
f 334 604 586
f 334 605 606
f 334 607 608
f 334 609 610
f 334 611 587
f 589 612 343
f 202 201 453
f 590 613 453
f 572 614 347
f 162 615 593
f 162 616 595
f 596 615 162
f 162 617 597
f 598 616 162
f 162 618 599
f 600 619 162
f 162 620 601
f 556 127 126
f 556 132 130
f 129 127 556
f 556 136 135
f 133 132 556
f 556 142 141
f 139 138 556
f 556 157 156
f 106 621 584
f 28 27 347
f 602 622 172
f 623 334 332
f 328 567 624
f 567 308 307
f 567 314 313
f 567 325 323
f 334 625 603
f 334 626 605
f 606 625 334
f 334 627 607
f 608 626 334
f 334 628 609
f 610 629 334
f 334 630 611
f 631 337 335
f 612 632 343
f 201 199 453
f 394 633 634
f 384 635 592
f 162 619 617
f 162 636 618
f 162 637 620
f 556 138 136
f 556 144 142
f 556 159 157
f 584 109 108
f 584 108 106
f 584 112 111
f 638 165 163
f 27 25 347
f 622 639 172
f 332 640 641
f 332 641 623
f 624 331 329
f 624 329 328
f 567 316 314
f 567 326 325
f 334 629 627
f 334 642 628
f 334 643 630
f 335 644 645
f 335 645 631
f 335 646 647
f 277 648 575
f 632 649 343
f 199 198 453
f 613 650 453
f 394 651 633
f 634 591 394
f 614 652 347
f 162 561 636
f 162 653 637
f 556 145 144
f 556 160 159
f 111 109 584
f 584 115 114
f 163 654 655
f 163 655 638
f 163 656 657
f 25 24 347
f 639 658 172
f 332 624 640
f 624 332 331
f 567 328 326
f 334 588 642
f 334 659 643
f 647 644 335
f 335 660 661
f 575 280 278
f 575 278 277
f 575 283 281
f 649 662 343
f 198 196 453
f 650 663 453
f 394 664 651
f 652 665 347
f 162 556 653
f 556 162 160
f 114 112 584
f 584 118 117
f 584 121 120
f 657 654 163
f 163 666 667
f 93 668 621
f 621 97 96
f 24 22 347
f 658 669 172
f 334 623 659
f 661 646 335
f 335 670 671
f 335 672 673
f 281 280 575
f 575 286 284
f 263 674 648
f 648 268 266
f 662 675 343
f 196 195 453
f 663 676 453
f 394 677 664
f 384 678 635
f 117 115 584
f 584 123 121
f 120 118 584
f 667 656 163
f 163 679 680
f 163 681 682
f 96 94 621
f 621 94 93
f 621 100 99
f 683 166 165
f 165 684 685
f 166 686 687
f 668 90 88
f 168 688 689
f 22 21 347
f 384 172 690
f 669 691 172
f 671 660 335
f 335 586 672
f 673 670 335
f 284 283 575
f 575 289 287
f 575 292 290
f 266 265 648
f 648 265 263
f 648 271 269
f 692 338 337
f 337 693 694
f 338 695 696
f 697 250 249
f 675 698 343
f 195 193 453
f 676 699 453
f 394 700 677
f 665 701 347
f 680 666 163
f 163 582 681
f 682 679 163
f 99 97 621
f 621 103 102
f 685 702 165
f 165 702 683
f 165 703 704
f 687 705 166
f 705 706 166
f 88 87 668
f 87 85 668
f 689 707 168
f 21 19 347
f 691 690 172
f 287 286 575
f 575 293 292
f 290 289 575
f 269 268 648
f 648 274 272
f 694 708 337
f 337 708 692
f 337 709 710
f 696 711 338
f 338 692 712
f 674 259 258
f 249 247 697
f 698 713 343
f 193 192 453
f 699 714 453
f 384 715 678
f 102 100 621
f 621 106 105
f 704 684 165
f 165 716 717
f 707 718 168
f 719 79 78
f 169 720 721
f 722 67 66
f 19 18 347
f 690 723 384
f 272 271 648
f 648 277 275
f 710 693 337
f 337 724 725
f 712 695 338
f 711 726 338
f 258 256 674
f 247 246 697
f 340 727 728
f 713 729 343
f 192 190 453
f 384 730 715
f 105 103 621
f 717 703 165
f 165 638 731
f 706 732 166
f 166 683 733
f 85 84 668
f 718 734 168
f 78 76 719
f 721 735 169
f 66 64 722
f 18 16 347
f 723 736 384
f 275 274 648
f 725 709 337
f 337 631 737
f 256 255 674
f 674 263 262
f 246 244 697
f 728 738 340
f 729 739 343
f 740 237 235
f 190 189 453
f 714 741 453
f 394 742 743
f 701 744 347
f 731 716 165
f 688 168 166
f 733 686 166
f 732 745 166
f 84 82 668
f 668 93 91
f 734 746 168
f 76 75 719
f 735 747 169
f 64 63 722
f 16 15 347
f 736 748 384
f 737 724 337
f 727 340 338
f 726 749 338
f 262 259 674
f 255 253 674
f 244 243 697
f 738 750 340
f 751 343 752
f 739 753 343
f 235 234 740
f 189 187 453
f 741 754 453
f 394 755 742
f 743 700 394
f 744 756 347
f 79 719 668
f 91 90 668
f 82 81 668
f 746 757 168
f 75 73 719
f 747 758 169
f 63 61 722
f 15 13 347
f 748 759 384
f 749 760 338
f 250 697 674
f 243 241 697
f 750 761 340
f 753 752 343
f 234 232 740
f 187 186 453
f 754 762 453
f 394 763 755
f 384 764 730
f 166 745 688
f 720 169 168
f 757 765 168
f 73 72 719
f 758 766 169
f 61 60 722
f 13 12 347
f 759 767 384
f 338 760 727
f 253 252 674
f 237 740 697
f 241 240 697
f 761 768 340
f 752 769 751
f 232 231 740
f 186 184 453
f 762 770 453
f 394 771 763
f 384 772 764
f 668 81 79
f 765 773 168
f 168 773 720
f 67 722 719
f 72 70 719
f 766 774 169
f 60 58 722
f 12 10 347
f 767 775 384
f 674 252 250
f 240 238 697
f 697 238 237
f 458 341 340
f 768 776 340
f 769 777 751
f 231 229 740
f 184 183 453
f 770 778 453
f 394 779 771
f 756 780 347
f 70 69 719
f 719 69 67
f 506 171 169
f 774 781 169
f 58 57 722
f 10 9 347
f 775 782 384
f 776 783 340
f 340 783 458
f 777 784 751
f 229 228 740
f 183 181 453
f 778 785 453
f 394 786 779
f 780 787 347
f 781 788 169
f 169 788 506
f 52 492 722
f 57 55 722
f 9 7 347
f 782 789 384
f 784 790 751
f 223 503 740
f 228 226 740
f 181 180 453
f 785 791 453
f 394 792 786
f 384 793 772
f 55 54 722
f 722 54 52
f 7 6 347
f 789 794 384
f 790 795 751
f 226 225 740
f 740 225 223
f 751 347 346
f 180 178 453
f 791 796 453
f 394 797 792
f 384 798 793
f 6 4 347
f 794 799 384
f 346 344 751
f 178 177 453
f 796 800 453
f 394 801 797
f 787 802 347
f 4 3 347
f 799 803 384
f 344 343 751
f 177 174 453
f 800 804 453
f 751 805 806
f 384 807 798
f 803 808 384
f 174 173 453
f 806 394 751
f 806 801 394
f 384 809 807
f 384 453 175
f 804 810 453
f 808 809 384
f 173 175 453
f 175 172 384
f 810 811 453
f 811 502 453
f 802 812 347
f 812 496 347
f 795 805 751
f 3 346 347
f 751 2 1
f 345 813 814
f 1 815 751
f 1 816 815
f 751 817 818
f 345 819 813
f 814 820 345
f 818 345 751
f 345 2 751
f 345 818 819
f 751 821 822
f 815 823 751
f 751 824 821
f 822 817 751
f 345 825 826
f 345 820 827
f 751 828 829
f 345 830 831
f 345 832 825
f 826 830 345
f 829 833 751
f 833 824 751
f 751 834 835
f 751 836 837
f 838 312 315
f 257 839 840
f 345 841 842
f 827 832 345
f 837 834 751
f 835 828 751
f 843 35 38
f 95 844 845
f 347 846 847
f 315 318 838
f 318 321 838
f 838 306 309
f 840 261 257
f 257 260 839
f 831 841 345
f 843 77 80
f 843 71 74
f 843 62 65
f 38 41 843
f 41 44 843
f 843 29 32
f 5 848 849
f 844 850 845
f 847 851 347
f 851 852 347
f 347 853 854
f 347 855 856
f 838 330 333
f 838 324 327
f 309 312 838
f 838 300 303
f 345 857 858
f 74 77 843
f 65 68 843
f 843 44 47
f 32 35 843
f 5 859 848
f 860 861 862
f 860 863 864
f 844 95 98
f 844 865 850
f 347 866 867
f 854 868 347
f 868 846 347
f 347 869 870
f 347 871 872
f 856 873 347
f 873 871 347
f 333 336 838
f 336 339 838
f 838 321 324
f 327 330 838
f 303 306 838
f 840 254 261
f 840 227 230
f 342 874 875
f 876 874 342
f 842 857 345
f 751 877 878
f 68 71 843
f 843 56 59
f 843 50 53
f 816 1 5
f 849 879 5
f 864 861 860
f 98 101 844
f 845 89 92
f 867 880 347
f 880 881 347
f 870 882 347
f 882 883 347
f 872 884 347
f 751 885 886
f 339 342 838
f 838 270 273
f 838 264 267
f 264 887 839
f 264 838 888
f 840 224 227
f 840 212 215
f 342 345 876
f 875 889 342
f 878 836 751
f 751 890 891
f 59 62 843
f 47 50 843
f 843 14 17
f 879 892 5
f 860 893 894
f 860 895 896
f 860 897 863
f 845 92 95
f 852 866 347
f 883 853 347
f 347 884 898
f 347 886 855
f 751 899 885
f 886 347 751
f 751 900 901
f 838 294 297
f 838 285 288
f 267 270 838
f 888 887 264
f 840 248 251
f 840 242 245
f 840 221 224
f 215 218 840
f 218 221 840
f 840 203 206
f 840 188 191
f 342 902 903
f 342 904 905
f 858 876 345
f 891 906 751
f 53 56 843
f 843 23 26
f 17 20 843
f 20 23 843
f 843 8 11
f 5 907 859
f 860 908 893
f 860 909 910
f 860 911 912
f 862 895 860
f 860 913 914
f 844 176 179
f 844 167 170
f 844 116 119
f 844 110 113
f 844 915 865
f 845 83 86
f 844 916 917
f 844 918 919
f 898 869 347
f 901 899 751
f 751 920 921
f 297 300 838
f 288 291 838
f 838 279 282
f 260 264 839
f 245 248 840
f 840 233 236
f 206 209 840
f 209 212 840
f 840 197 200
f 840 185 188
f 191 194 840
f 840 179 182
f 751 922 923
f 751 924 925
f 751 926 927
f 905 902 342
f 342 889 928
f 906 877 751
f 26 29 843
f 11 14 843
f 5 892 816
f 5 8 907
f 83 929 930
f 83 931 932
f 83 933 934
f 83 935 936
f 83 937 938
f 894 939 860
f 910 940 860
f 860 941 911
f 914 897 860
f 844 942 943
f 170 176 844
f 179 944 844
f 844 128 131
f 844 122 125
f 113 116 844
f 844 104 107
f 86 89 845
f 844 945 946
f 844 947 948
f 919 916 844
f 751 949 900
f 921 950 751
f 950 951 751
f 291 294 838
f 838 276 279
f 251 254 840
f 230 233 840
f 200 203 840
f 182 185 840
f 925 922 751
f 923 952 751
f 751 823 926
f 927 924 751
f 903 953 342
f 80 83 843
f 8 843 907
f 932 929 83
f 934 954 83
f 83 955 956
f 83 957 958
f 83 959 960
f 936 961 83
f 961 959 83
f 83 962 963
f 83 964 937
f 938 962 83
f 940 908 860
f 896 941 860
f 860 965 966
f 844 967 968
f 844 969 970
f 844 971 942
f 943 972 844
f 844 973 974
f 179 975 944
f 844 143 146
f 131 134 844
f 134 137 844
f 119 122 844
f 101 104 844
f 946 976 844
f 844 977 978
f 844 979 980
f 948 981 844
f 917 982 844
f 983 984 985
f 347 986 987
f 347 881 988
f 951 949 751
f 282 285 838
f 840 239 242
f 194 197 840
f 751 952 989
f 928 904 342
f 751 990 991
f 954 931 83
f 958 955 83
f 956 933 83
f 963 992 83
f 993 994 995
f 860 996 997
f 912 909 860
f 966 998 860
f 860 999 1000
f 968 860 844
f 968 999 860
f 970 1001 844
f 1001 1002 844
f 972 969 844
f 974 1003 844
f 1003 971 844
f 844 1004 1005
f 179 1006 975
f 844 158 161
f 844 152 155
f 146 149 844
f 125 128 844
f 976 915 844
f 980 977 844
f 982 947 844
f 844 983 1007
f 985 1008 983
f 1008 1009 983
f 347 1010 984
f 988 986 347
f 273 276 838
f 236 239 840
f 991 890 751
f 930 843 83
f 960 957 83
f 83 845 964
f 1011 751 993
f 993 1012 1013
f 995 1014 993
f 1014 1015 993
f 860 1016 996
f 860 1017 1018
f 998 913 860
f 1000 965 860
f 844 1002 1019
f 1005 973 844
f 844 944 1020
f 179 1021 1006
f 161 164 844
f 164 167 844
f 149 152 844
f 107 110 844
f 981 979 844
f 1007 1022 844
f 983 1023 1024
f 983 1009 1025
f 984 983 347
f 953 838 342
f 751 1011 1026
f 1013 1027 993
f 993 1028 1029
f 1018 1016 860
f 1020 1004 844
f 179 840 1021
f 155 158 844
f 844 137 140
f 978 945 844
f 1022 1030 844
f 1024 1031 983
f 1025 1032 983
f 1032 1033 983
f 987 1010 347
f 989 920 751
f 992 935 83
f 751 1034 1035
f 993 1027 1011
f 1029 994 993
f 1015 1012 993
f 993 1036 1037
f 939 1017 860
f 844 1038 1039
f 1031 1007 983
f 983 1040 1041
f 983 1033 1042
f 1035 1043 751
f 1043 990 751
f 1037 1044 993
f 1044 1028 993
f 1019 967 844
f 140 143 844
f 1030 1038 844
f 1041 1045 983
f 993 997 1046
f 1045 1023 983
f 1046 1036 993
f 1039 918 844
f 983 1047 1048
f 1026 1034 751
f 1048 1040 983
f 997 993 860
f 1042 1047 983
f 844 384 381
f 381 983 844
f 860 993 394
f 394 453 860
f 844 860 453
f 453 384 844
f 347 983 381
f 993 751 394
f 869 898 812
f 812 802 869
f 870 869 787
f 787 780 870
f 882 870 756
f 756 744 882
f 883 882 701
f 701 665 883
f 853 883 652
f 652 614 853
f 854 853 572
f 572 564 854
f 868 854 548
f 548 542 868
f 846 868 529
f 529 520 846
f 847 846 515
f 515 500 847
f 851 847 495
f 495 482 851
f 852 851 477
f 477 468 852
f 866 852 463
f 463 455 866
f 867 866 452
f 452 444 867
f 880 867 437
f 437 436 880
f 881 880 431
f 431 424 881
f 988 881 418
f 418 416 988
f 986 988 409
f 409 404 986
f 987 986 402
f 402 393 987
f 1010 987 391
f 391 388 1010
f 984 1010 386
f 386 383 984
f 985 984 380
f 380 378 985
f 1008 985 376
f 376 373 1008
f 1009 1008 372
f 372 370 1009
f 1025 1009 368
f 368 365 1025
f 1032 1025 364
f 364 362 1032
f 1033 1032 360
f 360 357 1033
f 1042 1033 356
f 356 354 1042
f 1047 1042 351
f 351 350 1047
f 1048 1047 349
f 349 348 1048
f 1040 1048 353
f 353 352 1040
f 1041 1040 355
f 355 359 1041
f 1045 1041 358
f 358 361 1045
f 1023 1045 363
f 363 367 1023
f 1024 1023 366
f 366 369 1024
f 1031 1024 371
f 371 375 1031
f 1007 1031 374
f 374 377 1007
f 1022 1007 379
f 379 382 1022
f 1030 1022 385
f 385 387 1030
f 1038 1030 389
f 389 390 1038
f 1039 1038 392
f 392 397 1039
f 918 1039 406
f 406 407 918
f 919 918 413
f 413 421 919
f 916 919 426
f 426 427 916
f 917 916 434
f 434 441 917
f 982 917 446
f 446 449 982
f 947 982 457
f 457 460 947
f 948 947 472
f 472 475 948
f 981 948 487
f 487 490 981
f 979 981 505
f 505 509 979
f 980 979 525
f 525 532 980
f 977 980 536
f 536 553 977
f 978 977 559
f 559 581 978
f 945 978 592
f 592 635 945
f 946 945 678
f 678 715 946
f 976 946 730
f 730 764 976
f 915 976 772
f 772 793 915
f 865 915 798
f 798 807 865
f 865 808 803
f 865 809 808
f 850 799 794
f 850 803 799
f 845 789 782
f 845 794 789
f 964 775 767
f 964 782 775
f 937 759 748
f 937 767 759
f 938 736 723
f 938 748 736
f 962 690 691
f 962 723 690
f 963 669 658
f 963 691 669
f 992 639 622
f 992 658 639
f 935 602 585
f 935 622 602
f 936 574 566
f 936 585 574
f 961 562 543
f 961 566 562
f 959 549 544
f 959 543 549
f 960 537 533
f 960 544 537
f 957 530 526
f 957 533 530
f 958 521 516
f 958 526 521
f 955 510 507
f 955 516 510
f 956 506 788
f 956 507 506
f 933 781 774
f 933 788 781
f 934 766 758
f 934 774 766
f 954 747 735
f 954 758 747
f 931 721 720
f 931 735 721
f 932 773 765
f 932 720 773
f 929 757 746
f 929 765 757
f 930 734 718
f 930 746 734
f 843 707 689
f 843 718 707
f 907 688 745
f 907 689 688
f 859 732 706
f 859 745 732
f 848 706 705
f 849 705 687
f 687 879 849
f 879 686 733
f 879 687 686
f 892 683 702
f 892 733 683
f 816 685 684
f 816 702 685
f 815 704 703
f 815 684 704
f 823 717 716
f 823 703 717
f 926 731 638
f 926 716 731
f 927 655 654
f 927 638 655
f 924 657 656
f 924 654 657
f 925 667 666
f 925 656 667
f 922 680 679
f 922 666 680
f 923 682 681
f 923 679 682
f 952 582 594
f 952 681 582
f 989 593 615
f 989 594 593
f 920 596 595
f 920 615 596
f 921 616 598
f 921 595 616
f 950 597 617
f 950 598 597
f 951 619 600
f 951 617 619
f 949 599 618
f 949 600 599
f 900 636 561
f 900 618 636
f 901 555 554
f 901 561 555
f 899 560 565
f 899 554 560
f 885 573 583
f 885 565 573
f 886 601 620
f 886 583 601
f 855 637 653
f 855 620 637
f 856 556 584
f 856 653 556
f 873 621 668
f 873 584 621
f 871 719 722
f 871 668 719
f 872 492 491
f 872 722 492
f 898 884 496
f 884 491 496
f 496 812 898
f 491 884 872
f 722 872 871
f 668 871 873
f 584 873 856
f 653 856 855
f 620 855 886
f 583 886 885
f 565 885 899
f 554 899 901
f 561 901 900
f 618 900 949
f 600 949 951
f 617 951 950
f 598 950 921
f 595 921 920
f 615 920 989
f 594 989 952
f 681 952 923
f 679 923 922
f 666 922 925
f 656 925 924
f 654 924 927
f 638 927 926
f 716 926 823
f 703 823 815
f 684 815 816
f 702 816 892
f 733 892 879
f 705 849 848
f 706 848 859
f 745 859 907
f 689 907 843
f 718 843 930
f 746 930 929
f 765 929 932
f 720 932 931
f 735 931 954
f 758 954 934
f 774 934 933
f 788 933 956
f 507 956 955
f 516 955 958
f 526 958 957
f 533 957 960
f 544 960 959
f 543 959 961
f 566 961 936
f 585 936 935
f 622 935 992
f 658 992 963
f 691 963 962
f 723 962 938
f 748 938 937
f 767 937 964
f 782 964 845
f 794 845 850
f 803 850 865
f 807 809 865
f 793 798 915
f 764 772 976
f 715 730 946
f 635 678 945
f 581 592 978
f 553 559 977
f 532 536 980
f 509 525 979
f 490 505 981
f 475 487 948
f 460 472 947
f 449 457 982
f 441 446 917
f 427 434 916
f 421 426 919
f 407 413 918
f 397 406 1039
f 390 392 1038
f 387 389 1030
f 382 385 1022
f 377 379 1007
f 375 374 1031
f 369 371 1024
f 367 366 1023
f 361 363 1045
f 359 358 1041
f 352 355 1040
f 348 353 1048
f 350 349 1047
f 354 351 1042
f 357 356 1033
f 362 360 1032
f 365 364 1025
f 370 368 1009
f 373 372 1008
f 378 376 985
f 383 380 984
f 388 386 1010
f 393 391 987
f 404 402 986
f 416 409 988
f 424 418 881
f 436 431 880
f 444 437 867
f 455 452 866
f 468 463 852
f 482 477 851
f 500 495 847
f 520 515 846
f 542 529 868
f 564 548 854
f 614 572 853
f 665 652 883
f 744 701 882
f 780 756 870
f 802 787 869
f 813 819 795
f 795 790 813
f 814 813 784
f 784 777 814
f 820 814 769
f 769 752 820
f 827 820 753
f 753 739 827
f 832 827 729
f 729 713 832
f 825 832 698
f 698 675 825
f 826 825 662
f 662 649 826
f 830 826 632
f 632 612 830
f 831 830 589
f 589 578 831
f 841 831 568
f 568 563 841
f 842 841 557
f 557 550 842
f 857 842 545
f 545 538 857
f 858 857 534
f 534 531 858
f 876 858 527
f 527 522 876
f 874 876 517
f 517 511 874
f 875 874 508
f 508 501 875
f 889 875 497
f 497 483 889
f 928 889 488
f 488 484 928
f 904 928 478
f 478 476 904
f 905 904 473
f 473 469 905
f 902 905 464
f 464 461 902
f 903 902 459
f 459 458 903
f 953 903 783
f 783 776 953
f 838 953 768
f 768 761 838
f 888 838 750
f 750 738 888
f 887 888 728
f 728 727 887
f 839 887 760
f 760 749 839
f 840 839 726
f 726 711 840
f 1021 840 696
f 696 695 1021
f 1006 1021 712
f 712 692 1006
f 975 1006 708
f 708 694 975
f 944 975 693
f 693 710 944
f 1020 944 709
f 709 725 1020
f 1004 1020 724
f 724 737 1004
f 1005 1004 631
f 631 645 1005
f 973 1005 644
f 644 647 973
f 974 973 646
f 646 661 974
f 1003 974 660
f 660 671 1003
f 971 1003 670
f 670 673 971
f 942 971 672
f 672 586 942
f 943 942 604
f 604 603 943
f 972 943 625
f 625 606 972
f 969 972 605
f 605 626 969
f 970 969 608
f 608 607 970
f 1001 970 627
f 627 629 1001
f 1002 1001 610
f 610 609 1002
f 1019 1002 628
f 628 642 1019
f 967 1019 588
f 588 577 967
f 968 967 576
f 576 587 968
f 999 968 611
f 611 630 999
f 1000 999 643
f 643 659 1000
f 965 1000 623
f 623 641 965
f 966 965 640
f 640 624 966
f 998 966 567
f 567 575 998
f 913 998 648
f 648 674 913
f 914 913 697
f 697 740 914
f 897 914 503
f 503 502 897
f 897 810 804
f 897 811 810
f 863 800 796
f 863 804 800
f 864 791 785
f 864 796 791
f 861 778 770
f 861 785 778
f 862 762 754
f 862 770 762
f 895 741 714
f 895 754 741
f 896 699 676
f 896 714 699
f 941 663 650
f 941 676 663
f 911 613 590
f 911 650 613
f 912 579 569
f 912 590 579
f 909 558 551
f 909 569 558
f 910 546 539
f 910 551 546
f 940 535 528
f 940 539 535
f 908 523 518
f 908 528 523
f 893 512 504
f 893 518 512
f 894 498 489
f 894 504 498
f 939 485 479
f 939 489 485
f 1017 474 470
f 1017 479 474
f 1018 465 462
f 1018 470 465
f 1016 456 448
f 1016 462 456
f 996 447 445
f 996 448 447
f 997 442 438
f 997 445 442
f 1046 435 432
f 1046 438 435
f 1036 428 425
f 1036 432 428
f 1037 422 417
f 1037 425 422
f 1044 414 410
f 1044 417 414
f 1028 408 405
f 1028 410 408
f 1029 399 398
f 1029 405 399
f 995 396 395
f 395 1014 995
f 994 398 396
f 1014 401 400
f 1014 395 401
f 1015 403 412
f 1015 400 403
f 1012 411 415
f 1012 412 411
f 1013 420 419
f 1013 415 420
f 1027 423 430
f 1027 419 423
f 1011 429 433
f 1011 430 429
f 1026 440 439
f 1026 433 440
f 1034 443 451
f 1034 439 443
f 1035 450 454
f 1035 451 450
f 1043 467 466
f 1043 454 467
f 990 471 481
f 990 466 471
f 991 480 486
f 991 481 480
f 890 494 493
f 890 486 494
f 891 499 514
f 891 493 499
f 906 513 519
f 906 514 513
f 877 524 541
f 877 519 524
f 878 540 547
f 878 541 540
f 836 552 571
f 836 547 552
f 837 570 580
f 837 571 570
f 834 591 634
f 834 580 591
f 835 633 651
f 835 634 633
f 828 664 677
f 828 651 664
f 829 700 743
f 829 677 700
f 833 742 755
f 833 743 742
f 824 763 771
f 824 755 763
f 821 779 786
f 821 771 779
f 822 792 797
f 822 786 792
f 817 801 806
f 817 797 801
f 819 818 805
f 818 806 805
f 805 795 819
f 806 818 817
f 797 817 822
f 786 822 821
f 771 821 824
f 755 824 833
f 743 833 829
f 677 829 828
f 651 828 835
f 634 835 834
f 580 834 837
f 571 837 836
f 547 836 878
f 541 878 877
f 519 877 906
f 514 906 891
f 493 891 890
f 486 890 991
f 481 991 990
f 466 990 1043
f 454 1043 1035
f 451 1035 1034
f 439 1034 1026
f 433 1026 1011
f 430 1011 1027
f 419 1027 1013
f 415 1013 1012
f 412 1012 1015
f 400 1015 1014
f 995 994 396
f 398 994 1029
f 405 1029 1028
f 410 1028 1044
f 417 1044 1037
f 425 1037 1036
f 432 1036 1046
f 438 1046 997
f 445 997 996
f 448 996 1016
f 462 1016 1018
f 470 1018 1017
f 479 1017 939
f 489 939 894
f 504 894 893
f 518 893 908
f 528 908 940
f 539 940 910
f 551 910 909
f 569 909 912
f 590 912 911
f 650 911 941
f 676 941 896
f 714 896 895
f 754 895 862
f 770 862 861
f 785 861 864
f 796 864 863
f 804 863 897
f 502 811 897
f 740 503 914
f 674 697 913
f 575 648 998
f 624 567 966
f 641 640 965
f 659 623 1000
f 630 643 999
f 587 611 968
f 577 576 967
f 642 588 1019
f 609 628 1002
f 629 610 1001
f 607 627 970
f 626 608 969
f 606 605 972
f 603 625 943
f 586 604 942
f 673 672 971
f 671 670 1003
f 661 660 974
f 647 646 973
f 645 644 1005
f 737 631 1004
f 725 724 1020
f 710 709 944
f 694 693 975
f 692 708 1006
f 695 712 1021
f 711 696 840
f 749 726 839
f 727 760 887
f 738 728 888
f 761 750 838
f 776 768 953
f 458 783 903
f 461 459 902
f 469 464 905
f 476 473 904
f 484 478 928
f 483 488 889
f 501 497 875
f 511 508 874
f 522 517 876
f 531 527 858
f 538 534 857
f 550 545 842
f 563 557 841
f 578 568 831
f 612 589 830
f 649 632 826
f 675 662 825
f 713 698 832
f 739 729 827
f 752 753 820
f 777 769 814
f 790 784 813
