# 
# Wavefront OBJ file
# Created with Kaydara FBX
# 
mtllib nosac_matica.mtl

g nosac_matica
v -30.544220 -8.389470 -12.000000
v -30.544220 -8.389470 -9.401622
v -30.472134 -8.387500 -9.400886
v -30.400130 -8.383562 -12.000000
v -30.256577 -8.369794 -12.000000
v -30.400130 -8.383562 -9.399414
v -30.328259 -8.377659 -9.397209
v -30.113991 -8.348208 -12.000000
v -30.256577 -8.369794 -9.394271
v -30.185136 -8.359975 -9.390602
v -29.972796 -8.318867 -12.000000
v -30.113991 -8.348208 -9.386205
v -30.043193 -8.334502 -9.381085
v -29.833414 -8.281860 -12.000000
v -29.972796 -8.318867 -9.375243
v -29.902852 -8.301316 -9.368685
v -29.696261 -8.237296 -12.000000
v -29.833414 -8.281860 -9.361416
v -29.764533 -8.260515 -9.353441
v -29.561746 -8.185309 -12.000000
v -29.696261 -8.237296 -9.344766
v -29.628648 -8.212221 -9.335398
v -29.430271 -8.126054 -12.000000
v -29.561746 -8.185309 -9.325343
v -29.495604 -8.156580 -9.314609
v -29.302228 -8.059707 -12.000000
v -29.430271 -8.126054 -9.303204
v -29.365796 -8.093755 -9.291136
v -29.177999 -7.986468 -12.000000
v -29.302228 -8.059707 -9.278415
v -29.239613 -8.023936 -9.265050
v -29.057955 -7.906553 -12.000000
v -29.177999 -7.986468 -9.251051
v -29.117431 -7.947330 -9.236428
v -28.942455 -7.820202 -12.000000
v -29.057955 -7.906553 -9.221193
v -28.999615 -7.864166 -9.205357
v -28.831842 -7.727673 -12.000000
v -28.942455 -7.820202 -9.188931
v -28.886516 -7.774693 -9.171927
v -28.726447 -7.629241 -12.000000
v -28.831842 -7.727673 -9.154359
v -28.778472 -7.679177 -9.136240
v -28.626585 -7.525200 -12.000000
v -28.726447 -7.629241 -9.117583
v -28.675805 -7.577903 -9.098402
v -28.532553 -7.415862 -12.000000
v -28.626585 -7.525200 -9.078711
v -28.578822 -7.471173 -9.058526
v -28.444633 -7.301551 -12.000000
v -28.532553 -7.415862 -9.037860
v -28.487812 -7.359307 -9.016730
v -28.363086 -7.182610 -12.000000
v -28.444633 -7.301551 -8.995151
v -28.403047 -7.242638 -8.973140
v -28.288156 -7.059393 -12.000000
v -28.363086 -7.182610 -8.950712
v -28.324780 -7.121514 -8.927885
v -28.220067 -6.932268 -12.000000
v -28.288156 -7.059393 -8.904675
v -28.253243 -6.996296 -8.881101
v -28.159022 -6.801615 -12.000000
v -28.220067 -6.932268 -8.857179
v -28.188652 -6.867359 -8.832927
v -28.105202 -6.667823 -12.000000
v -28.159022 -6.801615 -8.808364
v -28.131198 -6.735087 -8.783507
v -28.058769 -6.531291 -12.000000
v -28.105202 -6.667823 -8.758376
v -28.081053 -6.599874 -8.732989
v -28.019861 -6.392428 -12.000000
v -28.058769 -6.531291 -8.707365
v -28.038367 -6.462125 -8.681523
v -27.988595 -6.251647 -12.000000
v -28.019861 -6.392428 -8.655482
v -28.003267 -6.322251 -8.629262
v -27.965063 -6.109369 -12.000000
v -27.988595 -6.251647 -8.602883
v -27.975857 -6.180668 -8.576364
v -27.949336 -5.966017 -12.000000
v -27.965063 -6.109369 -8.549725
v -27.956221 -6.037800 -8.522985
v -27.941461 -5.822021 -12.000000
v -27.949336 -5.966017 -8.496165
v -27.944415 -5.894073 -8.469286
v -27.941461 -5.677810 -12.000000
v -27.941461 -5.822021 -8.442365
v -27.940476 -5.749916 -8.415425
v -27.949336 -5.533814 -12.000000
v -27.941461 -5.677810 -8.388485
v -27.944415 -5.605758 -8.361565
v -27.965063 -5.390463 -12.000000
v -27.949336 -5.533814 -8.334685
v -27.956221 -5.462031 -8.307865
v -27.988595 -5.248185 -12.000000
v -27.965063 -5.390463 -8.281125
v -27.975857 -5.319163 -8.254486
v -28.019861 -5.107404 -12.000000
v -27.988595 -5.248185 -8.227967
v -28.003267 -5.177581 -8.201588
v -28.058769 -4.968540 -12.000000
v -28.019861 -5.107404 -8.175368
v -28.038367 -5.037706 -8.149328
v -28.105202 -4.832009 -12.000000
v -28.058769 -4.968540 -8.123486
v -28.081053 -4.899957 -8.097862
v -28.159022 -4.698217 -12.000000
v -28.105202 -4.832009 -8.072474
v -28.131198 -4.764745 -8.047343
v -28.220067 -4.567563 -12.000000
v -28.159022 -4.698217 -8.022487
v -28.188652 -4.632473 -7.997923
v -28.288156 -4.440438 -12.000000
v -28.220067 -4.567563 -7.973672
v -28.253243 -4.503536 -7.949749
v -28.363086 -4.317221 -12.000000
v -28.288156 -4.440438 -7.926175
v -28.324780 -4.378318 -7.902965
v -28.444633 -4.198280 -12.000000
v -28.363086 -4.317221 -7.880138
v -28.403047 -4.257194 -7.857711
v -28.532553 -4.083970 -12.000000
v -28.444633 -4.198280 -7.835699
v -28.487812 -4.140525 -7.814120
v -28.626585 -3.974631 -12.000000
v -28.532553 -4.083970 -7.792990
v -28.578822 -4.028658 -7.772325
v -28.726447 -3.870591 -12.000000
v -28.626585 -3.974631 -7.752139
v -28.675805 -3.921929 -7.732448
v -28.831842 -3.772159 -12.000000
v -28.726447 -3.870591 -7.713267
v -28.778472 -3.820655 -7.694610
v -28.942455 -3.679629 -12.000000
v -28.831842 -3.772159 -7.676491
v -28.886516 -3.725139 -7.658923
v -29.057955 -3.593279 -12.000000
v -28.942455 -3.679629 -7.641920
v -28.999615 -3.635665 -7.625494
v -29.177999 -3.513364 -12.000000
v -29.057955 -3.593279 -7.609657
v -29.117431 -3.552501 -7.594422
v -29.302228 -3.440124 -12.000000
v -29.177999 -3.513364 -7.579799
v -29.239613 -3.475896 -7.565800
v -29.430271 -3.373778 -12.000000
v -29.302228 -3.440124 -7.552435
v -29.365796 -3.406076 -7.539714
v -29.561746 -3.314522 -12.000000
v -29.430271 -3.373778 -7.527647
v -29.495604 -3.343252 -7.516241
v -29.696261 -3.262535 -12.000000
v -29.561746 -3.314522 -7.505507
v -29.628648 -3.287610 -7.495452
v -29.833414 -3.217972 -12.000000
v -29.696261 -3.262535 -7.486084
v -29.764533 -3.239317 -7.477409
v -29.972796 -3.180964 -12.000000
v -29.833414 -3.217972 -7.469434
v -29.902852 -3.198516 -7.462165
v -30.113991 -3.151624 -12.000000
v -29.972796 -3.180964 -7.455607
v -30.043193 -3.165330 -7.449766
v -30.256577 -3.130037 -12.000000
v -30.113991 -3.151624 -7.444645
v -30.185136 -3.139857 -7.440248
v -30.400130 -3.116270 -12.000000
v -30.256577 -3.130037 -7.436580
v -30.328259 -3.122173 -7.433641
v -30.544220 -3.110362 -12.000000
v -30.400130 -3.116270 -7.431436
v -30.472134 -3.112332 -7.429964
v -30.580276 -3.110116 -12.000000
v -30.616332 -3.110362 -7.429229
v -30.688418 -3.112332 -7.429964
v -30.544220 -3.110362 -7.429229
v -30.688418 -3.112332 -12.000000
v -30.760422 -3.116270 -7.431436
v -30.832293 -3.122173 -7.433641
v -30.832293 -3.122173 -12.000000
v -30.903975 -3.130037 -7.436580
v -30.975416 -3.139857 -7.440248
v -30.975416 -3.139857 -12.000000
v -31.046561 -3.151624 -7.444645
v -31.117359 -3.165330 -7.449766
v -31.117359 -3.165330 -12.000000
v -31.187756 -3.180964 -7.455607
v -31.257700 -3.198516 -7.462165
v -31.257700 -3.198516 -12.000000
v -31.327138 -3.217972 -7.469434
v -31.396019 -3.239317 -7.477409
v -31.396019 -3.239317 -12.000000
v -31.464291 -3.262535 -7.486084
v -31.531904 -3.287610 -7.495452
v -31.531904 -3.287610 -12.000000
v -31.598806 -3.314522 -7.505507
v -31.664948 -3.343252 -7.516241
v -31.664948 -3.343252 -12.000000
v -31.730281 -3.373778 -7.527647
v -31.794756 -3.406076 -7.539714
v -31.794756 -3.406076 -12.000000
v -31.858324 -3.440124 -7.552435
v -31.920939 -3.475896 -7.565800
v -31.920939 -3.475896 -12.000000
v -31.982553 -3.513364 -7.579799
v -32.043121 -3.552501 -7.594422
v -32.043121 -3.552501 -12.000000
v -32.102597 -3.593279 -7.609657
v -32.160937 -3.635665 -7.625494
v -32.160937 -3.635665 -12.000000
v -32.218097 -3.679629 -7.641920
v -32.274036 -3.725139 -7.658923
v -32.274036 -3.725139 -12.000000
v -32.328710 -3.772159 -7.676491
v -32.382080 -3.820655 -7.694610
v -32.382080 -3.820655 -12.000000
v -32.434105 -3.870591 -7.713267
v -32.484747 -3.921929 -7.732448
v -32.484747 -3.921929 -12.000000
v -32.533967 -3.974631 -7.752139
v -32.581730 -4.028658 -7.772325
v -32.581730 -4.028658 -12.000000
v -32.627999 -4.083970 -7.792990
v -32.672740 -4.140525 -7.814120
v -32.672740 -4.140525 -12.000000
v -32.715919 -4.198280 -7.835699
v -32.757505 -4.257194 -7.857711
v -32.757505 -4.257194 -12.000000
v -32.797466 -4.317221 -7.880138
v -32.835772 -4.378318 -7.902965
v -32.835772 -4.378318 -12.000000
v -32.872396 -4.440438 -7.926175
v -32.907309 -4.503536 -7.949749
v -32.907309 -4.503536 -12.000000
v -32.940485 -4.567563 -7.973672
v -32.971900 -4.632473 -7.997923
v -32.971900 -4.632473 -12.000000
v -33.001530 -4.698217 -8.022487
v -33.029354 -4.764745 -8.047343
v -33.029354 -4.764745 -12.000000
v -33.055350 -4.832009 -8.072474
v -33.079499 -4.899957 -8.097862
v -33.079499 -4.899957 -12.000000
v -33.101783 -4.968540 -8.123486
v -33.122185 -5.037706 -8.149328
v -33.122185 -5.037706 -12.000000
v -33.140691 -5.107404 -8.175368
v -33.157285 -5.177581 -8.201588
v -33.157285 -5.177581 -12.000000
v -33.171957 -5.248185 -8.227967
v -33.184695 -5.319163 -8.254486
v -33.184695 -5.319163 -12.000000
v -33.195489 -5.390463 -8.281125
v -33.204331 -5.462031 -8.307865
v -33.204331 -5.462031 -12.000000
v -33.211216 -5.533814 -8.334685
v -33.216137 -5.605758 -8.361565
v -33.216137 -5.605758 -12.000000
v -33.219091 -5.677810 -8.388485
v -33.220076 -5.749916 -8.415425
v -33.220076 -5.749916 -12.000000
v -33.219091 -5.822021 -8.442365
v -33.216137 -5.894073 -8.469286
v -33.216137 -5.894073 -12.000000
v -33.211216 -5.966017 -8.496165
v -33.204331 -6.037800 -8.522985
v -33.204331 -6.037800 -12.000000
v -33.195489 -6.109369 -8.549725
v -33.184695 -6.180668 -8.576364
v -33.184695 -6.180668 -12.000000
v -33.171957 -6.251647 -8.602883
v -33.157285 -6.322251 -8.629262
v -33.157285 -6.322251 -12.000000
v -33.140691 -6.392428 -8.655482
v -33.122185 -6.462125 -8.681523
v -33.122185 -6.462125 -12.000000
v -33.101783 -6.531291 -8.707365
v -33.079499 -6.599874 -8.732989
v -33.079499 -6.599874 -12.000000
v -33.055350 -6.667823 -8.758376
v -33.029354 -6.735087 -8.783507
v -33.029354 -6.735087 -12.000000
v -33.001530 -6.801615 -8.808364
v -32.971900 -6.867359 -8.832927
v -32.971900 -6.867359 -12.000000
v -32.940485 -6.932268 -8.857179
v -32.907309 -6.996296 -8.881101
v -32.907309 -6.996296 -12.000000
v -32.872396 -7.059393 -8.904675
v -32.835772 -7.121514 -8.927885
v -32.835772 -7.121514 -12.000000
v -32.797466 -7.182610 -8.950712
v -32.757505 -7.242638 -8.973140
v -32.757505 -7.242638 -12.000000
v -32.715919 -7.301551 -8.995151
v -32.672740 -7.359307 -9.016730
v -32.672740 -7.359307 -12.000000
v -32.627999 -7.415862 -9.037860
v -32.581730 -7.471173 -9.058526
v -32.581730 -7.471173 -12.000000
v -32.533967 -7.525200 -9.078711
v -32.484747 -7.577903 -9.098402
v -32.484747 -7.577903 -12.000000
v -32.434105 -7.629241 -9.117583
v -32.382080 -7.679177 -9.136240
v -32.382080 -7.679177 -12.000000
v -32.328710 -7.727673 -9.154359
v -32.274036 -7.774693 -9.171927
v -32.274036 -7.774693 -12.000000
v -32.218097 -7.820202 -9.188931
v -32.160937 -7.864166 -9.205357
v -32.160937 -7.864166 -12.000000
v -32.102597 -7.906553 -9.221193
v -32.043121 -7.947330 -9.236428
v -32.043121 -7.947330 -12.000000
v -31.982553 -7.986468 -9.251051
v -31.920939 -8.023936 -9.265050
v -31.920939 -8.023936 -12.000000
v -31.858324 -8.059707 -9.278415
v -31.794756 -8.093755 -9.291136
v -31.794756 -8.093755 -12.000000
v -31.730281 -8.126054 -9.303204
v -31.664948 -8.156580 -9.314609
v -31.664948 -8.156580 -12.000000
v -31.598806 -8.185309 -9.325343
v -31.531904 -8.212221 -9.335398
v -31.531904 -8.212221 -12.000000
v -31.464291 -8.237296 -9.344766
v -31.396019 -8.260515 -9.353441
v -31.396019 -8.260515 -12.000000
v -31.327138 -8.281860 -9.361416
v -31.257700 -8.301316 -9.368685
v -31.257700 -8.301316 -12.000000
v -31.187756 -8.318867 -9.375243
v -31.117359 -8.334502 -9.381085
v -31.117359 -8.334502 -12.000000
v -31.046561 -8.348208 -9.386205
v -30.975416 -8.359975 -9.390602
v -30.975416 -8.359975 -12.000000
v -30.903975 -8.369794 -9.394271
v -30.832293 -8.377659 -9.397209
v -30.832293 -8.377659 -12.000000
v -30.760422 -8.383562 -9.399414
v -30.688418 -8.387500 -9.400886
v -30.688418 -8.387500 -12.000000
v -30.580276 -8.389716 -9.401714
v 27.237940 -15.050581 -11.890362
v 22.153104 -5.720246 -8.404340
v 22.154095 -5.792802 -8.431448
v 22.153104 -5.865358 -8.458557
v 22.150131 -5.937860 -8.485645
v 22.145179 -5.575350 -8.350203
v 22.150131 -5.647744 -8.377251
v 22.145179 -6.010254 -8.512693
v 22.129354 -5.431103 -8.296310
v 22.138252 -5.503119 -8.323216
v 22.138252 -6.082485 -8.539680
v 22.118493 -5.359358 -8.269504
v 22.129354 -6.154500 -8.566587
v 22.118493 -6.226246 -8.593393
v 22.105675 -6.297668 -8.620078
v 22.090912 -5.216891 -8.216275
v 22.105675 -5.287936 -8.242819
v 22.090912 -6.368713 -8.646622
v 22.074213 -5.146275 -8.189892
v 22.074213 -6.439328 -8.673005
v 27.237940 3.768454 -4.859148
v 22.055592 -5.076143 -8.163688
v 22.055592 -6.509461 -8.699208
v 22.035063 -5.006544 -8.137685
v 22.035063 -6.579059 -8.725212
v 22.012639 -4.937533 -8.111901
v -38.339852 3.768454 -4.859148
v 21.988340 -4.869160 -8.086355
v 22.012639 -6.648071 -8.750996
v 21.988340 -6.716444 -8.776542
v 21.962181 -4.801476 -8.061067
v 21.934184 -4.734532 -8.036055
v 21.962181 -6.784128 -8.801830
v 21.934184 -6.851072 -8.826842
v 21.904368 -4.668377 -8.011338
v 21.872757 -4.603062 -7.986935
v 21.904368 -6.917227 -8.851559
v 21.872757 -6.982542 -8.875962
v 21.839373 -4.538634 -7.962863
v -38.339852 -15.050581 -11.890362
v 21.804242 -4.475143 -7.939141
v 21.839373 -7.046969 -8.900033
v 21.804242 -7.110461 -8.923755
v 21.767390 -4.412635 -7.915787
v 21.728844 -4.351156 -7.892817
v 21.767390 -7.172969 -8.947110
v -8.183274 -5.713623 -8.401865
v -8.184274 -5.641064 -8.374755
v 21.728844 -7.234448 -8.970080
v -8.180275 -5.786127 -8.428954
v -8.183274 -5.568504 -8.347646
v 21.688634 -4.290754 -7.870249
v 21.646788 -4.231472 -7.848100
v -8.180275 -5.496000 -8.320556
v -8.168291 -5.930750 -8.482989
v -8.175280 -5.858521 -8.456003
v 21.688634 -7.294850 -8.992647
v -8.175280 -5.423606 -8.293508
v -8.159315 -6.002759 -8.509893
v 21.603339 -4.173355 -7.826387
v -8.168291 -5.351377 -8.266522
v 21.646788 -7.354132 -9.014796
v 21.603339 -7.412249 -9.036510
v -8.159315 -5.279368 -8.239618
v -8.135430 -6.145899 -8.563373
v -8.148359 -6.074493 -8.536695
v 21.558318 -4.116447 -7.805125
v -8.148359 -5.207634 -8.212816
v -8.120538 -6.216920 -8.589908
v 21.511760 -4.060790 -7.784330
v -8.135430 -5.136229 -8.186138
v 21.558318 -7.469157 -9.057772
v 21.511760 -7.524814 -9.078567
v -8.120538 -5.065207 -8.159602
v -8.084913 -6.357598 -8.642469
v -8.103695 -6.287505 -8.616280
v 21.463699 -4.006425 -7.764018
v -8.103695 -4.994622 -8.133230
v -8.064208 -6.427148 -8.668454
v 21.414171 -3.953394 -7.744204
v -8.084913 -4.924529 -8.107042
v 21.463699 -7.579178 -9.098879
v 21.363213 -3.901735 -7.724903
v -8.064208 -4.854979 -8.081057
v -8.017088 -6.564404 -8.719736
v -8.041593 -6.496100 -8.694216
v 21.414171 -7.632210 -9.118692
v -8.041593 -4.786027 -8.055294
v -7.990709 -6.632006 -8.744994
v 21.363213 -7.683869 -9.137993
v -8.017088 -4.717723 -8.029775
v 21.310863 -3.851487 -7.706130
v 21.310863 -7.734117 -9.156767
v -7.990709 -4.650121 -8.004517
v -7.932416 -6.764902 -8.794647
v -7.962478 -6.698855 -8.769970
v 21.257160 -3.802688 -7.687897
v -7.962478 -4.583272 -7.979541
v -7.900545 -6.830094 -8.819004
v 21.202144 -3.755374 -7.670220
v -7.932416 -4.517226 -7.954864
v 21.257160 -7.782916 -9.174999
v 21.145856 -3.709581 -7.653110
v -7.900545 -4.452033 -7.930507
v -7.831476 -6.957722 -8.866689
v -7.866890 -6.894384 -8.843024
v 21.202144 -7.830230 -9.192677
v -7.866890 -4.387743 -7.906487
v -7.794330 -7.020061 -8.889980
v 21.145856 -7.876023 -9.209787
v -7.831476 -4.324405 -7.882822
v -7.755481 -7.081352 -8.912879
v 21.088338 -3.665342 -7.636581
v -7.794330 -4.262066 -7.859531
v 21.029634 -3.622690 -7.620646
v 21.088338 -7.920262 -9.226315
v -7.755481 -4.200775 -7.836631
v -7.672792 -7.200607 -8.957436
v -7.714958 -7.141549 -8.935371
v 20.969786 -3.581658 -7.605315
v -7.714958 -4.140578 -7.814140
v -7.629014 -7.258481 -8.979059
v 21.029634 -7.962914 -9.242251
v -7.672792 -4.081520 -7.792075
v -7.583658 -7.315126 -9.000223
v 20.969786 -8.003946 -9.257581
v -7.629014 -4.023646 -7.770452
v 20.908840 -3.542276 -7.590601
v 20.908840 -8.043328 -9.272295
v -7.583658 -3.967001 -7.749288
v -7.488351 -7.424561 -9.041110
v -7.536758 -7.370500 -9.020912
v 20.846841 -3.504574 -7.576515
v -7.536758 -3.911627 -7.728599
v -7.438472 -7.477268 -9.060803
v 20.783835 -3.468579 -7.563066
v -7.488351 -3.857566 -7.708401
v -7.387160 -7.528580 -9.079974
v 20.846841 -8.081030 -9.286382
v -7.438472 -3.804860 -7.688708
v -7.334454 -7.578458 -9.098610
v 20.783835 -8.117025 -9.299830
v -5.405892 -3.011745 -7.392383
v 17.228213 -4.412635 -7.915787
v 17.266759 -4.351156 -7.892817
v -7.387160 -3.753547 -7.669537
v -7.280393 -7.626866 -9.116696
v 20.719869 -3.434318 -7.550266
v 17.306970 -4.290754 -7.870249
v -7.334454 -3.703669 -7.650901
v 20.654992 -3.401818 -7.538123
v 17.348815 -4.231472 -7.848100
v 20.719869 -8.151286 -9.312631
v 17.392264 -4.173355 -7.826387
v -7.280393 -3.655261 -7.632815
v 20.654992 -8.183786 -9.324774
v 17.437285 -4.116447 -7.805125
v -7.225019 -3.608362 -7.615292
v -7.168373 -7.719121 -9.151164
v -7.225019 -7.673765 -9.134218
v 20.589251 -3.371101 -7.526647
v 17.483843 -4.060790 -7.784330
v -7.168373 -3.563006 -7.598346
v -7.110500 -7.762899 -9.167521
v 20.589251 -8.214502 -9.336250
v 17.531904 -4.006425 -7.764018
v -7.110500 -3.519228 -7.581990
v -7.051442 -7.805066 -9.183275
v -5.550956 -8.274381 -9.358622
v -5.623515 -8.273381 -9.358249
v 20.522695 -3.342192 -7.515846
v 17.684740 -3.851487 -7.706130
v -5.478397 -3.008746 -7.391262
v 17.581432 -3.953394 -7.744204
v -7.051442 -3.477061 -7.566236
v -6.991244 -7.845589 -9.198416
v -3.565154 -7.370500 -9.020912
v 19.388984 -8.446865 -9.423066
v 20.455375 -3.315112 -7.505728
v 17.632390 -3.901735 -7.724903
v -6.991244 -3.436538 -7.551095
v -6.929953 -7.884438 -9.212931
v -3.518254 -7.315126 -9.000223
v 20.522695 -8.243411 -9.347051
v -6.929953 -3.397689 -7.536580
v -6.867615 -7.921584 -9.226809
v -3.613561 -7.424561 -9.041110
v 20.387340 -3.289880 -7.496301
v 17.738443 -3.802688 -7.687897
v -6.867615 -3.360544 -7.522702
v -6.804277 -7.956997 -9.240040
v -3.663440 -7.477268 -9.060803
v 20.455375 -8.270492 -9.357169
v 17.793459 -3.755374 -7.670220
v -6.804277 -3.325130 -7.509471
v -6.739987 -7.990652 -9.252615
v -3.714752 -7.528580 -9.079974
v 20.387340 -8.295723 -9.366596
v 17.849747 -3.709581 -7.653110
v -6.739987 -3.291475 -7.496896
v -6.674794 -8.022523 -9.264522
v -3.767458 -7.578458 -9.098610
v 20.318641 -3.266517 -7.487571
v 17.907265 -3.665342 -7.636581
v -6.674794 -3.259604 -7.484989
v -6.608748 -8.052586 -9.275754
v -6.126813 -8.210646 -9.334809
v -3.821519 -7.626866 -9.116696
v 20.249330 -3.245038 -7.479547
v 17.965970 -3.622690 -7.620646
v -6.608748 -3.229541 -7.473757
v -6.541898 -8.080817 -9.286302
v -6.405993 -8.131701 -9.305313
v -6.474296 -8.107195 -9.296158
v -3.876893 -7.673765 -9.134218
v 20.318641 -8.319087 -9.375325
v 18.025817 -3.581658 -7.605315
v -6.541898 -3.201310 -7.463209
v -6.337040 -8.154315 -9.313763
v -3.933539 -7.719121 -9.151164
v 20.249330 -8.340565 -9.383350
v 18.086763 -3.542276 -7.590601
v -6.474296 -3.174932 -7.453353
v -6.267491 -8.175021 -9.321499
v -3.991412 -7.762899 -9.167521
v 20.179458 -3.225461 -7.472232
v 18.148763 -3.504574 -7.576515
v -6.197397 -8.193802 -9.328516
v -4.050470 -7.805066 -9.183275
v 20.109077 -3.207800 -7.465633
v 18.211768 -3.468579 -7.563066
v -6.405993 -3.150426 -7.444197
v -4.110668 -7.845589 -9.198416
v -3.346431 -4.200775 -7.836631
v 19.028603 -8.407328 -9.408294
v 18.957363 -8.393536 -9.403141
v -3.518254 -3.967001 -7.749288
v -3.472898 -4.023646 -7.770452
v -3.016999 -4.924529 -8.107042
v 19.100193 -8.419169 -9.412718
v -3.084824 -4.717723 -8.029775
v -3.060319 -4.786027 -8.055294
v -4.234297 -3.360544 -7.522702
v 18.886526 -8.377804 -9.397263
v 20.179458 -8.360143 -9.390664
v 18.275734 -3.434318 -7.550266
v -6.337040 -3.127812 -7.435748
v -5.984386 -8.238466 -9.345203
v -6.055791 -8.225537 -9.340373
v -4.171959 -7.884438 -9.212931
v -3.429120 -4.081520 -7.792075
v -3.386954 -4.140578 -7.814140
v -3.565154 -3.911627 -7.728599
v -3.663440 -3.804860 -7.688708
v -3.613561 -3.857566 -7.708401
v -3.821519 -3.655261 -7.632815
v -3.767458 -3.703669 -7.650901
v -4.050470 -3.477061 -7.566236
v -3.991412 -3.519228 -7.581990
v -3.037704 -4.854979 -8.081057
v -3.139434 -4.583272 -7.979541
v -3.111203 -4.650121 -8.004517
v 19.172080 -8.429049 -9.416409
v -2.918638 -5.568504 -8.347646
v -2.917638 -5.641064 -8.374755
v 19.244210 -8.436963 -9.419366
v -2.966482 -6.145899 -8.563373
v -2.981374 -6.216920 -8.589908
v -4.361925 -3.291475 -7.496896
v -4.297635 -3.325130 -7.509471
v -4.975099 -3.071482 -7.414702
v 18.275734 -8.151286 -9.312631
v 18.211768 -8.117025 -9.299830
v 20.109077 -8.377804 -9.397263
v 18.340611 -3.401818 -7.538123
v -6.267491 -3.107106 -7.428012
v -4.234297 -7.921584 -9.226809
v -3.714752 -3.753547 -7.669537
v -3.876893 -3.608362 -7.615292
v -4.110668 -3.436538 -7.551095
v -3.933539 -3.563006 -7.598346
v -3.201367 -4.452033 -7.930507
v -3.169496 -4.517226 -7.954864
v -2.933621 -5.351377 -8.266522
v -2.926632 -5.423606 -8.293508
v -2.918638 -5.713623 -8.401865
v -2.998217 -6.287505 -8.616280
v 19.316530 -8.442903 -9.421586
v -3.169496 -6.764902 -8.794647
v -3.201367 -6.830094 -8.819004
v -4.427118 -3.259604 -7.484989
v 18.340611 -8.183786 -9.324774
v 18.148763 -8.081030 -9.286382
v 20.038240 -3.192067 -7.459755
v 18.406352 -3.371101 -7.526647
v -6.197397 -3.088325 -7.420995
v -4.297635 -7.956997 -9.240040
v -4.171959 -3.397689 -7.536580
v -3.270436 -4.324405 -7.882822
v -3.235022 -4.387743 -7.906487
v -2.921637 -5.496000 -8.320556
v -2.953553 -5.207634 -8.212816
v -2.942597 -5.279368 -8.239618
v -2.921637 -5.786127 -8.428954
v -3.016999 -6.357598 -8.642469
v -3.235022 -6.894384 -8.843024
v -4.493164 -3.229541 -7.473757
v 18.406352 -8.214502 -9.336250
v 20.038240 -8.393536 -9.403141
v 18.472908 -3.342192 -7.515846
v -5.912652 -8.249423 -9.349297
v -4.361925 -7.990652 -9.252615
v -3.307582 -4.262066 -7.859531
v -2.981374 -5.065207 -8.159602
v -2.966482 -5.136229 -8.186138
v -2.926632 -5.858521 -8.456003
v -3.037704 -6.427148 -8.668454
v -3.270436 -6.957722 -8.866689
v -4.560014 -3.201310 -7.463209
v 18.472908 -8.243411 -9.347051
v 19.967000 -3.178276 -7.454603
v 18.608263 -3.289880 -7.496301
v 18.540228 -3.315112 -7.505728
v -6.126813 -3.071482 -7.414702
v -4.427118 -8.022523 -9.264522
v -2.998217 -4.994622 -8.133230
v -2.933621 -5.930750 -8.482989
v -3.060319 -6.496100 -8.694216
v -3.307582 -7.020061 -8.889980
v -4.627616 -3.174932 -7.453353
v 18.540228 -8.270492 -9.357169
v 19.895410 -3.166435 -7.450179
v -5.840643 -8.258399 -9.352651
v -4.493164 -8.052586 -9.275754
v -2.942597 -6.002759 -8.509893
v -3.084824 -6.564404 -8.719736
v -3.346431 -7.081352 -8.912879
v -4.695919 -3.150426 -7.444197
v 17.632390 -7.683869 -9.137993
v -5.046121 -3.056590 -7.409138
v 17.965970 -7.962914 -9.242251
v 17.907265 -7.920262 -9.226315
v 18.608263 -8.295723 -9.366596
v 19.967000 -8.407328 -9.408294
v 18.676962 -3.266517 -7.487571
v -6.055791 -3.056590 -7.409138
v -4.560014 -8.080817 -9.286302
v -2.953553 -6.074493 -8.536695
v -3.111203 -6.632006 -8.744994
v -3.386954 -7.141549 -8.935371
v -4.764872 -3.127812 -7.435748
v 17.738443 -7.782916 -9.174999
v 17.684740 -7.734117 -9.156767
v 18.025817 -8.003946 -9.257581
v 17.849747 -7.876023 -9.209787
v 18.676962 -8.319087 -9.375325
v 17.091235 -6.917227 -8.851559
v -5.117526 -3.043661 -7.404307
v 19.823523 -3.156555 -7.446487
v 18.746273 -3.245038 -7.479547
v -5.768414 -8.265387 -9.355262
v -5.696020 -8.270383 -9.357128
v -4.627616 -8.107195 -9.296158
v -3.139434 -6.698855 -8.769970
v -3.429120 -7.200607 -8.957436
v -4.834421 -3.107106 -7.428012
v 17.793459 -7.830230 -9.192677
v 18.086763 -8.043328 -9.272295
v 18.746273 -8.340565 -9.383350
v 17.156230 -7.046969 -8.900033
v 17.122846 -6.982542 -8.875962
v 17.228213 -7.172969 -8.947110
v 17.191361 -7.110461 -8.923755
v 17.306970 -7.294850 -8.992647
v 17.266759 -7.234448 -8.970080
v -5.261269 -3.023728 -7.396860
v 16.845472 -5.647744 -8.377251
v 16.850424 -5.575350 -8.350203
v 19.895410 -8.419169 -9.412718
v 18.816145 -3.225461 -7.472232
v -5.984386 -3.043661 -7.404307
v -4.695919 -8.131701 -9.305313
v -3.472898 -7.258481 -8.979059
v -4.904515 -3.088325 -7.420995
v 18.816145 -8.360143 -9.390664
v 17.348815 -7.354132 -9.014796
v 17.437285 -7.469157 -9.057772
v 17.392264 -7.412249 -9.036510
v 16.889928 -6.297668 -8.620078
v -5.189260 -3.032704 -7.400214
v 16.940011 -6.509461 -8.699208
v 16.921390 -6.439328 -8.673005
v 16.857351 -5.503119 -8.323216
v -5.333498 -3.016740 -7.394249
v 16.960541 -5.006544 -8.137685
v 16.982964 -4.937533 -8.111901
v 19.823523 -8.429049 -9.416409
v 18.886526 -3.207800 -7.465633
v -5.912652 -3.032704 -7.400214
v -4.764872 -8.154315 -9.313763
v 17.483843 -7.524814 -9.078567
v 17.581432 -7.632210 -9.118692
v 17.531904 -7.579178 -9.098879
v 16.904691 -6.368713 -8.646622
v 16.982964 -6.648071 -8.750996
v 16.960541 -6.579059 -8.725212
v 16.842499 -5.865358 -8.458557
v 16.841508 -5.792802 -8.431448
v 16.866249 -5.431103 -8.296310
v 17.007264 -4.869160 -8.086355
v 19.751393 -3.148641 -7.443530
v 18.957363 -3.192067 -7.459755
v -4.834421 -8.175021 -9.321499
v 17.033422 -6.784128 -8.801830
v 17.007264 -6.716444 -8.776542
v 16.842499 -5.720246 -8.404340
v 16.850424 -6.010254 -8.512693
v 16.845472 -5.937860 -8.485645
v 16.877111 -5.359358 -8.269504
v 17.033422 -4.801476 -8.061067
v 19.751393 -8.436963 -9.419366
v 19.028603 -3.178276 -7.454603
v -4.904515 -8.193802 -9.328516
v 17.061419 -6.851072 -8.826842
v 16.866249 -6.154500 -8.566587
v 16.857351 -6.082485 -8.539680
v 16.889928 -5.287936 -8.242819
v 17.061419 -4.734532 -8.036055
v 19.679073 -3.142701 -7.441311
v 19.100193 -3.166435 -7.450179
v -5.840643 -3.023728 -7.396860
v -4.975099 -8.210646 -9.334809
v 16.877111 -6.226246 -8.593393
v 16.904691 -5.216891 -8.216275
v 17.091235 -4.668377 -8.011338
v 19.606619 -3.138738 -7.439831
v 19.172080 -3.156555 -7.446487
v -5.768414 -3.016740 -7.394249
v -5.046121 -8.225537 -9.340373
v 16.921390 -5.146275 -8.189892
v 17.122846 -4.603062 -7.986935
v 19.606619 -8.446865 -9.423066
v 19.534083 -8.448847 -9.423807
v 19.679073 -8.442903 -9.421586
v 19.244210 -3.148641 -7.443530
v -5.117526 -8.238466 -9.345203
v 16.940011 -5.076143 -8.163688
v 17.156230 -4.538634 -7.962863
v 19.461520 -3.136756 -7.439090
v 19.534083 -3.136756 -7.439090
v 19.316530 -3.142701 -7.441311
v -5.696020 -3.011745 -7.392383
v -5.189260 -8.249423 -9.349297
v 17.191361 -4.475143 -7.939141
v 19.497802 -8.449095 -9.423899
v 19.388984 -3.138738 -7.439831
v -5.261269 -8.258399 -9.352651
v -5.333498 -8.265387 -9.355262
v -5.550956 -3.007746 -7.390889
v -5.623515 -3.008746 -7.391262
v -5.405892 -8.270383 -9.357128
v -5.478397 -8.273381 -9.358249
v -38.339852 3.768454 -17.000000
v 27.237940 3.768454 -17.000000
v 27.237940 -15.050581 -17.000000
v -38.339852 -15.050581 -17.000000
v -5.333498 -8.265387 -12.000000
v -5.478397 -8.273381 -12.000000
v -5.189260 -8.249423 -12.000000
v -5.046121 -8.225537 -12.000000
v -4.904515 -8.193802 -12.000000
v -4.764872 -8.154315 -12.000000
v -4.627616 -8.107195 -12.000000
v -4.493164 -8.052586 -12.000000
v -4.361925 -7.990652 -12.000000
v -4.234297 -7.921584 -12.000000
v -4.110668 -7.845589 -12.000000
v -3.991412 -7.762899 -12.000000
v -3.876893 -7.673765 -12.000000
v -3.767458 -7.578458 -12.000000
v -3.663440 -7.477268 -12.000000
v -3.565154 -7.370500 -12.000000
v -3.472898 -7.258481 -12.000000
v -3.386954 -7.141549 -12.000000
v -3.307582 -7.020061 -12.000000
v -3.235022 -6.894384 -12.000000
v -3.169496 -6.764902 -12.000000
v -3.111203 -6.632006 -12.000000
v -3.060319 -6.496100 -12.000000
v -3.016999 -6.357598 -12.000000
v -2.981374 -6.216920 -12.000000
v -2.953553 -6.074493 -12.000000
v -2.933621 -5.930750 -12.000000
v -2.921637 -5.786127 -12.000000
v -2.917638 -5.641064 -12.000000
v -2.921637 -5.496000 -12.000000
v -2.933621 -5.351377 -12.000000
v -2.953553 -5.207634 -12.000000
v -2.981374 -5.065207 -12.000000
v -3.016999 -4.924529 -12.000000
v -3.060319 -4.786027 -12.000000
v -3.111203 -4.650121 -12.000000
v -3.169496 -4.517226 -12.000000
v -3.235022 -4.387743 -12.000000
v -3.307582 -4.262066 -12.000000
v -3.386954 -4.140578 -12.000000
v -3.472898 -4.023646 -12.000000
v -3.565154 -3.911627 -12.000000
v -3.663440 -3.804860 -12.000000
v -3.767458 -3.703669 -12.000000
v -3.876893 -3.608362 -12.000000
v -3.991412 -3.519228 -12.000000
v -4.110668 -3.436538 -12.000000
v -4.234297 -3.360544 -12.000000
v -4.361925 -3.291475 -12.000000
v -4.493164 -3.229541 -12.000000
v -4.627616 -3.174932 -12.000000
v -4.764872 -3.127812 -12.000000
v -4.904515 -3.088325 -12.000000
v -5.046121 -3.056590 -12.000000
v -5.189260 -3.032704 -12.000000
v -5.333498 -3.016740 -12.000000
v -5.478397 -3.008746 -12.000000
v -5.550956 -3.007746 -12.000000
v -5.623515 -3.008746 -12.000000
v -5.768414 -3.016740 -12.000000
v -5.912652 -3.032704 -12.000000
v -6.055791 -3.056590 -12.000000
v -6.197397 -3.088325 -12.000000
v -6.337040 -3.127812 -12.000000
v -6.474296 -3.174932 -12.000000
v -6.608748 -3.229541 -12.000000
v -6.739987 -3.291475 -12.000000
v -6.867615 -3.360544 -12.000000
v -6.991244 -3.436538 -12.000000
v -7.110500 -3.519228 -12.000000
v -7.225019 -3.608362 -12.000000
v -7.334454 -3.703669 -12.000000
v -7.438472 -3.804860 -12.000000
v -7.536758 -3.911627 -12.000000
v -7.629014 -4.023646 -12.000000
v -7.714958 -4.140578 -12.000000
v -7.794330 -4.262066 -12.000000
v -7.866890 -4.387743 -12.000000
v -7.932416 -4.517226 -12.000000
v -7.990709 -4.650121 -12.000000
v -8.041593 -4.786027 -12.000000
v -8.084913 -4.924529 -12.000000
v -8.120538 -5.065207 -12.000000
v -8.148359 -5.207634 -12.000000
v -8.168291 -5.351377 -12.000000
v -8.180275 -5.496000 -12.000000
v -8.184274 -5.641064 -12.000000
v -8.180275 -5.786127 -12.000000
v -8.168291 -5.930750 -12.000000
v -8.148359 -6.074493 -12.000000
v -8.120538 -6.216920 -12.000000
v -8.084913 -6.357598 -12.000000
v -8.041593 -6.496100 -12.000000
v -7.990709 -6.632006 -12.000000
v -7.932416 -6.764902 -12.000000
v -7.866890 -6.894384 -12.000000
v -7.794330 -7.020061 -12.000000
v -7.714958 -7.141549 -12.000000
v -7.629014 -7.258481 -12.000000
v -7.536758 -7.370500 -12.000000
v -7.438472 -7.477268 -12.000000
v -7.334454 -7.578458 -12.000000
v -7.225019 -7.673765 -12.000000
v -7.110500 -7.762899 -12.000000
v -6.991244 -7.845589 -12.000000
v -6.867615 -7.921584 -12.000000
v -6.739987 -7.990652 -12.000000
v -6.608748 -8.052586 -12.000000
v -6.474296 -8.107195 -12.000000
v -6.337040 -8.154315 -12.000000
v -6.197397 -8.193802 -12.000000
v -6.055791 -8.225537 -12.000000
v -5.912652 -8.249423 -12.000000
v -5.768414 -8.265387 -12.000000
v -5.623515 -8.273381 -12.000000
v 19.534083 -8.448847 -12.000000
v 19.679073 -8.442903 -12.000000
v 19.823523 -8.429049 -12.000000
v 19.967000 -8.407328 -12.000000
v 20.109077 -8.377804 -12.000000
v 20.249330 -8.340565 -12.000000
v 20.387340 -8.295723 -12.000000
v 20.522695 -8.243411 -12.000000
v 20.654992 -8.183786 -12.000000
v 20.783835 -8.117025 -12.000000
v 20.908840 -8.043328 -12.000000
v 21.029634 -7.962914 -12.000000
v 21.145856 -7.876023 -12.000000
v 21.257160 -7.782916 -12.000000
v 21.363213 -7.683869 -12.000000
v 21.463699 -7.579178 -12.000000
v 21.558318 -7.469157 -12.000000
v 21.646788 -7.354132 -12.000000
v 21.728844 -7.234448 -12.000000
v 21.804242 -7.110461 -12.000000
v 21.872757 -6.982542 -12.000000
v 21.934184 -6.851072 -12.000000
v 21.988340 -6.716444 -12.000000
v 22.035063 -6.579059 -12.000000
v 22.074213 -6.439328 -12.000000
v 22.105675 -6.297668 -12.000000
v 22.129354 -6.154500 -12.000000
v 22.145179 -6.010254 -12.000000
v 22.153104 -5.865358 -12.000000
v 22.153104 -5.720246 -12.000000
v 22.145179 -5.575350 -12.000000
v 22.129354 -5.431103 -12.000000
v 22.105675 -5.287936 -12.000000
v 22.074213 -5.146275 -12.000000
v 22.035063 -5.006544 -12.000000
v 21.988340 -4.869160 -12.000000
v 21.934184 -4.734532 -12.000000
v 21.872757 -4.603062 -12.000000
v 21.804242 -4.475143 -12.000000
v 21.728844 -4.351156 -12.000000
v 21.646788 -4.231472 -12.000000
v 21.558318 -4.116447 -12.000000
v 21.463699 -4.006425 -12.000000
v 21.363213 -3.901735 -12.000000
v 21.257160 -3.802688 -12.000000
v 21.145856 -3.709581 -12.000000
v 21.029634 -3.622690 -12.000000
v 20.908840 -3.542276 -12.000000
v 20.783835 -3.468579 -12.000000
v 20.654992 -3.401818 -12.000000
v 20.522695 -3.342192 -12.000000
v 20.387340 -3.289880 -12.000000
v 20.249330 -3.245038 -12.000000
v 20.109077 -3.207800 -12.000000
v 19.967000 -3.178276 -12.000000
v 19.823523 -3.156555 -12.000000
v 19.679073 -3.142701 -12.000000
v 19.534083 -3.136756 -12.000000
v 19.497802 -3.136509 -12.000000
v 19.388984 -3.138738 -12.000000
v 19.244210 -3.148641 -12.000000
v 19.100193 -3.166435 -12.000000
v 18.957363 -3.192067 -12.000000
v 18.816145 -3.225461 -12.000000
v 18.676962 -3.266517 -12.000000
v 18.540228 -3.315112 -12.000000
v 18.406352 -3.371101 -12.000000
v 18.275734 -3.434318 -12.000000
v 18.148763 -3.504574 -12.000000
v 18.025817 -3.581658 -12.000000
v 17.907265 -3.665342 -12.000000
v 17.793459 -3.755374 -12.000000
v 17.684740 -3.851487 -12.000000
v 17.581432 -3.953394 -12.000000
v 17.483843 -4.060790 -12.000000
v 17.392264 -4.173355 -12.000000
v 17.306970 -4.290754 -12.000000
v 17.228213 -4.412635 -12.000000
v 17.156230 -4.538634 -12.000000
v 17.091235 -4.668377 -12.000000
v 17.033422 -4.801476 -12.000000
v 16.982964 -4.937533 -12.000000
v 16.940011 -5.076143 -12.000000
v 16.904691 -5.216891 -12.000000
v 16.877111 -5.359358 -12.000000
v 16.857351 -5.503119 -12.000000
v 16.845472 -5.647744 -12.000000
v 16.841508 -5.792802 -12.000000
v 16.845472 -5.937860 -12.000000
v 16.857351 -6.082485 -12.000000
v 16.877111 -6.226246 -12.000000
v 16.904691 -6.368713 -12.000000
v 16.940011 -6.509461 -12.000000
v 16.982964 -6.648071 -12.000000
v 17.033422 -6.784128 -12.000000
v 17.091235 -6.917227 -12.000000
v 17.156230 -7.046969 -12.000000
v 17.228213 -7.172969 -12.000000
v 17.306970 -7.294850 -12.000000
v 17.392264 -7.412249 -12.000000
v 17.483843 -7.524814 -12.000000
v 17.581432 -7.632210 -12.000000
v 17.684740 -7.734117 -12.000000
v 17.793459 -7.830230 -12.000000
v 17.907265 -7.920262 -12.000000
v 18.025817 -8.003946 -12.000000
v 18.148763 -8.081030 -12.000000
v 18.275734 -8.151286 -12.000000
v 18.406352 -8.214502 -12.000000
v 18.540228 -8.270492 -12.000000
v 18.676962 -8.319087 -12.000000
v 18.816145 -8.360143 -12.000000
v 18.957363 -8.393536 -12.000000
v 19.100193 -8.419169 -12.000000
v 19.244210 -8.436963 -12.000000
v 19.388984 -8.446865 -12.000000
v -3.241555 -1.641064 -12.000000
v -7.860357 -1.641064 -12.000000
v -0.932154 -5.641064 -12.000000
v -10.169758 -5.641064 -12.000000
v -3.241555 -9.641064 -12.000000
v -7.860357 -9.641064 -12.000000
v -10.169758 -5.641064 -17.000000
v -7.860357 -1.641064 -17.000000
v -3.241555 -1.641064 -17.000000
v -0.932154 -5.641064 -17.000000
v -3.241555 -9.641064 -17.000000
v -7.860357 -9.641064 -17.000000
v 21.807203 -1.792802 -12.000000
v 17.188401 -1.792802 -12.000000
v 17.188401 -9.792802 -12.000000
v 21.807203 -9.792802 -12.000000
v 14.878999 -5.792802 -12.000000
v 24.116604 -5.792802 -12.000000
v 17.188401 -9.792802 -17.000000
v 14.878999 -5.792802 -17.000000
v 17.188401 -1.792802 -17.000000
v 21.807203 -1.792802 -17.000000
v 24.116604 -5.792802 -17.000000
v 21.807203 -9.792802 -17.000000
v -28.270875 -1.641064 -17.000000
v -28.270875 -9.641064 -17.000000
v -25.961474 -5.641064 -17.000000
v -32.889677 -9.641064 -17.000000
v -35.199078 -5.641064 -17.000000
v -32.889677 -1.641064 -17.000000
v -28.270875 -1.641064 -12.000000
v -32.889677 -1.641064 -12.000000
v -28.270875 -9.641064 -12.000000
v -32.889677 -9.641064 -12.000000
v -25.961474 -5.641064 -12.000000
v -35.199078 -5.641064 -12.000000
usemtl nosac_maticaMaterial0
f 1 2 3
f 3 4 1
f 5 4 6
f 6 7 5
f 8 5 9
f 9 10 8
f 11 8 12
f 12 13 11
f 14 11 15
f 15 16 14
f 17 14 18
f 18 19 17
f 20 17 21
f 21 22 20
f 23 20 24
f 24 25 23
f 26 23 27
f 27 28 26
f 29 26 30
f 30 31 29
f 32 29 33
f 33 34 32
f 35 32 36
f 36 37 35
f 38 35 39
f 39 40 38
f 41 38 42
f 42 43 41
f 44 41 45
f 45 46 44
f 47 44 48
f 48 49 47
f 50 47 51
f 51 52 50
f 53 50 54
f 54 55 53
f 56 53 57
f 57 58 56
f 59 56 60
f 60 61 59
f 62 59 63
f 63 64 62
f 65 62 66
f 66 67 65
f 68 65 69
f 69 70 68
f 71 68 72
f 72 73 71
f 74 71 75
f 75 76 74
f 77 74 78
f 78 79 77
f 80 77 81
f 81 82 80
f 83 80 84
f 84 85 83
f 86 83 87
f 87 88 86
f 89 86 90
f 90 91 89
f 92 89 93
f 93 94 92
f 95 92 96
f 96 97 95
f 98 95 99
f 99 100 98
f 101 98 102
f 102 103 101
f 104 101 105
f 105 106 104
f 107 104 108
f 108 109 107
f 110 107 111
f 111 112 110
f 113 110 114
f 114 115 113
f 116 113 117
f 117 118 116
f 119 116 120
f 120 121 119
f 122 119 123
f 123 124 122
f 125 122 126
f 126 127 125
f 128 125 129
f 129 130 128
f 131 128 132
f 132 133 131
f 134 131 135
f 135 136 134
f 137 134 138
f 138 139 137
f 140 137 141
f 141 142 140
f 143 140 144
f 144 145 143
f 146 143 147
f 147 148 146
f 149 146 150
f 150 151 149
f 152 149 153
f 153 154 152
f 155 152 156
f 156 157 155
f 158 155 159
f 159 160 158
f 161 158 162
f 162 163 161
f 164 161 165
f 165 166 164
f 167 164 168
f 168 169 167
f 170 167 171
f 171 172 170
f 173 174 175
f 173 176 174
f 175 177 173
f 177 178 179
f 177 175 178
f 180 181 182
f 180 179 181
f 183 184 185
f 183 182 184
f 186 187 188
f 186 185 187
f 189 190 191
f 189 188 190
f 192 193 194
f 192 191 193
f 195 196 197
f 195 194 196
f 198 199 200
f 198 197 199
f 201 202 203
f 201 200 202
f 204 205 206
f 204 203 205
f 207 208 209
f 207 206 208
f 210 211 212
f 210 209 211
f 213 214 215
f 213 212 214
f 216 217 218
f 216 215 217
f 219 220 221
f 219 218 220
f 222 223 224
f 222 221 223
f 225 226 227
f 225 224 226
f 228 229 230
f 228 227 229
f 231 232 233
f 231 230 232
f 234 235 236
f 234 233 235
f 237 238 239
f 237 236 238
f 240 241 242
f 240 239 241
f 243 244 245
f 243 242 244
f 246 247 248
f 246 245 247
f 249 250 251
f 249 248 250
f 252 253 254
f 252 251 253
f 255 256 257
f 255 254 256
f 258 259 260
f 258 257 259
f 261 262 263
f 261 260 262
f 264 265 266
f 264 263 265
f 267 268 269
f 267 266 268
f 270 271 272
f 270 269 271
f 273 274 275
f 273 272 274
f 276 277 278
f 276 275 277
f 279 280 281
f 279 278 280
f 282 283 284
f 282 281 283
f 285 286 287
f 285 284 286
f 288 289 290
f 288 287 289
f 291 292 293
f 291 290 292
f 294 295 296
f 294 293 295
f 297 298 299
f 297 296 298
f 300 301 302
f 300 299 301
f 303 304 305
f 303 302 304
f 306 307 308
f 306 305 307
f 309 310 311
f 309 308 310
f 312 313 314
f 312 311 313
f 315 316 317
f 315 314 316
f 318 319 320
f 318 317 319
f 321 322 323
f 321 320 322
f 324 325 326
f 324 323 325
f 327 328 329
f 327 326 328
f 330 331 332
f 330 329 331
f 333 334 335
f 333 332 334
f 336 337 338
f 336 335 337
f 339 340 341
f 339 338 340
f 342 343 344
f 342 341 343
f 345 344 346
f 346 1 345
f 346 2 1
f 344 345 342
f 341 342 339
f 338 339 336
f 335 336 333
f 332 333 330
f 329 330 327
f 326 327 324
f 323 324 321
f 320 321 318
f 317 318 315
f 314 315 312
f 311 312 309
f 308 309 306
f 305 306 303
f 302 303 300
f 299 300 297
f 296 297 294
f 293 294 291
f 290 291 288
f 287 288 285
f 284 285 282
f 281 282 279
f 278 279 276
f 275 276 273
f 272 273 270
f 269 270 267
f 266 267 264
f 263 264 261
f 260 261 258
f 257 258 255
f 254 255 252
f 251 252 249
f 248 249 246
f 245 246 243
f 242 243 240
f 239 240 237
f 236 237 234
f 233 234 231
f 230 231 228
f 227 228 225
f 224 225 222
f 221 222 219
f 218 219 216
f 215 216 213
f 212 213 210
f 209 210 207
f 206 207 204
f 203 204 201
f 200 201 198
f 197 198 195
f 194 195 192
f 191 192 189
f 188 189 186
f 185 186 183
f 182 183 180
f 179 180 177
f 173 170 176
f 172 176 170
f 169 171 167
f 166 168 164
f 163 165 161
f 160 162 158
f 157 159 155
f 154 156 152
f 151 153 149
f 148 150 146
f 145 147 143
f 142 144 140
f 139 141 137
f 136 138 134
f 133 135 131
f 130 132 128
f 127 129 125
f 124 126 122
f 121 123 119
f 118 120 116
f 115 117 113
f 112 114 110
f 109 111 107
f 106 108 104
f 103 105 101
f 100 102 98
f 97 99 95
f 94 96 92
f 91 93 89
f 88 90 86
f 85 87 83
f 82 84 80
f 79 81 77
f 76 78 74
f 73 75 71
f 70 72 68
f 67 69 65
f 64 66 62
f 61 63 59
f 58 60 56
f 55 57 53
f 52 54 50
f 49 51 47
f 46 48 44
f 43 45 41
f 40 42 38
f 37 39 35
f 34 36 32
f 31 33 29
f 28 30 26
f 25 27 23
f 22 24 20
f 19 21 17
f 16 18 14
f 13 15 11
f 10 12 8
f 7 9 5
f 3 6 4
f 347 348 349
f 349 350 347
f 350 351 347
f 347 352 353
f 353 348 347
f 351 354 347
f 347 355 356
f 354 357 347
f 347 358 355
f 356 352 347
f 357 359 347
f 359 360 347
f 360 361 347
f 347 362 363
f 361 364 347
f 347 365 362
f 363 358 347
f 364 366 347
f 367 368 365
f 365 347 367
f 366 369 347
f 367 370 368
f 369 371 347
f 367 372 370
f 373 263 262
f 367 374 372
f 262 260 373
f 260 259 373
f 371 375 347
f 375 376 347
f 259 257 373
f 373 266 265
f 367 377 374
f 257 256 373
f 373 268 266
f 265 263 373
f 367 378 377
f 256 254 373
f 376 379 347
f 379 380 347
f 254 253 373
f 367 381 378
f 253 251 373
f 373 271 269
f 367 382 381
f 251 250 373
f 373 272 271
f 269 268 373
f 380 383 347
f 250 248 373
f 373 274 272
f 383 384 347
f 248 247 373
f 367 385 382
f 386 275 274
f 367 387 385
f 274 373 386
f 247 245 373
f 384 388 347
f 386 277 275
f 388 389 347
f 367 390 387
f 245 244 373
f 367 391 390
f 386 278 277
f 389 392 347
f 373 393 394
f 244 242 373
f 392 395 347
f 373 396 393
f 394 397 373
f 386 280 278
f 367 398 391
f 386 281 280
f 367 399 398
f 397 400 373
f 373 401 402
f 242 241 373
f 395 403 347
f 400 404 373
f 373 405 401
f 402 396 373
f 386 283 281
f 367 406 399
f 404 407 373
f 241 239 373
f 403 408 347
f 239 238 373
f 408 409 347
f 407 410 373
f 373 411 412
f 386 284 283
f 367 413 406
f 410 414 373
f 373 415 411
f 412 405 373
f 386 286 284
f 367 416 413
f 414 417 373
f 238 236 373
f 409 418 347
f 236 235 373
f 418 419 347
f 417 420 373
f 373 421 422
f 386 287 286
f 367 423 416
f 420 424 373
f 373 425 421
f 422 415 373
f 386 289 287
f 367 426 423
f 424 427 373
f 235 233 373
f 419 428 347
f 233 232 373
f 367 429 426
f 427 430 373
f 373 431 432
f 386 290 289
f 428 433 347
f 430 434 373
f 373 435 431
f 432 425 373
f 232 230 373
f 433 436 347
f 434 437 373
f 386 292 290
f 367 438 429
f 386 293 292
f 436 439 347
f 437 440 373
f 373 441 442
f 230 229 373
f 367 443 438
f 440 444 373
f 373 445 441
f 442 435 373
f 229 227 373
f 367 446 443
f 444 447 373
f 386 295 293
f 439 448 347
f 386 296 295
f 367 449 446
f 447 450 373
f 373 451 452
f 227 226 373
f 448 453 347
f 450 454 373
f 373 455 451
f 452 445 373
f 226 224 373
f 373 223 221
f 453 456 347
f 454 457 373
f 373 458 455
f 386 298 296
f 221 220 373
f 367 459 449
f 457 460 373
f 386 299 298
f 220 218 373
f 367 461 459
f 386 301 299
f 218 217 373
f 456 462 347
f 460 463 373
f 373 464 465
f 386 302 301
f 217 215 373
f 367 466 461
f 463 467 373
f 373 468 464
f 465 458 373
f 386 304 302
f 215 214 373
f 462 469 347
f 467 470 373
f 373 471 468
f 386 305 304
f 214 212 373
f 469 472 347
f 470 473 373
f 386 307 305
f 212 211 373
f 367 474 466
f 386 308 307
f 211 209 373
f 472 475 347
f 473 476 373
f 373 477 478
f 386 310 308
f 209 208 373
f 367 479 474
f 476 480 373
f 373 481 477
f 478 471 373
f 386 311 310
f 208 206 373
f 367 482 479
f 480 483 373
f 373 484 481
f 386 313 311
f 206 205 373
f 475 485 347
f 483 486 373
f 373 487 484
f 386 314 313
f 205 203 373
f 485 488 347
f 489 490 491
f 486 492 373
f 373 493 487
f 386 316 314
f 203 202 373
f 367 494 482
f 491 495 489
f 492 496 373
f 386 317 316
f 202 200 373
f 367 497 494
f 495 498 489
f 386 319 317
f 200 199 373
f 488 499 347
f 498 500 489
f 496 501 373
f 386 320 319
f 199 197 373
f 499 502 347
f 500 503 489
f 501 504 373
f 373 505 506
f 386 322 320
f 197 196 373
f 367 507 497
f 503 508 489
f 504 509 373
f 373 510 505
f 506 493 373
f 386 323 322
f 196 194 373
f 502 511 347
f 508 512 489
f 509 513 373
f 373 514 510
f 386 325 323
f 194 193 373
f 347 515 516
f 367 517 507
f 518 519 489
f 512 520 489
f 513 521 373
f 373 522 514
f 386 326 325
f 193 191 373
f 516 49 347
f 49 48 347
f 523 347 524
f 367 525 517
f 520 526 489
f 489 526 518
f 521 527 373
f 373 528 522
f 386 328 326
f 191 190 373
f 524 529 523
f 511 530 347
f 527 531 373
f 373 532 528
f 386 329 328
f 190 188 373
f 48 46 347
f 523 533 347
f 367 534 525
f 518 535 519
f 531 536 373
f 373 537 532
f 386 331 329
f 188 187 373
f 46 45 347
f 533 538 347
f 530 539 347
f 535 540 519
f 536 541 373
f 373 542 537
f 386 332 331
f 187 185 373
f 45 43 347
f 538 543 347
f 539 544 347
f 540 545 519
f 541 546 373
f 373 547 542
f 386 334 332
f 185 184 373
f 43 42 347
f 543 548 347
f 367 549 534
f 545 550 519
f 546 551 373
f 373 552 547
f 386 335 334
f 184 182 373
f 553 150 148
f 42 40 347
f 548 554 347
f 367 555 549
f 550 556 519
f 551 557 373
f 373 558 552
f 386 337 335
f 373 166 165
f 373 169 168
f 182 181 373
f 163 559 560
f 553 151 150
f 148 147 553
f 40 39 347
f 554 561 347
f 544 562 347
f 556 563 519
f 557 564 373
f 373 560 558
f 386 338 337
f 168 166 373
f 165 163 373
f 373 172 171
f 181 179 373
f 163 565 559
f 560 373 163
f 553 153 151
f 39 37 347
f 561 566 347
f 562 567 347
f 563 568 519
f 564 569 373
f 386 340 338
f 171 169 373
f 373 174 176
f 179 178 373
f 163 570 565
f 553 154 153
f 37 36 347
f 566 571 347
f 367 572 555
f 568 573 519
f 386 341 340
f 176 172 373
f 178 175 373
f 163 574 570
f 553 156 154
f 36 34 347
f 571 575 347
f 367 576 572
f 573 577 519
f 569 578 373
f 386 343 341
f 175 174 373
f 163 553 574
f 553 157 156
f 34 33 347
f 575 579 347
f 580 581 582
f 582 583 584
f 585 586 581
f 581 587 588
f 589 582 590
f 567 591 347
f 577 592 519
f 578 593 373
f 386 344 343
f 553 159 157
f 120 594 595
f 595 126 124
f 33 31 347
f 579 596 347
f 582 597 598
f 582 598 580
f 582 599 583
f 584 597 582
f 582 600 601
f 582 602 603
f 582 604 605
f 588 606 581
f 581 606 585
f 581 607 608
f 609 610 611
f 612 613 614
f 590 615 616
f 590 616 589
f 617 618 619
f 591 620 347
f 592 621 519
f 593 622 373
f 224 223 373
f 553 160 159
f 595 123 121
f 595 121 120
f 595 127 126
f 124 123 595
f 595 130 129
f 595 135 133
f 31 30 347
f 596 623 347
f 582 624 600
f 601 599 582
f 582 625 602
f 603 624 582
f 582 626 604
f 605 627 582
f 608 587 581
f 581 628 629
f 610 609 586
f 586 630 631
f 611 632 609
f 614 633 612
f 634 635 636
f 590 637 615
f 617 638 618
f 619 639 617
f 367 640 576
f 621 641 519
f 622 642 373
f 144 595 553
f 553 162 160
f 595 132 130
f 129 127 595
f 595 136 135
f 133 132 595
f 595 141 139
f 30 28 347
f 623 643 347
f 582 627 625
f 582 644 626
f 629 607 581
f 581 645 646
f 631 647 586
f 586 647 610
f 586 648 649
f 632 650 609
f 633 651 612
f 636 652 634
f 590 653 637
f 617 654 638
f 620 655 347
f 641 656 519
f 553 147 145
f 553 145 144
f 553 163 162
f 595 138 136
f 595 142 141
f 139 138 595
f 103 657 594
f 594 108 106
f 28 27 347
f 643 658 347
f 582 589 644
f 646 628 581
f 581 580 659
f 649 630 586
f 586 660 661
f 650 662 609
f 651 663 612
f 652 664 634
f 590 665 653
f 617 666 654
f 367 667 640
f 367 519 668
f 656 669 519
f 642 670 373
f 595 144 142
f 106 105 594
f 594 105 103
f 594 111 109
f 27 25 347
f 658 671 347
f 659 645 581
f 661 648 586
f 586 585 672
f 662 673 609
f 663 674 612
f 664 675 634
f 590 676 665
f 617 677 666
f 367 678 667
f 669 668 519
f 109 108 594
f 594 114 112
f 90 679 657
f 657 94 93
f 25 24 347
f 671 680 347
f 672 660 586
f 613 612 609
f 673 681 609
f 674 682 612
f 675 683 634
f 590 684 676
f 685 686 617
f 617 687 688
f 617 689 677
f 655 690 347
f 668 691 367
f 670 692 373
f 112 111 594
f 594 117 115
f 93 91 657
f 657 91 90
f 657 97 96
f 679 90 88
f 24 22 347
f 680 693 347
f 681 694 609
f 609 694 613
f 635 634 612
f 682 695 612
f 683 696 634
f 590 697 684
f 617 698 699
f 617 699 685
f 617 700 687
f 688 701 617
f 617 702 689
f 703 704 686
f 367 705 678
f 691 706 367
f 115 114 594
f 594 120 118
f 96 94 657
f 657 100 99
f 88 87 679
f 707 78 76
f 708 64 63
f 22 21 347
f 693 709 347
f 695 710 612
f 612 710 635
f 529 524 634
f 696 711 634
f 590 712 697
f 617 713 698
f 617 714 700
f 617 715 702
f 686 716 717
f 686 717 703
f 686 718 719
f 686 720 721
f 722 723 724
f 690 725 347
f 706 726 367
f 692 727 373
f 118 117 594
f 99 97 657
f 657 103 102
f 87 85 679
f 76 75 707
f 63 61 708
f 347 18 16
f 21 19 347
f 709 728 347
f 711 729 634
f 634 729 529
f 590 730 712
f 617 701 713
f 617 639 714
f 617 731 715
f 719 716 686
f 686 732 720
f 721 718 686
f 686 733 734
f 735 736 704
f 704 737 738
f 724 739 722
f 740 741 742
f 725 743 347
f 726 744 367
f 727 745 373
f 102 100 657
f 85 84 679
f 75 73 707
f 61 60 708
f 19 18 347
f 728 746 347
f 590 617 730
f 617 590 731
f 686 747 733
f 734 732 686
f 686 748 749
f 738 750 704
f 704 750 735
f 704 751 752
f 723 722 736
f 736 753 754
f 739 755 722
f 742 756 740
f 367 757 705
f 744 758 367
f 84 82 679
f 73 72 707
f 60 58 708
f 16 386 347
f 746 759 347
f 686 685 748
f 749 747 686
f 752 737 704
f 704 760 761
f 754 762 736
f 736 763 764
f 755 765 722
f 756 766 740
f 743 767 347
f 758 768 367
f 78 707 679
f 82 81 679
f 72 70 707
f 58 57 708
f 16 15 386
f 759 769 347
f 761 751 704
f 704 703 770
f 764 753 736
f 736 762 723
f 736 771 772
f 765 773 722
f 766 774 740
f 367 775 757
f 768 776 367
f 745 777 373
f 81 79 679
f 679 79 78
f 70 69 707
f 57 55 708
f 15 13 386
f 769 778 347
f 770 760 704
f 772 763 736
f 736 735 779
f 773 780 722
f 774 781 740
f 367 782 775
f 776 783 367
f 777 784 373
f 64 708 707
f 69 67 707
f 55 54 708
f 13 12 386
f 778 785 347
f 779 771 736
f 741 740 722
f 780 786 722
f 781 787 740
f 347 788 789
f 767 790 347
f 783 791 367
f 67 66 707
f 707 66 64
f 49 516 708
f 54 52 708
f 12 10 386
f 785 792 347
f 786 793 722
f 722 793 741
f 490 489 740
f 787 794 740
f 790 788 347
f 367 795 796
f 791 797 367
f 784 798 373
f 52 51 708
f 708 51 49
f 10 9 386
f 792 799 347
f 794 800 740
f 740 800 490
f 796 782 367
f 789 801 347
f 797 802 367
f 9 7 386
f 799 803 347
f 802 795 367
f 386 3 2
f 7 6 386
f 803 804 347
f 367 373 805
f 798 806 373
f 6 3 386
f 804 807 347
f 805 519 367
f 2 346 386
f 806 805 373
f 807 808 347
f 347 801 524
f 808 515 347
f 386 346 344
f 809 373 367
f 367 810 809
f 810 367 347
f 347 811 810
f 809 812 386
f 386 373 809
f 811 347 386
f 386 812 811
f 813 814 808
f 808 807 813
f 815 813 804
f 804 803 815
f 816 815 799
f 799 792 816
f 817 816 785
f 785 778 817
f 818 817 769
f 769 759 818
f 819 818 746
f 746 728 819
f 820 819 709
f 709 693 820
f 821 820 680
f 680 671 821
f 822 821 658
f 658 643 822
f 823 822 623
f 623 596 823
f 824 823 579
f 579 575 824
f 825 824 571
f 571 566 825
f 826 825 561
f 561 554 826
f 827 826 548
f 548 543 827
f 828 827 538
f 538 533 828
f 829 828 523
f 523 529 829
f 830 829 729
f 729 711 830
f 831 830 696
f 696 683 831
f 832 831 675
f 675 664 832
f 833 832 652
f 652 636 833
f 834 833 635
f 635 710 834
f 835 834 695
f 695 682 835
f 836 835 674
f 674 663 836
f 837 836 651
f 651 633 837
f 838 837 614
f 614 613 838
f 839 838 694
f 694 681 839
f 840 839 673
f 673 662 840
f 841 840 650
f 650 632 841
f 842 841 611
f 611 610 842
f 843 842 647
f 647 631 843
f 844 843 630
f 630 649 844
f 845 844 648
f 648 661 845
f 846 845 660
f 660 672 846
f 847 846 585
f 585 606 847
f 848 847 588
f 588 587 848
f 849 848 608
f 608 607 849
f 850 849 629
f 629 628 850
f 851 850 646
f 646 645 851
f 852 851 659
f 659 580 852
f 853 852 598
f 598 597 853
f 854 853 584
f 584 583 854
f 855 854 599
f 599 601 855
f 856 855 600
f 600 624 856
f 857 856 603
f 603 602 857
f 858 857 625
f 625 627 858
f 859 858 605
f 605 604 859
f 860 859 626
f 626 644 860
f 861 860 589
f 589 616 861
f 862 861 615
f 615 637 862
f 863 862 653
f 653 665 863
f 864 863 676
f 676 684 864
f 865 864 697
f 697 712 865
f 866 865 730
f 730 617 866
f 867 866 686
f 686 704 867
f 868 867 736
f 736 722 868
f 869 868 740
f 740 489 869
f 870 869 519
f 870 805 806
f 806 871 870
f 871 798 784
f 871 806 798
f 872 777 745
f 872 784 777
f 873 727 692
f 873 745 727
f 874 670 642
f 874 692 670
f 875 622 593
f 875 642 622
f 876 578 569
f 876 593 578
f 877 564 557
f 877 569 564
f 878 551 546
f 878 557 551
f 879 541 536
f 879 546 541
f 880 531 527
f 880 536 531
f 881 521 513
f 881 527 521
f 882 509 504
f 882 513 509
f 883 501 496
f 883 504 501
f 884 492 486
f 884 496 492
f 885 483 480
f 885 486 483
f 886 476 473
f 886 480 476
f 887 470 467
f 887 473 470
f 888 463 460
f 888 467 463
f 889 457 454
f 889 460 457
f 890 450 447
f 890 454 450
f 891 444 440
f 891 447 444
f 892 437 434
f 892 440 437
f 893 430 427
f 893 434 430
f 894 424 420
f 894 427 424
f 895 417 414
f 895 420 417
f 896 410 407
f 896 414 410
f 897 404 400
f 897 407 404
f 898 397 394
f 898 400 397
f 899 393 396
f 899 394 393
f 900 402 401
f 900 396 402
f 901 405 412
f 901 401 405
f 902 411 415
f 902 412 411
f 903 422 421
f 903 415 422
f 904 425 432
f 904 421 425
f 905 431 435
f 905 432 431
f 906 442 441
f 906 435 442
f 907 445 452
f 907 441 445
f 908 451 455
f 908 452 451
f 909 458 465
f 909 455 458
f 910 464 468
f 910 465 464
f 911 471 478
f 911 468 471
f 912 477 481
f 912 478 477
f 913 484 487
f 913 481 484
f 914 493 506
f 914 487 493
f 915 505 510
f 915 506 505
f 916 514 522
f 916 510 514
f 917 528 532
f 917 522 528
f 918 537 542
f 918 532 537
f 919 547 552
f 919 542 547
f 920 558 560
f 920 552 558
f 921 559 565
f 921 560 559
f 922 570 574
f 922 565 570
f 923 553 595
f 923 574 553
f 924 594 657
f 924 595 594
f 925 679 707
f 925 657 679
f 926 708 516
f 926 707 708
f 927 516 515
f 515 814 927
f 515 808 814
f 516 927 926
f 707 926 925
f 657 925 924
f 595 924 923
f 574 923 922
f 565 922 921
f 560 921 920
f 552 920 919
f 542 919 918
f 532 918 917
f 522 917 916
f 510 916 915
f 506 915 914
f 487 914 913
f 481 913 912
f 478 912 911
f 468 911 910
f 465 910 909
f 455 909 908
f 452 908 907
f 441 907 906
f 435 906 905
f 432 905 904
f 421 904 903
f 415 903 902
f 412 902 901
f 401 901 900
f 396 900 899
f 394 899 898
f 400 898 897
f 407 897 896
f 414 896 895
f 420 895 894
f 427 894 893
f 434 893 892
f 440 892 891
f 447 891 890
f 454 890 889
f 460 889 888
f 467 888 887
f 473 887 886
f 480 886 885
f 486 885 884
f 496 884 883
f 504 883 882
f 513 882 881
f 527 881 880
f 536 880 879
f 546 879 878
f 557 878 877
f 569 877 876
f 593 876 875
f 642 875 874
f 692 874 873
f 745 873 872
f 784 872 871
f 519 805 870
f 489 519 869
f 722 740 868
f 704 736 867
f 617 686 866
f 712 730 865
f 684 697 864
f 665 676 863
f 637 653 862
f 616 615 861
f 644 589 860
f 604 626 859
f 627 605 858
f 602 625 857
f 624 603 856
f 601 600 855
f 583 599 854
f 597 584 853
f 580 598 852
f 645 659 851
f 628 646 850
f 607 629 849
f 587 608 848
f 606 588 847
f 672 585 846
f 661 660 845
f 649 648 844
f 631 630 843
f 610 647 842
f 632 611 841
f 662 650 840
f 681 673 839
f 613 694 838
f 633 614 837
f 663 651 836
f 682 674 835
f 710 695 834
f 636 635 833
f 664 652 832
f 683 675 831
f 711 696 830
f 529 729 829
f 533 523 828
f 543 538 827
f 554 548 826
f 566 561 825
f 575 571 824
f 596 579 823
f 643 623 822
f 671 658 821
f 693 680 820
f 728 709 819
f 759 746 818
f 778 769 817
f 792 785 816
f 803 799 815
f 807 804 813
f 928 789 788
f 788 929 928
f 930 929 790
f 790 767 930
f 931 930 743
f 743 725 931
f 932 931 690
f 690 655 932
f 933 932 620
f 620 591 933
f 934 933 567
f 567 562 934
f 935 934 544
f 544 539 935
f 936 935 530
f 530 511 936
f 937 936 502
f 502 499 937
f 938 937 488
f 488 485 938
f 939 938 475
f 475 472 939
f 940 939 469
f 469 462 940
f 941 940 456
f 456 453 941
f 942 941 448
f 448 439 942
f 943 942 436
f 436 433 943
f 944 943 428
f 428 419 944
f 945 944 418
f 418 409 945
f 946 945 408
f 408 403 946
f 947 946 395
f 395 392 947
f 948 947 389
f 389 388 948
f 949 948 384
f 384 383 949
f 950 949 380
f 380 379 950
f 951 950 376
f 376 375 951
f 952 951 371
f 371 369 952
f 953 952 366
f 366 364 953
f 954 953 361
f 361 360 954
f 955 954 359
f 359 357 955
f 956 955 354
f 354 351 956
f 957 956 350
f 350 349 957
f 958 957 348
f 348 353 958
f 959 958 352
f 352 356 959
f 960 959 355
f 355 358 960
f 961 960 363
f 363 362 961
f 962 961 365
f 365 368 962
f 963 962 370
f 370 372 963
f 964 963 374
f 374 377 964
f 965 964 378
f 378 381 965
f 966 965 382
f 382 385 966
f 967 966 387
f 387 390 967
f 968 967 391
f 391 398 968
f 969 968 399
f 399 406 969
f 970 969 413
f 413 416 970
f 971 970 423
f 423 426 971
f 972 971 429
f 429 438 972
f 973 972 443
f 443 446 973
f 974 973 449
f 449 459 974
f 975 974 461
f 461 466 975
f 976 975 474
f 474 479 976
f 977 976 482
f 482 494 977
f 978 977 497
f 497 507 978
f 979 978 517
f 517 525 979
f 980 979 534
f 534 549 980
f 981 980 555
f 555 572 981
f 982 981 576
f 576 640 982
f 983 982 667
f 667 678 983
f 984 983 705
f 705 757 984
f 985 984 775
f 775 782 985
f 986 795 802
f 986 796 795
f 802 987 986
f 987 797 791
f 987 802 797
f 988 783 776
f 988 791 783
f 989 768 758
f 989 776 768
f 990 744 726
f 990 758 744
f 991 706 691
f 991 726 706
f 992 668 669
f 992 691 668
f 993 656 641
f 993 669 656
f 994 621 592
f 994 641 621
f 995 577 573
f 995 592 577
f 996 568 563
f 996 573 568
f 997 556 550
f 997 563 556
f 998 545 540
f 998 550 545
f 999 535 518
f 999 540 535
f 1000 526 520
f 1000 518 526
f 1001 512 508
f 1001 520 512
f 1002 503 500
f 1002 508 503
f 1003 498 495
f 1003 500 498
f 1004 491 490
f 1004 495 491
f 1005 800 794
f 1005 490 800
f 1006 787 781
f 1006 794 787
f 1007 774 766
f 1007 781 774
f 1008 756 742
f 1008 766 756
f 1009 741 793
f 1009 742 741
f 1010 786 780
f 1010 793 786
f 1011 773 765
f 1011 780 773
f 1012 755 739
f 1012 765 755
f 1013 724 723
f 1013 739 724
f 1014 762 754
f 1014 723 762
f 1015 753 764
f 1015 754 753
f 1016 763 772
f 1016 764 763
f 1017 771 779
f 1017 772 771
f 1018 735 750
f 1018 779 735
f 1019 738 737
f 1019 750 738
f 1020 752 751
f 1020 737 752
f 1021 761 760
f 1021 751 761
f 1022 770 703
f 1022 760 770
f 1023 717 716
f 1023 703 717
f 1024 719 718
f 1024 716 719
f 1025 721 720
f 1025 718 721
f 1026 732 734
f 1026 720 732
f 1027 733 747
f 1027 734 733
f 1028 749 748
f 1028 747 749
f 1029 685 699
f 1029 748 685
f 1030 698 713
f 1030 699 698
f 1031 701 688
f 1031 713 701
f 1032 687 700
f 1032 688 687
f 1033 714 639
f 1033 700 714
f 1034 619 618
f 1034 639 619
f 1035 638 654
f 1035 618 638
f 1036 666 677
f 1036 654 666
f 1037 689 702
f 1037 677 689
f 1038 715 731
f 1038 702 715
f 1039 590 582
f 1039 731 590
f 1040 581 586
f 1040 582 581
f 1041 609 612
f 1041 586 609
f 1042 634 524
f 1042 612 634
f 1043 524 801
f 801 928 1043
f 801 789 928
f 524 1043 1042
f 612 1042 1041
f 586 1041 1040
f 582 1040 1039
f 731 1039 1038
f 702 1038 1037
f 677 1037 1036
f 654 1036 1035
f 618 1035 1034
f 639 1034 1033
f 700 1033 1032
f 688 1032 1031
f 713 1031 1030
f 699 1030 1029
f 748 1029 1028
f 747 1028 1027
f 734 1027 1026
f 720 1026 1025
f 718 1025 1024
f 716 1024 1023
f 703 1023 1022
f 760 1022 1021
f 751 1021 1020
f 737 1020 1019
f 750 1019 1018
f 779 1018 1017
f 772 1017 1016
f 764 1016 1015
f 754 1015 1014
f 723 1014 1013
f 739 1013 1012
f 765 1012 1011
f 780 1011 1010
f 793 1010 1009
f 742 1009 1008
f 766 1008 1007
f 781 1007 1006
f 794 1006 1005
f 490 1005 1004
f 495 1004 1003
f 500 1003 1002
f 508 1002 1001
f 520 1001 1000
f 518 1000 999
f 540 999 998
f 550 998 997
f 563 997 996
f 573 996 995
f 592 995 994
f 641 994 993
f 669 993 992
f 691 992 991
f 726 991 990
f 758 990 989
f 776 989 988
f 791 988 987
f 986 985 796
f 782 796 985
f 757 775 984
f 678 705 983
f 640 667 982
f 572 576 981
f 549 555 980
f 525 534 979
f 507 517 978
f 494 497 977
f 479 482 976
f 466 474 975
f 459 461 974
f 446 449 973
f 438 443 972
f 426 429 971
f 416 423 970
f 406 413 969
f 398 399 968
f 390 391 967
f 385 387 966
f 381 382 965
f 377 378 964
f 372 374 963
f 368 370 962
f 362 365 961
f 358 363 960
f 356 355 959
f 353 352 958
f 349 348 957
f 351 350 956
f 357 354 955
f 360 359 954
f 364 361 953
f 369 366 952
f 375 371 951
f 379 376 950
f 383 380 949
f 388 384 948
f 392 389 947
f 403 395 946
f 409 408 945
f 419 418 944
f 433 428 943
f 439 436 942
f 453 448 941
f 462 456 940
f 472 469 939
f 485 475 938
f 499 488 937
f 511 502 936
f 539 530 935
f 562 544 934
f 591 567 933
f 655 620 932
f 725 690 931
f 767 743 930
f 788 790 929
f 1044 869 870
f 870 1045 1044
f 1045 876 877
f 870 871 1045
f 1045 881 882
f 1045 878 879
f 1045 875 876
f 1044 868 869
f 1044 866 867
f 1044 864 865
f 1045 884 885
f 882 883 1045
f 877 878 1045
f 1045 873 874
f 867 868 1044
f 1044 863 864
f 1044 856 857
f 1046 845 846
f 1047 1045 889
f 883 884 1045
f 879 880 1045
f 1045 872 873
f 865 866 1044
f 857 858 1044
f 1044 854 855
f 1046 847 848
f 1046 844 845
f 1046 842 843
f 1046 840 841
f 1046 833 834
f 1046 1048 831
f 1048 825 826
f 1047 892 893
f 889 890 1047
f 880 881 1045
f 871 872 1045
f 1044 859 860
f 855 856 1044
f 1044 851 852
f 1046 850 851
f 846 847 1046
f 841 842 1046
f 1046 836 837
f 834 835 1046
f 831 832 1046
f 1048 829 830
f 1048 827 828
f 1048 824 825
f 1049 920 921
f 1049 918 919
f 1047 891 892
f 1045 888 889
f 1045 886 887
f 874 875 1045
f 1044 861 862
f 858 859 1044
f 852 853 1044
f 1046 849 850
f 843 844 1046
f 1046 838 839
f 835 836 1046
f 830 831 1048
f 826 827 1048
f 919 920 1049
f 1049 916 917
f 1049 912 913
f 1047 895 896
f 893 894 1047
f 887 888 1045
f 862 863 1044
f 853 854 1044
f 848 849 1046
f 837 838 1046
f 828 829 1048
f 1049 922 923
f 917 918 1049
f 1049 911 912
f 1049 909 910
f 1049 1047 908
f 1047 906 907
f 1047 902 903
f 894 895 1047
f 885 886 1045
f 851 1044 1046
f 832 833 1046
f 1048 819 820
f 1049 924 925
f 921 922 1049
f 910 911 1049
f 907 908 1047
f 1047 904 905
f 1047 901 902
f 890 891 1047
f 839 840 1046
f 1048 822 823
f 1048 818 819
f 1048 815 816
f 1048 1049 927
f 923 924 1049
f 1049 914 915
f 908 909 1049
f 903 904 1047
f 860 861 1044
f 1048 821 822
f 1048 817 818
f 1048 813 815
f 927 814 1048
f 915 916 1049
f 905 906 1047
f 823 824 1048
f 816 817 1048
f 1049 926 927
f 913 914 1049
f 1047 897 898
f 820 821 1048
f 925 926 1049
f 1047 899 900
f 896 897 1047
f 900 901 1047
f 814 813 1048
f 898 899 1047
f 1047 1050 1051
f 1051 1045 1047
f 1045 1051 1052
f 1052 1044 1045
f 1044 1052 1053
f 1053 1046 1044
f 1046 1053 1054
f 1054 1048 1046
f 1048 1054 1055
f 1055 1049 1048
f 1049 1055 1050
f 1050 1047 1049
f 1056 985 986
f 986 1057 1056
f 1057 995 996
f 1056 984 985
f 996 997 1057
f 1057 989 990
f 986 987 1057
f 1057 1000 1001
f 997 998 1057
f 990 991 1057
f 987 988 1057
f 1001 1002 1057
f 998 999 1057
f 1057 993 994
f 991 992 1057
f 1056 983 984
f 1056 981 982
f 1056 979 980
f 1056 977 978
f 1058 1043 928
f 1058 1041 1042
f 999 1000 1057
f 992 993 1057
f 982 983 1056
f 978 979 1056
f 1059 932 933
f 928 1059 1058
f 1058 1040 1041
f 1058 1025 1026
f 1060 1024 1025
f 994 995 1057
f 980 981 1056
f 1056 975 976
f 1056 973 974
f 1059 931 932
f 1042 1043 1058
f 1058 1028 1029
f 1025 1058 1060
f 1060 1022 1023
f 988 989 1057
f 974 975 1056
f 1056 971 972
f 1061 960 961
f 1061 958 959
f 1059 930 931
f 928 929 1059
f 1058 1031 1032
f 1029 1030 1058
f 1023 1024 1060
f 1060 1015 1016
f 976 977 1056
f 1056 970 971
f 1056 968 969
f 959 960 1061
f 1061 953 954
f 1061 951 952
f 929 930 1059
f 1058 1037 1038
f 1058 1035 1036
f 1030 1031 1058
f 1060 1021 1022
f 1060 1018 1019
f 1016 1017 1060
f 1057 1003 1004
f 972 973 1056
f 1056 967 968
f 1056 1061 966
f 1061 964 965
f 1061 957 958
f 952 953 1061
f 1061 947 948
f 1059 940 941
f 1058 1039 1040
f 1036 1037 1058
f 1058 1033 1034
f 1058 1027 1028
f 1060 1020 1021
f 1017 1018 1060
f 1060 1013 1014
f 1060 1006 1007
f 1060 1057 1005
f 1002 1003 1057
f 966 967 1056
f 1061 963 964
f 1061 956 957
f 954 955 1061
f 948 949 1061
f 941 942 1059
f 1059 938 939
f 1059 934 935
f 1038 1039 1058
f 1032 1033 1058
f 1019 1020 1060
f 1060 1012 1013
f 1060 1010 1011
f 1060 1008 1009
f 1005 1006 1060
f 969 970 1056
f 1061 962 963
f 955 956 1061
f 949 950 1061
f 1059 946 947
f 1059 943 944
f 939 940 1059
f 933 934 1059
f 1026 1027 1058
f 1011 1012 1060
f 1007 1008 1060
f 965 966 1061
f 950 951 1061
f 1059 945 946
f 942 943 1059
f 1059 936 937
f 1034 1035 1058
f 1009 1010 1060
f 961 962 1061
f 944 945 1059
f 935 936 1059
f 1004 1005 1057
f 937 938 1059
f 947 1061 1059
f 1014 1015 1060
f 1058 1062 1063
f 1063 1060 1058
f 1060 1063 1064
f 1064 1057 1060
f 1057 1064 1065
f 1065 1056 1057
f 1056 1065 1066
f 1066 1061 1056
f 1061 1066 1067
f 1067 1059 1061
f 1059 1067 1062
f 1062 1058 1059
f 1068 1051 1050
f 1050 1069 1070
f 810 1052 1051
f 1052 810 1064
f 1051 1068 810
f 810 1065 1064
f 1064 1053 1052
f 810 811 1066
f 809 810 1068
f 1066 1065 810
f 1050 1070 1068
f 1053 1064 1063
f 1063 1054 1053
f 811 1067 1066
f 811 812 1062
f 812 1055 1054
f 1062 1067 811
f 1054 1062 812
f 1055 812 1069
f 1054 1063 1062
f 812 1071 1069
f 1069 1050 1055
f 812 809 1072
f 1072 1071 812
f 1068 1073 809
f 1073 1072 809
f 1074 170 173
f 173 1075 1074
f 1074 167 170
f 173 177 1075
f 1074 146 149
f 1076 17 20
f 1074 164 167
f 149 152 1074
f 1074 140 143
f 1074 134 137
f 1076 23 26
f 1076 14 17
f 1074 161 164
f 1074 155 158
f 143 146 1074
f 1074 131 134
f 20 23 1076
f 158 161 1074
f 137 140 1074
f 26 29 1076
f 1076 8 11
f 1076 4 5
f 1077 345 1
f 1077 309 312
f 1075 198 201
f 1075 186 189
f 1075 180 183
f 152 155 1074
f 1074 122 125
f 1074 1078 113
f 1076 32 35
f 11 14 1076
f 1076 1 4
f 1077 342 345
f 1077 336 339
f 1077 321 324
f 312 315 1077
f 1075 195 198
f 189 192 1075
f 177 180 1075
f 125 128 1074
f 113 116 1074
f 1078 98 101
f 1078 86 89
f 1078 62 65
f 1078 1076 56
f 1076 41 44
f 29 32 1076
f 1 1076 1077
f 1077 333 336
f 1077 327 330
f 1077 318 321
f 1077 306 309
f 1075 210 213
f 1075 204 207
f 192 195 1075
f 128 131 1074
f 116 119 1074
f 1078 107 110
f 101 104 1078
f 1078 92 95
f 1078 83 86
f 1078 77 80
f 1078 71 74
f 65 68 1078
f 56 59 1078
f 1076 38 41
f 5 8 1076
f 330 333 1077
f 315 318 1077
f 1075 222 225
f 1075 216 219
f 207 210 1075
f 183 186 1075
f 110 113 1078
f 95 98 1078
f 80 83 1078
f 68 71 1078
f 1076 53 56
f 1076 47 50
f 35 38 1076
f 324 327 1077
f 219 222 1075
f 201 204 1075
f 104 107 1078
f 74 77 1078
f 50 53 1076
f 339 342 1077
f 1077 300 303
f 1077 291 294
f 1079 1075 231
f 213 216 1075
f 89 92 1078
f 44 47 1076
f 1077 297 300
f 1077 288 291
f 1075 228 231
f 119 122 1074
f 303 306 1077
f 1077 285 288
f 1077 279 282
f 1079 246 249
f 1079 237 240
f 231 234 1079
f 59 62 1078
f 282 285 1077
f 1077 270 273
f 1079 243 246
f 234 237 1079
f 294 297 1077
f 273 276 1077
f 1079 267 270
f 240 243 1079
f 276 279 1077
f 1079 264 267
f 1079 252 255
f 225 228 1075
f 1079 261 264
f 255 258 1079
f 270 1077 1079
f 249 252 1079
f 258 261 1079
f 1076 1069 1071
f 1071 1077 1076
f 1077 1071 1072
f 1072 1079 1077
f 1079 1072 1073
f 1073 1075 1079
f 1075 1073 1068
f 1068 1074 1075
f 1074 1068 1070
f 1070 1078 1074
f 1076 1078 1070
f 1070 1069 1076
