# 
# Wavefront OBJ file
# Created with Kaydara FBX
# 
mtllib poklopac_za_kablove.mtl

g poklopac_za_kablove
v -13.165668 66.500000 3.297567
v -13.048795 66.500000 3.293575
v -13.048795 71.500000 3.293575
v -13.281995 66.500000 3.309526
v -13.165668 71.500000 3.297567
v -13.397235 66.500000 3.329396
v -13.281995 71.500000 3.309526
v -13.510851 66.500000 3.357083
v -13.397235 71.500000 3.329396
v -13.622312 66.500000 3.392459
v -13.510851 71.500000 3.357083
v -13.731099 66.500000 3.435359
v -13.622312 71.500000 3.392459
v -13.836705 66.500000 3.485583
v -13.731099 71.500000 3.435359
v -13.938637 66.500000 3.542897
v -13.836705 71.500000 3.485583
v -14.036421 66.500000 3.607033
v -13.938637 71.500000 3.542897
v -14.129599 66.500000 3.677693
v -14.036421 71.500000 3.607033
v -14.217739 66.500000 3.754546
v -14.129599 71.500000 3.677693
v -14.300428 66.500000 3.837236
v -14.217739 71.500000 3.754546
v -14.377282 66.500000 3.925375
v -14.300428 71.500000 3.837236
v -14.447942 66.500000 4.018554
v -14.377282 71.500000 3.925375
v -14.512078 66.500000 4.116337
v -14.447942 71.500000 4.018554
v -14.569392 66.500000 4.218270
v -14.512078 71.500000 4.116337
v -14.619615 66.500000 4.323876
v -14.569392 71.500000 4.218270
v -14.662516 66.500000 4.432663
v -14.619615 71.500000 4.323876
v -14.697892 66.500000 4.544124
v -14.662516 71.500000 4.432663
v -14.725579 66.500000 4.657740
v -14.697892 71.500000 4.544124
v -14.745448 66.500000 4.772980
v -14.725579 71.500000 4.657740
v -14.757407 66.500000 4.889307
v -14.745448 71.500000 4.772980
v -14.761400 66.500000 5.006179
v -14.757407 71.500000 4.889307
v -14.757407 66.500000 5.123051
v -14.761400 71.500000 5.006179
v -14.745448 66.500000 5.239379
v -14.757407 71.500000 5.123051
v -14.725579 66.500000 5.354619
v -14.745448 71.500000 5.239379
v -14.697892 66.500000 5.468234
v -14.725579 71.500000 5.354619
v -14.662516 66.500000 5.579695
v -14.697892 71.500000 5.468234
v -14.619615 66.500000 5.688483
v -14.662516 71.500000 5.579695
v -14.569392 66.500000 5.794089
v -14.619615 71.500000 5.688483
v -14.512078 66.500000 5.896021
v -14.569392 71.500000 5.794089
v -14.447942 66.500000 5.993804
v -14.512078 71.500000 5.896021
v -14.377282 66.500000 6.086983
v -14.447942 71.500000 5.993804
v -14.300428 66.500000 6.175123
v -14.377282 71.500000 6.086983
v -14.217739 66.500000 6.257812
v -14.300428 71.500000 6.175123
v -14.129599 66.500000 6.334666
v -14.217739 71.500000 6.257812
v -14.036421 66.500000 6.405325
v -14.129599 71.500000 6.334666
v -13.938637 66.500000 6.469462
v -14.036421 71.500000 6.405325
v -13.836705 66.500000 6.526775
v -13.938637 71.500000 6.469462
v -13.731099 66.500000 6.576999
v -13.836705 71.500000 6.526775
v -13.622312 66.500000 6.619899
v -13.731099 71.500000 6.576999
v -13.510851 66.500000 6.655276
v -13.622312 71.500000 6.619899
v -13.397235 66.500000 6.682963
v -13.510851 71.500000 6.655276
v -13.281995 66.500000 6.702832
v -13.397235 71.500000 6.682963
v -13.165668 66.500000 6.714791
v -13.281995 71.500000 6.702832
v -13.048795 66.500000 6.718784
v -13.165668 71.500000 6.714791
v -12.931923 66.500000 6.714791
v -13.048795 71.500000 6.718784
v -12.815596 66.500000 6.702832
v -12.931923 71.500000 6.714791
v -12.700356 66.500000 6.682963
v -12.815596 71.500000 6.702832
v -12.586740 66.500000 6.655276
v -12.700356 71.500000 6.682963
v -12.475279 66.500000 6.619899
v -12.586740 71.500000 6.655276
v -12.366492 66.500000 6.576999
v -12.475279 71.500000 6.619899
v -12.260886 66.500000 6.526775
v -12.366492 71.500000 6.576999
v -12.158954 66.500000 6.469462
v -12.260886 71.500000 6.526775
v -12.061170 66.500000 6.405325
v -12.158954 71.500000 6.469462
v -11.967991 66.500000 6.334666
v -12.061170 71.500000 6.405325
v -11.879852 66.500000 6.257812
v -11.967991 71.500000 6.334666
v -11.797163 66.500000 6.175123
v -11.879852 71.500000 6.257812
v -11.720309 66.500000 6.086983
v -11.797163 71.500000 6.175123
v -11.649649 66.500000 5.993804
v -11.720309 71.500000 6.086983
v -11.585513 66.500000 5.896021
v -11.649649 71.500000 5.993804
v -11.528199 66.500000 5.794089
v -11.585513 71.500000 5.896021
v -11.477975 66.500000 5.688483
v -11.528199 71.500000 5.794089
v -11.435075 66.500000 5.579695
v -11.477975 71.500000 5.688483
v -11.399699 66.500000 5.468234
v -11.435075 71.500000 5.579695
v -11.372012 66.500000 5.354619
v -11.399699 71.500000 5.468234
v -11.352142 66.500000 5.239379
v -11.372012 71.500000 5.354619
v -11.340184 66.500000 5.123051
v -11.352142 71.500000 5.239379
v -11.336191 66.500000 5.006179
v -11.340184 71.500000 5.123051
v -11.340184 66.500000 4.889307
v -11.336191 71.500000 5.006179
v -11.352142 66.500000 4.772980
v -11.340184 71.500000 4.889307
v -11.372012 66.500000 4.657740
v -11.352142 71.500000 4.772980
v -11.399699 66.500000 4.544124
v -11.372012 71.500000 4.657740
v -11.435075 66.500000 4.432663
v -11.399699 71.500000 4.544124
v -11.477975 66.500000 4.323876
v -11.435075 71.500000 4.432663
v -11.528199 66.500000 4.218270
v -11.477975 71.500000 4.323876
v -11.585513 66.500000 4.116337
v -11.528199 71.500000 4.218270
v -11.649649 66.500000 4.018554
v -11.585513 71.500000 4.116337
v -11.720309 66.500000 3.925375
v -11.649649 71.500000 4.018554
v -11.797163 66.500000 3.837236
v -11.720309 71.500000 3.925375
v -11.879852 66.500000 3.754546
v -11.797163 71.500000 3.837236
v -11.967991 66.500000 3.677693
v -11.879852 71.500000 3.754546
v -12.061170 66.500000 3.607033
v -11.967991 71.500000 3.677693
v -12.158954 66.500000 3.542897
v -12.061170 71.500000 3.607033
v -12.260886 66.500000 3.485583
v -12.158954 71.500000 3.542897
v -12.366492 66.500000 3.435359
v -12.260886 71.500000 3.485583
v -12.475279 66.500000 3.392459
v -12.366492 71.500000 3.435359
v -12.586740 66.500000 3.357083
v -12.475279 71.500000 3.392459
v -12.700356 66.500000 3.329396
v -12.586740 71.500000 3.357083
v -12.815596 66.500000 3.309526
v -12.700356 71.500000 3.329396
v -12.931923 66.500000 3.297567
v -12.815596 71.500000 3.309526
v -12.931923 71.500000 3.297567
v -9.144593 66.500000 10.000000
v -20.573453 66.500000 10.000000
v -20.573453 66.500000 0.002287
v -9.144593 66.500000 0.002287
v -20.573453 69.500000 10.000000
v -20.573453 69.500000 0.002287
v -5.866366 66.614478 0.002287
v -5.862368 66.500000 0.002287
v -5.862368 66.500000 10.000000
v -5.878339 66.728399 0.002287
v -5.866366 66.614478 10.000000
v -5.898230 66.841206 0.002287
v -5.878339 66.728399 10.000000
v -5.925942 66.952352 0.002287
v -5.898230 66.841206 10.000000
v -5.961339 67.061293 0.002287
v -5.925942 66.952352 10.000000
v -6.004250 67.167501 0.002287
v -5.961339 67.061293 10.000000
v -6.054464 67.270456 0.002287
v -6.004250 67.167501 10.000000
v -6.111738 67.369657 0.002287
v -6.054464 67.270456 10.000000
v -6.175793 67.464622 0.002287
v -6.111738 67.369657 10.000000
v -6.246315 67.554887 0.002287
v -6.175793 67.464622 10.000000
v -6.322963 67.640012 0.002287
v -6.246315 67.554887 10.000000
v -6.405362 67.719584 0.002287
v -6.322963 67.640012 10.000000
v -6.493111 67.793214 0.002287
v -6.405362 67.719584 10.000000
v -6.585782 67.860544 0.002287
v -6.493111 67.793214 10.000000
v -6.682924 67.921245 0.002287
v -6.585782 67.860544 10.000000
v -6.784064 67.975022 0.002287
v -6.682924 67.921245 10.000000
v -6.888709 68.021613 0.002287
v -6.784064 67.975022 10.000000
v -6.996349 68.060791 0.002287
v -6.888709 68.021613 10.000000
v -7.106459 68.092364 0.002287
v -6.996349 68.060791 10.000000
v -7.218504 68.116180 0.002287
v -7.106459 68.092364 10.000000
v -7.331938 68.132122 0.002287
v -7.218504 68.116180 10.000000
v -7.446206 68.140113 0.002287
v -7.331938 68.132122 10.000000
v -7.560754 68.140113 0.002287
v -7.446206 68.140113 10.000000
v -7.675023 68.132122 0.002287
v -7.560754 68.140113 10.000000
v -7.788457 68.116180 0.002287
v -7.675023 68.132122 10.000000
v -7.900502 68.092364 0.002287
v -7.788457 68.116180 10.000000
v -8.010612 68.060791 0.002287
v -7.900502 68.092364 10.000000
v -8.118252 68.021613 0.002287
v -8.010612 68.060791 10.000000
v -8.222897 67.975022 0.002287
v -8.118252 68.021613 10.000000
v -8.324037 67.921245 0.002287
v -8.222897 67.975022 10.000000
v -8.421179 67.860544 0.002287
v -8.324037 67.921245 10.000000
v -8.513850 67.793214 0.002287
v -8.421179 67.860544 10.000000
v -8.601599 67.719584 0.002287
v -8.513850 67.793214 10.000000
v -8.683998 67.640012 0.002287
v -8.601599 67.719584 10.000000
v -8.760646 67.554887 0.002287
v -8.683998 67.640012 10.000000
v -8.831168 67.464622 0.002287
v -8.760646 67.554887 10.000000
v -8.895223 67.369657 0.002287
v -8.831168 67.464622 10.000000
v -8.952497 67.270456 0.002287
v -8.895223 67.369657 10.000000
v -9.002711 67.167501 0.002287
v -8.952497 67.270456 10.000000
v -9.045622 67.061293 0.002287
v -9.002711 67.167501 10.000000
v -9.081019 66.952352 0.002287
v -9.045622 67.061293 10.000000
v -9.108731 66.841206 0.002287
v -9.081019 66.952352 10.000000
v -9.128622 66.728399 0.002287
v -9.108731 66.841206 10.000000
v -9.140595 66.614478 0.002287
v -9.128622 66.728399 10.000000
v -9.140595 66.614478 10.000000
v -5.108112 66.500000 0.002287
v -5.108112 66.500000 10.000000
v -1.898704 66.612075 0.002287
v -1.894790 66.500000 0.002287
v -1.894790 66.500000 10.000000
v -1.910426 66.723604 0.002287
v -1.898704 66.612075 10.000000
v -1.929900 66.834044 0.002287
v -1.910426 66.723604 10.000000
v -1.957030 66.942856 0.002287
v -1.929900 66.834044 10.000000
v -1.991684 67.049510 0.002287
v -1.957030 66.942856 10.000000
v -2.033694 67.153488 0.002287
v -1.991684 67.049510 10.000000
v -2.082854 67.254282 0.002287
v -2.033694 67.153488 10.000000
v -2.138926 67.351401 0.002287
v -2.082854 67.254282 10.000000
v -2.201635 67.444372 0.002287
v -2.138926 67.351401 10.000000
v -2.270678 67.532742 0.002287
v -2.201635 67.444372 10.000000
v -2.345716 67.616081 0.002287
v -2.270678 67.532742 10.000000
v -2.426385 67.693982 0.002287
v -2.345716 67.616081 10.000000
v -2.512292 67.766066 0.002287
v -2.426385 67.693982 10.000000
v -2.603018 67.831982 0.002287
v -2.512292 67.766066 10.000000
v -2.698121 67.891409 0.002287
v -2.603018 67.831982 10.000000
v -2.797138 67.944057 0.002287
v -2.698121 67.891409 10.000000
v -2.899586 67.989670 0.002287
v -2.797138 67.944057 10.000000
v -3.004966 68.028025 0.002287
v -2.899586 67.989670 10.000000
v -3.112765 68.058936 0.002287
v -3.004966 68.028025 10.000000
v -3.222458 68.082252 0.002287
v -3.112765 68.058936 10.000000
v -3.333510 68.097860 0.002287
v -3.222458 68.082252 10.000000
v -3.445380 68.105682 0.002287
v -3.333510 68.097860 10.000000
v -3.557523 68.105682 0.002287
v -3.445380 68.105682 10.000000
v -3.669393 68.097860 0.002287
v -3.557523 68.105682 10.000000
v -3.780445 68.082252 0.002287
v -3.669393 68.097860 10.000000
v -3.890138 68.058936 0.002287
v -3.780445 68.082252 10.000000
v -3.997937 68.028025 0.002287
v -3.890138 68.058936 10.000000
v -4.103317 67.989670 0.002287
v -3.997937 68.028025 10.000000
v -4.205765 67.944057 0.002287
v -4.103317 67.989670 10.000000
v -4.304782 67.891409 0.002287
v -4.205765 67.944057 10.000000
v -4.399885 67.831982 0.002287
v -4.304782 67.891409 10.000000
v -4.490611 67.766066 0.002287
v -4.399885 67.831982 10.000000
v -4.576517 67.693982 0.002287
v -4.490611 67.766066 10.000000
v -4.657187 67.616081 0.002287
v -4.576517 67.693982 10.000000
v -4.732225 67.532742 0.002287
v -4.657187 67.616081 10.000000
v -4.801268 67.444372 0.002287
v -4.732225 67.532742 10.000000
v -4.863977 67.351401 0.002287
v -4.801268 67.444372 10.000000
v -4.920049 67.254282 0.002287
v -4.863977 67.351401 10.000000
v -4.969209 67.153488 0.002287
v -4.920049 67.254282 10.000000
v -5.011219 67.049510 0.002287
v -4.969209 67.153488 10.000000
v -5.045873 66.942856 0.002287
v -5.011219 67.049510 10.000000
v -5.073003 66.834044 0.002287
v -5.045873 66.942856 10.000000
v -5.092477 66.723604 0.002287
v -5.073003 66.834044 10.000000
v -5.104199 66.612075 0.002287
v -5.092477 66.723604 10.000000
v -5.104199 66.612075 10.000000
v -20.572467 69.562822 9.999013
v -20.569507 69.625581 9.996053
v -20.569507 69.625581 0.002287
v -20.564577 69.688217 9.991124
v -20.557683 69.750666 9.984229
v -20.557683 69.750666 0.002287
v -20.548830 69.812869 9.975377
v -20.538028 69.874763 9.964575
v -20.538028 69.874763 0.002287
v -20.525287 69.936286 9.951834
v -20.510620 69.997380 9.937166
v -20.510620 69.997380 0.002287
v -20.494041 70.057982 9.920587
v -20.475566 70.118034 9.902113
v -20.475566 70.118034 0.002287
v -20.455215 70.177476 9.881762
v -20.433006 70.236249 9.859553
v -20.433006 70.236249 0.002287
v -20.408963 70.294296 9.835509
v -20.383108 70.351559 9.809654
v -20.383108 70.351559 0.002287
v -20.355466 70.407981 9.782013
v -20.326067 70.463507 9.752613
v -20.326067 70.463507 0.002287
v -20.294937 70.518083 9.721484
v -20.262109 70.571654 9.688656
v -20.262109 70.571654 0.002287
v -20.227615 70.624167 9.654161
v -20.191487 70.675571 9.618034
v -20.191487 70.675571 0.002287
v -20.153763 70.725814 9.580310
v -20.114480 70.774848 9.541026
v -20.114480 70.774848 0.002287
v -20.073676 70.822624 9.500222
v -20.031391 70.869094 9.457937
v -20.031391 70.869094 0.002287
v -19.987667 70.914214 9.414214
v -19.942548 70.957937 9.369094
v -19.942548 70.957937 0.002287
v -19.896077 71.000222 9.322624
v -19.848301 71.041026 9.274848
v -19.848301 71.041026 0.002287
v -19.799268 71.080310 9.225814
v -19.749024 71.118034 9.175571
v -19.749024 71.118034 0.002287
v -19.697620 71.154161 9.124167
v -19.645107 71.188656 9.071654
v -19.645107 71.188656 0.002287
v -19.591536 71.221484 9.018083
v -19.536961 71.252613 8.963507
v -19.536961 71.252613 0.002287
v -19.481434 71.282013 8.907981
v -19.425012 71.309654 8.851559
v -19.425012 71.309654 0.002287
v -19.367749 71.335509 8.794296
v -19.309703 71.359553 8.736249
v -19.309703 71.359553 0.002287
v -19.250929 71.381762 8.677476
v -19.191487 71.402113 8.618034
v -19.191487 71.402113 0.002287
v -19.131436 71.420587 8.557982
v -19.070833 71.437166 8.497380
v -19.070833 71.437166 0.002287
v -19.009740 71.451834 8.436286
v -18.948216 71.464575 8.374763
v -18.948216 71.464575 0.002287
v -18.886322 71.475377 8.312869
v -18.824120 71.484229 8.250666
v -18.824120 71.484229 0.002287
v -18.761670 71.491124 8.188217
v -18.699034 71.496053 8.125581
v -18.699034 71.496053 0.002287
v -18.636275 71.499013 8.062822
v -18.573453 71.500000 8.000000
v -18.573453 71.500000 0.002287
v 9.471974 66.500000 10.000000
v 9.471974 69.500000 10.000000
v 8.435482 71.252613 0.002287
v 8.543628 71.188656 0.002287
v 8.090008 71.402113 0.002287
v 8.208223 71.359553 0.002287
v 8.647545 71.118034 0.002287
v 8.323533 71.309654 0.002287
v 9.090008 70.675571 0.002287
v 9.160630 70.571654 0.002287
v 8.841068 70.957937 0.002287
v 9.436549 69.874763 0.002287
v 9.456204 69.750666 0.002287
v 7.471974 71.500000 0.002287
v 8.746822 71.041026 0.002287
v 7.969354 71.437166 0.002287
v 7.722641 71.484229 0.002287
v 9.224588 70.463507 0.002287
v 8.929911 70.869094 0.002287
v 9.468028 69.625581 0.002287
v 9.374087 70.118034 0.002287
v 9.409141 69.997380 0.002287
v 7.597555 71.496053 0.002287
v 7.846737 71.464575 0.002287
v 9.281628 70.351559 0.002287
v 9.013001 70.774848 0.002287
v 9.331527 70.236249 0.002287
v 9.471974 66.500000 0.002287
v 9.471974 69.500000 0.002287
v 7.471974 71.500000 8.000000
v 7.534796 71.499013 8.062822
v 7.597555 71.496053 8.125581
v 7.660191 71.491124 8.188217
v 7.722641 71.484229 8.250666
v 7.784843 71.475377 8.312869
v 7.846737 71.464575 8.374763
v 7.908261 71.451834 8.436286
v 7.969354 71.437166 8.497380
v 8.029956 71.420587 8.557982
v 8.090008 71.402113 8.618034
v 8.149450 71.381762 8.677476
v 8.208223 71.359553 8.736249
v 8.266270 71.335509 8.794296
v 8.323533 71.309654 8.851559
v 8.379955 71.282013 8.907981
v 8.435482 71.252613 8.963507
v 8.490057 71.221484 9.018083
v 8.543628 71.188656 9.071654
v 8.596141 71.154161 9.124167
v 8.647545 71.118034 9.175571
v 8.697788 71.080310 9.225814
v 8.746822 71.041026 9.274848
v 8.794598 71.000222 9.322624
v 8.841068 70.957937 9.369094
v 8.886188 70.914214 9.414214
v 8.929911 70.869094 9.457937
v 8.972196 70.822624 9.500222
v 9.013001 70.774848 9.541026
v 9.052284 70.725814 9.580310
v 9.090008 70.675571 9.618034
v 9.126135 70.624167 9.654161
v 9.160630 70.571654 9.688656
v 9.193458 70.518083 9.721484
v 9.224588 70.463507 9.752613
v 9.253987 70.407981 9.782013
v 9.281628 70.351559 9.809654
v 9.307483 70.294296 9.835509
v 9.331527 70.236249 9.859553
v 9.353736 70.177476 9.881762
v 9.374087 70.118034 9.902113
v 9.392562 70.057982 9.920587
v 9.409141 69.997380 9.937166
v 9.423808 69.936286 9.951834
v 9.436549 69.874763 9.964575
v 9.447351 69.812869 9.975377
v 9.456204 69.750666 9.984229
v 9.463098 69.688217 9.991124
v 9.468028 69.625581 9.996053
v 9.470987 69.562822 9.999013
v 3.520125 71.500000 5.679275
v 3.469837 71.500000 5.785015
v 3.598500 71.500000 5.458748
v 3.563079 71.500000 5.570350
v 3.646117 71.500000 5.229603
v 3.626222 71.500000 5.344989
v 0.296133 71.500000 4.533468
v 0.331553 71.500000 4.421866
v 2.838284 71.500000 6.461243
v 2.736223 71.500000 6.518629
v 3.412451 71.500000 5.887076
v 3.662088 71.500000 4.996108
v 3.658091 71.500000 5.113128
v 1.947316 71.500000 3.281336
v 2.064336 71.500000 3.285334
v 1.484676 71.500000 3.344924
v 1.598436 71.500000 3.317202
v 0.268410 71.500000 4.647227
v 0.236542 71.500000 5.113128
v 0.232544 71.500000 4.996108
v 2.936192 71.500000 6.397025
v 3.117739 71.500000 6.249325
v 3.029488 71.500000 6.326276
v 3.277484 71.500000 6.078280
v 3.200533 71.500000 6.166531
v 3.658091 71.500000 4.879088
v 3.646117 71.500000 4.762613
v 3.598500 71.500000 4.533468
v 3.626222 71.500000 4.647227
v 3.200533 71.500000 3.825685
v 3.277484 71.500000 3.913936
v 3.029488 71.500000 3.665940
v 3.117739 71.500000 3.742891
v 1.830296 71.500000 3.285334
v 1.713821 71.500000 3.297308
v 1.264149 71.500000 3.423300
v 1.373074 71.500000 3.380345
v 0.248516 71.500000 4.762613
v 0.268410 71.500000 5.344989
v 0.248516 71.500000 5.229603
v 3.348233 71.500000 5.984984
v 2.838284 71.500000 3.530974
v 2.936192 71.500000 3.595191
v 2.409956 71.500000 3.344924
v 2.521558 71.500000 3.380345
v 2.180811 71.500000 3.297308
v 2.296197 71.500000 3.317202
v 0.482182 71.500000 4.105140
v 0.546399 71.500000 4.007233
v 0.236542 71.500000 4.879088
v 0.296133 71.500000 5.458748
v 0.374508 71.500000 5.679275
v 0.331553 71.500000 5.570350
v 3.520125 71.500000 4.312941
v 3.563079 71.500000 4.421866
v 2.630483 71.500000 3.423300
v 2.736223 71.500000 3.473587
v 0.865144 71.500000 3.665940
v 0.958441 71.500000 3.595191
v 0.694099 71.500000 3.825685
v 0.776893 71.500000 3.742891
v 0.424795 71.500000 4.207201
v 1.264149 71.500000 6.568917
v 1.158410 71.500000 6.518629
v 1.598436 71.500000 6.675014
v 1.484676 71.500000 6.647292
v 3.469837 71.500000 4.207201
v 1.056348 71.500000 3.530974
v 0.617148 71.500000 3.913936
v 0.374508 71.500000 4.312941
v 0.482182 71.500000 5.887076
v 0.424795 71.500000 5.785015
v 0.958441 71.500000 6.397025
v 0.865144 71.500000 6.326276
v 1.056348 71.500000 6.461243
v 1.373074 71.500000 6.611871
v 3.348233 71.500000 4.007233
v 3.412451 71.500000 4.105140
v 1.158410 71.500000 3.473587
v 0.776893 71.500000 6.249325
v 1.713821 71.500000 6.694909
v 0.617148 71.500000 6.078280
v 0.546399 71.500000 5.984984
v 0.694099 71.500000 6.166531
v 1.947316 71.500000 6.710880
v 1.830296 71.500000 6.706883
v 2.521558 71.500000 6.611871
v 2.409956 71.500000 6.647292
v 2.296197 71.500000 6.675014
v 2.180811 71.500000 6.694909
v 2.630483 71.500000 6.568917
v 2.064336 71.500000 6.706883
v 3.658091 66.500000 5.113128
v 3.662088 66.500000 4.996108
v 3.646117 66.500000 4.762613
v 3.626222 66.500000 4.647227
v 3.646117 66.500000 5.229603
v 3.658091 66.500000 4.879088
v 3.598500 66.500000 5.458748
v 3.626222 66.500000 5.344989
v 3.520125 66.500000 5.679275
v 3.563079 66.500000 5.570350
v 0.232544 66.500000 4.996108
v 3.412451 66.500000 5.887076
v 3.469837 66.500000 5.785015
v 2.630483 66.500000 6.568917
v 2.736223 66.500000 6.518629
v 0.236542 66.500000 5.113128
v 0.248516 66.500000 5.229603
v 0.236542 66.500000 4.879088
v 2.180811 66.500000 3.297308
v 3.200533 66.500000 3.825685
v 3.117739 66.500000 3.742891
v 3.348233 66.500000 4.007233
v 3.277484 66.500000 3.913936
v 3.598500 66.500000 4.533468
v 3.563079 66.500000 4.421866
v 3.348233 66.500000 5.984984
v 3.117739 66.500000 6.249325
v 3.200533 66.500000 6.166531
v 2.936192 66.500000 6.397025
v 3.029488 66.500000 6.326276
v 2.838284 66.500000 6.461243
v 0.296133 66.500000 5.458748
v 0.331553 66.500000 5.570350
v 0.268410 66.500000 5.344989
v 0.248516 66.500000 4.762613
v 0.374508 66.500000 4.312941
v 0.331553 66.500000 4.421866
v 1.830296 66.500000 3.285334
v 1.713821 66.500000 3.297308
v 2.064336 66.500000 3.285334
v 2.409956 66.500000 3.344924
v 2.296197 66.500000 3.317202
v 3.029488 66.500000 3.665940
v 2.936192 66.500000 3.595191
v 3.520125 66.500000 4.312941
v 3.277484 66.500000 6.078280
v 1.713821 66.500000 6.694909
v 1.830296 66.500000 6.706883
v 1.373074 66.500000 6.611871
v 1.484676 66.500000 6.647292
v 1.056348 66.500000 6.461243
v 1.158410 66.500000 6.518629
v 0.776893 66.500000 6.249325
v 0.865144 66.500000 6.326276
v 0.374508 66.500000 5.679275
v 0.424795 66.500000 5.785015
v 0.268410 66.500000 4.647227
v 0.296133 66.500000 4.533468
v 0.482182 66.500000 4.105140
v 0.424795 66.500000 4.207201
v 0.617148 66.500000 3.913936
v 0.546399 66.500000 4.007233
v 0.865144 66.500000 3.665940
v 0.776893 66.500000 3.742891
v 1.056348 66.500000 3.530974
v 0.958441 66.500000 3.595191
v 1.484676 66.500000 3.344924
v 1.373074 66.500000 3.380345
v 1.598436 66.500000 3.317202
v 2.630483 66.500000 3.423300
v 2.521558 66.500000 3.380345
v 2.838284 66.500000 3.530974
v 2.736223 66.500000 3.473587
v 1.947316 66.500000 6.710880
v 1.264149 66.500000 6.568917
v 0.958441 66.500000 6.397025
v 0.694099 66.500000 6.166531
v 0.694099 66.500000 3.825685
v 1.158410 66.500000 3.473587
v 3.469837 66.500000 4.207201
v 3.412451 66.500000 4.105140
v 2.296197 66.500000 6.675014
v 2.409956 66.500000 6.647292
v 2.064336 66.500000 6.706883
v 2.180811 66.500000 6.694909
v 1.598436 66.500000 6.675014
v 0.617148 66.500000 6.078280
v 0.482182 66.500000 5.887076
v 0.546399 66.500000 5.984984
v 1.264149 66.500000 3.423300
v 1.947316 66.500000 3.281336
v 2.521558 66.500000 6.611871
usemtl poklopac_za_kabloveMaterial0
f 1 2 3
f 4 1 5
f 6 4 7
f 8 6 9
f 10 8 11
f 12 10 13
f 14 12 15
f 16 14 17
f 18 16 19
f 20 18 21
f 22 20 23
f 24 22 25
f 26 24 27
f 28 26 29
f 30 28 31
f 32 30 33
f 34 32 35
f 36 34 37
f 38 36 39
f 40 38 41
f 42 40 43
f 44 42 45
f 46 44 47
f 48 46 49
f 50 48 51
f 52 50 53
f 54 52 55
f 56 54 57
f 58 56 59
f 60 58 61
f 62 60 63
f 64 62 65
f 66 64 67
f 68 66 69
f 70 68 71
f 72 70 73
f 74 72 75
f 76 74 77
f 78 76 79
f 80 78 81
f 82 80 83
f 84 82 85
f 86 84 87
f 88 86 89
f 90 88 91
f 92 90 93
f 94 92 95
f 96 94 97
f 98 96 99
f 100 98 101
f 102 100 103
f 104 102 105
f 106 104 107
f 108 106 109
f 110 108 111
f 112 110 113
f 114 112 115
f 116 114 117
f 118 116 119
f 120 118 121
f 122 120 123
f 124 122 125
f 126 124 127
f 128 126 129
f 130 128 131
f 132 130 133
f 134 132 135
f 136 134 137
f 138 136 139
f 140 138 141
f 142 140 143
f 144 142 145
f 146 144 147
f 148 146 149
f 150 148 151
f 152 150 153
f 154 152 155
f 156 154 157
f 158 156 159
f 160 158 161
f 162 160 163
f 164 162 165
f 166 164 167
f 168 166 169
f 170 168 171
f 172 170 173
f 174 172 175
f 176 174 177
f 178 176 179
f 180 178 181
f 182 180 183
f 2 182 184
f 184 3 2
f 183 184 182
f 181 183 180
f 179 181 178
f 177 179 176
f 175 177 174
f 173 175 172
f 171 173 170
f 169 171 168
f 167 169 166
f 165 167 164
f 163 165 162
f 161 163 160
f 159 161 158
f 157 159 156
f 155 157 154
f 153 155 152
f 151 153 150
f 149 151 148
f 147 149 146
f 145 147 144
f 143 145 142
f 141 143 140
f 139 141 138
f 137 139 136
f 135 137 134
f 133 135 132
f 131 133 130
f 129 131 128
f 127 129 126
f 125 127 124
f 123 125 122
f 121 123 120
f 119 121 118
f 117 119 116
f 115 117 114
f 113 115 112
f 111 113 110
f 109 111 108
f 107 109 106
f 105 107 104
f 103 105 102
f 101 103 100
f 99 101 98
f 97 99 96
f 95 97 94
f 93 95 92
f 91 93 90
f 89 91 88
f 87 89 86
f 85 87 84
f 83 85 82
f 81 83 80
f 79 81 78
f 77 79 76
f 75 77 74
f 73 75 72
f 71 73 70
f 69 71 68
f 67 69 66
f 65 67 64
f 63 65 62
f 61 63 60
f 59 61 58
f 57 59 56
f 55 57 54
f 53 55 52
f 51 53 50
f 49 51 48
f 47 49 46
f 45 47 44
f 43 45 42
f 41 43 40
f 39 41 38
f 37 39 36
f 35 37 34
f 33 35 32
f 31 33 30
f 29 31 28
f 27 29 26
f 25 27 24
f 23 25 22
f 21 23 20
f 19 21 18
f 17 19 16
f 15 17 14
f 13 15 12
f 11 13 10
f 9 11 8
f 7 9 6
f 5 7 4
f 3 5 1
f 185 120 122
f 185 124 126
f 185 118 120
f 126 128 185
f 185 116 118
f 185 112 114
f 122 124 185
f 185 110 112
f 185 104 106
f 185 94 96
f 114 116 185
f 106 108 185
f 185 100 102
f 96 98 185
f 185 186 88
f 186 76 78
f 186 72 74
f 108 110 185
f 98 100 185
f 186 86 88
f 186 80 82
f 74 76 186
f 187 32 34
f 187 20 22
f 188 185 138
f 102 104 185
f 185 90 92
f 186 84 86
f 78 80 186
f 186 54 56
f 34 36 187
f 187 28 30
f 22 24 187
f 187 16 18
f 188 1 4
f 188 160 162
f 188 152 154
f 188 142 144
f 138 140 188
f 185 134 136
f 185 130 132
f 92 94 185
f 82 84 186
f 186 66 68
f 186 60 62
f 56 58 186
f 187 44 46
f 30 32 187
f 24 26 187
f 187 14 16
f 187 10 12
f 187 6 8
f 4 187 188
f 188 180 182
f 188 170 172
f 162 164 188
f 188 150 152
f 188 146 148
f 140 142 188
f 132 134 185
f 88 90 185
f 186 64 66
f 58 60 186
f 186 50 52
f 186 46 48
f 187 42 44
f 187 38 40
f 26 28 187
f 12 14 187
f 4 6 187
f 188 178 180
f 188 174 176
f 188 168 170
f 164 166 188
f 148 150 188
f 136 138 185
f 186 70 72
f 62 64 186
f 48 50 186
f 40 42 187
f 18 20 187
f 188 2 1
f 176 178 188
f 166 168 188
f 144 146 188
f 68 70 186
f 46 186 187
f 8 10 187
f 172 174 188
f 188 156 158
f 128 130 185
f 36 38 187
f 158 160 188
f 52 54 186
f 154 156 188
f 182 2 188
f 187 186 189
f 189 190 187
f 191 192 193
f 194 191 195
f 196 194 197
f 198 196 199
f 200 198 201
f 202 200 203
f 204 202 205
f 206 204 207
f 208 206 209
f 210 208 211
f 212 210 213
f 214 212 215
f 216 214 217
f 218 216 219
f 220 218 221
f 222 220 223
f 224 222 225
f 226 224 227
f 228 226 229
f 230 228 231
f 232 230 233
f 234 232 235
f 236 234 237
f 238 236 239
f 240 238 241
f 242 240 243
f 244 242 245
f 246 244 247
f 248 246 249
f 250 248 251
f 252 250 253
f 254 252 255
f 256 254 257
f 258 256 259
f 260 258 261
f 262 260 263
f 264 262 265
f 266 264 267
f 268 266 269
f 270 268 271
f 272 270 273
f 274 272 275
f 276 274 277
f 278 276 279
f 188 278 280
f 280 185 188
f 279 280 278
f 277 279 276
f 275 277 274
f 273 275 272
f 271 273 270
f 269 271 268
f 267 269 266
f 265 267 264
f 263 265 262
f 261 263 260
f 259 261 258
f 257 259 256
f 255 257 254
f 253 255 252
f 251 253 250
f 249 251 248
f 247 249 246
f 245 247 244
f 243 245 242
f 241 243 240
f 239 241 238
f 237 239 236
f 235 237 234
f 233 235 232
f 231 233 230
f 229 231 228
f 227 229 226
f 225 227 224
f 223 225 222
f 221 223 220
f 219 221 218
f 217 219 216
f 215 217 214
f 213 215 212
f 211 213 210
f 209 211 208
f 207 209 206
f 205 207 204
f 203 205 202
f 201 203 200
f 199 201 198
f 197 199 196
f 195 197 194
f 193 195 191
f 192 281 282
f 282 193 192
f 283 284 285
f 286 283 287
f 288 286 289
f 290 288 291
f 292 290 293
f 294 292 295
f 296 294 297
f 298 296 299
f 300 298 301
f 302 300 303
f 304 302 305
f 306 304 307
f 308 306 309
f 310 308 311
f 312 310 313
f 314 312 315
f 316 314 317
f 318 316 319
f 320 318 321
f 322 320 323
f 324 322 325
f 326 324 327
f 328 326 329
f 330 328 331
f 332 330 333
f 334 332 335
f 336 334 337
f 338 336 339
f 340 338 341
f 342 340 343
f 344 342 345
f 346 344 347
f 348 346 349
f 350 348 351
f 352 350 353
f 354 352 355
f 356 354 357
f 358 356 359
f 360 358 361
f 362 360 363
f 364 362 365
f 366 364 367
f 368 366 369
f 370 368 371
f 281 370 372
f 372 282 281
f 371 372 370
f 369 371 368
f 367 369 366
f 365 367 364
f 363 365 362
f 361 363 360
f 359 361 358
f 357 359 356
f 355 357 354
f 353 355 352
f 351 353 350
f 349 351 348
f 347 349 346
f 345 347 344
f 343 345 342
f 341 343 340
f 339 341 338
f 337 339 336
f 335 337 334
f 333 335 332
f 331 333 330
f 329 331 328
f 327 329 326
f 325 327 324
f 323 325 322
f 321 323 320
f 319 321 318
f 317 319 316
f 315 317 314
f 313 315 312
f 311 313 310
f 309 311 308
f 307 309 306
f 305 307 304
f 303 305 302
f 301 303 300
f 299 301 298
f 297 299 296
f 295 297 294
f 293 295 292
f 291 293 290
f 289 291 288
f 287 289 286
f 285 287 283
f 190 373 374
f 190 189 373
f 375 376 377
f 375 374 376
f 378 379 380
f 378 377 379
f 381 382 383
f 381 380 382
f 384 385 386
f 384 383 385
f 387 388 389
f 387 386 388
f 390 391 392
f 390 389 391
f 393 394 395
f 393 392 394
f 396 397 398
f 396 395 397
f 399 400 401
f 399 398 400
f 402 403 404
f 402 401 403
f 405 406 407
f 405 404 406
f 408 409 410
f 408 407 409
f 411 412 413
f 411 410 412
f 414 415 416
f 414 413 415
f 417 418 419
f 417 416 418
f 420 421 422
f 420 419 421
f 423 424 425
f 423 422 424
f 426 427 428
f 426 425 427
f 429 430 431
f 429 428 430
f 432 433 434
f 432 431 433
f 435 436 437
f 435 434 436
f 438 439 440
f 438 437 439
f 441 442 443
f 441 440 442
f 444 445 446
f 444 443 445
f 446 447 444
f 443 444 441
f 440 441 438
f 437 438 435
f 434 435 432
f 431 432 429
f 428 429 426
f 425 426 423
f 422 423 420
f 419 420 417
f 416 417 414
f 413 414 411
f 410 411 408
f 407 408 405
f 404 405 402
f 401 402 399
f 398 399 396
f 395 396 393
f 392 393 390
f 389 390 387
f 386 387 384
f 383 384 381
f 380 381 378
f 377 378 375
f 374 375 190
f 199 197 369
f 205 353 351
f 371 197 195
f 372 195 193
f 201 367 365
f 367 201 199
f 205 355 353
f 205 359 357
f 205 363 361
f 193 282 372
f 369 367 199
f 363 205 203
f 351 349 205
f 361 359 205
f 195 372 371
f 203 201 363
f 357 355 205
f 365 363 201
f 347 209 207
f 347 213 211
f 371 369 197
f 211 209 347
f 343 223 221
f 213 347 345
f 207 205 347
f 343 217 215
f 221 219 343
f 343 227 225
f 343 231 229
f 343 237 235
f 349 347 205
f 219 217 343
f 229 227 343
f 235 233 343
f 233 231 343
f 189 243 241
f 189 271 269
f 189 275 273
f 215 213 343
f 189 239 237
f 189 245 243
f 241 239 189
f 189 249 247
f 273 271 189
f 189 279 277
f 225 223 343
f 237 341 189
f 237 343 341
f 247 245 189
f 189 253 251
f 189 267 265
f 277 275 189
f 186 280 279
f 448 449 289
f 449 293 291
f 449 297 295
f 449 301 299
f 449 305 303
f 449 311 309
f 189 335 333
f 345 343 213
f 251 249 189
f 189 257 255
f 269 267 189
f 186 185 280
f 289 287 448
f 295 293 449
f 303 301 449
f 309 307 449
f 449 319 317
f 189 337 335
f 333 449 189
f 189 259 257
f 189 263 261
f 279 189 186
f 291 289 449
f 307 305 449
f 317 315 449
f 315 313 449
f 449 331 329
f 333 331 449
f 255 253 189
f 265 263 189
f 299 297 449
f 449 327 325
f 329 327 449
f 189 341 339
f 261 259 189
f 313 311 449
f 449 323 321
f 321 319 449
f 339 337 189
f 325 323 449
f 287 285 448
f 196 364 366
f 366 194 196
f 198 360 362
f 370 281 192
f 368 370 191
f 202 348 350
f 344 208 210
f 360 198 200
f 362 364 198
f 191 194 368
f 202 356 358
f 350 352 202
f 202 344 346
f 272 411 414
f 270 426 429
f 210 212 344
f 344 202 204
f 196 198 364
f 194 366 368
f 202 354 356
f 346 348 202
f 272 408 411
f 272 402 405
f 270 423 426
f 270 417 420
f 212 214 344
f 204 206 344
f 192 191 370
f 352 354 202
f 292 450 451
f 292 452 453
f 405 408 272
f 272 396 399
f 270 441 444
f 270 435 438
f 429 432 270
f 270 414 417
f 447 256 258
f 206 208 344
f 358 360 202
f 451 454 292
f 453 455 292
f 290 456 457
f 290 292 458
f 288 459 460
f 272 384 387
f 272 375 378
f 272 274 190
f 399 402 272
f 272 390 393
f 438 441 270
f 420 423 270
f 268 444 447
f 258 260 447
f 447 250 252
f 447 246 248
f 447 242 244
f 344 216 218
f 200 202 360
f 220 340 342
f 294 296 461
f 454 462 292
f 292 463 452
f 292 294 464
f 457 465 290
f 458 466 290
f 460 467 288
f 288 468 469
f 272 381 384
f 190 375 272
f 393 396 272
f 432 435 270
f 447 264 266
f 260 262 447
f 252 254 447
f 244 246 447
f 447 338 230
f 338 224 226
f 338 220 222
f 214 216 344
f 220 338 340
f 461 470 294
f 455 450 292
f 464 471 292
f 465 472 290
f 466 473 290
f 469 459 288
f 288 290 474
f 378 381 272
f 444 268 270
f 262 264 447
f 248 250 447
f 447 238 240
f 230 232 447
f 222 224 338
f 342 344 220
f 461 298 300
f 470 464 294
f 471 463 292
f 473 456 290
f 474 468 288
f 475 283 286
f 187 190 276
f 387 390 272
f 447 266 268
f 240 242 447
f 447 234 236
f 338 228 230
f 218 220 344
f 296 298 461
f 472 474 290
f 476 286 288
f 475 284 283
f 276 278 187
f 414 270 272
f 236 238 447
f 254 256 447
f 226 228 338
f 447 330 332
f 461 310 312
f 461 304 306
f 462 458 292
f 286 476 475
f 274 276 190
f 232 234 447
f 447 328 330
f 332 334 447
f 461 326 328
f 461 320 322
f 312 314 461
f 461 302 304
f 467 476 288
f 447 334 336
f 328 447 461
f 322 324 461
f 461 308 310
f 300 302 461
f 336 338 447
f 324 326 461
f 461 316 318
f 306 308 461
f 314 316 461
f 318 320 461
f 278 188 187
f 448 475 476
f 476 449 448
f 470 461 477
f 477 478 470
f 464 470 479
f 479 480 464
f 471 464 481
f 481 482 471
f 463 471 483
f 483 484 463
f 452 463 485
f 485 486 452
f 453 452 487
f 487 488 453
f 455 453 489
f 489 490 455
f 450 455 491
f 491 492 450
f 451 450 493
f 493 494 451
f 454 451 495
f 495 496 454
f 462 454 497
f 497 498 462
f 458 462 499
f 499 500 458
f 466 458 501
f 501 502 466
f 473 466 503
f 503 504 473
f 456 473 505
f 505 506 456
f 457 456 507
f 507 508 457
f 465 457 509
f 509 510 465
f 472 465 511
f 511 512 472
f 474 472 513
f 513 514 474
f 468 474 515
f 515 516 468
f 469 468 517
f 517 518 469
f 459 469 519
f 519 520 459
f 460 459 521
f 521 522 460
f 467 460 523
f 523 524 467
f 476 467 525
f 525 526 476
f 526 449 476
f 524 525 467
f 522 523 460
f 520 521 459
f 518 519 469
f 516 517 468
f 514 515 474
f 512 513 472
f 510 511 465
f 508 509 457
f 506 507 456
f 504 505 473
f 502 503 466
f 500 501 458
f 498 499 462
f 496 497 454
f 494 495 451
f 492 493 450
f 490 491 455
f 488 489 453
f 486 487 452
f 484 485 463
f 482 483 471
f 480 481 464
f 478 479 470
f 478 477 446
f 446 445 478
f 443 479 478
f 480 479 443
f 443 442 480
f 440 481 480
f 482 481 440
f 440 439 482
f 437 483 482
f 484 483 437
f 437 436 484
f 434 485 484
f 433 486 485
f 433 487 486
f 485 434 433
f 488 487 431
f 431 430 488
f 428 489 488
f 490 489 428
f 427 491 490
f 428 427 490
f 424 492 491
f 424 493 492
f 491 425 424
f 421 494 493
f 421 495 494
f 493 422 421
f 418 496 495
f 495 419 418
f 416 497 496
f 415 498 497
f 497 416 415
f 413 499 498
f 500 499 413
f 413 412 500
f 410 501 500
f 409 502 501
f 409 503 502
f 501 410 409
f 504 503 407
f 407 406 504
f 404 505 504
f 403 506 505
f 403 507 506
f 505 404 403
f 400 508 507
f 507 401 400
f 398 509 508
f 510 509 398
f 398 397 510
f 395 511 510
f 394 512 511
f 394 513 512
f 511 395 394
f 391 514 513
f 391 515 514
f 513 392 391
f 388 516 515
f 388 517 516
f 515 389 388
f 385 518 517
f 385 519 518
f 517 386 385
f 520 519 383
f 383 382 520
f 380 521 520
f 522 521 380
f 380 379 522
f 377 523 522
f 524 523 377
f 377 376 524
f 374 525 524
f 526 525 374
f 374 373 526
f 189 449 526
f 373 189 526
f 376 374 524
f 379 377 522
f 382 380 520
f 385 383 519
f 388 386 517
f 391 389 515
f 394 392 513
f 397 395 510
f 400 398 508
f 403 401 507
f 406 404 504
f 409 407 503
f 412 410 500
f 415 413 498
f 418 416 496
f 421 419 495
f 424 422 493
f 427 425 491
f 430 428 488
f 433 431 487
f 436 434 484
f 439 437 482
f 442 440 480
f 445 443 478
f 477 527 528
f 477 529 530
f 477 531 532
f 141 533 534
f 477 535 536
f 528 537 477
f 532 529 477
f 477 538 539
f 461 540 541
f 461 542 543
f 141 544 533
f 545 546 141
f 477 547 535
f 477 548 549
f 477 550 551
f 530 527 477
f 477 552 538
f 477 461 553
f 461 554 555
f 461 556 557
f 461 558 559
f 461 560 540
f 543 561 461
f 561 560 461
f 141 562 563
f 141 564 544
f 141 139 545
f 137 565 566
f 549 547 477
f 477 567 550
f 539 531 477
f 555 553 461
f 559 556 461
f 461 568 569
f 461 570 571
f 461 572 573
f 563 461 141
f 563 542 461
f 141 574 575
f 141 576 564
f 139 137 545
f 137 577 565
f 137 578 579
f 551 548 477
f 553 552 477
f 461 580 581
f 569 558 461
f 461 582 583
f 573 570 461
f 141 584 585
f 141 586 587
f 141 588 574
f 546 576 141
f 579 577 137
f 133 589 590
f 133 591 592
f 537 567 477
f 461 593 580
f 583 568 461
f 541 572 461
f 585 594 141
f 141 595 586
f 141 596 588
f 566 545 137
f 137 597 598
f 133 599 600
f 590 601 133
f 592 602 133
f 602 589 133
f 447 3 184
f 581 554 461
f 461 603 604
f 571 582 461
f 594 605 141
f 575 595 141
f 598 578 137
f 600 606 133
f 601 599 133
f 133 477 607
f 461 167 165
f 461 171 169
f 461 177 175
f 447 183 181
f 447 5 3
f 604 593 461
f 605 562 141
f 597 137 135
f 534 596 141
f 133 608 609
f 606 610 133
f 607 591 133
f 477 611 612
f 169 167 461
f 165 163 461
f 175 173 461
f 461 181 179
f 184 183 447
f 477 127 125
f 477 613 614
f 557 603 461
f 587 584 141
f 610 608 133
f 612 607 477
f 173 171 461
f 181 461 447
f 447 9 7
f 447 13 11
f 447 23 21
f 447 27 25
f 447 39 37
f 446 79 77
f 446 83 81
f 125 123 477
f 477 131 129
f 477 615 616
f 477 617 613
f 135 133 597
f 179 177 461
f 11 9 447
f 447 17 15
f 21 19 447
f 447 29 27
f 447 35 33
f 447 41 39
f 81 79 446
f 446 87 85
f 446 93 91
f 477 101 99
f 477 107 105
f 477 119 117
f 123 121 477
f 477 133 131
f 614 615 477
f 609 597 133
f 7 5 447
f 19 17 447
f 447 31 29
f 37 35 447
f 446 47 45
f 446 61 59
f 85 83 446
f 91 89 446
f 99 446 477
f 99 97 446
f 105 103 477
f 103 101 477
f 477 113 111
f 117 115 477
f 129 127 477
f 536 617 477
f 461 145 143
f 461 149 147
f 461 159 157
f 15 13 447
f 33 31 447
f 447 45 43
f 446 49 47
f 446 53 51
f 446 57 55
f 446 63 61
f 446 67 65
f 446 73 71
f 89 87 446
f 111 109 477
f 109 107 477
f 121 119 477
f 616 618 477
f 147 145 461
f 461 153 151
f 157 155 461
f 461 163 161
f 25 23 447
f 45 447 446
f 55 53 446
f 65 63 446
f 71 69 446
f 77 75 446
f 115 113 477
f 143 141 461
f 155 153 461
f 51 49 446
f 69 67 446
f 446 95 93
f 151 149 461
f 43 41 447
f 75 73 446
f 618 611 477
f 59 57 446
f 161 159 461
f 97 95 446
f 448 619 620
f 475 621 622
f 448 623 619
f 475 624 621
f 620 475 448
f 448 625 626
f 448 627 628
f 285 284 629
f 620 624 475
f 628 625 448
f 448 630 631
f 448 632 633
f 285 634 635
f 284 636 629
f 284 475 637
f 475 638 639
f 475 640 641
f 475 642 643
f 626 623 448
f 448 644 630
f 448 645 646
f 448 647 648
f 633 649 448
f 285 650 651
f 635 652 285
f 284 653 636
f 284 654 655
f 284 656 657
f 637 658 284
f 475 659 660
f 475 661 662
f 641 638 475
f 643 663 475
f 631 627 448
f 646 664 448
f 649 647 448
f 285 665 666
f 285 667 668
f 285 669 670
f 285 671 672
f 285 673 674
f 652 650 285
f 284 675 653
f 655 676 284
f 284 677 678
f 284 679 680
f 284 681 682
f 284 683 684
f 284 685 686
f 657 687 284
f 660 637 475
f 475 688 689
f 475 690 691
f 639 661 475
f 622 642 475
f 648 645 448
f 666 692 285
f 285 693 667
f 285 694 669
f 285 695 671
f 651 673 285
f 676 675 284
f 680 677 284
f 682 696 284
f 284 697 683
f 687 685 284
f 689 659 475
f 662 690 475
f 475 698 699
f 664 644 448
f 448 700 701
f 285 702 703
f 285 704 665
f 670 693 285
f 285 705 695
f 285 706 707
f 629 634 285
f 696 679 284
f 284 708 697
f 284 709 656
f 691 688 475
f 663 698 475
f 701 710 448
f 703 448 285
f 668 704 285
f 707 705 285
f 678 654 284
f 686 708 284
f 699 640 475
f 703 700 448
f 672 694 285
f 684 681 284
f 710 632 448
f 674 706 285
f 692 702 285
f 658 709 284
f 656 709 540
f 657 656 560
f 687 657 561
f 685 687 543
f 686 685 542
f 708 686 563
f 697 708 562
f 683 697 605
f 684 683 594
f 681 684 585
f 682 681 584
f 696 682 587
f 679 696 586
f 680 679 595
f 677 680 575
f 678 677 574
f 654 678 588
f 655 654 596
f 676 655 534
f 675 676 533
f 653 675 544
f 636 653 564
f 629 636 576
f 634 629 546
f 635 634 545
f 652 635 566
f 650 652 565
f 651 650 577
f 673 651 579
f 674 673 578
f 706 674 598
f 707 706 597
f 705 707 609
f 695 705 608
f 671 695 610
f 672 671 606
f 694 672 600
f 669 694 599
f 670 669 601
f 693 670 590
f 667 693 589
f 668 667 602
f 704 668 592
f 665 704 591
f 666 665 607
f 692 666 612
f 702 692 611
f 703 702 618
f 700 703 616
f 701 700 615
f 710 701 614
f 632 710 613
f 633 632 617
f 649 633 536
f 647 649 535
f 648 647 547
f 645 648 549
f 646 645 548
f 664 646 551
f 644 664 550
f 630 644 567
f 631 630 537
f 627 631 528
f 628 627 527
f 625 628 530
f 626 625 529
f 623 626 532
f 619 623 531
f 620 619 539
f 624 620 538
f 621 624 552
f 622 621 553
f 642 622 555
f 643 642 554
f 663 643 581
f 698 663 580
f 699 698 593
f 640 699 604
f 641 640 603
f 638 641 557
f 639 638 556
f 661 639 559
f 662 661 558
f 690 662 569
f 691 690 568
f 688 691 583
f 689 688 582
f 659 689 571
f 660 659 570
f 637 660 573
f 658 637 572
f 709 658 541
f 541 540 709
f 572 541 658
f 573 572 637
f 570 573 660
f 571 570 659
f 582 571 689
f 583 582 688
f 568 583 691
f 569 568 690
f 558 569 662
f 559 558 661
f 556 559 639
f 557 556 638
f 603 557 641
f 604 603 640
f 593 604 699
f 580 593 698
f 581 580 663
f 554 581 643
f 555 554 642
f 553 555 622
f 552 553 621
f 538 552 624
f 539 538 620
f 531 539 619
f 532 531 623
f 529 532 626
f 530 529 625
f 527 530 628
f 528 527 627
f 537 528 631
f 567 537 630
f 550 567 644
f 551 550 664
f 548 551 646
f 549 548 645
f 547 549 648
f 535 547 647
f 536 535 649
f 617 536 633
f 613 617 632
f 614 613 710
f 615 614 701
f 616 615 700
f 618 616 703
f 611 618 702
f 612 611 692
f 607 612 666
f 591 607 665
f 592 591 704
f 602 592 668
f 589 602 667
f 590 589 693
f 601 590 670
f 599 601 669
f 600 599 694
f 606 600 672
f 610 606 671
f 608 610 695
f 609 608 705
f 597 609 707
f 598 597 706
f 578 598 674
f 579 578 673
f 577 579 651
f 565 577 650
f 566 565 652
f 545 566 635
f 546 545 634
f 576 546 629
f 564 576 636
f 544 564 653
f 533 544 675
f 534 533 676
f 596 534 655
f 588 596 654
f 574 588 678
f 575 574 677
f 595 575 680
f 586 595 679
f 587 586 696
f 584 587 682
f 585 584 681
f 594 585 684
f 605 594 683
f 562 605 697
f 563 562 708
f 542 563 686
f 543 542 685
f 561 543 687
f 560 561 657
f 540 560 656
