# 
# Wavefront OBJ file
# Created with Kaydara FBX
# 
mtllib korekcija.mtl

g korekcija
v 67.376613 -94.626400 5.806216
v 67.374122 -94.471008 5.702910
v 67.385737 -95.195414 4.520148
v 67.391360 -95.546131 4.704315
v 67.381662 -94.941251 6.008270
v 67.379127 -94.783149 5.908003
v 67.388536 -95.370012 4.612961
v 67.371653 -94.317007 5.598110
v 67.382963 -95.022419 4.425919
v 67.369206 -94.164402 5.491819
v 67.380214 -94.850991 4.330257
v 67.366782 -94.013229 5.384061
v 67.377492 -94.681210 4.233207
v 67.364381 -93.863489 5.274839
v 67.374796 -94.513043 4.134751
v 67.362004 -93.715218 5.164180
v 67.372127 -94.346565 4.034935
v 67.359651 -93.568419 5.052085
v 67.369484 -94.181747 3.933741
v 67.357321 -93.423125 4.938581
v 67.355016 -93.279341 4.823671
v 67.352735 -93.137100 4.707382
v 67.364282 -93.857277 3.727342
v 67.366869 -94.018661 3.831216
v 67.350479 -92.996403 4.589717
v 67.361723 -93.697667 3.622166
v 67.348249 -92.857285 4.470703
v 67.359192 -93.539803 3.515671
v 67.346044 -92.719747 4.350344
v 67.356690 -93.383752 3.407903
v 67.343864 -92.583822 4.228667
v 67.354216 -93.229490 3.298846
v 67.341711 -92.449513 4.105676
v 67.351773 -93.077080 3.188548
v 67.339584 -92.316849 3.981399
v 67.349358 -92.926499 3.076991
v 67.337483 -92.185836 3.855840
v 67.335410 -92.056501 3.729027
v 67.333363 -91.928850 3.600964
v 67.344620 -92.630990 2.850228
v 67.346974 -92.777810 2.964223
v 67.331344 -91.802910 3.471681
v 67.342297 -92.486098 2.735054
v 67.329352 -91.678685 3.341181
v 67.340005 -92.343114 2.618685
v 67.327388 -91.556202 3.209494
v 67.337744 -92.202095 2.501169
v 67.325452 -91.435466 3.076625
v 67.335514 -92.063021 2.382491
v 67.323545 -91.316502 2.942602
v 67.333316 -91.925948 2.262698
v 67.321666 -91.199316 2.807432
v 67.331150 -91.790857 2.141777
v 67.319816 -91.083931 2.671143
v 67.395631 -95.812502 4.838281
v 67.384217 -95.100668 6.106991
v 67.329017 -91.657800 2.019773
v 67.317995 -90.970353 2.533741
v 67.386795 -95.261399 6.204165
v 67.326916 -91.526761 1.896675
v 67.316203 -90.858606 2.395255
v 67.389392 -95.423404 6.299769
v 67.324848 -91.397789 1.772529
v 67.314441 -90.748694 2.255692
v 67.392010 -95.586682 6.393800
v 67.322813 -91.270869 1.647321
v 67.312709 -90.640639 2.115081
v 67.394648 -95.751193 6.486236
v 67.320812 -91.146049 1.521100
v 67.311006 -90.534448 1.973429
v 67.395631 -95.812502 6.520104
v 67.318844 -91.023315 1.393853
v 67.309334 -90.430141 1.830765
v 67.307692 -90.327725 1.687096
v 67.316910 -90.902710 1.265627
v 67.306080 -90.227218 1.542452
v 67.315011 -90.784224 1.136410
v 67.304499 -90.128627 1.396841
v 67.313146 -90.667897 1.006249
v 67.302950 -90.031970 1.250292
v 67.311315 -90.553719 0.875132
v 67.301431 -89.937254 1.102813
v 67.309519 -90.441730 0.743107
v 67.299944 -89.844497 0.954433
v 67.307759 -90.331920 0.610163
v 67.298488 -89.753703 0.805162
v 67.306034 -90.224325 0.476346
v 67.297064 -89.664891 0.655028
v 67.304344 -90.118939 0.341647
v 67.295672 -89.578066 0.504041
v 67.302690 -90.015794 0.206111
v 67.294312 -89.493244 0.352229
v 67.301072 -89.914885 0.069730
v 67.292984 -89.410431 0.199603
v 67.299491 -89.816242 -0.067451
v 67.291689 -89.329641 0.046192
v 67.297946 -89.719862 -0.205440
v 67.290426 -89.250881 -0.107994
v 67.296437 -89.625773 -0.344192
v 67.289196 -89.174165 -0.262927
v 67.294965 -89.533970 -0.483713
v 67.287999 -89.099497 -0.418595
v 67.293530 -89.444482 -0.623961
v 67.286835 -89.026892 -0.574969
v 67.292133 -89.357304 -0.764940
v 67.285704 -88.956355 -0.732039
v 67.290772 -89.272462 -0.906608
v 67.284606 -88.887897 -0.889776
v 67.289449 -89.189954 -1.048969
v 67.283542 -88.821525 -1.048168
v 67.288164 -89.109801 -1.191980
v 67.282512 -88.757250 -1.207186
v 67.286917 -89.032004 -1.335645
v 67.281515 -88.695076 -1.366819
v 67.285708 -88.956582 -1.479923
v 67.280552 -88.635015 -1.527038
v 67.284536 -88.883534 -1.624815
v 67.279623 -88.577071 -1.687830
v 67.283404 -88.812881 -1.770281
v 67.278728 -88.521254 -1.849168
v 67.282309 -88.744622 -1.916322
v 67.277867 -88.467569 -2.011037
v 67.281253 -88.678773 -2.062899
v 67.277041 -88.416024 -2.173411
v 67.280236 -88.615335 -2.210011
v 67.276249 -88.366624 -2.336275
v 67.279258 -88.554324 -2.357620
v 67.275491 -88.319377 -2.499603
v 67.278319 -88.495741 -2.505724
v 67.274768 -88.274287 -2.663379
v 67.277419 -88.439599 -2.654286
v 67.274080 -88.231362 -2.827578
v 67.276558 -88.385900 -2.803302
v 67.275736 -88.334655 -2.952737
v 67.273427 -88.190605 -2.992182
v 67.274954 -88.285866 -3.102585
v 67.272808 -88.152023 -3.157167
v 67.274211 -88.239545 -3.252814
v 67.272224 -88.115619 -3.322516
v 67.273508 -88.195692 -3.403415
v 67.271676 -88.081399 -3.488204
v 67.272845 -88.154317 -3.554356
v 67.271162 -88.049366 -3.654213
v 67.272221 -88.115422 -3.705629
v 67.270684 -88.019526 -3.820519
v 67.271637 -88.079014 -3.857202
v 67.270240 -87.991880 -3.987103
v 67.271094 -88.045097 -4.009066
v 67.269832 -87.966434 -4.153943
v 67.270590 -88.013675 -4.161191
v 67.269460 -87.943189 -4.321019
v 67.270126 -87.984752 -4.313565
v 67.269122 -87.922150 -4.488307
v 67.269702 -87.958332 -4.466159
v 67.268820 -87.903318 -4.655789
v 67.269319 -87.934418 -4.618962
v 67.268554 -87.886697 -4.823440
v 67.268976 -87.913014 -4.771946
v 67.268323 -87.872287 -4.991242
v 67.268673 -87.894121 -4.925096
v 67.268410 -87.877742 -5.078386
v 67.268127 -87.860091 -5.159172
v 67.268188 -87.863880 -5.231802
v 67.267967 -87.850110 -5.327210
v 67.268006 -87.852536 -5.385318
v 67.267843 -87.842347 -5.495332
v 67.267865 -87.843711 -5.538917
v 67.267754 -87.836800 -5.663519
v 67.267764 -87.837407 -5.692577
v 67.267701 -87.833472 -5.831749
v 67.267703 -87.833624 -5.846278
v 67.267683 -87.832363 -6.000000
v 68.939401 -97.296378 6.855677
v 68.509834 -96.883478 6.765255
v 72.225021 -100.454523 4.979082
v 69.372325 -97.712505 6.944575
v 69.808205 -98.131474 7.031865
v 72.943617 -101.145240 7.597978
v 72.487024 -100.706361 7.522003
v 70.247348 -98.553580 7.117606
v 73.402740 -101.586550 7.672252
v 70.689344 -98.978428 7.201715
v 73.864734 -102.030619 7.744878
v 71.134509 -99.406321 7.284248
v 74.329146 -102.477014 7.815782
v 71.582420 -99.836854 7.365126
v 74.796326 -102.926068 7.885015
v 72.033402 -100.270340 7.444404
v 75.265812 -103.377339 7.952504
v 82.354305 -110.190815 5.272629
v 75.605140 -103.703502 8.000000
v 68.083326 -96.473517 6.673250
v 92.483623 -119.927139 5.563931
v 67.738433 -96.142005 6.597194
v 102.963061 -130.000000 8.000000
v 102.963061 -130.000000 5.863113
v 82.402103 -107.367925 8.000000
v 79.529280 -105.817961 8.000000
v 102.963061 -118.611942 8.000000
v 99.804128 -116.788131 8.000000
v 85.274263 -108.919120 8.000000
v 95.411050 -114.405386 8.000000
v 88.145793 -110.471483 8.000000
v 91.016723 -112.024959 8.000000
v 99.849008 -116.710395 7.961380
v 102.963061 -118.430579 7.931972
v 102.963061 -118.250111 7.862182
v 99.960805 -116.516757 7.862182
v 100.007160 -116.436469 7.819782
v 102.963061 -118.070560 7.790639
v 102.963061 -117.891950 7.717352
v 100.115894 -116.248137 7.717352
v 100.163658 -116.165406 7.671020
v 102.963061 -117.714302 7.642330
v 102.963061 -117.537640 7.565583
v 100.269314 -115.982405 7.565583
v 100.318423 -115.897346 7.515171
v 102.963061 -117.361986 7.487120
v 102.963061 -117.187362 7.406951
v 100.420989 -115.719696 7.406951
v 100.471373 -115.632428 7.352314
v 102.963061 -117.013790 7.325086
v 102.963061 -116.841292 7.241536
v 100.570842 -115.460143 7.241536
v 100.622429 -115.370791 7.182534
v 102.963061 -116.669890 7.156312
v 102.963061 -116.499605 7.069423
v 100.718796 -115.203878 7.069423
v 100.771514 -115.112569 7.005921
v 102.963061 -116.330460 6.980882
v 102.963061 -116.162475 6.890698
v 100.864778 -114.951030 6.890698
v 100.918549 -114.857896 6.822564
v 102.963061 -115.995671 6.798885
v 102.963061 -115.830071 6.705452
v 101.008713 -114.701728 6.705452
v 101.063459 -114.606905 6.632559
v 102.963061 -115.665694 6.610413
v 102.963061 -115.502562 6.513779
v 101.150529 -114.456096 6.513779
v 101.206168 -114.359725 6.436005
v 102.963061 -115.340695 6.415562
v 102.963061 -115.180113 6.315775
v 101.290153 -114.214259 6.315775
v 101.346603 -114.116485 6.233003
v 102.963061 -115.020838 6.214431
v 102.963061 -114.862889 6.111541
v 101.427515 -113.976341 6.111541
v 101.484690 -113.877311 6.023660
v 102.963061 -114.706285 6.007120
v 102.963061 -114.551048 5.901180
v 101.562546 -113.742460 5.901180
v 101.620359 -113.642327 5.808082
v 102.963061 -114.397196 5.793735
v 102.963061 -114.244749 5.684798
v 101.695178 -113.512736 5.684798
v 101.753538 -113.411654 5.586383
v 102.963061 -114.093726 5.574384
v 102.963061 -113.944147 5.462505
v 101.825342 -113.287285 5.462505
v 101.884158 -113.185412 5.358676
v 102.963061 -113.796030 5.349177
v 102.963061 -113.649394 5.234414
v 101.952974 -113.066220 5.234414
v 102.012153 -112.963719 5.125081
v 102.963061 -113.504258 5.118229
v 102.963061 -113.360639 5.000639
v 102.078009 -112.849654 5.000639
v 102.137455 -112.746689 4.885718
v 102.963061 -113.218556 4.881657
v 102.963061 -113.078028 4.761299
v 102.200383 -112.637695 4.761299
v 102.260000 -112.534435 4.640711
v 102.963061 -112.939071 4.639580
v 102.963061 -112.801704 4.516515
v 102.320035 -112.430452 4.516515
v 102.379724 -112.327068 4.390187
v 102.963061 -112.665944 4.392120
v 102.963061 -112.531807 4.266411
v 102.436903 -112.228030 4.266411
v 102.496565 -112.124694 4.134277
v 102.963061 -112.399311 4.139404
v 102.963061 -112.268473 4.011114
v 102.550930 -112.030529 4.011114
v 102.610462 -111.927418 3.873112
v 102.963061 -112.139310 3.881558
v 102.963061 -112.011836 3.750752
v 102.662057 -111.838052 3.750752
v 102.721356 -111.735343 3.606829
v 102.963061 -111.886070 3.618713
v 102.963061 -111.762026 3.485457
v 102.770228 -111.650694 3.485457
v 102.829191 -111.548568 3.335565
v 102.963061 -111.639720 3.351002
v 102.963061 -111.519168 3.215364
v 102.963061 -111.316697 2.980218
v 102.933909 -111.367190 3.059461
v 102.875389 -111.468550 3.215364
v 102.963061 -129.432979 -17.593021
v 82.354305 -110.190815 -17.272629
v 92.483623 -119.927139 -17.563931
v 72.225021 -100.454523 -16.979082
v 102.963061 -129.813558 -17.776553
v 102.963061 -129.622521 -17.685593
v 102.963061 -129.432979 5.593021
v 102.963061 -129.622521 5.685593
v 102.963061 -129.058603 5.403163
v 102.963061 -129.245018 5.498884
v 102.963061 -128.690628 5.207088
v 102.963061 -128.873818 5.305904
v 102.963061 -128.329250 5.004909
v 102.963061 -128.509117 5.106763
v 102.963061 -127.974658 4.796742
v 102.963061 -128.151108 4.901575
v 102.963061 -127.627040 4.582706
v 102.963061 -127.799979 4.690459
v 102.963061 -127.286577 4.362922
v 102.963061 -127.455915 4.473533
v 102.963061 -126.953448 4.137515
v 102.963061 -127.119097 4.250922
v 102.963061 -126.627828 3.906612
v 102.963061 -126.789700 4.022751
v 102.963061 -126.309885 3.670342
v 102.963061 -126.467897 3.789148
v 102.963061 -125.999788 3.428838
v 102.963061 -126.153856 3.550244
v 102.963061 -125.697695 3.182235
v 102.963061 -125.847741 3.306174
v 102.963061 -125.403766 2.930671
v 102.963061 -125.549710 3.057073
v 102.963061 -125.118151 2.674284
v 102.963061 -125.259918 2.803079
v 102.963061 -124.840999 2.413217
v 102.963061 -124.978516 2.544334
v 102.963061 -124.572454 2.147614
v 102.963061 -124.705650 2.280981
v 102.963061 -124.312653 1.877621
v 102.963061 -124.441459 2.013165
v 102.963061 -124.061732 1.603387
v 102.963061 -124.186081 1.741033
v 102.963061 -123.819818 1.325062
v 102.963061 -123.939647 1.464734
v 102.963061 -123.587037 1.042799
v 102.963061 -123.702284 1.184421
v 102.963061 -123.363508 0.756751
v 102.963061 -123.474114 0.900245
v 102.963061 -123.149346 0.467074
v 102.963061 -123.255254 0.612363
v 102.963061 -122.944660 0.173926
v 102.963061 -123.045816 0.320931
v 102.963061 -122.749555 -0.122534
v 102.963061 -122.845908 0.026106
v 102.963061 -122.564132 -0.422145
v 102.963061 -122.655631 -0.271950
v 102.963061 -122.388483 -0.724746
v 102.963061 -122.475083 -0.573076
v 102.963061 -122.222700 -1.030172
v 102.963061 -122.304356 -0.877111
v 102.963061 -122.066867 -1.338260
v 102.963061 -122.143537 -1.183888
v 102.963061 -121.921062 -1.648842
v 102.963061 -121.992708 -1.493244
v 102.963061 -121.785361 -1.961752
v 102.963061 -121.851946 -1.805012
v 102.963061 -121.659831 -2.276822
v 102.963061 -121.721322 -2.119024
v 102.963061 -121.544538 -2.593883
v 102.963061 -121.600903 -2.435110
v 102.963061 -121.439539 -2.912764
v 102.963061 -121.490749 -2.753103
v 102.963061 -121.344888 -3.233294
v 102.963061 -121.390918 -3.072830
v 102.963061 -121.260632 -3.555302
v 102.963061 -121.301459 -3.394121
v 102.963061 -121.186815 -3.878616
v 102.963061 -121.222417 -3.716804
v 102.963061 -121.123474 -4.203063
v 102.963061 -121.153833 -4.040707
v 102.963061 -121.070640 -4.528469
v 102.963061 -121.095742 -4.365655
v 102.963061 -121.028341 -4.854661
v 102.963061 -121.048172 -4.691476
v 102.963061 -120.996598 -5.181464
v 102.963061 -121.011149 -5.017996
v 102.963061 -120.975427 -5.508703
v 102.963061 -120.984690 -5.345039
v 102.963061 -120.964839 -5.836205
v 102.963061 -120.968810 -5.672432
v 102.963061 -120.963515 -6.000000
v 67.267703 -87.833624 -6.153722
v 102.963061 -120.964839 -6.163795
v 102.963061 -120.968810 -6.327568
v 67.267764 -87.837407 -6.307423
v 67.267865 -87.843711 -6.461083
v 102.963061 -120.975427 -6.491297
v 102.963061 -120.984690 -6.654961
v 67.268006 -87.852536 -6.614682
v 67.268188 -87.863880 -6.768198
v 102.963061 -120.996598 -6.818536
v 102.963061 -121.011149 -6.982004
v 67.268410 -87.877742 -6.921614
v 67.268673 -87.894121 -7.074904
v 102.963061 -121.028341 -7.145339
v 102.963061 -121.048172 -7.308524
v 67.268976 -87.913014 -7.228054
v 67.269319 -87.934418 -7.381038
v 102.963061 -121.070640 -7.471531
v 102.963061 -121.095742 -7.634345
v 67.269702 -87.958332 -7.533841
v 67.270126 -87.984752 -7.686435
v 102.963061 -121.123474 -7.796937
v 102.963061 -121.153833 -7.959293
v 67.270590 -88.013675 -7.838809
v 67.271094 -88.045097 -7.990934
v 102.963061 -121.186815 -8.121384
v 102.963061 -121.222417 -8.283196
v 67.271637 -88.079014 -8.142798
v 67.272221 -88.115422 -8.294371
v 102.963061 -121.260632 -8.444698
v 102.963061 -121.301459 -8.605879
v 67.272845 -88.154317 -8.445644
v 67.273508 -88.195692 -8.596585
v 102.963061 -121.344888 -8.766706
v 102.963061 -121.390918 -8.927170
v 67.274211 -88.239545 -8.747186
v 67.274954 -88.285866 -8.897415
v 102.963061 -121.439539 -9.087236
v 102.963061 -121.490749 -9.246897
v 67.275736 -88.334655 -9.047263
v 67.276558 -88.385900 -9.196698
v 102.963061 -121.544538 -9.406117
v 102.963061 -121.600903 -9.564890
v 67.277419 -88.439599 -9.345714
v 67.278319 -88.495741 -9.494276
v 102.963061 -121.659831 -9.723178
v 102.963061 -121.721322 -9.880976
v 67.279258 -88.554324 -9.642380
v 67.280236 -88.615335 -9.789989
v 102.963061 -121.785361 -10.038248
v 102.963061 -121.851946 -10.194988
v 67.281253 -88.678773 -9.937101
v 67.282309 -88.744622 -10.083678
v 102.963061 -121.921062 -10.351158
v 102.963061 -121.992708 -10.506756
v 67.283404 -88.812881 -10.229719
v 67.284536 -88.883534 -10.375185
v 102.963061 -122.066867 -10.661740
v 102.963061 -122.143537 -10.816112
v 67.285708 -88.956582 -10.520077
v 67.286917 -89.032004 -10.664355
v 102.963061 -122.222700 -10.969828
v 102.963061 -122.304356 -11.122889
v 67.288164 -89.109801 -10.808020
v 67.289449 -89.189954 -10.951031
v 102.963061 -122.388483 -11.275254
v 102.963061 -122.475083 -11.426924
v 67.290772 -89.272462 -11.093392
v 67.292133 -89.357304 -11.235060
v 102.963061 -122.564132 -11.577855
v 102.963061 -122.655631 -11.728050
v 67.293530 -89.444482 -11.376039
v 67.294965 -89.533970 -11.516287
v 102.963061 -122.749555 -11.877466
v 102.963061 -122.845908 -12.026106
v 67.296437 -89.625773 -11.655808
v 67.297946 -89.719862 -11.794560
v 102.963061 -122.944660 -12.173926
v 102.963061 -123.045816 -12.320931
v 67.299491 -89.816242 -11.932549
v 67.301072 -89.914885 -12.069730
v 102.963061 -123.149346 -12.467074
v 102.963061 -123.255254 -12.612363
v 67.302690 -90.015794 -12.206111
v 67.304344 -90.118939 -12.341647
v 102.963061 -123.363508 -12.756751
v 102.963061 -123.474114 -12.900245
v 67.306034 -90.224325 -12.476346
v 67.307759 -90.331920 -12.610163
v 102.963061 -123.587037 -13.042799
v 102.963061 -123.702284 -13.184421
v 67.309519 -90.441730 -12.743107
v 67.311315 -90.553719 -12.875132
v 102.963061 -123.819818 -13.325062
v 102.963061 -123.939647 -13.464734
v 67.313146 -90.667897 -13.006249
v 67.315011 -90.784224 -13.136410
v 102.963061 -124.061732 -13.603387
v 102.963061 -124.186081 -13.741033
v 67.316910 -90.902710 -13.265627
v 67.318844 -91.023315 -13.393853
v 102.963061 -124.312653 -13.877621
v 102.963061 -124.441459 -14.013165
v 67.320812 -91.146049 -13.521100
v 67.322813 -91.270869 -13.647321
v 102.963061 -124.572454 -14.147614
v 102.963061 -124.705650 -14.280981
v 67.324848 -91.397789 -13.772529
v 67.326916 -91.526761 -13.896675
v 102.963061 -124.840999 -14.413217
v 102.963061 -124.978516 -14.544334
v 67.329017 -91.657800 -14.019773
v 67.331150 -91.790857 -14.141777
v 102.963061 -125.118151 -14.674284
v 102.963061 -125.259918 -14.803079
v 67.333316 -91.925948 -14.262698
v 67.335514 -92.063021 -14.382491
v 102.963061 -125.403766 -14.930671
v 102.963061 -125.549710 -15.057073
v 67.337744 -92.202095 -14.501169
v 67.340005 -92.343114 -14.618685
v 102.963061 -125.697695 -15.182235
v 102.963061 -125.847741 -15.306174
v 67.342297 -92.486098 -14.735054
v 67.344620 -92.630990 -14.850228
v 102.963061 -125.999788 -15.428838
v 102.963061 -126.153856 -15.550244
v 67.346974 -92.777810 -14.964223
v 67.349358 -92.926499 -15.076991
v 102.963061 -126.309885 -15.670342
v 102.963061 -126.467897 -15.789148
v 67.351773 -93.077080 -15.188548
v 67.354216 -93.229490 -15.298846
v 102.963061 -126.627828 -15.906612
v 102.963061 -126.789700 -16.022751
v 67.356690 -93.383752 -15.407903
v 67.359192 -93.539803 -15.515671
v 102.963061 -126.953448 -16.137515
v 102.963061 -127.119097 -16.250922
v 67.361723 -93.697667 -15.622166
v 67.364282 -93.857277 -15.727342
v 102.963061 -127.286577 -16.362922
v 102.963061 -127.455915 -16.473533
v 67.366869 -94.018661 -15.831216
v 67.369484 -94.181747 -15.933741
v 102.963061 -127.627040 -16.582706
v 102.963061 -127.799979 -16.690459
v 67.372127 -94.346565 -16.034935
v 67.374796 -94.513043 -16.134751
v 102.963061 -127.974658 -16.796742
v 102.963061 -128.151108 -16.901575
v 67.377492 -94.681210 -16.233207
v 67.380214 -94.850991 -16.330257
v 102.963061 -128.329250 -17.004909
v 102.963061 -128.509117 -17.106763
v 67.382963 -95.022419 -16.425919
v 67.385737 -95.195414 -16.520148
v 102.963061 -128.690628 -17.207088
v 102.963061 -128.873818 -17.305904
v 67.388536 -95.370012 -16.612961
v 67.391360 -95.546131 -16.704315
v 102.963061 -129.058603 -17.403163
v 102.963061 -129.245018 -17.498884
v 67.395631 -95.812502 -16.838281
v 102.963061 -129.813558 5.776553
v 102.963061 -130.000000 -17.863113
v 67.376613 -94.626400 -17.806216
v 67.374122 -94.471008 -17.702910
v 67.379127 -94.783149 -17.908003
v 67.371653 -94.317007 -17.598110
v 67.381662 -94.941251 -18.008270
v 67.369206 -94.164402 -17.491819
v 67.366782 -94.013229 -17.384061
v 67.364381 -93.863489 -17.274839
v 67.362004 -93.715218 -17.164180
v 67.359651 -93.568419 -17.052085
v 67.355016 -93.279341 -16.823671
v 67.357321 -93.423125 -16.938581
v 67.352735 -93.137100 -16.707382
v 67.350479 -92.996403 -16.589717
v 67.348249 -92.857285 -16.470703
v 67.346044 -92.719747 -16.350344
v 67.343864 -92.583822 -16.228667
v 67.341711 -92.449513 -16.105676
v 67.339584 -92.316849 -15.981399
v 67.335410 -92.056501 -15.729027
v 67.337483 -92.185836 -15.855840
v 67.333363 -91.928850 -15.600964
v 67.329352 -91.678685 -15.341181
v 67.327388 -91.556202 -15.209494
v 67.331344 -91.802910 -15.471681
v 67.325452 -91.435466 -15.076625
v 67.323545 -91.316502 -14.942602
v 67.321666 -91.199316 -14.807432
v 67.319816 -91.083931 -14.671143
v 67.317995 -90.970353 -14.533741
v 67.316203 -90.858606 -14.395255
v 67.384217 -95.100668 -18.106991
v 67.314441 -90.748694 -14.255692
v 67.386795 -95.261399 -18.204165
v 67.312709 -90.640639 -14.115081
v 67.389392 -95.423404 -18.299769
v 67.311006 -90.534448 -13.973429
v 67.392010 -95.586682 -18.393800
v 67.309334 -90.430141 -13.830765
v 67.394648 -95.751239 -18.486262
v 67.307692 -90.327725 -13.687096
v 67.395631 -95.812502 -18.520104
v 67.306080 -90.227218 -13.542452
v 67.304499 -90.128627 -13.396841
v 67.302950 -90.031970 -13.250292
v 67.301431 -89.937254 -13.102813
v 67.299944 -89.844497 -12.954433
v 67.297064 -89.664891 -12.655028
v 67.295672 -89.578066 -12.504041
v 67.298488 -89.753703 -12.805162
v 67.294312 -89.493244 -12.352229
v 67.292984 -89.410431 -12.199603
v 67.291689 -89.329641 -12.046192
v 67.290426 -89.250881 -11.892006
v 67.289196 -89.174165 -11.737073
v 67.287999 -89.099497 -11.581405
v 67.286835 -89.026892 -11.425031
v 67.285704 -88.956355 -11.267961
v 67.284606 -88.887897 -11.110224
v 67.283542 -88.821525 -10.951832
v 67.282512 -88.757250 -10.792814
v 67.281515 -88.695076 -10.633181
v 67.280552 -88.635015 -10.472962
v 67.279623 -88.577071 -10.312170
v 67.278728 -88.521254 -10.150832
v 67.277867 -88.467569 -9.988963
v 67.277041 -88.416024 -9.826589
v 67.276249 -88.366624 -9.663725
v 67.275491 -88.319377 -9.500397
v 67.274768 -88.274287 -9.336621
v 67.273427 -88.190605 -9.007818
v 67.274080 -88.231362 -9.172422
v 67.272808 -88.152023 -8.842833
v 67.272224 -88.115619 -8.677484
v 67.271676 -88.081399 -8.511796
v 67.271162 -88.049366 -8.345787
v 67.270684 -88.019526 -8.179481
v 67.270240 -87.991880 -8.012897
v 67.269832 -87.966434 -7.846057
v 67.269460 -87.943189 -7.678981
v 67.269122 -87.922150 -7.511693
v 67.268820 -87.903318 -7.344211
v 67.268554 -87.886697 -7.176560
v 67.268127 -87.860091 -6.840828
v 67.268323 -87.872287 -7.008758
v 67.267967 -87.850110 -6.672790
v 67.267843 -87.842347 -6.504668
v 67.267754 -87.836800 -6.336481
v 67.267701 -87.833472 -6.168251
v 68.939401 -97.296378 -18.855677
v 69.372325 -97.712505 -18.944575
v 68.083326 -96.473517 -18.673250
v 68.509834 -96.883478 -18.765255
v 69.808205 -98.131474 -19.031865
v 72.033402 -100.270340 -19.444404
v 72.487024 -100.706361 -19.522003
v 70.247348 -98.553580 -19.117606
v 72.943617 -101.145240 -19.597978
v 70.689344 -98.978428 -19.201715
v 73.402740 -101.586550 -19.672252
v 71.134509 -99.406321 -19.284248
v 73.864734 -102.030619 -19.744878
v 71.582420 -99.836854 -19.365126
v 74.329146 -102.477014 -19.815782
v 67.738433 -96.142005 -18.597194
v 75.265812 -103.377339 -19.952504
v 75.605140 -103.703502 -20.000000
v 74.796326 -102.926068 -19.885015
v 102.963061 -130.000000 -20.000000
v 82.402103 -107.367925 -20.000000
v 79.529280 -105.817961 -20.000000
v 91.016723 -112.024959 -20.000000
v 88.145793 -110.471483 -20.000000
v 85.274263 -108.919120 -20.000000
v 95.411050 -114.405386 -20.000000
v 99.849008 -116.710395 -19.961380
v 99.804128 -116.788131 -20.000000
v 99.960805 -116.516757 -19.862182
v 100.007160 -116.436469 -19.819782
v 100.115894 -116.248137 -19.717352
v 100.163658 -116.165406 -19.671020
v 100.269314 -115.982405 -19.565583
v 100.318423 -115.897346 -19.515171
v 100.420989 -115.719696 -19.406951
v 100.471373 -115.632428 -19.352314
v 100.570842 -115.460143 -19.241536
v 100.622429 -115.370791 -19.182534
v 100.718796 -115.203878 -19.069423
v 100.771514 -115.112569 -19.005921
v 100.864778 -114.951030 -18.890698
v 100.918549 -114.857896 -18.822564
v 101.008713 -114.701728 -18.705452
v 101.063459 -114.606905 -18.632559
v 101.150529 -114.456096 -18.513779
v 101.206168 -114.359725 -18.436005
v 101.290153 -114.214259 -18.315775
v 101.346603 -114.116485 -18.233003
v 101.427515 -113.976341 -18.111541
v 101.484690 -113.877311 -18.023660
v 101.562546 -113.742460 -17.901180
v 101.620359 -113.642327 -17.808082
v 101.695178 -113.512736 -17.684798
v 101.753538 -113.411654 -17.586383
v 101.825342 -113.287285 -17.462505
v 101.884158 -113.185412 -17.358676
v 101.952974 -113.066220 -17.234414
v 102.012153 -112.963719 -17.125081
v 102.078009 -112.849654 -17.000639
v 102.137455 -112.746689 -16.885718
v 102.200383 -112.637695 -16.761299
v 102.260000 -112.534435 -16.640711
v 102.320035 -112.430452 -16.516515
v 102.379724 -112.327068 -16.390187
v 102.436903 -112.228030 -16.266411
v 102.496565 -112.124694 -16.134277
v 102.550930 -112.030529 -16.011114
v 102.610462 -111.927418 -15.873112
v 102.662057 -111.838052 -15.750752
v 102.721356 -111.735343 -15.606829
v 102.770228 -111.650694 -15.485457
v 102.829191 -111.548568 -15.335565
v 102.875389 -111.468550 -15.215364
v 102.933909 -111.367190 -15.059461
v 102.963061 -111.150318 2.778163
v 102.963061 -111.036413 2.635723
v 102.963061 -110.924378 2.492175
v 102.963061 -110.814237 2.347548
v 102.963061 -110.705995 2.201849
v 102.963061 -110.599673 2.055109
v 102.963061 -110.495278 1.907335
v 102.963061 -110.392829 1.758557
v 102.963061 -110.292332 1.608784
v 102.963061 -110.193808 1.458044
v 102.963061 -110.097261 1.306348
v 102.963061 -110.002710 1.153725
v 102.963061 -109.910161 1.000185
v 102.963061 -109.819632 0.845756
v 102.963061 -109.731127 0.690449
v 102.963061 -109.644665 0.534293
v 102.963061 -109.560249 0.377300
v 102.963061 -109.477897 0.219498
v 102.963061 -109.397613 0.060898
v 102.963061 -109.319411 -0.098469
v 102.963061 -109.243299 -0.258594
v 102.963061 -109.169288 -0.419446
v 102.963061 -109.097386 -0.581014
v 102.963061 -109.027603 -0.743268
v 102.963061 -108.959946 -0.906197
v 102.963061 -108.894426 -1.069770
v 102.963061 -108.831048 -1.233976
v 102.963061 -108.769824 -1.398785
v 102.963061 -108.710758 -1.564184
v 102.963061 -108.653860 -1.730145
v 102.963061 -108.599135 -1.896653
v 102.963061 -108.546591 -2.063681
v 102.963061 -108.496235 -2.231213
v 102.963061 -108.448072 -2.399222
v 102.963061 -108.402109 -2.567693
v 102.963061 -108.358352 -2.736598
v 102.963061 -108.316805 -2.905922
v 102.963061 -108.277475 -3.075637
v 102.963061 -108.240366 -3.245726
v 102.963061 -108.205483 -3.416165
v 102.963061 -108.172829 -3.586934
v 102.963061 -108.142410 -3.758009
v 102.963061 -108.114229 -3.929371
v 102.963061 -108.088289 -4.100995
v 102.963061 -108.064594 -4.272862
v 102.963061 -108.043147 -4.444948
v 102.963061 -108.023950 -4.617233
v 102.963061 -108.007006 -4.789693
v 102.963061 -107.992317 -4.962308
v 102.963061 -107.979885 -5.135055
v 102.963061 -107.969711 -5.307912
v 102.963061 -107.961797 -5.480857
v 102.963061 -107.956143 -5.653868
v 102.963061 -107.952750 -5.826923
v 102.963061 -107.951619 -6.000000
v 102.963061 -107.952750 -6.173077
v 102.963061 -107.956143 -6.346132
v 102.963061 -107.961797 -6.519143
v 102.963061 -107.969711 -6.692088
v 102.963061 -107.979885 -6.864945
v 102.963061 -107.992317 -7.037692
v 102.963061 -108.007006 -7.210307
v 102.963061 -108.023950 -7.382767
v 102.963061 -108.043147 -7.555052
v 102.963061 -108.064594 -7.727138
v 102.963061 -108.088289 -7.899005
v 102.963061 -108.114229 -8.070629
v 102.963061 -108.142410 -8.241991
v 102.963061 -108.172829 -8.413066
v 102.963061 -108.205483 -8.583835
v 102.963061 -108.240366 -8.754274
v 102.963061 -108.277475 -8.924363
v 102.963061 -108.316805 -9.094078
v 102.963061 -108.358352 -9.263402
v 102.963061 -108.402109 -9.432307
v 102.963061 -108.448072 -9.600778
v 102.963061 -108.496235 -9.768787
v 102.963061 -108.546591 -9.936319
v 102.963061 -108.599135 -10.103347
v 102.963061 -108.653860 -10.269855
v 102.963061 -108.710758 -10.435816
v 102.963061 -108.769824 -10.601215
v 102.963061 -108.831048 -10.766024
v 102.963061 -108.894426 -10.930230
v 102.963061 -108.959946 -11.093803
v 102.963061 -109.027603 -11.256732
v 102.963061 -109.097386 -11.418986
v 102.963061 -109.169288 -11.580554
v 102.963061 -109.243299 -11.741406
v 102.963061 -109.319411 -11.901531
v 102.963061 -109.397613 -12.060898
v 102.963061 -109.477897 -12.219498
v 102.963061 -109.560249 -12.377300
v 102.963061 -109.644665 -12.534293
v 102.963061 -109.731127 -12.690449
v 102.963061 -109.819632 -12.845756
v 102.963061 -109.910161 -13.000185
v 102.963061 -110.002710 -13.153725
v 102.963061 -110.097261 -13.306348
v 102.963061 -110.193808 -13.458044
v 102.963061 -110.292332 -13.608784
v 102.963061 -110.392829 -13.758557
v 102.963061 -110.495278 -13.907335
v 102.963061 -110.599673 -14.055109
v 102.963061 -110.705995 -14.201849
v 102.963061 -110.814237 -14.347548
v 102.963061 -110.924378 -14.492175
v 102.963061 -111.036413 -14.635723
v 102.963061 -111.150318 -14.778163
v 102.963061 -111.316697 -14.980218
v 102.963061 -118.611942 -20.000000
v 102.963061 -118.430579 -19.931972
v 102.963061 -118.250111 -19.862182
v 102.963061 -118.070560 -19.790639
v 102.963061 -117.891950 -19.717352
v 102.963061 -117.714302 -19.642330
v 102.963061 -117.537640 -19.565583
v 102.963061 -117.361986 -19.487120
v 102.963061 -117.187362 -19.406951
v 102.963061 -117.013790 -19.325086
v 102.963061 -116.841292 -19.241536
v 102.963061 -116.669890 -19.156312
v 102.963061 -116.499605 -19.069423
v 102.963061 -116.330460 -18.980882
v 102.963061 -116.162475 -18.890698
v 102.963061 -115.995671 -18.798885
v 102.963061 -115.830071 -18.705452
v 102.963061 -115.665694 -18.610413
v 102.963061 -115.502562 -18.513779
v 102.963061 -115.340695 -18.415562
v 102.963061 -115.180113 -18.315775
v 102.963061 -115.020838 -18.214431
v 102.963061 -114.862889 -18.111541
v 102.963061 -114.706285 -18.007120
v 102.963061 -114.551048 -17.901180
v 102.963061 -114.397196 -17.793735
v 102.963061 -114.244749 -17.684798
v 102.963061 -114.093726 -17.574384
v 102.963061 -113.944147 -17.462505
v 102.963061 -113.796030 -17.349177
v 102.963061 -113.649394 -17.234414
v 102.963061 -113.504258 -17.118229
v 102.963061 -113.360639 -17.000639
v 102.963061 -113.218556 -16.881657
v 102.963061 -113.078028 -16.761299
v 102.963061 -112.939071 -16.639580
v 102.963061 -112.801704 -16.516515
v 102.963061 -112.665944 -16.392120
v 102.963061 -112.531807 -16.266411
v 102.963061 -112.399311 -16.139404
v 102.963061 -112.268473 -16.011114
v 102.963061 -112.139310 -15.881558
v 102.963061 -112.011836 -15.750752
v 102.963061 -111.886070 -15.618713
v 102.963061 -111.762026 -15.485457
v 102.963061 -111.639720 -15.351002
v 102.963061 -111.519168 -15.215364
usemtl korekcijaMaterial0
f 1 2 3
f 4 5 6
f 7 6 1
f 3 7 1
f 3 2 8
f 8 9 3
f 9 8 10
f 10 11 9
f 11 10 12
f 12 13 11
f 13 12 14
f 14 15 13
f 15 14 16
f 16 17 15
f 17 16 18
f 18 19 17
f 19 18 20
f 21 22 23
f 20 24 19
f 24 20 21
f 23 24 21
f 23 22 25
f 25 26 23
f 26 25 27
f 27 28 26
f 28 27 29
f 29 30 28
f 30 29 31
f 31 32 30
f 32 31 33
f 33 34 32
f 34 33 35
f 35 36 34
f 36 35 37
f 38 39 40
f 37 41 36
f 41 37 38
f 40 41 38
f 39 42 43
f 43 40 39
f 43 42 44
f 44 45 43
f 45 44 46
f 46 47 45
f 47 46 48
f 48 49 47
f 49 48 50
f 50 51 49
f 51 50 52
f 52 53 51
f 53 52 54
f 55 56 5
f 54 57 53
f 57 54 58
f 55 59 56
f 58 60 57
f 60 58 61
f 55 62 59
f 61 63 60
f 63 61 64
f 55 65 62
f 64 66 63
f 66 64 67
f 55 68 65
f 67 69 66
f 69 67 70
f 55 71 68
f 70 72 69
f 73 74 75
f 6 7 4
f 72 70 73
f 75 72 73
f 74 76 77
f 77 75 74
f 76 78 79
f 79 77 76
f 78 80 81
f 81 79 78
f 80 82 83
f 83 81 80
f 82 84 85
f 85 83 82
f 84 86 87
f 87 85 84
f 87 86 88
f 88 89 87
f 89 88 90
f 90 91 89
f 91 90 92
f 92 93 91
f 93 92 94
f 94 95 93
f 95 94 96
f 96 97 95
f 97 96 98
f 98 99 97
f 99 98 100
f 100 101 99
f 101 100 102
f 102 103 101
f 103 102 104
f 104 105 103
f 105 104 106
f 106 107 105
f 107 106 108
f 108 109 107
f 109 108 110
f 110 111 109
f 110 112 113
f 113 111 110
f 112 114 115
f 115 113 112
f 114 116 117
f 117 115 114
f 116 118 119
f 119 117 116
f 118 120 121
f 121 119 118
f 120 122 123
f 123 121 120
f 122 124 125
f 125 123 122
f 124 126 127
f 127 125 124
f 126 128 129
f 129 127 126
f 128 130 131
f 131 129 128
f 130 132 133
f 133 131 130
f 132 134 133
f 134 132 135
f 135 136 134
f 136 135 137
f 137 138 136
f 138 137 139
f 139 140 138
f 140 139 141
f 141 142 140
f 143 144 142
f 142 141 143
f 145 146 144
f 144 143 145
f 147 148 146
f 146 145 147
f 149 150 148
f 148 147 149
f 149 151 152
f 152 150 149
f 151 153 154
f 154 152 151
f 153 155 156
f 156 154 153
f 155 157 158
f 158 156 155
f 157 159 160
f 160 158 157
f 159 161 160
f 161 159 162
f 162 163 161
f 163 162 164
f 164 165 163
f 165 164 166
f 166 167 165
f 167 166 168
f 168 169 167
f 169 168 170
f 170 171 169
f 170 172 171
f 5 4 55
f 55 173 174
f 55 175 176
f 176 173 55
f 175 177 176
f 175 178 179
f 175 180 177
f 175 181 178
f 175 182 180
f 175 183 181
f 175 184 182
f 175 185 183
f 175 186 184
f 175 187 185
f 175 188 186
f 175 189 187
f 175 190 191
f 174 192 55
f 191 190 193
f 191 189 175
f 192 194 55
f 193 195 191
f 194 71 55
f 179 188 175
f 193 196 195
f 195 197 198
f 195 199 200
f 195 201 197
f 200 202 195
f 195 203 201
f 202 204 195
f 204 203 195
f 198 191 195
f 205 206 207
f 207 208 205
f 200 199 206
f 209 210 211
f 211 212 209
f 208 207 210
f 213 214 215
f 215 216 213
f 212 211 214
f 217 218 219
f 219 220 217
f 216 215 218
f 221 222 223
f 223 224 221
f 220 219 222
f 225 226 227
f 227 228 225
f 224 223 226
f 229 230 231
f 231 232 229
f 228 227 230
f 233 234 235
f 235 236 233
f 232 231 234
f 237 238 239
f 239 240 237
f 236 235 238
f 241 242 243
f 243 244 241
f 240 239 242
f 245 246 247
f 247 248 245
f 244 243 246
f 249 250 251
f 251 252 249
f 248 247 250
f 253 254 255
f 255 256 253
f 252 251 254
f 257 258 259
f 259 260 257
f 256 255 258
f 261 262 263
f 263 264 261
f 260 259 262
f 265 266 267
f 267 268 265
f 264 263 266
f 269 270 271
f 271 272 269
f 268 267 270
f 273 274 275
f 275 276 273
f 272 271 274
f 277 278 279
f 279 280 277
f 276 275 278
f 281 282 283
f 283 284 281
f 280 279 282
f 285 286 287
f 287 288 285
f 284 283 286
f 289 290 291
f 291 292 289
f 288 287 290
f 293 294 295
f 292 291 294
f 294 293 292
f 295 296 297
f 297 298 295
f 295 298 293
f 289 288 290
f 285 284 286
f 281 280 282
f 277 276 278
f 273 272 274
f 269 268 270
f 265 264 266
f 261 260 262
f 257 256 258
f 253 252 254
f 249 248 250
f 245 244 246
f 241 240 242
f 237 236 238
f 233 232 234
f 229 228 230
f 225 224 226
f 221 220 222
f 217 216 218
f 213 212 214
f 209 208 210
f 205 200 206
f 299 300 301
f 299 302 300
f 301 303 304
f 305 306 193
f 193 190 305
f 190 175 305
f 307 308 175
f 175 4 307
f 175 55 4
f 309 310 4
f 4 7 309
f 7 3 309
f 311 312 3
f 3 9 311
f 9 11 311
f 313 314 11
f 11 13 313
f 13 15 313
f 315 316 15
f 15 17 315
f 17 19 315
f 317 318 19
f 19 24 317
f 24 23 317
f 319 320 23
f 23 26 319
f 26 28 319
f 321 322 28
f 28 30 321
f 30 32 321
f 323 324 32
f 32 34 323
f 34 36 323
f 325 326 36
f 36 41 325
f 41 40 325
f 327 328 40
f 40 43 327
f 43 45 327
f 329 330 45
f 45 47 329
f 47 49 329
f 331 332 49
f 49 51 331
f 51 53 331
f 333 334 53
f 53 57 333
f 57 60 333
f 335 336 60
f 60 63 335
f 63 66 335
f 337 338 66
f 66 69 337
f 69 72 337
f 339 340 72
f 72 75 339
f 75 77 339
f 341 342 77
f 77 79 341
f 79 81 341
f 343 344 81
f 81 83 343
f 83 85 343
f 345 346 85
f 85 87 345
f 87 89 345
f 347 348 89
f 89 91 347
f 91 93 347
f 349 350 93
f 93 95 349
f 95 97 349
f 351 352 97
f 97 99 351
f 99 101 351
f 353 354 101
f 101 103 353
f 103 105 353
f 355 356 105
f 105 107 355
f 107 109 355
f 357 358 109
f 109 111 357
f 111 113 357
f 359 360 113
f 113 115 359
f 115 117 359
f 361 362 117
f 117 119 361
f 119 121 361
f 363 364 121
f 121 123 363
f 123 125 363
f 365 366 125
f 125 127 365
f 127 129 365
f 367 368 129
f 129 131 367
f 131 133 367
f 369 370 133
f 133 134 369
f 134 136 369
f 371 372 136
f 136 138 371
f 138 140 371
f 373 374 140
f 140 142 373
f 142 144 373
f 375 376 144
f 144 146 375
f 146 148 375
f 377 378 148
f 148 150 377
f 150 152 377
f 379 380 152
f 152 154 379
f 154 156 379
f 381 382 156
f 156 158 381
f 158 160 381
f 383 384 160
f 160 161 383
f 161 163 383
f 385 386 163
f 163 165 385
f 165 167 385
f 387 388 167
f 167 169 387
f 169 171 387
f 389 387 171
f 389 172 390
f 390 391 389
f 392 393 394
f 392 390 393
f 394 395 392
f 392 391 390
f 396 397 398
f 396 394 397
f 398 399 396
f 396 395 394
f 400 401 402
f 400 398 401
f 402 403 400
f 400 399 398
f 404 405 406
f 404 402 405
f 406 407 404
f 404 403 402
f 408 409 410
f 408 406 409
f 410 411 408
f 408 407 406
f 412 413 414
f 412 410 413
f 414 415 412
f 412 411 410
f 416 417 418
f 416 414 417
f 418 419 416
f 416 415 414
f 420 421 422
f 420 418 421
f 422 423 420
f 420 419 418
f 424 425 426
f 424 422 425
f 426 427 424
f 424 423 422
f 428 429 430
f 428 426 429
f 430 431 428
f 428 427 426
f 432 433 434
f 432 430 433
f 434 435 432
f 432 431 430
f 436 437 438
f 436 434 437
f 438 439 436
f 436 435 434
f 440 441 442
f 440 438 441
f 442 443 440
f 440 439 438
f 444 445 446
f 444 442 445
f 446 447 444
f 444 443 442
f 448 449 450
f 448 446 449
f 450 451 448
f 448 447 446
f 452 453 454
f 452 450 453
f 454 455 452
f 452 451 450
f 456 457 458
f 456 454 457
f 458 459 456
f 456 455 454
f 460 461 462
f 460 458 461
f 462 463 460
f 460 459 458
f 464 465 466
f 464 462 465
f 466 467 464
f 464 463 462
f 468 469 470
f 468 466 469
f 470 471 468
f 468 467 466
f 472 473 474
f 472 470 473
f 474 475 472
f 472 471 470
f 476 477 478
f 476 474 477
f 478 479 476
f 476 475 474
f 480 481 482
f 480 478 481
f 482 483 480
f 480 479 478
f 484 485 486
f 484 482 485
f 486 487 484
f 484 483 482
f 488 489 490
f 488 486 489
f 490 491 488
f 488 487 486
f 492 493 494
f 492 490 493
f 494 495 492
f 492 491 490
f 496 497 498
f 496 494 497
f 498 499 496
f 496 495 494
f 500 501 502
f 500 498 501
f 502 503 500
f 500 499 498
f 504 505 506
f 504 502 505
f 506 507 504
f 504 503 502
f 508 509 510
f 508 506 509
f 510 511 508
f 508 507 506
f 512 513 514
f 512 510 513
f 514 515 512
f 512 511 510
f 516 517 518
f 516 514 517
f 518 519 516
f 516 515 514
f 520 521 522
f 520 518 521
f 522 523 520
f 520 519 518
f 524 525 526
f 524 522 525
f 526 527 524
f 524 523 522
f 528 529 530
f 528 526 529
f 530 531 528
f 528 527 526
f 532 533 534
f 532 530 533
f 534 535 532
f 532 531 530
f 536 537 538
f 536 534 537
f 538 539 536
f 536 535 534
f 540 541 542
f 540 538 541
f 542 543 540
f 540 539 538
f 544 545 546
f 544 542 545
f 546 547 544
f 544 543 542
f 548 549 550
f 548 546 549
f 550 551 548
f 548 547 546
f 552 550 302
f 550 553 302
f 302 299 552
f 552 551 550
f 171 172 389
f 388 385 167
f 386 383 163
f 384 381 160
f 382 379 156
f 380 377 152
f 378 375 148
f 376 373 144
f 374 371 140
f 372 369 136
f 370 367 133
f 368 365 129
f 366 363 125
f 364 361 121
f 362 359 117
f 360 357 113
f 358 355 109
f 356 353 105
f 354 351 101
f 352 349 97
f 350 347 93
f 348 345 89
f 346 343 85
f 344 341 81
f 342 339 77
f 340 337 72
f 338 335 66
f 336 333 60
f 334 331 53
f 332 329 49
f 330 327 45
f 328 325 40
f 326 323 36
f 324 321 32
f 322 319 28
f 320 317 23
f 318 315 19
f 316 313 15
f 314 311 11
f 312 309 3
f 310 307 4
f 308 305 175
f 306 554 193
f 193 554 196
f 301 304 299
f 303 301 555
f 556 549 546
f 546 557 556
f 550 549 558
f 546 545 559
f 558 560 550
f 545 542 561
f 556 558 549
f 542 541 562
f 559 557 546
f 541 538 563
f 561 559 545
f 538 537 564
f 562 561 542
f 537 534 565
f 563 562 541
f 566 533 530
f 534 533 567
f 564 563 538
f 530 568 566
f 565 564 537
f 530 529 569
f 567 565 534
f 529 526 570
f 566 567 533
f 526 525 571
f 569 568 530
f 525 522 572
f 570 569 529
f 522 521 573
f 571 570 526
f 521 518 574
f 572 571 525
f 575 517 514
f 518 517 576
f 573 572 522
f 514 577 575
f 574 573 521
f 577 514 513
f 576 574 518
f 513 510 578
f 575 576 517
f 510 509 579
f 513 580 577
f 509 506 581
f 578 580 513
f 506 505 582
f 579 578 510
f 505 502 583
f 581 579 509
f 502 501 584
f 582 581 506
f 501 498 585
f 583 582 505
f 553 550 560
f 498 497 586
f 584 583 502
f 560 587 553
f 497 494 588
f 585 584 501
f 587 589 553
f 494 493 590
f 586 585 498
f 589 591 553
f 493 490 592
f 588 586 497
f 591 593 553
f 594 490 489
f 590 588 494
f 593 595 553
f 489 596 594
f 595 597 553
f 596 489 486
f 592 590 493
f 598 486 485
f 594 592 490
f 599 485 482
f 486 598 596
f 600 482 481
f 485 599 598
f 601 481 478
f 482 600 599
f 602 478 477
f 481 601 600
f 477 474 603
f 478 602 601
f 474 473 604
f 477 605 602
f 473 470 606
f 603 605 477
f 470 469 607
f 604 603 474
f 469 466 608
f 606 604 473
f 466 465 609
f 607 606 470
f 465 462 610
f 608 607 469
f 462 461 611
f 609 608 466
f 461 458 612
f 610 609 465
f 458 457 613
f 611 610 462
f 457 454 614
f 612 611 461
f 454 453 615
f 613 612 458
f 615 453 450
f 614 613 457
f 616 450 449
f 615 614 454
f 617 449 446
f 450 616 615
f 618 446 445
f 449 617 616
f 619 445 442
f 446 618 617
f 620 442 441
f 445 619 618
f 621 441 438
f 442 620 619
f 622 438 437
f 441 621 620
f 623 437 434
f 438 622 621
f 624 434 433
f 437 623 622
f 625 433 430
f 434 624 623
f 433 625 624
f 429 426 626
f 430 627 625
f 426 425 628
f 430 429 627
f 425 422 629
f 626 627 429
f 422 421 630
f 628 626 426
f 631 630 421
f 629 628 425
f 632 631 418
f 630 629 422
f 633 632 417
f 421 418 631
f 634 633 414
f 418 417 632
f 634 413 410
f 417 414 633
f 635 410 409
f 414 413 634
f 636 409 406
f 410 635 634
f 637 406 405
f 409 636 635
f 638 405 402
f 406 637 636
f 405 638 637
f 401 398 639
f 402 640 638
f 398 397 641
f 402 401 640
f 397 394 642
f 639 640 401
f 394 393 643
f 641 639 398
f 393 390 644
f 642 641 397
f 643 642 394
f 644 643 393
f 390 172 644
f 553 645 646
f 553 647 648
f 648 645 553
f 646 302 553
f 646 649 302
f 302 650 651
f 649 652 302
f 651 653 302
f 652 654 302
f 653 655 302
f 654 656 302
f 655 657 302
f 656 658 302
f 657 659 302
f 553 660 647
f 302 661 662
f 659 663 302
f 553 597 660
f 663 661 302
f 662 664 301
f 662 300 302
f 664 555 301
f 301 300 662
f 658 650 302
f 663 665 666
f 666 661 663
f 659 667 668
f 668 669 659
f 669 665 659
f 657 670 667
f 667 659 657
f 671 672 670
f 670 655 671
f 673 671 655
f 674 673 653
f 653 651 674
f 675 674 651
f 676 675 650
f 650 658 676
f 677 676 658
f 678 677 656
f 656 654 678
f 679 678 654
f 680 679 652
f 652 649 680
f 681 680 649
f 682 681 646
f 646 645 682
f 683 682 645
f 684 683 648
f 648 647 684
f 685 684 647
f 647 660 685
f 686 685 597
f 597 595 686
f 687 686 595
f 688 687 593
f 593 591 688
f 689 688 591
f 690 689 589
f 589 587 690
f 691 690 587
f 692 691 560
f 560 558 692
f 693 692 558
f 694 693 556
f 556 557 694
f 695 694 557
f 696 695 559
f 559 561 696
f 697 696 561
f 698 697 562
f 562 563 698
f 699 698 563
f 700 699 564
f 564 565 700
f 701 700 565
f 702 701 567
f 567 566 702
f 703 702 566
f 704 703 568
f 568 569 704
f 705 704 569
f 706 705 570
f 570 571 706
f 707 706 571
f 708 707 572
f 572 573 708
f 709 708 573
f 710 709 574
f 574 576 710
f 711 710 576
f 712 711 575
f 575 577 712
f 713 712 577
f 714 713 580
f 580 578 714
f 715 714 578
f 716 715 579
f 579 581 716
f 717 716 581
f 718 717 582
f 582 583 718
f 297 52 50
f 298 50 48
f 48 293 298
f 293 48 46
f 292 46 44
f 44 289 292
f 289 44 42
f 288 42 39
f 39 285 288
f 285 39 38
f 284 38 37
f 37 281 284
f 281 37 35
f 280 35 33
f 33 277 280
f 277 33 31
f 276 31 29
f 29 273 276
f 273 29 27
f 272 27 25
f 25 269 272
f 269 25 22
f 268 22 21
f 21 265 268
f 265 21 20
f 264 20 18
f 18 261 264
f 261 18 16
f 260 16 14
f 14 257 260
f 257 14 12
f 256 12 10
f 10 253 256
f 253 10 8
f 252 8 2
f 2 249 252
f 249 2 1
f 248 1 6
f 6 245 248
f 245 6 5
f 244 5 56
f 56 241 244
f 241 56 59
f 240 59 62
f 62 237 240
f 237 62 65
f 236 65 68
f 68 233 236
f 233 68 71
f 232 194 192
f 232 71 194
f 192 229 232
f 229 192 174
f 228 174 173
f 173 225 228
f 225 173 176
f 224 176 177
f 177 221 224
f 221 177 180
f 220 180 182
f 182 217 220
f 217 182 184
f 216 184 186
f 186 213 216
f 213 186 188
f 212 188 179
f 179 209 212
f 209 179 178
f 208 178 181
f 181 205 208
f 185 201 203
f 185 197 201
f 187 189 198
f 197 185 187
f 198 197 187
f 205 181 202
f 183 185 204
f 202 181 183
f 204 202 183
f 719 54 52
f 52 297 296
f 719 58 54
f 720 61 58
f 720 64 61
f 58 719 720
f 720 721 64
f 722 67 64
f 722 70 67
f 64 721 722
f 722 723 70
f 724 73 70
f 724 74 73
f 70 723 724
f 724 725 74
f 726 76 74
f 726 78 76
f 74 725 726
f 726 727 78
f 728 80 78
f 728 82 80
f 78 727 728
f 728 729 82
f 730 84 82
f 730 86 84
f 82 729 730
f 730 731 86
f 732 88 86
f 732 90 88
f 86 731 732
f 732 733 90
f 734 92 90
f 734 94 92
f 90 733 734
f 734 735 94
f 736 96 94
f 736 98 96
f 94 735 736
f 736 737 98
f 738 100 98
f 738 102 100
f 98 737 738
f 738 739 102
f 740 104 102
f 740 106 104
f 102 739 740
f 740 741 106
f 742 108 106
f 742 110 108
f 106 741 742
f 742 743 110
f 744 112 110
f 744 114 112
f 110 743 744
f 744 745 114
f 746 116 114
f 746 118 116
f 114 745 746
f 746 747 118
f 748 120 118
f 748 122 120
f 118 747 748
f 748 749 122
f 750 124 122
f 750 126 124
f 122 749 750
f 750 751 126
f 752 128 126
f 752 130 128
f 126 751 752
f 752 753 130
f 754 132 130
f 754 135 132
f 130 753 754
f 754 755 135
f 756 137 135
f 756 139 137
f 135 755 756
f 756 757 139
f 758 141 139
f 758 143 141
f 139 757 758
f 758 759 143
f 760 145 143
f 760 147 145
f 143 759 760
f 760 761 147
f 762 149 147
f 762 151 149
f 147 761 762
f 762 763 151
f 764 153 151
f 764 155 153
f 151 763 764
f 764 765 155
f 766 157 155
f 766 159 157
f 155 765 766
f 766 767 159
f 768 162 159
f 768 164 162
f 159 767 768
f 768 769 164
f 770 166 164
f 770 168 166
f 164 769 770
f 770 771 168
f 772 170 168
f 772 172 170
f 168 771 772
f 772 773 172
f 773 774 643
f 643 644 773
f 644 172 773
f 775 776 641
f 641 642 775
f 642 643 775
f 777 778 640
f 640 639 777
f 639 641 777
f 779 780 637
f 637 638 779
f 638 640 779
f 781 782 635
f 635 636 781
f 636 637 781
f 783 784 633
f 633 634 783
f 634 635 783
f 785 786 631
f 631 632 785
f 632 633 785
f 787 788 629
f 629 630 787
f 630 631 787
f 789 790 626
f 626 628 789
f 628 629 789
f 791 792 625
f 625 627 791
f 627 626 791
f 793 794 623
f 623 624 793
f 624 625 793
f 795 796 621
f 621 622 795
f 622 623 795
f 797 798 619
f 619 620 797
f 620 621 797
f 799 800 617
f 617 618 799
f 618 619 799
f 801 802 615
f 615 616 801
f 616 617 801
f 803 804 613
f 613 614 803
f 614 615 803
f 805 806 611
f 611 612 805
f 612 613 805
f 807 808 609
f 609 610 807
f 610 611 807
f 809 810 607
f 607 608 809
f 608 609 809
f 811 812 604
f 604 606 811
f 606 607 811
f 813 814 605
f 605 603 813
f 603 604 813
f 815 816 601
f 601 602 815
f 602 605 815
f 817 818 599
f 599 600 817
f 600 601 817
f 819 820 596
f 596 598 819
f 598 599 819
f 821 822 592
f 592 594 821
f 594 596 821
f 823 824 588
f 588 590 823
f 590 592 823
f 825 826 585
f 585 586 825
f 586 588 825
f 827 828 583
f 583 584 827
f 828 718 583
f 584 585 827
f 826 827 585
f 824 825 588
f 822 823 592
f 820 821 596
f 818 819 599
f 816 817 601
f 814 815 605
f 812 813 604
f 810 811 607
f 808 809 609
f 806 807 611
f 804 805 613
f 802 803 615
f 800 801 617
f 798 799 619
f 796 797 621
f 794 795 623
f 792 793 625
f 790 791 626
f 788 789 629
f 786 787 631
f 784 785 633
f 782 783 635
f 780 781 637
f 778 779 640
f 776 777 641
f 774 775 643
f 52 296 719
f 202 200 205
f 203 204 185
f 198 189 191
f 178 208 209
f 188 212 213
f 184 216 217
f 180 220 221
f 176 224 225
f 174 228 229
f 71 232 233
f 65 236 237
f 59 240 241
f 5 244 245
f 1 248 249
f 8 252 253
f 12 256 257
f 16 260 261
f 20 264 265
f 22 268 269
f 27 272 273
f 31 276 277
f 35 280 281
f 38 284 285
f 42 288 289
f 46 292 293
f 50 298 297
f 581 582 717
f 578 579 715
f 577 580 713
f 576 575 711
f 573 574 709
f 571 572 707
f 569 570 705
f 566 568 703
f 565 567 701
f 563 564 699
f 561 562 697
f 557 559 695
f 558 556 693
f 587 560 691
f 591 589 689
f 595 593 687
f 660 597 685
f 645 648 683
f 649 646 681
f 654 652 679
f 658 656 677
f 651 650 675
f 655 653 673
f 657 655 670
f 663 659 665
f 661 666 662
f 664 304 303
f 195 196 554
f 664 299 304
f 554 306 195
f 664 552 299
f 306 305 195
f 664 551 552
f 829 548 551
f 199 195 307
f 305 308 195
f 551 664 829
f 308 307 195
f 829 547 548
f 307 310 199
f 829 544 547
f 310 309 199
f 829 543 544
f 309 312 199
f 829 540 543
f 312 311 199
f 829 539 540
f 311 314 199
f 829 536 539
f 314 313 199
f 829 535 536
f 313 316 199
f 829 532 535
f 316 315 199
f 829 531 532
f 315 318 199
f 829 528 531
f 318 317 199
f 829 527 528
f 317 320 199
f 829 524 527
f 320 319 199
f 829 523 524
f 319 322 199
f 829 520 523
f 322 321 199
f 829 519 520
f 321 324 199
f 829 516 519
f 324 323 199
f 829 515 516
f 323 326 199
f 829 512 515
f 326 325 199
f 829 511 512
f 325 328 199
f 829 508 511
f 328 327 199
f 829 507 508
f 327 330 199
f 829 504 507
f 330 329 199
f 829 503 504
f 329 332 199
f 829 500 503
f 332 331 199
f 829 499 500
f 331 334 199
f 829 496 499
f 492 495 829
f 338 206 199
f 334 333 199
f 829 495 496
f 829 830 492
f 338 207 206
f 333 336 199
f 830 831 492
f 491 492 831
f 488 491 832
f 340 211 210
f 337 210 207
f 336 335 199
f 831 832 491
f 832 833 488
f 487 488 834
f 339 215 214
f 340 214 211
f 199 335 338
f 833 834 488
f 834 835 487
f 339 218 215
f 207 338 337
f 835 836 487
f 484 487 836
f 483 484 837
f 341 222 219
f 342 219 218
f 210 337 340
f 836 837 484
f 837 838 483
f 480 483 839
f 344 226 223
f 341 223 222
f 214 340 339
f 838 839 483
f 839 840 480
f 344 227 226
f 218 339 342
f 840 841 480
f 479 480 841
f 476 479 842
f 346 231 230
f 343 230 227
f 219 342 341
f 841 842 479
f 842 843 476
f 475 476 844
f 345 235 234
f 346 234 231
f 223 341 344
f 843 844 476
f 844 845 475
f 472 475 846
f 348 239 238
f 345 238 235
f 227 344 343
f 845 846 475
f 846 847 472
f 471 472 848
f 347 243 242
f 348 242 239
f 230 343 346
f 847 848 472
f 848 849 471
f 347 246 243
f 234 346 345
f 849 850 471
f 468 471 850
f 467 468 851
f 349 250 247
f 350 247 246
f 238 345 348
f 850 851 468
f 851 852 467
f 464 467 853
f 352 254 251
f 349 251 250
f 242 348 347
f 852 853 467
f 853 854 464
f 463 464 855
f 351 258 255
f 352 255 254
f 246 347 350
f 854 855 464
f 855 856 463
f 460 463 857
f 354 262 259
f 351 259 258
f 247 350 349
f 856 857 463
f 857 858 460
f 459 460 859
f 353 266 263
f 354 263 262
f 251 349 352
f 858 859 460
f 859 860 459
f 353 267 266
f 255 352 351
f 860 861 459
f 456 459 861
f 455 456 862
f 355 271 270
f 356 270 267
f 259 351 354
f 861 862 456
f 862 863 455
f 452 455 864
f 358 275 274
f 355 274 271
f 263 354 353
f 863 864 455
f 864 865 452
f 451 452 866
f 357 279 278
f 358 278 275
f 267 353 356
f 865 866 452
f 866 867 451
f 448 451 868
f 360 283 282
f 357 282 279
f 270 356 355
f 867 868 451
f 868 869 448
f 447 448 870
f 359 287 286
f 360 286 283
f 274 355 358
f 869 870 448
f 870 871 447
f 444 447 872
f 362 291 290
f 359 290 287
f 278 358 357
f 871 872 447
f 872 873 444
f 443 444 874
f 361 295 294
f 362 294 291
f 282 357 360
f 873 874 444
f 874 875 443
f 361 296 295
f 286 360 359
f 875 828 443
f 440 443 828
f 439 440 827
f 363 720 719
f 364 719 296
f 290 359 362
f 828 827 440
f 827 826 439
f 436 439 825
f 366 722 721
f 363 721 720
f 294 362 361
f 826 825 439
f 825 824 436
f 435 436 823
f 365 724 723
f 366 723 722
f 296 361 364
f 824 823 436
f 823 822 435
f 432 435 821
f 368 726 725
f 365 725 724
f 719 364 363
f 822 821 435
f 821 820 432
f 431 432 819
f 367 728 727
f 368 727 726
f 721 363 366
f 820 819 432
f 819 818 431
f 428 431 817
f 370 730 729
f 367 729 728
f 723 366 365
f 818 817 431
f 817 816 428
f 427 428 815
f 369 732 731
f 370 731 730
f 725 365 368
f 816 815 428
f 815 814 427
f 424 427 813
f 372 734 733
f 369 733 732
f 727 368 367
f 814 813 427
f 813 812 424
f 423 424 811
f 371 736 735
f 372 735 734
f 729 367 370
f 812 811 424
f 811 810 423
f 420 423 809
f 374 738 737
f 371 737 736
f 731 370 369
f 810 809 423
f 809 808 420
f 419 420 807
f 373 740 739
f 374 739 738
f 733 369 372
f 808 807 420
f 807 806 419
f 416 419 805
f 376 742 741
f 373 741 740
f 735 372 371
f 806 805 419
f 805 804 416
f 415 416 803
f 375 744 743
f 376 743 742
f 737 371 374
f 804 803 416
f 803 802 415
f 412 415 801
f 378 746 745
f 375 745 744
f 739 374 373
f 802 801 415
f 801 800 412
f 411 412 799
f 377 748 747
f 378 747 746
f 741 373 376
f 800 799 412
f 799 798 411
f 408 796 795
f 408 411 797
f 380 750 749
f 380 752 751
f 377 749 748
f 743 376 375
f 798 797 411
f 797 796 408
f 407 408 794
f 379 753 752
f 751 750 380
f 745 375 378
f 795 794 408
f 794 793 407
f 404 407 792
f 382 755 754
f 379 754 753
f 747 378 377
f 793 792 407
f 792 791 404
f 403 404 790
f 381 757 756
f 382 756 755
f 749 377 380
f 791 790 404
f 790 789 403
f 400 403 788
f 384 759 758
f 381 758 757
f 752 380 379
f 789 788 403
f 788 787 400
f 399 400 786
f 383 761 760
f 384 760 759
f 754 379 382
f 787 786 400
f 786 785 399
f 396 399 784
f 386 763 762
f 383 762 761
f 756 382 381
f 785 784 399
f 784 783 396
f 395 781 780
f 395 396 782
f 385 765 764
f 385 767 766
f 386 764 763
f 758 381 384
f 783 782 396
f 782 781 395
f 392 395 779
f 388 768 767
f 766 765 385
f 760 384 383
f 780 779 395
f 779 778 392
f 391 392 777
f 387 770 769
f 388 769 768
f 762 383 386
f 778 777 392
f 777 776 391
f 774 389 391
f 772 771 387
f 387 771 770
f 764 386 385
f 776 775 391
f 391 775 774
f 389 773 772
f 767 385 388
f 774 773 389
f 769 388 387
f 387 389 772
f 303 555 664
f 664 670 672
f 664 662 666
f 664 667 670
f 666 665 664
f 664 668 667
f 665 669 664
f 669 668 664
f 672 829 664
f 875 717 718
f 715 716 874
f 716 717 875
f 875 874 716
f 714 715 873
f 872 713 714
f 873 872 714
f 712 713 871
f 870 711 712
f 871 870 712
f 710 711 869
f 868 709 710
f 869 868 710
f 708 709 867
f 866 707 708
f 867 866 708
f 706 707 865
f 864 705 706
f 865 864 706
f 704 705 863
f 862 703 704
f 863 862 704
f 702 703 861
f 860 701 702
f 861 860 702
f 700 701 859
f 858 699 700
f 859 858 700
f 698 699 857
f 856 697 698
f 857 856 698
f 696 697 855
f 854 695 696
f 855 854 696
f 694 695 853
f 852 693 694
f 853 852 694
f 692 693 851
f 850 691 692
f 851 850 692
f 690 691 849
f 848 689 690
f 849 848 690
f 688 689 847
f 846 687 688
f 847 846 688
f 686 687 845
f 844 685 686
f 845 844 686
f 684 685 843
f 842 683 684
f 843 842 684
f 682 683 841
f 840 681 682
f 841 840 682
f 680 681 839
f 838 679 680
f 839 838 680
f 678 679 837
f 836 677 678
f 837 836 678
f 676 677 835
f 834 675 676
f 835 834 676
f 674 675 833
f 832 673 674
f 833 832 674
f 671 673 831
f 830 672 671
f 831 830 671
f 830 829 672
f 832 831 673
f 834 833 675
f 836 835 677
f 838 837 679
f 840 839 681
f 842 841 683
f 844 843 685
f 846 845 687
f 848 847 689
f 850 849 691
f 852 851 693
f 854 853 695
f 856 855 697
f 858 857 699
f 860 859 701
f 862 861 703
f 864 863 705
f 866 865 707
f 868 867 709
f 870 869 711
f 872 871 713
f 874 873 715
f 718 828 875
