# 
# Wavefront OBJ file
# Created with Kaydara FBX
# 
mtllib poklopac.mtl

g poklopac
v 61.184171 -36.489629 48.000000
v 61.188134 -36.373617 48.000000
v 61.188134 -36.373617 44.000000
v 61.172301 -36.605100 48.000000
v 61.184171 -36.489629 44.000000
v 61.152577 -36.719492 48.000000
v 61.172301 -36.605100 44.000000
v 61.125094 -36.832271 48.000000
v 61.152577 -36.719492 44.000000
v 61.089978 -36.942912 48.000000
v 61.125094 -36.832271 44.000000
v 61.047394 -37.050899 48.000000
v 61.089978 -36.942912 44.000000
v 60.997539 -37.155727 48.000000
v 61.047394 -37.050899 44.000000
v 60.940647 -37.256909 48.000000
v 60.997539 -37.155727 44.000000
v 60.876983 -37.353973 48.000000
v 60.940647 -37.256909 44.000000
v 60.806844 -37.446466 48.000000
v 60.876983 -37.353973 44.000000
v 60.730556 -37.533957 48.000000
v 60.806844 -37.446466 44.000000
v 60.648475 -37.616038 48.000000
v 60.730556 -37.533957 44.000000
v 60.560984 -37.692326 48.000000
v 60.648475 -37.616038 44.000000
v 60.468491 -37.762466 48.000000
v 60.560984 -37.692326 44.000000
v 60.371427 -37.826130 48.000000
v 60.468491 -37.762466 44.000000
v 60.270245 -37.883022 48.000000
v 60.371427 -37.826130 44.000000
v 60.165416 -37.932876 48.000000
v 60.270245 -37.883022 44.000000
v 60.057430 -37.975460 48.000000
v 60.165416 -37.932876 44.000000
v 59.946789 -38.010576 48.000000
v 60.057430 -37.975460 44.000000
v 59.834010 -38.038060 48.000000
v 59.946789 -38.010576 44.000000
v 59.719618 -38.057783 48.000000
v 59.834010 -38.038060 44.000000
v 59.604147 -38.069654 48.000000
v 59.719618 -38.057783 44.000000
v 59.488134 -38.073617 48.000000
v 59.604147 -38.069654 44.000000
v 59.372122 -38.069654 48.000000
v 59.488134 -38.073617 44.000000
v 59.256651 -38.057783 48.000000
v 59.372122 -38.069654 44.000000
v 59.142259 -38.038060 48.000000
v 59.256651 -38.057783 44.000000
v 59.029480 -38.010576 48.000000
v 59.142259 -38.038060 44.000000
v 58.918839 -37.975460 48.000000
v 59.029480 -38.010576 44.000000
v 58.810853 -37.932876 48.000000
v 58.918839 -37.975460 44.000000
v 58.706024 -37.883022 48.000000
v 58.810853 -37.932876 44.000000
v 58.604842 -37.826130 48.000000
v 58.706024 -37.883022 44.000000
v 58.507778 -37.762466 48.000000
v 58.604842 -37.826130 44.000000
v 58.415285 -37.692326 48.000000
v 58.507778 -37.762466 44.000000
v 58.327794 -37.616038 48.000000
v 58.415285 -37.692326 44.000000
v 58.245713 -37.533957 48.000000
v 58.327794 -37.616038 44.000000
v 58.169425 -37.446466 48.000000
v 58.245713 -37.533957 44.000000
v 58.099286 -37.353973 48.000000
v 58.169425 -37.446466 44.000000
v 58.035621 -37.256909 48.000000
v 58.099286 -37.353973 44.000000
v 57.978730 -37.155727 48.000000
v 58.035621 -37.256909 44.000000
v 57.928875 -37.050899 48.000000
v 57.978730 -37.155727 44.000000
v 57.886291 -36.942912 48.000000
v 57.928875 -37.050899 44.000000
v 57.851175 -36.832271 48.000000
v 57.886291 -36.942912 44.000000
v 57.823691 -36.719492 48.000000
v 57.851175 -36.832271 44.000000
v 57.803968 -36.605100 48.000000
v 57.823691 -36.719492 44.000000
v 57.792098 -36.489629 48.000000
v 57.803968 -36.605100 44.000000
v 57.788134 -36.373617 48.000000
v 57.792098 -36.489629 44.000000
v 57.792098 -36.257605 48.000000
v 57.788134 -36.373617 44.000000
v 57.803968 -36.142133 48.000000
v 57.792098 -36.257605 44.000000
v 57.823691 -36.027741 48.000000
v 57.803968 -36.142133 44.000000
v 57.851175 -35.914962 48.000000
v 57.823691 -36.027741 44.000000
v 57.886291 -35.804321 48.000000
v 57.851175 -35.914962 44.000000
v 57.928875 -35.696335 48.000000
v 57.886291 -35.804321 44.000000
v 57.978730 -35.591506 48.000000
v 57.928875 -35.696335 44.000000
v 58.035621 -35.490324 48.000000
v 57.978730 -35.591506 44.000000
v 58.099286 -35.393260 48.000000
v 58.035621 -35.490324 44.000000
v 58.169425 -35.300767 48.000000
v 58.099286 -35.393260 44.000000
v 58.245713 -35.213276 48.000000
v 58.169425 -35.300767 44.000000
v 58.327794 -35.131196 48.000000
v 58.245713 -35.213276 44.000000
v 58.415285 -35.054908 48.000000
v 58.327794 -35.131196 44.000000
v 58.507778 -34.984768 48.000000
v 58.415285 -35.054908 44.000000
v 58.604842 -34.921104 48.000000
v 58.507778 -34.984768 44.000000
v 58.706024 -34.864212 48.000000
v 58.604842 -34.921104 44.000000
v 58.810853 -34.814358 48.000000
v 58.706024 -34.864212 44.000000
v 58.918839 -34.771773 48.000000
v 58.810853 -34.814358 44.000000
v 59.029480 -34.736657 48.000000
v 58.918839 -34.771773 44.000000
v 59.142259 -34.709174 48.000000
v 59.029480 -34.736657 44.000000
v 59.256651 -34.689451 48.000000
v 59.142259 -34.709174 44.000000
v 59.372122 -34.677580 48.000000
v 59.256651 -34.689451 44.000000
v 59.488134 -34.673617 48.000000
v 59.372122 -34.677580 44.000000
v 59.604147 -34.677580 48.000000
v 59.488134 -34.673617 44.000000
v 59.719618 -34.689451 48.000000
v 59.604147 -34.677580 44.000000
v 59.834010 -34.709174 48.000000
v 59.719618 -34.689451 44.000000
v 59.946789 -34.736657 48.000000
v 59.834010 -34.709174 44.000000
v 60.057430 -34.771773 48.000000
v 59.946789 -34.736657 44.000000
v 60.165416 -34.814358 48.000000
v 60.057430 -34.771773 44.000000
v 60.270245 -34.864212 48.000000
v 60.165416 -34.814358 44.000000
v 60.371427 -34.921104 48.000000
v 60.270245 -34.864212 44.000000
v 60.468491 -34.984768 48.000000
v 60.371427 -34.921104 44.000000
v 60.560984 -35.054908 48.000000
v 60.468491 -34.984768 44.000000
v 60.648475 -35.131196 48.000000
v 60.560984 -35.054908 44.000000
v 60.730556 -35.213276 48.000000
v 60.648475 -35.131196 44.000000
v 60.806844 -35.300767 48.000000
v 60.730556 -35.213276 44.000000
v 60.876983 -35.393260 48.000000
v 60.806844 -35.300767 44.000000
v 60.940647 -35.490324 48.000000
v 60.876983 -35.393260 44.000000
v 60.997539 -35.591506 48.000000
v 60.940647 -35.490324 44.000000
v 61.047394 -35.696335 48.000000
v 60.997539 -35.591506 44.000000
v 61.089978 -35.804321 48.000000
v 61.047394 -35.696335 44.000000
v 61.125094 -35.914962 48.000000
v 61.089978 -35.804321 44.000000
v 61.152577 -36.027741 48.000000
v 61.125094 -35.914962 44.000000
v 61.172301 -36.142133 48.000000
v 61.152577 -36.027741 44.000000
v 61.184171 -36.257605 48.000000
v 61.172301 -36.142133 44.000000
v 61.184171 -36.257605 44.000000
v 64.277209 -32.280890 48.000000
v 54.699060 -40.466343 48.000000
v 54.699060 -32.280890 48.000000
v 64.277209 -40.466343 48.000000
v 33.154270 -16.395668 48.000000
v 33.154270 -32.280890 48.000000
v 114.188492 -32.281453 48.000000
v 110.057128 -34.769988 48.000000
v 110.165115 -34.812573 48.000000
v 110.269943 -34.862427 48.000000
v 110.371126 -34.919319 48.000000
v 109.946487 -34.734873 48.000000
v 109.603845 -34.675795 48.000000
v 109.719316 -34.687666 48.000000
v 104.787173 -32.280890 48.000000
v 108.705722 -34.862427 48.000000
v 108.810551 -34.812573 48.000000
v 109.833708 -34.707389 48.000000
v 109.487833 -34.671832 48.000000
v 109.141958 -34.707389 48.000000
v 109.256349 -34.687666 48.000000
v 108.918537 -34.769988 48.000000
v 108.507476 -34.982983 48.000000
v 108.604540 -34.919319 48.000000
v 110.730254 -35.211492 48.000000
v 110.806542 -35.298982 48.000000
v 109.371821 -34.675795 48.000000
v 109.029178 -34.734873 48.000000
v 108.327492 -35.129411 48.000000
v 108.414983 -35.053123 48.000000
v 104.787173 -40.462492 48.000000
v 107.978428 -37.153943 48.000000
v 107.928574 -37.049114 48.000000
v 108.098984 -37.352189 48.000000
v 108.035320 -37.255125 48.000000
v 108.327492 -37.614253 48.000000
v 108.245412 -37.532172 48.000000
v 108.705722 -37.881237 48.000000
v 108.604540 -37.824345 48.000000
v 108.918537 -37.973676 48.000000
v 108.810551 -37.931091 48.000000
v 109.141958 -38.036275 48.000000
v 109.029178 -38.008791 48.000000
v 109.371821 -38.067869 48.000000
v 109.256349 -38.055998 48.000000
v 114.188492 -40.462492 48.000000
v 109.833708 -38.036275 48.000000
v 109.719316 -38.055998 48.000000
v 110.269943 -37.881237 48.000000
v 110.165115 -37.931091 48.000000
v 110.648173 -35.129411 48.000000
v 110.468189 -34.982983 48.000000
v 110.560682 -35.053123 48.000000
v 108.245412 -35.211492 48.000000
v 108.098984 -35.391475 48.000000
v 108.169124 -35.298982 48.000000
v 107.978428 -35.589721 48.000000
v 108.035320 -35.488539 48.000000
v 107.885989 -35.802537 48.000000
v 107.928574 -35.694550 48.000000
v 107.850873 -36.830486 48.000000
v 107.823390 -36.717707 48.000000
v 108.169124 -37.444681 48.000000
v 109.487833 -38.071832 48.000000
v 109.946487 -38.008791 48.000000
v 110.057128 -37.973676 48.000000
v 107.803667 -36.140349 48.000000
v 107.823390 -36.025957 48.000000
v 107.803667 -36.603315 48.000000
v 108.507476 -37.760681 48.000000
v 108.414983 -37.690541 48.000000
v 109.603845 -38.067869 48.000000
v 110.468189 -37.760681 48.000000
v 110.371126 -37.824345 48.000000
v 110.876682 -37.352189 48.000000
v 110.806542 -37.444681 48.000000
v 110.997238 -37.153943 48.000000
v 110.940346 -37.255125 48.000000
v 111.124792 -35.913177 48.000000
v 111.152276 -36.025957 48.000000
v 107.850873 -35.913177 48.000000
v 107.885989 -36.941127 48.000000
v 110.730254 -37.532172 48.000000
v 110.648173 -37.614253 48.000000
v 111.089676 -36.941127 48.000000
v 111.047092 -37.049114 48.000000
v 111.171999 -36.140349 48.000000
v 110.997238 -35.589721 48.000000
v 111.047092 -35.694550 48.000000
v 110.876682 -35.391475 48.000000
v 110.940346 -35.488539 48.000000
v 107.791796 -36.255820 48.000000
v 107.787833 -36.371832 48.000000
v 110.560682 -37.690541 48.000000
v 111.089676 -35.802537 48.000000
v 107.791796 -36.487844 48.000000
v 111.171999 -36.603315 48.000000
v 111.152276 -36.717707 48.000000
v 111.183870 -36.255820 48.000000
v 111.187833 -36.371832 48.000000
v 111.124792 -36.830486 48.000000
v 111.183870 -36.487844 48.000000
v 137.847385 -16.395668 48.000000
v 84.530375 -32.280890 48.000000
v 114.188492 47.544679 48.000000
v 110.141794 44.954612 48.000000
v 110.249781 44.912027 48.000000
v 110.354610 44.862173 48.000000
v 110.455792 44.805281 48.000000
v 110.031154 44.989728 48.000000
v 109.688511 45.048805 48.000000
v 109.803982 45.036934 48.000000
v 104.787173 47.544679 48.000000
v 108.790389 44.862173 48.000000
v 108.895217 44.912027 48.000000
v 109.918374 45.017211 48.000000
v 109.456487 45.048805 48.000000
v 109.572499 45.052768 48.000000
v 109.226624 45.017211 48.000000
v 109.341016 45.036934 48.000000
v 109.003204 44.954612 48.000000
v 108.592143 44.741617 48.000000
v 108.689206 44.805281 48.000000
v 110.814920 44.513109 48.000000
v 110.891208 44.425618 48.000000
v 109.113845 44.989728 48.000000
v 108.412159 44.595189 48.000000
v 108.499650 44.671477 48.000000
v 104.787173 39.204790 48.000000
v 108.063094 42.570658 48.000000
v 108.013240 42.675486 48.000000
v 108.183650 42.372412 48.000000
v 108.119986 42.469476 48.000000
v 108.412159 42.110347 48.000000
v 108.330078 42.192428 48.000000
v 108.790389 41.843363 48.000000
v 108.689206 41.900255 48.000000
v 109.003204 41.750925 48.000000
v 108.895217 41.793509 48.000000
v 109.226624 41.688325 48.000000
v 109.113845 41.715809 48.000000
v 109.456487 41.656731 48.000000
v 109.341016 41.668602 48.000000
v 110.249781 41.793509 48.000000
v 110.141794 41.750925 48.000000
v 110.732839 44.595189 48.000000
v 110.552856 44.741617 48.000000
v 110.645349 44.671477 48.000000
v 108.330078 44.513109 48.000000
v 108.183650 44.333125 48.000000
v 108.253790 44.425618 48.000000
v 108.063094 44.134879 48.000000
v 108.119986 44.236061 48.000000
v 107.970656 43.922064 48.000000
v 108.013240 44.030050 48.000000
v 107.935540 42.894114 48.000000
v 107.908056 43.006893 48.000000
v 108.253790 42.279919 48.000000
v 109.688511 41.656731 48.000000
v 109.572499 41.652768 48.000000
v 109.918374 41.688325 48.000000
v 109.803982 41.668602 48.000000
v 110.031154 41.715809 48.000000
v 110.552856 41.963919 48.000000
v 110.455792 41.900255 48.000000
v 107.888333 43.584252 48.000000
v 107.908056 43.698643 48.000000
v 107.888333 43.121285 48.000000
v 108.592143 41.963919 48.000000
v 108.499650 42.034059 48.000000
v 110.354610 41.843363 48.000000
v 114.188492 39.202244 48.000000
v 110.961348 42.372412 48.000000
v 110.891208 42.279919 48.000000
v 111.081904 42.570658 48.000000
v 111.025012 42.469476 48.000000
v 111.209458 43.811423 48.000000
v 111.236942 43.698643 48.000000
v 107.935540 43.811423 48.000000
v 107.970656 42.783473 48.000000
v 110.814920 42.192428 48.000000
v 110.732839 42.110347 48.000000
v 111.174343 42.783473 48.000000
v 111.131758 42.675486 48.000000
v 111.256665 43.584252 48.000000
v 111.081904 44.134879 48.000000
v 111.131758 44.030050 48.000000
v 110.961348 44.333125 48.000000
v 111.025012 44.236061 48.000000
v 107.876462 43.468780 48.000000
v 107.872499 43.352768 48.000000
v 110.645349 42.034059 48.000000
v 111.174343 43.922064 48.000000
v 107.876462 43.236756 48.000000
v 111.256665 43.121285 48.000000
v 111.236942 43.006893 48.000000
v 111.268536 43.468780 48.000000
v 111.272499 43.352768 48.000000
v 111.209458 42.894114 48.000000
v 111.268536 43.236756 48.000000
v 137.847385 39.202244 48.000000
v 24.775490 -1.154258 48.000000
v 33.154270 -1.154258 48.000000
v 28.964880 1.880495 48.000000
v 29.080892 1.884458 48.000000
v 33.048020 8.315248 48.000000
v 30.125220 4.822916 48.000000
v 30.207301 4.740835 48.000000
v 29.642162 5.139754 48.000000
v 29.746990 5.089900 48.000000
v 29.423534 5.217454 48.000000
v 29.534175 5.182339 48.000000
v 28.964880 5.280495 48.000000
v 29.080892 5.276532 48.000000
v 24.740279 8.315248 48.000000
v 28.848868 5.276532 48.000000
v 29.196363 1.896329 48.000000
v 29.423534 1.943536 48.000000
v 29.310755 1.916052 48.000000
v 30.037729 4.899204 48.000000
v 29.848173 5.033008 48.000000
v 29.945236 4.969344 48.000000
v 28.506225 5.217454 48.000000
v 28.619005 5.244938 48.000000
v 28.287598 5.139754 48.000000
v 28.395585 5.182339 48.000000
v 28.848868 1.884458 48.000000
v 28.733397 1.896329 48.000000
v 30.283589 4.653345 48.000000
v 28.733397 5.264661 48.000000
v 27.984523 4.969344 48.000000
v 28.081587 5.033008 48.000000
v 27.405621 4.257777 48.000000
v 27.455475 4.362606 48.000000
v 28.081587 2.127982 48.000000
v 27.984523 2.191646 48.000000
v 28.619005 1.916052 48.000000
v 28.506225 1.943536 48.000000
v 30.474285 4.362606 48.000000
v 30.524139 4.257777 48.000000
v 30.353729 4.560852 48.000000
v 30.417393 4.463788 48.000000
v 29.196363 5.264661 48.000000
v 29.310755 5.244938 48.000000
v 28.182769 5.089900 48.000000
v 27.722459 4.740835 48.000000
v 27.804540 4.822916 48.000000
v 27.363036 4.149790 48.000000
v 27.804540 2.338074 48.000000
v 27.722459 2.420155 48.000000
v 28.182769 2.071090 48.000000
v 28.395585 1.978651 48.000000
v 28.287598 2.021236 48.000000
v 29.642162 2.021236 48.000000
v 29.534175 1.978651 48.000000
v 29.945236 2.191646 48.000000
v 29.848173 2.127982 48.000000
v 64.190166 47.542445 48.000000
v 61.132177 44.138033 48.000000
v 61.174761 44.030046 48.000000
v 61.025430 44.344043 48.000000
v 61.082322 44.242861 48.000000
v 60.250199 45.020010 48.000000
v 60.355028 44.970156 48.000000
v 60.031572 45.097710 48.000000
v 60.142213 45.062594 48.000000
v 54.894016 39.207688 48.000000
v 58.592561 42.071902 48.000000
v 58.500068 42.142042 48.000000
v 58.790807 41.951346 48.000000
v 58.689625 42.008238 48.000000
v 59.114263 41.823791 48.000000
v 59.003622 41.858907 48.000000
v 60.553274 42.071902 48.000000
v 64.190166 39.204790 48.000000
v 30.566723 4.149790 48.000000
v 27.892030 4.899204 48.000000
v 27.576031 4.560852 48.000000
v 27.646171 4.653345 48.000000
v 27.512367 4.463788 48.000000
v 27.646171 2.507645 48.000000
v 30.037729 2.261786 48.000000
v 30.207301 2.420155 48.000000
v 30.125220 2.338074 48.000000
v 61.209877 43.919405 48.000000
v 60.961766 44.441107 48.000000
v 60.456210 44.913264 48.000000
v 59.918793 45.125194 48.000000
v 54.894016 47.542445 48.000000
v 58.895635 45.020010 48.000000
v 59.003622 45.062594 48.000000
v 58.689625 44.913264 48.000000
v 58.790807 44.970156 48.000000
v 58.895635 41.901491 48.000000
v 60.250199 41.901491 48.000000
v 60.142213 41.858907 48.000000
v 60.456210 42.008238 48.000000
v 60.355028 41.951346 48.000000
v 60.645767 42.142042 48.000000
v 27.327921 4.039150 48.000000
v 27.892030 2.261786 48.000000
v 61.237360 43.806626 48.000000
v 61.257083 43.692234 48.000000
v 60.815338 44.621091 48.000000
v 60.891626 44.533600 48.000000
v 59.688929 45.156788 48.000000
v 59.804401 45.144917 48.000000
v 59.456905 45.156788 48.000000
v 59.572917 45.160751 48.000000
v 59.114263 45.097710 48.000000
v 58.592561 44.849600 48.000000
v 57.935958 43.919405 48.000000
v 57.971074 44.030046 48.000000
v 60.031572 41.823791 48.000000
v 59.918793 41.796308 48.000000
v 61.174761 42.891455 48.000000
v 61.132177 42.783469 48.000000
v 30.601839 4.039150 48.000000
v 30.629323 3.926370 48.000000
v 27.280714 3.811978 48.000000
v 27.300437 3.926370 48.000000
v 27.268843 3.464483 48.000000
v 27.264880 3.580495 48.000000
v 29.746990 2.071090 48.000000
v 30.566723 3.011200 48.000000
v 30.524139 2.903213 48.000000
v 61.268954 43.576763 48.000000
v 61.272917 43.460751 48.000000
v 60.733258 44.703172 48.000000
v 60.553274 44.849600 48.000000
v 60.645767 44.779460 48.000000
v 59.227042 45.125194 48.000000
v 59.341434 45.144917 48.000000
v 58.013658 44.138033 48.000000
v 58.063512 44.242861 48.000000
v 57.908474 43.806626 48.000000
v 58.120404 42.577458 48.000000
v 58.063512 42.678640 48.000000
v 59.227042 41.796308 48.000000
v 59.456905 41.764714 48.000000
v 59.341434 41.776585 48.000000
v 59.688929 41.764714 48.000000
v 59.572917 41.760751 48.000000
v 59.804401 41.776585 48.000000
v 60.961766 42.480394 48.000000
v 60.891626 42.387901 48.000000
v 61.082322 42.678640 48.000000
v 61.025430 42.577458 48.000000
v 61.209877 43.002096 48.000000
v 30.649046 3.811978 48.000000
v 30.660917 3.696507 48.000000
v 27.268843 3.696507 48.000000
v 27.280714 3.349012 48.000000
v 27.455475 2.798384 48.000000
v 27.405621 2.903213 48.000000
v 27.576031 2.600138 48.000000
v 27.512367 2.697202 48.000000
v 30.353729 2.600138 48.000000
v 30.283589 2.507645 48.000000
v 30.474285 2.798384 48.000000
v 30.417393 2.697202 48.000000
v 30.601839 3.121840 48.000000
v 58.412577 44.703172 48.000000
v 58.500068 44.779460 48.000000
v 58.120404 44.344043 48.000000
v 58.184068 44.441107 48.000000
v 57.876880 43.576763 48.000000
v 57.888751 43.692234 48.000000
v 57.876880 43.344739 48.000000
v 57.872917 43.460751 48.000000
v 58.013658 42.783469 48.000000
v 58.254208 42.387901 48.000000
v 58.184068 42.480394 48.000000
v 60.815338 42.300410 48.000000
v 60.733258 42.218330 48.000000
v 61.237360 43.114875 48.000000
v 30.664880 3.580495 48.000000
v 27.327921 3.121840 48.000000
v 27.300437 3.234620 48.000000
v 58.330496 44.621091 48.000000
v 58.254208 44.533600 48.000000
v 57.908474 43.114875 48.000000
v 57.888751 43.229267 48.000000
v 57.971074 42.891455 48.000000
v 57.935958 43.002096 48.000000
v 58.412577 42.218330 48.000000
v 58.330496 42.300410 48.000000
v 61.268954 43.344739 48.000000
v 61.257083 43.229267 48.000000
v 27.363036 3.011200 48.000000
v 30.649046 3.349012 48.000000
v 30.629323 3.234620 48.000000
v 30.660917 3.464483 48.000000
v 33.048020 39.207688 48.000000
v 84.530375 39.204790 48.000000
v 137.847385 -32.281453 48.000000
v 84.530375 -16.395668 48.000000
v 54.894016 47.542445 44.000000
v 58.895635 45.020010 44.000000
v 58.790807 44.970156 44.000000
v 59.114263 45.097710 44.000000
v 59.003622 45.062594 44.000000
v 58.689625 44.913264 44.000000
v 59.227042 45.125194 44.000000
v 64.190166 47.542445 44.000000
v 60.250199 45.020010 44.000000
v 60.142213 45.062594 44.000000
v 60.456210 44.913264 44.000000
v 60.355028 44.970156 44.000000
v 33.154270 -1.154258 44.000000
v 29.196363 1.896329 44.000000
v 29.310755 1.916052 44.000000
v 24.775490 -1.154258 44.000000
v 28.848868 1.884458 44.000000
v 28.964880 1.880495 44.000000
v 58.254208 44.533600 44.000000
v 58.184068 44.441107 44.000000
v 59.456905 45.156788 44.000000
v 59.341434 45.144917 44.000000
v 59.572917 45.160751 44.000000
v 60.031572 45.097710 44.000000
v 60.553274 44.849600 44.000000
v 61.132177 44.138033 44.000000
v 61.082322 44.242861 44.000000
v 61.209877 43.919405 44.000000
v 61.174761 44.030046 44.000000
v 64.190166 39.204790 44.000000
v 61.132177 42.783469 44.000000
v 61.174761 42.891455 44.000000
v 29.080892 1.884458 44.000000
v 58.330496 44.621091 44.000000
v 59.688929 45.156788 44.000000
v 59.918793 45.125194 44.000000
v 59.804401 45.144917 44.000000
v 61.025430 44.344043 44.000000
v 61.237360 43.806626 44.000000
v 61.082322 42.678640 44.000000
v 60.961766 42.480394 44.000000
v 61.025430 42.577458 44.000000
v 60.815338 42.300410 44.000000
v 60.891626 42.387901 44.000000
v 60.456210 42.008238 44.000000
v 60.553274 42.071902 44.000000
v 60.250199 41.901491 44.000000
v 60.355028 41.951346 44.000000
v 60.031572 41.823791 44.000000
v 60.142213 41.858907 44.000000
v 24.740279 8.315248 44.000000
v 33.048020 8.315248 44.000000
v 28.964880 5.280495 44.000000
v 29.196363 5.264661 44.000000
v 29.080892 5.276532 44.000000
v 29.642162 5.139754 44.000000
v 29.534175 5.182339 44.000000
v 29.848173 5.033008 44.000000
v 29.746990 5.089900 44.000000
v 28.619005 1.916052 44.000000
v 28.733397 1.896329 44.000000
v 58.013658 44.138033 44.000000
v 57.971074 44.030046 44.000000
v 58.412577 44.703172 44.000000
v 58.592561 44.849600 44.000000
v 58.500068 44.779460 44.000000
v 60.733258 44.703172 44.000000
v 60.645767 44.779460 44.000000
v 61.268954 43.576763 44.000000
v 61.257083 43.692234 44.000000
v 61.268954 43.344739 44.000000
v 61.272917 43.460751 44.000000
v 61.209877 43.002096 44.000000
v 59.918793 41.796308 44.000000
v 54.894016 39.207688 44.000000
v 58.895635 41.901491 44.000000
v 59.003622 41.858907 44.000000
v 58.592561 42.071902 44.000000
v 58.689625 42.008238 44.000000
v 58.412577 42.218330 44.000000
v 58.500068 42.142042 44.000000
v 28.506225 5.217454 44.000000
v 28.395585 5.182339 44.000000
v 28.733397 5.264661 44.000000
v 28.619005 5.244938 44.000000
v 30.037729 4.899204 44.000000
v 29.945236 4.969344 44.000000
v 30.283589 4.653345 44.000000
v 30.207301 4.740835 44.000000
v 29.423534 1.943536 44.000000
v 29.534175 1.978651 44.000000
v 27.892030 2.261786 44.000000
v 27.984523 2.191646 44.000000
v 57.935958 43.919405 44.000000
v 58.120404 44.344043 44.000000
v 58.063512 44.242861 44.000000
v 60.815338 44.621091 44.000000
v 60.961766 44.441107 44.000000
v 60.891626 44.533600 44.000000
v 61.237360 43.114875 44.000000
v 61.257083 43.229267 44.000000
v 59.688929 41.764714 44.000000
v 59.804401 41.776585 44.000000
v 58.790807 41.951346 44.000000
v 27.512367 4.463788 44.000000
v 27.455475 4.362606 44.000000
v 28.182769 5.089900 44.000000
v 28.081587 5.033008 44.000000
v 28.848868 5.276532 44.000000
v 29.423534 5.217454 44.000000
v 29.310755 5.244938 44.000000
v 30.125220 4.822916 44.000000
v 29.746990 2.071090 44.000000
v 29.848173 2.127982 44.000000
v 28.395585 1.978651 44.000000
v 28.506225 1.943536 44.000000
v 28.182769 2.071090 44.000000
v 28.287598 2.021236 44.000000
v 28.081587 2.127982 44.000000
v 27.646171 2.507645 44.000000
v 27.722459 2.420155 44.000000
v 57.908474 43.806626 44.000000
v 57.888751 43.692234 44.000000
v 60.645767 42.142042 44.000000
v 60.733258 42.218330 44.000000
v 59.456905 41.764714 44.000000
v 59.572917 41.760751 44.000000
v 27.405621 4.257777 44.000000
v 27.892030 4.899204 44.000000
v 27.804540 4.822916 44.000000
v 28.287598 5.139754 44.000000
v 30.353729 4.560852 44.000000
v 30.474285 4.362606 44.000000
v 30.417393 4.463788 44.000000
v 30.566723 4.149790 44.000000
v 30.524139 4.257777 44.000000
v 30.037729 2.261786 44.000000
v 30.125220 2.338074 44.000000
v 29.945236 2.191646 44.000000
v 27.576031 2.600138 44.000000
v 57.876880 43.576763 44.000000
v 57.872917 43.460751 44.000000
v 59.227042 41.796308 44.000000
v 59.341434 41.776585 44.000000
v 59.114263 41.823791 44.000000
v 58.013658 42.783469 44.000000
v 58.063512 42.678640 44.000000
v 27.576031 4.560852 44.000000
v 27.722459 4.740835 44.000000
v 27.646171 4.653345 44.000000
v 27.984523 4.969344 44.000000
v 27.804540 2.338074 44.000000
v 58.120404 42.577458 44.000000
v 58.184068 42.480394 44.000000
v 57.971074 42.891455 44.000000
v 27.363036 4.149790 44.000000
v 30.601839 4.039150 44.000000
v 30.664880 3.580495 44.000000
v 30.474285 2.798384 44.000000
v 30.524139 2.903213 44.000000
v 29.642162 2.021236 44.000000
v 58.254208 42.387901 44.000000
v 58.330496 42.300410 44.000000
v 57.908474 43.114875 44.000000
v 57.935958 43.002096 44.000000
v 57.876880 43.344739 44.000000
v 57.888751 43.229267 44.000000
v 27.327921 4.039150 44.000000
v 27.300437 3.926370 44.000000
v 30.660917 3.696507 44.000000
v 30.566723 3.011200 44.000000
v 30.353729 2.600138 44.000000
v 30.417393 2.697202 44.000000
v 30.207301 2.420155 44.000000
v 30.283589 2.507645 44.000000
v 27.455475 2.798384 44.000000
v 27.512367 2.697202 44.000000
v 27.363036 3.011200 44.000000
v 27.405621 2.903213 44.000000
v 27.280714 3.811978 44.000000
v 30.649046 3.811978 44.000000
v 30.629323 3.926370 44.000000
v 30.660917 3.464483 44.000000
v 30.601839 3.121840 44.000000
v 30.629323 3.234620 44.000000
v 27.264880 3.580495 44.000000
v 30.649046 3.349012 44.000000
v 27.327921 3.121840 44.000000
v 27.280714 3.349012 44.000000
v 27.300437 3.234620 44.000000
v 27.268843 3.464483 44.000000
v 33.048020 39.207688 44.000000
v 27.268843 3.696507 44.000000
v 33.154270 -16.395668 44.000000
v 84.530375 39.204790 44.000000
v 104.787173 47.544679 44.000000
v 109.003204 44.954612 44.000000
v 108.895217 44.912027 44.000000
v 108.790389 44.862173 44.000000
v 108.689206 44.805281 44.000000
v 109.113845 44.989728 44.000000
v 109.456487 45.048805 44.000000
v 109.341016 45.036934 44.000000
v 114.188492 47.544679 44.000000
v 110.354610 44.862173 44.000000
v 110.249781 44.912027 44.000000
v 108.330078 44.513109 44.000000
v 108.253790 44.425618 44.000000
v 109.226624 45.017211 44.000000
v 109.572499 45.052768 44.000000
v 109.918374 45.017211 44.000000
v 109.803982 45.036934 44.000000
v 110.141794 44.954612 44.000000
v 110.552856 44.741617 44.000000
v 110.455792 44.805281 44.000000
v 114.188492 39.202244 44.000000
v 110.141794 41.750925 44.000000
v 110.249781 41.793509 44.000000
v 109.688511 41.656731 44.000000
v 109.803982 41.668602 44.000000
v 108.063094 44.134879 44.000000
v 108.013240 44.030050 44.000000
v 108.183650 44.333125 44.000000
v 108.119986 44.236061 44.000000
v 108.412159 44.595189 44.000000
v 108.592143 44.741617 44.000000
v 108.499650 44.671477 44.000000
v 109.688511 45.048805 44.000000
v 110.031154 44.989728 44.000000
v 110.031154 41.715809 44.000000
v 109.918374 41.688325 44.000000
v 109.003204 41.750925 44.000000
v 109.113845 41.715809 44.000000
v 108.592143 41.963919 44.000000
v 108.689206 41.900255 44.000000
v 110.732839 44.595189 44.000000
v 110.645349 44.671477 44.000000
v 111.256665 43.584252 44.000000
v 111.236942 43.698643 44.000000
v 110.961348 42.372412 44.000000
v 111.025012 42.469476 44.000000
v 110.814920 42.192428 44.000000
v 110.891208 42.279919 44.000000
v 110.354610 41.843363 44.000000
v 110.455792 41.900255 44.000000
v 109.456487 41.656731 44.000000
v 109.572499 41.652768 44.000000
v 109.226624 41.688325 44.000000
v 109.341016 41.668602 44.000000
v 108.790389 41.843363 44.000000
v 108.895217 41.793509 44.000000
v 104.787173 39.204790 44.000000
v 108.253790 42.279919 44.000000
v 108.330078 42.192428 44.000000
v 108.063094 42.570658 44.000000
v 108.119986 42.469476 44.000000
v 107.970656 42.783473 44.000000
v 108.013240 42.675486 44.000000
v 107.935540 43.811423 44.000000
v 107.908056 43.698643 44.000000
v 110.814920 44.513109 44.000000
v 110.961348 44.333125 44.000000
v 110.891208 44.425618 44.000000
v 111.081904 44.134879 44.000000
v 111.025012 44.236061 44.000000
v 111.174343 43.922064 44.000000
v 111.131758 44.030050 44.000000
v 111.268536 43.468780 44.000000
v 111.081904 42.570658 44.000000
v 111.131758 42.675486 44.000000
v 110.645349 42.034059 44.000000
v 110.732839 42.110347 44.000000
v 108.183650 42.372412 44.000000
v 107.888333 43.121285 44.000000
v 107.908056 43.006893 44.000000
v 107.970656 43.922064 44.000000
v 111.209458 43.811423 44.000000
v 111.272499 43.352768 44.000000
v 111.209458 42.894114 44.000000
v 111.236942 43.006893 44.000000
v 110.552856 41.963919 44.000000
v 108.412159 42.110347 44.000000
v 108.499650 42.034059 44.000000
v 107.876462 43.236756 44.000000
v 107.888333 43.584252 44.000000
v 111.268536 43.236756 44.000000
v 111.174343 42.783473 44.000000
v 107.935540 42.894114 44.000000
v 107.876462 43.468780 44.000000
v 107.872499 43.352768 44.000000
v 111.256665 43.121285 44.000000
v 137.847385 -16.395668 44.000000
v 104.787173 -32.280890 44.000000
v 108.918537 -34.769988 44.000000
v 108.810551 -34.812573 44.000000
v 108.705722 -34.862427 44.000000
v 108.604540 -34.919319 44.000000
v 109.029178 -34.734873 44.000000
v 109.371821 -34.675795 44.000000
v 109.256349 -34.687666 44.000000
v 114.188492 -32.281453 44.000000
v 110.269943 -34.862427 44.000000
v 110.165115 -34.812573 44.000000
v 108.245412 -35.211492 44.000000
v 108.169124 -35.298982 44.000000
v 109.141958 -34.707389 44.000000
v 109.603845 -34.675795 44.000000
v 109.487833 -34.671832 44.000000
v 109.833708 -34.707389 44.000000
v 109.719316 -34.687666 44.000000
v 110.057128 -34.769988 44.000000
v 110.468189 -34.982983 44.000000
v 110.371126 -34.919319 44.000000
v 114.188492 -40.462492 44.000000
v 110.057128 -37.973676 44.000000
v 110.165115 -37.931091 44.000000
v 109.603845 -38.067869 44.000000
v 109.719316 -38.055998 44.000000
v 107.978428 -35.589721 44.000000
v 107.928574 -35.694550 44.000000
v 108.098984 -35.391475 44.000000
v 108.035320 -35.488539 44.000000
v 108.327492 -35.129411 44.000000
v 108.507476 -34.982983 44.000000
v 108.414983 -35.053123 44.000000
v 109.946487 -34.734873 44.000000
v 109.946487 -38.008791 44.000000
v 109.833708 -38.036275 44.000000
v 110.648173 -35.129411 44.000000
v 110.560682 -35.053123 44.000000
v 111.171999 -36.140349 44.000000
v 111.152276 -36.025957 44.000000
v 110.876682 -37.352189 44.000000
v 110.940346 -37.255125 44.000000
v 110.730254 -37.532172 44.000000
v 110.806542 -37.444681 44.000000
v 110.269943 -37.881237 44.000000
v 110.371126 -37.824345 44.000000
v 104.787173 -40.462492 44.000000
v 109.487833 -38.071832 44.000000
v 109.141958 -38.036275 44.000000
v 109.256349 -38.055998 44.000000
v 108.918537 -37.973676 44.000000
v 109.029178 -38.008791 44.000000
v 108.705722 -37.881237 44.000000
v 108.810551 -37.931091 44.000000
v 108.507476 -37.760681 44.000000
v 108.604540 -37.824345 44.000000
v 108.169124 -37.444681 44.000000
v 108.245412 -37.532172 44.000000
v 107.978428 -37.153943 44.000000
v 108.035320 -37.255125 44.000000
v 107.885989 -36.941127 44.000000
v 107.928574 -37.049114 44.000000
v 107.850873 -35.913177 44.000000
v 107.823390 -36.025957 44.000000
v 110.730254 -35.211492 44.000000
v 110.876682 -35.391475 44.000000
v 110.806542 -35.298982 44.000000
v 110.997238 -35.589721 44.000000
v 110.940346 -35.488539 44.000000
v 111.089676 -35.802537 44.000000
v 111.047092 -35.694550 44.000000
v 111.183870 -36.255820 44.000000
v 110.997238 -37.153943 44.000000
v 111.047092 -37.049114 44.000000
v 110.560682 -37.690541 44.000000
v 110.648173 -37.614253 44.000000
v 109.371821 -38.067869 44.000000
v 108.098984 -37.352189 44.000000
v 107.803667 -36.603315 44.000000
v 107.823390 -36.717707 44.000000
v 107.885989 -35.802537 44.000000
v 111.124792 -35.913177 44.000000
v 111.183870 -36.487844 44.000000
v 111.187833 -36.371832 44.000000
v 111.124792 -36.830486 44.000000
v 111.152276 -36.717707 44.000000
v 110.468189 -37.760681 44.000000
v 108.327492 -37.614253 44.000000
v 108.414983 -37.690541 44.000000
v 107.791796 -36.487844 44.000000
v 107.803667 -36.140349 44.000000
v 111.089676 -36.941127 44.000000
v 107.850873 -36.830486 44.000000
v 107.791796 -36.255820 44.000000
v 107.787833 -36.371832 44.000000
v 111.171999 -36.603315 44.000000
v 137.847385 -32.281453 44.000000
v 54.699060 -32.280890 44.000000
v 64.277209 -32.280890 44.000000
v 64.277209 -40.466343 44.000000
v 54.699060 -40.466343 44.000000
v 84.530375 -32.280890 44.000000
v 33.154270 -32.280890 44.000000
v 137.847385 39.202244 44.000000
v 84.530375 -16.395668 44.000000
usemtl poklopacMaterial0
f 1 2 3
f 4 1 5
f 6 4 7
f 8 6 9
f 10 8 11
f 12 10 13
f 14 12 15
f 16 14 17
f 18 16 19
f 20 18 21
f 22 20 23
f 24 22 25
f 26 24 27
f 28 26 29
f 30 28 31
f 32 30 33
f 34 32 35
f 36 34 37
f 38 36 39
f 40 38 41
f 42 40 43
f 44 42 45
f 46 44 47
f 48 46 49
f 50 48 51
f 52 50 53
f 54 52 55
f 56 54 57
f 58 56 59
f 60 58 61
f 62 60 63
f 64 62 65
f 66 64 67
f 68 66 69
f 70 68 71
f 72 70 73
f 74 72 75
f 76 74 77
f 78 76 79
f 80 78 81
f 82 80 83
f 84 82 85
f 86 84 87
f 88 86 89
f 90 88 91
f 92 90 93
f 94 92 95
f 96 94 97
f 98 96 99
f 100 98 101
f 102 100 103
f 104 102 105
f 106 104 107
f 108 106 109
f 110 108 111
f 112 110 113
f 114 112 115
f 116 114 117
f 118 116 119
f 120 118 121
f 122 120 123
f 124 122 125
f 126 124 127
f 128 126 129
f 130 128 131
f 132 130 133
f 134 132 135
f 136 134 137
f 138 136 139
f 140 138 141
f 142 140 143
f 144 142 145
f 146 144 147
f 148 146 149
f 150 148 151
f 152 150 153
f 154 152 155
f 156 154 157
f 158 156 159
f 160 158 161
f 162 160 163
f 164 162 165
f 166 164 167
f 168 166 169
f 170 168 171
f 172 170 173
f 174 172 175
f 176 174 177
f 178 176 179
f 180 178 181
f 182 180 183
f 2 182 184
f 184 3 2
f 183 184 182
f 181 183 180
f 179 181 178
f 177 179 176
f 175 177 174
f 173 175 172
f 171 173 170
f 169 171 168
f 167 169 166
f 165 167 164
f 163 165 162
f 161 163 160
f 159 161 158
f 157 159 156
f 155 157 154
f 153 155 152
f 151 153 150
f 149 151 148
f 147 149 146
f 145 147 144
f 143 145 142
f 141 143 140
f 139 141 138
f 137 139 136
f 135 137 134
f 133 135 132
f 131 133 130
f 129 131 128
f 127 129 126
f 125 127 124
f 123 125 122
f 121 123 120
f 119 121 118
f 117 119 116
f 115 117 114
f 113 115 112
f 111 113 110
f 109 111 108
f 107 109 106
f 105 107 104
f 103 105 102
f 101 103 100
f 99 101 98
f 97 99 96
f 95 97 94
f 93 95 92
f 91 93 90
f 89 91 88
f 87 89 86
f 85 87 84
f 83 85 82
f 81 83 80
f 79 81 78
f 77 79 76
f 75 77 74
f 73 75 72
f 71 73 70
f 69 71 68
f 67 69 66
f 65 67 64
f 63 65 62
f 61 63 60
f 59 61 58
f 57 59 56
f 55 57 54
f 53 55 52
f 51 53 50
f 49 51 48
f 47 49 46
f 45 47 44
f 43 45 42
f 41 43 40
f 39 41 38
f 37 39 36
f 35 37 34
f 33 35 32
f 31 33 30
f 29 31 28
f 27 29 26
f 25 27 24
f 23 25 22
f 21 23 20
f 19 21 18
f 17 19 16
f 15 17 14
f 13 15 12
f 11 13 10
f 9 11 8
f 7 9 6
f 5 7 4
f 3 5 1
f 185 172 174
f 185 168 170
f 185 150 152
f 185 146 148
f 186 64 66
f 186 60 62
f 186 54 56
f 174 176 185
f 185 166 168
f 152 154 185
f 185 144 146
f 187 126 128
f 187 122 124
f 62 64 186
f 56 58 186
f 188 34 36
f 188 30 32
f 188 26 28
f 185 178 180
f 170 172 185
f 185 162 164
f 148 150 185
f 185 140 142
f 185 187 138
f 128 130 187
f 187 120 122
f 187 100 102
f 58 60 186
f 36 38 188
f 28 30 188
f 188 10 12
f 185 182 2
f 176 178 185
f 185 160 162
f 185 156 158
f 142 144 185
f 187 136 138
f 187 132 134
f 124 126 187
f 187 104 106
f 187 98 100
f 186 76 78
f 186 52 54
f 186 48 50
f 186 188 46
f 188 40 42
f 32 34 188
f 188 18 20
f 188 14 16
f 188 8 10
f 180 182 185
f 158 160 185
f 138 140 185
f 130 132 187
f 187 116 118
f 187 108 110
f 102 104 187
f 187 94 96
f 186 90 92
f 78 80 186
f 186 72 74
f 50 52 186
f 188 44 46
f 38 40 188
f 188 22 24
f 16 18 188
f 188 6 8
f 164 166 185
f 134 136 187
f 187 114 116
f 110 112 187
f 96 98 187
f 92 187 186
f 186 86 88
f 186 82 84
f 74 76 186
f 186 68 70
f 46 48 186
f 24 26 188
f 12 14 188
f 188 1 4
f 154 156 185
f 112 114 187
f 92 94 187
f 84 86 186
f 70 72 186
f 42 44 188
f 4 6 188
f 118 120 187
f 88 90 186
f 66 68 186
f 188 2 1
f 106 108 187
f 20 22 188
f 581 187 185
f 80 82 186
f 2 188 185
f 189 190 187
f 187 581 189
f 191 192 193
f 191 194 195
f 191 196 192
f 191 197 198
f 199 200 201
f 193 194 191
f 198 202 191
f 191 199 203
f 199 204 205
f 201 206 199
f 199 207 208
f 191 209 210
f 202 196 191
f 199 211 203
f 199 212 204
f 208 200 199
f 199 213 214
f 215 216 217
f 215 218 219
f 215 220 221
f 215 222 223
f 215 224 225
f 215 226 227
f 215 228 229
f 230 231 232
f 230 233 234
f 191 235 209
f 191 236 237
f 203 197 191
f 206 212 199
f 199 238 213
f 199 239 240
f 199 241 242
f 199 243 244
f 215 245 246
f 219 216 215
f 221 247 215
f 225 222 215
f 229 226 215
f 215 230 248
f 230 249 231
f 234 250 230
f 237 235 191
f 205 211 199
f 240 238 199
f 244 241 199
f 199 251 252
f 246 253 215
f 247 218 215
f 215 254 255
f 227 224 215
f 230 256 248
f 250 249 230
f 230 257 258
f 230 259 260
f 230 261 262
f 191 263 264
f 195 236 191
f 242 239 199
f 252 265 199
f 215 266 245
f 255 220 215
f 248 228 215
f 258 233 230
f 230 267 268
f 262 259 230
f 230 269 270
f 264 271 191
f 191 272 273
f 191 274 275
f 214 207 199
f 199 276 251
f 199 215 277
f 217 266 215
f 232 256 230
f 268 278 230
f 270 261 230
f 191 279 263
f 275 272 191
f 265 243 199
f 215 280 277
f 223 254 215
f 260 267 230
f 230 281 282
f 191 283 284
f 273 279 191
f 277 276 199
f 278 257 230
f 282 285 230
f 271 283 191
f 253 280 215
f 230 286 281
f 210 274 191
f 230 284 286
f 287 199 191
f 285 269 230
f 284 230 191
f 581 288 199
f 199 287 581
f 289 290 291
f 289 292 293
f 289 294 290
f 289 295 296
f 297 298 299
f 291 292 289
f 296 300 289
f 297 301 302
f 297 303 304
f 299 305 297
f 297 306 307
f 289 308 309
f 300 294 289
f 302 289 297
f 297 310 303
f 307 298 297
f 297 311 312
f 313 314 315
f 313 316 317
f 313 318 319
f 313 320 321
f 313 322 323
f 313 324 325
f 313 326 327
f 287 328 329
f 289 330 308
f 289 331 332
f 302 295 289
f 305 310 297
f 297 333 311
f 297 334 335
f 297 336 337
f 297 338 339
f 313 340 341
f 317 314 313
f 319 342 313
f 323 320 313
f 327 324 313
f 287 343 344
f 287 345 346
f 329 347 287
f 347 345 287
f 287 348 349
f 332 330 289
f 304 301 297
f 335 333 297
f 339 336 297
f 297 350 351
f 341 352 313
f 342 316 313
f 313 353 354
f 325 322 313
f 344 313 287
f 344 326 313
f 346 343 287
f 349 355 287
f 355 328 287
f 356 357 358
f 356 359 360
f 289 361 362
f 293 331 289
f 337 334 297
f 351 363 297
f 313 364 340
f 354 318 313
f 321 353 313
f 348 287 356
f 356 365 366
f 360 357 356
f 356 367 368
f 362 369 289
f 289 370 371
f 289 372 373
f 312 306 297
f 297 374 350
f 297 313 375
f 315 364 313
f 366 376 356
f 368 359 356
f 289 377 361
f 373 370 289
f 363 338 297
f 313 378 375
f 358 365 356
f 356 379 380
f 289 381 382
f 371 377 289
f 375 374 297
f 356 376 348
f 380 383 356
f 369 381 289
f 352 378 313
f 356 384 379
f 309 372 289
f 356 382 384
f 383 367 356
f 581 287 313
f 287 385 356
f 382 356 289
f 386 387 388
f 387 389 388
f 390 391 392
f 390 393 394
f 390 395 396
f 390 397 398
f 399 400 397
f 387 401 389
f 387 402 403
f 390 404 391
f 390 405 406
f 396 393 390
f 397 390 399
f 399 407 408
f 399 409 410
f 386 411 412
f 403 401 387
f 392 413 390
f 394 405 390
f 399 414 400
f 410 407 399
f 399 415 416
f 399 417 418
f 386 419 420
f 386 421 422
f 388 411 386
f 390 423 424
f 390 425 426
f 406 404 390
f 390 427 428
f 408 414 399
f 416 429 399
f 399 430 431
f 399 432 417
f 386 433 434
f 386 435 419
f 386 436 437
f 412 421 386
f 387 438 439
f 387 440 441
f 442 443 444
f 442 445 446
f 442 447 448
f 442 449 450
f 451 452 453
f 451 454 455
f 451 456 457
f 458 581 459
f 581 390 460
f 426 423 390
f 428 395 390
f 429 409 399
f 431 461 399
f 399 462 463
f 418 464 399
f 434 465 386
f 437 435 386
f 439 402 387
f 387 466 440
f 387 467 468
f 444 469 442
f 442 470 445
f 448 471 442
f 442 472 449
f 473 474 475
f 473 476 477
f 455 452 451
f 457 478 451
f 581 479 480
f 581 481 482
f 459 483 458
f 424 460 390
f 398 427 390
f 463 430 399
f 399 484 432
f 386 485 433
f 422 436 386
f 468 466 387
f 442 486 487
f 446 443 442
f 442 488 489
f 450 447 442
f 442 490 491
f 473 492 493
f 475 494 473
f 473 495 476
f 473 496 497
f 478 454 451
f 480 498 581
f 498 499 581
f 458 481 581
f 459 500 501
f 581 502 503
f 413 425 390
f 464 462 399
f 399 504 505
f 386 506 507
f 420 485 386
f 441 508 387
f 387 509 510
f 442 511 512
f 469 486 442
f 442 513 488
f 442 514 515
f 491 472 442
f 493 442 473
f 473 516 517
f 477 474 473
f 473 518 519
f 473 520 496
f 451 521 522
f 451 523 456
f 451 524 525
f 581 526 527
f 581 499 528
f 482 479 581
f 459 529 530
f 459 531 532
f 459 533 500
f 503 534 581
f 534 535 581
f 461 415 399
f 399 536 504
f 386 537 506
f 386 538 539
f 386 540 541
f 508 438 387
f 387 542 543
f 387 544 545
f 387 546 509
f 487 511 442
f 515 513 442
f 493 490 442
f 494 516 473
f 473 547 548
f 473 549 550
f 497 518 473
f 473 551 552
f 451 553 554
f 522 555 451
f 451 556 557
f 525 523 451
f 527 451 581
f 527 524 451
f 459 558 559
f 532 529 459
f 459 560 533
f 535 561 581
f 505 484 399
f 507 399 386
f 386 562 563
f 541 538 386
f 543 467 387
f 510 544 387
f 489 470 442
f 517 492 473
f 473 564 547
f 550 565 473
f 552 520 473
f 554 473 451
f 451 566 567
f 451 568 569
f 557 521 451
f 451 570 571
f 453 570 451
f 559 483 459
f 501 531 459
f 459 572 573
f 460 502 581
f 563 537 386
f 539 574 386
f 545 542 387
f 387 575 576
f 471 514 442
f 565 564 473
f 554 551 473
f 569 566 451
f 571 556 451
f 528 526 581
f 573 560 459
f 507 536 399
f 465 540 386
f 387 577 575
f 548 495 473
f 567 553 451
f 459 512 572
f 574 562 386
f 387 561 577
f 519 549 473
f 530 558 459
f 576 546 387
f 390 581 451
f 555 568 451
f 451 578 390
f 581 579 459
f 581 561 387
f 512 459 442
f 387 189 581
f 313 579 581
f 191 580 287
f 185 288 581
f 582 583 584
f 582 585 586
f 584 587 582
f 582 588 585
f 589 590 591
f 589 592 593
f 594 595 596
f 597 598 599
f 582 600 601
f 586 583 582
f 582 602 603
f 582 589 604
f 591 605 589
f 589 606 592
f 589 607 608
f 589 609 610
f 611 612 613
f 594 614 595
f 599 594 597
f 582 615 600
f 603 588 582
f 589 616 604
f 589 617 618
f 593 590 589
f 608 619 589
f 589 620 609
f 611 621 612
f 611 622 623
f 611 624 625
f 611 626 627
f 611 628 629
f 611 630 631
f 632 633 634
f 633 635 636
f 633 637 638
f 633 639 640
f 599 614 594
f 597 641 642
f 582 643 644
f 582 645 615
f 582 646 647
f 604 602 582
f 605 617 589
f 589 648 649
f 610 607 589
f 589 650 651
f 611 652 653
f 613 654 611
f 625 622 611
f 629 626 611
f 611 655 630
f 656 657 658
f 656 659 660
f 656 661 662
f 632 663 664
f 632 665 666
f 636 634 633
f 640 637 633
f 633 667 668
f 633 669 670
f 594 671 672
f 642 598 597
f 597 673 674
f 644 675 582
f 582 676 677
f 647 645 582
f 618 616 589
f 589 678 648
f 589 679 680
f 651 620 589
f 653 589 611
f 611 681 682
f 623 621 611
f 631 628 611
f 611 683 684
f 656 685 657
f 662 659 656
f 632 686 687
f 632 688 689
f 666 663 632
f 634 690 632
f 633 691 692
f 668 639 633
f 670 693 633
f 594 694 695
f 596 671 594
f 597 696 697
f 597 698 699
f 674 700 597
f 597 701 702
f 582 703 704
f 677 643 582
f 587 646 582
f 680 678 589
f 653 650 589
f 654 681 611
f 611 705 706
f 684 655 611
f 656 707 708
f 660 685 656
f 687 709 632
f 632 710 711
f 632 712 688
f 690 665 632
f 638 691 633
f 633 713 669
f 633 714 715
f 633 716 717
f 594 718 719
f 695 720 594
f 697 641 597
f 700 698 597
f 597 721 701
f 582 722 723
f 675 703 582
f 649 606 589
f 682 652 611
f 627 705 611
f 708 611 656
f 656 724 725
f 658 726 656
f 656 727 728
f 632 729 686
f 632 730 731
f 632 732 710
f 664 712 632
f 693 667 633
f 717 714 633
f 720 718 594
f 699 696 597
f 702 733 597
f 704 722 582
f 619 679 589
f 708 683 611
f 726 724 656
f 656 734 735
f 656 736 727
f 709 737 632
f 711 730 632
f 692 635 633
f 633 738 716
f 633 594 739
f 594 740 741
f 594 742 694
f 733 673 597
f 601 676 582
f 725 707 656
f 656 743 744
f 728 734 656
f 656 745 746
f 656 747 748
f 632 749 750
f 731 729 632
f 715 713 633
f 739 751 633
f 741 752 594
f 594 753 754
f 594 755 756
f 672 742 594
f 597 757 758
f 597 759 760
f 706 624 611
f 735 743 656
f 748 745 656
f 750 761 632
f 689 732 632
f 633 762 763
f 594 764 739
f 594 765 766
f 754 740 594
f 719 755 594
f 760 757 597
f 597 632 767
f 744 661 656
f 656 723 747
f 737 749 632
f 751 762 633
f 766 768 594
f 756 753 594
f 597 769 759
f 597 770 771
f 767 772 597
f 746 736 656
f 633 773 656
f 761 774 632
f 768 764 594
f 758 721 597
f 772 770 597
f 594 633 611
f 656 611 633
f 763 738 633
f 771 769 597
f 723 656 582
f 752 765 594
f 774 767 632
f 978 775 594
f 594 776 978
f 777 778 779
f 777 780 781
f 777 782 778
f 777 783 784
f 785 786 787
f 777 788 789
f 779 780 777
f 784 790 777
f 777 785 791
f 785 792 793
f 787 794 785
f 785 795 796
f 797 798 799
f 797 800 801
f 777 802 803
f 777 804 805
f 777 806 788
f 777 807 808
f 790 782 777
f 785 809 791
f 785 810 792
f 796 786 785
f 797 811 798
f 801 812 797
f 978 813 814
f 978 815 816
f 805 802 777
f 808 806 777
f 791 783 777
f 794 810 785
f 785 817 818
f 785 819 820
f 797 821 822
f 797 823 824
f 797 825 826
f 812 811 797
f 978 827 828
f 814 829 978
f 829 830 978
f 816 831 978
f 831 832 978
f 833 834 835
f 833 836 837
f 833 838 839
f 777 840 841
f 789 804 777
f 793 809 785
f 785 842 817
f 785 843 844
f 785 845 846
f 785 847 848
f 785 849 819
f 797 850 851
f 824 821 797
f 797 852 853
f 799 825 797
f 828 797 978
f 828 800 797
f 830 827 978
f 832 813 978
f 815 978 833
f 833 854 834
f 839 836 833
f 833 855 856
f 777 857 840
f 781 807 777
f 844 842 785
f 848 845 785
f 820 858 785
f 785 797 859
f 797 860 861
f 822 850 797
f 797 862 852
f 826 862 797
f 833 863 864
f 837 854 833
f 833 865 855
f 841 866 777
f 818 795 785
f 858 847 785
f 797 867 859
f 797 868 860
f 853 823 797
f 835 863 833
f 856 869 833
f 777 870 871
f 803 857 777
f 859 849 785
f 861 872 797
f 869 838 833
f 866 870 777
f 872 867 797
f 833 864 815
f 846 843 785
f 833 871 865
f 851 868 797
f 873 978 797
f 978 776 833
f 871 833 777
f 874 875 876
f 874 877 878
f 874 879 875
f 874 880 881
f 882 883 884
f 874 885 886
f 876 877 874
f 881 887 874
f 882 888 889
f 882 890 891
f 884 892 882
f 882 893 894
f 895 896 897
f 895 898 899
f 874 900 901
f 874 902 903
f 874 904 885
f 874 905 906
f 887 879 874
f 889 874 882
f 882 907 890
f 894 883 882
f 895 908 896
f 899 909 895
f 903 900 874
f 906 904 874
f 889 880 874
f 892 907 882
f 882 910 911
f 882 912 913
f 895 914 915
f 895 916 917
f 895 918 919
f 909 908 895
f 895 920 921
f 920 922 923
f 920 924 925
f 920 926 927
f 920 928 929
f 920 930 931
f 920 932 933
f 920 934 935
f 874 936 937
f 886 902 874
f 891 888 882
f 882 938 910
f 882 939 940
f 882 941 942
f 882 943 944
f 882 945 912
f 895 946 947
f 917 914 895
f 895 948 949
f 897 918 895
f 920 950 921
f 925 922 920
f 929 926 920
f 920 951 930
f 935 932 920
f 920 952 953
f 874 954 936
f 878 905 874
f 940 938 882
f 944 941 882
f 913 955 882
f 895 956 957
f 895 958 959
f 915 946 895
f 895 960 948
f 921 898 895
f 927 924 920
f 920 961 962
f 933 951 920
f 920 963 952
f 937 964 874
f 911 893 882
f 955 943 882
f 957 882 895
f 895 965 958
f 949 916 895
f 923 950 920
f 931 961 920
f 953 966 920
f 874 967 968
f 901 954 874
f 957 945 882
f 959 969 895
f 919 960 895
f 966 934 920
f 964 967 874
f 969 956 895
f 962 928 920
f 942 939 882
f 920 968 963
f 978 882 874
f 947 965 895
f 968 920 874
f 873 970 882
f 882 978 873
f 971 129 127
f 971 133 131
f 127 125 971
f 971 135 133
f 972 153 151
f 972 157 155
f 971 115 113
f 131 129 971
f 971 139 137
f 971 972 141
f 151 149 972
f 972 159 157
f 972 175 173
f 972 179 177
f 973 15 13
f 971 117 115
f 137 135 971
f 972 143 141
f 972 147 145
f 155 153 972
f 173 171 972
f 972 181 179
f 973 17 15
f 973 21 19
f 973 25 23
f 973 33 31
f 973 37 35
f 973 41 39
f 971 107 105
f 971 119 117
f 971 123 121
f 141 139 971
f 149 147 972
f 972 163 161
f 177 175 972
f 972 184 183
f 972 973 3
f 13 11 973
f 23 21 973
f 35 33 973
f 973 43 41
f 974 61 59
f 974 67 65
f 974 71 69
f 105 103 971
f 971 111 109
f 121 119 971
f 145 143 972
f 972 165 163
f 972 169 167
f 183 181 972
f 973 5 3
f 973 9 7
f 19 17 973
f 39 37 973
f 973 47 45
f 974 63 61
f 69 67 974
f 971 101 99
f 109 107 971
f 125 123 971
f 167 165 972
f 3 184 972
f 11 9 973
f 973 29 27
f 45 43 973
f 973 974 49
f 65 63 974
f 971 97 95
f 103 101 971
f 161 159 972
f 7 5 973
f 31 29 973
f 974 51 49
f 974 55 53
f 59 57 974
f 974 83 81
f 99 97 971
f 171 169 972
f 49 47 973
f 57 55 974
f 974 79 77
f 974 85 83
f 113 111 971
f 53 51 974
f 974 75 73
f 81 79 974
f 974 89 87
f 974 93 91
f 27 25 973
f 77 75 974
f 91 89 974
f 73 71 974
f 974 95 93
f 775 972 971
f 87 85 974
f 95 974 971
f 978 975 972
f 972 775 978
f 971 976 775
f 874 975 978
f 797 977 873
f 611 776 594
f 190 189 775
f 594 775 189
f 189 387 594
f 775 976 190
f 386 597 594
f 594 387 386
f 399 632 597
f 597 386 399
f 390 633 632
f 632 399 390
f 578 773 633
f 633 390 578
f 451 656 773
f 773 578 451
f 473 582 656
f 656 451 473
f 442 589 582
f 582 473 442
f 459 611 589
f 589 442 459
f 459 579 776
f 833 776 579
f 579 313 833
f 776 611 459
f 297 777 833
f 833 313 297
f 289 785 777
f 777 297 289
f 356 797 785
f 785 289 356
f 385 977 797
f 797 356 385
f 385 287 873
f 970 873 287
f 287 580 970
f 873 977 385
f 191 882 970
f 970 580 191
f 230 895 882
f 882 191 230
f 215 920 895
f 895 230 215
f 199 874 920
f 920 215 199
f 199 288 975
f 972 975 288
f 288 185 972
f 975 874 199
f 188 973 972
f 972 185 188
f 186 974 973
f 973 188 186
f 187 971 974
f 974 186 187
f 190 976 971
f 971 187 190
f 286 284 957
f 281 286 956
f 282 281 969
f 285 282 959
f 269 285 958
f 270 269 965
f 261 270 947
f 262 261 946
f 259 262 915
f 260 259 914
f 267 260 917
f 268 267 916
f 278 268 949
f 257 278 948
f 258 257 960
f 233 258 919
f 234 233 918
f 250 234 897
f 249 250 896
f 231 249 908
f 232 231 909
f 256 232 899
f 248 256 898
f 228 248 921
f 229 228 950
f 226 229 923
f 227 226 922
f 224 227 925
f 225 224 924
f 222 225 927
f 223 222 926
f 254 223 929
f 255 254 928
f 220 255 962
f 221 220 961
f 247 221 931
f 218 247 930
f 219 218 951
f 216 219 933
f 217 216 932
f 266 217 935
f 245 266 934
f 246 245 966
f 253 246 953
f 280 253 952
f 277 280 963
f 276 277 968
f 251 276 967
f 252 251 964
f 265 252 937
f 243 265 936
f 244 243 954
f 241 244 901
f 242 241 900
f 239 242 903
f 240 239 902
f 238 240 886
f 213 238 885
f 214 213 904
f 207 214 906
f 208 207 905
f 200 208 878
f 201 200 877
f 206 201 876
f 212 206 875
f 204 212 879
f 205 204 887
f 211 205 881
f 203 211 880
f 197 203 889
f 198 197 888
f 202 198 891
f 196 202 890
f 192 196 907
f 193 192 892
f 194 193 884
f 195 194 883
f 236 195 894
f 237 236 893
f 235 237 911
f 209 235 910
f 210 209 938
f 274 210 940
f 275 274 939
f 272 275 942
f 273 272 941
f 279 273 944
f 263 279 943
f 264 263 955
f 271 264 913
f 283 271 912
f 284 283 945
f 945 957 284
f 912 945 283
f 913 912 271
f 955 913 264
f 943 955 263
f 944 943 279
f 941 944 273
f 942 941 272
f 939 942 275
f 940 939 274
f 938 940 210
f 910 938 209
f 911 910 235
f 893 911 237
f 894 893 236
f 883 894 195
f 884 883 194
f 892 884 193
f 907 892 192
f 890 907 196
f 891 890 202
f 888 891 198
f 889 888 197
f 880 889 203
f 881 880 211
f 887 881 205
f 879 887 204
f 875 879 212
f 876 875 206
f 877 876 201
f 878 877 200
f 905 878 208
f 906 905 207
f 904 906 214
f 885 904 213
f 886 885 238
f 902 886 240
f 903 902 239
f 900 903 242
f 901 900 241
f 954 901 244
f 936 954 243
f 937 936 265
f 964 937 252
f 967 964 251
f 968 967 276
f 963 968 277
f 952 963 280
f 953 952 253
f 966 953 246
f 934 966 245
f 935 934 266
f 932 935 217
f 933 932 216
f 951 933 219
f 930 951 218
f 931 930 247
f 961 931 221
f 962 961 220
f 928 962 255
f 929 928 254
f 926 929 223
f 927 926 222
f 924 927 225
f 925 924 224
f 922 925 227
f 923 922 226
f 950 923 229
f 921 950 228
f 898 921 248
f 899 898 256
f 909 899 232
f 908 909 231
f 896 908 249
f 897 896 250
f 918 897 234
f 919 918 233
f 960 919 258
f 948 960 257
f 949 948 278
f 916 949 268
f 917 916 267
f 914 917 260
f 915 914 259
f 946 915 262
f 947 946 261
f 965 947 270
f 958 965 269
f 959 958 285
f 969 959 282
f 956 969 281
f 957 956 286
f 572 512 653
f 573 572 652
f 560 573 682
f 533 560 681
f 500 533 654
f 501 500 613
f 531 501 612
f 532 531 621
f 529 532 623
f 530 529 622
f 558 530 625
f 559 558 624
f 483 559 706
f 458 483 705
f 481 458 627
f 482 481 626
f 479 482 629
f 480 479 628
f 498 480 631
f 499 498 630
f 528 499 655
f 526 528 684
f 527 526 683
f 524 527 708
f 525 524 707
f 523 525 725
f 456 523 724
f 457 456 726
f 478 457 658
f 454 478 657
f 455 454 685
f 452 455 660
f 453 452 659
f 570 453 662
f 571 570 661
f 556 571 744
f 557 556 743
f 521 557 735
f 522 521 734
f 555 522 728
f 568 555 727
f 569 568 736
f 566 569 746
f 567 566 745
f 553 567 748
f 554 553 747
f 551 554 723
f 552 551 722
f 520 552 704
f 496 520 703
f 497 496 675
f 518 497 644
f 519 518 643
f 549 519 677
f 550 549 676
f 565 550 601
f 564 565 600
f 547 564 615
f 548 547 645
f 495 548 647
f 476 495 646
f 477 476 587
f 474 477 584
f 475 474 583
f 494 475 586
f 516 494 585
f 517 516 588
f 492 517 603
f 493 492 602
f 490 493 604
f 491 490 616
f 472 491 618
f 449 472 617
f 450 449 605
f 447 450 591
f 448 447 590
f 471 448 593
f 514 471 592
f 515 514 606
f 513 515 649
f 488 513 648
f 489 488 678
f 470 489 680
f 445 470 679
f 446 445 619
f 443 446 608
f 444 443 607
f 469 444 610
f 486 469 609
f 487 486 620
f 511 487 651
f 512 511 650
f 650 653 512
f 651 650 511
f 620 651 487
f 609 620 486
f 610 609 469
f 607 610 444
f 608 607 443
f 619 608 446
f 679 619 445
f 680 679 470
f 678 680 489
f 648 678 488
f 649 648 513
f 606 649 515
f 592 606 514
f 593 592 471
f 590 593 448
f 591 590 447
f 605 591 450
f 617 605 449
f 618 617 472
f 616 618 491
f 604 616 490
f 602 604 493
f 603 602 492
f 588 603 517
f 585 588 516
f 586 585 494
f 583 586 475
f 584 583 474
f 587 584 477
f 646 587 476
f 647 646 495
f 645 647 548
f 615 645 547
f 600 615 564
f 601 600 565
f 676 601 550
f 677 676 549
f 643 677 519
f 644 643 518
f 675 644 497
f 703 675 496
f 704 703 520
f 722 704 552
f 723 722 551
f 747 723 554
f 748 747 553
f 745 748 567
f 746 745 566
f 736 746 569
f 727 736 568
f 728 727 555
f 734 728 522
f 735 734 521
f 743 735 557
f 744 743 556
f 661 744 571
f 662 661 570
f 659 662 453
f 660 659 452
f 685 660 455
f 657 685 454
f 658 657 478
f 726 658 457
f 724 726 456
f 725 724 523
f 707 725 525
f 708 707 524
f 683 708 527
f 684 683 526
f 655 684 528
f 630 655 499
f 631 630 498
f 628 631 480
f 629 628 479
f 626 629 482
f 627 626 481
f 705 627 458
f 706 705 483
f 624 706 559
f 625 624 558
f 622 625 530
f 623 622 529
f 621 623 532
f 612 621 531
f 613 612 501
f 654 613 500
f 681 654 533
f 682 681 560
f 652 682 573
f 653 652 572
f 384 382 859
f 379 384 867
f 380 379 872
f 383 380 861
f 367 383 860
f 368 367 868
f 359 368 851
f 360 359 850
f 357 360 822
f 358 357 821
f 365 358 824
f 366 365 823
f 376 366 853
f 348 376 852
f 349 348 862
f 355 349 826
f 328 355 825
f 329 328 799
f 347 329 798
f 345 347 811
f 346 345 812
f 343 346 801
f 344 343 800
f 326 344 828
f 327 326 827
f 324 327 830
f 325 324 829
f 322 325 814
f 323 322 813
f 320 323 832
f 321 320 831
f 353 321 816
f 354 353 815
f 318 354 864
f 319 318 863
f 342 319 835
f 316 342 834
f 317 316 854
f 314 317 837
f 315 314 836
f 364 315 839
f 340 364 838
f 341 340 869
f 352 341 856
f 378 352 855
f 375 378 865
f 374 375 871
f 350 374 870
f 351 350 866
f 363 351 841
f 338 363 840
f 339 338 857
f 336 339 803
f 337 336 802
f 334 337 805
f 335 334 804
f 333 335 789
f 311 333 788
f 312 311 806
f 306 312 808
f 307 306 807
f 298 307 781
f 299 298 780
f 305 299 779
f 310 305 778
f 303 310 782
f 304 303 790
f 301 304 784
f 302 301 783
f 295 302 791
f 296 295 809
f 300 296 793
f 294 300 792
f 290 294 810
f 291 290 794
f 292 291 787
f 293 292 786
f 331 293 796
f 332 331 795
f 330 332 818
f 308 330 817
f 309 308 842
f 372 309 844
f 373 372 843
f 370 373 846
f 371 370 845
f 377 371 848
f 361 377 847
f 362 361 858
f 369 362 820
f 381 369 819
f 382 381 849
f 849 859 382
f 819 849 381
f 820 819 369
f 858 820 362
f 847 858 361
f 848 847 377
f 845 848 371
f 846 845 370
f 843 846 373
f 844 843 372
f 842 844 309
f 817 842 308
f 818 817 330
f 795 818 332
f 796 795 331
f 786 796 293
f 787 786 292
f 794 787 291
f 810 794 290
f 792 810 294
f 793 792 300
f 809 793 296
f 791 809 295
f 783 791 302
f 784 783 301
f 790 784 304
f 782 790 303
f 778 782 310
f 779 778 305
f 780 779 299
f 781 780 298
f 807 781 307
f 808 807 306
f 806 808 312
f 788 806 311
f 789 788 333
f 804 789 335
f 805 804 334
f 802 805 337
f 803 802 336
f 857 803 339
f 840 857 338
f 841 840 363
f 866 841 351
f 870 866 350
f 871 870 374
f 865 871 375
f 855 865 378
f 856 855 352
f 869 856 341
f 838 869 340
f 839 838 364
f 836 839 315
f 837 836 314
f 854 837 317
f 834 854 316
f 835 834 342
f 863 835 319
f 864 863 318
f 815 864 354
f 816 815 353
f 831 816 321
f 832 831 320
f 813 832 323
f 814 813 322
f 829 814 325
f 830 829 324
f 827 830 327
f 828 827 326
f 800 828 344
f 801 800 343
f 812 801 346
f 811 812 345
f 798 811 347
f 799 798 329
f 825 799 328
f 826 825 355
f 862 826 349
f 852 862 348
f 853 852 376
f 823 853 366
f 824 823 365
f 821 824 358
f 822 821 357
f 850 822 360
f 851 850 359
f 868 851 368
f 860 868 367
f 861 860 383
f 872 861 380
f 867 872 379
f 859 867 384
f 577 561 739
f 575 577 764
f 576 575 768
f 546 576 766
f 509 546 765
f 510 509 752
f 544 510 741
f 545 544 740
f 542 545 754
f 543 542 753
f 467 543 756
f 468 467 755
f 466 468 719
f 440 466 718
f 441 440 720
f 508 441 695
f 438 508 694
f 439 438 742
f 402 439 672
f 403 402 671
f 401 403 596
f 389 401 595
f 388 389 614
f 411 388 599
f 412 411 598
f 421 412 642
f 422 421 641
f 436 422 697
f 437 436 696
f 435 437 699
f 419 435 698
f 420 419 700
f 485 420 674
f 433 485 673
f 434 433 733
f 465 434 702
f 540 465 701
f 541 540 721
f 538 541 758
f 539 538 757
f 574 539 760
f 562 574 759
f 563 562 769
f 537 563 771
f 506 537 770
f 507 506 772
f 536 507 767
f 504 536 774
f 505 504 761
f 484 505 750
f 432 484 749
f 417 432 737
f 418 417 709
f 464 418 687
f 462 464 686
f 463 462 729
f 430 463 731
f 431 430 730
f 461 431 711
f 415 461 710
f 416 415 732
f 429 416 689
f 409 429 688
f 410 409 712
f 407 410 664
f 408 407 663
f 414 408 666
f 400 414 665
f 397 400 690
f 398 397 634
f 427 398 636
f 428 427 635
f 395 428 692
f 396 395 691
f 393 396 638
f 394 393 637
f 405 394 640
f 406 405 639
f 404 406 668
f 391 404 667
f 392 391 693
f 413 392 670
f 425 413 669
f 426 425 713
f 423 426 715
f 424 423 714
f 460 424 717
f 502 460 716
f 503 502 738
f 534 503 763
f 535 534 762
f 561 535 751
f 751 739 561
f 762 751 535
f 763 762 534
f 738 763 503
f 716 738 502
f 717 716 460
f 714 717 424
f 715 714 423
f 713 715 426
f 669 713 425
f 670 669 413
f 693 670 392
f 667 693 391
f 668 667 404
f 639 668 406
f 640 639 405
f 637 640 394
f 638 637 393
f 691 638 396
f 692 691 395
f 635 692 428
f 636 635 427
f 634 636 398
f 690 634 397
f 665 690 400
f 666 665 414
f 663 666 408
f 664 663 407
f 712 664 410
f 688 712 409
f 689 688 429
f 732 689 416
f 710 732 415
f 711 710 461
f 730 711 431
f 731 730 430
f 729 731 463
f 686 729 462
f 687 686 464
f 709 687 418
f 737 709 417
f 749 737 432
f 750 749 484
f 761 750 505
f 774 761 504
f 767 774 536
f 772 767 507
f 770 772 506
f 771 770 537
f 769 771 563
f 759 769 562
f 760 759 574
f 757 760 539
f 758 757 538
f 721 758 541
f 701 721 540
f 702 701 465
f 733 702 434
f 673 733 433
f 674 673 485
f 700 674 420
f 698 700 419
f 699 698 435
f 696 699 437
f 697 696 436
f 641 697 422
f 642 641 421
f 598 642 412
f 599 598 411
f 614 599 388
f 595 614 389
f 596 595 401
f 671 596 403
f 672 671 402
f 742 672 439
f 694 742 438
f 695 694 508
f 720 695 441
f 718 720 440
f 719 718 466
f 755 719 468
f 756 755 467
f 753 756 543
f 754 753 542
f 740 754 545
f 741 740 544
f 752 741 510
f 765 752 509
f 766 765 546
f 768 766 576
f 764 768 575
f 739 764 577
