# 
# Wavefront OBJ file
# Created with Kaydara FBX
# 
mtllib klema_za_tockice.mtl

g klema_za_tockice
v -3.011617 0.147611 12.253964
v -3.011617 0.000000 12.250000
v 7.988383 0.000000 12.250000
v -3.011617 0.294796 12.265846
v 7.988383 0.147611 12.253964
v -3.011617 0.441131 12.285612
v 7.988383 0.294796 12.265846
v -3.011617 0.586194 12.313203
v 7.988383 0.441131 12.285612
v -3.011617 0.729567 12.348542
v 7.988383 0.586194 12.313203
v -3.011617 0.870837 12.391525
v 7.988383 0.729567 12.348542
v -3.011617 1.009596 12.442029
v 7.988383 0.870837 12.391525
v -3.011617 1.145444 12.499908
v 7.988383 1.009596 12.442029
v -3.011617 1.277989 12.564996
v 7.988383 1.145444 12.499908
v -3.011617 1.406849 12.637104
v 7.988383 1.277989 12.564996
v -3.011617 1.531653 12.716026
v 7.988383 1.406849 12.637104
v -3.011617 1.652041 12.801532
v 7.988383 1.531653 12.716026
v -3.011617 1.767666 12.893378
v 7.988383 1.652041 12.801532
v -3.011617 1.878194 12.991297
v 7.988383 1.767666 12.893378
v -3.011617 1.983307 13.095008
v 7.988383 1.878194 12.991297
v -3.011617 2.082701 13.204212
v 7.988383 1.983307 13.095008
v -3.011617 2.176090 13.318593
v 7.988383 2.082701 13.204212
v -3.011617 2.263206 13.437822
v 7.988383 2.176090 13.318593
v -3.011617 2.343795 13.561555
v 7.988383 2.263206 13.437822
v -3.011617 2.417627 13.689436
v 7.988383 2.343795 13.561555
v -3.011617 2.484489 13.821095
v 7.988383 2.417627 13.689436
v -3.011617 2.544187 13.956154
v 7.988383 2.484489 13.821095
v -3.011617 2.596549 14.094222
v 7.988383 2.544187 13.956154
v -3.011617 2.641425 14.234902
v 7.988383 2.596549 14.094222
v -3.011617 2.678685 14.377788
v 7.988383 2.641425 14.234902
v -3.011617 2.708221 14.522468
v 7.988383 2.678685 14.377788
v -3.011617 2.729949 14.668524
v 7.988383 2.708221 14.522468
v -3.011617 2.743806 14.815536
v 7.988383 2.729949 14.668524
v -3.011617 2.749752 14.963081
v 7.988383 2.743806 14.815536
v -3.011617 2.747770 15.110731
v 7.988383 2.749752 14.963081
v -3.011617 2.737865 15.258063
v 7.988383 2.747770 15.110731
v -3.011617 2.720066 15.404650
v 7.988383 2.737865 15.258063
v -3.011617 2.694424 15.550071
v 7.988383 2.720066 15.404650
v -3.011617 2.661014 15.693905
v 7.988383 2.694424 15.550071
v -3.011617 2.619931 15.835739
v 7.988383 2.661014 15.693905
v -3.011617 2.571295 15.975163
v 7.988383 2.619931 15.835739
v -3.011617 2.515244 16.111776
v 7.988383 2.571295 15.975163
v -3.011617 2.451942 16.245183
v 7.988383 2.515244 16.111776
v -3.011617 2.381570 16.375000
v 7.988383 2.451942 16.245183
v -3.011617 2.304331 16.500852
v 7.988383 2.381570 16.375000
v -3.011617 2.220448 16.622377
v 7.988383 2.304331 16.500852
v -3.011617 2.130164 16.739225
v 7.988383 2.220448 16.622377
v -3.011617 2.033737 16.851057
v 7.988383 2.130164 16.739225
v -3.011617 1.931447 16.957553
v 7.988383 2.033737 16.851057
v -3.011617 1.823587 17.058405
v 7.988383 1.931447 16.957553
v -3.011617 1.710470 17.153321
v 7.988383 1.823587 17.058405
v -3.011617 1.592421 17.242029
v 7.988383 1.710470 17.153321
v -3.011617 1.469781 17.324273
v 7.988383 1.592421 17.242029
v -3.011617 1.342903 17.399815
v 7.988383 1.469781 17.324273
v -3.011617 1.212153 17.468438
v 7.988383 1.342903 17.399815
v -3.011617 1.077908 17.529943
v 7.988383 1.212153 17.468438
v -3.011617 0.940555 17.584155
v 7.988383 1.077908 17.529943
v -3.011617 0.800491 17.630915
v 7.988383 0.940555 17.584155
v -3.011617 0.658118 17.670090
v 7.988383 0.800491 17.630915
v -3.011617 0.513848 17.701566
v 7.988383 0.658118 17.670090
v -3.011617 0.368096 17.725253
v 7.988383 0.513848 17.701566
v -3.011617 0.221283 17.741083
v 7.988383 0.368096 17.725253
v -3.011617 0.073832 17.749009
v 7.988383 0.221283 17.741083
v 7.988383 -0.073832 17.749009
v -3.011617 -0.073832 17.749009
v -3.011617 -0.000000 17.750000
v 7.988383 0.073832 17.749009
v 7.988383 -0.000000 17.750000
v -3.011617 -0.221283 17.741083
v -3.011617 -0.368096 17.725253
v 7.988383 -0.221283 17.741083
v -3.011617 -0.513848 17.701566
v 7.988383 -0.368096 17.725253
v -3.011617 -0.658118 17.670090
v 7.988383 -0.513848 17.701566
v -3.011617 -0.800491 17.630915
v 7.988383 -0.658118 17.670090
v -3.011617 -0.940555 17.584155
v 7.988383 -0.800491 17.630915
v -3.011617 -1.077908 17.529943
v 7.988383 -0.940555 17.584155
v -3.011617 -1.212153 17.468438
v 7.988383 -1.077908 17.529943
v -3.011617 -1.342903 17.399815
v 7.988383 -1.212153 17.468438
v -3.011617 -1.469781 17.324273
v 7.988383 -1.342903 17.399815
v -3.011617 -1.592421 17.242029
v 7.988383 -1.469781 17.324273
v -3.011617 -1.710470 17.153321
v 7.988383 -1.592421 17.242029
v -3.011617 -1.823587 17.058405
v 7.988383 -1.710470 17.153321
v -3.011617 -1.931447 16.957553
v 7.988383 -1.823587 17.058405
v -3.011617 -2.033737 16.851057
v 7.988383 -1.931447 16.957553
v -3.011617 -2.130164 16.739225
v 7.988383 -2.033737 16.851057
v -3.011617 -2.220448 16.622377
v 7.988383 -2.130164 16.739225
v -3.011617 -2.304331 16.500852
v 7.988383 -2.220448 16.622377
v -3.011617 -2.381570 16.375000
v 7.988383 -2.304331 16.500852
v -3.011617 -2.451942 16.245183
v 7.988383 -2.381570 16.375000
v -3.011617 -2.515244 16.111776
v 7.988383 -2.451942 16.245183
v -3.011617 -2.571295 15.975163
v 7.988383 -2.515244 16.111776
v -3.011617 -2.619931 15.835739
v 7.988383 -2.571295 15.975163
v -3.011617 -2.661014 15.693905
v 7.988383 -2.619931 15.835739
v -3.011617 -2.694424 15.550071
v 7.988383 -2.661014 15.693905
v -3.011617 -2.720066 15.404650
v 7.988383 -2.694424 15.550071
v -3.011617 -2.737865 15.258063
v 7.988383 -2.720066 15.404650
v -3.011617 -2.747770 15.110731
v 7.988383 -2.737865 15.258063
v -3.011617 -2.749752 14.963081
v 7.988383 -2.747770 15.110731
v -3.011617 -2.743806 14.815536
v 7.988383 -2.749752 14.963081
v -3.011617 -2.729949 14.668524
v 7.988383 -2.743806 14.815536
v -3.011617 -2.708221 14.522468
v 7.988383 -2.729949 14.668524
v -3.011617 -2.678685 14.377788
v 7.988383 -2.708221 14.522468
v -3.011617 -2.641425 14.234902
v 7.988383 -2.678685 14.377788
v -3.011617 -2.596549 14.094222
v 7.988383 -2.641425 14.234902
v -3.011617 -2.544187 13.956154
v 7.988383 -2.596549 14.094222
v -3.011617 -2.484489 13.821095
v 7.988383 -2.544187 13.956154
v -3.011617 -2.417627 13.689436
v 7.988383 -2.484489 13.821095
v -3.011617 -2.343795 13.561555
v 7.988383 -2.417627 13.689436
v -3.011617 -2.263206 13.437822
v 7.988383 -2.343795 13.561555
v -3.011617 -2.176090 13.318593
v 7.988383 -2.263206 13.437822
v -3.011617 -2.082701 13.204212
v 7.988383 -2.176090 13.318593
v -3.011617 -1.983307 13.095008
v 7.988383 -2.082701 13.204212
v -3.011617 -1.878194 12.991297
v 7.988383 -1.983307 13.095008
v -3.011617 -1.767666 12.893378
v 7.988383 -1.878194 12.991297
v -3.011617 -1.652041 12.801532
v 7.988383 -1.767666 12.893378
v -3.011617 -1.531653 12.716026
v 7.988383 -1.652041 12.801532
v -3.011617 -1.406849 12.637104
v 7.988383 -1.531653 12.716026
v -3.011617 -1.277989 12.564996
v 7.988383 -1.406849 12.637104
v -3.011617 -1.145444 12.499908
v 7.988383 -1.277989 12.564996
v -3.011617 -1.009596 12.442029
v 7.988383 -1.145444 12.499908
v -3.011617 -0.870837 12.391525
v 7.988383 -1.009596 12.442029
v -3.011617 -0.729567 12.348542
v 7.988383 -0.870837 12.391525
v -3.011617 -0.586194 12.313203
v 7.988383 -0.729567 12.348542
v -3.011617 -0.441131 12.285612
v 7.988383 -0.586194 12.313203
v -3.011617 -0.294796 12.265846
v 7.988383 -0.441131 12.285612
v -3.011617 -0.147611 12.253964
v 7.988383 -0.294796 12.265846
v 7.988383 -0.147611 12.253964
v 7.988383 12.500000 10.000000
v 7.988383 12.493897 22.999997
v 7.988383 -12.500000 9.988263
v 7.988383 -12.500000 22.999997
v 3.988383 -12.500000 9.988263
v 3.988383 12.500000 10.000000
v 3.988383 12.493897 22.999997
v 3.988383 12.500000 22.999997
v 0.988383 12.500000 22.999997
v 0.988383 -12.500000 22.999997
v -6.000953 12.500000 20.003199
v -6.000953 -12.500000 20.003199
v 3.988383 12.500000 9.988263
v 0.484364 -12.500000 9.988263
v 0.484364 12.500000 9.988263
v -0.282259 -12.500000 -9.996016
v 0.000008 -12.500000 -10.000000
v 0.000008 12.500000 -10.000000
v -0.564302 -12.500000 -9.984065
v -0.282259 12.500000 -9.996016
v -0.845895 -12.500000 -9.964159
v -0.564302 12.500000 -9.984065
v -1.126814 -12.500000 -9.936312
v -0.845895 12.500000 -9.964159
v -1.406835 -12.500000 -9.900546
v -1.126814 12.500000 -9.936312
v -1.685735 -12.500000 -9.856891
v -1.406835 12.500000 -9.900546
v -1.963292 -12.500000 -9.805380
v -1.685735 12.500000 -9.856891
v -2.239284 -12.500000 -9.746056
v -1.963292 12.500000 -9.805380
v -2.513491 -12.500000 -9.678965
v -2.239284 12.500000 -9.746056
v -2.785695 -12.500000 -9.604161
v -2.513491 12.500000 -9.678965
v -3.055680 -12.500000 -9.521703
v -2.785695 12.500000 -9.604161
v -3.323229 -12.500000 -9.431657
v -3.055680 12.500000 -9.521703
v -3.588130 -12.500000 -9.334095
v -3.323229 12.500000 -9.431657
v -3.850172 -12.500000 -9.229094
v -3.588130 12.500000 -9.334095
v -4.109145 -12.500000 -9.116739
v -3.850172 12.500000 -9.229094
v -4.364844 -12.500000 -8.997118
v -4.109145 12.500000 -9.116739
v -4.617065 -12.500000 -8.870328
v -4.364844 12.500000 -8.997118
v -4.865606 -12.500000 -8.736469
v -4.617065 12.500000 -8.870328
v -5.110269 -12.500000 -8.595647
v -4.865606 12.500000 -8.736469
v -5.350860 -12.500000 -8.447976
v -5.110269 12.500000 -8.595647
v -5.587187 -12.500000 -8.293572
v -5.350860 12.500000 -8.447976
v -5.819062 -12.500000 -8.132559
v -5.587187 12.500000 -8.293572
v -6.046299 -12.500000 -7.965065
v -5.819062 12.500000 -8.132559
v -6.268718 -12.500000 -7.791224
v -6.046299 12.500000 -7.965065
v -6.486141 -12.500000 -7.611174
v -6.268718 12.500000 -7.791224
v -6.698396 -12.500000 -7.425059
v -6.486141 12.500000 -7.611174
v -6.905312 -12.500000 -7.233026
v -6.698396 12.500000 -7.425059
v -7.106726 -12.500000 -7.035229
v -6.905312 12.500000 -7.233026
v -7.302476 -12.500000 -6.831826
v -7.106726 12.500000 -7.035229
v -7.492406 -12.500000 -6.622979
v -7.302476 12.500000 -6.831826
v -7.676366 -12.500000 -6.408853
v -7.492406 12.500000 -6.622979
v -7.854209 -12.500000 -6.189620
v -7.676366 12.500000 -6.408853
v -8.025792 -12.500000 -5.965455
v -7.854209 12.500000 -6.189620
v -8.190980 -12.500000 -5.736536
v -8.025792 12.500000 -5.965455
v -8.349640 -12.500000 -5.503045
v -8.190980 12.500000 -5.736536
v -8.501646 -12.500000 -5.265169
v -8.349640 12.500000 -5.503045
v -8.646878 -12.500000 -5.023097
v -8.501646 12.500000 -5.265169
v -8.785218 -12.500000 -4.777022
v -8.646878 12.500000 -5.023097
v -8.916558 -12.500000 -4.527141
v -8.785218 12.500000 -4.777022
v -9.040791 -12.500000 -4.273651
v -8.916558 12.500000 -4.527141
v -9.157820 -12.500000 -4.016756
v -9.040791 12.500000 -4.273651
v -9.267551 -12.500000 -3.756660
v -9.157820 12.500000 -4.016756
v -9.369897 -12.500000 -3.493570
v -9.267551 12.500000 -3.756660
v -9.464776 -12.500000 -3.227696
v -9.369897 12.500000 -3.493570
v -9.552112 -12.500000 -2.959250
v -9.464776 12.500000 -3.227696
v -9.631836 -12.500000 -2.688445
v -9.552112 12.500000 -2.959250
v -9.703884 -12.500000 -2.415498
v -9.631836 12.500000 -2.688445
v -9.768199 -12.500000 -2.140627
v -9.703884 12.500000 -2.415498
v -9.824730 -12.500000 -1.864049
v -9.768199 12.500000 -2.140627
v -9.873431 -12.500000 -1.585986
v -9.824730 12.500000 -1.864049
v -9.914265 -12.500000 -1.306659
v -9.873431 12.500000 -1.585986
v -9.947197 -12.500000 -1.026290
v -9.914265 12.500000 -1.306659
v -9.972202 -12.500000 -0.745104
v -9.947197 12.500000 -1.026290
v -9.989261 -12.500000 -0.463324
v -9.972202 12.500000 -0.745104
v -9.998359 -12.500000 -0.181175
v -9.989261 12.500000 -0.463324
v -9.999489 -12.500000 0.101118
v -9.998359 12.500000 -0.181175
v -9.992650 -12.500000 0.383331
v -9.999489 12.500000 0.101118
v -9.977848 -12.500000 0.665239
v -9.992650 12.500000 0.383331
v -9.955095 -12.500000 0.946616
v -9.977848 12.500000 0.665239
v -9.924408 -12.500000 1.227239
v -9.955095 12.500000 0.946616
v -9.885813 -12.500000 1.506884
v -9.924408 12.500000 1.227239
v -9.839340 -12.500000 1.785329
v -9.885813 12.500000 1.506884
v -9.785025 -12.500000 2.062350
v -9.839340 12.500000 1.785329
v -9.722913 -12.500000 2.337728
v -9.785025 12.500000 2.062350
v -9.653052 -12.500000 2.611243
v -9.722913 12.500000 2.337728
v -9.575499 -12.500000 2.882677
v -9.653052 12.500000 2.611243
v -9.490315 -12.500000 3.151814
v -9.575499 12.500000 2.882677
v -9.397568 -12.500000 3.418439
v -9.490315 12.500000 3.151814
v -9.297332 -12.500000 3.682340
v -9.397568 12.500000 3.418439
v -9.189686 -12.500000 3.943306
v -9.297332 12.500000 3.682340
v -9.074718 -12.500000 4.201130
v -9.189686 12.500000 3.943306
v -8.952518 -12.500000 4.455606
v -9.074718 12.500000 4.201130
v -8.823183 -12.500000 4.706531
v -8.952518 12.500000 4.455606
v -8.686817 -12.500000 4.953706
v -8.823183 12.500000 4.706531
v -8.543529 -12.500000 5.196933
v -8.686817 12.500000 4.953706
v -8.393432 -12.500000 5.436018
v -8.543529 12.500000 5.196933
v -8.236646 -12.500000 5.670772
v -8.393432 12.500000 5.436018
v -8.073297 -12.500000 5.901006
v -8.236646 12.500000 5.670772
v -7.903514 -12.500000 6.126538
v -8.073297 12.500000 5.901006
v -7.727432 -12.500000 6.347188
v -7.903514 12.500000 6.126538
v -7.545193 -12.500000 6.562779
v -7.727432 12.500000 6.347188
v -7.356940 -12.500000 6.773141
v -7.545193 12.500000 6.562779
v -7.162825 -12.500000 6.978104
v -7.356940 12.500000 6.773141
v -6.963001 -12.500000 7.177507
v -7.162825 12.500000 6.978104
v -6.757629 -12.500000 7.371191
v -6.963001 12.500000 7.177507
v -6.546871 -12.500000 7.559000
v -6.757629 12.500000 7.371191
v -6.330897 -12.500000 7.740785
v -6.546871 12.500000 7.559000
v -6.109877 -12.500000 7.916401
v -6.330897 12.500000 7.740785
v -5.883988 -12.500000 8.085709
v -6.109877 12.500000 7.916401
v -5.653410 -12.500000 8.248573
v -5.883988 12.500000 8.085709
v -5.418327 -12.500000 8.404864
v -5.653410 12.500000 8.248573
v -5.178926 -12.500000 8.554457
v -5.418327 12.500000 8.404864
v -4.935397 -12.500000 8.697233
v -5.178926 12.500000 8.554457
v -4.687936 -12.500000 8.833077
v -4.935397 12.500000 8.697233
v -4.436739 -12.500000 8.961883
v -4.687936 12.500000 8.833077
v -4.182006 -12.500000 9.083547
v -4.436739 12.500000 8.961883
v -3.923940 -12.500000 9.197972
v -4.182006 12.500000 9.083547
v -3.662748 -12.500000 9.305067
v -3.923940 12.500000 9.197972
v -3.398636 -12.500000 9.404747
v -3.662748 12.500000 9.305067
v -3.131816 -12.500000 9.496932
v -3.398636 12.500000 9.404747
v -2.862501 -12.500000 9.581549
v -3.131816 12.500000 9.496932
v -2.590904 -12.500000 9.658531
v -2.862501 12.500000 9.581549
v -2.317243 -12.500000 9.727815
v -2.590904 12.500000 9.658531
v -2.041734 -12.500000 9.789347
v -2.317243 12.500000 9.727815
v -1.764599 -12.500000 9.843078
v -2.041734 12.500000 9.789347
v -1.486058 -12.500000 9.888965
v -1.764599 12.500000 9.843078
v -1.206332 -12.500000 9.926971
v -1.486058 12.500000 9.888965
v -0.925645 -12.500000 9.957067
v -1.206332 12.500000 9.926971
v -0.644220 -12.500000 9.979227
v -0.925645 12.500000 9.957067
v -0.362282 -12.500000 9.993435
v -0.644220 12.500000 9.979227
v -0.080055 -12.500000 9.999680
v -0.362282 12.500000 9.993435
v 0.202235 -12.500000 9.997955
v -0.080055 12.500000 9.999680
v 0.202235 12.500000 9.997955
v 7.988383 12.500000 -9.999997
v 3.988383 12.500000 -9.999997
v 3.988383 -12.500000 -9.999997
v 7.988383 -12.500000 -9.999997
v -20.053889 12.500000 -5.829319
v -19.810986 12.500000 -6.607892
v -19.936238 12.500000 -6.219791
v -20.163892 12.500000 -5.436623
v -20.266206 12.500000 -5.041854
v -20.360792 12.500000 -4.645163
v -19.234953 12.500000 -8.133634
v -19.390108 12.500000 -7.756490
v -19.678179 12.500000 -6.993474
v -20.447614 12.500000 -4.246701
v -20.526639 12.500000 -3.846619
v -17.052715 12.500000 12.055883
v -16.814053 12.500000 12.386566
v -19.072463 12.500000 -8.507676
v -19.537868 12.500000 -7.376388
v -20.597837 12.500000 -3.445070
v -17.284874 12.500000 11.720603
v -15.526476 12.500000 13.966673
v -20.661180 12.500000 -3.042207
v -20.716645 12.500000 -2.638185
v -20.875154 12.500000 -0.606076
v -16.568980 12.500000 12.712525
v -16.317589 12.500000 13.033637
v -15.796237 12.500000 13.660830
v -15.250794 12.500000 14.267189
v -14.969297 12.500000 14.562265
v -12.521287 12.500000 16.713969
v -11.521204 12.500000 17.418417
v -9.040132 12.500000 18.825924
v -8.670802 12.500000 18.998858
v -7.172304 12.500000 -19.613706
v -7.553925 12.500000 -19.469916
v -9.415954 12.500000 -18.640794
v -14.690007 12.500000 -14.843958
v -17.291120 12.500000 -11.711386
v -17.947159 12.500000 -10.678900
v -20.764210 12.500000 -2.233156
v -20.835571 12.500000 -1.420699
v -20.859340 12.500000 -1.013581
v -20.858796 12.500000 1.024701
v -20.834811 12.500000 1.431807
v -16.059975 12.500000 13.349779
v -14.389287 12.500000 15.135647
v -14.090996 12.500000 15.413735
v -12.845267 12.500000 16.466284
v -12.192533 12.500000 16.955281
v -11.859130 12.500000 17.190126
v -11.178885 12.500000 17.640066
v -10.832303 12.500000 17.854988
v -10.481591 12.500000 18.063102
v -10.126881 12.500000 18.264328
v -9.768310 12.500000 18.458589
v -9.406015 12.500000 18.645812
v -8.298166 12.500000 19.164547
v -6.787947 12.500000 -19.750017
v -8.308382 12.500000 -19.160120
v -8.680930 12.500000 -18.994232
v -9.050167 12.500000 -18.821102
v -11.868293 12.500000 -17.183802
v -12.201571 12.500000 -16.948778
v -14.397354 12.500000 -15.127974
v -14.977058 12.500000 -14.554282
v -15.258398 12.500000 -14.259056
v -16.575755 12.500000 -12.703690
v -16.820655 12.500000 -12.377600
v -17.059140 12.500000 -12.046790
v -17.516507 12.500000 -11.371516
v -17.735214 12.500000 -11.027311
v -18.725730 12.500000 -9.245887
v -18.902701 12.500000 -8.878474
v -20.803857 12.500000 -1.827276
v -20.883009 12.500000 -0.198339
v -20.882900 12.500000 0.209473
v -20.874828 12.500000 0.617205
v -19.533933 12.500000 7.386803
v -19.385970 12.500000 7.766826
v -19.067925 12.500000 8.517843
v -17.729333 12.500000 11.036764
v -17.510442 12.500000 11.380853
v -14.682091 12.500000 14.851788
v -7.922365 12.500000 19.322928
v -7.932666 12.500000 -19.318701
v -9.778150 12.500000 -18.453379
v -11.530489 12.500000 -17.412273
v -12.854044 12.500000 -16.459434
v -13.172990 12.500000 -16.205300
v -13.795692 12.500000 -15.678593
v -15.533920 12.500000 -13.958393
v -15.803518 12.500000 -13.652407
v -16.067090 12.500000 -13.341215
v -16.324535 12.500000 -13.024936
v -18.152259 12.500000 -10.326417
v -18.541620 12.500000 -9.609774
v -20.763016 12.500000 2.244226
v -20.715236 12.500000 2.649229
v -20.595998 12.500000 3.456051
v -19.932920 12.500000 6.230419
v -19.807460 12.500000 6.618453
v -19.674448 12.500000 7.003964
v -19.230614 12.500000 8.143887
v -18.897965 12.500000 8.888550
v -18.720799 12.500000 9.255869
v -18.536494 12.500000 9.619657
v -17.941463 12.500000 10.688466
v -13.478410 12.500000 15.952174
v -13.164348 12.500000 16.212320
v -6.777417 12.500000 19.753633
v -6.011617 12.500000 -19.999997
v -6.401003 12.500000 -19.878797
v -10.841821 12.500000 -17.849211
v -11.188288 12.500000 -17.634104
v -12.530196 12.500000 -16.707291
v -13.486913 12.500000 -15.944986
v -14.099212 12.500000 -15.406221
v -18.350438 12.500000 -9.969996
v -20.802880 12.500000 1.838367
v -20.659556 12.500000 3.053222
v -20.050778 12.500000 5.840009
v -18.345120 12.500000 9.979778
v -18.146751 12.500000 10.336093
v -13.787332 12.500000 15.685946
v -7.543544 12.500000 19.473940
v -7.161846 12.500000 19.617527
v -6.390404 12.500000 19.882207
v -10.491219 12.500000 -18.057512
v -20.524586 12.500000 3.857561
v -20.358313 12.500000 4.656017
v -20.263515 12.500000 5.052658
v -20.160990 12.500000 5.447372
v -10.136617 12.500000 -18.258926
v -20.445348 12.500000 4.257601
v 7.988383 12.500000 -23.015907
v 0.988383 12.500000 -23.015907
v -20.875154 -12.500000 -0.606076
v -20.859340 -12.500000 -1.013581
v -20.053889 -12.500000 -5.829319
v -19.936238 -12.500000 -6.219791
v -15.526476 -12.500000 13.966673
v -15.796237 -12.500000 13.660830
v -17.052715 -12.500000 12.055883
v -20.858796 -12.500000 1.024701
v -20.883009 -12.500000 -0.198339
v -20.835571 -12.500000 -1.420699
v -20.447614 -12.500000 -4.246701
v -20.360792 -12.500000 -4.645163
v -20.266206 -12.500000 -5.041854
v -20.163892 -12.500000 -5.436623
v -19.810986 -12.500000 -6.607892
v -9.040132 -12.500000 18.825924
v -10.126881 -12.500000 18.264328
v -11.521204 -12.500000 17.418417
v -11.859130 -12.500000 17.190126
v -12.521287 -12.500000 16.713969
v -12.845267 -12.500000 16.466284
v -14.389287 -12.500000 15.135647
v -15.250794 -12.500000 14.267189
v -16.814053 -12.500000 12.386566
v -17.284874 -12.500000 11.720603
v -17.510442 -12.500000 11.380853
v -20.834811 -12.500000 1.431807
v -20.874828 -12.500000 0.617205
v -20.882900 -12.500000 0.209473
v -20.597837 -12.500000 -3.445070
v -20.526639 -12.500000 -3.846619
v -19.234953 -12.500000 -8.133634
v -8.298166 -12.500000 19.164547
v -8.670802 -12.500000 18.998858
v -9.768310 -12.500000 18.458589
v -10.481591 -12.500000 18.063102
v -10.832303 -12.500000 17.854988
v -11.178885 -12.500000 17.640066
v -12.192533 -12.500000 16.955281
v -13.164348 -12.500000 16.212320
v -14.090996 -12.500000 15.413735
v -14.682091 -12.500000 14.851788
v -14.969297 -12.500000 14.562265
v -16.059975 -12.500000 13.349779
v -16.317589 -12.500000 13.033637
v -16.568980 -12.500000 12.712525
v -20.803857 -12.500000 -1.827276
v -20.764210 -12.500000 -2.233156
v -20.661180 -12.500000 -3.042207
v -19.678179 -12.500000 -6.993474
v -19.537868 -12.500000 -7.376388
v -19.390108 -12.500000 -7.756490
v -19.072463 -12.500000 -8.507676
v -18.902701 -12.500000 -8.878474
v -17.947159 -12.500000 -10.678900
v -17.735214 -12.500000 -11.027311
v -17.291120 -12.500000 -11.711386
v -17.059140 -12.500000 -12.046790
v -14.690007 -12.500000 -14.843958
v -14.397354 -12.500000 -15.127974
v -9.415954 -12.500000 -18.640794
v -9.050167 -12.500000 -18.821102
v -7.172304 -12.500000 -19.613706
v -6.777417 -12.500000 19.753633
v -7.161846 -12.500000 19.617527
v -7.922365 -12.500000 19.322928
v -9.406015 -12.500000 18.645812
v -17.729333 -12.500000 11.036764
v -19.067925 -12.500000 8.517843
v -19.230614 -12.500000 8.143887
v -19.533933 -12.500000 7.386803
v -20.716645 -12.500000 -2.638185
v -18.725730 -12.500000 -9.245887
v -18.152259 -12.500000 -10.326417
v -17.516507 -12.500000 -11.371516
v -16.820655 -12.500000 -12.377600
v -16.575755 -12.500000 -12.703690
v -14.977058 -12.500000 -14.554282
v -11.868293 -12.500000 -17.183802
v -9.778150 -12.500000 -18.453379
v -8.680930 -12.500000 -18.994232
v -8.308382 -12.500000 -19.160120
v -7.553925 -12.500000 -19.469916
v -6.787947 -12.500000 -19.750017
v -6.401003 -12.500000 -19.878797
v -6.390404 -12.500000 19.882207
v -7.543544 -12.500000 19.473940
v -17.941463 -12.500000 10.688466
v -18.146751 -12.500000 10.336093
v -18.536494 -12.500000 9.619657
v -18.720799 -12.500000 9.255869
v -18.897965 -12.500000 8.888550
v -19.385970 -12.500000 7.766826
v -19.932920 -12.500000 6.230419
v -20.050778 -12.500000 5.840009
v -20.160990 -12.500000 5.447372
v -20.263515 -12.500000 5.052658
v -20.358313 -12.500000 4.656017
v -20.445348 -12.500000 4.257601
v -18.541620 -12.500000 -9.609774
v -18.350438 -12.500000 -9.969996
v -16.324535 -12.500000 -13.024936
v -16.067090 -12.500000 -13.341215
v -15.803518 -12.500000 -13.652407
v -15.533920 -12.500000 -13.958393
v -15.258398 -12.500000 -14.259056
v -13.795692 -12.500000 -15.678593
v -13.486913 -12.500000 -15.944986
v -12.854044 -12.500000 -16.459434
v -12.201571 -12.500000 -16.948778
v -11.530489 -12.500000 -17.412273
v -11.188288 -12.500000 -17.634104
v -7.932666 -12.500000 -19.318701
v -13.478410 -12.500000 15.952174
v -18.345120 -12.500000 9.979778
v -19.674448 -12.500000 7.003964
v -19.807460 -12.500000 6.618453
v -20.595998 -12.500000 3.456051
v -20.659556 -12.500000 3.053222
v -14.099212 -12.500000 -15.406221
v -13.172990 -12.500000 -16.205300
v -12.530196 -12.500000 -16.707291
v -10.841821 -12.500000 -17.849211
v -6.011617 -12.500000 -19.999997
v -13.787332 -12.500000 15.685946
v -20.524586 -12.500000 3.857561
v -20.715236 -12.500000 2.649229
v -20.763016 -12.500000 2.244226
v -10.491219 -12.500000 -18.057512
v -10.136617 -12.500000 -18.258926
v -20.802880 -12.500000 1.838367
v 0.988383 -12.500000 -23.015907
v 7.988383 -12.500000 -23.015907
v 7.988383 -1.406849 -12.637104
v 7.988383 -1.277989 -12.564996
v 7.988383 -2.737865 -15.258063
v 7.988383 -0.870837 -12.391525
v 7.988383 -0.729567 -12.348542
v 7.988383 -1.145444 -12.499908
v 7.988383 -2.176090 -13.318593
v 7.988383 -2.082701 -13.204212
v 7.988383 -2.484489 -13.821095
v 7.988383 -2.417627 -13.689436
v 7.988383 -2.747770 -15.110731
v 7.988383 -2.661014 -15.693905
v 7.988383 -2.694424 -15.550071
v 7.988383 -0.147611 -12.253964
v 7.988383 -0.000000 -12.250000
v 7.988383 -0.441131 -12.285612
v 7.988383 -0.294796 -12.265846
v 7.988383 -0.586194 -12.313203
v 7.988383 -1.531653 -12.716026
v 7.988383 -1.983307 -13.095008
v 7.988383 -2.343795 -13.561555
v 7.988383 -2.263206 -13.437822
v 7.988383 -2.544187 -13.956154
v 7.988383 -2.641425 -14.234902
v 7.988383 -2.596549 -14.094222
v 7.988383 -2.708221 -14.522468
v 7.988383 -2.678685 -14.377788
v 7.988383 -2.743806 -14.815536
v 7.988383 -2.729949 -14.668524
v 7.988383 -2.749752 -14.963081
v 7.988383 -2.720066 -15.404650
v 7.988383 2.082701 -13.204212
v 7.988383 2.176090 -13.318593
v 7.988383 0.147611 -12.253964
v 7.988383 -1.009596 -12.442029
v 7.988383 -1.469781 -17.324273
v 7.988383 -1.592421 -17.242029
v 7.988383 2.747770 -15.110731
v 7.988383 2.737865 -15.258063
v 7.988383 2.343795 -13.561555
v 7.988383 2.417627 -13.689436
v 7.988383 1.983307 -13.095008
v 7.988383 1.531653 -12.716026
v 7.988383 1.652041 -12.801532
v 7.988383 -1.767666 -12.893378
v 7.988383 -1.652041 -12.801532
v 7.988383 -2.304331 -16.500852
v 7.988383 -2.381570 -16.375000
v 7.988383 -1.710470 -17.153321
v 7.988383 2.720066 -15.404650
v 7.988383 2.749752 -14.963081
v 7.988383 2.484489 -13.821095
v 7.988383 2.263206 -13.437822
v 7.988383 1.767666 -12.893378
v 7.988383 -1.878194 -12.991297
v 7.988383 -2.571295 -15.975163
v 7.988383 -2.619931 -15.835739
v 7.988383 -2.451942 -16.245183
v 7.988383 -2.515244 -16.111776
v 7.988383 -2.220448 -16.622377
v 7.988383 -2.033737 -16.851057
v 7.988383 -2.130164 -16.739225
v 7.988383 -1.823587 -17.058405
v 7.988383 -1.931447 -16.957553
v 7.988383 -1.342903 -17.399815
v 7.988383 -1.077908 -17.529943
v 7.988383 -1.212153 -17.468438
v 7.988383 2.729949 -14.668524
v 7.988383 2.743806 -14.815536
v 7.988383 2.544187 -13.956154
v 7.988383 2.596549 -14.094222
v 7.988383 1.878194 -12.991297
v 7.988383 1.277989 -12.564996
v 7.988383 1.406849 -12.637104
v 7.988383 -0.800491 -17.630915
v 7.988383 -0.940555 -17.584155
v 7.988383 2.220448 -16.622377
v 7.988383 2.130164 -16.739225
v 7.988383 2.678685 -14.377788
v 7.988383 2.708221 -14.522468
v 7.988383 2.641425 -14.234902
v 7.988383 1.145444 -12.499908
v 7.988383 0.870837 -12.391525
v 7.988383 1.009596 -12.442029
v 7.988383 0.294796 -12.265846
v 7.988383 0.441131 -12.285612
v 7.988383 1.342903 -17.399815
v 7.988383 1.212153 -17.468438
v 7.988383 1.710470 -17.153321
v 7.988383 1.592421 -17.242029
v 7.988383 2.304331 -16.500852
v 7.988383 2.451942 -16.245183
v 7.988383 2.381570 -16.375000
v 7.988383 2.661014 -15.693905
v 7.988383 2.619931 -15.835739
v 7.988383 0.586194 -12.313203
v 7.988383 0.729567 -12.348542
v 7.988383 -0.221283 -17.741083
v 7.988383 -0.368096 -17.725253
v 7.988383 1.469781 -17.324273
v 7.988383 1.823587 -17.058405
v 7.988383 2.571295 -15.975163
v 7.988383 2.515244 -16.111776
v 7.988383 2.694424 -15.550071
v 7.988383 -0.513848 -17.701566
v 7.988383 0.800491 -17.630915
v 7.988383 0.658118 -17.670090
v 7.988383 1.077908 -17.529943
v 7.988383 0.940555 -17.584155
v 7.988383 2.033737 -16.851057
v 7.988383 1.931447 -16.957553
v 7.988383 -0.658118 -17.670090
v 7.988383 0.000000 -17.750000
v 7.988383 0.221283 -17.741083
v 7.988383 0.073832 -17.749009
v 7.988383 0.513848 -17.701566
v 7.988383 0.368096 -17.725253
v 7.988383 -0.073832 -17.749009
v -3.011617 -0.147611 -12.253964
v -3.011617 0.000000 -12.250000
v -3.011617 -0.294796 -12.265846
v -3.011617 -0.441131 -12.285612
v -3.011617 -0.586194 -12.313203
v -3.011617 -0.729567 -12.348542
v -3.011617 -0.870837 -12.391525
v -3.011617 -1.009596 -12.442029
v -3.011617 -1.145444 -12.499908
v -3.011617 -1.277989 -12.564996
v -3.011617 -1.406849 -12.637104
v -3.011617 -1.531653 -12.716026
v -3.011617 -1.652041 -12.801532
v -3.011617 -1.767666 -12.893378
v -3.011617 -1.878194 -12.991297
v -3.011617 -1.983307 -13.095008
v -3.011617 -2.082701 -13.204212
v -3.011617 -2.176090 -13.318593
v -3.011617 -2.263206 -13.437822
v -3.011617 -2.343795 -13.561555
v -3.011617 -2.417627 -13.689436
v -3.011617 -2.484489 -13.821095
v -3.011617 -2.544187 -13.956154
v -3.011617 -2.596549 -14.094222
v -3.011617 -2.641425 -14.234902
v -3.011617 -2.678685 -14.377788
v -3.011617 -2.708221 -14.522468
v -3.011617 -2.729949 -14.668524
v -3.011617 -2.743806 -14.815536
v -3.011617 -2.749752 -14.963081
v -3.011617 -2.747770 -15.110731
v -3.011617 -2.737865 -15.258063
v -3.011617 -2.720066 -15.404650
v -3.011617 -2.694424 -15.550071
v -3.011617 -2.661014 -15.693905
v -3.011617 -2.619931 -15.835739
v -3.011617 -2.571295 -15.975163
v -3.011617 -2.515244 -16.111776
v -3.011617 -2.451942 -16.245183
v -3.011617 -2.381570 -16.375000
v -3.011617 -2.304331 -16.500852
v -3.011617 -2.220448 -16.622377
v -3.011617 -2.130164 -16.739225
v -3.011617 -2.033737 -16.851057
v -3.011617 -1.931447 -16.957553
v -3.011617 -1.823587 -17.058405
v -3.011617 -1.710470 -17.153321
v -3.011617 -1.592421 -17.242029
v -3.011617 -1.469781 -17.324273
v -3.011617 -1.342903 -17.399815
v -3.011617 -1.212153 -17.468438
v -3.011617 -1.077908 -17.529943
v -3.011617 -0.940555 -17.584155
v -3.011617 -0.800491 -17.630915
v -3.011617 -0.658118 -17.670090
v -3.011617 -0.513848 -17.701566
v -3.011617 -0.368096 -17.725253
v -3.011617 -0.221283 -17.741083
v -3.011617 -0.073832 -17.749009
v -3.011617 0.073832 -17.749009
v -3.011617 0.000000 -17.750000
v -3.011617 0.221283 -17.741083
v -3.011617 0.368096 -17.725253
v -3.011617 0.513848 -17.701566
v -3.011617 0.658118 -17.670090
v -3.011617 0.800491 -17.630915
v -3.011617 0.940555 -17.584155
v -3.011617 1.077908 -17.529943
v -3.011617 1.212153 -17.468438
v -3.011617 1.342903 -17.399815
v -3.011617 1.469781 -17.324273
v -3.011617 1.592421 -17.242029
v -3.011617 1.710470 -17.153321
v -3.011617 1.823587 -17.058405
v -3.011617 1.931447 -16.957553
v -3.011617 2.033737 -16.851057
v -3.011617 2.130164 -16.739225
v -3.011617 2.220448 -16.622377
v -3.011617 2.304331 -16.500852
v -3.011617 2.381570 -16.375000
v -3.011617 2.451942 -16.245183
v -3.011617 2.515244 -16.111776
v -3.011617 2.571295 -15.975163
v -3.011617 2.619931 -15.835739
v -3.011617 2.661014 -15.693905
v -3.011617 2.694424 -15.550071
v -3.011617 2.720066 -15.404650
v -3.011617 2.737865 -15.258063
v -3.011617 2.747770 -15.110731
v -3.011617 2.749752 -14.963081
v -3.011617 2.743806 -14.815536
v -3.011617 2.729949 -14.668524
v -3.011617 2.708221 -14.522468
v -3.011617 2.678685 -14.377788
v -3.011617 2.641425 -14.234902
v -3.011617 2.596549 -14.094222
v -3.011617 2.544187 -13.956154
v -3.011617 2.484489 -13.821095
v -3.011617 2.417627 -13.689436
v -3.011617 2.343795 -13.561555
v -3.011617 2.263206 -13.437822
v -3.011617 2.176090 -13.318593
v -3.011617 2.082701 -13.204212
v -3.011617 1.983307 -13.095008
v -3.011617 1.878194 -12.991297
v -3.011617 1.767666 -12.893378
v -3.011617 1.652041 -12.801532
v -3.011617 1.531653 -12.716026
v -3.011617 1.406849 -12.637104
v -3.011617 1.277989 -12.564996
v -3.011617 1.145444 -12.499908
v -3.011617 1.009596 -12.442029
v -3.011617 0.870837 -12.391525
v -3.011617 0.729567 -12.348542
v -3.011617 0.586194 -12.313203
v -3.011617 0.441131 -12.285612
v -3.011617 0.294796 -12.265846
v -3.011617 0.147611 -12.253964
v -3.011617 -2.415470 10.816283
v -3.011617 -4.830940 15.000000
v -3.011617 4.830940 15.000000
v -3.011617 2.415470 10.816283
v -3.011617 2.415470 19.183717
v -3.011617 -2.415470 19.183717
v -8.253751 -2.415470 19.183717
v -8.253751 2.415470 19.183717
v -8.670802 -2.522199 18.998858
v -8.484889 -2.473843 19.082612
v -8.855889 -2.571600 18.913292
v -9.040132 -2.622042 18.825924
v -9.223513 -2.673520 18.736761
v -9.406015 -2.726030 18.645812
v -9.587619 -2.779566 18.553085
v -9.768310 -2.834123 18.458589
v -9.948070 -2.889696 18.362334
v -10.126881 -2.946279 18.264328
v -10.304727 -3.003868 18.164581
v -10.481591 -3.062457 18.063102
v -10.657455 -3.122040 17.959901
v -10.832303 -3.182612 17.854988
v -11.006119 -3.244166 17.748373
v -11.178885 -3.306697 17.640066
v -11.350585 -3.370199 17.530077
v -11.521204 -3.434666 17.418417
v -11.690724 -3.500092 17.305097
v -11.859130 -3.566470 17.190126
v -12.026405 -3.633794 17.073517
v -12.192533 -3.702058 16.955281
v -12.357499 -3.771256 16.835427
v -12.521287 -3.841380 16.713969
v -12.683882 -3.912423 16.590918
v -12.845267 -3.984380 16.466284
v -13.005428 -4.057244 16.340081
v -13.164348 -4.131007 16.212320
v -13.322014 -4.205662 16.083014
v -13.478410 -4.281202 15.952174
v -13.633521 -4.357620 15.819814
v -13.787332 -4.434909 15.685946
v -13.939828 -4.513062 15.550582
v -14.090996 -4.592070 15.413735
v -14.240820 -4.671927 15.275419
v -14.389287 -4.752624 15.135647
v -8.298166 -2.426538 19.164547
v -14.530637 -4.830940 15.000000
v -14.682091 -4.745370 14.851788
v -14.826401 -4.662196 14.707727
v -14.969297 -4.578214 14.562265
v -15.110766 -4.493429 14.415414
v -15.250794 -4.407851 14.267189
v -15.389369 -4.321488 14.117604
v -15.526476 -4.234348 13.966673
v -15.662103 -4.146439 13.814410
v -15.796237 -4.057770 13.660830
v -15.928865 -3.968349 13.505949
v -16.059975 -3.878185 13.349779
v -16.189554 -3.787285 13.192337
v -16.317589 -3.695660 13.033637
v -16.444068 -3.603317 12.873695
v -16.568980 -3.510266 12.712525
v -16.692312 -3.416515 12.550144
v -16.814053 -3.322073 12.386566
v -16.934191 -3.226950 12.221807
v -17.052715 -3.131153 12.055883
v -17.169613 -3.034693 11.888809
v -17.284874 -2.937579 11.720603
v -17.398487 -2.839820 11.551279
v -17.510442 -2.741425 11.380853
v -17.620727 -2.642403 11.209343
v -17.864698 -2.415470 10.816283
v -17.729333 -2.542765 11.036764
v -17.864698 2.415470 10.816283
v -14.530637 4.830940 15.000000
v -14.682091 4.745370 14.851788
v -14.826401 4.662196 14.707727
v -14.969297 4.578214 14.562265
v -15.110766 4.493429 14.415414
v -15.250794 4.407851 14.267189
v -15.389369 4.321488 14.117604
v -15.526476 4.234348 13.966673
v -15.662103 4.146439 13.814410
v -15.796237 4.057770 13.660830
v -15.928865 3.968349 13.505949
v -16.059975 3.878185 13.349779
v -16.189554 3.787285 13.192337
v -16.317589 3.695660 13.033637
v -16.444068 3.603317 12.873695
v -16.568980 3.510266 12.712525
v -16.692312 3.416515 12.550144
v -16.814053 3.322073 12.386566
v -16.934191 3.226950 12.221807
v -17.052715 3.131153 12.055883
v -17.169613 3.034693 11.888809
v -17.284874 2.937579 11.720603
v -17.398487 2.839820 11.551279
v -17.620727 2.642403 11.209343
v -17.729333 2.542765 11.036764
v -17.510442 2.741425 11.380853
v -8.298191 2.426544 19.164536
v -8.484889 2.473843 19.082612
v -8.670802 2.522199 18.998858
v -8.855889 2.571600 18.913292
v -9.040132 2.622042 18.825924
v -9.223513 2.673520 18.736761
v -9.406015 2.726030 18.645812
v -9.587619 2.779566 18.553085
v -9.768310 2.834123 18.458589
v -9.948070 2.889696 18.362334
v -10.126881 2.946279 18.264328
v -10.304727 3.003868 18.164581
v -10.481591 3.062457 18.063102
v -10.657455 3.122040 17.959901
v -10.832303 3.182612 17.854988
v -11.006119 3.244166 17.748373
v -11.178885 3.306697 17.640066
v -11.350585 3.370199 17.530077
v -11.521204 3.434666 17.418417
v -11.690724 3.500092 17.305097
v -11.859130 3.566470 17.190126
v -12.026405 3.633794 17.073517
v -12.192533 3.702058 16.955281
v -12.357499 3.771256 16.835427
v -12.521287 3.841380 16.713969
v -12.683882 3.912423 16.590918
v -12.845267 3.984380 16.466284
v -13.005428 4.057244 16.340081
v -13.164348 4.131007 16.212320
v -13.322014 4.205662 16.083014
v -13.478410 4.281202 15.952174
v -13.633521 4.357620 15.819814
v -13.787332 4.434909 15.685946
v -13.939828 4.513062 15.550582
v -14.090996 4.592070 15.413735
v -14.240820 4.671927 15.275419
v -14.389287 4.752624 15.135647
v -17.626701 -2.636979 -11.199947
v -17.516507 -2.736034 -11.371516
v -17.735214 -2.537307 -11.027311
v -17.404643 -2.834464 -11.542001
v -17.291120 -2.932258 -11.711386
v -17.175949 -3.029408 -11.879654
v -17.059140 -3.125903 -12.046790
v -16.940705 -3.221736 -12.212777
v -16.820655 -3.316897 -12.377600
v -16.699001 -3.411376 -12.541243
v -16.575755 -3.505165 -12.703690
v -16.450929 -3.598255 -12.864926
v -16.324535 -3.690636 -13.024936
v -16.196585 -3.782301 -13.183704
v -16.067090 -3.873240 -13.341215
v -15.936064 -3.963445 -13.497454
v -15.803518 -4.052907 -13.652407
v -15.669466 -4.141617 -13.806058
v -15.533920 -4.229568 -13.958393
v -15.396893 -4.316750 -14.109397
v -15.258398 -4.403156 -14.259056
v -15.118449 -4.488777 -14.407356
v -14.977058 -4.573605 -14.554282
v -14.834240 -4.657632 -14.699821
v -14.690007 -4.740849 -14.843958
v -14.530637 -4.830940 -15.000000
v -14.397354 -4.757054 -15.127974
v -14.248962 -4.676311 -15.267825
v -14.099212 -4.596408 -15.406221
v -13.948117 -4.517354 -15.543148
v -13.795692 -4.439154 -15.678593
v -13.641953 -4.361818 -15.812543
v -13.486913 -4.285352 -15.944986
v -13.330587 -4.209763 -16.075909
v -13.172990 -4.135060 -16.205300
v -13.014137 -4.061248 -16.333145
v -12.854044 -3.988336 -16.459434
v -12.692725 -3.916329 -16.584153
v -12.530196 -3.845235 -16.707291
v -12.366473 -3.775061 -16.828837
v -12.201571 -3.705813 -16.948778
v -12.035505 -3.637498 -17.067103
v -11.868293 -3.570122 -17.183802
v -11.699948 -3.503692 -17.298862
v -11.530489 -3.438214 -17.412273
v -11.359930 -3.373694 -17.524024
v -11.188288 -3.310140 -17.634104
v -11.015579 -3.247555 -17.742503
v -10.841821 -3.185947 -17.849211
v -10.667028 -3.125322 -17.954217
v -10.491219 -3.065685 -18.057512
v -10.314410 -3.007042 -18.159085
v -10.136617 -2.949398 -18.258926
v -9.957858 -2.892759 -18.357028
v -9.778150 -2.837131 -18.453379
v -9.597509 -2.782518 -18.547971
v -9.415954 -2.728926 -18.640794
v -9.233501 -2.676361 -18.731841
v -9.050167 -2.624826 -18.821102
v -8.865971 -2.574327 -18.908568
v -8.680930 -2.524869 -18.994232
v -8.495061 -2.476456 -19.078085
v -8.253751 2.415470 -19.183717
v -8.308382 2.429094 -19.160120
v -8.253751 -2.415470 -19.183717
v -8.308413 -2.429102 -19.160106
v -8.495061 2.476456 -19.078085
v -8.680930 2.524869 -18.994232
v -8.865971 2.574327 -18.908568
v -9.050167 2.624826 -18.821102
v -9.233501 2.676361 -18.731841
v -9.415954 2.728926 -18.640794
v -9.597509 2.782518 -18.547971
v -9.778150 2.837131 -18.453379
v -9.957858 2.892759 -18.357028
v -10.136617 2.949398 -18.258926
v -10.314410 3.007042 -18.159085
v -10.491219 3.065685 -18.057512
v -10.667028 3.125322 -17.954217
v -10.841821 3.185947 -17.849211
v -11.015579 3.247555 -17.742503
v -11.188288 3.310140 -17.634104
v -11.359930 3.373694 -17.524024
v -11.530489 3.438214 -17.412273
v -11.699948 3.503692 -17.298862
v -11.868293 3.570122 -17.183802
v -12.035505 3.637498 -17.067103
v -12.201571 3.705813 -16.948778
v -12.366473 3.775061 -16.828837
v -12.530196 3.845235 -16.707291
v -12.692725 3.916329 -16.584153
v -12.854044 3.988336 -16.459434
v -13.014137 4.061248 -16.333145
v -13.172990 4.135060 -16.205300
v -13.330587 4.209763 -16.075909
v -13.486913 4.285352 -15.944986
v -13.641953 4.361818 -15.812543
v -13.795692 4.439154 -15.678593
v -13.948117 4.517354 -15.543148
v -14.099212 4.596408 -15.406221
v -14.248962 4.676311 -15.267825
v -14.397354 4.757054 -15.127974
v -14.530637 4.830940 -15.000000
v -14.690007 4.740849 -14.843958
v -14.834240 4.657632 -14.699821
v -14.977058 4.573605 -14.554282
v -15.118449 4.488777 -14.407356
v -15.258398 4.403156 -14.259056
v -15.396893 4.316750 -14.109397
v -15.533920 4.229568 -13.958393
v -15.669466 4.141617 -13.806058
v -15.803518 4.052907 -13.652407
v -15.936064 3.963445 -13.497454
v -16.067090 3.873240 -13.341215
v -16.196585 3.782301 -13.183704
v -16.324535 3.690636 -13.024936
v -16.450929 3.598255 -12.864926
v -16.575755 3.505165 -12.703690
v -16.699001 3.411376 -12.541243
v -16.820655 3.316897 -12.377600
v -16.940705 3.221736 -12.212777
v -17.059140 3.125903 -12.046790
v -17.175949 3.029408 -11.879654
v -17.291120 2.932258 -11.711386
v -17.404643 2.834464 -11.542001
v -17.516507 2.736034 -11.371516
v -17.626701 2.636979 -11.199947
v -17.864698 -2.415470 -10.816283
v -17.864698 2.415470 -10.816283
v -17.735214 2.537307 -11.027311
v -3.011617 2.415470 -10.816283
v -3.011617 4.830940 -15.000000
v -3.011617 -4.830940 -15.000000
v -3.011617 -2.415470 -10.816283
v -3.011617 -2.415470 -19.183717
v -3.011617 2.415470 -19.183717
usemtl klema_za_tockiceMaterial0
f 1 2 3
f 4 1 5
f 6 4 7
f 8 6 9
f 10 8 11
f 12 10 13
f 14 12 15
f 16 14 17
f 18 16 19
f 20 18 21
f 22 20 23
f 24 22 25
f 26 24 27
f 28 26 29
f 30 28 31
f 32 30 33
f 34 32 35
f 36 34 37
f 38 36 39
f 40 38 41
f 42 40 43
f 44 42 45
f 46 44 47
f 48 46 49
f 50 48 51
f 52 50 53
f 54 52 55
f 56 54 57
f 58 56 59
f 60 58 61
f 62 60 63
f 64 62 65
f 66 64 67
f 68 66 69
f 70 68 71
f 72 70 73
f 74 72 75
f 76 74 77
f 78 76 79
f 80 78 81
f 82 80 83
f 84 82 85
f 86 84 87
f 88 86 89
f 90 88 91
f 92 90 93
f 94 92 95
f 96 94 97
f 98 96 99
f 100 98 101
f 102 100 103
f 104 102 105
f 106 104 107
f 108 106 109
f 110 108 111
f 112 110 113
f 114 112 115
f 116 114 117
f 118 119 120
f 116 121 122
f 122 120 116
f 123 119 118
f 124 123 125
f 126 124 127
f 128 126 129
f 130 128 131
f 132 130 133
f 134 132 135
f 136 134 137
f 138 136 139
f 140 138 141
f 142 140 143
f 144 142 145
f 146 144 147
f 148 146 149
f 150 148 151
f 152 150 153
f 154 152 155
f 156 154 157
f 158 156 159
f 160 158 161
f 162 160 163
f 164 162 165
f 166 164 167
f 168 166 169
f 170 168 171
f 172 170 173
f 174 172 175
f 176 174 177
f 178 176 179
f 180 178 181
f 182 180 183
f 184 182 185
f 186 184 187
f 188 186 189
f 190 188 191
f 192 190 193
f 194 192 195
f 196 194 197
f 198 196 199
f 200 198 201
f 202 200 203
f 204 202 205
f 206 204 207
f 208 206 209
f 210 208 211
f 212 210 213
f 214 212 215
f 216 214 217
f 218 216 219
f 220 218 221
f 222 220 223
f 224 222 225
f 226 224 227
f 228 226 229
f 230 228 231
f 232 230 233
f 234 232 235
f 2 234 236
f 236 3 2
f 235 236 234
f 233 235 232
f 231 233 230
f 229 231 228
f 227 229 226
f 225 227 224
f 223 225 222
f 221 223 220
f 219 221 218
f 217 219 216
f 215 217 214
f 213 215 212
f 211 213 210
f 209 211 208
f 207 209 206
f 205 207 204
f 203 205 202
f 201 203 200
f 199 201 198
f 197 199 196
f 195 197 194
f 193 195 192
f 191 193 190
f 189 191 188
f 187 189 186
f 185 187 184
f 183 185 182
f 181 183 180
f 179 181 178
f 177 179 176
f 175 177 174
f 173 175 172
f 171 173 170
f 169 171 168
f 167 169 166
f 165 167 164
f 163 165 162
f 161 163 160
f 159 161 158
f 157 159 156
f 155 157 154
f 153 155 152
f 151 153 150
f 149 151 148
f 147 149 146
f 145 147 144
f 143 145 142
f 141 143 140
f 139 141 138
f 137 139 136
f 135 137 134
f 133 135 132
f 131 133 130
f 129 131 128
f 127 129 126
f 125 127 124
f 118 125 123
f 120 122 118
f 117 121 116
f 115 117 114
f 113 115 112
f 111 113 110
f 109 111 108
f 107 109 106
f 105 107 104
f 103 105 102
f 101 103 100
f 99 101 98
f 97 99 96
f 95 97 94
f 93 95 92
f 91 93 90
f 89 91 88
f 87 89 86
f 85 87 84
f 83 85 82
f 81 83 80
f 79 81 78
f 77 79 76
f 75 77 74
f 73 75 72
f 71 73 70
f 69 71 68
f 67 69 66
f 65 67 64
f 63 65 62
f 61 63 60
f 59 61 58
f 57 59 56
f 55 57 54
f 53 55 52
f 51 53 50
f 49 51 48
f 47 49 46
f 45 47 44
f 43 45 42
f 41 43 40
f 39 41 38
f 37 39 36
f 35 37 34
f 33 35 32
f 31 33 30
f 29 31 28
f 27 29 26
f 25 27 24
f 23 25 22
f 21 23 20
f 19 21 18
f 17 19 16
f 15 17 14
f 13 15 12
f 11 13 10
f 9 11 8
f 7 9 6
f 5 7 4
f 3 5 1
f 237 238 65
f 239 179 177
f 65 63 237
f 238 71 69
f 240 171 169
f 177 240 239
f 239 183 181
f 239 189 187
f 239 199 197
f 239 203 201
f 239 209 207
f 237 43 41
f 237 47 45
f 63 61 237
f 69 67 238
f 240 173 171
f 177 175 240
f 239 185 183
f 239 191 189
f 239 195 193
f 201 199 239
f 239 211 209
f 45 43 237
f 237 51 49
f 237 59 57
f 67 65 238
f 238 99 97
f 175 173 240
f 187 185 239
f 197 195 239
f 207 205 239
f 239 225 223
f 237 39 37
f 49 47 237
f 237 55 53
f 61 59 237
f 238 83 81
f 97 95 238
f 240 153 151
f 240 159 157
f 240 163 161
f 181 179 239
f 205 203 239
f 239 217 215
f 223 221 239
f 239 231 229
f 237 29 27
f 41 39 237
f 57 55 237
f 238 79 77
f 238 85 83
f 238 89 87
f 238 93 91
f 238 101 99
f 238 105 103
f 240 141 139
f 240 155 153
f 161 159 240
f 193 191 239
f 215 213 239
f 221 219 239
f 229 227 239
f 237 31 29
f 237 35 33
f 53 51 237
f 238 75 73
f 81 79 238
f 91 89 238
f 103 101 238
f 238 109 107
f 240 129 127
f 240 143 141
f 240 147 145
f 157 155 240
f 240 167 165
f 213 211 239
f 227 225 239
f 237 15 13
f 33 31 237
f 73 71 238
f 87 85 238
f 107 105 238
f 240 131 129
f 145 143 240
f 165 163 240
f 219 217 239
f 237 17 15
f 237 21 19
f 237 25 23
f 37 35 237
f 95 93 238
f 238 118 122
f 240 125 118
f 240 133 131
f 240 137 135
f 240 149 147
f 169 167 240
f 237 9 7
f 13 11 237
f 23 21 237
f 77 75 238
f 118 238 240
f 122 121 238
f 135 133 240
f 151 149 240
f 239 235 233
f 239 3 236
f 237 5 3
f 11 9 237
f 27 25 237
f 238 113 111
f 238 117 115
f 139 137 240
f 236 235 239
f 7 5 237
f 111 109 238
f 121 117 238
f 233 231 239
f 19 17 237
f 127 125 240
f 115 113 238
f 3 239 237
f 239 241 242
f 242 237 239
f 237 242 243
f 243 238 237
f 242 244 243
f 245 246 243
f 240 238 243
f 243 246 240
f 243 244 245
f 247 248 246
f 246 245 247
f 241 249 242
f 249 241 250
f 250 251 249
f 252 253 254
f 255 252 256
f 257 255 258
f 259 257 260
f 261 259 262
f 263 261 264
f 265 263 266
f 267 265 268
f 269 267 270
f 271 269 272
f 273 271 274
f 275 273 276
f 277 275 278
f 279 277 280
f 281 279 282
f 283 281 284
f 285 283 286
f 287 285 288
f 289 287 290
f 291 289 292
f 293 291 294
f 295 293 296
f 297 295 298
f 299 297 300
f 301 299 302
f 303 301 304
f 305 303 306
f 307 305 308
f 309 307 310
f 311 309 312
f 313 311 314
f 315 313 316
f 317 315 318
f 319 317 320
f 321 319 322
f 323 321 324
f 325 323 326
f 327 325 328
f 329 327 330
f 331 329 332
f 333 331 334
f 335 333 336
f 337 335 338
f 339 337 340
f 341 339 342
f 343 341 344
f 345 343 346
f 347 345 348
f 349 347 350
f 351 349 352
f 353 351 354
f 355 353 356
f 357 355 358
f 359 357 360
f 361 359 362
f 363 361 364
f 365 363 366
f 367 365 368
f 369 367 370
f 371 369 372
f 373 371 374
f 375 373 376
f 377 375 378
f 379 377 380
f 381 379 382
f 383 381 384
f 385 383 386
f 387 385 388
f 389 387 390
f 391 389 392
f 393 391 394
f 395 393 396
f 397 395 398
f 399 397 400
f 401 399 402
f 403 401 404
f 405 403 406
f 407 405 408
f 409 407 410
f 411 409 412
f 413 411 414
f 415 413 416
f 417 415 418
f 419 417 420
f 421 419 422
f 423 421 424
f 425 423 426
f 427 425 428
f 429 427 430
f 431 429 432
f 433 431 434
f 435 433 436
f 437 435 438
f 439 437 440
f 441 439 442
f 443 441 444
f 445 443 446
f 447 445 448
f 449 447 450
f 451 449 452
f 453 451 454
f 455 453 456
f 457 455 458
f 459 457 460
f 461 459 462
f 463 461 464
f 465 463 466
f 467 465 468
f 469 467 470
f 471 469 472
f 473 471 474
f 475 473 476
f 250 475 477
f 477 251 250
f 476 477 475
f 474 476 473
f 472 474 471
f 470 472 469
f 468 470 467
f 466 468 465
f 464 466 463
f 462 464 461
f 460 462 459
f 458 460 457
f 456 458 455
f 454 456 453
f 452 454 451
f 450 452 449
f 448 450 447
f 446 448 445
f 444 446 443
f 442 444 441
f 440 442 439
f 438 440 437
f 436 438 435
f 434 436 433
f 432 434 431
f 430 432 429
f 428 430 427
f 426 428 425
f 424 426 423
f 422 424 421
f 420 422 419
f 418 420 417
f 416 418 415
f 414 416 413
f 412 414 411
f 410 412 409
f 408 410 407
f 406 408 405
f 404 406 403
f 402 404 401
f 400 402 399
f 398 400 397
f 396 398 395
f 394 396 393
f 392 394 391
f 390 392 389
f 388 390 387
f 386 388 385
f 384 386 383
f 382 384 381
f 380 382 379
f 378 380 377
f 376 378 375
f 374 376 373
f 372 374 371
f 370 372 369
f 368 370 367
f 366 368 365
f 364 366 363
f 362 364 361
f 360 362 359
f 358 360 357
f 356 358 355
f 354 356 353
f 352 354 351
f 350 352 349
f 348 350 347
f 346 348 345
f 344 346 343
f 342 344 341
f 340 342 339
f 338 340 337
f 336 338 335
f 334 336 333
f 332 334 331
f 330 332 329
f 328 330 327
f 326 328 325
f 324 326 323
f 322 324 321
f 320 322 319
f 318 320 317
f 316 318 315
f 314 316 313
f 312 314 311
f 310 312 309
f 308 310 307
f 306 308 305
f 304 306 303
f 302 304 301
f 300 302 299
f 298 300 297
f 296 298 295
f 294 296 293
f 292 294 291
f 290 292 289
f 288 290 287
f 286 288 285
f 284 286 283
f 282 284 281
f 280 282 279
f 278 280 277
f 276 278 275
f 274 276 273
f 272 274 271
f 270 272 269
f 268 270 267
f 266 268 265
f 264 266 263
f 262 264 261
f 260 262 259
f 258 260 257
f 256 258 255
f 254 256 252
f 478 479 480
f 253 480 479
f 479 254 253
f 480 481 478
f 482 346 344
f 483 484 344
f 344 484 482
f 485 486 348
f 487 350 348
f 488 489 338
f 490 342 340
f 482 485 346
f 348 486 487
f 491 492 352
f 493 494 410
f 495 336 334
f 336 495 488
f 340 496 490
f 348 346 485
f 350 487 491
f 497 354 352
f 498 408 406
f 408 498 493
f 499 418 416
f 338 336 488
f 489 496 340
f 344 342 483
f 352 492 497
f 500 501 356
f 502 364 362
f 410 408 493
f 503 412 410
f 504 414 412
f 416 505 499
f 506 507 420
f 508 432 430
f 509 436 434
f 510 511 446
f 512 513 280
f 514 288 286
f 515 310 308
f 516 324 322
f 517 328 326
f 340 338 489
f 352 350 491
f 354 497 500
f 501 518 358
f 519 520 362
f 362 520 502
f 521 522 370
f 410 494 503
f 412 503 504
f 523 505 416
f 420 418 506
f 524 525 424
f 526 430 428
f 430 526 508
f 527 528 434
f 434 528 509
f 529 530 438
f 531 440 438
f 532 533 442
f 444 534 510
f 535 448 446
f 536 278 276
f 278 536 512
f 537 538 284
f 538 539 286
f 286 539 514
f 540 541 298
f 308 542 515
f 543 544 312
f 545 546 320
f 546 547 322
f 322 547 516
f 548 549 326
f 326 549 517
f 550 551 334
f 490 483 342
f 358 356 501
f 552 360 358
f 502 553 364
f 553 554 366
f 555 368 366
f 368 555 521
f 556 557 392
f 558 396 394
f 559 560 406
f 504 523 414
f 499 506 418
f 561 422 420
f 422 561 524
f 508 527 432
f 509 529 436
f 438 530 531
f 440 531 532
f 534 444 442
f 446 511 535
f 562 450 448
f 280 278 512
f 563 282 280
f 282 563 537
f 514 564 288
f 565 296 294
f 296 565 540
f 566 567 302
f 568 306 304
f 312 310 543
f 569 314 312
f 570 571 316
f 572 318 316
f 318 572 545
f 516 548 324
f 517 573 328
f 574 332 330
f 332 574 550
f 356 354 500
f 358 518 552
f 366 364 553
f 370 368 521
f 575 576 374
f 577 378 376
f 578 579 388
f 390 580 556
f 581 394 392
f 394 581 558
f 582 583 398
f 584 400 398
f 585 404 402
f 404 585 559
f 416 414 523
f 424 422 524
f 586 587 428
f 434 432 527
f 442 440 532
f 446 444 510
f 448 535 562
f 588 454 452
f 589 590 276
f 280 513 563
f 286 284 538
f 591 592 294
f 298 296 540
f 593 300 298
f 300 593 566
f 304 594 568
f 595 542 308
f 312 544 569
f 314 569 570
f 320 318 545
f 326 324 548
f 573 596 330
f 334 332 550
f 552 519 360
f 366 554 555
f 597 372 370
f 372 597 575
f 598 376 374
f 376 598 577
f 386 599 578
f 580 390 388
f 392 557 581
f 398 396 582
f 398 583 584
f 600 601 402
f 406 404 559
f 420 507 561
f 602 426 424
f 426 602 586
f 438 436 529
f 562 603 450
f 603 604 452
f 452 604 588
f 605 247 456
f 247 460 458
f 276 274 589
f 284 282 537
f 606 292 290
f 294 592 565
f 302 300 566
f 567 594 304
f 308 306 595
f 316 314 570
f 322 320 546
f 330 596 574
f 362 360 519
f 374 372 575
f 577 607 378
f 608 382 380
f 609 610 384
f 599 386 384
f 388 579 580
f 558 582 396
f 402 400 600
f 406 560 498
f 428 426 586
f 442 533 534
f 588 605 454
f 458 456 247
f 247 245 468
f 242 249 251
f 242 477 245
f 276 590 536
f 564 611 290
f 290 611 606
f 298 541 593
f 568 595 306
f 316 571 572
f 334 551 495
f 374 576 598
f 607 612 380
f 380 612 608
f 384 610 599
f 392 390 556
f 402 601 585
f 428 587 526
f 456 454 605
f 247 464 462
f 468 466 247
f 245 244 242
f 274 272 589
f 606 591 292
f 304 302 567
f 330 328 573
f 380 378 607
f 384 382 609
f 584 600 400
f 452 450 603
f 613 614 479
f 614 589 264
f 466 464 247
f 245 472 470
f 245 476 474
f 251 477 242
f 290 288 564
f 515 543 310
f 608 609 382
f 424 525 602
f 614 254 479
f 264 262 614
f 470 468 245
f 477 476 245
f 294 292 591
f 388 386 578
f 614 256 254
f 614 260 258
f 589 266 264
f 589 270 268
f 474 472 245
f 370 522 597
f 258 256 614
f 268 266 589
f 272 270 589
f 262 260 614
f 479 478 613
f 462 460 247
f 615 616 359
f 617 618 341
f 619 620 413
f 621 405 407
f 622 365 367
f 361 623 615
f 624 357 359
f 625 347 349
f 626 627 345
f 628 343 345
f 343 628 617
f 629 339 341
f 630 441 443
f 631 437 439
f 632 633 431
f 634 635 427
f 636 419 421
f 637 415 417
f 415 637 619
f 407 638 621
f 639 640 403
f 367 641 622
f 642 643 363
f 623 361 363
f 359 616 624
f 644 645 349
f 349 645 625
f 345 627 628
f 341 618 629
f 646 333 335
f 647 648 443
f 443 648 630
f 439 649 631
f 650 651 435
f 433 652 632
f 653 429 431
f 429 653 634
f 635 654 425
f 421 655 636
f 656 657 417
f 413 415 619
f 658 411 413
f 659 660 409
f 660 638 407
f 403 405 639
f 363 365 642
f 359 361 615
f 661 662 355
f 663 351 353
f 625 626 347
f 341 343 617
f 664 665 337
f 335 666 646
f 667 668 331
f 669 670 323
f 671 672 319
f 673 674 305
f 675 676 283
f 677 275 277
f 678 679 449
f 680 647 445
f 630 681 441
f 681 649 439
f 435 437 650
f 652 433 435
f 431 633 653
f 425 427 635
f 417 419 656
f 413 620 658
f 411 658 659
f 621 639 405
f 682 401 403
f 683 684 391
f 685 387 389
f 363 643 623
f 357 624 661
f 686 353 355
f 353 686 663
f 345 347 626
f 339 629 664
f 666 335 337
f 331 333 667
f 687 329 331
f 325 688 669
f 689 321 323
f 321 689 671
f 690 317 319
f 691 315 317
f 692 307 309
f 307 692 673
f 693 293 295
f 285 694 675
f 695 281 283
f 696 279 281
f 277 697 677
f 698 699 273
f 248 453 455
f 700 451 453
f 451 700 678
f 701 447 449
f 447 701 680
f 439 441 681
f 435 651 652
f 427 429 634
f 417 657 637
f 407 409 660
f 403 640 682
f 702 703 399
f 704 705 395
f 706 393 395
f 393 706 683
f 684 707 389
f 389 707 685
f 708 383 385
f 709 710 381
f 711 379 381
f 712 713 377
f 355 357 661
f 663 644 351
f 337 339 664
f 646 667 333
f 331 668 687
f 714 715 327
f 323 670 689
f 319 672 690
f 317 690 691
f 716 717 313
f 718 311 313
f 719 720 309
f 305 307 673
f 721 722 301
f 723 297 299
f 295 724 693
f 725 726 291
f 283 676 695
f 281 695 696
f 727 697 277
f 273 275 698
f 453 248 700
f 449 679 701
f 443 445 647
f 431 433 632
f 728 423 425
f 409 411 659
f 399 401 702
f 729 397 399
f 397 729 704
f 391 393 683
f 685 730 387
f 730 731 385
f 385 731 708
f 381 710 711
f 379 711 712
f 732 733 373
f 355 662 686
f 337 665 666
f 327 329 714
f 688 325 327
f 319 321 671
f 313 315 716
f 313 717 718
f 309 720 692
f 734 303 305
f 303 734 721
f 299 735 723
f 736 724 295
f 291 293 725
f 737 289 291
f 696 727 279
f 677 698 275
f 738 271 273
f 449 451 678
f 631 650 437
f 425 654 728
f 739 655 421
f 682 702 401
f 395 397 704
f 389 391 684
f 708 709 383
f 377 379 712
f 740 375 377
f 375 740 732
f 733 741 371
f 742 369 371
f 349 351 644
f 327 715 688
f 691 716 315
f 309 311 719
f 301 303 721
f 735 299 301
f 295 297 736
f 291 726 737
f 743 744 287
f 277 279 727
f 738 269 271
f 445 447 680
f 421 423 739
f 399 703 729
f 385 387 730
f 377 713 740
f 371 373 733
f 371 741 742
f 745 641 367
f 687 714 329
f 718 719 311
f 301 722 735
f 693 725 293
f 289 737 743
f 694 285 287
f 273 699 738
f 240 246 241
f 246 475 250
f 248 463 465
f 746 259 261
f 747 481 480
f 728 739 423
f 395 705 706
f 373 375 732
f 367 369 745
f 323 325 669
f 723 736 297
f 287 744 694
f 738 267 269
f 250 241 246
f 248 461 463
f 248 457 459
f 746 257 259
f 480 746 747
f 636 656 419
f 742 745 369
f 305 674 734
f 283 285 675
f 246 473 475
f 246 469 471
f 246 465 467
f 459 461 248
f 738 263 265
f 261 738 746
f 746 252 255
f 480 253 746
f 381 383 709
f 287 289 743
f 471 473 246
f 465 246 248
f 261 263 738
f 253 252 746
f 622 642 365
f 467 469 246
f 255 257 746
f 241 239 240
f 455 457 248
f 265 267 738
f 613 747 746
f 746 614 613
f 746 738 589
f 589 614 746
f 481 748 749
f 481 747 750
f 481 751 752
f 749 753 481
f 481 754 755
f 481 756 757
f 750 758 481
f 747 759 760
f 481 761 762
f 481 763 764
f 752 765 481
f 481 766 748
f 755 767 481
f 481 768 769
f 481 770 756
f 481 771 772
f 481 773 774
f 481 775 776
f 758 777 481
f 760 778 747
f 478 779 780
f 762 478 481
f 762 781 478
f 765 763 481
f 753 782 481
f 769 754 481
f 772 770 481
f 776 773 481
f 778 750 747
f 747 783 784
f 478 785 786
f 478 787 788
f 478 789 779
f 478 790 791
f 782 751 481
f 481 792 793
f 757 768 481
f 777 775 481
f 747 794 795
f 784 796 747
f 613 786 797
f 478 798 785
f 788 799 478
f 780 800 478
f 791 801 478
f 764 761 481
f 481 802 792
f 774 771 481
f 747 803 804
f 747 805 806
f 747 807 794
f 747 808 809
f 747 810 811
f 747 812 783
f 747 813 814
f 786 613 478
f 478 815 816
f 478 817 818
f 800 787 478
f 801 819 478
f 478 820 821
f 793 766 481
f 804 759 747
f 795 805 747
f 811 808 747
f 814 812 747
f 747 822 823
f 613 824 825
f 816 798 478
f 478 826 827
f 818 828 478
f 819 789 478
f 478 829 820
f 478 830 831
f 478 832 833
f 767 802 481
f 809 807 747
f 823 813 747
f 613 834 835
f 613 836 837
f 613 838 824
f 613 839 840
f 613 841 842
f 827 815 478
f 799 817 478
f 831 829 478
f 478 843 844
f 781 832 478
f 796 810 747
f 747 845 846
f 613 847 834
f 613 848 836
f 840 838 613
f 613 849 850
f 613 851 841
f 828 826 478
f 844 830 478
f 806 803 747
f 846 852 747
f 613 853 854
f 613 855 856
f 837 847 613
f 613 857 858
f 850 839 613
f 797 851 613
f 833 843 478
f 852 859 747
f 856 853 613
f 858 848 613
f 842 849 613
f 859 822 747
f 835 855 613
f 821 790 478
f 747 613 860
f 613 861 862
f 613 863 864
f 825 857 613
f 860 865 747
f 864 861 613
f 865 845 747
f 854 863 613
f 862 860 613
f 866 867 762
f 868 866 761
f 869 868 764
f 870 869 763
f 871 870 765
f 872 871 752
f 873 872 751
f 874 873 782
f 875 874 753
f 876 875 749
f 877 876 748
f 878 877 766
f 879 878 793
f 880 879 792
f 881 880 802
f 882 881 767
f 883 882 755
f 884 883 754
f 885 884 769
f 886 885 768
f 887 886 757
f 888 887 756
f 889 888 770
f 890 889 772
f 891 890 771
f 892 891 774
f 893 892 773
f 894 893 776
f 895 894 775
f 896 895 777
f 897 896 758
f 898 897 750
f 899 898 778
f 900 899 760
f 901 900 759
f 902 901 804
f 903 902 803
f 904 903 806
f 905 904 805
f 906 905 795
f 907 906 794
f 908 907 807
f 909 908 809
f 910 909 808
f 911 910 811
f 912 911 810
f 913 912 796
f 914 913 784
f 915 914 783
f 916 915 812
f 917 916 814
f 918 917 813
f 919 918 823
f 920 919 822
f 921 920 859
f 922 921 852
f 923 922 846
f 924 923 845
f 862 925 926
f 924 865 860
f 860 926 924
f 927 925 862
f 928 927 861
f 929 928 864
f 930 929 863
f 931 930 854
f 932 931 853
f 933 932 856
f 934 933 855
f 935 934 835
f 936 935 834
f 937 936 847
f 938 937 837
f 939 938 836
f 940 939 848
f 941 940 858
f 942 941 857
f 943 942 825
f 944 943 824
f 945 944 838
f 946 945 840
f 947 946 839
f 948 947 850
f 949 948 849
f 950 949 842
f 951 950 841
f 952 951 851
f 953 952 797
f 954 953 786
f 955 954 785
f 956 955 798
f 957 956 816
f 958 957 815
f 959 958 827
f 960 959 826
f 961 960 828
f 962 961 818
f 963 962 817
f 964 963 799
f 965 964 788
f 966 965 787
f 967 966 800
f 968 967 780
f 969 968 779
f 970 969 789
f 971 970 819
f 972 971 801
f 973 972 791
f 974 973 790
f 975 974 821
f 976 975 820
f 977 976 829
f 978 977 831
f 979 978 830
f 980 979 844
f 981 980 843
f 982 981 833
f 983 982 832
f 867 983 781
f 781 762 867
f 832 781 983
f 833 832 982
f 843 833 981
f 844 843 980
f 830 844 979
f 831 830 978
f 829 831 977
f 820 829 976
f 821 820 975
f 790 821 974
f 791 790 973
f 801 791 972
f 819 801 971
f 789 819 970
f 779 789 969
f 780 779 968
f 800 780 967
f 787 800 966
f 788 787 965
f 799 788 964
f 817 799 963
f 818 817 962
f 828 818 961
f 826 828 960
f 827 826 959
f 815 827 958
f 816 815 957
f 798 816 956
f 785 798 955
f 786 785 954
f 797 786 953
f 851 797 952
f 841 851 951
f 842 841 950
f 849 842 949
f 850 849 948
f 839 850 947
f 840 839 946
f 838 840 945
f 824 838 944
f 825 824 943
f 857 825 942
f 858 857 941
f 848 858 940
f 836 848 939
f 837 836 938
f 847 837 937
f 834 847 936
f 835 834 935
f 855 835 934
f 856 855 933
f 853 856 932
f 854 853 931
f 863 854 930
f 864 863 929
f 861 864 928
f 862 861 927
f 926 860 862
f 845 865 924
f 846 845 923
f 852 846 922
f 859 852 921
f 822 859 920
f 823 822 919
f 813 823 918
f 814 813 917
f 812 814 916
f 783 812 915
f 784 783 914
f 796 784 913
f 810 796 912
f 811 810 911
f 808 811 910
f 809 808 909
f 807 809 908
f 794 807 907
f 795 794 906
f 805 795 905
f 806 805 904
f 803 806 903
f 804 803 902
f 759 804 901
f 760 759 900
f 778 760 899
f 750 778 898
f 758 750 897
f 777 758 896
f 775 777 895
f 776 775 894
f 773 776 893
f 774 773 892
f 771 774 891
f 772 771 890
f 770 772 889
f 756 770 888
f 757 756 887
f 768 757 886
f 769 768 885
f 754 769 884
f 755 754 883
f 767 755 882
f 802 767 881
f 792 802 880
f 793 792 879
f 766 793 878
f 748 766 877
f 749 748 876
f 753 749 875
f 782 753 874
f 751 782 873
f 752 751 872
f 765 752 871
f 763 765 870
f 764 763 869
f 761 764 868
f 762 761 866
f 984 985 196
f 986 64 66
f 986 58 60
f 986 40 42
f 986 987 38
f 984 204 206
f 196 198 984
f 985 192 194
f 985 182 184
f 985 176 178
f 985 172 174
f 985 164 166
f 986 62 64
f 986 56 58
f 38 40 986
f 984 202 204
f 194 196 985
f 985 188 190
f 184 186 985
f 178 180 985
f 985 170 172
f 166 168 985
f 988 92 94
f 986 76 78
f 60 62 986
f 986 52 54
f 986 44 46
f 987 36 38
f 984 218 220
f 984 200 202
f 190 192 985
f 180 182 985
f 168 170 985
f 985 989 158
f 988 90 92
f 78 988 986
f 54 56 986
f 986 48 50
f 42 44 986
f 987 32 34
f 987 8 10
f 984 224 226
f 984 216 218
f 984 210 212
f 198 200 984
f 174 176 985
f 989 156 158
f 989 152 154
f 989 146 148
f 988 98 100
f 94 96 988
f 988 86 88
f 988 82 84
f 78 80 988
f 986 72 74
f 50 52 986
f 34 36 987
f 987 22 24
f 10 12 987
f 984 234 2
f 984 222 224
f 984 214 216
f 984 208 210
f 186 188 985
f 154 156 989
f 148 150 989
f 989 134 136
f 988 102 104
f 96 98 988
f 84 86 988
f 74 76 986
f 986 68 70
f 46 48 986
f 987 28 30
f 24 26 987
f 987 6 8
f 987 1 4
f 2 987 984
f 220 222 984
f 206 208 984
f 985 160 162
f 150 152 989
f 989 140 142
f 136 138 989
f 100 102 988
f 80 82 988
f 66 68 986
f 26 28 987
f 4 6 987
f 984 232 234
f 212 214 984
f 158 160 985
f 138 140 989
f 989 123 124
f 88 90 988
f 30 32 987
f 987 18 20
f 987 14 16
f 2 1 987
f 984 228 230
f 162 164 985
f 142 144 989
f 124 126 989
f 70 72 986
f 16 18 987
f 230 232 984
f 144 146 989
f 989 130 132
f 126 128 989
f 988 106 108
f 20 22 987
f 226 228 984
f 128 130 989
f 988 116 120
f 104 106 988
f 132 134 989
f 988 114 116
f 988 110 112
f 12 14 987
f 989 120 119
f 112 114 988
f 119 123 989
f 108 110 988
f 120 989 988
f 989 990 991
f 991 988 989
f 985 992 993
f 985 994 992
f 985 995 994
f 985 996 995
f 985 997 996
f 985 998 997
f 985 999 998
f 985 1000 999
f 985 1001 1000
f 985 1002 1001
f 985 1003 1002
f 985 1004 1003
f 985 1005 1004
f 985 1006 1005
f 985 1007 1006
f 985 1008 1007
f 985 1009 1008
f 985 1010 1009
f 985 1011 1010
f 985 1012 1011
f 985 1013 1012
f 985 1014 1013
f 985 1015 1014
f 985 1016 1015
f 985 1017 1016
f 985 1018 1017
f 985 1019 1018
f 985 1020 1019
f 985 1021 1020
f 985 1022 1021
f 985 1023 1022
f 985 1024 1023
f 985 1025 1024
f 985 1026 1025
f 985 1027 1026
f 985 1028 990
f 985 1029 1027
f 993 1028 985
f 990 989 985
f 984 1030 1029
f 984 1031 1030
f 984 1032 1031
f 984 1033 1032
f 984 1034 1033
f 984 1035 1034
f 984 1036 1035
f 984 1037 1036
f 984 1038 1037
f 984 1039 1038
f 984 1040 1039
f 984 1041 1040
f 984 1042 1041
f 984 1043 1042
f 984 1044 1043
f 984 1045 1044
f 984 1046 1045
f 984 1047 1046
f 984 1048 1047
f 984 1049 1048
f 984 1050 1049
f 984 1051 1050
f 984 1052 1051
f 984 1053 1052
f 984 1054 1055
f 1055 1053 984
f 1029 985 984
f 1054 984 987
f 987 1056 1054
f 987 986 1057
f 1057 1058 987
f 1058 1059 987
f 1059 1060 987
f 1060 1061 987
f 1061 1062 987
f 1062 1063 987
f 1063 1064 987
f 1064 1065 987
f 1065 1066 987
f 1066 1067 987
f 1067 1068 987
f 1068 1069 987
f 1069 1070 987
f 1070 1071 987
f 1071 1072 987
f 1072 1073 987
f 1073 1074 987
f 1074 1075 987
f 1075 1076 987
f 1076 1077 987
f 1077 1078 987
f 1078 1079 987
f 987 1080 1081
f 1079 1082 987
f 1082 1080 987
f 1081 1056 987
f 986 1083 1084
f 1084 1085 986
f 1085 1086 986
f 1086 1087 986
f 1087 1088 986
f 1088 1089 986
f 1089 1090 986
f 1090 1091 986
f 1091 1092 986
f 1092 1093 986
f 1093 1094 986
f 1094 1095 986
f 1095 1096 986
f 1096 1097 986
f 1097 1098 986
f 1098 1099 986
f 1099 1100 986
f 1100 1101 986
f 1101 1102 986
f 1102 1103 986
f 1103 1104 986
f 1104 1105 986
f 1105 1106 986
f 1106 1107 986
f 1107 1108 986
f 1108 1109 986
f 1109 1110 986
f 1110 1111 986
f 1111 1112 986
f 1112 1113 986
f 1113 1114 986
f 1114 1115 986
f 1115 1116 986
f 1116 1117 986
f 1117 1118 986
f 1118 1119 986
f 986 988 991
f 991 1083 986
f 1119 1057 986
f 248 247 605
f 700 605 588
f 678 588 604
f 679 604 603
f 701 603 562
f 702 585 601
f 703 601 600
f 729 600 584
f 704 584 583
f 705 583 582
f 706 582 558
f 683 558 581
f 684 581 557
f 707 557 556
f 685 556 580
f 730 580 579
f 731 579 578
f 708 578 599
f 709 599 610
f 710 610 609
f 711 609 608
f 712 608 612
f 713 612 607
f 740 607 577
f 732 577 598
f 733 598 576
f 741 576 575
f 742 575 597
f 745 597 522
f 641 522 521
f 622 521 555
f 642 555 554
f 643 554 553
f 623 553 502
f 615 502 520
f 616 520 519
f 624 519 552
f 661 552 518
f 662 518 501
f 686 501 500
f 663 500 497
f 644 497 492
f 645 492 491
f 625 491 487
f 626 487 486
f 627 486 485
f 628 485 482
f 617 482 484
f 618 484 483
f 629 483 490
f 664 490 496
f 665 496 489
f 666 489 488
f 646 488 495
f 667 495 551
f 668 551 550
f 687 550 574
f 714 574 596
f 715 596 573
f 688 573 517
f 727 563 513
f 697 513 512
f 677 512 536
f 698 536 590
f 699 590 589
f 525 524 1119
f 1119 1118 525
f 602 525 1117
f 1117 1116 602
f 586 602 1115
f 1115 1114 586
f 587 586 1113
f 1113 1112 587
f 526 587 1111
f 1111 1110 526
f 508 526 1109
f 1109 1108 508
f 527 508 1107
f 1107 1106 527
f 528 527 1105
f 1105 1104 528
f 509 528 1103
f 1103 1102 509
f 529 509 1101
f 1101 1100 529
f 530 529 1099
f 1099 1098 530
f 531 530 1097
f 1097 1096 531
f 532 531 1095
f 1095 1094 532
f 533 532 1093
f 1093 1092 533
f 534 533 1091
f 1091 1090 534
f 510 534 1089
f 1089 1088 510
f 511 510 1087
f 1087 1086 511
f 535 511 1085
f 1085 1084 535
f 680 990 1028
f 562 991 990
f 562 535 1083
f 1083 991 562
f 990 680 562
f 647 993 992
f 647 1028 993
f 648 994 995
f 648 992 994
f 630 996 997
f 630 995 996
f 681 998 999
f 681 997 998
f 649 1000 1001
f 649 999 1000
f 631 1002 1003
f 631 1001 1002
f 650 1004 1005
f 650 1003 1004
f 651 1006 1007
f 651 1005 1006
f 652 1008 1009
f 652 1007 1008
f 632 1010 1011
f 632 1009 1010
f 633 1012 1013
f 633 1011 1012
f 653 1014 1015
f 653 1013 1014
f 634 1016 1017
f 634 1015 1016
f 635 1018 1019
f 635 1017 1018
f 654 1020 1021
f 654 1019 1020
f 728 1022 1023
f 728 1021 1022
f 739 1024 1025
f 739 1023 1024
f 655 1026 1027
f 655 1025 1026
f 636 1027 1029
f 1029 656 636
f 657 656 1030
f 1030 1031 657
f 637 657 1032
f 1032 1033 637
f 619 637 1034
f 1034 1035 619
f 620 619 1036
f 1036 1037 620
f 658 620 1038
f 1038 1039 658
f 659 658 1040
f 1040 1041 659
f 660 659 1042
f 1042 1043 660
f 638 660 1044
f 1044 1045 638
f 621 638 1046
f 1046 1047 621
f 639 621 1048
f 1048 1049 639
f 640 639 1050
f 1050 1051 640
f 682 640 1052
f 1052 1053 682
f 585 1056 1081
f 585 702 1054
f 1054 1056 585
f 702 682 1055
f 1055 1054 702
f 559 1080 1082
f 559 1081 1080
f 560 1079 1078
f 560 1082 1079
f 498 1077 1076
f 498 1078 1077
f 493 1075 1074
f 493 1076 1075
f 494 1073 1072
f 494 1074 1073
f 503 1071 1070
f 503 1072 1071
f 504 1069 1068
f 504 1070 1069
f 523 1067 1066
f 523 1068 1067
f 505 1065 1064
f 505 1066 1065
f 499 1063 1062
f 499 1064 1063
f 506 1061 1060
f 506 1062 1061
f 507 1059 1058
f 507 1060 1059
f 524 561 1057
f 561 1058 1057
f 670 1120 1121
f 670 1122 1120
f 689 1123 1124
f 689 1121 1123
f 671 1125 1126
f 671 1124 1125
f 672 1127 1128
f 672 1126 1127
f 690 1129 1130
f 690 1128 1129
f 691 1131 1132
f 691 1130 1131
f 716 1133 1134
f 716 1132 1133
f 717 1135 1136
f 717 1134 1135
f 718 1137 1138
f 718 1136 1137
f 719 1139 1140
f 719 1138 1139
f 720 1141 1142
f 720 1140 1141
f 692 1143 1144
f 692 1142 1143
f 673 1144 1145
f 1145 674 673
f 734 674 1146
f 1146 1147 734
f 721 734 1148
f 1148 1149 721
f 722 721 1150
f 1150 1151 722
f 735 722 1152
f 1152 1153 735
f 723 735 1154
f 1154 1155 723
f 736 723 1156
f 1156 1157 736
f 724 736 1158
f 1158 1159 724
f 693 724 1160
f 1160 1161 693
f 725 693 1162
f 1162 1163 725
f 726 725 1164
f 1164 1165 726
f 737 726 1166
f 1166 1167 737
f 743 737 1168
f 1168 1169 743
f 744 743 1170
f 1170 1171 744
f 694 744 1172
f 1172 1173 694
f 675 694 1174
f 1174 1175 675
f 676 675 1176
f 1176 1177 676
f 695 676 1178
f 1178 1179 695
f 696 695 1180
f 1180 1181 696
f 563 1182 1183
f 727 1184 1182
f 727 696 1185
f 1185 1184 727
f 1182 563 727
f 537 1186 1187
f 537 1183 1186
f 538 1188 1189
f 538 1187 1188
f 539 1190 1191
f 539 1189 1190
f 514 1192 1193
f 514 1191 1192
f 564 1194 1195
f 564 1193 1194
f 611 1196 1197
f 611 1195 1196
f 606 1198 1199
f 606 1197 1198
f 591 1200 1201
f 591 1199 1200
f 592 1202 1203
f 592 1201 1202
f 565 1204 1205
f 565 1203 1204
f 540 1206 1207
f 540 1205 1206
f 541 1208 1209
f 541 1207 1208
f 593 1210 1211
f 593 1209 1210
f 566 1212 1213
f 566 1211 1212
f 567 1214 1215
f 567 1213 1214
f 594 1216 1217
f 594 1215 1216
f 568 1218 1219
f 568 1217 1218
f 595 1220 1221
f 595 1219 1220
f 515 542 1222
f 542 1221 1222
f 543 515 1223
f 1223 1224 543
f 544 543 1225
f 1225 1226 544
f 569 544 1227
f 1227 1228 569
f 570 569 1229
f 1229 1230 570
f 571 570 1231
f 1231 1232 571
f 572 571 1233
f 1233 1234 572
f 545 572 1235
f 1235 1236 545
f 546 545 1237
f 1237 1238 546
f 547 546 1239
f 1239 1240 547
f 516 547 1241
f 1241 1242 516
f 548 516 1243
f 1243 1244 548
f 549 548 1245
f 1245 1246 549
f 669 1247 1122
f 669 517 1248
f 517 549 1249
f 1249 1248 517
f 1248 1247 669
f 1122 670 669
f 1246 1249 549
f 1244 1245 548
f 1242 1243 516
f 1240 1241 547
f 1238 1239 546
f 1236 1237 545
f 1234 1235 572
f 1232 1233 571
f 1230 1231 570
f 1228 1229 569
f 1226 1227 544
f 1224 1225 543
f 1222 1223 515
f 1221 542 595
f 1219 595 568
f 1217 568 594
f 1215 594 567
f 1213 567 566
f 1211 566 593
f 1209 593 541
f 1207 541 540
f 1205 540 565
f 1203 565 592
f 1201 592 591
f 1199 591 606
f 1197 606 611
f 1195 611 564
f 1193 564 514
f 1191 514 539
f 1189 539 538
f 1187 538 537
f 1183 537 563
f 1181 1185 696
f 1179 1180 695
f 1177 1178 676
f 1175 1176 675
f 1173 1174 694
f 1171 1172 744
f 1169 1170 743
f 1167 1168 737
f 1165 1166 726
f 1163 1164 725
f 1161 1162 693
f 1159 1160 724
f 1157 1158 736
f 1155 1156 723
f 1153 1154 735
f 1151 1152 722
f 1149 1150 721
f 1147 1148 734
f 1145 1146 674
f 1144 673 692
f 1142 692 720
f 1140 720 719
f 1138 719 718
f 1136 718 717
f 1134 717 716
f 1132 716 691
f 1130 691 690
f 1128 690 672
f 1126 672 671
f 1124 671 689
f 1121 689 670
f 1057 1119 524
f 1058 561 507
f 1060 507 506
f 1062 506 499
f 1064 499 505
f 1066 505 523
f 1068 523 504
f 1070 504 503
f 1072 503 494
f 1074 494 493
f 1076 493 498
f 1078 498 560
f 1082 560 559
f 1081 559 585
f 1053 1055 682
f 1051 1052 640
f 1049 1050 639
f 1047 1048 621
f 1045 1046 638
f 1043 1044 660
f 1041 1042 659
f 1039 1040 658
f 1037 1038 620
f 1035 1036 619
f 1033 1034 637
f 1031 1032 657
f 1029 1030 656
f 1027 636 655
f 1025 655 739
f 1023 739 728
f 1021 728 654
f 1019 654 635
f 1017 635 634
f 1015 634 653
f 1013 653 633
f 1011 633 632
f 1009 632 652
f 1007 652 651
f 1005 651 650
f 1003 650 631
f 1001 631 649
f 999 649 681
f 997 681 630
f 995 630 648
f 992 648 647
f 1028 647 680
f 1084 1083 535
f 1086 1085 511
f 1088 1087 510
f 1090 1089 534
f 1092 1091 533
f 1094 1093 532
f 1096 1095 531
f 1098 1097 530
f 1100 1099 529
f 1102 1101 509
f 1104 1103 528
f 1106 1105 527
f 1108 1107 508
f 1110 1109 526
f 1112 1111 587
f 1114 1113 586
f 1116 1115 602
f 1118 1117 525
f 589 738 699
f 590 699 698
f 536 698 677
f 512 677 697
f 513 697 727
f 517 669 688
f 573 688 715
f 596 715 714
f 574 714 687
f 550 687 668
f 551 668 667
f 495 667 646
f 488 646 666
f 489 666 665
f 496 665 664
f 490 664 629
f 483 629 618
f 484 618 617
f 482 617 628
f 485 628 627
f 486 627 626
f 487 626 625
f 491 625 645
f 492 645 644
f 497 644 663
f 500 663 686
f 501 686 662
f 518 662 661
f 552 661 624
f 519 624 616
f 520 616 615
f 502 615 623
f 553 623 643
f 554 643 642
f 555 642 622
f 521 622 641
f 522 641 745
f 597 745 742
f 575 742 741
f 576 741 733
f 598 733 732
f 577 732 740
f 607 740 713
f 612 713 712
f 608 712 711
f 609 711 710
f 610 710 709
f 599 709 708
f 578 708 731
f 579 731 730
f 580 730 685
f 556 685 707
f 557 707 684
f 581 684 683
f 558 683 706
f 582 706 705
f 583 705 704
f 584 704 729
f 600 729 703
f 601 703 702
f 562 680 701
f 603 701 679
f 604 679 678
f 588 678 700
f 605 700 248
f 1250 967 968
f 1251 964 965
f 1250 971 972
f 1250 966 967
f 1251 963 964
f 1252 898 899
f 1252 895 896
f 1252 1253 885
f 1253 874 875
f 1250 970 971
f 1250 965 966
f 1251 962 963
f 1252 897 898
f 1252 894 895
f 1252 892 893
f 1252 890 891
f 885 886 1252
f 875 876 1253
f 1253 870 871
f 1250 969 970
f 965 1250 1251
f 1251 960 961
f 1251 953 954
f 1254 912 913
f 1254 1252 905
f 896 897 1252
f 891 892 1252
f 1252 888 889
f 886 887 1252
f 1253 881 882
f 1253 873 874
f 1253 869 870
f 1253 866 868
f 968 969 1250
f 1251 959 960
f 1251 952 953
f 1254 911 912
f 1252 904 905
f 893 894 1252
f 887 888 1252
f 1253 883 884
f 1253 880 881
f 1253 872 873
f 868 869 1253
f 1250 976 977
f 961 962 1251
f 1251 957 958
f 1251 955 956
f 1251 951 952
f 1251 1255 945
f 1255 941 942
f 1254 915 916
f 913 914 1254
f 1254 909 910
f 1254 907 908
f 905 906 1254
f 1252 902 903
f 889 890 1252
f 882 883 1253
f 1253 877 878
f 871 872 1253
f 1253 1250 867
f 1250 975 976
f 1250 973 974
f 958 959 1251
f 954 955 1251
f 1251 948 949
f 1255 944 945
f 942 943 1255
f 1255 936 937
f 1255 933 934
f 1255 1254 926
f 1254 917 918
f 914 915 1254
f 908 909 1254
f 903 904 1252
f 1252 900 901
f 884 885 1253
f 878 879 1253
f 867 866 1253
f 1250 982 983
f 1250 980 981
f 1250 978 979
f 974 975 1250
f 956 957 1251
f 949 950 1251
f 1251 946 947
f 943 944 1255
f 937 938 1255
f 934 935 1255
f 1254 924 926
f 1254 921 922
f 916 917 1254
f 906 907 1254
f 899 900 1252
f 876 877 1253
f 981 982 1250
f 977 978 1250
f 950 951 1251
f 945 946 1251
f 1255 939 940
f 935 936 1255
f 1255 931 932
f 1255 929 930
f 926 925 1255
f 1254 920 921
f 910 911 1254
f 879 880 1253
f 979 980 1250
f 947 948 1251
f 938 939 1255
f 930 931 1255
f 1255 927 928
f 1254 923 924
f 1254 919 920
f 901 902 1252
f 972 973 1250
f 932 933 1255
f 925 927 1255
f 918 919 1254
f 940 941 1255
f 922 923 1254
f 928 929 1255
f 983 867 1250
f 1252 1185 1181
f 1181 1180 1252
f 1180 1179 1252
f 1179 1178 1252
f 1178 1177 1252
f 1177 1176 1252
f 1176 1175 1252
f 1175 1174 1252
f 1174 1173 1252
f 1173 1172 1252
f 1172 1171 1252
f 1171 1170 1252
f 1170 1169 1252
f 1169 1168 1252
f 1168 1167 1252
f 1167 1166 1252
f 1166 1165 1252
f 1165 1164 1252
f 1164 1163 1252
f 1163 1162 1252
f 1162 1161 1252
f 1161 1160 1252
f 1160 1159 1252
f 1159 1158 1252
f 1158 1157 1252
f 1157 1156 1252
f 1156 1155 1252
f 1155 1154 1252
f 1154 1153 1252
f 1153 1152 1252
f 1152 1151 1252
f 1151 1150 1252
f 1150 1149 1252
f 1149 1148 1252
f 1148 1147 1252
f 1147 1146 1252
f 1252 1254 1184
f 1184 1185 1252
f 1146 1145 1252
f 1182 1184 1254
f 1254 1255 1182
f 1251 1187 1186
f 1251 1188 1187
f 1251 1189 1188
f 1251 1190 1189
f 1251 1191 1190
f 1251 1192 1191
f 1251 1193 1192
f 1251 1194 1193
f 1251 1195 1194
f 1251 1196 1195
f 1251 1197 1196
f 1251 1198 1197
f 1251 1199 1198
f 1251 1200 1199
f 1251 1201 1200
f 1251 1202 1201
f 1251 1203 1202
f 1251 1204 1203
f 1251 1205 1204
f 1251 1206 1205
f 1251 1207 1206
f 1251 1208 1207
f 1251 1209 1208
f 1251 1210 1209
f 1251 1211 1210
f 1251 1212 1211
f 1251 1213 1212
f 1251 1214 1213
f 1251 1215 1214
f 1251 1216 1215
f 1251 1217 1216
f 1251 1218 1217
f 1251 1219 1218
f 1251 1220 1219
f 1251 1221 1220
f 1251 1183 1182
f 1251 1222 1221
f 1186 1183 1251
f 1182 1255 1251
f 1250 1223 1222
f 1250 1224 1223
f 1250 1225 1224
f 1250 1226 1225
f 1250 1227 1226
f 1250 1228 1227
f 1250 1229 1228
f 1250 1230 1229
f 1250 1231 1230
f 1250 1232 1231
f 1250 1233 1232
f 1250 1234 1233
f 1250 1235 1234
f 1250 1236 1235
f 1250 1237 1236
f 1250 1238 1237
f 1250 1239 1238
f 1250 1240 1239
f 1250 1241 1240
f 1250 1242 1241
f 1250 1243 1242
f 1250 1244 1243
f 1250 1245 1244
f 1250 1246 1245
f 1250 1248 1249
f 1249 1246 1250
f 1222 1251 1250
f 1248 1250 1253
f 1253 1247 1248
f 1253 1252 1145
f 1145 1144 1253
f 1144 1143 1253
f 1143 1142 1253
f 1142 1141 1253
f 1141 1140 1253
f 1140 1139 1253
f 1139 1138 1253
f 1138 1137 1253
f 1137 1136 1253
f 1136 1135 1253
f 1135 1134 1253
f 1134 1133 1253
f 1133 1132 1253
f 1132 1131 1253
f 1131 1130 1253
f 1130 1129 1253
f 1129 1128 1253
f 1128 1127 1253
f 1127 1126 1253
f 1126 1125 1253
f 1125 1124 1253
f 1124 1123 1253
f 1253 1120 1122
f 1123 1121 1253
f 1121 1120 1253
f 1122 1247 1253
