# 
# Wavefront OBJ file
# Created with Kaydara FBX
# 
mtllib pritiskivac_tockica.mtl

g pritiskivac_tockica
v 0.000000 -12.272611 -2.746036
v 0.000000 -12.125000 -2.750000
v -6.000000 -12.125000 -2.750000
v 0.000000 -12.419796 -2.734154
v -6.000000 -12.272611 -2.746036
v 0.000000 -12.566131 -2.714388
v -6.000000 -12.419796 -2.734154
v 0.000000 -12.711194 -2.686797
v -6.000000 -12.566131 -2.714388
v 0.000000 -12.854567 -2.651458
v -6.000000 -12.711194 -2.686797
v 0.000000 -12.995837 -2.608475
v -6.000000 -12.854567 -2.651458
v 0.000000 -13.134596 -2.557971
v -6.000000 -12.995837 -2.608475
v 0.000000 -13.270444 -2.500092
v -6.000000 -13.134596 -2.557971
v 0.000000 -13.402989 -2.435004
v -6.000000 -13.270444 -2.500092
v 0.000000 -13.531849 -2.362896
v -6.000000 -13.402989 -2.435004
v 0.000000 -13.656653 -2.283974
v -6.000000 -13.531849 -2.362896
v 0.000000 -13.777041 -2.198468
v -6.000000 -13.656653 -2.283974
v 0.000000 -13.892666 -2.106622
v -6.000000 -13.777041 -2.198468
v 0.000000 -14.003194 -2.008703
v -6.000000 -13.892666 -2.106622
v 0.000000 -14.108307 -1.904992
v -6.000000 -14.003194 -2.008703
v 0.000000 -14.207701 -1.795788
v -6.000000 -14.108307 -1.904992
v 0.000000 -14.301090 -1.681407
v -6.000000 -14.207701 -1.795788
v 0.000000 -14.388206 -1.562178
v -6.000000 -14.301090 -1.681407
v 0.000000 -14.468795 -1.438445
v -6.000000 -14.388206 -1.562178
v 0.000000 -14.542627 -1.310564
v -6.000000 -14.468795 -1.438445
v 0.000000 -14.609489 -1.178905
v -6.000000 -14.542627 -1.310564
v 0.000000 -14.669187 -1.043846
v -6.000000 -14.609489 -1.178905
v 0.000000 -14.721549 -0.905778
v -6.000000 -14.669187 -1.043846
v 0.000000 -14.766425 -0.765098
v -6.000000 -14.721549 -0.905778
v 0.000000 -14.803685 -0.622212
v -6.000000 -14.766425 -0.765098
v 0.000000 -14.833221 -0.477532
v -6.000000 -14.803685 -0.622212
v 0.000000 -14.854949 -0.331476
v -6.000000 -14.833221 -0.477532
v 0.000000 -14.868806 -0.184464
v -6.000000 -14.854949 -0.331476
v 0.000000 -14.874752 -0.036919
v -6.000000 -14.868806 -0.184464
v -6.000000 -14.872770 0.110731
v 0.000000 -14.872770 0.110731
v 0.000000 -14.875000 -0.000000
v -6.000000 -14.874752 -0.036919
v 0.000000 -14.862865 0.258063
v 0.000000 -14.845066 0.404650
v -6.000000 -14.862865 0.258063
v 0.000000 -14.819424 0.550071
v -6.000000 -14.845066 0.404650
v 0.000000 -14.786014 0.693905
v -6.000000 -14.819424 0.550071
v 0.000000 -14.744931 0.835739
v -6.000000 -14.786014 0.693905
v 0.000000 -14.696295 0.975163
v -6.000000 -14.744931 0.835739
v 0.000000 -14.640244 1.111776
v -6.000000 -14.696295 0.975163
v 0.000000 -14.576942 1.245183
v -6.000000 -14.640244 1.111776
v 0.000000 -14.506570 1.375000
v -6.000000 -14.576942 1.245183
v 0.000000 -14.429331 1.500852
v -6.000000 -14.506570 1.375000
v 0.000000 -14.345448 1.622377
v -6.000000 -14.429331 1.500852
v 0.000000 -14.255164 1.739225
v -6.000000 -14.345448 1.622377
v 0.000000 -14.158737 1.851057
v -6.000000 -14.255164 1.739225
v 0.000000 -14.056447 1.957553
v -6.000000 -14.158737 1.851057
v 0.000000 -13.948587 2.058405
v -6.000000 -14.056447 1.957553
v 0.000000 -13.835470 2.153321
v -6.000000 -13.948587 2.058405
v 0.000000 -13.717421 2.242029
v -6.000000 -13.835470 2.153321
v 0.000000 -13.594781 2.324273
v -6.000000 -13.717421 2.242029
v 0.000000 -13.467903 2.399815
v -6.000000 -13.594781 2.324273
v 0.000000 -13.337153 2.468438
v -6.000000 -13.467903 2.399815
v 0.000000 -13.202908 2.529943
v -6.000000 -13.337153 2.468438
v 0.000000 -13.065555 2.584155
v -6.000000 -13.202908 2.529943
v 0.000000 -12.925491 2.630915
v -6.000000 -13.065555 2.584155
v 0.000000 -12.783118 2.670090
v -6.000000 -12.925491 2.630915
v 0.000000 -12.638848 2.701566
v -6.000000 -12.783118 2.670090
v 0.000000 -12.493096 2.725253
v -6.000000 -12.638848 2.701566
v 0.000000 -12.346283 2.741083
v -6.000000 -12.493096 2.725253
v 0.000000 -12.198832 2.749009
v -6.000000 -12.346283 2.741083
v -6.000000 -12.198832 2.749009
v -6.000000 -12.125000 2.750000
v 0.000000 -12.051168 2.749009
v 0.000000 -11.903717 2.741083
v -6.000000 -12.051168 2.749009
v 0.000000 -11.756904 2.725253
v -6.000000 -11.903717 2.741083
v 0.000000 -11.611152 2.701566
v -6.000000 -11.756904 2.725253
v 0.000000 -11.466882 2.670090
v -6.000000 -11.611152 2.701566
v 0.000000 -11.324509 2.630915
v -6.000000 -11.466882 2.670090
v 0.000000 -11.184445 2.584155
v -6.000000 -11.324509 2.630915
v 0.000000 -11.047092 2.529943
v -6.000000 -11.184445 2.584155
v 0.000000 -10.912847 2.468438
v -6.000000 -11.047092 2.529943
v 0.000000 -10.782097 2.399815
v -6.000000 -10.912847 2.468438
v 0.000000 -10.655219 2.324273
v -6.000000 -10.782097 2.399815
v 0.000000 -10.532579 2.242029
v -6.000000 -10.655219 2.324273
v 0.000000 -10.414530 2.153321
v -6.000000 -10.532579 2.242029
v 0.000000 -10.301413 2.058405
v -6.000000 -10.414530 2.153321
v 0.000000 -10.193553 1.957553
v -6.000000 -10.301413 2.058405
v 0.000000 -10.091263 1.851057
v -6.000000 -10.193553 1.957553
v 0.000000 -9.994836 1.739225
v -6.000000 -10.091263 1.851057
v 0.000000 -9.904552 1.622377
v -6.000000 -9.994836 1.739225
v 0.000000 -9.820669 1.500852
v -6.000000 -9.904552 1.622377
v 0.000000 -9.743430 1.375000
v -6.000000 -9.820669 1.500852
v 0.000000 -9.673058 1.245183
v -6.000000 -9.743430 1.375000
v 0.000000 -9.609756 1.111776
v -6.000000 -9.673058 1.245183
v 0.000000 -9.553705 0.975163
v -6.000000 -9.609756 1.111776
v 0.000000 -9.505069 0.835739
v -6.000000 -9.553705 0.975163
v 0.000000 -9.463986 0.693905
v -6.000000 -9.505069 0.835739
v 0.000000 -9.430576 0.550071
v -6.000000 -9.463986 0.693905
v 0.000000 -9.404934 0.404650
v -6.000000 -9.430576 0.550071
v 0.000000 -9.387135 0.258063
v -6.000000 -9.404934 0.404650
v 0.000000 -9.377230 0.110731
v -6.000000 -9.387135 0.258063
v 0.000000 -9.375248 -0.036919
v -6.000000 -9.377230 0.110731
v 0.000000 -9.381194 -0.184464
v -6.000000 -9.375248 -0.036919
v 0.000000 -9.395051 -0.331476
v -6.000000 -9.381194 -0.184464
v 0.000000 -9.416779 -0.477532
v -6.000000 -9.395051 -0.331476
v 0.000000 -9.446315 -0.622212
v -6.000000 -9.416779 -0.477532
v 0.000000 -9.483575 -0.765098
v -6.000000 -9.446315 -0.622212
v 0.000000 -9.528451 -0.905778
v -6.000000 -9.483575 -0.765098
v 0.000000 -9.580813 -1.043846
v -6.000000 -9.528451 -0.905778
v 0.000000 -9.640511 -1.178905
v -6.000000 -9.580813 -1.043846
v 0.000000 -9.707373 -1.310564
v -6.000000 -9.640511 -1.178905
v 0.000000 -9.781205 -1.438445
v -6.000000 -9.707373 -1.310564
v 0.000000 -9.861794 -1.562178
v -6.000000 -9.781205 -1.438445
v 0.000000 -9.948910 -1.681407
v -6.000000 -9.861794 -1.562178
v 0.000000 -10.042299 -1.795788
v -6.000000 -9.948910 -1.681407
v 0.000000 -10.141693 -1.904992
v -6.000000 -10.042299 -1.795788
v 0.000000 -10.246806 -2.008703
v -6.000000 -10.141693 -1.904992
v 0.000000 -10.357334 -2.106622
v -6.000000 -10.246806 -2.008703
v 0.000000 -10.472959 -2.198468
v -6.000000 -10.357334 -2.106622
v 0.000000 -10.593347 -2.283974
v -6.000000 -10.472959 -2.198468
v 0.000000 -10.718151 -2.362896
v -6.000000 -10.593347 -2.283974
v 0.000000 -10.847011 -2.435004
v -6.000000 -10.718151 -2.362896
v 0.000000 -10.979556 -2.500092
v -6.000000 -10.847011 -2.435004
v 0.000000 -11.115404 -2.557971
v -6.000000 -10.979556 -2.500092
v 0.000000 -11.254163 -2.608475
v -6.000000 -11.115404 -2.557971
v 0.000000 -11.395433 -2.651458
v -6.000000 -11.254163 -2.608475
v 0.000000 -11.538806 -2.686797
v -6.000000 -11.395433 -2.651458
v 0.000000 -11.683869 -2.714388
v -6.000000 -11.538806 -2.686797
v 0.000000 -11.830204 -2.734154
v -6.000000 -11.683869 -2.714388
v 0.000000 -11.977389 -2.746036
v -6.000000 -11.830204 -2.734154
v -6.000000 -11.977389 -2.746036
v -6.000000 -7.800000 20.000000
v -6.000000 -16.000000 -4.580871
v -6.000000 -16.761223 -3.808601
v -6.000000 -16.896009 -3.638334
v -6.000000 -17.736247 -2.124596
v -6.000000 -16.473616 4.133950
v -6.000000 -16.321172 4.288606
v -6.000000 -16.321172 -4.288606
v -6.000000 -16.473616 -4.133950
v -6.000000 -16.620364 -3.973878
v -6.000000 -17.472952 -2.720185
v -6.000000 -17.567885 -2.524876
v -6.000000 -17.655688 -2.326260
v -6.000000 -17.809455 -1.920149
v -6.000000 -17.875216 -1.713187
v -6.000000 -17.875216 1.713187
v -6.000000 -16.620364 3.973878
v -6.000000 -16.163231 4.437645
v -6.000000 -16.000000 4.580871
v -6.000000 -16.163231 -4.437645
v -6.000000 -17.146663 -3.283733
v -6.000000 -17.262203 -3.099862
v -6.000000 -17.371014 -2.911931
v -6.000000 -18.062226 -0.865650
v -6.000000 -18.109286 0.433962
v -6.000000 -18.027012 1.079935
v -6.000000 -17.984066 1.292805
v -6.000000 -17.933446 1.503981
v -6.000000 -7.800000 -16.789845
v -6.000000 -17.024545 -3.463302
v -6.000000 -18.027012 -1.079935
v -6.000000 -18.089662 -0.650232
v -6.000000 -18.109286 -0.433962
v -6.000000 -18.121070 -0.217123
v -6.000000 -18.121070 0.217123
v -6.000000 -18.089662 0.650232
v -6.000000 -18.062226 0.865650
v -6.000000 -17.809455 1.920149
v -6.000000 -17.567885 2.524876
v -6.000000 -17.472952 2.720185
v -6.000000 -17.262203 3.099862
v -6.000000 -17.146663 3.283733
v -6.000000 -17.933446 -1.503981
v -6.000000 -17.984066 -1.292805
v -6.000000 -18.125000 -0.000000
v -6.000000 -17.655688 2.326260
v -6.000000 -17.371014 2.911931
v -6.000000 -16.896009 3.638334
v -6.000000 -16.761223 3.808601
v -6.000000 -16.000000 -16.789845
v -6.000000 -17.736247 2.124596
v -6.000000 -17.024545 3.463302
v -6.000000 -16.000000 20.000000
v 0.000000 -16.000000 4.580871
v 0.000000 -16.000000 20.000000
v 0.000000 -16.163231 4.437645
v 0.000000 -16.321172 4.288606
v 0.000000 -16.473616 4.133950
v 0.000000 -16.620364 3.973878
v 0.000000 -16.761223 3.808601
v 0.000000 -16.896009 3.638334
v 0.000000 -17.024545 3.463302
v 0.000000 -17.146663 3.283733
v 0.000000 -17.262203 3.099862
v 0.000000 -17.371014 2.911931
v 0.000000 -17.472952 2.720185
v 0.000000 -17.567885 2.524876
v 0.000000 -17.655688 2.326260
v 0.000000 -17.736247 2.124596
v 0.000000 -17.809455 1.920149
v 0.000000 -17.875216 1.713187
v 0.000000 -17.933446 1.503981
v 0.000000 -17.984066 1.292805
v 0.000000 -18.027012 1.079935
v 0.000000 -18.062226 0.865650
v 0.000000 -18.089662 0.650232
v 0.000000 -18.109286 0.433962
v 0.000000 -18.121070 0.217123
v 0.000000 -18.125000 -0.000000
v 0.000000 -18.121070 -0.217123
v 0.000000 -18.109286 -0.433962
v 0.000000 -18.089662 -0.650232
v 0.000000 -18.062226 -0.865650
v 0.000000 -18.027012 -1.079935
v 0.000000 -17.984066 -1.292805
v 0.000000 -17.933446 -1.503981
v 0.000000 -17.875216 -1.713187
v 0.000000 -17.809455 -1.920149
v 0.000000 -17.736247 -2.124596
v 0.000000 -17.655688 -2.326260
v 0.000000 -17.567885 -2.524876
v 0.000000 -17.472952 -2.720185
v 0.000000 -17.371014 -2.911931
v 0.000000 -17.262203 -3.099862
v 0.000000 -17.146663 -3.283733
v 0.000000 -17.024545 -3.463302
v 0.000000 -16.896009 -3.638334
v 0.000000 -16.761223 -3.808601
v 0.000000 -16.620364 -3.973878
v 0.000000 -16.473616 -4.133950
v 0.000000 -16.321172 -4.288606
v 0.000000 -16.163231 -4.437645
v 0.000000 -16.000000 -4.580871
v -3.730078 -7.800000 -22.269922
v -3.730078 -16.000000 -22.269922
v -3.899507 -16.000000 -22.095085
v -3.899507 -7.800000 -22.095085
v -4.063361 -16.000000 -21.915012
v -4.063361 -7.800000 -21.915012
v -4.221478 -16.000000 -21.729881
v -4.221478 -7.800000 -21.729881
v -4.373701 -16.000000 -21.539875
v -4.373701 -7.800000 -21.539875
v -4.519882 -16.000000 -21.345181
v -4.519882 -7.800000 -21.345181
v -4.659874 -16.000000 -21.145991
v -4.659874 -7.800000 -21.145991
v -4.793541 -16.000000 -20.942503
v -4.793541 -7.800000 -20.942503
v -4.920751 -16.000000 -20.734916
v -4.920751 -7.800000 -20.734916
v -5.041377 -16.000000 -20.523436
v -5.041377 -7.800000 -20.523436
v -5.155301 -16.000000 -20.308271
v -5.155301 -7.800000 -20.308271
v -5.262410 -16.000000 -20.089634
v -5.262410 -7.800000 -20.089634
v -5.362598 -16.000000 -19.867741
v -5.362598 -7.800000 -19.867741
v -5.455768 -16.000000 -19.642810
v -5.455768 -7.800000 -19.642810
v -5.541826 -16.000000 -19.415064
v -5.541826 -7.800000 -19.415064
v -5.620688 -16.000000 -19.184727
v -5.620688 -7.800000 -19.184727
v -5.692276 -16.000000 -18.952026
v -5.692276 -7.800000 -18.952026
v -5.756519 -16.000000 -18.717192
v -5.756519 -7.800000 -18.717192
v -5.813355 -16.000000 -18.480455
v -5.813355 -7.800000 -18.480455
v -5.862726 -16.000000 -18.242050
v -5.862726 -7.800000 -18.242050
v -5.904585 -16.000000 -18.002212
v -5.904585 -7.800000 -18.002212
v -5.938889 -16.000000 -17.761177
v -5.938889 -7.800000 -17.761177
v -5.965605 -16.000000 -17.519184
v -5.965605 -7.800000 -17.519184
v -5.984707 -16.000000 -17.276471
v -5.984707 -7.800000 -17.276471
v -5.996176 -16.000000 -17.033278
v -5.996176 -7.800000 -17.033278
v 8.142136 -7.800000 -34.142136
v 8.142136 -16.000000 -34.142136
v 0.034395 -16.000000 -17.519184
v 0.061111 -16.000000 -17.761177
v 0.003824 -16.000000 -17.033278
v 0.095415 -16.000000 -18.002212
v 0.186645 -16.000000 -18.480455
v 0.307724 -16.000000 -18.952026
v 0.458174 -16.000000 -19.415064
v 0.544232 -16.000000 -19.642810
v 0.000000 -16.000000 -16.789845
v 0.015293 -16.000000 -17.276471
v 0.137274 -16.000000 -18.242050
v 0.243481 -16.000000 -18.717192
v 0.379312 -16.000000 -19.184727
v 1.079249 -16.000000 -20.734916
v 0.958623 -16.000000 -20.523436
v 0.637402 -16.000000 -19.867741
v 1.206459 -16.000000 -20.942503
v 1.480118 -16.000000 -21.345181
v 1.340126 -16.000000 -21.145991
v 1.778522 -16.000000 -21.729881
v 1.626299 -16.000000 -21.539875
v 2.100493 -16.000000 -22.095085
v 1.936639 -16.000000 -21.915012
v 0.844699 -16.000000 -20.308271
v 0.737590 -16.000000 -20.089634
v 2.269922 -16.000000 -22.269922
v 14.142136 -16.000000 -34.142136
v 14.142136 30.000000 -34.142136
v 2.269922 30.000000 -22.269922
v 0.003824 30.000000 -17.033278
v 0.000000 30.000000 -16.789845
v 0.015293 30.000000 -17.276471
v 0.034395 30.000000 -17.519184
v 0.061111 30.000000 -17.761177
v 0.095415 30.000000 -18.002212
v 0.137274 30.000000 -18.242050
v 0.186645 30.000000 -18.480455
v 0.243481 30.000000 -18.717192
v 0.307724 30.000000 -18.952026
v 0.379312 30.000000 -19.184727
v 0.458174 30.000000 -19.415064
v 0.544232 30.000000 -19.642810
v 0.637402 30.000000 -19.867741
v 0.737590 30.000000 -20.089634
v 0.844699 30.000000 -20.308271
v 0.958623 30.000000 -20.523436
v 1.079249 30.000000 -20.734916
v 1.206459 30.000000 -20.942503
v 1.340126 30.000000 -21.145991
v 1.480118 30.000000 -21.345181
v 1.626299 30.000000 -21.539875
v 1.778522 30.000000 -21.729881
v 1.936639 30.000000 -21.915012
v 2.100493 30.000000 -22.095085
v 8.142136 22.200000 -34.142136
v 8.142136 30.000000 -34.142136
v -3.730078 22.200000 -22.269922
v -3.730078 30.000000 -22.269922
v 5.969914 -7.800000 -34.019883
v 5.969914 22.200000 -34.019883
v -5.730078 -7.800000 -22.319891
v -5.730078 22.200000 -22.319891
v -7.756519 -7.800000 -18.767160
v -7.692276 -7.800000 -19.001995
v -7.965605 -7.800000 -17.569153
v -7.938889 -7.800000 -17.811146
v -7.904585 -7.800000 -18.052181
v -7.862726 -7.800000 -18.292019
v -7.813355 -7.800000 -18.530424
v -7.620688 -7.800000 -19.234695
v -7.541826 -7.800000 -19.465033
v -7.455768 -7.800000 -19.692779
v -7.362598 -7.800000 -19.917710
v -7.262410 -7.800000 -20.139603
v -7.155301 -7.800000 -20.358240
v -7.041377 -7.800000 -20.573405
v -7.984707 -7.800000 -17.326440
v -6.793541 -7.800000 -20.992471
v -6.659874 -7.800000 -21.195960
v -8.000000 -7.800000 20.000000
v -8.000000 -7.800000 -16.839814
v -7.996176 -7.800000 -17.083247
v -6.920751 -7.800000 -20.784885
v -6.519882 -7.800000 -21.395149
v -6.373701 -7.800000 -21.589843
v -5.899507 -7.800000 -22.145054
v -6.221478 -7.800000 -21.779850
v -6.063361 -7.800000 -21.964981
v -8.000000 22.200000 20.000000
v -8.000000 22.200000 -16.839814
v -5.899507 22.200000 -22.145054
v -6.063361 22.200000 -21.964981
v -6.221478 22.200000 -21.779850
v -6.373701 22.200000 -21.589843
v -6.519882 22.200000 -21.395149
v -6.659874 22.200000 -21.195960
v -6.793541 22.200000 -20.992471
v -6.920751 22.200000 -20.784885
v -7.041377 22.200000 -20.573405
v -7.155301 22.200000 -20.358240
v -7.262410 22.200000 -20.139603
v -7.362598 22.200000 -19.917710
v -7.455768 22.200000 -19.692779
v -7.541826 22.200000 -19.465033
v -7.620688 22.200000 -19.234695
v -7.692276 22.200000 -19.001995
v -7.756519 22.200000 -18.767160
v -7.813355 22.200000 -18.530424
v -7.862726 22.200000 -18.292019
v -7.904585 22.200000 -18.052181
v -7.938889 22.200000 -17.811146
v -7.965605 22.200000 -17.569153
v -7.984707 22.200000 -17.326440
v -7.996176 22.200000 -17.083247
v -5.862726 22.200000 -18.242050
v -5.813355 22.200000 -18.480455
v -5.996176 22.200000 -17.033278
v -6.000000 22.200000 20.000000
v -6.000000 22.200000 -16.789845
v -5.455768 22.200000 -19.642810
v -5.362598 22.200000 -19.867741
v -5.541826 22.200000 -19.415064
v -5.620688 22.200000 -19.184727
v -5.692276 22.200000 -18.952026
v -5.756519 22.200000 -18.717192
v -5.938889 22.200000 -17.761177
v -5.904585 22.200000 -18.002212
v -5.965605 22.200000 -17.519184
v -5.984707 22.200000 -17.276471
v -5.262410 22.200000 -20.089634
v -5.155301 22.200000 -20.308271
v -4.659874 22.200000 -21.145991
v -4.519882 22.200000 -21.345181
v -5.041377 22.200000 -20.523436
v -4.920751 22.200000 -20.734916
v -4.221478 22.200000 -21.729881
v -4.063361 22.200000 -21.915012
v -4.373701 22.200000 -21.539875
v -4.793541 22.200000 -20.942503
v -3.899507 22.200000 -22.095085
v -3.899507 30.000000 -22.095085
v -4.063361 30.000000 -21.915012
v -4.221478 30.000000 -21.729881
v -4.373701 30.000000 -21.539875
v -4.519882 30.000000 -21.345181
v -4.659874 30.000000 -21.145991
v -4.793541 30.000000 -20.942503
v -4.920751 30.000000 -20.734916
v -5.041377 30.000000 -20.523436
v -5.155301 30.000000 -20.308271
v -5.262410 30.000000 -20.089634
v -5.362598 30.000000 -19.867741
v -5.455768 30.000000 -19.642810
v -5.541826 30.000000 -19.415064
v -5.620688 30.000000 -19.184727
v -5.692276 30.000000 -18.952026
v -5.756519 30.000000 -18.717192
v -5.813355 30.000000 -18.480455
v -5.862726 30.000000 -18.242050
v -5.904585 30.000000 -18.002212
v -5.938889 30.000000 -17.761177
v -5.965605 30.000000 -17.519184
v -5.984707 30.000000 -17.276471
v -5.996176 30.000000 -17.033278
v -6.000000 30.000000 -16.789845
v 0.000000 30.000000 20.000000
v -6.000000 30.000000 20.000000
v 0.000000 30.000000 -4.580871
v -6.000000 30.000000 -4.580871
v 0.000000 30.000000 4.580871
v -6.000000 30.000000 4.580871
v -6.000000 30.163231 -4.437645
v 0.000000 30.163231 -4.437645
v -6.000000 30.321172 -4.288606
v 0.000000 30.321172 -4.288606
v -6.000000 30.473616 -4.133950
v 0.000000 30.473616 -4.133950
v -6.000000 30.620364 -3.973878
v 0.000000 30.620364 -3.973878
v -6.000000 30.761223 -3.808601
v 0.000000 30.761223 -3.808601
v -6.000000 30.896009 -3.638334
v 0.000000 30.896009 -3.638334
v -6.000000 31.024545 -3.463302
v 0.000000 31.024545 -3.463302
v -6.000000 31.146663 -3.283733
v 0.000000 31.146663 -3.283733
v -6.000000 31.262203 -3.099862
v 0.000000 31.262203 -3.099862
v -6.000000 31.371014 -2.911931
v 0.000000 31.371014 -2.911931
v -6.000000 31.472952 -2.720185
v 0.000000 31.472952 -2.720185
v -6.000000 31.567885 -2.524876
v 0.000000 31.567885 -2.524876
v -6.000000 31.655688 -2.326260
v 0.000000 31.655688 -2.326260
v -6.000000 31.736247 -2.124596
v 0.000000 31.736247 -2.124596
v -6.000000 31.809455 -1.920149
v 0.000000 31.809455 -1.920149
v -6.000000 31.875216 -1.713187
v 0.000000 31.875216 -1.713187
v -6.000000 31.933446 -1.503981
v 0.000000 31.933446 -1.503981
v -6.000000 31.984066 -1.292805
v 0.000000 31.984066 -1.292805
v -6.000000 32.027012 -1.079935
v 0.000000 32.027012 -1.079935
v -6.000000 32.062226 -0.865650
v 0.000000 32.062226 -0.865650
v -6.000000 32.089662 -0.650232
v 0.000000 32.089662 -0.650232
v -6.000000 32.109286 -0.433962
v 0.000000 32.109286 -0.433962
v -6.000000 32.121070 -0.217123
v 0.000000 32.121070 -0.217123
v -6.000000 32.125000 -0.000000
v 0.000000 32.125000 -0.000000
v -6.000000 32.121070 0.217123
v 0.000000 32.121070 0.217123
v -6.000000 32.109286 0.433962
v 0.000000 32.109286 0.433962
v -6.000000 32.089662 0.650232
v 0.000000 32.089662 0.650232
v -6.000000 32.062226 0.865650
v 0.000000 32.062226 0.865650
v -6.000000 32.027012 1.079935
v 0.000000 32.027012 1.079935
v -6.000000 31.984066 1.292805
v 0.000000 31.984066 1.292805
v -6.000000 31.933446 1.503981
v 0.000000 31.933446 1.503981
v -6.000000 31.875216 1.713187
v 0.000000 31.875216 1.713187
v -6.000000 31.809455 1.920149
v 0.000000 31.809455 1.920149
v -6.000000 31.736247 2.124596
v 0.000000 31.736247 2.124596
v -6.000000 31.655688 2.326260
v 0.000000 31.655688 2.326260
v -6.000000 31.567885 2.524876
v 0.000000 31.567885 2.524876
v -6.000000 31.472952 2.720185
v 0.000000 31.472952 2.720185
v -6.000000 31.371014 2.911931
v 0.000000 31.371014 2.911931
v -6.000000 31.262203 3.099862
v 0.000000 31.262203 3.099862
v -6.000000 31.146663 3.283733
v 0.000000 31.146663 3.283733
v -6.000000 31.024545 3.463302
v 0.000000 31.024545 3.463302
v -6.000000 30.896009 3.638334
v 0.000000 30.896009 3.638334
v -6.000000 30.761223 3.808601
v 0.000000 30.761223 3.808601
v -6.000000 30.620364 3.973878
v 0.000000 30.620364 3.973878
v -6.000000 30.473616 4.133950
v 0.000000 30.473616 4.133950
v -6.000000 30.321172 4.288606
v 0.000000 30.321172 4.288606
v -6.000000 30.163231 4.437645
v 0.000000 30.163231 4.437645
v 0.000000 23.404934 0.404650
v 0.000000 28.819424 0.550071
v 0.000000 23.395051 -0.331476
v 0.000000 23.381194 -0.184464
v 0.000000 23.375248 -0.036919
v 0.000000 23.375000 -0.000000
v 0.000000 23.377230 0.110731
v 0.000000 23.387135 0.258063
v 0.000000 24.042299 -1.795788
v 0.000000 23.948910 -1.681407
v 0.000000 26.493096 2.725253
v 0.000000 26.638848 2.701566
v 0.000000 25.903717 2.741083
v 0.000000 26.051168 2.749009
v 0.000000 23.505069 0.835739
v 0.000000 23.553705 0.975163
v 0.000000 23.430576 0.550071
v 0.000000 23.463986 0.693905
v 0.000000 23.446315 -0.622212
v 0.000000 23.416779 -0.477532
v 0.000000 23.861794 -1.562178
v 0.000000 23.781205 -1.438445
v 0.000000 24.246806 -2.008703
v 0.000000 24.141693 -1.904992
v 0.000000 24.979556 -2.500092
v 0.000000 25.683869 -2.714388
v 0.000000 25.538806 -2.686797
v 0.000000 26.346283 2.741083
v 0.000000 25.756904 2.725253
v 0.000000 25.466882 2.670090
v 0.000000 25.611152 2.701566
v 0.000000 23.707373 -1.310564
v 0.000000 24.593347 -2.283974
v 0.000000 24.472959 -2.198468
v 0.000000 24.847011 -2.435004
v 0.000000 24.718151 -2.362896
v 0.000000 25.115404 -2.557971
v 0.000000 25.830204 -2.734154
v 0.000000 28.786014 0.693905
v 0.000000 28.744931 0.835739
v 0.000000 28.056447 1.957553
v 0.000000 27.835470 2.153321
v 0.000000 27.948587 2.058405
v 0.000000 27.594781 2.324273
v 0.000000 27.717421 2.242029
v 0.000000 27.202908 2.529943
v 0.000000 27.337153 2.468438
v 0.000000 26.783118 2.670090
v 0.000000 26.925491 2.630915
v 0.000000 26.198832 2.749009
v 0.000000 27.402989 -2.435004
v 0.000000 23.743430 1.375000
v 0.000000 23.820669 1.500852
v 0.000000 23.609756 1.111776
v 0.000000 23.673058 1.245183
v 0.000000 23.528451 -0.905778
v 0.000000 23.483575 -0.765098
v 0.000000 24.357334 -2.106622
v 0.000000 25.395433 -2.651458
v 0.000000 25.254163 -2.608475
v 0.000000 25.977389 -2.746036
v 0.000000 28.429331 1.500852
v 0.000000 28.255164 1.739225
v 0.000000 28.158737 1.851057
v 0.000000 27.467903 2.399815
v 0.000000 27.065555 2.584155
v 0.000000 25.184445 2.584155
v 0.000000 25.324509 2.630915
v 0.000000 27.656653 -2.283974
v 0.000000 27.531849 -2.362896
v 0.000000 28.766425 -0.765098
v 0.000000 28.721549 -0.905778
v 0.000000 24.912847 2.468438
v 0.000000 24.193553 1.957553
v 0.000000 24.301413 2.058405
v 0.000000 23.994836 1.739225
v 0.000000 24.091263 1.851057
v 0.000000 23.904552 1.622377
v 0.000000 23.640511 -1.178905
v 0.000000 23.580813 -1.043846
v 0.000000 26.125000 -2.750000
v 0.000000 28.696295 0.975163
v 0.000000 28.576942 1.245183
v 0.000000 28.506570 1.375000
v 0.000000 28.345448 1.622377
v 0.000000 25.047092 2.529943
v 0.000000 26.711194 -2.686797
v 0.000000 26.566131 -2.714388
v 0.000000 27.134596 -2.557971
v 0.000000 26.995837 -2.608475
v 0.000000 28.388206 -1.562178
v 0.000000 28.301090 -1.681407
v 0.000000 28.542627 -1.310564
v 0.000000 28.468795 -1.438445
v 0.000000 28.803685 -0.622212
v 0.000000 28.854949 -0.331476
v 0.000000 28.833221 -0.477532
v 0.000000 24.655219 2.324273
v 0.000000 24.782097 2.399815
v 0.000000 24.414530 2.153321
v 0.000000 24.532579 2.242029
v 0.000000 28.640244 1.111776
v 0.000000 26.419796 -2.734154
v 0.000000 26.272611 -2.746036
v 0.000000 26.854567 -2.651458
v 0.000000 27.270444 -2.500092
v 0.000000 27.777041 -2.198468
v 0.000000 28.207701 -1.795788
v 0.000000 28.108307 -1.904992
v 0.000000 28.669187 -1.043846
v 0.000000 28.609489 -1.178905
v 0.000000 28.003194 -2.008703
v 0.000000 27.892666 -2.106622
v 0.000000 28.874752 -0.036919
v 0.000000 28.868806 -0.184464
v 0.000000 28.845066 0.404650
v 0.000000 28.862865 0.258063
v 0.000000 28.872770 0.110731
v -6.000000 28.803685 -0.622212
v -6.000000 23.948910 -1.681407
v -6.000000 24.042299 -1.795788
v -6.000000 23.781205 -1.438445
v -6.000000 23.861794 -1.562178
v -6.000000 26.125000 2.750000
v -6.000000 27.337153 2.468438
v -6.000000 23.505069 0.835739
v -6.000000 23.463986 0.693905
v -6.000000 23.609756 1.111776
v -6.000000 23.553705 0.975163
v -6.000000 25.756904 2.725253
v -6.000000 25.611152 2.701566
v -6.000000 26.051168 2.749009
v -6.000000 27.467903 2.399815
v -6.000000 25.977389 -2.746036
v -6.000000 25.395433 -2.651458
v -6.000000 25.538806 -2.686797
v -6.000000 25.115404 -2.557971
v -6.000000 25.254163 -2.608475
v -6.000000 24.847011 -2.435004
v -6.000000 24.979556 -2.500092
v -6.000000 24.246806 -2.008703
v -6.000000 24.357334 -2.106622
v -6.000000 24.141693 -1.904992
v -6.000000 23.640511 -1.178905
v -6.000000 23.707373 -1.310564
v -6.000000 25.466882 2.670090
v -6.000000 25.903717 2.741083
v -6.000000 28.766425 -0.765098
v -6.000000 28.669187 -1.043846
v -6.000000 28.388206 -1.562178
v -6.000000 28.468795 -1.438445
v -6.000000 28.207701 -1.795788
v -6.000000 28.301090 -1.681407
v -6.000000 27.402989 -2.435004
v -6.000000 27.531849 -2.362896
v -6.000000 26.783118 2.670090
v -6.000000 26.638848 2.701566
v -6.000000 27.594781 2.324273
v -6.000000 27.835470 2.153321
v -6.000000 27.717421 2.242029
v -6.000000 28.819424 0.550071
v -6.000000 28.786014 0.693905
v -6.000000 25.830204 -2.734154
v -6.000000 25.683869 -2.714388
v -6.000000 24.593347 -2.283974
v -6.000000 24.718151 -2.362896
v -6.000000 24.472959 -2.198468
v -6.000000 23.387135 0.258063
v -6.000000 23.377230 0.110731
v -6.000000 23.430576 0.550071
v -6.000000 23.743430 1.375000
v -6.000000 23.673058 1.245183
v -6.000000 23.994836 1.739225
v -6.000000 23.904552 1.622377
v -6.000000 24.193553 1.957553
v -6.000000 24.091263 1.851057
v -6.000000 24.414530 2.153321
v -6.000000 24.301413 2.058405
v -6.000000 24.912847 2.468438
v -6.000000 24.782097 2.399815
v -6.000000 25.184445 2.584155
v -6.000000 25.047092 2.529943
v -6.000000 28.721549 -0.905778
v -6.000000 28.542627 -1.310564
v -6.000000 28.609489 -1.178905
v -6.000000 28.003194 -2.008703
v -6.000000 28.108307 -1.904992
v -6.000000 27.270444 -2.500092
v -6.000000 26.854567 -2.651458
v -6.000000 26.995837 -2.608475
v -6.000000 26.419796 -2.734154
v -6.000000 26.566131 -2.714388
v -6.000000 26.125000 -2.750000
v -6.000000 26.272611 -2.746036
v -6.000000 26.346283 2.741083
v -6.000000 26.198832 2.749009
v -6.000000 26.493096 2.725253
v -6.000000 27.065555 2.584155
v -6.000000 26.925491 2.630915
v -6.000000 28.576942 1.245183
v -6.000000 28.506570 1.375000
v -6.000000 28.744931 0.835739
v -6.000000 23.528451 -0.905778
v -6.000000 23.580813 -1.043846
v -6.000000 23.395051 -0.331476
v -6.000000 23.416779 -0.477532
v -6.000000 23.375248 -0.036919
v -6.000000 23.381194 -0.184464
v -6.000000 23.404934 0.404650
v -6.000000 23.820669 1.500852
v -6.000000 24.655219 2.324273
v -6.000000 24.532579 2.242029
v -6.000000 25.324509 2.630915
v -6.000000 27.656653 -2.283974
v -6.000000 27.134596 -2.557971
v -6.000000 26.711194 -2.686797
v -6.000000 27.202908 2.529943
v -6.000000 27.948587 2.058405
v -6.000000 28.158737 1.851057
v -6.000000 28.056447 1.957553
v -6.000000 28.640244 1.111776
v -6.000000 28.696295 0.975163
v -6.000000 23.446315 -0.622212
v -6.000000 23.483575 -0.765098
v -6.000000 27.892666 -2.106622
v -6.000000 28.345448 1.622377
v -6.000000 28.255164 1.739225
v -6.000000 28.874752 -0.036919
v -6.000000 28.872770 0.110731
v -6.000000 27.777041 -2.198468
v -6.000000 28.429331 1.500852
v -6.000000 28.845066 0.404650
v -6.000000 28.862865 0.258063
v -6.000000 28.833221 -0.477532
v -6.000000 28.854949 -0.331476
v -6.000000 28.868806 -0.184464
usemtl pritiskivac_tockicaMaterial0
f 1 2 3
f 4 1 5
f 6 4 7
f 8 6 9
f 10 8 11
f 12 10 13
f 14 12 15
f 16 14 17
f 18 16 19
f 20 18 21
f 22 20 23
f 24 22 25
f 26 24 27
f 28 26 29
f 30 28 31
f 32 30 33
f 34 32 35
f 36 34 37
f 38 36 39
f 40 38 41
f 42 40 43
f 44 42 45
f 46 44 47
f 48 46 49
f 50 48 51
f 52 50 53
f 54 52 55
f 56 54 57
f 58 56 59
f 60 61 62
f 62 63 60
f 64 61 60
f 65 64 66
f 67 65 68
f 69 67 70
f 71 69 72
f 73 71 74
f 75 73 76
f 77 75 78
f 79 77 80
f 81 79 82
f 83 81 84
f 85 83 86
f 87 85 88
f 89 87 90
f 91 89 92
f 93 91 94
f 95 93 96
f 97 95 98
f 99 97 100
f 101 99 102
f 103 101 104
f 105 103 106
f 107 105 108
f 109 107 110
f 111 109 112
f 113 111 114
f 115 113 116
f 117 115 118
f 117 119 120
f 120 121 117
f 122 121 123
f 124 122 125
f 126 124 127
f 128 126 129
f 130 128 131
f 132 130 133
f 134 132 135
f 136 134 137
f 138 136 139
f 140 138 141
f 142 140 143
f 144 142 145
f 146 144 147
f 148 146 149
f 150 148 151
f 152 150 153
f 154 152 155
f 156 154 157
f 158 156 159
f 160 158 161
f 162 160 163
f 164 162 165
f 166 164 167
f 168 166 169
f 170 168 171
f 172 170 173
f 174 172 175
f 176 174 177
f 178 176 179
f 180 178 181
f 182 180 183
f 184 182 185
f 186 184 187
f 188 186 189
f 190 188 191
f 192 190 193
f 194 192 195
f 196 194 197
f 198 196 199
f 200 198 201
f 202 200 203
f 204 202 205
f 206 204 207
f 208 206 209
f 210 208 211
f 212 210 213
f 214 212 215
f 216 214 217
f 218 216 219
f 220 218 221
f 222 220 223
f 224 222 225
f 226 224 227
f 228 226 229
f 230 228 231
f 232 230 233
f 234 232 235
f 2 234 236
f 236 3 2
f 235 236 234
f 233 235 232
f 231 233 230
f 229 231 228
f 227 229 226
f 225 227 224
f 223 225 222
f 221 223 220
f 219 221 218
f 217 219 216
f 215 217 214
f 213 215 212
f 211 213 210
f 209 211 208
f 207 209 206
f 205 207 204
f 203 205 202
f 201 203 200
f 199 201 198
f 197 199 196
f 195 197 194
f 193 195 192
f 191 193 190
f 189 191 188
f 187 189 186
f 185 187 184
f 183 185 182
f 181 183 180
f 179 181 178
f 177 179 176
f 175 177 174
f 173 175 172
f 171 173 170
f 169 171 168
f 167 169 166
f 165 167 164
f 163 165 162
f 161 163 160
f 159 161 158
f 157 159 156
f 155 157 154
f 153 155 152
f 151 153 150
f 149 151 148
f 147 149 146
f 145 147 144
f 143 145 142
f 141 143 140
f 139 141 138
f 137 139 136
f 135 137 134
f 133 135 132
f 131 133 130
f 129 131 128
f 127 129 126
f 125 127 124
f 123 125 122
f 120 123 121
f 118 119 117
f 116 118 115
f 114 116 113
f 112 114 111
f 110 112 109
f 108 110 107
f 106 108 105
f 104 106 103
f 102 104 101
f 100 102 99
f 98 100 97
f 96 98 95
f 94 96 93
f 92 94 91
f 90 92 89
f 88 90 87
f 86 88 85
f 84 86 83
f 82 84 81
f 80 82 79
f 78 80 77
f 76 78 75
f 74 76 73
f 72 74 71
f 70 72 69
f 68 70 67
f 66 68 65
f 60 66 64
f 62 58 63
f 59 63 58
f 57 59 56
f 55 57 54
f 53 55 52
f 51 53 50
f 49 51 48
f 47 49 46
f 45 47 44
f 43 45 42
f 41 43 40
f 39 41 38
f 37 39 36
f 35 37 34
f 33 35 32
f 31 33 30
f 29 31 28
f 27 29 26
f 25 27 24
f 23 25 22
f 21 23 20
f 19 21 18
f 17 19 16
f 15 17 14
f 13 15 12
f 11 13 10
f 9 11 8
f 7 9 6
f 5 7 4
f 3 5 1
f 237 123 120
f 237 135 133
f 238 17 15
f 237 125 123
f 237 129 127
f 133 131 237
f 238 7 5
f 15 13 238
f 239 240 37
f 241 49 47
f 242 243 92
f 127 125 237
f 237 137 135
f 237 141 139
f 237 145 143
f 237 161 159
f 238 9 7
f 13 11 238
f 238 27 25
f 244 245 33
f 246 35 33
f 35 246 239
f 247 248 45
f 47 249 241
f 250 251 51
f 252 74 72
f 90 253 242
f 254 94 92
f 255 96 94
f 131 129 237
f 143 141 237
f 159 157 237
f 11 9 238
f 238 21 19
f 25 23 238
f 256 31 29
f 31 256 244
f 37 35 239
f 257 258 41
f 259 43 41
f 43 259 247
f 249 47 45
f 51 49 250
f 260 57 55
f 261 66 60
f 262 70 68
f 263 264 72
f 72 264 252
f 92 243 254
f 255 98 96
f 255 102 100
f 255 106 104
f 139 137 237
f 237 149 147
f 237 153 151
f 157 155 237
f 265 217 215
f 5 3 238
f 23 21 238
f 29 238 256
f 33 245 246
f 266 39 37
f 39 266 257
f 45 43 247
f 241 250 49
f 55 267 260
f 268 269 59
f 270 63 59
f 60 271 261
f 272 273 68
f 68 273 262
f 252 274 74
f 275 276 80
f 277 278 84
f 94 254 255
f 104 102 255
f 255 110 108
f 147 145 237
f 155 153 237
f 237 167 165
f 265 201 199
f 265 205 203
f 265 213 211
f 265 219 217
f 19 17 238
f 33 31 244
f 41 39 257
f 45 248 249
f 279 53 51
f 280 267 55
f 59 57 268
f 59 269 270
f 281 271 60
f 68 66 272
f 72 70 263
f 282 78 76
f 78 282 275
f 283 82 80
f 82 283 277
f 284 285 88
f 100 98 255
f 255 112 110
f 255 118 116
f 151 149 237
f 165 163 237
f 237 173 171
f 237 179 177
f 265 197 195
f 203 201 265
f 265 209 207
f 215 213 265
f 265 223 221
f 265 233 231
f 265 286 238
f 29 27 238
f 41 258 259
f 51 251 279
f 260 268 57
f 60 63 281
f 262 263 70
f 274 287 76
f 80 78 275
f 84 82 277
f 288 86 84
f 86 288 284
f 253 90 88
f 108 106 255
f 116 114 255
f 163 161 237
f 171 169 237
f 177 175 237
f 175 173 237
f 237 183 181
f 265 193 191
f 199 197 265
f 211 209 265
f 265 225 223
f 265 229 227
f 265 235 233
f 238 236 265
f 37 240 266
f 55 53 280
f 261 272 66
f 76 287 282
f 84 278 288
f 88 285 253
f 114 112 255
f 255 120 119
f 169 167 237
f 181 179 237
f 265 185 183
f 191 189 265
f 189 187 265
f 207 205 265
f 227 225 265
f 236 235 265
f 279 280 53
f 76 74 274
f 88 86 284
f 119 118 255
f 120 289 237
f 265 187 185
f 183 237 265
f 195 193 265
f 231 229 265
f 270 281 63
f 92 90 242
f 221 219 265
f 80 276 283
f 3 236 238
f 255 289 120
f 289 255 290
f 290 291 289
f 290 255 254
f 292 254 243
f 293 243 242
f 294 242 253
f 295 253 285
f 296 285 284
f 297 284 288
f 298 288 278
f 299 278 277
f 300 277 283
f 301 283 276
f 302 276 275
f 303 275 282
f 304 282 287
f 305 287 274
f 306 274 252
f 307 252 264
f 308 264 263
f 309 263 262
f 310 262 273
f 311 273 272
f 312 272 261
f 313 261 271
f 314 271 281
f 315 281 270
f 316 270 269
f 317 269 268
f 318 268 260
f 319 260 267
f 320 267 280
f 321 280 279
f 322 279 251
f 323 251 250
f 324 250 241
f 325 241 249
f 326 249 248
f 327 248 247
f 328 247 259
f 329 259 258
f 330 258 257
f 331 257 266
f 332 266 240
f 333 240 239
f 334 239 246
f 335 246 245
f 336 245 244
f 337 244 256
f 338 256 238
f 238 339 338
f 256 338 337
f 244 337 336
f 245 336 335
f 246 335 334
f 239 334 333
f 240 333 332
f 266 332 331
f 257 331 330
f 258 330 329
f 259 329 328
f 247 328 327
f 248 327 326
f 249 326 325
f 241 325 324
f 250 324 323
f 251 323 322
f 279 322 321
f 280 321 320
f 267 320 319
f 260 319 318
f 268 318 317
f 269 317 316
f 270 316 315
f 281 315 314
f 271 314 313
f 261 313 312
f 272 312 311
f 273 311 310
f 262 310 309
f 263 309 308
f 264 308 307
f 252 307 306
f 274 306 305
f 287 305 304
f 282 304 303
f 275 303 302
f 276 302 301
f 283 301 300
f 277 300 299
f 278 299 298
f 288 298 297
f 284 297 296
f 285 296 295
f 253 295 294
f 242 294 293
f 243 293 292
f 254 292 290
f 340 341 342
f 343 342 344
f 345 344 346
f 347 346 348
f 349 348 350
f 351 350 352
f 353 352 354
f 355 354 356
f 357 356 358
f 359 358 360
f 361 360 362
f 363 362 364
f 365 364 366
f 367 366 368
f 369 368 370
f 371 370 372
f 373 372 374
f 375 374 376
f 377 376 378
f 379 378 380
f 381 380 382
f 383 382 384
f 385 384 386
f 387 386 388
f 389 388 286
f 286 265 389
f 388 389 387
f 386 387 385
f 384 385 383
f 382 383 381
f 380 381 379
f 378 379 377
f 376 377 375
f 374 375 373
f 372 373 371
f 370 371 369
f 368 369 367
f 366 367 365
f 364 365 363
f 362 363 361
f 360 361 359
f 358 359 357
f 356 357 355
f 354 355 353
f 352 353 351
f 350 351 349
f 348 349 347
f 346 347 345
f 344 345 343
f 342 343 340
f 341 340 390
f 390 391 341
f 392 378 376
f 393 374 372
f 388 386 394
f 392 380 378
f 393 376 374
f 395 370 368
f 396 364 362
f 397 356 354
f 398 350 348
f 399 346 344
f 238 286 400
f 400 286 388
f 384 382 401
f 372 395 393
f 395 372 370
f 402 368 366
f 396 366 364
f 403 360 358
f 397 358 356
f 404 354 352
f 398 352 350
f 399 348 346
f 341 405 406
f 394 400 388
f 394 386 384
f 401 382 380
f 368 402 395
f 362 403 396
f 403 362 360
f 352 398 404
f 344 407 399
f 407 342 341
f 341 408 405
f 341 409 410
f 341 411 412
f 341 413 414
f 401 394 384
f 376 393 392
f 358 397 403
f 348 399 398
f 407 344 342
f 410 408 341
f 414 411 341
f 380 392 401
f 354 404 397
f 341 415 416
f 412 409 341
f 366 396 402
f 406 415 341
f 417 341 391
f 341 416 407
f 391 418 417
f 417 413 341
f 400 339 238
f 418 419 420
f 420 417 418
f 421 422 400
f 423 421 394
f 424 423 401
f 425 424 392
f 426 425 393
f 427 426 395
f 428 427 402
f 429 428 396
f 430 429 403
f 431 430 397
f 432 431 404
f 433 432 398
f 434 433 399
f 435 434 407
f 436 435 416
f 437 436 415
f 438 437 406
f 439 438 405
f 440 439 408
f 441 440 410
f 442 441 409
f 443 442 412
f 444 443 411
f 445 444 414
f 420 445 413
f 413 417 420
f 414 413 445
f 411 414 444
f 412 411 443
f 409 412 442
f 410 409 441
f 408 410 440
f 405 408 439
f 406 405 438
f 415 406 437
f 416 415 436
f 407 416 435
f 399 407 434
f 398 399 433
f 404 398 432
f 397 404 431
f 403 397 430
f 396 403 429
f 402 396 428
f 395 402 427
f 393 395 426
f 392 393 425
f 401 392 424
f 394 401 423
f 400 394 421
f 419 418 390
f 390 446 419
f 418 391 390
f 446 447 419
f 447 446 448
f 448 449 447
f 390 450 451
f 451 446 390
f 451 450 452
f 452 453 451
f 454 455 377
f 456 457 385
f 457 458 383
f 383 458 459
f 379 460 454
f 455 461 375
f 375 461 462
f 373 462 463
f 464 465 369
f 369 465 466
f 367 466 467
f 468 387 389
f 387 468 456
f 459 381 383
f 381 459 460
f 375 377 455
f 463 371 373
f 371 463 464
f 467 365 367
f 385 387 456
f 460 379 381
f 462 373 375
f 466 367 369
f 469 470 361
f 471 472 265
f 472 473 389
f 383 385 457
f 369 371 464
f 365 467 474
f 363 474 469
f 361 470 475
f 359 475 476
f 389 265 472
f 377 379 454
f 361 363 469
f 476 357 359
f 353 477 452
f 389 473 468
f 475 359 361
f 357 476 478
f 355 478 479
f 353 479 477
f 452 343 345
f 474 363 365
f 479 353 355
f 452 349 351
f 345 347 452
f 478 355 357
f 347 349 452
f 340 452 450
f 452 351 353
f 450 390 340
f 340 343 452
f 265 237 471
f 471 480 481
f 481 472 471
f 453 452 477
f 482 477 479
f 483 479 478
f 484 478 476
f 485 476 475
f 486 475 470
f 487 470 469
f 488 469 474
f 489 474 467
f 490 467 466
f 491 466 465
f 492 465 464
f 493 464 463
f 494 463 462
f 495 462 461
f 496 461 455
f 497 455 454
f 498 454 460
f 499 460 459
f 500 459 458
f 501 458 457
f 502 457 456
f 503 456 468
f 504 468 473
f 505 473 472
f 472 481 505
f 473 505 504
f 468 504 503
f 456 503 502
f 457 502 501
f 458 501 500
f 459 500 499
f 460 499 498
f 454 498 497
f 455 497 496
f 461 496 495
f 462 495 494
f 463 494 493
f 464 493 492
f 465 492 491
f 466 491 490
f 467 490 489
f 474 489 488
f 469 488 487
f 470 487 486
f 475 486 485
f 476 485 484
f 478 484 483
f 479 483 482
f 477 482 453
f 498 506 507
f 508 505 481
f 480 509 510
f 511 512 490
f 513 511 491
f 493 514 513
f 515 514 494
f 516 515 495
f 497 507 516
f 507 497 498
f 517 518 500
f 502 519 517
f 503 520 519
f 504 505 508
f 510 481 480
f 488 521 522
f 491 492 513
f 513 492 493
f 495 496 516
f 498 499 506
f 518 506 499
f 517 501 502
f 519 502 503
f 481 510 508
f 523 524 453
f 525 526 485
f 522 525 486
f 522 487 488
f 512 521 489
f 493 494 514
f 516 496 497
f 500 501 517
f 508 520 504
f 453 527 528
f 453 482 523
f 486 487 522
f 489 490 512
f 494 495 515
f 503 504 520
f 448 446 451
f 453 529 527
f 482 483 523
f 530 523 483
f 526 530 484
f 488 489 521
f 499 500 518
f 453 531 448
f 524 529 453
f 484 485 526
f 490 491 511
f 528 531 453
f 485 486 525
f 483 484 530
f 451 453 448
f 449 448 531
f 532 531 528
f 533 528 527
f 534 527 529
f 535 529 524
f 536 524 523
f 537 523 530
f 538 530 526
f 539 526 525
f 540 525 522
f 541 522 521
f 542 521 512
f 543 512 511
f 544 511 513
f 545 513 514
f 546 514 515
f 547 515 516
f 548 516 507
f 549 507 506
f 550 506 518
f 551 518 517
f 552 517 519
f 553 519 520
f 554 520 508
f 555 508 510
f 510 556 555
f 508 555 554
f 520 554 553
f 519 553 552
f 517 552 551
f 518 551 550
f 506 550 549
f 507 549 548
f 516 548 547
f 515 547 546
f 514 546 545
f 513 545 544
f 511 544 543
f 512 543 542
f 521 542 541
f 522 541 540
f 525 540 539
f 526 539 538
f 530 538 537
f 523 537 536
f 524 536 535
f 529 535 534
f 527 534 533
f 528 533 532
f 531 532 449
f 291 509 237
f 471 237 509
f 509 480 471
f 557 558 509
f 509 291 557
f 237 289 291
f 425 426 547
f 424 425 549
f 447 449 420
f 433 434 533
f 432 433 535
f 430 431 538
f 429 430 540
f 428 429 542
f 426 427 545
f 547 548 425
f 549 550 424
f 555 422 421
f 449 445 420
f 449 443 444
f 449 440 441
f 533 534 433
f 535 536 432
f 538 539 430
f 540 541 429
f 542 543 428
f 427 428 544
f 545 546 426
f 550 551 424
f 553 421 423
f 421 554 555
f 559 422 556
f 444 445 449
f 441 442 449
f 449 438 439
f 449 436 437
f 434 435 449
f 536 537 432
f 431 432 537
f 541 542 429
f 544 545 427
f 548 549 425
f 423 424 551
f 423 552 553
f 556 560 559
f 442 443 449
f 437 438 449
f 449 532 434
f 537 538 431
f 543 544 428
f 551 552 423
f 555 556 422
f 439 440 449
f 532 533 434
f 539 540 430
f 553 554 421
f 435 436 449
f 546 547 426
f 534 535 433
f 420 419 447
f 557 561 562
f 562 558 557
f 559 560 563
f 564 563 565
f 566 565 567
f 568 567 569
f 570 569 571
f 572 571 573
f 574 573 575
f 576 575 577
f 578 577 579
f 580 579 581
f 582 581 583
f 584 583 585
f 586 585 587
f 588 587 589
f 590 589 591
f 592 591 593
f 594 593 595
f 596 595 597
f 598 597 599
f 600 599 601
f 602 601 603
f 604 603 605
f 606 605 607
f 608 607 609
f 610 609 611
f 612 611 613
f 614 613 615
f 616 615 617
f 618 617 619
f 620 619 621
f 622 621 623
f 624 623 625
f 626 625 627
f 628 627 629
f 630 629 631
f 632 631 633
f 634 633 635
f 636 635 637
f 638 637 639
f 640 639 641
f 642 641 643
f 644 643 645
f 646 645 647
f 648 647 649
f 650 649 651
f 652 651 653
f 654 653 655
f 656 655 562
f 562 561 656
f 655 656 654
f 653 654 652
f 651 652 650
f 649 650 648
f 647 648 646
f 645 646 644
f 643 644 642
f 641 642 640
f 639 640 638
f 637 638 636
f 635 636 634
f 633 634 632
f 631 632 630
f 629 630 628
f 627 628 626
f 625 626 624
f 623 624 622
f 621 622 620
f 619 620 618
f 617 618 616
f 615 616 614
f 613 614 612
f 611 612 610
f 609 610 608
f 607 608 606
f 605 606 604
f 603 604 602
f 601 602 600
f 599 600 598
f 597 598 596
f 595 596 594
f 593 594 592
f 591 592 590
f 589 590 588
f 587 588 586
f 585 586 584
f 583 584 582
f 581 582 580
f 579 580 578
f 577 578 576
f 575 576 574
f 573 574 572
f 571 572 570
f 569 570 568
f 567 568 566
f 565 566 564
f 563 564 559
f 657 128 130
f 290 126 128
f 657 154 156
f 657 150 152
f 128 657 290
f 658 602 604
f 658 566 568
f 659 210 212
f 176 660 661
f 657 158 160
f 152 154 657
f 156 158 657
f 657 146 148
f 657 134 136
f 130 132 657
f 290 122 124
f 658 600 602
f 658 596 598
f 658 564 566
f 212 214 659
f 214 216 659
f 659 206 208
f 661 662 176
f 662 663 176
f 160 162 657
f 162 164 657
f 148 150 657
f 136 138 657
f 138 140 657
f 124 126 290
f 658 612 614
f 598 600 658
f 658 592 594
f 658 570 572
f 658 559 564
f 659 216 218
f 208 210 659
f 659 202 204
f 659 198 200
f 659 194 196
f 178 659 660
f 657 168 170
f 657 164 166
f 657 142 144
f 140 142 657
f 290 121 122
f 658 618 620
f 614 616 658
f 594 596 658
f 658 588 590
f 658 578 580
f 658 574 576
f 568 570 658
f 294 87 89
f 325 326 44
f 334 32 34
f 339 10 12
f 659 226 228
f 218 220 659
f 220 222 659
f 204 206 659
f 196 198 659
f 660 176 178
f 663 664 176
f 657 172 174
f 166 168 657
f 170 172 657
f 144 146 657
f 132 134 657
f 616 618 658
f 658 608 610
f 590 592 658
f 580 582 658
f 572 574 658
f 290 292 91
f 292 293 89
f 89 293 294
f 314 315 62
f 315 316 58
f 324 46 48
f 46 324 325
f 328 40 42
f 34 333 334
f 335 336 30
f 337 28 30
f 339 20 22
f 339 8 10
f 339 2 1
f 228 230 659
f 230 232 659
f 222 224 659
f 200 202 659
f 659 190 192
f 659 184 186
f 400 665 666
f 610 612 658
f 604 606 658
f 658 584 586
f 576 578 658
f 561 667 668
f 561 669 670
f 290 99 101
f 290 95 97
f 91 93 290
f 294 295 87
f 307 308 69
f 313 314 61
f 58 62 315
f 316 317 56
f 319 320 52
f 44 46 325
f 326 327 42
f 42 327 328
f 329 330 38
f 331 36 38
f 30 32 335
f 30 336 337
f 338 339 26
f 339 18 20
f 339 14 16
f 339 6 8
f 1 4 339
f 291 671 672
f 291 673 674
f 232 234 659
f 224 226 659
f 192 194 659
f 186 188 659
f 664 657 176
f 675 676 234
f 666 677 400
f 677 678 400
f 400 679 680
f 400 422 681
f 422 682 683
f 606 608 658
f 582 584 658
f 561 684 667
f 561 685 669
f 561 686 687
f 290 103 105
f 97 99 290
f 89 91 292
f 300 79 81
f 303 75 77
f 71 306 307
f 309 67 69
f 310 311 65
f 64 312 313
f 56 58 316
f 318 54 56
f 54 318 319
f 42 44 326
f 38 40 329
f 38 330 331
f 332 333 34
f 337 338 28
f 339 24 26
f 16 18 339
f 4 6 339
f 674 671 291
f 290 657 673
f 188 190 659
f 659 180 182
f 174 176 657
f 234 400 675
f 400 678 688
f 680 665 400
f 400 689 690
f 400 691 692
f 422 693 681
f 422 694 682
f 586 588 658
f 622 624 695
f 626 696 695
f 652 654 697
f 561 698 699
f 561 700 701
f 561 702 703
f 561 704 705
f 561 706 684
f 687 685 561
f 707 422 559
f 290 111 113
f 105 107 290
f 93 95 290
f 297 83 85
f 81 299 300
f 301 302 77
f 77 302 303
f 304 305 73
f 69 308 309
f 67 309 310
f 312 64 65
f 62 61 314
f 52 54 319
f 321 50 52
f 322 323 48
f 328 329 40
f 34 36 332
f 26 28 338
f 12 14 339
f 291 708 709
f 291 710 711
f 673 291 290
f 672 710 291
f 178 180 659
f 234 2 400
f 400 712 713
f 690 714 400
f 714 679 400
f 681 691 400
f 422 715 716
f 422 717 694
f 695 658 622
f 695 624 626
f 640 642 718
f 646 648 719
f 720 650 652
f 656 699 697
f 701 698 561
f 703 721 561
f 705 722 561
f 670 706 561
f 561 723 724
f 559 725 726
f 559 727 728
f 290 109 111
f 101 103 290
f 295 296 85
f 85 296 297
f 298 299 81
f 77 79 301
f 73 75 304
f 306 71 73
f 65 67 310
f 61 64 313
f 52 320 321
f 50 321 322
f 331 332 36
f 22 24 339
f 557 291 729
f 291 730 731
f 291 732 733
f 709 734 291
f 734 732 291
f 182 184 659
f 713 675 400
f 400 735 736
f 716 693 422
f 422 737 717
f 626 628 696
f 628 630 738
f 634 636 739
f 638 740 739
f 740 638 640
f 741 644 646
f 650 720 719
f 697 654 656
f 721 700 561
f 668 704 561
f 561 742 723
f 724 686 561
f 422 743 744
f 422 745 746
f 559 726 707
f 559 747 748
f 559 749 750
f 559 751 727
f 559 752 753
f 290 115 117
f 107 109 290
f 297 298 83
f 300 301 79
f 73 305 306
f 65 311 312
f 48 50 322
f 334 335 32
f 729 742 557
f 291 754 755
f 291 756 757
f 733 730 291
f 711 708 291
f 676 659 234
f 688 735 400
f 683 715 422
f 738 696 628
f 632 758 738
f 758 632 634
f 718 740 640
f 644 741 718
f 719 648 650
f 699 656 561
f 722 702 561
f 422 759 760
f 422 761 743
f 422 762 745
f 559 763 725
f 559 764 765
f 750 747 559
f 559 766 767
f 753 751 559
f 113 115 290
f 81 83 298
f 69 71 307
f 48 323 324
f 755 729 291
f 731 756 291
f 692 689 400
f 738 630 632
f 739 636 638
f 719 741 646
f 744 759 422
f 707 762 422
f 748 764 559
f 728 766 559
f 85 87 295
f 56 317 318
f 757 754 291
f 736 712 400
f 739 758 634
f 697 720 652
f 746 761 422
f 559 768 769
f 767 749 559
f 559 770 771
f 559 772 773
f 303 304 75
f 718 642 644
f 769 763 559
f 771 752 559
f 559 658 772
f 773 774 559
f 117 121 290
f 620 622 658
f 765 768 559
f 774 770 559
f 742 561 557
f 760 737 422
f 339 400 2
f 775 605 603
f 603 601 775
f 775 621 619
f 775 629 627
f 601 599 775
f 775 615 613
f 775 623 621
f 627 625 775
f 775 607 605
f 775 611 609
f 775 617 615
f 625 623 775
f 775 635 633
f 775 655 653
f 510 776 777
f 510 778 779
f 509 558 780
f 609 607 775
f 619 617 775
f 633 631 775
f 775 639 637
f 775 643 641
f 775 647 645
f 775 651 649
f 775 562 655
f 781 558 562
f 779 776 510
f 509 782 783
f 509 784 785
f 509 786 787
f 780 788 509
f 613 611 775
f 637 635 775
f 645 643 775
f 653 651 775
f 562 789 781
f 510 790 560
f 510 791 792
f 510 793 794
f 510 795 796
f 510 797 798
f 777 799 510
f 510 800 801
f 785 782 509
f 787 802 509
f 788 803 509
f 631 629 775
f 649 647 775
f 595 593 804
f 589 587 805
f 577 806 807
f 571 808 809
f 560 810 811
f 558 812 813
f 562 814 789
f 562 815 816
f 562 817 818
f 510 819 790
f 792 820 510
f 796 793 510
f 510 821 822
f 798 823 510
f 801 778 510
f 509 824 825
f 783 826 509
f 509 827 828
f 509 829 830
f 509 831 832
f 509 833 834
f 509 835 836
f 509 837 838
f 803 786 509
f 641 639 775
f 775 597 595
f 591 839 804
f 839 591 589
f 583 840 841
f 581 579 807
f 807 579 577
f 575 573 809
f 809 573 571
f 565 842 843
f 560 844 810
f 560 845 846
f 560 847 848
f 560 849 850
f 558 851 852
f 813 853 558
f 558 854 855
f 816 814 562
f 562 856 857
f 818 858 562
f 820 819 510
f 822 795 510
f 799 797 510
f 510 859 860
f 510 861 862
f 510 863 864
f 509 865 824
f 825 510 509
f 828 784 509
f 830 866 509
f 834 831 509
f 509 867 868
f 838 835 509
f 802 869 509
f 804 775 595
f 805 839 589
f 587 585 841
f 841 585 583
f 577 575 806
f 571 569 808
f 569 567 843
f 843 567 565
f 811 870 560
f 846 871 560
f 848 872 560
f 560 790 849
f 853 851 558
f 558 873 854
f 562 874 815
f 562 875 876
f 562 877 856
f 858 878 562
f 794 791 510
f 860 800 510
f 510 879 880
f 864 861 510
f 862 879 510
f 825 863 510
f 866 827 509
f 868 833 509
f 869 837 509
f 804 593 591
f 583 581 840
f 809 806 575
f 565 563 842
f 563 560 881
f 871 844 560
f 850 847 560
f 855 812 558
f 876 874 562
f 562 882 883
f 878 877 562
f 562 884 885
f 823 821 510
f 880 859 510
f 826 865 509
f 836 867 509
f 841 805 587
f 843 808 569
f 560 886 881
f 872 845 560
f 781 873 558
f 562 887 882
f 562 888 817
f 885 889 562
f 562 775 890
f 832 829 509
f 807 840 581
f 870 886 560
f 883 875 562
f 889 888 562
f 890 891 562
f 891 892 562
f 881 842 563
f 857 887 562
f 892 884 562
f 599 597 775
f 852 780 558
f 560 556 510
f 717 737 849
f 694 717 790
f 682 694 819
f 683 682 820
f 715 683 792
f 716 715 791
f 693 716 794
f 681 693 793
f 691 681 796
f 692 691 795
f 689 692 822
f 690 689 821
f 714 690 823
f 679 714 798
f 680 679 797
f 665 680 799
f 666 665 777
f 677 666 776
f 678 677 779
f 688 678 778
f 735 688 801
f 736 735 800
f 712 736 860
f 713 712 859
f 675 713 880
f 676 675 879
f 659 676 862
f 660 659 861
f 661 660 864
f 825 663 662
f 662 863 825
f 664 663 825
f 657 664 824
f 673 657 865
f 674 673 826
f 671 674 783
f 672 671 782
f 710 672 785
f 711 710 784
f 708 711 828
f 709 708 827
f 734 709 866
f 732 734 830
f 733 732 829
f 730 733 832
f 731 730 831
f 756 731 834
f 757 756 833
f 754 757 868
f 755 754 867
f 729 755 836
f 742 729 835
f 723 742 838
f 724 723 837
f 686 724 869
f 687 686 802
f 685 687 787
f 669 685 786
f 670 669 803
f 670 788 780
f 780 706 670
f 684 706 852
f 667 684 851
f 668 667 853
f 704 668 813
f 705 704 812
f 722 705 855
f 702 722 854
f 703 702 873
f 721 703 781
f 700 721 789
f 701 700 814
f 698 701 816
f 699 698 815
f 697 699 874
f 720 697 876
f 719 720 875
f 741 719 883
f 718 741 882
f 740 718 887
f 739 740 857
f 758 739 856
f 738 758 877
f 696 738 878
f 695 696 858
f 658 695 818
f 772 658 817
f 773 772 888
f 774 773 889
f 770 774 885
f 771 770 884
f 752 771 892
f 753 752 891
f 751 753 890
f 727 751 775
f 728 727 804
f 766 728 839
f 767 766 805
f 749 767 841
f 750 749 840
f 747 750 807
f 748 747 806
f 764 748 809
f 765 764 808
f 768 765 843
f 769 768 842
f 763 769 881
f 725 763 886
f 726 725 870
f 707 726 811
f 762 707 810
f 745 762 844
f 746 745 871
f 761 746 846
f 743 761 845
f 744 743 872
f 759 744 848
f 760 759 847
f 737 760 850
f 850 849 737
f 847 850 760
f 848 847 759
f 872 848 744
f 845 872 743
f 846 845 761
f 871 846 746
f 844 871 745
f 810 844 762
f 811 810 707
f 870 811 726
f 886 870 725
f 881 886 763
f 842 881 769
f 843 842 768
f 808 843 765
f 809 808 764
f 806 809 748
f 807 806 747
f 840 807 750
f 841 840 749
f 805 841 767
f 839 805 766
f 804 839 728
f 775 804 727
f 890 775 751
f 891 890 753
f 892 891 752
f 884 892 771
f 885 884 770
f 889 885 774
f 888 889 773
f 817 888 772
f 818 817 658
f 858 818 695
f 878 858 696
f 877 878 738
f 856 877 758
f 857 856 739
f 887 857 740
f 882 887 718
f 883 882 741
f 875 883 719
f 876 875 720
f 874 876 697
f 815 874 699
f 816 815 698
f 814 816 701
f 789 814 700
f 781 789 721
f 873 781 703
f 854 873 702
f 855 854 722
f 812 855 705
f 813 812 704
f 853 813 668
f 851 853 667
f 852 851 684
f 780 852 706
f 803 788 670
f 786 803 669
f 787 786 685
f 802 787 687
f 869 802 686
f 837 869 724
f 838 837 723
f 835 838 742
f 836 835 729
f 867 836 755
f 868 867 754
f 833 868 757
f 834 833 756
f 831 834 731
f 832 831 730
f 829 832 733
f 830 829 732
f 866 830 734
f 827 866 709
f 828 827 708
f 784 828 711
f 785 784 710
f 782 785 672
f 783 782 671
f 826 783 674
f 865 826 673
f 824 865 657
f 825 824 664
f 662 661 863
f 864 863 661
f 861 864 660
f 862 861 659
f 879 862 676
f 880 879 675
f 859 880 713
f 860 859 712
f 800 860 736
f 801 800 735
f 778 801 688
f 779 778 678
f 776 779 677
f 777 776 666
f 799 777 665
f 797 799 680
f 798 797 679
f 823 798 714
f 821 823 690
f 822 821 689
f 795 822 692
f 796 795 691
f 793 796 681
f 794 793 693
f 791 794 716
f 792 791 715
f 820 792 683
f 819 820 682
f 790 819 694
f 849 790 717
