# 
# Wavefront OBJ file
# Created with Kaydara FBX
# 
mtllib ucvsrcivac_tockica.mtl

g ucvsrcivac_tockica
v -4.000000 -0.147611 59.746036
v -4.000000 0.000000 59.750000
v 0.000000 -0.000000 59.750000
v -4.000000 -0.294796 59.734154
v 0.000000 -0.147611 59.746036
v -4.000000 -0.441131 59.714388
v 0.000000 -0.294796 59.734154
v -4.000000 -0.586194 59.686797
v 0.000000 -0.441131 59.714388
v -4.000000 -0.729567 59.651458
v 0.000000 -0.586194 59.686797
v -4.000000 -0.870837 59.608475
v 0.000000 -0.729567 59.651458
v -4.000000 -1.009596 59.557971
v 0.000000 -0.870837 59.608475
v -4.000000 -1.145444 59.500092
v 0.000000 -1.009596 59.557971
v -4.000000 -1.277989 59.435004
v 0.000000 -1.145444 59.500092
v -4.000000 -1.406849 59.362896
v 0.000000 -1.277989 59.435004
v -4.000000 -1.531653 59.283974
v 0.000000 -1.406849 59.362896
v -4.000000 -1.652041 59.198468
v 0.000000 -1.531653 59.283974
v -4.000000 -1.767666 59.106622
v 0.000000 -1.652041 59.198468
v -4.000000 -1.878194 59.008703
v 0.000000 -1.767666 59.106622
v -4.000000 -1.983307 58.904992
v 0.000000 -1.878194 59.008703
v -4.000000 -2.082701 58.795788
v 0.000000 -1.983307 58.904992
v -4.000000 -2.176090 58.681407
v 0.000000 -2.082701 58.795788
v -4.000000 -2.263206 58.562178
v 0.000000 -2.176090 58.681407
v -4.000000 -2.343795 58.438445
v 0.000000 -2.263206 58.562178
v -4.000000 -2.417627 58.310564
v 0.000000 -2.343795 58.438445
v -4.000000 -2.484489 58.178905
v 0.000000 -2.417627 58.310564
v -4.000000 -2.544187 58.043846
v 0.000000 -2.484489 58.178905
v -4.000000 -2.596549 57.905778
v 0.000000 -2.544187 58.043846
v -4.000000 -2.641425 57.765098
v 0.000000 -2.596549 57.905778
v -4.000000 -2.678685 57.622212
v 0.000000 -2.641425 57.765098
v -4.000000 -2.708221 57.477532
v 0.000000 -2.678685 57.622212
v -4.000000 -2.729949 57.331476
v 0.000000 -2.708221 57.477532
v -4.000000 -2.743806 57.184464
v 0.000000 -2.729949 57.331476
v -4.000000 -2.749752 57.036919
v 0.000000 -2.743806 57.184464
v -4.000000 -2.747770 56.889269
v 0.000000 -2.749752 57.036919
v -4.000000 -2.737865 56.741937
v 0.000000 -2.747770 56.889269
v -4.000000 -2.720066 56.595350
v 0.000000 -2.737865 56.741937
v -4.000000 -2.694424 56.449929
v 0.000000 -2.720066 56.595350
v -4.000000 -2.661014 56.306095
v 0.000000 -2.694424 56.449929
v -4.000000 -2.619931 56.164261
v 0.000000 -2.661014 56.306095
v -4.000000 -2.571295 56.024837
v 0.000000 -2.619931 56.164261
v -4.000000 -2.515244 55.888224
v 0.000000 -2.571295 56.024837
v -4.000000 -2.451942 55.754817
v 0.000000 -2.515244 55.888224
v -4.000000 -2.381570 55.625000
v 0.000000 -2.451942 55.754817
v -4.000000 -2.304331 55.499148
v 0.000000 -2.381570 55.625000
v -4.000000 -2.220448 55.377623
v 0.000000 -2.304331 55.499148
v -4.000000 -2.130164 55.260775
v 0.000000 -2.220448 55.377623
v -4.000000 -2.033737 55.148943
v 0.000000 -2.130164 55.260775
v -4.000000 -1.931447 55.042447
v 0.000000 -2.033737 55.148943
v -4.000000 -1.823587 54.941595
v 0.000000 -1.931447 55.042447
v -4.000000 -1.710470 54.846679
v 0.000000 -1.823587 54.941595
v -4.000000 -1.592421 54.757971
v 0.000000 -1.710470 54.846679
v -4.000000 -1.469781 54.675727
v 0.000000 -1.592421 54.757971
v -4.000000 -1.342903 54.600185
v 0.000000 -1.469781 54.675727
v -4.000000 -1.212153 54.531562
v 0.000000 -1.342903 54.600185
v -4.000000 -1.077908 54.470057
v 0.000000 -1.212153 54.531562
v -4.000000 -0.940555 54.415845
v 0.000000 -1.077908 54.470057
v -4.000000 -0.800491 54.369085
v 0.000000 -0.940555 54.415845
v -4.000000 -0.658118 54.329910
v 0.000000 -0.800491 54.369085
v -4.000000 -0.513848 54.298434
v 0.000000 -0.658118 54.329910
v -4.000000 -0.368096 54.274747
v 0.000000 -0.513848 54.298434
v -4.000000 -0.221283 54.258917
v 0.000000 -0.368096 54.274747
v -4.000000 -0.073832 54.250991
v 0.000000 -0.221283 54.258917
v 0.000000 -0.073832 54.250991
v 0.000000 0.000000 54.250000
v -4.000000 0.073832 54.250991
v -4.000000 0.221283 54.258917
v 0.000000 0.073832 54.250991
v -4.000000 0.368096 54.274747
v 0.000000 0.221283 54.258917
v -4.000000 0.513848 54.298434
v 0.000000 0.368096 54.274747
v -4.000000 0.658118 54.329910
v 0.000000 0.513848 54.298434
v -4.000000 0.800491 54.369085
v 0.000000 0.658118 54.329910
v -4.000000 0.940555 54.415845
v 0.000000 0.800491 54.369085
v -4.000000 1.077908 54.470057
v 0.000000 0.940555 54.415845
v -4.000000 1.212153 54.531562
v 0.000000 1.077908 54.470057
v -4.000000 1.342903 54.600185
v 0.000000 1.212153 54.531562
v -4.000000 1.469781 54.675727
v 0.000000 1.342903 54.600185
v -4.000000 1.592421 54.757971
v 0.000000 1.469781 54.675727
v -4.000000 1.710470 54.846679
v 0.000000 1.592421 54.757971
v -4.000000 1.823587 54.941595
v 0.000000 1.710470 54.846679
v -4.000000 1.931447 55.042447
v 0.000000 1.823587 54.941595
v -4.000000 2.033737 55.148943
v 0.000000 1.931447 55.042447
v -4.000000 2.130164 55.260775
v 0.000000 2.033737 55.148943
v -4.000000 2.220448 55.377623
v 0.000000 2.130164 55.260775
v -4.000000 2.304331 55.499148
v 0.000000 2.220448 55.377623
v -4.000000 2.381570 55.625000
v 0.000000 2.304331 55.499148
v -4.000000 2.451942 55.754817
v 0.000000 2.381570 55.625000
v -4.000000 2.515244 55.888224
v 0.000000 2.451942 55.754817
v -4.000000 2.571295 56.024837
v 0.000000 2.515244 55.888224
v -4.000000 2.619931 56.164261
v 0.000000 2.571295 56.024837
v -4.000000 2.661014 56.306095
v 0.000000 2.619931 56.164261
v -4.000000 2.694424 56.449929
v 0.000000 2.661014 56.306095
v -4.000000 2.720066 56.595350
v 0.000000 2.694424 56.449929
v -4.000000 2.737865 56.741937
v 0.000000 2.720066 56.595350
v -4.000000 2.747770 56.889269
v 0.000000 2.737865 56.741937
v 0.000000 2.747770 56.889269
v 0.000000 2.749752 57.036919
v -4.000000 2.750000 57.000000
v -4.000000 2.749752 57.036919
v -4.000000 2.743806 57.184464
v -4.000000 2.729949 57.331476
v 0.000000 2.743806 57.184464
v -4.000000 2.708221 57.477532
v 0.000000 2.729949 57.331476
v -4.000000 2.678685 57.622212
v 0.000000 2.708221 57.477532
v -4.000000 2.641425 57.765098
v 0.000000 2.678685 57.622212
v -4.000000 2.596549 57.905778
v 0.000000 2.641425 57.765098
v -4.000000 2.544187 58.043846
v 0.000000 2.596549 57.905778
v -4.000000 2.484489 58.178905
v 0.000000 2.544187 58.043846
v -4.000000 2.417627 58.310564
v 0.000000 2.484489 58.178905
v -4.000000 2.343795 58.438445
v 0.000000 2.417627 58.310564
v -4.000000 2.263206 58.562178
v 0.000000 2.343795 58.438445
v -4.000000 2.176090 58.681407
v 0.000000 2.263206 58.562178
v -4.000000 2.082701 58.795788
v 0.000000 2.176090 58.681407
v -4.000000 1.983307 58.904992
v 0.000000 2.082701 58.795788
v -4.000000 1.878194 59.008703
v 0.000000 1.983307 58.904992
v -4.000000 1.767666 59.106622
v 0.000000 1.878194 59.008703
v -4.000000 1.652041 59.198468
v 0.000000 1.767666 59.106622
v -4.000000 1.531653 59.283974
v 0.000000 1.652041 59.198468
v -4.000000 1.406849 59.362896
v 0.000000 1.531653 59.283974
v -4.000000 1.277989 59.435004
v 0.000000 1.406849 59.362896
v -4.000000 1.145444 59.500092
v 0.000000 1.277989 59.435004
v -4.000000 1.009596 59.557971
v 0.000000 1.145444 59.500092
v -4.000000 0.870837 59.608475
v 0.000000 1.009596 59.557971
v -4.000000 0.729567 59.651458
v 0.000000 0.870837 59.608475
v -4.000000 0.586194 59.686797
v 0.000000 0.729567 59.651458
v -4.000000 0.441131 59.714388
v 0.000000 0.586194 59.686797
v -4.000000 0.294796 59.734154
v 0.000000 0.441131 59.714388
v -4.000000 0.147611 59.746036
v 0.000000 0.294796 59.734154
v 0.000000 0.147611 59.746036
v -4.000000 11.500000 44.500000
v -4.000000 11.500000 69.500000
v -4.000000 -11.500000 44.500000
v -4.000000 -11.500000 69.500000
v -4.003947 11.625581 44.500000
v -4.015771 11.750666 44.500000
v -4.003947 11.625581 69.500000
v -4.035425 11.874763 44.500000
v -4.015771 11.750666 69.500000
v -4.062834 11.997380 44.500000
v -4.035425 11.874763 69.500000
v -4.097887 12.118034 44.500000
v -4.062834 11.997380 69.500000
v -4.140447 12.236249 44.500000
v -4.097887 12.118034 69.500000
v -4.190346 12.351559 44.500000
v -4.140447 12.236249 69.500000
v -4.247387 12.463507 44.500000
v -4.190346 12.351559 69.500000
v -4.311344 12.571654 44.500000
v -4.247387 12.463507 69.500000
v -4.381966 12.675571 44.500000
v -4.311344 12.571654 69.500000
v -4.458974 12.774848 44.500000
v -4.381966 12.675571 69.500000
v -4.542063 12.869094 44.500000
v -4.458974 12.774848 69.500000
v -4.630906 12.957937 44.500000
v -4.542063 12.869094 69.500000
v -4.725152 13.041026 44.500000
v -4.630906 12.957937 69.500000
v -4.824429 13.118034 44.500000
v -4.725152 13.041026 69.500000
v -4.928346 13.188656 44.500000
v -4.824429 13.118034 69.500000
v -5.036493 13.252613 44.500000
v -4.928346 13.188656 69.500000
v -5.148441 13.309654 44.500000
v -5.036493 13.252613 69.500000
v -5.263751 13.359553 44.500000
v -5.148441 13.309654 69.500000
v -5.381966 13.402113 44.500000
v -5.263751 13.359553 69.500000
v -5.502620 13.437166 44.500000
v -5.381966 13.402113 69.500000
v -5.625237 13.464575 44.500000
v -5.502620 13.437166 69.500000
v -5.749334 13.484229 44.500000
v -5.625237 13.464575 69.500000
v -5.874419 13.496053 44.500000
v -5.749334 13.484229 69.500000
v -6.000000 13.500000 44.500000
v -5.874419 13.496053 69.500000
v -6.000000 13.500000 69.500000
v -10.000000 13.500000 69.500000
v -10.000000 13.500000 44.500000
v -10.000000 20.000000 69.500000
v -10.000000 20.000000 44.500000
v 6.000000 20.000000 69.500000
v 6.000000 20.000000 44.500000
v 6.000000 14.750000 69.500000
v 6.000000 14.750000 44.500000
v 0.000000 14.750000 69.500000
v 0.000000 14.750000 44.500000
v 0.000000 -14.750000 69.500000
v 0.000000 -14.750000 44.500000
v 6.000000 -14.750000 44.500000
v 6.000000 -14.750000 69.500000
v 6.000000 -20.000000 44.500000
v 6.000000 -20.000000 69.500000
v -10.000000 -20.000000 44.500000
v -10.000000 -20.000000 69.500000
v -4.381966 -12.675571 69.500000
v -4.458974 -12.774848 69.500000
v -4.190346 -12.351559 69.500000
v -4.247387 -12.463507 69.500000
v -4.542063 -12.869094 69.500000
v -4.140447 -12.236249 69.500000
v -4.062834 -11.997380 69.500000
v -4.097887 -12.118034 69.500000
v -5.263751 -13.359553 69.500000
v -4.928346 -13.188656 69.500000
v -5.036493 -13.252613 69.500000
v -4.630906 -12.957937 69.500000
v -4.725152 -13.041026 69.500000
v -4.311344 -12.571654 69.500000
v -4.015771 -11.750666 69.500000
v -4.035425 -11.874763 69.500000
v -5.381966 -13.402113 69.500000
v -5.148441 -13.309654 69.500000
v -4.824429 -13.118034 69.500000
v -4.003947 -11.625581 69.500000
v -5.874419 -13.496053 69.500000
v -6.000000 -13.500000 69.500000
v -5.502620 -13.437166 69.500000
v -5.625237 -13.464575 69.500000
v -5.749334 -13.484229 69.500000
v -10.000000 -13.500000 69.500000
v -4.003947 -11.625581 44.500000
v -4.458974 -12.774848 44.500000
v -4.381966 -12.675571 44.500000
v -4.630906 -12.957937 44.500000
v -4.542063 -12.869094 44.500000
v -4.247387 -12.463507 44.500000
v -4.190346 -12.351559 44.500000
v -4.311344 -12.571654 44.500000
v -5.263751 -13.359553 44.500000
v -5.148441 -13.309654 44.500000
v -5.381966 -13.402113 44.500000
v -4.015771 -11.750666 44.500000
v -4.062834 -11.997380 44.500000
v -4.035425 -11.874763 44.500000
v -4.140447 -12.236249 44.500000
v -4.097887 -12.118034 44.500000
v -5.036493 -13.252613 44.500000
v -5.502620 -13.437166 44.500000
v -4.824429 -13.118034 44.500000
v -4.725152 -13.041026 44.500000
v -5.749334 -13.484229 44.500000
v -5.625237 -13.464575 44.500000
v -4.928346 -13.188656 44.500000
v -10.000000 -13.500000 44.500000
v -6.000000 -13.500000 44.500000
v -5.874419 -13.496053 44.500000
usemtl ucvsrcivac_tockicaMaterial0
f 1 2 3
f 4 1 5
f 6 4 7
f 8 6 9
f 10 8 11
f 12 10 13
f 14 12 15
f 16 14 17
f 18 16 19
f 20 18 21
f 22 20 23
f 24 22 25
f 26 24 27
f 28 26 29
f 30 28 31
f 32 30 33
f 34 32 35
f 36 34 37
f 38 36 39
f 40 38 41
f 42 40 43
f 44 42 45
f 46 44 47
f 48 46 49
f 50 48 51
f 52 50 53
f 54 52 55
f 56 54 57
f 58 56 59
f 60 58 61
f 62 60 63
f 64 62 65
f 66 64 67
f 68 66 69
f 70 68 71
f 72 70 73
f 74 72 75
f 76 74 77
f 78 76 79
f 80 78 81
f 82 80 83
f 84 82 85
f 86 84 87
f 88 86 89
f 90 88 91
f 92 90 93
f 94 92 95
f 96 94 97
f 98 96 99
f 100 98 101
f 102 100 103
f 104 102 105
f 106 104 107
f 108 106 109
f 110 108 111
f 112 110 113
f 114 112 115
f 116 114 117
f 116 118 119
f 119 120 116
f 121 120 122
f 123 121 124
f 125 123 126
f 127 125 128
f 129 127 130
f 131 129 132
f 133 131 134
f 135 133 136
f 137 135 138
f 139 137 140
f 141 139 142
f 143 141 144
f 145 143 146
f 147 145 148
f 149 147 150
f 151 149 152
f 153 151 154
f 155 153 156
f 157 155 158
f 159 157 160
f 161 159 162
f 163 161 164
f 165 163 166
f 167 165 168
f 169 167 170
f 171 169 172
f 173 171 174
f 175 173 176
f 177 178 179
f 178 180 179
f 181 180 178
f 182 181 183
f 184 182 185
f 186 184 187
f 188 186 189
f 190 188 191
f 192 190 193
f 194 192 195
f 196 194 197
f 198 196 199
f 200 198 201
f 202 200 203
f 204 202 205
f 206 204 207
f 208 206 209
f 210 208 211
f 212 210 213
f 214 212 215
f 216 214 217
f 218 216 219
f 220 218 221
f 222 220 223
f 224 222 225
f 226 224 227
f 228 226 229
f 230 228 231
f 232 230 233
f 234 232 235
f 2 234 236
f 236 3 2
f 235 236 234
f 233 235 232
f 231 233 230
f 229 231 228
f 227 229 226
f 225 227 224
f 223 225 222
f 221 223 220
f 219 221 218
f 217 219 216
f 215 217 214
f 213 215 212
f 211 213 210
f 209 211 208
f 207 209 206
f 205 207 204
f 203 205 202
f 201 203 200
f 199 201 198
f 197 199 196
f 195 197 194
f 193 195 192
f 191 193 190
f 189 191 188
f 187 189 186
f 185 187 184
f 183 185 182
f 178 183 181
f 179 175 177
f 176 177 175
f 174 176 173
f 172 174 171
f 170 172 169
f 168 170 167
f 166 168 165
f 164 166 163
f 162 164 161
f 160 162 159
f 158 160 157
f 156 158 155
f 154 156 153
f 152 154 151
f 150 152 149
f 148 150 147
f 146 148 145
f 144 146 143
f 142 144 141
f 140 142 139
f 138 140 137
f 136 138 135
f 134 136 133
f 132 134 131
f 130 132 129
f 128 130 127
f 126 128 125
f 124 126 123
f 122 124 121
f 119 122 120
f 117 118 116
f 115 117 114
f 113 115 112
f 111 113 110
f 109 111 108
f 107 109 106
f 105 107 104
f 103 105 102
f 101 103 100
f 99 101 98
f 97 99 96
f 95 97 94
f 93 95 92
f 91 93 90
f 89 91 88
f 87 89 86
f 85 87 84
f 83 85 82
f 81 83 80
f 79 81 78
f 77 79 76
f 75 77 74
f 73 75 72
f 71 73 70
f 69 71 68
f 67 69 66
f 65 67 64
f 63 65 62
f 61 63 60
f 59 61 58
f 57 59 56
f 55 57 54
f 53 55 52
f 51 53 50
f 49 51 48
f 47 49 46
f 45 47 44
f 43 45 42
f 41 43 40
f 39 41 38
f 37 39 36
f 35 37 34
f 33 35 32
f 31 33 30
f 29 31 28
f 27 29 26
f 25 27 24
f 23 25 22
f 21 23 20
f 19 21 18
f 17 19 16
f 15 17 14
f 13 15 12
f 11 13 10
f 9 11 8
f 7 9 6
f 5 7 4
f 3 5 1
f 237 175 179
f 238 190 192
f 179 238 237
f 179 180 238
f 238 196 198
f 192 194 238
f 194 196 238
f 238 186 188
f 238 182 184
f 237 173 175
f 188 190 238
f 238 181 182
f 237 171 173
f 239 84 86
f 239 240 58
f 240 44 46
f 240 40 42
f 184 186 238
f 237 169 171
f 237 163 165
f 237 121 123
f 86 88 239
f 239 80 82
f 239 76 78
f 239 60 62
f 240 56 58
f 240 52 54
f 240 48 50
f 42 44 240
f 240 36 38
f 240 30 32
f 180 181 238
f 165 167 237
f 237 120 121
f 239 116 120
f 239 110 112
f 239 96 98
f 239 92 94
f 82 84 239
f 239 74 76
f 58 60 239
f 50 52 240
f 38 40 240
f 32 34 240
f 238 200 202
f 167 169 237
f 237 157 159
f 237 151 153
f 237 137 139
f 237 125 127
f 120 237 239
f 112 114 239
f 239 106 108
f 98 100 239
f 239 90 92
f 78 80 239
f 239 68 70
f 54 56 240
f 34 36 240
f 198 200 238
f 159 161 237
f 153 155 237
f 237 147 149
f 237 143 145
f 139 141 237
f 127 129 237
f 114 116 239
f 239 104 106
f 100 102 239
f 88 90 239
f 70 72 239
f 239 64 66
f 46 48 240
f 240 22 24
f 240 18 20
f 240 12 14
f 238 210 212
f 238 204 206
f 161 163 237
f 149 151 237
f 141 143 237
f 237 133 135
f 123 125 237
f 102 104 239
f 72 74 239
f 62 64 239
f 240 26 28
f 20 22 240
f 14 16 240
f 240 8 10
f 238 230 232
f 238 208 210
f 202 204 238
f 145 147 237
f 237 131 133
f 108 110 239
f 66 68 239
f 24 26 240
f 10 12 240
f 238 228 230
f 238 224 226
f 238 220 222
f 206 208 238
f 135 137 237
f 94 96 239
f 16 18 240
f 240 1 4
f 232 234 238
f 222 224 238
f 238 216 218
f 155 157 237
f 28 30 240
f 4 6 240
f 240 238 2
f 226 228 238
f 238 214 216
f 129 131 237
f 2 1 240
f 218 220 238
f 6 8 240
f 212 214 238
f 234 2 238
f 241 237 238
f 242 241 243
f 244 242 245
f 246 244 247
f 248 246 249
f 250 248 251
f 252 250 253
f 254 252 255
f 256 254 257
f 258 256 259
f 260 258 261
f 262 260 263
f 264 262 265
f 266 264 267
f 268 266 269
f 270 268 271
f 272 270 273
f 274 272 275
f 276 274 277
f 278 276 279
f 280 278 281
f 282 280 283
f 284 282 285
f 286 284 287
f 288 286 289
f 289 290 288
f 287 289 286
f 285 287 284
f 283 285 282
f 281 283 280
f 279 281 278
f 277 279 276
f 275 277 274
f 273 275 272
f 271 273 270
f 269 271 268
f 267 269 266
f 265 267 264
f 263 265 262
f 261 263 260
f 259 261 258
f 257 259 256
f 255 257 254
f 253 255 252
f 251 253 250
f 249 251 248
f 247 249 246
f 245 247 244
f 243 245 242
f 238 243 241
f 291 292 288
f 288 290 291
f 293 294 292
f 292 291 293
f 294 293 295
f 295 296 294
f 295 297 298
f 298 296 295
f 297 299 300
f 300 298 297
f 299 197 195
f 299 193 191
f 299 199 197
f 300 177 176
f 300 299 178
f 299 189 187
f 195 193 299
f 299 203 201
f 301 47 45
f 301 51 49
f 302 63 61
f 302 91 89
f 176 174 300
f 299 183 178
f 187 185 299
f 201 199 299
f 301 37 35
f 301 43 41
f 49 47 301
f 301 55 53
f 301 59 57
f 61 301 302
f 302 67 65
f 302 83 81
f 302 87 85
f 302 93 91
f 300 170 168
f 178 177 300
f 191 189 299
f 301 39 37
f 45 43 301
f 57 55 301
f 65 63 302
f 302 75 73
f 81 79 302
f 89 87 302
f 302 103 101
f 300 172 170
f 185 183 299
f 41 39 301
f 61 59 301
f 302 77 75
f 85 83 302
f 302 99 97
f 302 105 103
f 302 113 111
f 302 300 119
f 300 144 142
f 300 158 156
f 300 164 162
f 174 172 300
f 299 207 205
f 299 236 235
f 301 5 3
f 301 19 17
f 301 25 23
f 301 29 27
f 53 51 301
f 302 71 69
f 79 77 302
f 97 95 302
f 302 107 105
f 111 109 302
f 302 117 115
f 119 118 302
f 300 146 144
f 300 150 148
f 300 154 152
f 300 160 158
f 300 166 164
f 205 203 299
f 235 233 299
f 3 299 301
f 3 236 299
f 301 9 7
f 301 15 13
f 301 21 19
f 27 25 301
f 301 33 31
f 69 67 302
f 95 93 302
f 109 107 302
f 118 117 302
f 300 140 138
f 148 146 300
f 156 154 300
f 168 166 300
f 299 211 209
f 299 217 215
f 299 227 225
f 299 231 229
f 301 11 9
f 17 15 301
f 31 29 301
f 73 71 302
f 115 113 302
f 300 124 122
f 300 128 126
f 300 132 130
f 138 136 300
f 152 150 300
f 209 207 299
f 215 213 299
f 229 227 299
f 7 5 301
f 23 21 301
f 101 99 302
f 126 124 300
f 300 134 132
f 142 140 300
f 213 211 299
f 299 223 221
f 233 231 299
f 35 33 301
f 130 128 300
f 162 160 300
f 221 219 299
f 13 11 301
f 136 134 300
f 225 223 299
f 219 217 299
f 122 119 300
f 303 302 301
f 301 304 303
f 305 303 304
f 304 306 305
f 307 305 306
f 306 308 307
f 299 265 263
f 263 261 299
f 299 257 255
f 261 259 299
f 301 309 310
f 301 311 312
f 301 299 238
f 299 253 251
f 259 257 299
f 299 277 275
f 293 281 279
f 293 289 287
f 310 313 301
f 301 314 311
f 301 315 316
f 299 243 238
f 299 249 247
f 255 253 299
f 299 269 267
f 299 273 271
f 299 279 277
f 293 283 281
f 287 285 293
f 293 291 290
f 308 301 317
f 301 318 319
f 301 320 321
f 301 322 309
f 316 314 301
f 301 323 324
f 238 240 301
f 251 249 299
f 271 269 299
f 279 299 293
f 290 289 293
f 317 325 308
f 319 326 301
f 321 327 301
f 312 322 301
f 301 328 323
f 299 245 243
f 267 265 299
f 285 283 293
f 326 317 301
f 313 320 301
f 240 328 301
f 275 273 299
f 327 318 301
f 247 245 299
f 308 329 330
f 308 331 332
f 324 315 301
f 308 333 329
f 325 331 308
f 295 293 299
f 332 333 308
f 330 334 308
f 306 304 301
f 301 308 306
f 299 297 295
f 300 302 239
f 302 335 239
f 302 336 337
f 302 338 339
f 239 237 300
f 339 336 302
f 237 241 300
f 302 340 341
f 337 342 302
f 302 343 344
f 307 345 343
f 300 270 272
f 302 346 335
f 302 347 348
f 302 349 350
f 342 340 302
f 344 351 302
f 307 352 345
f 272 274 300
f 300 258 260
f 300 252 254
f 348 346 302
f 341 349 302
f 302 353 354
f 343 302 307
f 307 355 356
f 294 300 276
f 300 268 270
f 300 264 266
f 260 262 300
f 300 250 252
f 300 246 248
f 300 242 244
f 350 347 302
f 302 357 353
f 356 352 307
f 276 278 294
f 266 268 300
f 300 256 258
f 248 250 300
f 241 242 300
f 351 357 302
f 307 358 359
f 274 276 300
f 254 256 300
f 354 338 302
f 359 360 307
f 262 264 300
f 360 355 307
f 294 286 288
f 294 280 282
f 244 246 300
f 294 284 286
f 278 280 294
f 305 307 302
f 282 284 294
f 288 292 294
f 296 298 300
f 300 294 296
f 302 303 305
f 358 334 330
f 330 359 358
f 307 308 334
f 334 358 307
f 328 240 239
f 323 328 335
f 324 323 346
f 315 324 348
f 316 315 347
f 314 316 350
f 311 314 349
f 312 311 341
f 322 312 340
f 309 322 342
f 310 309 337
f 313 310 336
f 320 313 339
f 321 320 338
f 327 321 354
f 318 327 353
f 319 318 357
f 326 319 351
f 317 326 344
f 325 317 343
f 331 325 345
f 332 331 352
f 333 332 356
f 329 333 355
f 330 329 360
f 360 359 330
f 355 360 329
f 356 355 333
f 352 356 332
f 345 352 331
f 343 345 325
f 344 343 317
f 351 344 326
f 357 351 319
f 353 357 318
f 354 353 327
f 338 354 321
f 339 338 320
f 336 339 313
f 337 336 310
f 342 337 309
f 340 342 322
f 341 340 312
f 349 341 311
f 350 349 314
f 347 350 316
f 348 347 315
f 346 348 324
f 335 346 323
f 239 335 328
