# 
# Wavefront OBJ file
# Created with Kaydara FBX
# 
mtllib drzac_konektora.mtl

g drzac_konektora
v -6.112862 -2.500000 20.903986
v -6.000000 -2.500000 20.900000
v -6.000000 7.500000 20.900000
v -6.225162 -2.500000 20.915922
v -6.112862 7.500000 20.903986
v -6.336341 -2.500000 20.935751
v -6.225162 7.500000 20.915922
v -6.445843 -2.500000 20.963373
v -6.336341 7.500000 20.935751
v -6.553125 -2.500000 20.998650
v -6.445843 7.500000 20.963373
v -6.657651 -2.500000 21.041406
v -6.553125 7.500000 20.998650
v -6.758900 -2.500000 21.091430
v -6.657651 7.500000 21.041406
v -6.856369 -2.500000 21.148470
v -6.758900 7.500000 21.091430
v -6.949571 -2.500000 21.212244
v -6.856369 7.500000 21.148470
v -7.038043 -2.500000 21.282434
v -6.949571 7.500000 21.212244
v -7.121343 -2.500000 21.358689
v -7.038043 7.500000 21.282434
v -7.199057 -2.500000 21.440631
v -7.121343 7.500000 21.358689
v -7.270797 -2.500000 21.527850
v -7.199057 7.500000 21.440631
v -7.336205 -2.500000 21.619912
v -7.270797 7.500000 21.527850
v -7.394958 -2.500000 21.716359
v -7.336205 7.500000 21.619912
v -7.446760 -2.500000 21.816710
v -7.394958 7.500000 21.716359
v -7.491355 -2.500000 21.920465
v -7.446760 7.500000 21.816710
v -7.528520 -2.500000 22.027107
v -7.491355 7.500000 21.920465
v -7.558069 -2.500000 22.136105
v -7.528520 7.500000 22.027107
v -7.579857 -2.500000 22.246916
v -7.558069 7.500000 22.136105
v -7.593774 -2.500000 22.358988
v -7.579857 7.500000 22.246916
v -7.599751 -2.500000 22.471762
v -7.593774 7.500000 22.358988
v -7.597758 -2.500000 22.584678
v -7.600000 -2.500000 22.500000
v -7.600000 7.500000 22.500000
v -7.599751 7.500000 22.471762
v -7.587805 -2.500000 22.697171
v -7.597758 7.500000 22.584678
v -7.569941 -2.500000 22.808682
v -7.587805 7.500000 22.697171
v -7.544257 -2.500000 22.918655
v -7.569941 7.500000 22.808682
v -7.510878 -2.500000 23.026542
v -7.544257 7.500000 22.918655
v -7.469973 -2.500000 23.131806
v -7.510878 7.500000 23.026542
v -7.421744 -2.500000 23.233923
v -7.469973 7.500000 23.131806
v -7.366433 -2.500000 23.332383
v -7.421744 7.500000 23.233923
v -7.304314 -2.500000 23.426696
v -7.366433 7.500000 23.332383
v -7.235696 -2.500000 23.516393
v -7.304314 7.500000 23.426696
v -7.160923 -2.500000 23.601026
v -7.235696 7.500000 23.516393
v -7.080366 -2.500000 23.680174
v -7.160923 7.500000 23.601026
v -6.994426 -2.500000 23.753442
v -7.080366 7.500000 23.680174
v -6.903533 -2.500000 23.820465
v -6.994426 7.500000 23.753442
v -6.808138 -2.500000 23.880910
v -6.903533 7.500000 23.820465
v -6.708717 -2.500000 23.934476
v -6.808138 7.500000 23.880910
v -6.605765 -2.500000 23.980895
v -6.708717 7.500000 23.934476
v -6.499795 -2.500000 24.019936
v -6.605765 7.500000 23.980895
v -6.391336 -2.500000 24.051405
v -6.499795 7.500000 24.019936
v -6.280927 -2.500000 24.075145
v -6.391336 7.500000 24.051405
v -6.169118 -2.500000 24.091037
v -6.280927 7.500000 24.075145
v -6.056466 -2.500000 24.099003
v -6.169118 7.500000 24.091037
v -5.943534 -2.500000 24.099003
v -6.056466 7.500000 24.099003
v -5.830882 -2.500000 24.091037
v -5.943534 7.500000 24.099003
v -5.719073 -2.500000 24.075145
v -5.830882 7.500000 24.091037
v -5.608664 -2.500000 24.051405
v -5.719073 7.500000 24.075145
v -5.500205 -2.500000 24.019936
v -5.608664 7.500000 24.051405
v -5.394235 -2.500000 23.980895
v -5.500205 7.500000 24.019936
v -5.291283 -2.500000 23.934476
v -5.394235 7.500000 23.980895
v -5.191862 -2.500000 23.880910
v -5.291283 7.500000 23.934476
v -5.096467 -2.500000 23.820465
v -5.191862 7.500000 23.880910
v -5.005574 -2.500000 23.753442
v -5.096467 7.500000 23.820465
v -4.919634 -2.500000 23.680174
v -5.005574 7.500000 23.753442
v -4.839077 -2.500000 23.601026
v -4.919634 7.500000 23.680174
v -4.764304 -2.500000 23.516393
v -4.839077 7.500000 23.601026
v -4.695686 -2.500000 23.426696
v -4.764304 7.500000 23.516393
v -4.633567 -2.500000 23.332383
v -4.695686 7.500000 23.426696
v -4.578256 -2.500000 23.233923
v -4.633567 7.500000 23.332383
v -4.530027 -2.500000 23.131806
v -4.578256 7.500000 23.233923
v -4.489122 -2.500000 23.026542
v -4.530027 7.500000 23.131806
v -4.455743 -2.500000 22.918655
v -4.489122 7.500000 23.026542
v -4.430059 -2.500000 22.808682
v -4.455743 7.500000 22.918655
v -4.412195 -2.500000 22.697171
v -4.430059 7.500000 22.808682
v -4.402242 -2.500000 22.584678
v -4.412195 7.500000 22.697171
v -4.400249 -2.500000 22.471762
v -4.402242 7.500000 22.584678
v -4.406226 -2.500000 22.358988
v -4.400249 7.500000 22.471762
v -4.420143 -2.500000 22.246916
v -4.406226 7.500000 22.358988
v -4.441931 -2.500000 22.136105
v -4.420143 7.500000 22.246916
v -4.471480 -2.500000 22.027107
v -4.441931 7.500000 22.136105
v -4.508645 -2.500000 21.920465
v -4.471480 7.500000 22.027107
v -4.553240 -2.500000 21.816710
v -4.508645 7.500000 21.920465
v -4.605042 -2.500000 21.716359
v -4.553240 7.500000 21.816710
v -4.663795 -2.500000 21.619912
v -4.605042 7.500000 21.716359
v -4.729203 -2.500000 21.527850
v -4.663795 7.500000 21.619912
v -4.800943 -2.500000 21.440631
v -4.729203 7.500000 21.527850
v -4.878657 -2.500000 21.358689
v -4.800943 7.500000 21.440631
v -4.961957 -2.500000 21.282434
v -4.878657 7.500000 21.358689
v -5.050429 -2.500000 21.212244
v -4.961957 7.500000 21.282434
v -5.143631 -2.500000 21.148470
v -5.050429 7.500000 21.212244
v -5.241100 -2.500000 21.091430
v -5.143631 7.500000 21.148470
v -5.342349 -2.500000 21.041406
v -5.241100 7.500000 21.091430
v -5.446875 -2.500000 20.998650
v -5.342349 7.500000 21.041406
v -5.554157 -2.500000 20.963373
v -5.446875 7.500000 20.998650
v -5.663659 -2.500000 20.935751
v -5.554157 7.500000 20.963373
v -5.774838 -2.500000 20.915922
v -5.663659 7.500000 20.935751
v -5.887138 -2.500000 20.903986
v -5.774838 7.500000 20.915922
v -5.887138 7.500000 20.903986
v 19.749213 7.500000 -1.091348
v 19.684034 7.500000 -1.216550
v 18.894958 7.500000 -0.783641
v 19.611893 7.500000 -1.337875
v 18.836205 7.500000 -0.880088
v 19.533019 7.500000 -1.454935
v 18.770797 7.500000 -0.972150
v 19.447664 7.500000 -1.567356
v 19.356100 7.500000 -1.674781
v 18.699057 7.500000 -1.059369
v 19.258620 7.500000 -1.776867
v 18.621343 7.500000 -1.141311
v 19.047168 7.500000 -1.963739
v 18.449571 7.500000 -1.287756
v 18.538043 7.500000 -1.217566
v 18.816004 7.500000 -2.125590
v 15.000000 7.500000 -4.488170
v 17.725162 7.500000 -1.584078
v 17.387138 7.500000 -1.596014
v 17.500000 7.500000 -1.600000
v 19.996015 7.500000 -0.141096
v 19.093774 7.500000 -0.141012
v 19.099751 7.500000 -0.028238
v 19.984073 7.500000 -0.281743
v 19.964213 7.500000 -0.421491
v 19.079857 7.500000 -0.253084
v 19.936497 7.500000 -0.559896
v 19.058069 7.500000 -0.363895
v 19.857876 7.500000 -0.830915
v 18.991355 7.500000 -0.579535
v 19.028520 7.500000 -0.472893
v 19.155533 7.500000 -1.873289
v 17.836341 7.500000 -1.564249
v 17.612862 7.500000 -1.596014
v 17.163659 7.500000 -1.564249
v 17.274838 7.500000 -1.584078
v 20.000000 7.500000 0.000000
v 19.901013 7.500000 -0.696516
v 18.933872 7.500000 -2.047929
v 18.356369 7.500000 -1.351530
v 17.945843 7.500000 -1.536627
v 15.000000 7.500000 4.488170
v 15.902242 7.500000 0.084678
v 15.900000 7.500000 0.000000
v -8.348020 7.500000 23.358373
v 18.816004 7.500000 2.125590
v 18.933872 7.500000 2.047929
v 18.403533 7.500000 1.320465
v 19.936497 7.500000 0.559896
v 19.069941 7.500000 0.308682
v 19.044257 7.500000 0.418655
v 19.807222 7.500000 -0.962666
v 18.258900 7.500000 -1.408570
v 18.053125 7.500000 -1.501350
v 18.157651 7.500000 -1.458594
v 16.053240 7.500000 -0.683290
v 16.105042 7.500000 -0.783641
v 15.900249 7.500000 -0.028238
v -10.000000 7.500000 20.000000
v -4.247917 7.500000 24.283313
v -4.151744 7.500000 24.183434
v 18.308138 7.500000 1.380910
v 19.047168 7.500000 1.963739
v 18.494426 7.500000 1.253442
v 19.258620 7.500000 1.776867
v 18.660923 7.500000 1.101026
v 18.580366 7.500000 1.180174
v 19.684034 7.500000 1.216550
v 18.921744 7.500000 0.733923
v 18.866433 7.500000 0.832383
v 19.901013 7.500000 0.696516
v 19.964213 7.500000 0.421491
v 19.984073 7.500000 0.281743
v 19.087805 7.500000 0.197171
v 19.996015 7.500000 0.141096
v 19.097758 7.500000 0.084678
v 18.946760 7.500000 -0.683290
v 16.946875 7.500000 -1.501350
v 17.054157 7.500000 -1.536627
v 16.550429 7.500000 -1.287756
v 16.643631 7.500000 -1.351530
v 16.163795 7.500000 -0.880088
v -8.173404 7.500000 23.735441
v -7.752083 7.500000 24.283313
v -6.000000 7.500000 25.000000
v -3.000000 7.500000 17.692702
v -10.000000 7.500000 17.692702
v -4.349480 7.500000 24.377707
v 17.780927 7.500000 1.575145
v 17.999795 7.500000 1.519936
v 17.891336 7.500000 1.551405
v 19.155533 7.500000 1.873289
v 19.356100 7.500000 1.674781
v 19.447664 7.500000 1.567356
v 18.735696 7.500000 1.016393
v 19.611893 7.500000 1.337875
v 19.749213 7.500000 1.091348
v 19.807222 7.500000 0.962666
v 18.969973 7.500000 0.631806
v 19.857876 7.500000 0.830915
v 19.010878 7.500000 0.526542
v 16.842349 7.500000 -1.458594
v 16.741100 7.500000 -1.408570
v 16.378657 7.500000 -1.141311
v 16.461957 7.500000 -1.217566
v 16.229203 7.500000 -0.972150
v 15.912195 7.500000 0.197171
v 17.219073 7.500000 1.575145
v 17.108664 7.500000 1.551405
v -8.238555 7.500000 23.613046
v -7.848256 7.500000 24.183434
v -6.684507 7.500000 24.904465
v -6.550149 7.500000 24.938716
v -6.414099 7.500000 24.965466
v -6.276776 7.500000 24.984632
v -6.138601 7.500000 24.996155
v -2.000000 7.500000 20.000000
v -4.567508 7.500000 24.548894
v -4.456119 7.500000 24.466325
v -3.826596 7.500000 23.735441
v -3.761445 7.500000 23.613046
v 18.208717 7.500000 1.434476
v 18.105765 7.500000 1.480895
v 19.533019 7.500000 1.454935
v 18.804314 7.500000 0.926696
v 16.300943 7.500000 -1.059369
v 16.008645 7.500000 -0.579535
v 15.920143 7.500000 -0.253084
v 15.941931 7.500000 -0.363895
v 15.906226 7.500000 -0.141012
v 15.955743 7.500000 0.418655
v 15.930059 7.500000 0.308682
v 16.596467 7.500000 1.320465
v 16.505574 7.500000 1.253442
v 16.791283 7.500000 1.434476
v 16.691862 7.500000 1.380910
v 17.000205 7.500000 1.519936
v 16.894235 7.500000 1.480895
v 17.330882 7.500000 1.591037
v 17.556466 7.500000 1.599003
v 17.443534 7.500000 1.599003
v 7.000000 7.500000 16.992702
v -3.000000 7.500000 16.992702
v 15.000000 7.500000 20.000000
v 9.936567 7.500000 16.039504
v 9.775578 7.500000 16.151572
v 10.391461 7.500000 15.666668
v 10.244745 7.500000 15.796866
v 11.538503 7.500000 14.090806
v 11.452716 7.500000 14.267206
v 11.689001 7.500000 13.728594
v 11.617305 7.500000 13.911176
v -8.101568 7.500000 23.854035
v -8.023268 7.500000 23.968465
v -7.938743 7.500000 24.078377
v -7.650520 7.500000 24.377707
v -7.543881 7.500000 24.466325
v -7.432492 7.500000 24.548894
v -7.196853 7.500000 24.694890
v -7.073326 7.500000 24.757869
v -6.816758 7.500000 24.862817
v -5.861399 7.500000 24.996155
v -4.803147 7.500000 24.694890
v -4.061257 7.500000 24.078377
v -3.976732 7.500000 23.968465
v -3.898432 7.500000 23.854035
v -3.703180 7.500000 23.487228
v -3.651980 7.500000 23.358373
v 17.669118 7.500000 1.591037
v 15.971480 7.500000 -0.472893
v 16.030027 7.500000 0.631806
v 15.989122 7.500000 0.526542
v 16.195686 7.500000 0.926696
v 16.133567 7.500000 0.832383
v 16.339077 7.500000 1.101026
v 16.264304 7.500000 1.016393
v 16.419634 7.500000 1.180174
v 7.587144 7.500000 16.958109
v 7.391932 7.500000 16.977317
v 9.091478 7.500000 16.534259
v 8.911733 7.500000 16.612799
v 9.441039 7.500000 16.356342
v 9.268003 7.500000 16.448730
v 9.610317 7.500000 16.257238
v 10.093036 7.500000 15.921208
v 10.669014 7.500000 15.389520
v 10.532956 7.500000 15.530817
v 11.810643 7.500000 13.355699
v 11.753480 7.500000 13.543340
v 11.902682 7.500000 12.974416
v 11.860403 7.500000 13.165961
v -7.316697 7.500000 24.625161
v -6.946498 7.500000 24.813902
v -5.315493 7.500000 24.904465
v -5.183242 7.500000 24.862817
v -4.926674 7.500000 24.757869
v -4.683303 7.500000 24.625161
v 16.078256 7.500000 0.733923
v 7.196117 7.500000 16.988854
v 7.781452 7.500000 16.931258
v 8.166163 7.500000 16.854808
v 7.974558 7.500000 16.896807
v 10.799425 7.500000 15.242995
v 11.042514 7.500000 14.935171
v 10.923989 7.500000 15.091468
v 11.260725 7.500000 14.609240
v 11.154816 7.500000 14.774346
v 11.360075 7.500000 14.440106
v 11.964550 7.500000 12.587093
v 11.937415 7.500000 12.781361
v 11.995866 7.500000 12.196111
v 11.984043 7.500000 12.391909
v 12.000000 7.500000 12.000000
v -5.585901 7.500000 24.965466
v -5.449851 7.500000 24.938716
v -5.053502 7.500000 24.813902
v 8.355974 7.500000 16.805326
v 8.729046 7.500000 16.684228
v 8.543698 7.500000 16.748436
v -8.296820 7.500000 23.487228
v -5.723224 7.500000 24.984632
v 12.000000 7.500000 -20.000000
v 15.000000 7.500000 -20.000000
v 15.000000 -2.500000 20.000000
v 15.000000 -2.500000 4.488170
v 15.000000 -2.500000 -20.000000
v 15.000000 -2.500000 -4.488170
v -2.000000 -2.500000 20.000000
v -10.000000 -2.500000 20.000000
v -8.348020 -2.500000 23.358373
v -3.651980 -2.500000 23.358373
v -3.703180 -2.500000 23.487228
v -3.761445 -2.500000 23.613046
v -3.826596 -2.500000 23.735441
v -3.898432 -2.500000 23.854035
v -3.976732 -2.500000 23.968465
v -4.061257 -2.500000 24.078377
v -4.151744 -2.500000 24.183434
v -4.247917 -2.500000 24.283313
v -4.349480 -2.500000 24.377707
v -4.456119 -2.500000 24.466325
v -4.567508 -2.500000 24.548894
v -4.683303 -2.500000 24.625161
v -4.803147 -2.500000 24.694890
v -4.926674 -2.500000 24.757869
v -5.053502 -2.500000 24.813902
v -5.183242 -2.500000 24.862817
v -5.315493 -2.500000 24.904465
v -5.449851 -2.500000 24.938716
v -5.585901 -2.500000 24.965466
v -5.723224 -2.500000 24.984632
v -5.861399 -2.500000 24.996155
v -6.000000 -2.500000 25.000000
v -6.138601 -2.500000 24.996155
v -6.276776 -2.500000 24.984632
v -6.414099 -2.500000 24.965466
v -6.550149 -2.500000 24.938716
v -6.684507 -2.500000 24.904465
v -6.816758 -2.500000 24.862817
v -6.946498 -2.500000 24.813902
v -7.073326 -2.500000 24.757869
v -7.196853 -2.500000 24.694890
v -7.316697 -2.500000 24.625161
v -7.432492 -2.500000 24.548894
v -7.543881 -2.500000 24.466325
v -7.650520 -2.500000 24.377707
v -7.752083 -2.500000 24.283313
v -7.848256 -2.500000 24.183434
v -7.938743 -2.500000 24.078377
v -8.023268 -2.500000 23.968465
v -8.101568 -2.500000 23.854035
v -8.173404 -2.500000 23.735441
v -8.238555 -2.500000 23.613046
v -8.296820 -2.500000 23.487228
v 18.816004 -2.500000 2.125590
v 18.816004 -2.500000 -2.125590
v 18.933872 -2.500000 -2.047929
v 19.047168 -2.500000 -1.963739
v 19.155533 -2.500000 -1.873289
v 19.258620 -2.500000 -1.776867
v 19.356100 -2.500000 -1.674781
v 19.447664 -2.500000 -1.567356
v 19.533019 -2.500000 -1.454935
v 19.611893 -2.500000 -1.337875
v 19.684034 -2.500000 -1.216550
v 19.749213 -2.500000 -1.091348
v 19.807222 -2.500000 -0.962666
v 19.857876 -2.500000 -0.830915
v 19.901013 -2.500000 -0.696516
v 19.936497 -2.500000 -0.559896
v 19.964213 -2.500000 -0.421491
v 19.984073 -2.500000 -0.281743
v 19.996015 -2.500000 -0.141096
v 20.000000 -2.500000 0.000000
v 19.996015 -2.500000 0.141096
v 19.984073 -2.500000 0.281743
v 19.964213 -2.500000 0.421491
v 19.936497 -2.500000 0.559896
v 19.901013 -2.500000 0.696516
v 19.857876 -2.500000 0.830915
v 19.807222 -2.500000 0.962666
v 19.749213 -2.500000 1.091348
v 19.684034 -2.500000 1.216550
v 19.611893 -2.500000 1.337875
v 19.533019 -2.500000 1.454935
v 19.447664 -2.500000 1.567356
v 19.356100 -2.500000 1.674781
v 19.258620 -2.500000 1.776867
v 19.155533 -2.500000 1.873289
v 19.047168 -2.500000 1.963739
v 18.933872 -2.500000 2.047929
v 17.387138 -2.500000 -1.596014
v 17.500000 -2.500000 -1.600000
v 17.274838 -2.500000 -1.584078
v 17.163659 -2.500000 -1.564249
v 17.054157 -2.500000 -1.536627
v 16.946875 -2.500000 -1.501350
v 16.842349 -2.500000 -1.458594
v 16.741100 -2.500000 -1.408570
v 16.643631 -2.500000 -1.351530
v 16.550429 -2.500000 -1.287756
v 16.461957 -2.500000 -1.217566
v 16.378657 -2.500000 -1.141311
v 16.300943 -2.500000 -1.059369
v 16.229203 -2.500000 -0.972150
v 16.163795 -2.500000 -0.880088
v 16.105042 -2.500000 -0.783641
v 16.053240 -2.500000 -0.683290
v 16.008645 -2.500000 -0.579535
v 15.971480 -2.500000 -0.472893
v 15.941931 -2.500000 -0.363895
v 15.920143 -2.500000 -0.253084
v 15.906226 -2.500000 -0.141012
v 15.900249 -2.500000 -0.028238
v 15.902242 -2.500000 0.084678
v 15.900000 -2.500000 0.000000
v 15.912195 -2.500000 0.197171
v 15.930059 -2.500000 0.308682
v 15.955743 -2.500000 0.418655
v 15.989122 -2.500000 0.526542
v 16.030027 -2.500000 0.631806
v 16.078256 -2.500000 0.733923
v 16.133567 -2.500000 0.832383
v 16.195686 -2.500000 0.926696
v 16.264304 -2.500000 1.016393
v 16.339077 -2.500000 1.101026
v 16.419634 -2.500000 1.180174
v 16.505574 -2.500000 1.253442
v 16.596467 -2.500000 1.320465
v 16.691862 -2.500000 1.380910
v 16.791283 -2.500000 1.434476
v 16.894235 -2.500000 1.480895
v 17.000205 -2.500000 1.519936
v 17.108664 -2.500000 1.551405
v 17.219073 -2.500000 1.575145
v 17.330882 -2.500000 1.591037
v 17.443534 -2.500000 1.599003
v 17.556466 -2.500000 1.599003
v 17.669118 -2.500000 1.591037
v 17.780927 -2.500000 1.575145
v 17.891336 -2.500000 1.551405
v 17.999795 -2.500000 1.519936
v 18.105765 -2.500000 1.480895
v 18.208717 -2.500000 1.434476
v 18.308138 -2.500000 1.380910
v 18.403533 -2.500000 1.320465
v 18.494426 -2.500000 1.253442
v 18.580366 -2.500000 1.180174
v 18.660923 -2.500000 1.101026
v 18.735696 -2.500000 1.016393
v 18.804314 -2.500000 0.926696
v 18.866433 -2.500000 0.832383
v 18.921744 -2.500000 0.733923
v 18.969973 -2.500000 0.631806
v 19.010878 -2.500000 0.526542
v 19.044257 -2.500000 0.418655
v 19.069941 -2.500000 0.308682
v 19.087805 -2.500000 0.197171
v 19.097758 -2.500000 0.084678
v 19.099751 -2.500000 -0.028238
v 19.093774 -2.500000 -0.141012
v 19.079857 -2.500000 -0.253084
v 19.058069 -2.500000 -0.363895
v 19.028520 -2.500000 -0.472893
v 18.991355 -2.500000 -0.579535
v 18.946760 -2.500000 -0.683290
v 18.894958 -2.500000 -0.783641
v 18.836205 -2.500000 -0.880088
v 18.770797 -2.500000 -0.972150
v 18.699057 -2.500000 -1.059369
v 18.621343 -2.500000 -1.141311
v 18.538043 -2.500000 -1.217566
v 18.449571 -2.500000 -1.287756
v 18.356369 -2.500000 -1.351530
v 18.258900 -2.500000 -1.408570
v 18.157651 -2.500000 -1.458594
v 18.053125 -2.500000 -1.501350
v 17.945843 -2.500000 -1.536627
v 17.836341 -2.500000 -1.564249
v 17.725162 -2.500000 -1.584078
v 17.612862 -2.500000 -1.596014
v 12.000000 0.000000 -20.000000
v 12.000000 0.000000 12.000000
v 7.196117 0.000000 16.988854
v 7.000000 0.000000 16.992702
v 7.391932 0.000000 16.977317
v 7.587144 0.000000 16.958109
v 7.781452 0.000000 16.931258
v 7.974558 0.000000 16.896807
v 8.166163 0.000000 16.854808
v 8.355974 0.000000 16.805326
v 8.543698 0.000000 16.748436
v 8.729046 0.000000 16.684228
v 8.911733 0.000000 16.612799
v 9.091478 0.000000 16.534259
v 9.268003 0.000000 16.448730
v 9.441039 0.000000 16.356342
v 9.610317 0.000000 16.257238
v 9.775578 0.000000 16.151572
v 9.936567 0.000000 16.039504
v 10.093036 0.000000 15.921208
v 10.244745 0.000000 15.796866
v 10.391461 0.000000 15.666668
v 10.532956 0.000000 15.530817
v 10.669014 0.000000 15.389520
v 10.799425 0.000000 15.242995
v 10.923989 0.000000 15.091468
v 11.042514 0.000000 14.935171
v 11.154816 0.000000 14.774346
v 11.260725 0.000000 14.609240
v 11.360075 0.000000 14.440106
v 11.452716 0.000000 14.267206
v 11.538503 0.000000 14.090806
v 11.617305 0.000000 13.911176
v 11.689001 0.000000 13.728594
v 11.753480 0.000000 13.543340
v 11.810643 0.000000 13.355699
v 11.860403 0.000000 13.165961
v 11.902682 0.000000 12.974416
v 11.937415 0.000000 12.781361
v 11.964550 0.000000 12.587093
v 11.984043 0.000000 12.391909
v 11.995866 0.000000 12.196111
v -3.000000 0.000000 16.992702
v -3.000000 0.000000 17.692702
v -10.000000 0.000000 17.692702
v 5.000000 0.000000 -20.000000
v 7.000000 0.000000 -20.000000
v 7.000000 7.500000 -20.000000
v 5.000000 7.500000 -20.000000
v -3.000000 -2.500000 -20.000000
v -3.000000 0.000000 -20.000000
v 5.000000 0.000000 -14.521895
v 5.000000 7.500000 -14.521895
v 7.000000 7.500000 5.000000
v 7.000000 0.000000 5.000000
v 7.031633 7.500000 5.195187
v 7.031633 0.000000 5.195187
v 7.055649 7.500000 5.391456
v 7.055649 0.000000 5.391456
v 7.072012 7.500000 5.588511
v 7.072012 0.000000 5.588511
v 7.080698 7.500000 5.786053
v 7.080698 0.000000 5.786053
v 7.081693 7.500000 5.983784
v 7.081693 0.000000 5.983784
v 7.074995 7.500000 6.181404
v 7.074995 0.000000 6.181404
v 7.060615 7.500000 6.378613
v 7.060615 0.000000 6.378613
v 7.038575 7.500000 6.575115
v 7.038575 0.000000 6.575115
v 7.008907 7.500000 6.770609
v 7.008907 0.000000 6.770609
v 6.971658 7.500000 6.964802
v 6.971658 0.000000 6.964802
v 6.926882 7.500000 7.157399
v 6.926882 0.000000 7.157399
v 6.874649 7.500000 7.348109
v 6.874649 0.000000 7.348109
v 6.815036 7.500000 7.536642
v 6.815036 0.000000 7.536642
v 6.748135 7.500000 7.722714
v 6.748135 0.000000 7.722714
v 6.674046 7.500000 7.906042
v 6.674046 0.000000 7.906042
v 6.592882 7.500000 8.086350
v 6.592882 0.000000 8.086350
v 6.504766 7.500000 8.263364
v 6.504766 0.000000 8.263364
v 6.409830 7.500000 8.436816
v 6.409830 0.000000 8.436816
v 6.308219 7.500000 8.606444
v 6.308219 0.000000 8.606444
v 6.200087 7.500000 8.771991
v 6.200087 0.000000 8.771991
v 6.085597 7.500000 8.933206
v 6.085597 0.000000 8.933206
v 5.964922 7.500000 9.089846
v 5.964922 0.000000 9.089846
v 5.838245 7.500000 9.241673
v 5.838245 0.000000 9.241673
v 5.705759 7.500000 9.388458
v 5.705759 0.000000 9.388458
v 5.567662 7.500000 9.529978
v 5.567662 0.000000 9.529978
v 5.424165 7.500000 9.666018
v 5.424165 0.000000 9.666018
v 5.275485 7.500000 9.796374
v 5.275485 0.000000 9.796374
v 5.121847 7.500000 9.920848
v 5.121847 0.000000 9.920848
v 4.963483 7.500000 10.039251
v 4.963483 0.000000 10.039251
v 4.800633 7.500000 10.151404
v 4.800633 0.000000 10.151404
v 4.633543 7.500000 10.257137
v 4.633543 0.000000 10.257137
v 4.462467 7.500000 10.356291
v 4.462467 0.000000 10.356291
v 4.287664 7.500000 10.448714
v 4.287664 0.000000 10.448714
v 4.109397 7.500000 10.534269
v 4.109397 0.000000 10.534269
v 3.927938 7.500000 10.612823
v 3.927938 0.000000 10.612823
v 3.743560 7.500000 10.684260
v 3.743560 0.000000 10.684260
v 3.556543 7.500000 10.748471
v 3.556543 0.000000 10.748471
v 3.367169 7.500000 10.805358
v 3.367169 0.000000 10.805358
v 3.175726 7.500000 10.854835
v 3.175726 0.000000 10.854835
v 2.982503 7.500000 10.896828
v 2.982503 0.000000 10.896828
v 2.787793 7.500000 10.931273
v 2.787793 0.000000 10.931273
v 2.591891 7.500000 10.958117
v 2.591891 0.000000 10.958117
v 2.395092 7.500000 10.977321
v 2.395092 0.000000 10.977321
v 2.197696 7.500000 10.988855
v 2.197696 0.000000 10.988855
v 2.000000 7.500000 10.992702
v 2.000000 0.000000 10.992702
v -3.000000 7.500000 10.992702
v -3.000000 0.000000 10.992702
v -3.000000 7.500000 8.992702
v -3.000000 0.000000 8.992702
v 2.000000 7.500000 8.992702
v 2.000000 0.000000 8.992702
v 2.156344 0.000000 8.988786
v 2.312297 0.000000 8.977050
v 2.156344 7.500000 8.988786
v 2.467466 0.000000 8.957522
v 2.312297 7.500000 8.977050
v 2.621464 0.000000 8.930251
v 2.467466 7.500000 8.957522
v 2.773903 0.000000 8.895306
v 2.621464 7.500000 8.930251
v 2.924403 0.000000 8.852774
v 2.773903 7.500000 8.895306
v 3.072584 0.000000 8.802763
v 2.924403 7.500000 8.852774
v 3.218076 0.000000 8.745396
v 3.072584 7.500000 8.802763
v 3.360515 0.000000 8.680819
v 3.218076 7.500000 8.745396
v 3.499542 0.000000 8.609193
v 3.360515 7.500000 8.680819
v 3.634810 0.000000 8.530698
v 3.499542 7.500000 8.609193
v 3.765979 0.000000 8.445530
v 3.634810 7.500000 8.530698
v 3.892721 0.000000 8.353903
v 3.765979 7.500000 8.445530
v 4.014717 0.000000 8.256047
v 3.892721 7.500000 8.353903
v 4.131662 0.000000 8.152207
v 4.014717 7.500000 8.256047
v 4.243263 0.000000 8.042643
v 4.131662 7.500000 8.152207
v 4.349239 0.000000 7.927630
v 4.243263 7.500000 8.042643
v 4.449326 0.000000 7.807457
v 4.349239 7.500000 7.927630
v 4.543272 0.000000 7.682425
v 4.449326 7.500000 7.807457
v 4.630841 0.000000 7.552846
v 4.543272 7.500000 7.682425
v 4.711815 0.000000 7.419047
v 4.630841 7.500000 7.552846
v 4.785989 0.000000 7.281363
v 4.711815 7.500000 7.419047
v 4.853179 0.000000 7.140138
v 4.785989 7.500000 7.281363
v 4.913215 0.000000 6.995727
v 4.853179 7.500000 7.140138
v 4.965948 0.000000 6.848491
v 4.913215 7.500000 6.995727
v 5.011244 0.000000 6.698801
v 4.965948 7.500000 6.848491
v 5.048991 0.000000 6.547031
v 5.011244 7.500000 6.698801
v 5.079093 0.000000 6.393562
v 5.048991 7.500000 6.547031
v 5.101476 0.000000 6.238779
v 5.079093 7.500000 6.393562
v 5.116083 0.000000 6.083069
v 5.101476 7.500000 6.238779
v 5.122877 0.000000 5.926823
v 5.116083 7.500000 6.083069
v 5.121842 0.000000 5.770433
v 5.122877 7.500000 5.926823
v 5.112980 0.000000 5.614291
v 5.121842 7.500000 5.770433
v 5.096313 0.000000 5.458788
v 5.112980 7.500000 5.614291
v 5.071884 0.000000 5.304314
v 5.096313 7.500000 5.458788
v 5.039752 0.000000 5.151257
v 5.071884 7.500000 5.304314
v 5.000000 0.000000 5.000000
v 5.039752 7.500000 5.151257
v 5.000000 7.500000 5.000000
v 5.000000 7.500000 -5.521895
v 5.000000 0.000000 -5.521895
v 4.996036 7.500000 -14.355358
v 4.984152 7.500000 -14.189199
v 4.996036 0.000000 -14.355358
v 4.964375 7.500000 -14.023793
v 4.984152 0.000000 -14.189199
v 4.936750 7.500000 -13.859515
v 4.964375 0.000000 -14.023793
v 4.901340 7.500000 -13.696739
v 4.936750 0.000000 -13.859515
v 4.858225 7.500000 -13.535831
v 4.901340 0.000000 -13.696739
v 4.807503 7.500000 -13.377157
v 4.858225 0.000000 -13.535831
v 4.749288 7.500000 -13.221076
v 4.807503 0.000000 -13.377157
v 4.683712 7.500000 -13.067942
v 4.749288 0.000000 -13.221076
v 4.610924 7.500000 -12.918102
v 4.683712 0.000000 -13.067942
v 4.531089 7.500000 -12.771895
v 4.610924 0.000000 -12.918102
v 4.444387 7.500000 -12.629652
v 4.531089 0.000000 -12.771895
v 4.351016 7.500000 -12.491696
v 4.444387 0.000000 -12.629652
v 4.251186 7.500000 -12.358338
v 4.351016 0.000000 -12.491696
v 4.145124 7.500000 -12.229882
v 4.251186 0.000000 -12.358338
v 4.033069 7.500000 -12.106618
v 4.145124 0.000000 -12.229882
v 3.915277 7.500000 -11.988826
v 4.033069 0.000000 -12.106618
v 3.792013 7.500000 -11.876771
v 3.915277 0.000000 -11.988826
v 3.663556 7.500000 -11.770709
v 3.792013 0.000000 -11.876771
v 3.530199 7.500000 -11.670879
v 3.663556 0.000000 -11.770709
v 3.392243 7.500000 -11.577507
v 3.530199 0.000000 -11.670879
v 3.250000 7.500000 -11.490806
v 3.392243 0.000000 -11.577507
v 3.103793 7.500000 -11.410971
v 3.250000 0.000000 -11.490806
v 2.953953 7.500000 -11.338183
v 3.103793 0.000000 -11.410971
v 2.800819 7.500000 -11.272607
v 2.953953 0.000000 -11.338183
v 2.644738 7.500000 -11.214392
v 2.800819 0.000000 -11.272607
v 2.486064 7.500000 -11.163669
v 2.644738 0.000000 -11.214392
v 2.325156 7.500000 -11.120554
v 2.486064 0.000000 -11.163669
v 2.162379 7.500000 -11.085144
v 2.325156 0.000000 -11.120554
v 1.998102 7.500000 -11.057520
v 2.162379 0.000000 -11.085144
v 1.832696 7.500000 -11.037743
v 1.998102 0.000000 -11.057520
v 1.666537 7.500000 -11.025859
v 1.832696 0.000000 -11.037743
v 1.500000 7.500000 -11.021895
v 1.666537 0.000000 -11.025859
v 1.500000 0.000000 -11.021895
v -3.000000 0.000000 -11.021895
v -3.000000 7.500000 -11.021895
v 4.351016 7.500000 -7.552094
v 4.444387 7.500000 -7.414138
v 4.531089 7.500000 -7.271895
v 4.683712 7.500000 -6.975847
v 4.749288 7.500000 -6.822713
v 4.610924 7.500000 -7.125688
v 4.936750 7.500000 -6.184274
v 4.033069 7.500000 -7.937171
v 4.145124 7.500000 -7.813907
v 3.792013 7.500000 -8.167018
v 3.915277 7.500000 -8.054964
v 4.964375 7.500000 -6.019997
v 4.984152 7.500000 -5.854591
v 4.251186 7.500000 -7.685451
v 3.392243 7.500000 -8.466282
v 3.530199 7.500000 -8.372911
v 4.858225 7.500000 -6.507959
v 4.996036 7.500000 -5.688431
v 2.644738 7.500000 -8.829398
v 3.663556 7.500000 -8.273081
v 3.250000 7.500000 -8.552984
v 4.807503 7.500000 -6.666633
v 1.832696 7.500000 -9.006047
v 2.800819 7.500000 -8.771183
v 2.953953 7.500000 -8.705607
v 4.901340 7.500000 -6.347051
v 1.998102 7.500000 -8.986270
v 3.103793 7.500000 -8.632819
v 1.500000 7.500000 -9.021895
v -3.000000 7.500000 -9.021895
v 2.162379 7.500000 -8.958645
v 2.325156 7.500000 -8.923235
v 2.486064 7.500000 -8.880120
v 1.666537 7.500000 -9.017930
v -3.000000 0.000000 -9.021895
v 1.500000 0.000000 -9.021895
v 1.666537 0.000000 -9.017930
v 1.832696 0.000000 -9.006047
v 1.998102 0.000000 -8.986270
v 2.162379 0.000000 -8.958645
v 2.325156 0.000000 -8.923235
v 2.486064 0.000000 -8.880120
v 2.644738 0.000000 -8.829398
v 2.800819 0.000000 -8.771183
v 2.953953 0.000000 -8.705607
v 3.103793 0.000000 -8.632819
v 3.250000 0.000000 -8.552984
v 3.392243 0.000000 -8.466282
v 3.530199 0.000000 -8.372911
v 3.663556 0.000000 -8.273081
v 3.792013 0.000000 -8.167018
v 3.915277 0.000000 -8.054964
v 4.033069 0.000000 -7.937171
v 4.145124 0.000000 -7.813907
v 4.251186 0.000000 -7.685451
v 4.351016 0.000000 -7.552094
v 4.444387 0.000000 -7.414138
v 4.531089 0.000000 -7.271895
v 4.610924 0.000000 -7.125688
v 4.683712 0.000000 -6.975847
v 4.749288 0.000000 -6.822713
v 4.807503 0.000000 -6.666633
v 4.858225 0.000000 -6.507959
v 4.901340 0.000000 -6.347051
v 4.936750 0.000000 -6.184274
v 4.964375 0.000000 -6.019997
v 4.984152 0.000000 -5.854591
v 4.996036 0.000000 -5.688431
v -3.000000 -2.500000 -22.062130
v -3.000000 7.500000 -22.062130
v -3.000000 7.500000 -17.700000
v -3.000000 0.000000 -17.700000
v -10.000000 7.500000 -17.700000
v -10.000000 0.000000 -17.700000
v -3.651980 -2.500000 -23.387566
v -3.651980 7.500000 -23.387566
v -8.348020 -2.500000 -23.387566
v -8.348020 7.500000 -23.387566
v -8.296820 7.500000 -23.516421
v -8.296820 -2.500000 -23.516421
v -8.238555 7.500000 -23.642239
v -8.238555 -2.500000 -23.642239
v -8.173404 7.500000 -23.764634
v -8.173404 -2.500000 -23.764634
v -8.101568 7.500000 -23.883228
v -8.101568 -2.500000 -23.883228
v -8.023268 7.500000 -23.997658
v -8.023268 -2.500000 -23.997658
v -7.938743 7.500000 -24.107570
v -7.938743 -2.500000 -24.107570
v -7.848256 7.500000 -24.212627
v -7.848256 -2.500000 -24.212627
v -7.752083 7.500000 -24.312506
v -7.752083 -2.500000 -24.312506
v -7.650520 7.500000 -24.406900
v -7.650520 -2.500000 -24.406900
v -7.543881 7.500000 -24.495518
v -7.543881 -2.500000 -24.495518
v -7.432492 7.500000 -24.578087
v -7.432492 -2.500000 -24.578087
v -7.316697 7.500000 -24.654354
v -7.316697 -2.500000 -24.654354
v -7.196853 7.500000 -24.724083
v -7.196853 -2.500000 -24.724083
v -7.073326 7.500000 -24.787062
v -7.073326 -2.500000 -24.787062
v -6.946498 7.500000 -24.843095
v -6.946498 -2.500000 -24.843095
v -6.816758 7.500000 -24.892010
v -6.816758 -2.500000 -24.892010
v -6.684507 7.500000 -24.933658
v -6.684507 -2.500000 -24.933658
v -6.550149 7.500000 -24.967909
v -6.550149 -2.500000 -24.967909
v -6.414099 7.500000 -24.994659
v -6.414099 -2.500000 -24.994659
v -6.276776 7.500000 -25.013825
v -6.276776 -2.500000 -25.013825
v -6.138601 7.500000 -25.025348
v -6.138601 -2.500000 -25.025348
v -6.000000 7.500000 -25.029193
v -6.000000 -2.500000 -25.029193
v -5.861399 7.500000 -25.025348
v -5.861399 -2.500000 -25.025348
v -5.723224 7.500000 -25.013825
v -5.723224 -2.500000 -25.013825
v -5.585901 7.500000 -24.994659
v -5.585901 -2.500000 -24.994659
v -5.449851 7.500000 -24.967909
v -5.449851 -2.500000 -24.967909
v -5.315493 7.500000 -24.933658
v -5.315493 -2.500000 -24.933658
v -5.183242 7.500000 -24.892010
v -5.183242 -2.500000 -24.892010
v -5.053502 7.500000 -24.843095
v -5.053502 -2.500000 -24.843095
v -4.926674 7.500000 -24.787062
v -4.926674 -2.500000 -24.787062
v -4.803147 7.500000 -24.724083
v -4.803147 -2.500000 -24.724083
v -4.683303 7.500000 -24.654354
v -4.683303 -2.500000 -24.654354
v -4.567508 7.500000 -24.578087
v -4.567508 -2.500000 -24.578087
v -4.456119 7.500000 -24.495518
v -4.456119 -2.500000 -24.495518
v -4.349480 7.500000 -24.406900
v -4.349480 -2.500000 -24.406900
v -4.247917 7.500000 -24.312506
v -4.247917 -2.500000 -24.312506
v -4.151744 7.500000 -24.212627
v -4.151744 -2.500000 -24.212627
v -4.061257 7.500000 -24.107570
v -4.061257 -2.500000 -24.107570
v -3.976732 7.500000 -23.997658
v -3.976732 -2.500000 -23.997658
v -3.898432 7.500000 -23.883228
v -3.898432 -2.500000 -23.883228
v -3.826596 7.500000 -23.764634
v -3.826596 -2.500000 -23.764634
v -3.761445 7.500000 -23.642239
v -3.761445 -2.500000 -23.642239
v -3.703180 7.500000 -23.516421
v -3.703180 -2.500000 -23.516421
v -10.000000 -2.500000 -20.029193
v -10.000000 7.500000 -20.029193
v -9.986719 -2.500000 -20.029193
v -9.986719 7.500000 -20.029193
v -10.000000 -2.500000 -20.000000
v -10.000000 7.500000 -20.000000
v -5.608664 -2.500000 -20.977788
v -6.808138 -2.500000 -21.148283
v -6.708717 -2.500000 -21.094717
v -5.830882 -2.500000 -20.938156
v -6.605765 -2.500000 -21.048299
v -5.005574 -2.500000 -21.275751
v -4.919634 -2.500000 -21.349020
v -5.943534 -2.500000 -20.930190
v -7.336205 -2.500000 -23.409281
v -7.394958 -2.500000 -23.312834
v -7.270797 -2.500000 -23.501343
v -7.599751 -2.500000 -22.557431
v -6.169118 -2.500000 -20.938156
v -6.056466 -2.500000 -20.930190
v -6.391336 -2.500000 -20.977788
v -6.280927 -2.500000 -20.954049
v -7.235696 -2.500000 -21.512800
v -7.160923 -2.500000 -21.428167
v -4.530027 -2.500000 -21.897387
v -4.633567 -2.500000 -21.696810
v -4.578256 -2.500000 -21.795270
v -4.839077 -2.500000 -21.428167
v -4.729203 -2.500000 -23.501343
v -4.800943 -2.500000 -23.588562
v -4.508645 -2.500000 -23.108728
v -7.446760 -2.500000 -23.212483
v -7.491355 -2.500000 -23.108728
v -7.600000 -2.500000 -22.529193
v -6.499795 -2.500000 -21.009257
v -6.903533 -2.500000 -21.208728
v -7.080366 -2.500000 -21.349020
v -6.994426 -2.500000 -21.275751
v -7.304314 -2.500000 -21.602497
v -4.412195 -2.500000 -22.332022
v -4.402242 -2.500000 -22.444516
v -4.489122 -2.500000 -22.002651
v -4.455743 -2.500000 -22.110538
v -4.764304 -2.500000 -21.512800
v -4.695686 -2.500000 -21.602497
v -5.096467 -2.500000 -21.208728
v -5.719073 -2.500000 -20.954049
v -5.774838 -2.500000 -24.113271
v -5.887138 -2.500000 -24.125207
v -5.342349 -2.500000 -23.987787
v -5.143631 -2.500000 -23.880723
v -5.241100 -2.500000 -23.937763
v -5.050429 -2.500000 -23.816949
v -4.961957 -2.500000 -23.746759
v -4.663795 -2.500000 -23.409281
v -4.553240 -2.500000 -23.212483
v -4.605042 -2.500000 -23.312834
v -7.199057 -2.500000 -23.588562
v -7.121343 -2.500000 -23.670504
v -7.038043 -2.500000 -23.746759
v -6.553125 -2.500000 -24.030543
v -6.657651 -2.500000 -23.987787
v -6.112862 -2.500000 -24.125207
v -7.593774 -2.500000 -22.670205
v -7.366433 -2.500000 -21.696810
v -4.406226 -2.500000 -22.670205
v -4.420143 -2.500000 -22.782277
v -4.400249 -2.500000 -22.557431
v -6.000000 -2.500000 -24.129193
v -5.554157 -2.500000 -24.065820
v -5.446875 -2.500000 -24.030543
v -4.878657 -2.500000 -23.670504
v -6.949571 -2.500000 -23.816949
v -6.856369 -2.500000 -23.880723
v -6.758900 -2.500000 -23.937763
v -6.445843 -2.500000 -24.065820
v -6.336341 -2.500000 -24.093442
v -6.225162 -2.500000 -24.113271
v -7.597758 -2.500000 -22.444516
v -7.558069 -2.500000 -22.893088
v -7.579857 -2.500000 -22.782277
v -4.430059 -2.500000 -22.220511
v -5.291283 -2.500000 -21.094717
v -5.191862 -2.500000 -21.148283
v -5.394235 -2.500000 -21.048299
v -5.500205 -2.500000 -21.009257
v -5.663659 -2.500000 -24.093442
v -4.471480 -2.500000 -23.002086
v -7.544257 -2.500000 -22.110538
v -7.510878 -2.500000 -22.002651
v -7.587805 -2.500000 -22.332022
v -7.528520 -2.500000 -23.002086
v -4.441931 -2.500000 -22.893088
v -7.421744 -2.500000 -21.795270
v -7.569941 -2.500000 -22.220511
v -7.469973 -2.500000 -21.897387
v -4.553240 7.500000 -23.212483
v -4.508645 7.500000 -23.108728
v -4.800943 7.500000 -23.588562
v -5.446875 7.500000 -24.030543
v -5.342349 7.500000 -23.987787
v -4.605042 7.500000 -23.312834
v -4.729203 7.500000 -23.501343
v -4.663795 7.500000 -23.409281
v -5.050429 7.500000 -23.816949
v -4.961957 7.500000 -23.746759
v -5.143631 7.500000 -23.880723
v -5.241100 7.500000 -23.937763
v -5.887138 7.500000 -24.125207
v -6.225162 7.500000 -24.113271
v -6.112862 7.500000 -24.125207
v -4.839077 7.500000 -21.428167
v -4.919634 7.500000 -21.349020
v -4.578256 7.500000 -21.795270
v -7.600000 7.500000 -22.529193
v -7.599751 7.500000 -22.557431
v -4.878657 7.500000 -23.670504
v -5.554157 7.500000 -24.065820
v -5.774838 7.500000 -24.113271
v -6.000000 7.500000 -24.129193
v -5.005574 7.500000 -21.275751
v -4.530027 7.500000 -21.897387
v -7.597758 7.500000 -22.444516
v -5.663659 7.500000 -24.093442
v -6.336341 7.500000 -24.093442
v -6.445843 7.500000 -24.065820
v -6.553125 7.500000 -24.030543
v -6.657651 7.500000 -23.987787
v -7.121343 7.500000 -23.670504
v -7.199057 7.500000 -23.588562
v -7.270797 7.500000 -23.501343
v -7.336205 7.500000 -23.409281
v -7.394958 7.500000 -23.312834
v -7.446760 7.500000 -23.212483
v -4.764304 7.500000 -21.512800
v -4.633567 7.500000 -21.696810
v -4.695686 7.500000 -21.602497
v -4.489122 7.500000 -22.002651
v -4.430059 7.500000 -22.220511
v -4.455743 7.500000 -22.110538
v -4.400249 7.500000 -22.557431
v -4.402242 7.500000 -22.444516
v -7.558069 7.500000 -22.893088
v -7.528520 7.500000 -23.002086
v -6.758900 7.500000 -23.937763
v -6.856369 7.500000 -23.880723
v -6.949571 7.500000 -23.816949
v -7.038043 7.500000 -23.746759
v -5.608664 7.500000 -20.977788
v -5.719073 7.500000 -20.954049
v -4.406226 7.500000 -22.670205
v -4.420143 7.500000 -22.782277
v -7.160923 7.500000 -21.428167
v -7.235696 7.500000 -21.512800
v -7.491355 7.500000 -23.108728
v -7.593774 7.500000 -22.670205
v -7.579857 7.500000 -22.782277
v -7.587805 7.500000 -22.332022
v -5.830882 7.500000 -20.938156
v -5.394235 7.500000 -21.048299
v -5.500205 7.500000 -21.009257
v -5.096467 7.500000 -21.208728
v -5.191862 7.500000 -21.148283
v -4.412195 7.500000 -22.332022
v -4.441931 7.500000 -22.893088
v -7.080366 7.500000 -21.349020
v -6.056466 7.500000 -20.930190
v -7.569941 7.500000 -22.220511
v -7.469973 7.500000 -21.897387
v -7.510878 7.500000 -22.002651
v -5.291283 7.500000 -21.094717
v -4.471480 7.500000 -23.002086
v -7.304314 7.500000 -21.602497
v -7.366433 7.500000 -21.696810
v -6.903533 7.500000 -21.208728
v -6.994426 7.500000 -21.275751
v -6.605765 7.500000 -21.048299
v -6.708717 7.500000 -21.094717
v -6.391336 7.500000 -20.977788
v -6.499795 7.500000 -21.009257
v -6.169118 7.500000 -20.938156
v -6.280927 7.500000 -20.954049
v -5.943534 7.500000 -20.930190
v -7.544257 7.500000 -22.110538
v -7.421744 7.500000 -21.795270
v -6.808138 7.500000 -21.148283
v -10.000000 0.000000 0.985403
v -10.000000 0.000000 -1.014597
v -10.000000 7.500000 -1.014597
v -10.000000 7.500000 0.985403
v -3.000015 0.000000 0.985403
v -3.000015 7.500000 0.985403
v -3.000015 0.000000 -1.014597
v -3.000008 0.000000 -0.014597
v -3.000008 7.500000 -0.014597
v -3.000015 7.500000 -1.014597
usemtl drzac_konektoraMaterial0
f 1 2 3
f 4 1 5
f 6 4 7
f 8 6 9
f 10 8 11
f 12 10 13
f 14 12 15
f 16 14 17
f 18 16 19
f 20 18 21
f 22 20 23
f 24 22 25
f 26 24 27
f 28 26 29
f 30 28 31
f 32 30 33
f 34 32 35
f 36 34 37
f 38 36 39
f 40 38 41
f 42 40 43
f 44 42 45
f 46 47 48
f 49 48 47
f 47 44 49
f 50 46 51
f 52 50 53
f 54 52 55
f 56 54 57
f 58 56 59
f 60 58 61
f 62 60 63
f 64 62 65
f 66 64 67
f 68 66 69
f 70 68 71
f 72 70 73
f 74 72 75
f 76 74 77
f 78 76 79
f 80 78 81
f 82 80 83
f 84 82 85
f 86 84 87
f 88 86 89
f 90 88 91
f 92 90 93
f 94 92 95
f 96 94 97
f 98 96 99
f 100 98 101
f 102 100 103
f 104 102 105
f 106 104 107
f 108 106 109
f 110 108 111
f 112 110 113
f 114 112 115
f 116 114 117
f 118 116 119
f 120 118 121
f 122 120 123
f 124 122 125
f 126 124 127
f 128 126 129
f 130 128 131
f 132 130 133
f 134 132 135
f 136 134 137
f 138 136 139
f 140 138 141
f 142 140 143
f 144 142 145
f 146 144 147
f 148 146 149
f 150 148 151
f 152 150 153
f 154 152 155
f 156 154 157
f 158 156 159
f 160 158 161
f 162 160 163
f 164 162 165
f 166 164 167
f 168 166 169
f 170 168 171
f 172 170 173
f 174 172 175
f 176 174 177
f 178 176 179
f 2 178 180
f 180 3 2
f 179 180 178
f 177 179 176
f 175 177 174
f 173 175 172
f 171 173 170
f 169 171 168
f 167 169 166
f 165 167 164
f 163 165 162
f 161 163 160
f 159 161 158
f 157 159 156
f 155 157 154
f 153 155 152
f 151 153 150
f 149 151 148
f 147 149 146
f 145 147 144
f 143 145 142
f 141 143 140
f 139 141 138
f 137 139 136
f 135 137 134
f 133 135 132
f 131 133 130
f 129 131 128
f 127 129 126
f 125 127 124
f 123 125 122
f 121 123 120
f 119 121 118
f 117 119 116
f 115 117 114
f 113 115 112
f 111 113 110
f 109 111 108
f 107 109 106
f 105 107 104
f 103 105 102
f 101 103 100
f 99 101 98
f 97 99 96
f 95 97 94
f 93 95 92
f 91 93 90
f 89 91 88
f 87 89 86
f 85 87 84
f 83 85 82
f 81 83 80
f 79 81 78
f 77 79 76
f 75 77 74
f 73 75 72
f 71 73 70
f 69 71 68
f 67 69 66
f 65 67 64
f 63 65 62
f 61 63 60
f 59 61 58
f 57 59 56
f 55 57 54
f 53 55 52
f 51 53 50
f 48 51 46
f 45 49 44
f 43 45 42
f 41 43 40
f 39 41 38
f 37 39 36
f 35 37 34
f 33 35 32
f 31 33 30
f 29 31 28
f 27 29 26
f 25 27 24
f 23 25 22
f 21 23 20
f 19 21 18
f 17 19 16
f 15 17 14
f 13 15 12
f 11 13 10
f 9 11 8
f 7 9 6
f 5 7 4
f 3 5 1
f 181 182 183
f 184 185 183
f 186 187 185
f 183 182 184
f 185 184 186
f 188 189 190
f 189 191 192
f 193 194 195
f 196 197 198
f 197 199 200
f 201 202 203
f 204 205 206
f 205 207 208
f 209 210 211
f 186 188 187
f 192 190 189
f 212 195 192
f 195 212 193
f 198 213 196
f 200 214 197
f 197 215 216
f 203 217 201
f 208 206 205
f 218 211 208
f 211 218 209
f 190 187 188
f 193 219 194
f 219 196 220
f 213 221 196
f 216 199 197
f 222 223 224
f 225 51 48
f 226 227 228
f 229 230 231
f 206 202 204
f 209 232 210
f 192 191 212
f 196 233 220
f 196 234 235
f 214 198 197
f 197 236 237
f 224 197 222
f 224 238 197
f 48 239 225
f 240 241 117
f 228 242 226
f 227 243 244
f 245 246 247
f 248 249 250
f 231 251 229
f 252 253 254
f 253 255 256
f 217 203 256
f 208 207 218
f 232 181 257
f 220 194 219
f 221 234 196
f 197 258 259
f 197 260 261
f 237 262 197
f 263 65 63
f 264 73 71
f 265 95 93
f 266 267 5
f 27 267 239
f 48 49 239
f 268 115 113
f 115 268 240
f 222 226 269
f 226 270 271
f 244 228 227
f 272 247 244
f 247 272 245
f 273 274 275
f 250 276 248
f 277 278 279
f 278 280 281
f 251 231 281
f 254 230 252
f 256 255 217
f 257 210 232
f 235 233 196
f 197 282 258
f 261 283 197
f 197 284 285
f 262 286 197
f 222 287 223
f 222 288 289
f 290 63 61
f 63 290 263
f 291 71 69
f 71 291 264
f 292 87 85
f 293 294 89
f 294 295 91
f 296 93 91
f 93 296 265
f 297 155 153
f 266 173 171
f 267 7 5
f 239 29 27
f 239 41 39
f 239 45 43
f 225 53 51
f 298 299 113
f 117 115 240
f 300 301 125
f 271 269 226
f 226 302 303
f 244 243 272
f 275 246 273
f 274 304 305
f 276 250 305
f 279 249 277
f 281 280 251
f 256 254 253
f 183 257 181
f 283 282 197
f 197 306 284
f 197 307 236
f 197 308 309
f 238 310 197
f 222 311 312
f 222 313 314
f 222 315 316
f 222 317 318
f 222 319 288
f 222 320 321
f 322 323 266
f 324 325 326
f 324 327 328
f 324 329 330
f 324 331 332
f 263 333 65
f 333 334 67
f 334 335 69
f 264 336 73
f 336 337 75
f 338 77 75
f 339 340 81
f 341 85 83
f 85 341 292
f 91 89 294
f 265 342 95
f 297 157 155
f 297 266 161
f 266 175 173
f 266 3 180
f 267 9 7
f 267 13 11
f 27 25 267
f 239 33 31
f 239 37 35
f 43 41 239
f 225 55 53
f 343 109 107
f 113 299 268
f 241 344 119
f 345 121 119
f 346 123 121
f 123 346 300
f 301 347 127
f 348 129 127
f 269 349 222
f 242 302 226
f 305 275 274
f 248 277 249
f 229 252 230
f 259 215 197
f 286 306 197
f 309 350 197
f 312 287 222
f 222 351 352
f 222 353 354
f 222 355 356
f 314 357 222
f 318 315 222
f 321 319 222
f 297 324 322
f 324 358 359
f 324 360 361
f 324 362 363
f 326 364 324
f 328 365 324
f 324 366 367
f 332 329 324
f 324 368 369
f 324 370 371
f 67 65 333
f 69 335 291
f 75 337 338
f 372 79 77
f 79 372 339
f 340 373 83
f 292 293 87
f 91 295 296
f 297 159 157
f 266 163 161
f 266 167 165
f 266 177 175
f 180 179 266
f 11 9 267
f 267 17 15
f 267 21 19
f 25 23 267
f 35 33 239
f 49 45 239
f 374 375 103
f 107 376 343
f 377 298 111
f 119 117 241
f 121 345 346
f 127 125 301
f 348 131 129
f 348 139 137
f 303 270 226
f 305 304 276
f 201 204 202
f 350 307 197
f 352 311 222
f 354 378 222
f 357 355 222
f 289 317 222
f 324 379 322
f 324 380 358
f 324 381 382
f 363 360 324
f 365 325 324
f 324 383 366
f 324 384 385
f 324 386 387
f 330 388 324
f 371 368 324
f 324 389 390
f 324 391 392
f 324 222 393
f 69 67 334
f 77 338 372
f 83 81 340
f 89 87 293
f 161 159 297
f 266 169 167
f 179 177 266
f 15 13 267
f 23 21 267
f 39 37 239
f 394 99 97
f 395 101 99
f 101 395 374
f 375 396 105
f 376 107 105
f 111 109 377
f 119 344 345
f 127 347 348
f 348 141 139
f 348 145 143
f 348 149 147
f 348 153 151
f 245 273 246
f 285 260 197
f 378 351 222
f 316 313 222
f 359 379 324
f 324 397 381
f 324 398 399
f 364 362 324
f 385 383 324
f 388 386 324
f 390 370 324
f 393 391 324
f 225 400 61
f 75 73 336
f 83 373 341
f 165 163 266
f 5 3 266
f 31 29 239
f 342 401 97
f 99 394 395
f 105 103 375
f 343 377 109
f 125 123 300
f 348 135 133
f 143 141 348
f 151 149 348
f 281 279 278
f 356 353 222
f 382 380 324
f 361 398 324
f 387 384 324
f 392 389 324
f 61 59 225
f 81 79 339
f 171 169 266
f 225 57 55
f 97 401 394
f 105 396 376
f 133 131 348
f 147 145 348
f 310 308 197
f 399 397 324
f 369 331 324
f 61 400 290
f 19 17 267
f 103 101 374
f 137 135 348
f 197 393 222
f 367 327 324
f 153 348 297
f 113 111 298
f 402 393 197
f 266 297 322
f 97 95 342
f 349 320 222
f 197 403 402
f 59 57 225
f 404 405 222
f 222 324 404
f 406 403 197
f 197 407 406
f 404 324 297
f 297 408 404
f 239 409 410
f 410 225 239
f 411 348 347
f 412 347 301
f 413 301 300
f 414 300 346
f 415 346 345
f 416 345 344
f 417 344 241
f 418 241 240
f 419 240 268
f 420 268 299
f 421 299 298
f 422 298 377
f 423 377 343
f 424 343 376
f 425 376 396
f 426 396 375
f 427 375 374
f 428 374 395
f 429 395 394
f 430 394 401
f 431 401 342
f 432 342 265
f 433 265 296
f 434 296 295
f 435 295 294
f 436 294 293
f 437 293 292
f 438 292 341
f 439 341 373
f 440 373 340
f 441 340 339
f 442 339 372
f 443 372 338
f 444 338 337
f 445 337 336
f 446 336 264
f 447 264 291
f 448 291 335
f 449 335 334
f 450 334 333
f 451 333 263
f 452 263 290
f 453 290 400
f 454 400 225
f 225 410 454
f 400 454 453
f 290 453 452
f 263 452 451
f 333 451 450
f 334 450 449
f 335 449 448
f 291 448 447
f 264 447 446
f 336 446 445
f 337 445 444
f 338 444 443
f 372 443 442
f 339 442 441
f 340 441 440
f 373 440 439
f 341 439 438
f 292 438 437
f 293 437 436
f 294 436 435
f 295 435 434
f 296 434 433
f 265 433 432
f 342 432 431
f 401 431 430
f 394 430 429
f 395 429 428
f 374 428 427
f 375 427 426
f 396 426 425
f 376 425 424
f 343 424 423
f 377 423 422
f 298 422 421
f 299 421 420
f 268 420 419
f 240 419 418
f 241 418 417
f 344 417 416
f 345 416 415
f 346 415 414
f 300 414 413
f 301 413 412
f 347 412 411
f 348 411 408
f 408 297 348
f 222 405 455
f 455 226 222
f 196 456 407
f 407 197 196
f 456 196 219
f 457 219 193
f 458 193 212
f 459 212 191
f 460 191 189
f 461 189 188
f 462 188 186
f 463 186 184
f 464 184 182
f 465 182 181
f 466 181 232
f 467 232 209
f 468 209 218
f 469 218 207
f 470 207 205
f 471 205 204
f 472 204 201
f 473 201 217
f 474 217 255
f 475 255 253
f 476 253 252
f 477 252 229
f 478 229 251
f 479 251 280
f 480 280 278
f 481 278 277
f 482 277 248
f 483 248 276
f 484 276 304
f 485 304 274
f 486 274 273
f 487 273 245
f 488 245 272
f 489 272 243
f 490 243 227
f 491 227 226
f 226 455 491
f 227 491 490
f 243 490 489
f 272 489 488
f 245 488 487
f 273 487 486
f 274 486 485
f 304 485 484
f 276 484 483
f 248 483 482
f 277 482 481
f 278 481 480
f 280 480 479
f 251 479 478
f 229 478 477
f 252 477 476
f 253 476 475
f 255 475 474
f 217 474 473
f 201 473 472
f 204 472 471
f 205 471 470
f 207 470 469
f 218 469 468
f 209 468 467
f 232 467 466
f 181 466 465
f 182 465 464
f 184 464 463
f 186 463 462
f 188 462 461
f 189 461 460
f 191 460 459
f 212 459 458
f 193 458 457
f 219 457 456
f 492 493 200
f 494 492 199
f 495 494 216
f 496 495 215
f 497 496 259
f 498 497 258
f 499 498 282
f 500 499 283
f 501 500 261
f 502 501 260
f 503 502 285
f 504 503 284
f 505 504 306
f 506 505 286
f 507 506 262
f 508 507 237
f 509 508 236
f 510 509 307
f 511 510 350
f 512 511 309
f 513 512 308
f 514 513 310
f 515 516 224
f 238 224 516
f 516 514 238
f 517 515 223
f 518 517 287
f 519 518 312
f 520 519 311
f 521 520 352
f 522 521 351
f 523 522 378
f 524 523 354
f 525 524 353
f 526 525 356
f 527 526 355
f 528 527 357
f 529 528 314
f 530 529 313
f 531 530 316
f 532 531 315
f 533 532 318
f 534 533 317
f 535 534 289
f 536 535 288
f 537 536 319
f 538 537 321
f 539 538 320
f 540 539 349
f 541 540 269
f 542 541 271
f 543 542 270
f 544 543 303
f 545 544 302
f 546 545 242
f 547 546 228
f 548 547 244
f 549 548 247
f 550 549 246
f 551 550 275
f 552 551 305
f 553 552 250
f 554 553 249
f 555 554 279
f 556 555 281
f 557 556 231
f 558 557 230
f 559 558 254
f 560 559 256
f 561 560 203
f 562 561 202
f 563 562 206
f 564 563 208
f 565 564 211
f 566 565 210
f 567 566 257
f 568 567 183
f 569 568 185
f 570 569 187
f 571 570 190
f 572 571 192
f 573 572 195
f 574 573 194
f 575 574 220
f 576 575 233
f 577 576 235
f 578 577 234
f 579 578 221
f 580 579 213
f 581 580 198
f 493 581 214
f 214 200 493
f 198 214 581
f 213 198 580
f 221 213 579
f 234 221 578
f 235 234 577
f 233 235 576
f 220 233 575
f 194 220 574
f 195 194 573
f 192 195 572
f 190 192 571
f 187 190 570
f 185 187 569
f 183 185 568
f 257 183 567
f 210 257 566
f 211 210 565
f 208 211 564
f 206 208 563
f 202 206 562
f 203 202 561
f 256 203 560
f 254 256 559
f 230 254 558
f 231 230 557
f 281 231 556
f 279 281 555
f 249 279 554
f 250 249 553
f 305 250 552
f 275 305 551
f 246 275 550
f 247 246 549
f 244 247 548
f 228 244 547
f 242 228 546
f 302 242 545
f 303 302 544
f 270 303 543
f 271 270 542
f 269 271 541
f 349 269 540
f 320 349 539
f 321 320 538
f 319 321 537
f 288 319 536
f 289 288 535
f 317 289 534
f 318 317 533
f 315 318 532
f 316 315 531
f 313 316 530
f 314 313 529
f 357 314 528
f 355 357 527
f 356 355 526
f 353 356 525
f 354 353 524
f 378 354 523
f 351 378 522
f 352 351 521
f 311 352 520
f 312 311 519
f 287 312 518
f 223 287 517
f 224 223 515
f 310 238 514
f 308 310 513
f 309 308 512
f 350 309 511
f 307 350 510
f 236 307 509
f 237 236 508
f 262 237 507
f 286 262 506
f 306 286 505
f 284 306 504
f 285 284 503
f 260 285 502
f 261 260 501
f 283 261 500
f 282 283 499
f 258 282 498
f 259 258 497
f 215 259 496
f 216 215 495
f 199 216 494
f 200 199 492
f 402 582 583
f 583 393 402
f 584 585 322
f 586 584 379
f 587 586 359
f 588 587 358
f 589 588 380
f 590 589 382
f 591 590 381
f 592 591 397
f 593 592 399
f 594 593 398
f 595 594 361
f 596 595 360
f 597 596 363
f 598 597 362
f 599 598 364
f 600 599 326
f 601 600 325
f 602 601 365
f 603 602 328
f 604 603 327
f 605 604 367
f 606 605 366
f 607 606 383
f 608 607 385
f 609 608 384
f 610 609 387
f 611 610 386
f 612 611 388
f 613 612 330
f 614 613 329
f 615 614 332
f 616 615 331
f 617 616 369
f 618 617 368
f 619 618 371
f 620 619 370
f 621 620 390
f 622 621 389
f 623 622 392
f 583 623 391
f 391 393 583
f 392 391 623
f 389 392 622
f 390 389 621
f 370 390 620
f 371 370 619
f 368 371 618
f 369 368 617
f 331 369 616
f 332 331 615
f 329 332 614
f 330 329 613
f 388 330 612
f 386 388 611
f 387 386 610
f 384 387 609
f 385 384 608
f 383 385 607
f 366 383 606
f 367 366 605
f 327 367 604
f 328 327 603
f 365 328 602
f 325 365 601
f 326 325 600
f 364 326 599
f 362 364 598
f 363 362 597
f 360 363 596
f 361 360 595
f 398 361 594
f 399 398 593
f 397 399 592
f 381 397 591
f 382 381 590
f 380 382 589
f 358 380 588
f 359 358 587
f 379 359 586
f 322 379 584
f 322 585 624
f 624 323 322
f 323 624 625
f 625 266 323
f 266 625 626
f 626 267 266
f 403 406 582
f 406 627 628
f 628 582 406
f 629 628 627
f 627 630 629
f 631 632 627
f 627 406 631
f 582 402 403
f 630 627 633
f 633 634 630
f 635 636 628
f 628 629 635
f 636 635 637
f 638 637 639
f 640 639 641
f 642 641 643
f 644 643 645
f 646 645 647
f 648 647 649
f 650 649 651
f 652 651 653
f 654 653 655
f 656 655 657
f 658 657 659
f 660 659 661
f 662 661 663
f 664 663 665
f 666 665 667
f 668 667 669
f 670 669 671
f 672 671 673
f 674 673 675
f 676 675 677
f 678 677 679
f 680 679 681
f 682 681 683
f 684 683 685
f 686 685 687
f 688 687 689
f 690 689 691
f 692 691 693
f 694 693 695
f 696 695 697
f 698 697 699
f 700 699 701
f 702 701 703
f 704 703 705
f 706 705 707
f 708 707 709
f 710 709 711
f 712 711 713
f 714 713 715
f 716 715 717
f 718 717 719
f 720 719 721
f 722 721 723
f 724 723 725
f 725 726 724
f 723 724 722
f 721 722 720
f 719 720 718
f 717 718 716
f 715 716 714
f 713 714 712
f 711 712 710
f 709 710 708
f 707 708 706
f 705 706 704
f 703 704 702
f 701 702 700
f 699 700 698
f 697 698 696
f 695 696 694
f 693 694 692
f 691 692 690
f 689 690 688
f 687 688 686
f 685 686 684
f 683 684 682
f 681 682 680
f 679 680 678
f 677 678 676
f 675 676 674
f 673 674 672
f 671 672 670
f 669 670 668
f 667 668 666
f 665 666 664
f 663 664 662
f 661 662 660
f 659 660 658
f 657 658 656
f 655 656 654
f 653 654 652
f 651 652 650
f 649 650 648
f 647 648 646
f 645 646 644
f 643 644 642
f 641 642 640
f 639 640 638
f 637 638 636
f 727 728 726
f 726 725 727
f 729 730 728
f 728 727 729
f 731 732 730
f 730 729 731
f 733 732 731
f 734 733 735
f 736 734 737
f 738 736 739
f 740 738 741
f 742 740 743
f 744 742 745
f 746 744 747
f 748 746 749
f 750 748 751
f 752 750 753
f 754 752 755
f 756 754 757
f 758 756 759
f 760 758 761
f 762 760 763
f 764 762 765
f 766 764 767
f 768 766 769
f 770 768 771
f 772 770 773
f 774 772 775
f 776 774 777
f 778 776 779
f 780 778 781
f 782 780 783
f 784 782 785
f 786 784 787
f 788 786 789
f 790 788 791
f 792 790 793
f 794 792 795
f 796 794 797
f 798 796 799
f 800 798 801
f 802 800 803
f 804 802 805
f 805 806 804
f 803 805 802
f 801 803 800
f 799 801 798
f 797 799 796
f 795 797 794
f 793 795 792
f 791 793 790
f 789 791 788
f 787 789 786
f 785 787 784
f 783 785 782
f 781 783 780
f 779 781 778
f 777 779 776
f 775 777 774
f 773 775 772
f 771 773 770
f 769 771 768
f 767 769 766
f 765 767 764
f 763 765 762
f 761 763 760
f 759 761 758
f 757 759 756
f 755 757 754
f 753 755 752
f 751 753 750
f 749 751 748
f 747 749 746
f 745 747 744
f 743 745 742
f 741 743 740
f 739 741 738
f 737 739 736
f 735 737 734
f 731 735 733
f 804 806 807
f 807 808 804
f 809 634 633
f 810 809 811
f 812 810 813
f 814 812 815
f 816 814 817
f 818 816 819
f 820 818 821
f 822 820 823
f 824 822 825
f 826 824 827
f 828 826 829
f 830 828 831
f 832 830 833
f 834 832 835
f 836 834 837
f 838 836 839
f 840 838 841
f 842 840 843
f 844 842 845
f 846 844 847
f 848 846 849
f 850 848 851
f 852 850 853
f 854 852 855
f 856 854 857
f 858 856 859
f 860 858 861
f 862 860 863
f 864 862 865
f 866 864 867
f 868 866 869
f 870 868 871
f 872 870 873
f 873 874 872
f 871 873 870
f 869 871 868
f 867 869 866
f 865 867 864
f 863 865 862
f 861 863 860
f 859 861 858
f 857 859 856
f 855 857 854
f 853 855 852
f 851 853 850
f 849 851 848
f 847 849 846
f 845 847 844
f 843 845 842
f 841 843 840
f 839 841 838
f 837 839 836
f 835 837 834
f 833 835 832
f 831 833 830
f 829 831 828
f 827 829 826
f 825 827 824
f 823 825 822
f 821 823 820
f 819 821 818
f 817 819 816
f 815 817 814
f 813 815 812
f 811 813 810
f 633 811 809
f 875 876 872
f 872 874 875
f 850 877 878
f 878 879 850
f 850 880 881
f 879 882 850
f 635 840 883
f 677 675 771
f 882 880 850
f 850 884 885
f 850 886 887
f 883 888 635
f 888 889 635
f 635 830 832
f 683 681 767
f 679 769 767
f 769 679 677
f 675 673 773
f 850 890 877
f 887 884 850
f 850 891 892
f 893 842 844
f 635 894 807
f 889 894 635
f 832 834 635
f 695 757 755
f 693 691 759
f 689 761 759
f 685 683 765
f 767 681 679
f 773 771 675
f 671 775 773
f 669 777 775
f 667 665 779
f 665 663 781
f 661 783 781
f 659 657 785
f 651 649 791
f 862 864 895
f 885 890 850
f 892 896 850
f 854 856 897
f 891 850 852
f 848 850 898
f 844 846 893
f 807 806 635
f 806 805 635
f 840 842 883
f 635 836 838
f 635 828 830
f 701 699 753
f 697 755 753
f 755 697 695
f 759 691 689
f 687 763 761
f 763 687 685
f 771 769 677
f 775 671 669
f 777 669 667
f 781 663 661
f 783 661 659
f 657 655 787
f 653 789 787
f 789 653 651
f 649 647 793
f 647 645 795
f 868 870 899
f 860 900 901
f 900 860 862
f 896 886 850
f 852 854 891
f 842 893 902
f 846 848 893
f 834 836 635
f 635 822 824
f 635 629 810
f 711 709 745
f 753 699 697
f 759 757 693
f 765 763 685
f 773 673 671
f 781 779 665
f 787 785 657
f 791 789 651
f 795 793 647
f 641 639 799
f 639 637 801
f 635 803 801
f 903 866 868
f 895 900 862
f 904 856 858
f 897 891 854
f 898 893 848
f 838 840 635
f 824 826 635
f 810 812 635
f 713 743 741
f 743 713 711
f 703 701 751
f 695 693 757
f 767 765 683
f 785 783 659
f 793 791 649
f 643 797 795
f 797 643 641
f 801 637 635
f 870 872 905
f 906 905 872
f 864 903 907
f 903 864 866
f 858 860 904
f 902 883 842
f 826 828 635
f 635 818 820
f 635 814 816
f 629 809 810
f 629 630 634
f 729 727 725
f 723 735 731
f 721 737 735
f 745 743 711
f 709 707 747
f 705 749 747
f 749 705 703
f 761 689 687
f 787 655 653
f 799 797 641
f 635 805 803
f 872 876 906
f 864 908 909
f 899 903 868
f 901 904 860
f 816 818 635
f 634 809 629
f 731 725 723
f 735 723 721
f 719 717 739
f 715 741 739
f 747 745 709
f 751 749 703
f 779 777 667
f 801 799 639
f 905 910 870
f 907 908 864
f 881 898 850
f 812 814 635
f 721 719 737
f 739 717 715
f 747 707 705
f 795 645 643
f 909 895 864
f 820 822 635
f 739 737 719
f 753 751 701
f 904 897 856
f 741 715 713
f 725 731 729
f 910 899 870
f 911 912 905
f 905 906 911
f 876 875 911
f 911 906 876
f 910 905 912
f 899 910 913
f 903 899 914
f 907 903 915
f 908 907 916
f 909 908 917
f 895 909 918
f 900 895 919
f 901 900 920
f 904 901 921
f 897 904 922
f 891 897 923
f 892 891 924
f 896 892 925
f 886 896 926
f 887 886 927
f 884 887 928
f 885 884 929
f 890 885 930
f 877 890 931
f 878 877 932
f 879 878 933
f 882 879 934
f 880 882 935
f 881 880 936
f 898 881 937
f 893 898 938
f 902 893 939
f 883 902 940
f 888 883 941
f 889 888 942
f 894 889 943
f 807 894 944
f 944 808 807
f 943 944 894
f 942 943 889
f 941 942 888
f 940 941 883
f 939 940 902
f 938 939 893
f 937 938 898
f 936 937 881
f 935 936 880
f 934 935 882
f 933 934 879
f 932 933 878
f 931 932 877
f 930 931 890
f 929 930 885
f 928 929 884
f 927 928 887
f 926 927 886
f 925 926 896
f 924 925 892
f 923 924 891
f 922 923 897
f 921 922 904
f 920 921 901
f 919 920 900
f 918 919 895
f 917 918 909
f 916 917 908
f 915 916 907
f 914 915 903
f 913 914 899
f 912 913 910
f 945 946 632
f 947 948 632
f 632 946 947
f 632 631 945
f 949 950 948
f 948 947 949
f 951 952 946
f 946 945 951
f 953 954 955
f 956 955 957
f 958 957 959
f 960 959 961
f 962 961 963
f 964 963 965
f 966 965 967
f 968 967 969
f 970 969 971
f 972 971 973
f 974 973 975
f 976 975 977
f 978 977 979
f 980 979 981
f 982 981 983
f 984 983 985
f 986 985 987
f 988 987 989
f 990 989 991
f 992 991 993
f 994 993 995
f 996 995 997
f 998 997 999
f 1000 999 1001
f 1002 1001 1003
f 1004 1003 1005
f 1006 1005 1007
f 1008 1007 1009
f 1010 1009 1011
f 1012 1011 1013
f 1014 1013 1015
f 1016 1015 1017
f 1018 1017 1019
f 1020 1019 1021
f 1022 1021 1023
f 1024 1023 1025
f 1026 1025 1027
f 1028 1027 1029
f 1030 1029 1031
f 1032 1031 1033
f 1034 1033 1035
f 1036 1035 1037
f 1038 1037 1039
f 1040 1039 952
f 952 951 1040
f 1039 1040 1038
f 1037 1038 1036
f 1035 1036 1034
f 1033 1034 1032
f 1031 1032 1030
f 1029 1030 1028
f 1027 1028 1026
f 1025 1026 1024
f 1023 1024 1022
f 1021 1022 1020
f 1019 1020 1018
f 1017 1018 1016
f 1015 1016 1014
f 1013 1014 1012
f 1011 1012 1010
f 1009 1010 1008
f 1007 1008 1006
f 1005 1006 1004
f 1003 1004 1002
f 1001 1002 1000
f 999 1000 998
f 997 998 996
f 995 996 994
f 993 994 992
f 991 992 990
f 989 990 988
f 987 988 986
f 985 986 984
f 983 984 982
f 981 982 980
f 979 980 978
f 977 978 976
f 975 976 974
f 973 974 972
f 971 972 970
f 969 970 968
f 967 968 966
f 965 966 964
f 963 964 962
f 961 962 960
f 959 960 958
f 957 958 956
f 955 956 953
f 1041 1042 954
f 954 953 1041
f 1042 1041 1043
f 1043 1044 1042
f 1044 1043 1045
f 1045 1046 1044
f 433 434 90
f 489 490 547
f 491 546 547
f 455 545 546
f 92 432 433
f 434 435 88
f 463 464 568
f 547 490 491
f 455 544 545
f 429 430 96
f 430 431 94
f 432 92 94
f 88 90 434
f 456 579 580
f 456 574 575
f 462 569 570
f 569 462 463
f 464 465 567
f 466 566 567
f 546 491 455
f 405 539 540
f 405 537 538
f 405 535 536
f 94 96 430
f 90 92 433
f 436 86 88
f 437 84 86
f 438 439 82
f 580 407 456
f 456 577 578
f 575 576 456
f 458 459 572
f 568 569 463
f 567 465 466
f 468 469 564
f 483 484 552
f 455 543 544
f 455 541 542
f 540 455 405
f 536 537 405
f 405 531 532
f 405 529 530
f 409 26 28
f 419 112 114
f 94 431 432
f 86 436 437
f 84 437 438
f 439 440 80
f 442 76 78
f 447 448 68
f 452 453 60
f 580 581 407
f 576 577 456
f 457 573 574
f 573 457 458
f 461 570 571
f 567 568 464
f 565 467 468
f 469 470 563
f 471 562 563
f 472 561 562
f 473 474 560
f 478 479 556
f 553 482 483
f 484 485 551
f 542 543 455
f 538 539 405
f 405 533 534
f 530 531 405
f 1047 146 148
f 1047 142 144
f 28 30 409
f 114 418 419
f 420 421 110
f 424 425 104
f 428 98 100
f 88 435 436
f 80 82 439
f 441 78 80
f 78 441 442
f 70 446 447
f 448 449 66
f 62 451 452
f 453 454 58
f 578 579 456
f 572 573 458
f 459 460 571
f 570 461 462
f 467 565 566
f 563 564 469
f 562 471 472
f 561 472 473
f 474 475 559
f 476 558 559
f 477 557 558
f 557 477 478
f 482 553 554
f 551 552 484
f 488 489 548
f 540 541 455
f 532 533 405
f 405 526 527
f 631 514 516
f 501 631 407
f 407 498 499
f 144 146 1047
f 148 150 1047
f 410 409 47
f 409 34 36
f 30 32 409
f 409 20 22
f 1 1048 1049
f 414 120 122
f 418 114 116
f 110 112 420
f 423 106 108
f 106 423 424
f 427 100 102
f 100 427 428
f 82 84 438
f 442 443 76
f 444 445 72
f 446 70 72
f 66 68 448
f 450 64 66
f 451 62 64
f 58 60 453
f 574 456 457
f 571 460 461
f 564 565 468
f 560 561 473
f 559 475 476
f 556 557 478
f 479 480 555
f 481 554 555
f 552 553 483
f 486 550 551
f 487 549 550
f 549 487 488
f 534 535 405
f 527 528 405
f 631 517 518
f 516 515 631
f 515 517 631
f 631 512 513
f 499 500 407
f 1050 166 168
f 150 152 1047
f 1047 138 140
f 409 44 47
f 32 34 409
f 22 24 409
f 1045 14 16
f 1049 2 1
f 1049 1051 2
f 413 122 124
f 122 413 414
f 415 416 118
f 416 417 116
f 419 420 112
f 422 108 110
f 104 106 424
f 425 426 102
f 428 429 98
f 80 440 441
f 443 444 74
f 72 445 446
f 66 449 450
f 60 62 452
f 571 572 459
f 563 470 471
f 558 476 477
f 555 480 481
f 551 485 486
f 548 549 488
f 528 529 405
f 405 524 525
f 518 405 631
f 518 519 405
f 513 514 631
f 631 506 507
f 631 504 505
f 631 501 502
f 407 497 498
f 407 495 496
f 407 492 494
f 631 1052 1053
f 1054 176 178
f 1050 174 176
f 168 170 1050
f 170 172 1050
f 1047 156 158
f 140 142 1047
f 962 1055 1056
f 964 1057 1055
f 1041 953 1058
f 409 42 44
f 409 38 40
f 24 26 409
f 16 409 1045
f 16 18 409
f 2 1059 1060
f 2 1061 1062
f 1048 10 12
f 1048 6 8
f 1045 1063 1064
f 411 412 124
f 414 415 120
f 116 118 416
f 110 421 422
f 102 104 425
f 96 98 429
f 72 74 444
f 64 450 451
f 566 466 467
f 555 556 479
f 550 486 487
f 525 526 405
f 405 522 523
f 405 519 520
f 505 506 631
f 502 503 631
f 496 497 407
f 407 493 492
f 945 631 1065
f 631 1066 1067
f 1053 1068 631
f 176 1054 1050
f 178 2 1054
f 172 174 1050
f 1047 162 164
f 158 160 1047
f 160 162 1047
f 1047 152 154
f 1047 136 138
f 1030 1069 1070
f 1040 951 1071
f 956 1072 1073
f 958 960 1056
f 1055 962 964
f 1058 1074 1041
f 47 46 410
f 36 38 409
f 1062 1059 2
f 2 1051 1075
f 8 10 1048
f 1 4 1048
f 14 1045 1076
f 1045 1077 1078
f 1045 1079 1063
f 1079 1045 1043
f 124 412 413
f 116 417 418
f 102 426 427
f 68 70 447
f 134 631 408
f 559 560 474
f 547 548 489
f 405 521 522
f 631 510 511
f 631 508 509
f 503 504 631
f 494 495 407
f 945 1080 1081
f 945 1082 1083
f 1067 1065 631
f 631 1084 1085
f 631 1086 1052
f 166 1050 1087
f 164 166 1047
f 154 156 1047
f 1002 1088 1089
f 1012 1014 1090
f 1018 1091 1092
f 1020 1093 1091
f 1022 1024 1094
f 1070 1028 1030
f 1032 1034 1095
f 1038 1096 1097
f 1096 1038 1040
f 1073 953 956
f 1056 960 962
f 966 968 1098
f 968 970 1099
f 972 1100 1099
f 984 1101 1102
f 994 996 1103
f 953 1104 1058
f 46 50 410
f 18 20 409
f 1075 1061 2
f 4 6 1048
f 1078 1076 1045
f 1043 1105 1079
f 118 120 415
f 74 76 443
f 411 132 134
f 554 481 482
f 520 521 405
f 509 510 631
f 511 512 631
f 407 500 501
f 945 1106 1107
f 1081 1108 945
f 1065 1082 945
f 1068 1084 631
f 631 134 136
f 1000 1089 1109
f 1089 1000 1002
f 1006 1008 1110
f 1010 1111 1110
f 1111 1010 1012
f 1014 1016 1092
f 1091 1018 1020
f 1093 1020 1022
f 1024 1026 1112
f 1028 1070 1112
f 1095 1069 1032
f 1034 1036 1097
f 1071 1096 1040
f 1056 1072 958
f 1057 964 966
f 1099 970 972
f 974 1113 1100
f 976 978 1114
f 978 980 1115
f 982 1102 1115
f 1102 982 984
f 986 988 1116
f 990 1117 1116
f 1118 992 994
f 996 998 1109
f 1074 1119 1041
f 953 1120 1121
f 410 52 54
f 40 42 409
f 12 14 1048
f 1060 1054 2
f 1064 1077 1045
f 108 422 423
f 410 56 58
f 411 130 132
f 411 126 128
f 523 524 405
f 507 508 631
f 1107 951 945
f 945 1122 1080
f 1085 1066 631
f 631 1123 1124
f 136 1125 631
f 1125 1123 631
f 136 1047 1126
f 1002 1004 1088
f 1004 1006 1127
f 1110 1008 1010
f 1092 1090 1014
f 1094 1093 1022
f 1112 1026 1028
f 1097 1095 1034
f 951 1128 1071
f 956 958 1072
f 1099 1098 968
f 1100 972 974
f 1115 1114 978
f 984 986 1101
f 1116 988 990
f 992 1118 1117
f 1109 1103 996
f 1041 1129 1130
f 1119 1131 1041
f 953 1132 1120
f 50 52 410
f 1076 1048 14
f 58 454 410
f 128 130 411
f 1107 1133 951
f 1083 1122 945
f 1124 1086 631
f 1087 1047 166
f 1127 1088 1004
f 1090 1111 1012
f 1112 1094 1024
f 1097 1036 1038
f 1098 1057 966
f 1114 1113 976
f 1116 1101 986
f 1103 1118 994
f 1134 1105 1043
f 1041 1135 1129
f 1121 1104 953
f 408 411 134
f 408 631 405
f 631 406 407
f 1108 1106 945
f 1126 1125 136
f 1110 1127 1006
f 1030 1032 1069
f 974 976 1113
f 1117 990 992
f 1041 1136 1134
f 1131 1135 1041
f 124 126 411
f 581 493 407
f 1092 1016 1018
f 1115 980 982
f 1130 1136 1041
f 405 404 408
f 1109 998 1000
f 1043 1041 1134
f 1133 1128 951
f 54 56 410
f 1073 1132 953
f 1039 1137 1138
f 1029 1027 1139
f 1011 1140 1141
f 1138 952 1039
f 1037 1035 1142
f 1031 1143 1144
f 1143 1031 1029
f 1021 1145 1146
f 1019 1017 1147
f 1017 1015 1148
f 1013 1141 1148
f 1141 1013 1011
f 1001 999 1149
f 993 1150 1151
f 947 1152 1153
f 947 946 1154
f 1042 1155 1156
f 1142 1137 1037
f 1033 1144 1142
f 1139 1143 1029
f 1027 1025 1157
f 1023 1146 1157
f 1146 1023 1021
f 1148 1147 1017
f 1011 1009 1140
f 1009 1007 1158
f 1159 1003 1001
f 999 997 1160
f 995 1151 1160
f 1151 995 993
f 1153 1161 947
f 946 1162 1154
f 1042 1163 1155
f 1039 1037 1137
f 1144 1033 1031
f 1157 1025 1023
f 1147 1145 1019
f 1158 1140 1009
f 1005 1164 1158
f 1003 1159 1164
f 1160 1149 999
f 993 991 1150
f 991 989 1165
f 989 987 1166
f 985 1167 1166
f 983 981 1168
f 971 969 1169
f 967 1170 1169
f 965 1171 1170
f 963 961 1172
f 961 959 1173
f 1174 957 955
f 957 1174 1173
f 947 1175 1152
f 947 1176 1177
f 946 1178 1162
f 946 1179 1180
f 946 1181 1182
f 954 1183 1184
f 1156 954 1042
f 1142 1035 1033
f 1021 1019 1145
f 1158 1007 1005
f 1149 1159 1001
f 1165 1150 991
f 1166 987 985
f 1167 985 983
f 981 979 1185
f 977 1186 1185
f 975 1187 1186
f 973 971 1188
f 1169 969 967
f 1170 967 965
f 1173 1172 961
f 1173 959 957
f 947 1189 1190
f 1177 1175 947
f 1180 1178 946
f 946 1191 1181
f 946 952 1192
f 1193 1194 1046
f 1184 1195 954
f 954 1196 1197
f 1042 1198 1163
f 1157 1139 1027
f 1164 1005 1003
f 1166 1165 989
f 1185 1168 981
f 1186 977 975
f 1187 975 973
f 965 963 1171
f 955 954 1174
f 1190 1199 947
f 947 1200 1201
f 947 1202 1203
f 1154 1176 947
f 1182 1204 946
f 952 1205 1192
f 949 1206 1193
f 949 947 1207
f 1197 1183 954
f 1042 1208 1198
f 1042 1209 1210
f 1148 1015 1013
f 1168 1167 983
f 1188 1187 973
f 1172 1171 963
f 1201 1189 947
f 1203 1211 947
f 1204 1179 946
f 952 1212 1205
f 1213 1214 1044
f 1046 949 1193
f 949 1215 1216
f 949 1217 1218
f 949 1219 1220
f 949 1221 1222
f 947 1223 1207
f 1156 1196 954
f 1210 1224 1042
f 1225 1042 1044
f 1160 997 995
f 1169 1188 971
f 1211 1200 947
f 1192 1191 946
f 1194 1213 1046
f 949 1226 1215
f 1220 1217 949
f 1207 1221 949
f 1224 1208 1042
f 1044 1214 1225
f 1185 979 977
f 1161 1202 947
f 1216 1206 949
f 1222 1219 949
f 1225 1209 1042
f 1199 1223 947
f 1218 1226 949
f 1138 1212 952
f 1195 1174 954
f 1044 1046 1213
f 1103 1109 1160
f 1118 1103 1151
f 1117 1118 1150
f 1116 1117 1165
f 1101 1116 1166
f 1102 1101 1167
f 1115 1102 1168
f 1114 1115 1185
f 1113 1114 1186
f 1100 1113 1187
f 1099 1100 1188
f 1098 1099 1169
f 1057 1098 1170
f 1055 1057 1171
f 1056 1055 1172
f 1072 1056 1173
f 1073 1072 1174
f 1132 1073 1195
f 1120 1132 1184
f 1121 1120 1183
f 1104 1121 1197
f 1058 1104 1196
f 1119 1074 1155
f 1156 1155 1074
f 1074 1058 1156
f 1131 1119 1163
f 1135 1131 1198
f 1129 1135 1208
f 1130 1129 1224
f 1136 1130 1210
f 1134 1136 1209
f 1105 1134 1225
f 1079 1105 1214
f 1063 1079 1213
f 1064 1063 1194
f 1077 1064 1193
f 1078 1077 1206
f 1076 1078 1216
f 1048 1076 1215
f 1049 1048 1226
f 1051 1049 1218
f 1075 1051 1217
f 1061 1075 1220
f 1062 1061 1219
f 1059 1062 1222
f 1060 1059 1221
f 1054 1060 1207
f 1050 1054 1223
f 1087 1050 1199
f 1047 1087 1190
f 1126 1047 1189
f 1125 1126 1201
f 1123 1125 1200
f 1124 1123 1211
f 1086 1124 1203
f 1052 1086 1202
f 1053 1052 1161
f 1068 1053 1153
f 1084 1068 1152
f 1085 1084 1175
f 1066 1085 1177
f 1067 1066 1176
f 1065 1067 1154
f 1082 1065 1162
f 1083 1082 1178
f 1122 1083 1180
f 1080 1122 1179
f 1081 1080 1204
f 1108 1081 1182
f 1106 1108 1181
f 1107 1106 1191
f 1133 1107 1192
f 1128 1133 1205
f 1071 1128 1212
f 1096 1071 1138
f 1097 1096 1137
f 1095 1097 1142
f 1069 1095 1144
f 1070 1069 1143
f 1112 1070 1139
f 1094 1112 1157
f 1093 1094 1146
f 1091 1093 1145
f 1092 1091 1147
f 1090 1092 1148
f 1111 1090 1141
f 1110 1111 1140
f 1127 1110 1158
f 1088 1127 1164
f 1089 1088 1159
f 1109 1089 1149
f 1149 1160 1109
f 1159 1149 1089
f 1164 1159 1088
f 1158 1164 1127
f 1140 1158 1110
f 1141 1140 1111
f 1148 1141 1090
f 1147 1148 1092
f 1145 1147 1091
f 1146 1145 1093
f 1157 1146 1094
f 1139 1157 1112
f 1143 1139 1070
f 1144 1143 1069
f 1142 1144 1095
f 1137 1142 1097
f 1138 1137 1096
f 1212 1138 1071
f 1205 1212 1128
f 1192 1205 1133
f 1191 1192 1107
f 1181 1191 1106
f 1182 1181 1108
f 1204 1182 1081
f 1179 1204 1080
f 1180 1179 1122
f 1178 1180 1083
f 1162 1178 1082
f 1154 1162 1065
f 1176 1154 1067
f 1177 1176 1066
f 1175 1177 1085
f 1152 1175 1084
f 1153 1152 1068
f 1161 1153 1053
f 1202 1161 1052
f 1203 1202 1086
f 1211 1203 1124
f 1200 1211 1123
f 1201 1200 1125
f 1189 1201 1126
f 1190 1189 1047
f 1199 1190 1087
f 1223 1199 1050
f 1207 1223 1054
f 1221 1207 1060
f 1222 1221 1059
f 1219 1222 1062
f 1220 1219 1061
f 1217 1220 1075
f 1218 1217 1051
f 1226 1218 1049
f 1215 1226 1048
f 1216 1215 1076
f 1206 1216 1078
f 1193 1206 1077
f 1194 1193 1064
f 1213 1194 1063
f 1214 1213 1079
f 1225 1214 1105
f 1209 1225 1134
f 1210 1209 1136
f 1224 1210 1130
f 1208 1224 1129
f 1198 1208 1135
f 1163 1198 1131
f 1155 1163 1119
f 1196 1156 1058
f 1197 1196 1104
f 1183 1197 1121
f 1184 1183 1120
f 1195 1184 1132
f 1174 1195 1073
f 1173 1174 1072
f 1172 1173 1056
f 1171 1172 1055
f 1170 1171 1057
f 1169 1170 1098
f 1188 1169 1099
f 1187 1188 1100
f 1186 1187 1113
f 1185 1186 1114
f 1168 1185 1115
f 1167 1168 1102
f 1166 1167 1101
f 1165 1166 1116
f 1150 1165 1117
f 1151 1150 1118
f 1160 1151 1103
f 1046 1045 950
f 1045 1227 1228
f 1228 950 1045
f 1229 1228 1227
f 1227 1230 1229
f 409 626 1227
f 1227 1045 409
f 239 267 626
f 626 409 239
f 950 949 1046
f 1230 1227 1231
f 1231 1232 1230
f 702 704 585
f 585 584 702
f 700 702 587
f 1233 935 934
f 1233 937 936
f 1233 939 938
f 1233 808 944
f 584 586 702
f 587 588 700
f 936 935 1233
f 1233 940 939
f 1233 942 941
f 944 943 1233
f 586 587 702
f 588 589 700
f 698 700 590
f 696 698 592
f 692 694 597
f 684 612 613
f 684 610 611
f 682 614 615
f 680 617 618
f 676 622 623
f 676 620 621
f 948 819 817
f 948 835 833
f 1231 750 752
f 1233 932 931
f 938 937 1233
f 943 942 1233
f 1231 772 774
f 589 590 700
f 590 591 698
f 592 593 696
f 694 696 595
f 597 598 692
f 690 692 600
f 690 604 605
f 690 602 603
f 611 612 684
f 682 613 614
f 680 616 617
f 678 619 620
f 621 622 676
f 674 623 583
f 582 628 636
f 948 813 811
f 817 815 948
f 948 823 821
f 948 827 825
f 948 831 829
f 948 837 835
f 1231 756 758
f 752 754 1231
f 1231 742 744
f 1233 933 932
f 941 940 1233
f 1231 786 788
f 1231 782 784
f 774 776 1231
f 1231 768 770
f 1231 764 766
f 1231 760 762
f 1233 928 927
f 585 710 712
f 585 706 708
f 591 592 698
f 593 594 696
f 595 596 694
f 598 599 692
f 600 601 690
f 603 604 690
f 688 606 607
f 686 609 610
f 686 607 608
f 615 680 682
f 680 615 616
f 678 618 619
f 583 672 674
f 583 654 656
f 583 648 650
f 636 583 582
f 948 859 857
f 948 865 863
f 948 871 869
f 815 813 948
f 825 823 948
f 833 831 948
f 948 841 839
f 948 845 843
f 948 853 851
f 754 756 1231
f 1231 746 748
f 1231 740 742
f 1231 736 738
f 934 933 1233
f 1231 800 802
f 1231 794 796
f 1231 790 792
f 784 786 1231
f 1231 778 780
f 770 772 1231
f 762 764 1231
f 1233 920 919
f 1233 925 924
f 927 926 1233
f 708 710 585
f 594 595 696
f 599 600 692
f 605 688 690
f 688 605 606
f 608 609 686
f 618 678 680
f 623 674 676
f 583 664 666
f 583 660 662
f 656 658 583
f 583 646 648
f 583 640 642
f 636 638 583
f 857 855 948
f 863 861 948
f 869 867 948
f 948 874 873
f 821 819 948
f 839 837 948
f 948 847 845
f 851 849 948
f 748 750 1231
f 738 740 1231
f 1231 733 734
f 931 930 1233
f 808 1233 1234
f 1231 798 800
f 792 794 1231
f 780 782 1231
f 766 768 1231
f 1233 916 915
f 1233 918 917
f 1233 921 920
f 1233 923 922
f 926 925 1233
f 624 585 726
f 585 714 716
f 704 706 585
f 601 602 690
f 610 684 686
f 620 676 678
f 662 664 583
f 583 652 654
f 583 644 646
f 638 640 583
f 861 859 948
f 873 871 948
f 829 827 948
f 849 847 948
f 744 746 1231
f 1231 732 733
f 1234 804 808
f 796 798 1231
f 776 778 1231
f 1233 914 913
f 917 916 1233
f 922 921 1233
f 1233 929 928
f 585 724 726
f 585 720 722
f 716 718 585
f 596 597 694
f 613 682 684
f 583 668 670
f 658 660 583
f 642 644 583
f 867 865 948
f 948 950 875
f 627 632 948
f 843 841 948
f 734 736 1231
f 1231 1227 730
f 930 929 1233
f 788 790 1231
f 915 914 1233
f 924 923 1233
f 722 724 585
f 712 714 585
f 670 672 583
f 650 652 583
f 875 874 948
f 811 633 948
f 730 732 1231
f 802 804 1231
f 1233 912 911
f 919 918 1233
f 718 720 585
f 666 668 583
f 948 633 627
f 950 1228 911
f 1234 1231 804
f 913 912 1233
f 1227 624 728
f 607 686 688
f 911 875 950
f 911 1228 1233
f 726 728 624
f 626 625 624
f 758 760 1231
f 624 1227 626
f 728 730 1227
f 855 853 948
f 1230 1232 1235
f 1235 1229 1230
f 1235 1236 1229
f 1232 1231 1234
f 1234 1235 1232
f 1235 1234 1233
f 1233 1236 1235
f 1236 1233 1228
f 1228 1229 1236
